<?xml version="1.0" encoding="UTF-8" standalone="no"?>
<!DOCTYPE svg PUBLIC "-//W3C//DTD SVG 1.1//EN"
 "http://www.w3.org/Graphics/SVG/1.1/DTD/svg11.dtd">
<!-- Generated by graphviz version 2.50.0 (0)
 -->
<!-- Title: Pointer Abstractions Pages: 1 -->
<svg width="346pt" height="27pt"
 viewBox="0.00 0.00 346.00 27.00" xmlns="http://www.w3.org/2000/svg" xmlns:xlink="http://www.w3.org/1999/xlink">
<g id="graph0" class="graph" transform="scale(1 1) rotate(0) translate(4 23)">
<title>Pointer Abstractions</title>
<polygon fill="white" stroke="transparent" points="-4,4 -4,-23 342,-23 342,4 -4,4"/>
<!-- Node1 -->
<g id="node1" class="node">
<title>Node1</title>
<g id="a_node1"><a xlink:title=" ">
<polygon fill="#bfbfbf" stroke="black" points="197,-18 90,-18 90,0 197,0 197,-18"/>
<text text-anchor="middle" x="143.5" y="-6.8" font-family="Helvetica,sans-Serif" font-size="9.00">Pointer Abstractions</text>
</a>
</g>
</g>
<!-- Node3 -->
<g id="node2" class="node">
<title>Node3</title>
<g id="a_node2"><a xlink:href="a01596.html" target="_top" xlink:title=" ">
<polygon fill="white" stroke="black" points="338,-18 285,-18 285,0 338,0 338,-18"/>
<text text-anchor="middle" x="311.5" y="-6.8" font-family="Helvetica,sans-Serif" font-size="9.00">Atomics</text>
</a>
</g>
</g>
<!-- Node1&#45;&gt;Node3 -->
<g id="edge2" class="edge">
<title>Node1&#45;&gt;Node3</title>
<path fill="none" stroke="orange" stroke-dasharray="5,2" d="M197.02,-9C226.28,-9 261.4,-9 284.74,-9"/>
<text text-anchor="middle" x="241" y="-11.8" font-family="Helvetica,sans-Serif" font-size="9.00">std::atomic</text>
</g>
<!-- Node2 -->
<g id="node3" class="node">
<title>Node2</title>
<g id="a_node3"><a xlink:href="a01578.html" target="_top" xlink:title=" ">
<polygon fill="white" stroke="black" points="53,-18 0,-18 0,0 53,0 53,-18"/>
<text text-anchor="middle" x="26.5" y="-6.8" font-family="Helvetica,sans-Serif" font-size="9.00">Memory</text>
</a>
</g>
</g>
<!-- Node2&#45;&gt;Node1 -->
<g id="edge1" class="edge">
<title>Node2&#45;&gt;Node1</title>
<path fill="none" stroke="black" d="M63.21,-9C71.61,-9 80.75,-9 89.72,-9"/>
<polygon fill="black" stroke="black" points="63.02,-5.5 53.02,-9 63.02,-12.5 63.02,-5.5"/>
</g>
</g>
</svg>
