<?xml version="1.0" encoding="UTF-8" standalone="no"?>
<!DOCTYPE svg PUBLIC "-//W3C//DTD SVG 1.1//EN"
 "http://www.w3.org/Graphics/SVG/1.1/DTD/svg11.dtd">
<!-- Generated by graphviz version 2.50.0 (0)
 -->
<!-- Title: Technical Specifications Pages: 1 -->
<svg width="296pt" height="98pt"
 viewBox="0.00 0.00 296.00 98.00" xmlns="http://www.w3.org/2000/svg" xmlns:xlink="http://www.w3.org/1999/xlink">
<g id="graph0" class="graph" transform="scale(1 1) rotate(0) translate(4 94)">
<title>Technical Specifications</title>
<polygon fill="white" stroke="transparent" points="-4,4 -4,-94 292,-94 292,4 -4,4"/>
<!-- Node2 -->
<g id="node1" class="node">
<title>Node2</title>
<g id="a_node1"><a xlink:href="a01623.html" target="_top" xlink:title=" ">
<polygon fill="white" stroke="black" points="262,-90 185,-90 185,-72 262,-72 262,-90"/>
<text text-anchor="middle" x="223.5" y="-78.8" font-family="Helvetica,sans-Serif" font-size="9.00">Filesystem TS</text>
</a>
</g>
</g>
<!-- Node3 -->
<g id="node2" class="node">
<title>Node3</title>
<g id="a_node2"><a xlink:href="a01624.html" target="_top" xlink:title=" ">
<polygon fill="white" stroke="black" points="288,-54 159,-54 159,-36 288,-36 288,-54"/>
<text text-anchor="middle" x="223.5" y="-42.8" font-family="Helvetica,sans-Serif" font-size="9.00">Library Fundamentals TS</text>
</a>
</g>
</g>
<!-- Node4 -->
<g id="node3" class="node">
<title>Node4</title>
<g id="a_node3"><a xlink:href="a01629.html" target="_top" xlink:title=" ">
<polygon fill="white" stroke="black" points="262.5,-18 184.5,-18 184.5,0 262.5,0 262.5,-18"/>
<text text-anchor="middle" x="223.5" y="-6.8" font-family="Helvetica,sans-Serif" font-size="9.00">Parallelism TS</text>
</a>
</g>
</g>
<!-- Node1 -->
<g id="node4" class="node">
<title>Node1</title>
<g id="a_node4"><a xlink:title=" ">
<polygon fill="#bfbfbf" stroke="black" points="123,-54 0,-54 0,-36 123,-36 123,-54"/>
<text text-anchor="middle" x="61.5" y="-42.8" font-family="Helvetica,sans-Serif" font-size="9.00">Technical Specifications</text>
</a>
</g>
</g>
<!-- Node1&#45;&gt;Node2 -->
<g id="edge1" class="edge">
<title>Node1&#45;&gt;Node2</title>
<path fill="none" stroke="black" d="M112.93,-56.35C136.23,-61.59 163.42,-67.71 184.89,-72.54"/>
<polygon fill="black" stroke="black" points="113.4,-52.86 102.87,-54.08 111.86,-59.69 113.4,-52.86"/>
</g>
<!-- Node1&#45;&gt;Node3 -->
<g id="edge2" class="edge">
<title>Node1&#45;&gt;Node3</title>
<path fill="none" stroke="black" d="M133.59,-45C141.99,-45 150.52,-45 158.8,-45"/>
<polygon fill="black" stroke="black" points="133.45,-41.5 123.45,-45 133.45,-48.5 133.45,-41.5"/>
</g>
<!-- Node1&#45;&gt;Node4 -->
<g id="edge3" class="edge">
<title>Node1&#45;&gt;Node4</title>
<path fill="none" stroke="black" d="M112.85,-33.67C135.97,-28.47 162.94,-22.4 184.34,-17.59"/>
<polygon fill="black" stroke="black" points="111.86,-30.31 102.87,-35.92 113.4,-37.14 111.86,-30.31"/>
</g>
</g>
</svg>
