<?xml version="1.0" encoding="UTF-8" standalone="no"?>
<!DOCTYPE svg PUBLIC "-//W3C//DTD SVG 1.1//EN"
 "http://www.w3.org/Graphics/SVG/1.1/DTD/svg11.dtd">
<!-- Generated by graphviz version 2.50.0 (0)
 -->
<!-- Title: Utilities Pages: 1 -->
<svg width="197pt" height="206pt"
 viewBox="0.00 0.00 197.00 206.00" xmlns="http://www.w3.org/2000/svg" xmlns:xlink="http://www.w3.org/1999/xlink">
<g id="graph0" class="graph" transform="scale(1 1) rotate(0) translate(4 202)">
<title>Utilities</title>
<polygon fill="white" stroke="transparent" points="-4,4 -4,-202 193,-202 193,4 -4,4"/>
<!-- Node1 -->
<g id="node1" class="node">
<title>Node1</title>
<g id="a_node1"><a xlink:title=" ">
<polygon fill="#bfbfbf" stroke="black" points="50,-108 0,-108 0,-90 50,-90 50,-108"/>
<text text-anchor="middle" x="25" y="-96.8" font-family="Helvetica,sans-Serif" font-size="9.00">Utilities</text>
</a>
</g>
</g>
<!-- Node6 -->
<g id="node2" class="node">
<title>Node6</title>
<g id="a_node2"><a xlink:href="a01584.html" target="_top" xlink:title=" ">
<polygon fill="white" stroke="black" points="189,-198 86,-198 86,-180 189,-180 189,-198"/>
<text text-anchor="middle" x="137.5" y="-186.8" font-family="Helvetica,sans-Serif" font-size="9.00">Rational Arithmetic</text>
</a>
</g>
</g>
<!-- Node1&#45;&gt;Node6 -->
<g id="edge5" class="edge">
<title>Node1&#45;&gt;Node6</title>
<path fill="none" stroke="black" d="M36.89,-116.89C47.57,-133.07 65.25,-156.52 86,-171 91.19,-174.62 97.19,-177.59 103.19,-180"/>
<polygon fill="black" stroke="black" points="39.76,-114.88 31.44,-108.32 33.85,-118.64 39.76,-114.88"/>
</g>
<!-- Node7 -->
<g id="node3" class="node">
<title>Node7</title>
<g id="a_node3"><a xlink:href="a01571.html" target="_top" xlink:title=" ">
<polygon fill="white" stroke="black" points="156.5,-162 118.5,-162 118.5,-144 156.5,-144 156.5,-162"/>
<text text-anchor="middle" x="137.5" y="-150.8" font-family="Helvetica,sans-Serif" font-size="9.00">Time</text>
</a>
</g>
</g>
<!-- Node1&#45;&gt;Node7 -->
<g id="edge6" class="edge">
<title>Node1&#45;&gt;Node7</title>
<path fill="none" stroke="black" d="M48,-113.63C59.1,-120.65 72.96,-128.84 86,-135 96.44,-139.93 108.61,-144.31 118.39,-147.51"/>
<polygon fill="black" stroke="black" points="49.7,-110.56 39.4,-108.09 45.91,-116.45 49.7,-110.56"/>
</g>
<!-- Node2 -->
<g id="node4" class="node">
<title>Node2</title>
<g id="a_node4"><a xlink:href="a01573.html" target="_top" xlink:title=" ">
<polygon fill="white" stroke="black" points="167,-126 108,-126 108,-108 167,-108 167,-126"/>
<text text-anchor="middle" x="137.5" y="-114.8" font-family="Helvetica,sans-Serif" font-size="9.00">Concepts</text>
</a>
</g>
</g>
<!-- Node1&#45;&gt;Node2 -->
<g id="edge1" class="edge">
<title>Node1&#45;&gt;Node2</title>
<path fill="none" stroke="black" d="M60.29,-104.59C75.46,-107.06 93.11,-109.93 107.6,-112.29"/>
<polygon fill="black" stroke="black" points="60.68,-101.1 50.25,-102.95 59.56,-108.01 60.68,-101.1"/>
</g>
<!-- Node5 -->
<g id="node5" class="node">
<title>Node5</title>
<g id="a_node5"><a xlink:href="a01586.html" target="_top" xlink:title=" ">
<polygon fill="white" stroke="black" points="188,-90 87,-90 87,-72 188,-72 188,-90"/>
<text text-anchor="middle" x="137.5" y="-78.8" font-family="Helvetica,sans-Serif" font-size="9.00">Metaprogramming</text>
</a>
</g>
</g>
<!-- Node1&#45;&gt;Node5 -->
<g id="edge4" class="edge">
<title>Node1&#45;&gt;Node5</title>
<path fill="none" stroke="black" d="M60.13,-93.44C68.61,-92.06 77.87,-90.55 86.92,-89.08"/>
<polygon fill="black" stroke="black" points="59.56,-89.99 50.25,-95.05 60.68,-96.9 59.56,-89.99"/>
</g>
<!-- Node3 -->
<g id="node6" class="node">
<title>Node3</title>
<g id="a_node6"><a xlink:href="a01607.html" target="_top" xlink:title=" ">
<polygon fill="white" stroke="black" points="183.5,-54 91.5,-54 91.5,-36 183.5,-36 183.5,-54"/>
<text text-anchor="middle" x="137.5" y="-42.8" font-family="Helvetica,sans-Serif" font-size="9.00">Function Objects</text>
</a>
</g>
</g>
<!-- Node1&#45;&gt;Node3 -->
<g id="edge2" class="edge">
<title>Node1&#45;&gt;Node3</title>
<path fill="none" stroke="black" d="M48,-84.37C59.1,-77.35 72.96,-69.16 86,-63 92.98,-59.7 100.75,-56.65 108.05,-54.03"/>
<polygon fill="black" stroke="black" points="45.91,-81.55 39.4,-89.91 49.7,-87.44 45.91,-81.55"/>
</g>
<!-- Node4 -->
<g id="node7" class="node">
<title>Node4</title>
<g id="a_node7"><a xlink:href="a01578.html" target="_top" xlink:title=" ">
<polygon fill="white" stroke="black" points="164,-18 111,-18 111,0 164,0 164,-18"/>
<text text-anchor="middle" x="137.5" y="-6.8" font-family="Helvetica,sans-Serif" font-size="9.00">Memory</text>
</a>
</g>
</g>
<!-- Node1&#45;&gt;Node4 -->
<g id="edge3" class="edge">
<title>Node1&#45;&gt;Node4</title>
<path fill="none" stroke="black" d="M36.89,-81.11C47.57,-64.93 65.25,-41.48 86,-27 93.4,-21.83 102.45,-18 110.83,-15.23"/>
<polygon fill="black" stroke="black" points="33.85,-79.36 31.44,-89.68 39.76,-83.12 33.85,-79.36"/>
</g>
</g>
</svg>
