<?xml version="1.0" encoding="UTF-8" standalone="no"?>
<!DOCTYPE svg PUBLIC "-//W3C//DTD SVG 1.1//EN"
 "http://www.w3.org/Graphics/SVG/1.1/DTD/svg11.dtd">
<!-- Generated by graphviz version 2.50.0 (0)
 -->
<!-- Title: Sequences Pages: 1 -->
<svg width="449pt" height="115pt"
 viewBox="0.00 0.00 449.00 114.72" xmlns="http://www.w3.org/2000/svg" xmlns:xlink="http://www.w3.org/1999/xlink">
<g id="graph0" class="graph" transform="scale(1 1) rotate(0) translate(4 110.72)">
<title>Sequences</title>
<polygon fill="white" stroke="transparent" points="-4,4 -4,-110.72 445,-110.72 445,4 -4,4"/>
<!-- Node4 -->
<g id="node1" class="node">
<title>Node4</title>
<g id="a_node1"><a xlink:href="a01624.html" target="_top" xlink:title=" ">
<polygon fill="white" stroke="black" points="441,-92.72 312,-92.72 312,-74.72 441,-74.72 441,-92.72"/>
<text text-anchor="middle" x="376.5" y="-81.52" font-family="Helvetica,sans-Serif" font-size="9.00">Library Fundamentals TS</text>
</a>
</g>
</g>
<!-- Node2 -->
<g id="node2" class="node">
<title>Node2</title>
<g id="a_node2"><a xlink:href="a01563.html" target="_top" xlink:title=" ">
<polygon fill="white" stroke="black" points="65,-55.72 0,-55.72 0,-37.72 65,-37.72 65,-55.72"/>
<text text-anchor="middle" x="32.5" y="-44.52" font-family="Helvetica,sans-Serif" font-size="9.00">Containers</text>
</a>
</g>
</g>
<!-- Node1 -->
<g id="node3" class="node">
<title>Node1</title>
<g id="a_node3"><a xlink:title=" ">
<polygon fill="#bfbfbf" stroke="black" points="168,-55.72 102,-55.72 102,-37.72 168,-37.72 168,-55.72"/>
<text text-anchor="middle" x="135" y="-44.52" font-family="Helvetica,sans-Serif" font-size="9.00">Sequences</text>
</a>
</g>
</g>
<!-- Node2&#45;&gt;Node1 -->
<g id="edge1" class="edge">
<title>Node2&#45;&gt;Node1</title>
<path fill="none" stroke="black" d="M75.24,-46.72C84.15,-46.72 93.42,-46.72 101.9,-46.72"/>
<polygon fill="black" stroke="black" points="75.02,-43.22 65.02,-46.72 75.02,-50.22 75.02,-43.22"/>
</g>
<!-- Node1&#45;&gt;Node4 -->
<g id="edge3" class="edge">
<title>Node1&#45;&gt;Node4</title>
<path fill="none" stroke="orange" stroke-dasharray="5,2" d="M163.03,-55.77C170.41,-57.99 178.46,-60.16 186,-61.72 227.52,-70.29 274.89,-75.79 311.89,-79.15"/>
<text text-anchor="start" x="186" y="-99.52" font-family="Helvetica,sans-Serif" font-size="9.00">std::experimental::</text>
<text text-anchor="start" x="186" y="-89.52" font-family="Helvetica,sans-Serif" font-size="9.00">fundamentals_v1::basic</text>
<text text-anchor="middle" x="240" y="-79.52" font-family="Helvetica,sans-Serif" font-size="9.00">_string_view</text>
</g>
<!-- Node3 -->
<g id="node4" class="node">
<title>Node3</title>
<g id="a_node4"><a xlink:href="a01618.html" target="_top" xlink:title=" ">
<polygon fill="white" stroke="black" points="401,-19.72 352,-19.72 352,-1.72 401,-1.72 401,-19.72"/>
<text text-anchor="middle" x="376.5" y="-8.52" font-family="Helvetica,sans-Serif" font-size="9.00">Strings</text>
</a>
</g>
</g>
<!-- Node1&#45;&gt;Node3 -->
<g id="edge2" class="edge">
<title>Node1&#45;&gt;Node3</title>
<path fill="none" stroke="orange" stroke-dasharray="5,2" d="M145.36,-37.49C154.74,-28.94 170.05,-16.8 186,-11.72 243.22,6.48 315.16,-0.76 351.76,-6.42"/>
<text text-anchor="middle" x="240" y="-54.52" font-family="Helvetica,sans-Serif" font-size="9.00">std::basic_string</text>
<text text-anchor="middle" x="240" y="-44.52" font-family="Helvetica,sans-Serif" font-size="9.00">std::basic_string_view</text>
<text text-anchor="start" x="186" y="-34.52" font-family="Helvetica,sans-Serif" font-size="9.00">std::experimental::</text>
<text text-anchor="start" x="186" y="-24.52" font-family="Helvetica,sans-Serif" font-size="9.00">fundamentals_v1::basic</text>
<text text-anchor="middle" x="240" y="-14.52" font-family="Helvetica,sans-Serif" font-size="9.00">_string_view</text>
</g>
</g>
</svg>
