<?xml version="1.0" encoding="UTF-8" standalone="no"?>
<!DOCTYPE svg PUBLIC "-//W3C//DTD SVG 1.1//EN"
 "http://www.w3.org/Graphics/SVG/1.1/DTD/svg11.dtd">
<!-- Generated by graphviz version 2.50.0 (0)
 -->
<!-- Title: Sorting Pages: 1 -->
<svg width="278pt" height="98pt"
 viewBox="0.00 0.00 278.00 98.00" xmlns="http://www.w3.org/2000/svg" xmlns:xlink="http://www.w3.org/1999/xlink">
<g id="graph0" class="graph" transform="scale(1 1) rotate(0) translate(4 94)">
<title>Sorting</title>
<polygon fill="white" stroke="transparent" points="-4,4 -4,-94 274,-94 274,4 -4,4"/>
<!-- Node3 -->
<g id="node1" class="node">
<title>Node3</title>
<g id="a_node1"><a xlink:href="a01595.html" target="_top" xlink:title=" ">
<polygon fill="white" stroke="black" points="268,-90 189,-90 189,-72 268,-72 268,-90"/>
<text text-anchor="middle" x="228.5" y="-78.8" font-family="Helvetica,sans-Serif" font-size="9.00">Binary Search</text>
</a>
</g>
</g>
<!-- Node5 -->
<g id="node2" class="node">
<title>Node5</title>
<g id="a_node2"><a xlink:href="a01594.html" target="_top" xlink:title=" ">
<polygon fill="white" stroke="black" points="270,-54 187,-54 187,-36 270,-36 270,-54"/>
<text text-anchor="middle" x="228.5" y="-42.8" font-family="Helvetica,sans-Serif" font-size="9.00">Set Operations</text>
</a>
</g>
</g>
<!-- Node4 -->
<g id="node3" class="node">
<title>Node4</title>
<g id="a_node3"><a xlink:href="a01614.html" target="_top" xlink:title=" ">
<polygon fill="white" stroke="black" points="248.5,-18 208.5,-18 208.5,0 248.5,0 248.5,-18"/>
<text text-anchor="middle" x="228.5" y="-6.8" font-family="Helvetica,sans-Serif" font-size="9.00">Heap</text>
</a>
</g>
</g>
<!-- Node2 -->
<g id="node4" class="node">
<title>Node2</title>
<g id="a_node4"><a xlink:href="a01590.html" target="_top" xlink:title=" ">
<polygon fill="white" stroke="black" points="65,-54 0,-54 0,-36 65,-36 65,-54"/>
<text text-anchor="middle" x="32.5" y="-42.8" font-family="Helvetica,sans-Serif" font-size="9.00">Algorithms</text>
</a>
</g>
</g>
<!-- Node1 -->
<g id="node5" class="node">
<title>Node1</title>
<g id="a_node5"><a xlink:title=" ">
<polygon fill="#bfbfbf" stroke="black" points="151,-54 101,-54 101,-36 151,-36 151,-54"/>
<text text-anchor="middle" x="126" y="-42.8" font-family="Helvetica,sans-Serif" font-size="9.00">Sorting</text>
</a>
</g>
</g>
<!-- Node2&#45;&gt;Node1 -->
<g id="edge1" class="edge">
<title>Node2&#45;&gt;Node1</title>
<path fill="none" stroke="black" d="M75.33,-45C84.06,-45 92.98,-45 100.81,-45"/>
<polygon fill="black" stroke="black" points="75.25,-41.5 65.25,-45 75.25,-48.5 75.25,-41.5"/>
</g>
<!-- Node1&#45;&gt;Node3 -->
<g id="edge2" class="edge">
<title>Node1&#45;&gt;Node3</title>
<path fill="none" stroke="black" d="M160.58,-57.03C174.18,-61.9 189.61,-67.43 202.22,-71.95"/>
<polygon fill="black" stroke="black" points="161.67,-53.7 151.07,-53.62 159.31,-60.29 161.67,-53.7"/>
</g>
<!-- Node1&#45;&gt;Node5 -->
<g id="edge4" class="edge">
<title>Node1&#45;&gt;Node5</title>
<path fill="none" stroke="black" d="M161.09,-45C169.33,-45 178.23,-45 186.75,-45"/>
<polygon fill="black" stroke="black" points="161.07,-41.5 151.07,-45 161.07,-48.5 161.07,-41.5"/>
</g>
<!-- Node1&#45;&gt;Node4 -->
<g id="edge3" class="edge">
<title>Node1&#45;&gt;Node4</title>
<path fill="none" stroke="black" d="M160.57,-32.97C176.46,-27.28 194.85,-20.7 208.33,-15.87"/>
<polygon fill="black" stroke="black" points="159.31,-29.71 151.07,-36.38 161.67,-36.3 159.31,-29.71"/>
</g>
</g>
</svg>
