<?xml version="1.0" encoding="UTF-8" standalone="no"?>
<!DOCTYPE svg PUBLIC "-//W3C//DTD SVG 1.1//EN"
 "http://www.w3.org/Graphics/SVG/1.1/DTD/svg11.dtd">
<!-- Generated by graphviz version 2.50.0 (0)
 -->
<!-- Title: Numerics Pages: 1 -->
<svg width="249pt" height="308pt"
 viewBox="0.00 0.00 249.00 308.00" xmlns="http://www.w3.org/2000/svg" xmlns:xlink="http://www.w3.org/1999/xlink">
<g id="graph0" class="graph" transform="scale(1 1) rotate(0) translate(4 304)">
<title>Numerics</title>
<polygon fill="white" stroke="transparent" points="-4,4 -4,-304 245,-304 245,4 -4,4"/>
<!-- Node6 -->
<g id="node1" class="node">
<title>Node6</title>
<g id="a_node1"><a xlink:href="a01582.html" target="_top" xlink:title=" ">
<polygon fill="white" stroke="black" points="230.5,-300 105.5,-300 105.5,-282 230.5,-282 230.5,-300"/>
<text text-anchor="middle" x="168" y="-288.8" font-family="Helvetica,sans-Serif" font-size="9.00">Mathematical constants</text>
</a>
</g>
</g>
<!-- Node4 -->
<g id="node2" class="node">
<title>Node4</title>
<g id="a_node2"><a xlink:href="a01622.html" target="_top" xlink:title=" ">
<polygon fill="white" stroke="black" points="226.5,-264 109.5,-264 109.5,-236 226.5,-236 226.5,-264"/>
<text text-anchor="start" x="117.5" y="-252.8" font-family="Helvetica,sans-Serif" font-size="9.00">Decimal Floating&#45;Point</text>
<text text-anchor="middle" x="168" y="-242.8" font-family="Helvetica,sans-Serif" font-size="9.00"> Arithmetic</text>
</a>
</g>
</g>
<!-- Node8 -->
<g id="node3" class="node">
<title>Node8</title>
<g id="a_node3"><a xlink:href="a01602.html" target="_top" xlink:title=" ">
<polygon fill="white" stroke="black" points="241,-218 95,-218 95,-200 241,-200 241,-218"/>
<text text-anchor="middle" x="168" y="-206.8" font-family="Helvetica,sans-Serif" font-size="9.00">Random Number Generation</text>
</a>
</g>
</g>
<!-- Node2 -->
<g id="node4" class="node">
<title>Node2</title>
<g id="a_node4"><a xlink:href="a01570.html" target="_top" xlink:title=" ">
<polygon fill="white" stroke="black" points="213.5,-182 122.5,-182 122.5,-164 213.5,-164 213.5,-182"/>
<text text-anchor="middle" x="168" y="-170.8" font-family="Helvetica,sans-Serif" font-size="9.00">Bit manipulation</text>
</a>
</g>
</g>
<!-- Node1 -->
<g id="node5" class="node">
<title>Node1</title>
<g id="a_node5"><a xlink:title=" ">
<polygon fill="#bfbfbf" stroke="black" points="59,-161 0,-161 0,-143 59,-143 59,-161"/>
<text text-anchor="middle" x="29.5" y="-149.8" font-family="Helvetica,sans-Serif" font-size="9.00">Numerics</text>
</a>
</g>
</g>
<!-- Node1&#45;&gt;Node6 -->
<g id="edge5" class="edge">
<title>Node1&#45;&gt;Node6</title>
<path fill="none" stroke="black" d="M35.34,-171C43.2,-197.9 61.36,-246.73 95,-273 99.67,-276.65 104.99,-279.57 110.57,-281.9"/>
<polygon fill="black" stroke="black" points="38.69,-169.97 32.67,-161.25 31.94,-171.82 38.69,-169.97"/>
</g>
<!-- Node1&#45;&gt;Node4 -->
<g id="edge3" class="edge">
<title>Node1&#45;&gt;Node4</title>
<path fill="none" stroke="black" d="M41.54,-169.77C52.96,-186.76 72.29,-211.96 95,-227 100.14,-230.4 105.82,-233.33 111.67,-235.85"/>
<polygon fill="black" stroke="black" points="44.42,-167.78 36.04,-161.29 38.54,-171.59 44.42,-167.78"/>
</g>
<!-- Node1&#45;&gt;Node8 -->
<g id="edge7" class="edge">
<title>Node1&#45;&gt;Node8</title>
<path fill="none" stroke="black" d="M51.76,-167.07C63.94,-175.13 79.79,-184.67 95,-191 103.56,-194.56 113.01,-197.55 122.16,-200"/>
<polygon fill="black" stroke="black" points="53.47,-164 43.23,-161.28 49.53,-169.79 53.47,-164"/>
</g>
<!-- Node1&#45;&gt;Node2 -->
<g id="edge1" class="edge">
<title>Node1&#45;&gt;Node2</title>
<path fill="none" stroke="black" d="M69.02,-157.93C85.6,-160.48 105.09,-163.47 122.3,-166.12"/>
<polygon fill="black" stroke="black" points="69.53,-154.46 59.11,-156.4 68.47,-161.38 69.53,-154.46"/>
</g>
<!-- Node9 -->
<g id="node6" class="node">
<title>Node9</title>
<g id="a_node6"><a xlink:href="a01620.html" target="_top" xlink:title=" ">
<polygon fill="white" stroke="black" points="234.5,-146 101.5,-146 101.5,-118 234.5,-118 234.5,-146"/>
<text text-anchor="start" x="109.5" y="-134.8" font-family="Helvetica,sans-Serif" font-size="9.00">TR1 Mathematical Special</text>
<text text-anchor="middle" x="168" y="-124.8" font-family="Helvetica,sans-Serif" font-size="9.00"> Functions</text>
</a>
</g>
</g>
<!-- Node1&#45;&gt;Node9 -->
<g id="edge8" class="edge">
<title>Node1&#45;&gt;Node9</title>
<path fill="none" stroke="black" d="M69.15,-146.34C79.19,-144.87 90.3,-143.24 101.31,-141.62"/>
<polygon fill="black" stroke="black" points="68.5,-142.89 59.11,-147.81 69.52,-149.82 68.5,-142.89"/>
</g>
<!-- Node3 -->
<g id="node7" class="node">
<title>Node3</title>
<g id="a_node7"><a xlink:href="a01572.html" target="_top" xlink:title=" ">
<polygon fill="white" stroke="black" points="218,-100 118,-100 118,-82 218,-82 218,-100"/>
<text text-anchor="middle" x="168" y="-88.8" font-family="Helvetica,sans-Serif" font-size="9.00">Complex Numbers</text>
</a>
</g>
</g>
<!-- Node1&#45;&gt;Node3 -->
<g id="edge2" class="edge">
<title>Node1&#45;&gt;Node3</title>
<path fill="none" stroke="black" d="M49.81,-136.56C62.12,-127.39 78.76,-116.19 95,-109 103.13,-105.4 112.11,-102.44 120.89,-100.02"/>
<polygon fill="black" stroke="black" points="47.49,-133.93 41.68,-142.79 51.75,-139.49 47.49,-133.93"/>
</g>
<!-- Node7 -->
<g id="node8" class="node">
<title>Node7</title>
<g id="a_node8"><a xlink:href="a01589.html" target="_top" xlink:title=" ">
<polygon fill="white" stroke="black" points="211,-64 125,-64 125,-46 211,-46 211,-64"/>
<text text-anchor="middle" x="168" y="-52.8" font-family="Helvetica,sans-Serif" font-size="9.00">Numeric Arrays</text>
</a>
</g>
</g>
<!-- Node1&#45;&gt;Node7 -->
<g id="edge6" class="edge">
<title>Node1&#45;&gt;Node7</title>
<path fill="none" stroke="black" d="M40.58,-133.8C51.59,-115.64 70.91,-88.29 95,-73 103.92,-67.34 114.51,-63.46 124.79,-60.8"/>
<polygon fill="black" stroke="black" points="37.34,-132.41 35.34,-142.81 43.39,-135.93 37.34,-132.41"/>
</g>
<!-- Node5 -->
<g id="node9" class="node">
<title>Node5</title>
<g id="a_node9"><a xlink:href="a01605.html" target="_top" xlink:title=" ">
<polygon fill="white" stroke="black" points="224.5,-28 111.5,-28 111.5,0 224.5,0 224.5,-28"/>
<text text-anchor="start" x="119.5" y="-16.8" font-family="Helvetica,sans-Serif" font-size="9.00">Mathematical Special</text>
<text text-anchor="middle" x="168" y="-6.8" font-family="Helvetica,sans-Serif" font-size="9.00"> Functions</text>
</a>
</g>
</g>
<!-- Node1&#45;&gt;Node5 -->
<g id="edge4" class="edge">
<title>Node1&#45;&gt;Node5</title>
<path fill="none" stroke="black" d="M36.2,-133.12C44.84,-107.66 63.65,-62.58 95,-37 99.88,-33.02 105.46,-29.72 111.31,-26.99"/>
<polygon fill="black" stroke="black" points="32.85,-132.12 33.12,-142.71 39.51,-134.26 32.85,-132.12"/>
</g>
</g>
</svg>
