<?xml version="1.0" encoding="UTF-8" standalone="no"?>
<!DOCTYPE svg PUBLIC "-//W3C//DTD SVG 1.1//EN"
 "http://www.w3.org/Graphics/SVG/1.1/DTD/svg11.dtd">
<!-- Generated by graphviz version 2.50.0 (0)
 -->
<!-- Title: Random Number Distributions Pages: 1 -->
<svg width="496pt" height="134pt"
 viewBox="0.00 0.00 496.00 134.00" xmlns="http://www.w3.org/2000/svg" xmlns:xlink="http://www.w3.org/1999/xlink">
<g id="graph0" class="graph" transform="scale(1 1) rotate(0) translate(4 130)">
<title>Random Number Distributions</title>
<polygon fill="white" stroke="transparent" points="-4,4 -4,-130 492,-130 492,4 -4,4"/>
<!-- Node6 -->
<g id="node1" class="node">
<title>Node6</title>
<g id="a_node1"><a xlink:href="a01650.html" target="_top" xlink:title=" ">
<polygon fill="white" stroke="black" points="486.5,-126 373.5,-126 373.5,-108 486.5,-108 486.5,-126"/>
<text text-anchor="middle" x="430" y="-114.8" font-family="Helvetica,sans-Serif" font-size="9.00">Uniform Distributions</text>
</a>
</g>
</g>
<!-- Node1 -->
<g id="node2" class="node">
<title>Node1</title>
<g id="a_node2"><a xlink:title=" ">
<polygon fill="#bfbfbf" stroke="black" points="336,-72 182,-72 182,-54 336,-54 336,-72"/>
<text text-anchor="middle" x="259" y="-60.8" font-family="Helvetica,sans-Serif" font-size="9.00">Random Number Distributions</text>
</a>
</g>
</g>
<!-- Node1&#45;&gt;Node6 -->
<g id="edge5" class="edge">
<title>Node1&#45;&gt;Node6</title>
<path fill="none" stroke="black" d="M297.59,-75.13C319.32,-82.14 347.19,-91.1 372,-99 381.2,-101.93 391.23,-105.11 400.29,-107.96"/>
<polygon fill="black" stroke="black" points="298.66,-71.8 288.06,-72.06 296.51,-78.46 298.66,-71.8"/>
</g>
<!-- Node3 -->
<g id="node4" class="node">
<title>Node3</title>
<g id="a_node4"><a xlink:href="a01652.html" target="_top" xlink:title=" ">
<polygon fill="white" stroke="black" points="488,-90 372,-90 372,-72 488,-72 488,-90"/>
<text text-anchor="middle" x="430" y="-78.8" font-family="Helvetica,sans-Serif" font-size="9.00">Bernoulli Distributions</text>
</a>
</g>
</g>
<!-- Node1&#45;&gt;Node3 -->
<g id="edge2" class="edge">
<title>Node1&#45;&gt;Node3</title>
<path fill="none" stroke="black" d="M346.26,-72.19C354.92,-73.11 363.56,-74.03 371.81,-74.91"/>
<polygon fill="black" stroke="black" points="346.41,-68.68 336.1,-71.1 345.67,-75.64 346.41,-68.68"/>
</g>
<!-- Node4 -->
<g id="node5" class="node">
<title>Node4</title>
<g id="a_node5"><a xlink:href="a01651.html" target="_top" xlink:title=" ">
<polygon fill="white" stroke="black" points="484.5,-54 375.5,-54 375.5,-36 484.5,-36 484.5,-54"/>
<text text-anchor="middle" x="430" y="-42.8" font-family="Helvetica,sans-Serif" font-size="9.00">Normal Distributions</text>
</a>
</g>
</g>
<!-- Node1&#45;&gt;Node4 -->
<g id="edge3" class="edge">
<title>Node1&#45;&gt;Node4</title>
<path fill="none" stroke="black" d="M346.29,-53.81C356.09,-52.77 365.85,-51.73 375.05,-50.75"/>
<polygon fill="black" stroke="black" points="345.67,-50.36 336.1,-54.9 346.41,-57.32 345.67,-50.36"/>
</g>
<!-- Node5 -->
<g id="node6" class="node">
<title>Node5</title>
<g id="a_node6"><a xlink:href="a01653.html" target="_top" xlink:title=" ">
<polygon fill="white" stroke="black" points="485,-18 375,-18 375,0 485,0 485,-18"/>
<text text-anchor="middle" x="430" y="-6.8" font-family="Helvetica,sans-Serif" font-size="9.00">Poisson Distributions</text>
</a>
</g>
</g>
<!-- Node1&#45;&gt;Node5 -->
<g id="edge4" class="edge">
<title>Node1&#45;&gt;Node5</title>
<path fill="none" stroke="black" d="M297.59,-50.87C319.32,-43.86 347.19,-34.9 372,-27 381.2,-24.07 391.23,-20.89 400.29,-18.04"/>
<polygon fill="black" stroke="black" points="296.51,-47.54 288.06,-53.94 298.66,-54.2 296.51,-47.54"/>
</g>
<!-- Node2 -->
<g id="node3" class="node">
<title>Node2</title>
<g id="a_node3"><a xlink:href="a01602.html" target="_top" xlink:title=" ">
<polygon fill="white" stroke="black" points="146,-72 0,-72 0,-54 146,-54 146,-72"/>
<text text-anchor="middle" x="73" y="-60.8" font-family="Helvetica,sans-Serif" font-size="9.00">Random Number Generation</text>
</a>
</g>
</g>
<!-- Node2&#45;&gt;Node1 -->
<g id="edge1" class="edge">
<title>Node2&#45;&gt;Node1</title>
<path fill="none" stroke="black" d="M156.41,-63C164.85,-63 173.4,-63 181.77,-63"/>
<polygon fill="black" stroke="black" points="156.19,-59.5 146.19,-63 156.19,-66.5 156.19,-59.5"/>
</g>
</g>
</svg>
