<?xml version="1.0" encoding="UTF-8" standalone="no"?>
<!DOCTYPE svg PUBLIC "-//W3C//DTD SVG 1.1//EN"
 "http://www.w3.org/Graphics/SVG/1.1/DTD/svg11.dtd">
<!-- Generated by graphviz version 2.50.0 (0)
 -->
<!-- Title: Tags Pages: 1 -->
<svg width="387pt" height="62pt"
 viewBox="0.00 0.00 387.00 62.00" xmlns="http://www.w3.org/2000/svg" xmlns:xlink="http://www.w3.org/1999/xlink">
<g id="graph0" class="graph" transform="scale(1 1) rotate(0) translate(4 58)">
<title>Tags</title>
<polygon fill="white" stroke="transparent" points="-4,4 -4,-58 383,-58 383,4 -4,4"/>
<!-- Node2 -->
<g id="node1" class="node">
<title>Node2</title>
<g id="a_node1"><a xlink:href="a01643.html" target="_top" xlink:title=" ">
<polygon fill="white" stroke="black" points="147,-36 0,-36 0,-18 147,-18 147,-36"/>
<text text-anchor="middle" x="73.5" y="-24.8" font-family="Helvetica,sans-Serif" font-size="9.00">Policy&#45;Based Data Structures</text>
</a>
</g>
</g>
<!-- Node1 -->
<g id="node2" class="node">
<title>Node1</title>
<g id="a_node2"><a xlink:title=" ">
<polygon fill="#bfbfbf" stroke="black" points="219,-36 183,-36 183,-18 219,-18 219,-36"/>
<text text-anchor="middle" x="201" y="-24.8" font-family="Helvetica,sans-Serif" font-size="9.00">Tags</text>
</a>
</g>
</g>
<!-- Node2&#45;&gt;Node1 -->
<g id="edge1" class="edge">
<title>Node2&#45;&gt;Node1</title>
<path fill="none" stroke="black" d="M157.21,-27C166.68,-27 175.47,-27 182.58,-27"/>
<polygon fill="black" stroke="black" points="157.14,-23.5 147.14,-27 157.14,-30.5 157.14,-23.5"/>
</g>
<!-- Node4 -->
<g id="node3" class="node">
<title>Node4</title>
<g id="a_node3"><a xlink:href="a01645.html" target="_top" xlink:title=" ">
<polygon fill="white" stroke="black" points="379,-54 255,-54 255,-36 379,-36 379,-54"/>
<text text-anchor="middle" x="317" y="-42.8" font-family="Helvetica,sans-Serif" font-size="9.00">Invalidation Guarantees</text>
</a>
</g>
</g>
<!-- Node1&#45;&gt;Node4 -->
<g id="edge3" class="edge">
<title>Node1&#45;&gt;Node4</title>
<path fill="none" stroke="black" d="M229.45,-31.33C238.37,-32.74 248.63,-34.36 258.89,-35.98"/>
<polygon fill="black" stroke="black" points="229.74,-27.84 219.31,-29.73 228.65,-34.75 229.74,-27.84"/>
</g>
<!-- Node3 -->
<g id="node4" class="node">
<title>Node3</title>
<g id="a_node4"><a xlink:href="a01646.html" target="_top" xlink:title=" ">
<polygon fill="white" stroke="black" points="370.5,-18 263.5,-18 263.5,0 370.5,0 370.5,-18"/>
<text text-anchor="middle" x="317" y="-6.8" font-family="Helvetica,sans-Serif" font-size="9.00">Data Structure Type</text>
</a>
</g>
</g>
<!-- Node1&#45;&gt;Node3 -->
<g id="edge2" class="edge">
<title>Node1&#45;&gt;Node3</title>
<path fill="none" stroke="black" d="M229.29,-22.69C239.56,-21.07 251.61,-19.17 263.42,-17.3"/>
<polygon fill="black" stroke="black" points="228.65,-19.25 219.31,-24.27 229.74,-26.16 228.65,-19.25"/>
</g>
</g>
</svg>
