<?xml version="1.0" encoding="UTF-8" standalone="no"?>
<!DOCTYPE svg PUBLIC "-//W3C//DTD SVG 1.1//EN"
 "http://www.w3.org/Graphics/SVG/1.1/DTD/svg11.dtd">
<!-- Generated by graphviz version 2.50.0 (0)
 -->
<!-- Title: Parallelism TS Pages: 1 -->
<svg width="405pt" height="26pt"
 viewBox="0.00 0.00 405.00 26.00" xmlns="http://www.w3.org/2000/svg" xmlns:xlink="http://www.w3.org/1999/xlink">
<g id="graph0" class="graph" transform="scale(1 1) rotate(0) translate(4 22)">
<title>Parallelism TS</title>
<polygon fill="white" stroke="transparent" points="-4,4 -4,-22 401,-22 401,4 -4,4"/>
<!-- Node1 -->
<g id="node1" class="node">
<title>Node1</title>
<g id="a_node1"><a xlink:title=" ">
<polygon fill="#bfbfbf" stroke="black" points="237,-18 159,-18 159,0 237,0 237,-18"/>
<text text-anchor="middle" x="198" y="-6.8" font-family="Helvetica,sans-Serif" font-size="9.00">Parallelism TS</text>
</a>
</g>
</g>
<!-- Node3 -->
<g id="node2" class="node">
<title>Node3</title>
<g id="a_node2"><a xlink:href="a01630.html" target="_top" xlink:title=" ">
<polygon fill="white" stroke="black" points="397,-18 273,-18 273,0 397,0 397,-18"/>
<text text-anchor="middle" x="335" y="-6.8" font-family="Helvetica,sans-Serif" font-size="9.00">Data parallel extensions</text>
</a>
</g>
</g>
<!-- Node1&#45;&gt;Node3 -->
<g id="edge2" class="edge">
<title>Node1&#45;&gt;Node3</title>
<path fill="none" stroke="black" d="M247.48,-9C255.71,-9 264.35,-9 272.85,-9"/>
<polygon fill="black" stroke="black" points="247.32,-5.5 237.32,-9 247.32,-12.5 247.32,-5.5"/>
</g>
<!-- Node2 -->
<g id="node3" class="node">
<title>Node2</title>
<g id="a_node3"><a xlink:href="a01569.html" target="_top" xlink:title=" ">
<polygon fill="white" stroke="black" points="123,-18 0,-18 0,0 123,0 123,-18"/>
<text text-anchor="middle" x="61.5" y="-6.8" font-family="Helvetica,sans-Serif" font-size="9.00">Technical Specifications</text>
</a>
</g>
</g>
<!-- Node2&#45;&gt;Node1 -->
<g id="edge1" class="edge">
<title>Node2&#45;&gt;Node1</title>
<path fill="none" stroke="black" d="M133.33,-9C142.08,-9 150.75,-9 158.74,-9"/>
<polygon fill="black" stroke="black" points="133.06,-5.5 123.06,-9 133.06,-12.5 133.06,-5.5"/>
</g>
</g>
</svg>
