<?xml version="1.0" encoding="UTF-8" standalone="no"?>
<!DOCTYPE svg PUBLIC "-//W3C//DTD SVG 1.1//EN"
 "http://www.w3.org/Graphics/SVG/1.1/DTD/svg11.dtd">
<!-- Generated by graphviz version 2.50.0 (0)
 -->
<!-- Title: Function Objects Pages: 1 -->
<svg width="334pt" height="318pt"
 viewBox="0.00 0.00 334.00 318.00" xmlns="http://www.w3.org/2000/svg" xmlns:xlink="http://www.w3.org/1999/xlink">
<g id="graph0" class="graph" transform="scale(1 1) rotate(0) translate(4 314)">
<title>Function Objects</title>
<polygon fill="white" stroke="transparent" points="-4,4 -4,-314 330,-314 330,4 -4,4"/>
<!-- Node2 -->
<g id="node1" class="node">
<title>Node2</title>
<g id="a_node1"><a xlink:href="a01588.html" target="_top" xlink:title=" ">
<polygon fill="white" stroke="black" points="50,-156 0,-156 0,-138 50,-138 50,-156"/>
<text text-anchor="middle" x="25" y="-144.8" font-family="Helvetica,sans-Serif" font-size="9.00">Utilities</text>
</a>
</g>
</g>
<!-- Node1 -->
<g id="node9" class="node">
<title>Node1</title>
<g id="a_node9"><a xlink:title=" ">
<polygon fill="#bfbfbf" stroke="black" points="178,-156 86,-156 86,-138 178,-138 178,-156"/>
<text text-anchor="middle" x="132" y="-144.8" font-family="Helvetica,sans-Serif" font-size="9.00">Function Objects</text>
</a>
</g>
</g>
<!-- Node2&#45;&gt;Node1 -->
<g id="edge1" class="edge">
<title>Node2&#45;&gt;Node1</title>
<path fill="none" stroke="black" d="M60.1,-147C68.35,-147 77.3,-147 85.97,-147"/>
<polygon fill="black" stroke="black" points="60.09,-143.5 50.09,-147 60.09,-150.5 60.09,-143.5"/>
</g>
<!-- Node9 -->
<g id="node2" class="node">
<title>Node9</title>
<g id="a_node2"><a xlink:href="a01598.html" target="_top" xlink:title=" ">
<polygon fill="white" stroke="black" points="294.5,-310 245.5,-310 245.5,-292 294.5,-292 294.5,-310"/>
<text text-anchor="middle" x="270" y="-298.8" font-family="Helvetica,sans-Serif" font-size="9.00">Hashes</text>
</a>
</g>
</g>
<!-- Node7 -->
<g id="node3" class="node">
<title>Node7</title>
<g id="a_node3"><a xlink:href="a01610.html" target="_top" xlink:title=" ">
<polygon fill="white" stroke="black" points="322,-274 218,-274 218,-246 322,-246 322,-274"/>
<text text-anchor="start" x="226" y="-262.8" font-family="Helvetica,sans-Serif" font-size="9.00">Boolean Operations</text>
<text text-anchor="middle" x="270" y="-252.8" font-family="Helvetica,sans-Serif" font-size="9.00"> Classes</text>
</a>
</g>
</g>
<!-- Node4 -->
<g id="node4" class="node">
<title>Node4</title>
<g id="a_node4"><a xlink:href="a01613.html" target="_top" xlink:title=" ">
<polygon fill="white" stroke="black" points="326,-228 214,-228 214,-200 326,-200 326,-228"/>
<text text-anchor="start" x="222" y="-216.8" font-family="Helvetica,sans-Serif" font-size="9.00">Adaptors for pointers</text>
<text text-anchor="middle" x="270" y="-206.8" font-family="Helvetica,sans-Serif" font-size="9.00"> to members</text>
</a>
</g>
</g>
<!-- Node3 -->
<g id="node5" class="node">
<title>Node3</title>
<g id="a_node5"><a xlink:href="a01612.html" target="_top" xlink:title=" ">
<polygon fill="white" stroke="black" points="326,-182 214,-182 214,-154 326,-154 326,-182"/>
<text text-anchor="start" x="222" y="-170.8" font-family="Helvetica,sans-Serif" font-size="9.00">Adaptors for pointers</text>
<text text-anchor="middle" x="270" y="-160.8" font-family="Helvetica,sans-Serif" font-size="9.00"> to functions</text>
</a>
</g>
</g>
<!-- Node6 -->
<g id="node6" class="node">
<title>Node6</title>
<g id="a_node6"><a xlink:href="a01619.html" target="_top" xlink:title=" ">
<polygon fill="white" stroke="black" points="310.5,-136 229.5,-136 229.5,-118 310.5,-118 310.5,-136"/>
<text text-anchor="middle" x="270" y="-124.8" font-family="Helvetica,sans-Serif" font-size="9.00">Binder Classes</text>
</a>
</g>
</g>
<!-- Node8 -->
<g id="node7" class="node">
<title>Node8</title>
<g id="a_node7"><a xlink:href="a01609.html" target="_top" xlink:title=" ">
<polygon fill="white" stroke="black" points="322.5,-100 217.5,-100 217.5,-82 322.5,-82 322.5,-100"/>
<text text-anchor="middle" x="270" y="-88.8" font-family="Helvetica,sans-Serif" font-size="9.00">Comparison Classes</text>
</a>
</g>
</g>
<!-- Node10 -->
<g id="node8" class="node">
<title>Node10</title>
<g id="a_node8"><a xlink:href="a01611.html" target="_top" xlink:title=" ">
<polygon fill="white" stroke="black" points="298.5,-64 241.5,-64 241.5,-46 298.5,-46 298.5,-64"/>
<text text-anchor="middle" x="270" y="-52.8" font-family="Helvetica,sans-Serif" font-size="9.00">Negators</text>
</a>
</g>
</g>
<!-- Node1&#45;&gt;Node9 -->
<g id="edge8" class="edge">
<title>Node1&#45;&gt;Node9</title>
<path fill="none" stroke="black" d="M139.33,-165.94C150.07,-195.24 174.62,-251.48 214,-283 222.94,-290.16 234.83,-294.51 245.26,-297.14"/>
<polygon fill="black" stroke="black" points="142.5,-164.41 135.89,-156.13 135.9,-166.73 142.5,-164.41"/>
</g>
<!-- Node1&#45;&gt;Node7 -->
<g id="edge6" class="edge">
<title>Node1&#45;&gt;Node7</title>
<path fill="none" stroke="black" d="M145.06,-164.53C159.48,-184.39 185.29,-216.63 214,-237 218.73,-240.35 224.02,-243.34 229.4,-245.96"/>
<polygon fill="black" stroke="black" points="147.74,-162.26 139.1,-156.13 142.03,-166.31 147.74,-162.26"/>
</g>
<!-- Node1&#45;&gt;Node4 -->
<g id="edge3" class="edge">
<title>Node1&#45;&gt;Node4</title>
<path fill="none" stroke="black" d="M157.72,-161.28C173.59,-170.23 194.76,-181.78 214,-191 220.35,-194.04 227.2,-197.09 233.85,-199.93"/>
<polygon fill="black" stroke="black" points="159.01,-157.98 148.59,-156.08 155.55,-164.07 159.01,-157.98"/>
</g>
<!-- Node1&#45;&gt;Node3 -->
<g id="edge2" class="edge">
<title>Node1&#45;&gt;Node3</title>
<path fill="none" stroke="black" d="M188.41,-155.56C196.85,-156.86 205.55,-158.2 213.98,-159.5"/>
<polygon fill="black" stroke="black" points="188.7,-152.06 178.29,-153.99 187.63,-158.98 188.7,-152.06"/>
</g>
<!-- Node1&#45;&gt;Node6 -->
<g id="edge5" class="edge">
<title>Node1&#45;&gt;Node6</title>
<path fill="none" stroke="black" d="M188.57,-138.83C202.26,-136.82 216.63,-134.7 229.39,-132.83"/>
<polygon fill="black" stroke="black" points="187.67,-135.42 178.29,-140.34 188.69,-142.35 187.67,-135.42"/>
</g>
<!-- Node1&#45;&gt;Node8 -->
<g id="edge7" class="edge">
<title>Node1&#45;&gt;Node8</title>
<path fill="none" stroke="black" d="M159.81,-133.41C175.42,-125.76 195.59,-116.3 214,-109 222.03,-105.82 230.87,-102.74 239.08,-100.06"/>
<polygon fill="black" stroke="black" points="158.14,-130.33 150.74,-137.91 161.25,-136.6 158.14,-130.33"/>
</g>
<!-- Node1&#45;&gt;Node10 -->
<g id="edge9" class="edge">
<title>Node1&#45;&gt;Node10</title>
<path fill="none" stroke="black" d="M147.5,-130.1C162.59,-113.46 187.66,-88.37 214,-73 222.42,-68.09 232.35,-64.31 241.45,-61.52"/>
<polygon fill="black" stroke="black" points="144.57,-128.12 140.56,-137.93 149.81,-132.76 144.57,-128.12"/>
</g>
<!-- Node5 -->
<g id="node10" class="node">
<title>Node5</title>
<g id="a_node10"><a xlink:href="a01608.html" target="_top" xlink:title=" ">
<polygon fill="white" stroke="black" points="323,-28 217,-28 217,0 323,0 323,-28"/>
<text text-anchor="start" x="225" y="-16.8" font-family="Helvetica,sans-Serif" font-size="9.00">Arithmetic Function</text>
<text text-anchor="middle" x="270" y="-6.8" font-family="Helvetica,sans-Serif" font-size="9.00"> Object Classes</text>
</a>
</g>
</g>
<!-- Node1&#45;&gt;Node5 -->
<g id="edge4" class="edge">
<title>Node1&#45;&gt;Node5</title>
<path fill="none" stroke="black" d="M142.4,-128.63C155.5,-104.63 181.37,-62.65 214,-37 218.31,-33.61 223.2,-30.64 228.23,-28.06"/>
<polygon fill="black" stroke="black" points="139.17,-127.24 137.58,-137.72 145.35,-130.52 139.17,-127.24"/>
</g>
</g>
</svg>
