<?xml version="1.0" encoding="UTF-8" standalone="no"?>
<!DOCTYPE svg PUBLIC "-//W3C//DTD SVG 1.1//EN"
 "http://www.w3.org/Graphics/SVG/1.1/DTD/svg11.dtd">
<!-- Generated by graphviz version 2.50.0 (0)
 -->
<!-- Title: Library Fundamentals TS Pages: 1 -->
<!--zoomable 350 -->
<svg id="main" version="1.1" xmlns="http://www.w3.org/2000/svg" xmlns:xlink="http://www.w3.org/1999/xlink" xml:space="preserve" onload="init(evt)">
<style type="text/css"><![CDATA[
.edge:hover path { stroke: red; }
.edge:hover polygon { stroke: red; fill: red; }
]]></style>
<script type="text/javascript"><![CDATA[
var edges = document.getElementsByTagName('g');
if (edges && edges.length) {
  for (var i=0;i<edges.length;i++) {
    if (edges[i].id.substr(0,4)=='edge') {
      edges[i].setAttribute('class','edge');
    }
  }
}
]]></script>
        <defs>
                <circle id="rim" cx="0" cy="0" r="7"/>
                <circle id="rim2" cx="0" cy="0" r="3.5"/>
                <g id="zoomPlus">
                        <use xlink:href="#rim" fill="#404040">
                                <set attributeName="fill" to="#808080" begin="zoomplus.mouseover" end="zoomplus.mouseout"/>
                        </use>
                        <path d="M-4,0h8M0,-4v8" fill="none" stroke="white" stroke-width="1.5" pointer-events="none"/>
                </g>
                <g id="zoomMin">
                        <use xlink:href="#rim" fill="#404040">
                                <set attributeName="fill" to="#808080" begin="zoomminus.mouseover" end="zoomminus.mouseout"/>
                        </use>
                        <path d="M-4,0h8" fill="none" stroke="white" stroke-width="1.5" pointer-events="none"/>
                </g>
                <g id="dirArrow">
                        <path fill="none" stroke="white" stroke-width="1.5" d="M0,-3.0v7 M-2.5,-0.5L0,-3.0L2.5,-0.5"/>
                </g>
               <g id="resetDef">
                       <use xlink:href="#rim2" fill="#404040">
                               <set attributeName="fill" to="#808080" begin="reset.mouseover" end="reset.mouseout"/>
                       </use>
               </g>
        </defs>

<script type="text/javascript">
var viewWidth = 582;
var viewHeight = 350;
var sectionId = 'dynsection-0';
</script>
<script xlink:href="svgpan.js"/>
<svg id="graph" class="graph">
<g id="viewport">
<title>Library Fundamentals TS</title>
<polygon fill="white" stroke="transparent" points="-4,4 -4,-346 578,-346 578,4 -4,4"/>
<!-- Node1 -->
<g id="node1" class="node">
<title>Node1</title>
<g id="a_node1"><a xlink:title=" ">
<polygon fill="#bfbfbf" stroke="black" points="289,-178 160,-178 160,-160 289,-160 289,-178"/>
<text text-anchor="middle" x="224.5" y="-166.8" font-family="Helvetica,sans-Serif" font-size="9.00">Library Fundamentals TS</text>
</a>
</g>
</g>
<!-- Node6 -->
<g id="node2" class="node">
<title>Node6</title>
<g id="a_node2"><a xlink:href="a01633.html" target="_top" xlink:title=" ">
<polygon fill="white" stroke="black" points="561.5,-342 445.5,-342 445.5,-324 561.5,-324 561.5,-342"/>
<text text-anchor="middle" x="503.5" y="-330.8" font-family="Helvetica,sans-Serif" font-size="9.00">Logical operator traits</text>
</a>
</g>
</g>
<!-- Node1&#45;&gt;Node6 -->
<g id="edge5" class="edge">
<title>Node1&#45;&gt;Node6</title>
<path fill="none" stroke="black" d="M236.16,-186.73C250.01,-208.41 276.11,-244.92 307,-267 349.84,-297.62 407.94,-314.84 449.66,-323.95"/>
<polygon fill="black" stroke="black" points="239.09,-184.82 230.84,-178.18 233.15,-188.52 239.09,-184.82"/>
</g>
<!-- Node3 -->
<g id="node3" class="node">
<title>Node3</title>
<g id="a_node3"><a xlink:href="a01626.html" target="_top" xlink:title=" ">
<polygon fill="white" stroke="black" points="566,-306 441,-306 441,-288 566,-288 566,-306"/>
<text text-anchor="middle" x="503.5" y="-294.8" font-family="Helvetica,sans-Serif" font-size="9.00">Array creation functions</text>
</a>
</g>
</g>
<!-- Node1&#45;&gt;Node3 -->
<g id="edge2" class="edge">
<title>Node1&#45;&gt;Node3</title>
<path fill="none" stroke="black" d="M242.7,-185.17C258.45,-199.29 282.9,-219.59 307,-233 355.99,-260.27 418.42,-278.16 459.38,-287.92"/>
<polygon fill="black" stroke="black" points="245.05,-182.57 235.3,-178.41 240.32,-187.74 245.05,-182.57"/>
</g>
<!-- Node8 -->
<g id="node4" class="node">
<title>Node8</title>
<g id="a_node4"><a xlink:href="a01625.html" target="_top" xlink:title=" ">
<polygon fill="white" stroke="black" points="555.5,-270 451.5,-270 451.5,-242 555.5,-242 555.5,-270"/>
<text text-anchor="start" x="459.5" y="-258.8" font-family="Helvetica,sans-Serif" font-size="9.00">Type&#45;safe container</text>
<text text-anchor="middle" x="503.5" y="-248.8" font-family="Helvetica,sans-Serif" font-size="9.00"> of any type</text>
</a>
</g>
</g>
<!-- Node1&#45;&gt;Node8 -->
<g id="edge7" class="edge">
<title>Node1&#45;&gt;Node8</title>
<path fill="none" stroke="black" d="M253.82,-182.37C269.31,-189.37 288.97,-197.77 307,-204 355.13,-220.64 411.46,-235.11 451.26,-244.53"/>
<polygon fill="black" stroke="black" points="254.84,-178.99 244.29,-178 251.92,-185.35 254.84,-178.99"/>
</g>
<!-- Node9 -->
<g id="node5" class="node">
<title>Node9</title>
<g id="a_node5"><a xlink:href="a01631.html" target="_top" xlink:title=" ">
<polygon fill="white" stroke="black" points="559,-224 448,-224 448,-196 559,-196 559,-224"/>
<text text-anchor="start" x="456" y="-212.8" font-family="Helvetica,sans-Serif" font-size="9.00">Variable template for</text>
<text text-anchor="middle" x="503.5" y="-202.8" font-family="Helvetica,sans-Serif" font-size="9.00"> type traits</text>
</a>
</g>
</g>
<!-- Node1&#45;&gt;Node9 -->
<g id="edge8" class="edge">
<title>Node1&#45;&gt;Node9</title>
<path fill="none" stroke="black" d="M286.72,-179.74C293.56,-180.87 300.42,-181.98 307,-183 354.4,-190.34 408.43,-197.73 447.65,-202.92"/>
<polygon fill="black" stroke="black" points="287.2,-176.27 276.76,-178.07 286.04,-183.18 287.2,-176.27"/>
</g>
<!-- Node5 -->
<g id="node6" class="node">
<title>Node5</title>
<g id="a_node6"><a xlink:href="a01632.html" target="_top" xlink:title=" ">
<polygon fill="white" stroke="black" points="547.5,-178 459.5,-178 459.5,-160 547.5,-160 547.5,-178"/>
<text text-anchor="middle" x="503.5" y="-166.8" font-family="Helvetica,sans-Serif" font-size="9.00">Detection idiom</text>
</a>
</g>
</g>
<!-- Node1&#45;&gt;Node5 -->
<g id="edge4" class="edge">
<title>Node1&#45;&gt;Node5</title>
<path fill="none" stroke="black" d="M299.07,-169C350.25,-169 416.71,-169 459.49,-169"/>
<polygon fill="black" stroke="black" points="299.05,-165.5 289.05,-169 299.05,-172.5 299.05,-165.5"/>
</g>
<!-- Node7 -->
<g id="node7" class="node">
<title>Node7</title>
<g id="a_node7"><a xlink:href="a01627.html" target="_top" xlink:title=" ">
<polygon fill="white" stroke="black" points="546.5,-142 460.5,-142 460.5,-124 546.5,-124 546.5,-142"/>
<text text-anchor="middle" x="503.5" y="-130.8" font-family="Helvetica,sans-Serif" font-size="9.00">Optional values</text>
</a>
</g>
</g>
<!-- Node1&#45;&gt;Node7 -->
<g id="edge6" class="edge">
<title>Node1&#45;&gt;Node7</title>
<path fill="none" stroke="black" d="M299.13,-159.43C350.64,-152.74 417.6,-144.03 460.33,-138.48"/>
<polygon fill="black" stroke="black" points="298.51,-155.98 289.05,-160.74 299.42,-162.92 298.51,-155.98"/>
</g>
<!-- Node11 -->
<g id="node8" class="node">
<title>Node11</title>
<g id="a_node8"><a xlink:href="a01564.html" target="_top" xlink:title=" ">
<polygon fill="white" stroke="black" points="536.5,-106 470.5,-106 470.5,-88 536.5,-88 536.5,-106"/>
<text text-anchor="middle" x="503.5" y="-94.8" font-family="Helvetica,sans-Serif" font-size="9.00">Sequences</text>
</a>
</g>
</g>
<!-- Node1&#45;&gt;Node11 -->
<g id="edge10" class="edge">
<title>Node1&#45;&gt;Node11</title>
<path fill="none" stroke="orange" stroke-dasharray="5,2" d="M234.54,-159.94C248.61,-146.49 277.26,-121.69 307,-111 361.76,-91.32 430.59,-91.69 470.26,-94.1"/>
<text text-anchor="start" x="307" y="-133.8" font-family="Helvetica,sans-Serif" font-size="9.00">std::experimental::</text>
<text text-anchor="start" x="307" y="-123.8" font-family="Helvetica,sans-Serif" font-size="9.00">fundamentals_v1::basic</text>
<text text-anchor="middle" x="361" y="-113.8" font-family="Helvetica,sans-Serif" font-size="9.00">_string_view</text>
</g>
<!-- Node10 -->
<g id="node10" class="node">
<title>Node10</title>
<g id="a_node10"><a xlink:href="a01618.html" target="_top" xlink:title=" ">
<polygon fill="white" stroke="black" points="528,-54 479,-54 479,-36 528,-36 528,-54"/>
<text text-anchor="middle" x="503.5" y="-42.8" font-family="Helvetica,sans-Serif" font-size="9.00">Strings</text>
</a>
</g>
</g>
<!-- Node1&#45;&gt;Node10 -->
<g id="edge9" class="edge">
<title>Node1&#45;&gt;Node10</title>
<path fill="none" stroke="orange" stroke-dasharray="5,2" d="M229.13,-159.89C238.35,-138.11 264.97,-83.11 307,-60 362.33,-29.58 440.13,-35.37 478.78,-40.86"/>
<text text-anchor="start" x="307" y="-82.8" font-family="Helvetica,sans-Serif" font-size="9.00">std::experimental::</text>
<text text-anchor="start" x="307" y="-72.8" font-family="Helvetica,sans-Serif" font-size="9.00">fundamentals_v1::basic</text>
<text text-anchor="middle" x="361" y="-62.8" font-family="Helvetica,sans-Serif" font-size="9.00">_string_view</text>
</g>
<!-- Node4 -->
<g id="node11" class="node">
<title>Node4</title>
<g id="a_node11"><a xlink:href="a01628.html" target="_top" xlink:title=" ">
<polygon fill="white" stroke="black" points="574,-18 433,-18 433,0 574,0 574,-18"/>
<text text-anchor="middle" x="503.5" y="-6.8" font-family="Helvetica,sans-Serif" font-size="9.00">Const&#45;propagating wrapper</text>
</a>
</g>
</g>
<!-- Node1&#45;&gt;Node4 -->
<g id="edge3" class="edge">
<title>Node1&#45;&gt;Node4</title>
<path fill="none" stroke="black" d="M230.94,-149.95C240.69,-119.58 264.25,-60.8 307,-33 343.84,-9.05 392.95,-3.09 432.74,-3.1"/>
<polygon fill="black" stroke="black" points="227.52,-149.16 227.96,-159.74 234.22,-151.19 227.52,-149.16"/>
</g>
<!-- Node2 -->
<g id="node9" class="node">
<title>Node2</title>
<g id="a_node9"><a xlink:href="a01569.html" target="_top" xlink:title=" ">
<polygon fill="white" stroke="black" points="123,-178 0,-178 0,-160 123,-160 123,-178"/>
<text text-anchor="middle" x="61.5" y="-166.8" font-family="Helvetica,sans-Serif" font-size="9.00">Technical Specifications</text>
</a>
</g>
</g>
<!-- Node2&#45;&gt;Node1 -->
<g id="edge1" class="edge">
<title>Node2&#45;&gt;Node1</title>
<path fill="none" stroke="black" d="M133.56,-169C142.31,-169 151.23,-169 159.86,-169"/>
<polygon fill="black" stroke="black" points="133.37,-165.5 123.37,-169 133.37,-172.5 133.37,-165.5"/>
</g>
</g>
</svg>
        <g id="navigator" transform="translate(0 0)" fill="#404254">
                <rect fill="#f2f5e9" fill-opacity="0.5" stroke="#606060" stroke-width=".5" x="0" y="0" width="60" height="60"/>
                <use id="zoomplus" xlink:href="#zoomPlus" x="17" y="9" onmousedown="handleZoom(evt,'in')"/>
                <use id="zoomminus" xlink:href="#zoomMin" x="42" y="9" onmousedown="handleZoom(evt,'out')"/>
                <use id="reset" xlink:href="#resetDef" x="30" y="36" onmousedown="handleReset()"/>
                <g id="arrowUp" xlink:href="#dirArrow" transform="translate(30 24)" onmousedown="handlePan(0,-1)">
                  <use xlink:href="#rim" fill="#404040">
                        <set attributeName="fill" to="#808080" begin="arrowUp.mouseover" end="arrowUp.mouseout"/>
                  </use>
                  <path fill="none" stroke="white" stroke-width="1.5" d="M0,-3.0v7 M-2.5,-0.5L0,-3.0L2.5,-0.5"/>
                </g>
                <g id="arrowRight" xlink:href="#dirArrow" transform="rotate(90) translate(36 -43)" onmousedown="handlePan(1,0)">
                  <use xlink:href="#rim" fill="#404040">
                        <set attributeName="fill" to="#808080" begin="arrowRight.mouseover" end="arrowRight.mouseout"/>
                  </use>
                  <path fill="none" stroke="white" stroke-width="1.5" d="M0,-3.0v7 M-2.5,-0.5L0,-3.0L2.5,-0.5"/>
                </g>
                <g id="arrowDown" xlink:href="#dirArrow" transform="rotate(180) translate(-30 -48)" onmousedown="handlePan(0,1)">
                  <use xlink:href="#rim" fill="#404040">
                        <set attributeName="fill" to="#808080" begin="arrowDown.mouseover" end="arrowDown.mouseout"/>
                  </use>
                  <path fill="none" stroke="white" stroke-width="1.5" d="M0,-3.0v7 M-2.5,-0.5L0,-3.0L2.5,-0.5"/>
                </g>
                <g id="arrowLeft" xlink:href="#dirArrow" transform="rotate(270) translate(-36 17)" onmousedown="handlePan(-1,0)">
                  <use xlink:href="#rim" fill="#404040">
                        <set attributeName="fill" to="#808080" begin="arrowLeft.mouseover" end="arrowLeft.mouseout"/>
                  </use>
                  <path fill="none" stroke="white" stroke-width="1.5" d="M0,-3.0v7 M-2.5,-0.5L0,-3.0L2.5,-0.5"/>
                </g>
        </g>
        <svg viewBox="0 0 15 15" width="100%" height="30px" preserveAspectRatio="xMaxYMin meet">
         <g id="arrow_out" transform="scale(0.3 0.3)">
          <a xlink:href="a01624_org.svg" target="_base">
           <rect id="button" ry="5" rx="5" y="6" x="6" height="38" width="38"
                fill="#f2f5e9" fill-opacity="0.5" stroke="#606060" stroke-width="1.0"/>
           <path id="arrow"
             d="M 11.500037,31.436501 C 11.940474,20.09759 22.043105,11.32322 32.158766,21.979434 L 37.068811,17.246167 C 37.068811,17.246167 37.088388,32 37.088388,32 L 22.160133,31.978069 C 22.160133,31.978069 26.997745,27.140456 26.997745,27.140456 C 18.528582,18.264221 13.291696,25.230495 11.500037,31.436501 z"
             style="fill:#404040;"/>
          </a>
         </g>
        </svg>
</svg>
