<?xml version="1.0" encoding="UTF-8" standalone="no"?>
<!DOCTYPE svg PUBLIC "-//W3C//DTD SVG 1.1//EN"
 "http://www.w3.org/Graphics/SVG/1.1/DTD/svg11.dtd">
<!-- Generated by graphviz version 2.50.0 (0)
 -->
<!-- Title: std::atomic&lt; signed char &gt; Pages: 1 -->
<svg width="116pt" height="102pt"
 viewBox="0.00 0.00 116.00 102.00" xmlns="http://www.w3.org/2000/svg" xmlns:xlink="http://www.w3.org/1999/xlink">
<g id="graph0" class="graph" transform="scale(1 1) rotate(0) translate(4 98)">
<title>std::atomic&lt; signed char &gt;</title>
<polygon fill="white" stroke="transparent" points="-4,4 -4,-98 112,-98 112,4 -4,4"/>
<!-- Node1 -->
<g id="node1" class="node">
<title>Node1</title>
<g id="a_node1"><a xlink:title="Explicit specialization for signed char.">
<polygon fill="#bfbfbf" stroke="black" points="0,-0.5 0,-28.5 108,-28.5 108,-0.5 0,-0.5"/>
<text text-anchor="start" x="8" y="-17.3" font-family="Helvetica,sans-Serif" font-size="9.00">std::atomic&lt; signed</text>
<text text-anchor="middle" x="54" y="-7.3" font-family="Helvetica,sans-Serif" font-size="9.00"> char &gt;</text>
</a>
</g>
</g>
<!-- Node2 -->
<g id="node2" class="node">
<title>Node2</title>
<g id="a_node2"><a xlink:href="a05094.html" target="_top" xlink:title=" ">
<polygon fill="white" stroke="black" points="3,-65.5 3,-93.5 105,-93.5 105,-65.5 3,-65.5"/>
<text text-anchor="start" x="11" y="-82.3" font-family="Helvetica,sans-Serif" font-size="9.00">std::__atomic_base</text>
<text text-anchor="middle" x="54" y="-72.3" font-family="Helvetica,sans-Serif" font-size="9.00">&lt; signed char &gt;</text>
</a>
</g>
</g>
<!-- Node2&#45;&gt;Node1 -->
<g id="edge1" class="edge">
<title>Node2&#45;&gt;Node1</title>
<path fill="none" stroke="midnightblue" d="M54,-55.16C54,-46.17 54,-36.22 54,-28.54"/>
<polygon fill="midnightblue" stroke="midnightblue" points="50.5,-55.45 54,-65.45 57.5,-55.45 50.5,-55.45"/>
</g>
</g>
</svg>
