<?xml version="1.0" encoding="UTF-8" standalone="no"?>
<!DOCTYPE svg PUBLIC "-//W3C//DTD SVG 1.1//EN"
 "http://www.w3.org/Graphics/SVG/1.1/DTD/svg11.dtd">
<!-- Generated by graphviz version 2.50.0 (0)
 -->
<!-- Title: std::atomic&lt; unsigned int &gt; Pages: 1 -->
<svg width="128pt" height="102pt"
 viewBox="0.00 0.00 128.00 102.00" xmlns="http://www.w3.org/2000/svg" xmlns:xlink="http://www.w3.org/1999/xlink">
<g id="graph0" class="graph" transform="scale(1 1) rotate(0) translate(4 98)">
<title>std::atomic&lt; unsigned int &gt;</title>
<polygon fill="white" stroke="transparent" points="-4,4 -4,-98 124,-98 124,4 -4,4"/>
<!-- Node1 -->
<g id="node1" class="node">
<title>Node1</title>
<g id="a_node1"><a xlink:title="Explicit specialization for unsigned int.">
<polygon fill="#bfbfbf" stroke="black" points="0,-0.5 0,-28.5 120,-28.5 120,-0.5 0,-0.5"/>
<text text-anchor="start" x="8" y="-17.3" font-family="Helvetica,sans-Serif" font-size="9.00">std::atomic&lt; unsigned</text>
<text text-anchor="middle" x="60" y="-7.3" font-family="Helvetica,sans-Serif" font-size="9.00"> int &gt;</text>
</a>
</g>
</g>
<!-- Node2 -->
<g id="node2" class="node">
<title>Node2</title>
<g id="a_node2"><a xlink:href="a05094.html" target="_top" xlink:title=" ">
<polygon fill="white" stroke="black" points="9,-65.5 9,-93.5 111,-93.5 111,-65.5 9,-65.5"/>
<text text-anchor="start" x="17" y="-82.3" font-family="Helvetica,sans-Serif" font-size="9.00">std::__atomic_base</text>
<text text-anchor="middle" x="60" y="-72.3" font-family="Helvetica,sans-Serif" font-size="9.00">&lt; unsigned int &gt;</text>
</a>
</g>
</g>
<!-- Node2&#45;&gt;Node1 -->
<g id="edge1" class="edge">
<title>Node2&#45;&gt;Node1</title>
<path fill="none" stroke="midnightblue" d="M60,-55.16C60,-46.17 60,-36.22 60,-28.54"/>
<polygon fill="midnightblue" stroke="midnightblue" points="56.5,-55.45 60,-65.45 63.5,-55.45 56.5,-55.45"/>
</g>
</g>
</svg>
