<?xml version="1.0" encoding="UTF-8" standalone="no"?>
<!DOCTYPE svg PUBLIC "-//W3C//DTD SVG 1.1//EN"
 "http://www.w3.org/Graphics/SVG/1.1/DTD/svg11.dtd">
<!-- Generated by graphviz version 2.50.0 (0)
 -->
<!-- Title: std::basic_filebuf&lt; _CharT, _Traits &gt; Pages: 1 -->
<svg width="119pt" height="102pt"
 viewBox="0.00 0.00 119.00 102.00" xmlns="http://www.w3.org/2000/svg" xmlns:xlink="http://www.w3.org/1999/xlink">
<g id="graph0" class="graph" transform="scale(1 1) rotate(0) translate(4 98)">
<title>std::basic_filebuf&lt; _CharT, _Traits &gt;</title>
<polygon fill="white" stroke="transparent" points="-4,4 -4,-98 115,-98 115,4 -4,4"/>
<!-- Node1 -->
<g id="node1" class="node">
<title>Node1</title>
<g id="a_node1"><a xlink:title="The actual work of input and output (for files).">
<polygon fill="#bfbfbf" stroke="black" points="4.5,-0.5 4.5,-28.5 106.5,-28.5 106.5,-0.5 4.5,-0.5"/>
<text text-anchor="start" x="12.5" y="-17.3" font-family="Helvetica,sans-Serif" font-size="9.00">std::basic_filebuf</text>
<text text-anchor="middle" x="55.5" y="-7.3" font-family="Helvetica,sans-Serif" font-size="9.00">&lt; _CharT, _Traits &gt;</text>
</a>
</g>
</g>
<!-- Node2 -->
<g id="node2" class="node">
<title>Node2</title>
<g id="a_node2"><a xlink:href="a02738.html" target="_top" xlink:title="The actual work of input and output (interface).">
<polygon fill="white" stroke="black" points="0,-65.5 0,-93.5 111,-93.5 111,-65.5 0,-65.5"/>
<text text-anchor="start" x="8" y="-82.3" font-family="Helvetica,sans-Serif" font-size="9.00">std::basic_streambuf</text>
<text text-anchor="middle" x="55.5" y="-72.3" font-family="Helvetica,sans-Serif" font-size="9.00">&lt; _CharT, _Traits &gt;</text>
</a>
</g>
</g>
<!-- Node2&#45;&gt;Node1 -->
<g id="edge1" class="edge">
<title>Node2&#45;&gt;Node1</title>
<path fill="none" stroke="midnightblue" d="M55.5,-55.16C55.5,-46.17 55.5,-36.22 55.5,-28.54"/>
<polygon fill="midnightblue" stroke="midnightblue" points="52,-55.45 55.5,-65.45 59,-55.45 52,-55.45"/>
</g>
</g>
</svg>
