<?xml version="1.0" encoding="UTF-8" standalone="no"?>
<!DOCTYPE svg PUBLIC "-//W3C//DTD SVG 1.1//EN"
 "http://www.w3.org/Graphics/SVG/1.1/DTD/svg11.dtd">
<!-- Generated by graphviz version 2.50.0 (0)
 -->
<!-- Title: std::basic_ofstream&lt; _CharT, _Traits &gt; Pages: 1 -->
<svg width="129pt" height="222pt"
 viewBox="0.00 0.00 129.00 222.00" xmlns="http://www.w3.org/2000/svg" xmlns:xlink="http://www.w3.org/1999/xlink">
<g id="graph0" class="graph" transform="scale(1 1) rotate(0) translate(4 218)">
<title>std::basic_ofstream&lt; _CharT, _Traits &gt;</title>
<polygon fill="white" stroke="transparent" points="-4,4 -4,-218 125,-218 125,4 -4,4"/>
<!-- Node1 -->
<g id="node1" class="node">
<title>Node1</title>
<g id="a_node1"><a xlink:title="Controlling output for files.">
<polygon fill="#bfbfbf" stroke="black" points="8.5,-0.5 8.5,-28.5 112.5,-28.5 112.5,-0.5 8.5,-0.5"/>
<text text-anchor="start" x="16.5" y="-17.3" font-family="Helvetica,sans-Serif" font-size="9.00">std::basic_ofstream</text>
<text text-anchor="middle" x="60.5" y="-7.3" font-family="Helvetica,sans-Serif" font-size="9.00">&lt; _CharT, _Traits &gt;</text>
</a>
</g>
</g>
<!-- Node2 -->
<g id="node2" class="node">
<title>Node2</title>
<g id="a_node2"><a xlink:href="a02746.html" target="_top" xlink:title="Template class basic_ostream.">
<polygon fill="white" stroke="black" points="9.5,-65.5 9.5,-93.5 111.5,-93.5 111.5,-65.5 9.5,-65.5"/>
<text text-anchor="start" x="17.5" y="-82.3" font-family="Helvetica,sans-Serif" font-size="9.00">std::basic_ostream</text>
<text text-anchor="middle" x="60.5" y="-72.3" font-family="Helvetica,sans-Serif" font-size="9.00">&lt; _CharT, _Traits &gt;</text>
</a>
</g>
</g>
<!-- Node2&#45;&gt;Node1 -->
<g id="edge1" class="edge">
<title>Node2&#45;&gt;Node1</title>
<path fill="none" stroke="midnightblue" d="M60.5,-55.16C60.5,-46.17 60.5,-36.22 60.5,-28.54"/>
<polygon fill="midnightblue" stroke="midnightblue" points="57,-55.45 60.5,-65.45 64,-55.45 57,-55.45"/>
</g>
<!-- Node3 -->
<g id="node3" class="node">
<title>Node3</title>
<g id="a_node3"><a xlink:href="a02734.html" target="_top" xlink:title="Template class basic_ios, virtual base class for all stream classes.">
<polygon fill="white" stroke="black" points="0,-130.5 0,-158.5 121,-158.5 121,-130.5 0,-130.5"/>
<text text-anchor="start" x="8" y="-147.3" font-family="Helvetica,sans-Serif" font-size="9.00">std::basic_ios&lt; _CharT,</text>
<text text-anchor="middle" x="60.5" y="-137.3" font-family="Helvetica,sans-Serif" font-size="9.00"> _Traits &gt;</text>
</a>
</g>
</g>
<!-- Node3&#45;&gt;Node2 -->
<g id="edge2" class="edge">
<title>Node3&#45;&gt;Node2</title>
<path fill="none" stroke="midnightblue" d="M60.5,-120.16C60.5,-111.17 60.5,-101.22 60.5,-93.54"/>
<polygon fill="midnightblue" stroke="midnightblue" points="57,-120.45 60.5,-130.45 64,-120.45 57,-120.45"/>
</g>
<!-- Node4 -->
<g id="node4" class="node">
<title>Node4</title>
<g id="a_node4"><a xlink:href="a06134.html" target="_top" xlink:title="The base of the I/O class hierarchy.">
<polygon fill="white" stroke="black" points="23.5,-195.5 23.5,-213.5 97.5,-213.5 97.5,-195.5 23.5,-195.5"/>
<text text-anchor="middle" x="60.5" y="-202.3" font-family="Helvetica,sans-Serif" font-size="9.00">std::ios_base</text>
</a>
</g>
</g>
<!-- Node4&#45;&gt;Node3 -->
<g id="edge3" class="edge">
<title>Node4&#45;&gt;Node3</title>
<path fill="none" stroke="midnightblue" d="M60.5,-185.32C60.5,-176.75 60.5,-166.7 60.5,-158.84"/>
<polygon fill="midnightblue" stroke="midnightblue" points="57,-185.44 60.5,-195.44 64,-185.44 57,-185.44"/>
</g>
</g>
</svg>
