<?xml version="1.0" encoding="UTF-8" standalone="no"?>
<!DOCTYPE svg PUBLIC "-//W3C//DTD SVG 1.1//EN"
 "http://www.w3.org/Graphics/SVG/1.1/DTD/svg11.dtd">
<!-- Generated by graphviz version 2.50.0 (0)
 -->
<!-- Title: std::is_bind_expression&lt; const _Bind_result&lt; _Result, _Signature &gt; &gt; Pages: 1 -->
<svg width="136pt" height="102pt"
 viewBox="0.00 0.00 136.00 102.00" xmlns="http://www.w3.org/2000/svg" xmlns:xlink="http://www.w3.org/1999/xlink">
<g id="graph0" class="graph" transform="scale(1 1) rotate(0) translate(4 98)">
<title>std::is_bind_expression&lt; const _Bind_result&lt; _Result, _Signature &gt; &gt;</title>
<polygon fill="white" stroke="transparent" points="-4,4 -4,-98 132,-98 132,4 -4,4"/>
<!-- Node1 -->
<g id="node1" class="node">
<title>Node1</title>
<g id="a_node1"><a xlink:title="Class template _Bind_result is always a bind expression.">
<polygon fill="#bfbfbf" stroke="black" points="0,-0.5 0,-38.5 128,-38.5 128,-0.5 0,-0.5"/>
<text text-anchor="start" x="8" y="-27.3" font-family="Helvetica,sans-Serif" font-size="9.00">std::is_bind_expression</text>
<text text-anchor="start" x="8" y="-17.3" font-family="Helvetica,sans-Serif" font-size="9.00">&lt; const _Bind_result&lt;</text>
<text text-anchor="middle" x="64" y="-7.3" font-family="Helvetica,sans-Serif" font-size="9.00"> _Result, _Signature &gt; &gt;</text>
</a>
</g>
</g>
<!-- Node2 -->
<g id="node2" class="node">
<title>Node2</title>
<g id="a_node2"><a xlink:href="a03766.html" target="_top" xlink:title="integral_constant">
<polygon fill="white" stroke="black" points="34,-75.5 34,-93.5 94,-93.5 94,-75.5 34,-75.5"/>
<text text-anchor="middle" x="64" y="-82.3" font-family="Helvetica,sans-Serif" font-size="9.00">true_type</text>
</a>
</g>
</g>
<!-- Node2&#45;&gt;Node1 -->
<g id="edge1" class="edge">
<title>Node2&#45;&gt;Node1</title>
<path fill="none" stroke="midnightblue" d="M64,-65.08C64,-56.72 64,-46.86 64,-38.55"/>
<polygon fill="midnightblue" stroke="midnightblue" points="60.5,-65.26 64,-75.26 67.5,-65.26 60.5,-65.26"/>
</g>
</g>
</svg>
