<?xml version="1.0" encoding="UTF-8" standalone="no"?>
<!DOCTYPE svg PUBLIC "-//W3C//DTD SVG 1.1//EN"
 "http://www.w3.org/Graphics/SVG/1.1/DTD/svg11.dtd">
<!-- Generated by graphviz version 2.50.0 (0)
 -->
<!-- Title: std::future&lt; _Res &gt; Pages: 1 -->
<svg width="114pt" height="147pt"
 viewBox="0.00 0.00 114.00 147.00" xmlns="http://www.w3.org/2000/svg" xmlns:xlink="http://www.w3.org/1999/xlink">
<g id="graph0" class="graph" transform="scale(1 1) rotate(0) translate(4 143)">
<title>std::future&lt; _Res &gt;</title>
<polygon fill="white" stroke="transparent" points="-4,4 -4,-143 110,-143 110,4 -4,4"/>
<!-- Node1 -->
<g id="node1" class="node">
<title>Node1</title>
<g id="a_node1"><a xlink:title="Primary template for future.">
<polygon fill="#bfbfbf" stroke="black" points="0,-0.5 0,-18.5 106,-18.5 106,-0.5 0,-0.5"/>
<text text-anchor="middle" x="53" y="-7.3" font-family="Helvetica,sans-Serif" font-size="9.00">std::future&lt; _Res &gt;</text>
</a>
</g>
</g>
<!-- Node2 -->
<g id="node2" class="node">
<title>Node2</title>
<g id="a_node2"><a xlink:href="a02634.html" target="_top" xlink:title="Common implementation for future and shared_future.">
<polygon fill="white" stroke="black" points="2.5,-55.5 2.5,-83.5 103.5,-83.5 103.5,-55.5 2.5,-55.5"/>
<text text-anchor="start" x="10.5" y="-72.3" font-family="Helvetica,sans-Serif" font-size="9.00">std::__basic_future</text>
<text text-anchor="middle" x="53" y="-62.3" font-family="Helvetica,sans-Serif" font-size="9.00">&lt; _Res &gt;</text>
</a>
</g>
</g>
<!-- Node2&#45;&gt;Node1 -->
<g id="edge1" class="edge">
<title>Node2&#45;&gt;Node1</title>
<path fill="none" stroke="midnightblue" d="M53,-45.32C53,-35.94 53,-25.7 53,-18.77"/>
<polygon fill="midnightblue" stroke="midnightblue" points="49.5,-45.34 53,-55.34 56.5,-45.34 49.5,-45.34"/>
</g>
<!-- Node3 -->
<g id="node3" class="node">
<title>Node3</title>
<g id="a_node3"><a xlink:href="a02546.html" target="_top" xlink:title="Base class and enclosing scope.">
<polygon fill="white" stroke="black" points="3.5,-120.5 3.5,-138.5 102.5,-138.5 102.5,-120.5 3.5,-120.5"/>
<text text-anchor="middle" x="53" y="-127.3" font-family="Helvetica,sans-Serif" font-size="9.00">std::__future_base</text>
</a>
</g>
</g>
<!-- Node3&#45;&gt;Node2 -->
<g id="edge2" class="edge">
<title>Node3&#45;&gt;Node2</title>
<path fill="none" stroke="midnightblue" d="M53,-110.32C53,-101.75 53,-91.7 53,-83.84"/>
<polygon fill="midnightblue" stroke="midnightblue" points="49.5,-110.44 53,-120.44 56.5,-110.44 49.5,-110.44"/>
</g>
</g>
</svg>
