<?xml version="1.0" encoding="UTF-8" standalone="no"?>
<!DOCTYPE svg PUBLIC "-//W3C//DTD SVG 1.1//EN"
 "http://www.w3.org/Graphics/SVG/1.1/DTD/svg11.dtd">
<!-- Generated by graphviz version 2.50.0 (0)
 -->
<!-- Title: std::__future_base::_Result_base Pages: 1 -->
<svg width="398pt" height="136pt"
 viewBox="0.00 0.00 398.00 136.00" xmlns="http://www.w3.org/2000/svg" xmlns:xlink="http://www.w3.org/1999/xlink">
<g id="graph0" class="graph" transform="scale(1 1) rotate(0) translate(4 132)">
<title>std::__future_base::_Result_base</title>
<polygon fill="white" stroke="transparent" points="-4,4 -4,-132 394,-132 394,4 -4,4"/>
<!-- Node1 -->
<g id="node1" class="node">
<title>Node1</title>
<g id="a_node1"><a xlink:title="Base class for results.">
<polygon fill="#bfbfbf" stroke="black" points="0,-47.5 0,-75.5 99,-75.5 99,-47.5 0,-47.5"/>
<text text-anchor="start" x="8" y="-64.3" font-family="Helvetica,sans-Serif" font-size="9.00">std::__future_base</text>
<text text-anchor="middle" x="49.5" y="-54.3" font-family="Helvetica,sans-Serif" font-size="9.00">::_Result_base</text>
</a>
</g>
</g>
<!-- Node2 -->
<g id="node2" class="node">
<title>Node2</title>
<g id="a_node2"><a xlink:href="a02558.html" target="_top" xlink:title="A result object that has storage for an object of type _Res.">
<polygon fill="white" stroke="black" points="138.5,-94.5 138.5,-122.5 237.5,-122.5 237.5,-94.5 138.5,-94.5"/>
<text text-anchor="start" x="146.5" y="-111.3" font-family="Helvetica,sans-Serif" font-size="9.00">std::__future_base</text>
<text text-anchor="middle" x="188" y="-101.3" font-family="Helvetica,sans-Serif" font-size="9.00">::_Result&lt; _Res &gt;</text>
</a>
</g>
</g>
<!-- Node1&#45;&gt;Node2 -->
<g id="edge1" class="edge">
<title>Node1&#45;&gt;Node2</title>
<path fill="none" stroke="midnightblue" d="M101.01,-78.89C115.85,-84 131.9,-89.53 146.07,-94.41"/>
<polygon fill="midnightblue" stroke="midnightblue" points="102.05,-75.55 91.45,-75.6 99.77,-82.17 102.05,-75.55"/>
</g>
<!-- Node4 -->
<g id="node4" class="node">
<title>Node4</title>
<g id="a_node4"><a xlink:href="a02618.html" target="_top" xlink:title="Partial specialization for reference types.">
<polygon fill="white" stroke="black" points="135,-47.5 135,-75.5 241,-75.5 241,-47.5 135,-47.5"/>
<text text-anchor="start" x="143" y="-64.3" font-family="Helvetica,sans-Serif" font-size="9.00">std::__future_base</text>
<text text-anchor="middle" x="188" y="-54.3" font-family="Helvetica,sans-Serif" font-size="9.00">::_Result&lt; _Res &amp; &gt;</text>
</a>
</g>
</g>
<!-- Node1&#45;&gt;Node4 -->
<g id="edge3" class="edge">
<title>Node1&#45;&gt;Node4</title>
<path fill="none" stroke="midnightblue" d="M109.28,-61.5C117.82,-61.5 126.55,-61.5 134.94,-61.5"/>
<polygon fill="midnightblue" stroke="midnightblue" points="109.01,-58 99.01,-61.5 109.01,-65 109.01,-58"/>
</g>
<!-- Node5 -->
<g id="node5" class="node">
<title>Node5</title>
<g id="a_node5"><a xlink:href="a02622.html" target="_top" xlink:title="Explicit specialization for void.">
<polygon fill="white" stroke="black" points="138.5,-0.5 138.5,-28.5 237.5,-28.5 237.5,-0.5 138.5,-0.5"/>
<text text-anchor="start" x="146.5" y="-17.3" font-family="Helvetica,sans-Serif" font-size="9.00">std::__future_base</text>
<text text-anchor="middle" x="188" y="-7.3" font-family="Helvetica,sans-Serif" font-size="9.00">::_Result&lt; void &gt;</text>
</a>
</g>
</g>
<!-- Node1&#45;&gt;Node5 -->
<g id="edge4" class="edge">
<title>Node1&#45;&gt;Node5</title>
<path fill="none" stroke="midnightblue" d="M101.01,-44.11C115.85,-39 131.9,-33.47 146.07,-28.59"/>
<polygon fill="midnightblue" stroke="midnightblue" points="99.77,-40.83 91.45,-47.4 102.05,-47.45 99.77,-40.83"/>
</g>
<!-- Node3 -->
<g id="node3" class="node">
<title>Node3</title>
<g id="a_node3"><a xlink:href="a02562.html" target="_top" xlink:title="A result object that uses an allocator.">
<polygon fill="white" stroke="black" points="277,-89.5 277,-127.5 390,-127.5 390,-89.5 277,-89.5"/>
<text text-anchor="start" x="285" y="-116.3" font-family="Helvetica,sans-Serif" font-size="9.00">std::__future_base</text>
<text text-anchor="start" x="285" y="-106.3" font-family="Helvetica,sans-Serif" font-size="9.00">::_Result_alloc&lt; _Res,</text>
<text text-anchor="middle" x="333.5" y="-96.3" font-family="Helvetica,sans-Serif" font-size="9.00"> _Alloc &gt;</text>
</a>
</g>
</g>
<!-- Node2&#45;&gt;Node3 -->
<g id="edge2" class="edge">
<title>Node2&#45;&gt;Node3</title>
<path fill="none" stroke="midnightblue" d="M247.82,-108.5C257.4,-108.5 267.29,-108.5 276.79,-108.5"/>
<polygon fill="midnightblue" stroke="midnightblue" points="247.58,-105 237.58,-108.5 247.58,-112 247.58,-105"/>
</g>
</g>
</svg>
