<?xml version="1.0" encoding="UTF-8" standalone="no"?>
<!DOCTYPE svg PUBLIC "-//W3C//DTD SVG 1.1//EN"
 "http://www.w3.org/Graphics/SVG/1.1/DTD/svg11.dtd">
<!-- Generated by graphviz version 2.50.0 (0)
 -->
<!-- Title: std::__basic_future&lt; _Res &gt; Pages: 1 -->
<svg width="232pt" height="157pt"
 viewBox="0.00 0.00 232.00 157.00" xmlns="http://www.w3.org/2000/svg" xmlns:xlink="http://www.w3.org/1999/xlink">
<g id="graph0" class="graph" transform="scale(1 1) rotate(0) translate(4 153)">
<title>std::__basic_future&lt; _Res &gt;</title>
<polygon fill="white" stroke="transparent" points="-4,4 -4,-153 228,-153 228,4 -4,4"/>
<!-- Node1 -->
<g id="node1" class="node">
<title>Node1</title>
<g id="a_node1"><a xlink:title="Common implementation for future and shared_future.">
<polygon fill="#bfbfbf" stroke="black" points="62.5,-65.5 62.5,-93.5 163.5,-93.5 163.5,-65.5 62.5,-65.5"/>
<text text-anchor="start" x="70.5" y="-82.3" font-family="Helvetica,sans-Serif" font-size="9.00">std::__basic_future</text>
<text text-anchor="middle" x="113" y="-72.3" font-family="Helvetica,sans-Serif" font-size="9.00">&lt; _Res &gt;</text>
</a>
</g>
</g>
<!-- Node3 -->
<g id="node3" class="node">
<title>Node3</title>
<g id="a_node3"><a xlink:href="a02530.html" target="_top" xlink:title="Primary template for future.">
<polygon fill="white" stroke="black" points="0,-5.5 0,-23.5 106,-23.5 106,-5.5 0,-5.5"/>
<text text-anchor="middle" x="53" y="-12.3" font-family="Helvetica,sans-Serif" font-size="9.00">std::future&lt; _Res &gt;</text>
</a>
</g>
</g>
<!-- Node1&#45;&gt;Node3 -->
<g id="edge2" class="edge">
<title>Node1&#45;&gt;Node3</title>
<path fill="none" stroke="midnightblue" d="M93.65,-58.18C82.51,-46.49 69.13,-32.43 60.84,-23.73"/>
<polygon fill="midnightblue" stroke="midnightblue" points="91.14,-60.62 100.57,-65.45 96.21,-55.79 91.14,-60.62"/>
</g>
<!-- Node4 -->
<g id="node4" class="node">
<title>Node4</title>
<g id="a_node4"><a xlink:href="a02534.html" target="_top" xlink:title="Primary template for shared_future.">
<polygon fill="white" stroke="black" points="124,-0.5 124,-28.5 224,-28.5 224,-0.5 124,-0.5"/>
<text text-anchor="start" x="132" y="-17.3" font-family="Helvetica,sans-Serif" font-size="9.00">std::shared_future</text>
<text text-anchor="middle" x="174" y="-7.3" font-family="Helvetica,sans-Serif" font-size="9.00">&lt; _Res &gt;</text>
</a>
</g>
</g>
<!-- Node1&#45;&gt;Node4 -->
<g id="edge3" class="edge">
<title>Node1&#45;&gt;Node4</title>
<path fill="none" stroke="midnightblue" d="M132.76,-58.09C142.16,-48.38 153.12,-37.06 161.38,-28.54"/>
<polygon fill="midnightblue" stroke="midnightblue" points="130.08,-55.83 125.64,-65.45 135.11,-60.7 130.08,-55.83"/>
</g>
<!-- Node2 -->
<g id="node2" class="node">
<title>Node2</title>
<g id="a_node2"><a xlink:href="a02546.html" target="_top" xlink:title="Base class and enclosing scope.">
<polygon fill="white" stroke="black" points="63.5,-130.5 63.5,-148.5 162.5,-148.5 162.5,-130.5 63.5,-130.5"/>
<text text-anchor="middle" x="113" y="-137.3" font-family="Helvetica,sans-Serif" font-size="9.00">std::__future_base</text>
</a>
</g>
</g>
<!-- Node2&#45;&gt;Node1 -->
<g id="edge1" class="edge">
<title>Node2&#45;&gt;Node1</title>
<path fill="none" stroke="midnightblue" d="M113,-120.32C113,-111.75 113,-101.7 113,-93.84"/>
<polygon fill="midnightblue" stroke="midnightblue" points="109.5,-120.44 113,-130.44 116.5,-120.44 109.5,-120.44"/>
</g>
</g>
</svg>
