<?xml version="1.0" encoding="UTF-8" standalone="no"?>
<!DOCTYPE svg PUBLIC "-//W3C//DTD SVG 1.1//EN"
 "http://www.w3.org/Graphics/SVG/1.1/DTD/svg11.dtd">
<!-- Generated by graphviz version 2.50.0 (0)
 -->
<!-- Title: std::basic_stringstream&lt; _CharT, _Traits, _Alloc &gt; Pages: 1 -->
<svg width="230pt" height="287pt"
 viewBox="0.00 0.00 230.00 287.00" xmlns="http://www.w3.org/2000/svg" xmlns:xlink="http://www.w3.org/1999/xlink">
<g id="graph0" class="graph" transform="scale(1 1) rotate(0) translate(4 283)">
<title>std::basic_stringstream&lt; _CharT, _Traits, _Alloc &gt;</title>
<polygon fill="white" stroke="transparent" points="-4,4 -4,-283 226,-283 226,4 -4,4"/>
<!-- Node1 -->
<g id="node1" class="node">
<title>Node1</title>
<g id="a_node1"><a xlink:title="Controlling input and output for std::string.">
<polygon fill="#bfbfbf" stroke="black" points="44,-0.5 44,-28.5 178,-28.5 178,-0.5 44,-0.5"/>
<text text-anchor="start" x="52" y="-17.3" font-family="Helvetica,sans-Serif" font-size="9.00">std::basic_stringstream</text>
<text text-anchor="middle" x="111" y="-7.3" font-family="Helvetica,sans-Serif" font-size="9.00">&lt; _CharT, _Traits, _Alloc &gt;</text>
</a>
</g>
</g>
<!-- Node2 -->
<g id="node2" class="node">
<title>Node2</title>
<g id="a_node2"><a xlink:href="a02750.html" target="_top" xlink:title="Template class basic_iostream.">
<polygon fill="white" stroke="black" points="59,-65.5 59,-93.5 163,-93.5 163,-65.5 59,-65.5"/>
<text text-anchor="start" x="67" y="-82.3" font-family="Helvetica,sans-Serif" font-size="9.00">std::basic_iostream</text>
<text text-anchor="middle" x="111" y="-72.3" font-family="Helvetica,sans-Serif" font-size="9.00">&lt; _CharT, _Traits &gt;</text>
</a>
</g>
</g>
<!-- Node2&#45;&gt;Node1 -->
<g id="edge1" class="edge">
<title>Node2&#45;&gt;Node1</title>
<path fill="none" stroke="midnightblue" d="M111,-55.16C111,-46.17 111,-36.22 111,-28.54"/>
<polygon fill="midnightblue" stroke="midnightblue" points="107.5,-55.45 111,-65.45 114.5,-55.45 107.5,-55.45"/>
</g>
<!-- Node3 -->
<g id="node3" class="node">
<title>Node3</title>
<g id="a_node3"><a xlink:href="a02742.html" target="_top" xlink:title="Template class basic_istream.">
<polygon fill="white" stroke="black" points="0,-130.5 0,-158.5 102,-158.5 102,-130.5 0,-130.5"/>
<text text-anchor="start" x="8" y="-147.3" font-family="Helvetica,sans-Serif" font-size="9.00">std::basic_istream</text>
<text text-anchor="middle" x="51" y="-137.3" font-family="Helvetica,sans-Serif" font-size="9.00">&lt; _CharT, _Traits &gt;</text>
</a>
</g>
</g>
<!-- Node3&#45;&gt;Node2 -->
<g id="edge2" class="edge">
<title>Node3&#45;&gt;Node2</title>
<path fill="none" stroke="midnightblue" d="M70.44,-123.09C79.68,-113.38 90.46,-102.06 98.58,-93.54"/>
<polygon fill="midnightblue" stroke="midnightblue" points="67.79,-120.79 63.43,-130.45 72.86,-125.62 67.79,-120.79"/>
</g>
<!-- Node4 -->
<g id="node4" class="node">
<title>Node4</title>
<g id="a_node4"><a xlink:href="a02734.html" target="_top" xlink:title="Template class basic_ios, virtual base class for all stream classes.">
<polygon fill="white" stroke="black" points="50.5,-195.5 50.5,-223.5 171.5,-223.5 171.5,-195.5 50.5,-195.5"/>
<text text-anchor="start" x="58.5" y="-212.3" font-family="Helvetica,sans-Serif" font-size="9.00">std::basic_ios&lt; _CharT,</text>
<text text-anchor="middle" x="111" y="-202.3" font-family="Helvetica,sans-Serif" font-size="9.00"> _Traits &gt;</text>
</a>
</g>
</g>
<!-- Node4&#45;&gt;Node3 -->
<g id="edge3" class="edge">
<title>Node4&#45;&gt;Node3</title>
<path fill="none" stroke="midnightblue" d="M91.56,-188.09C82.32,-178.38 71.54,-167.06 63.42,-158.54"/>
<polygon fill="midnightblue" stroke="midnightblue" points="89.14,-190.62 98.57,-195.45 94.21,-185.79 89.14,-190.62"/>
</g>
<!-- Node6 -->
<g id="node6" class="node">
<title>Node6</title>
<g id="a_node6"><a xlink:href="a02746.html" target="_top" xlink:title="Template class basic_ostream.">
<polygon fill="white" stroke="black" points="120,-130.5 120,-158.5 222,-158.5 222,-130.5 120,-130.5"/>
<text text-anchor="start" x="128" y="-147.3" font-family="Helvetica,sans-Serif" font-size="9.00">std::basic_ostream</text>
<text text-anchor="middle" x="171" y="-137.3" font-family="Helvetica,sans-Serif" font-size="9.00">&lt; _CharT, _Traits &gt;</text>
</a>
</g>
</g>
<!-- Node4&#45;&gt;Node6 -->
<g id="edge6" class="edge">
<title>Node4&#45;&gt;Node6</title>
<path fill="none" stroke="midnightblue" d="M130.44,-188.09C139.68,-178.38 150.46,-167.06 158.58,-158.54"/>
<polygon fill="midnightblue" stroke="midnightblue" points="127.79,-185.79 123.43,-195.45 132.86,-190.62 127.79,-185.79"/>
</g>
<!-- Node5 -->
<g id="node5" class="node">
<title>Node5</title>
<g id="a_node5"><a xlink:href="a06134.html" target="_top" xlink:title="The base of the I/O class hierarchy.">
<polygon fill="white" stroke="black" points="74,-260.5 74,-278.5 148,-278.5 148,-260.5 74,-260.5"/>
<text text-anchor="middle" x="111" y="-267.3" font-family="Helvetica,sans-Serif" font-size="9.00">std::ios_base</text>
</a>
</g>
</g>
<!-- Node5&#45;&gt;Node4 -->
<g id="edge4" class="edge">
<title>Node5&#45;&gt;Node4</title>
<path fill="none" stroke="midnightblue" d="M111,-250.32C111,-241.75 111,-231.7 111,-223.84"/>
<polygon fill="midnightblue" stroke="midnightblue" points="107.5,-250.44 111,-260.44 114.5,-250.44 107.5,-250.44"/>
</g>
<!-- Node6&#45;&gt;Node2 -->
<g id="edge5" class="edge">
<title>Node6&#45;&gt;Node2</title>
<path fill="none" stroke="midnightblue" d="M151.56,-123.09C142.32,-113.38 131.54,-102.06 123.42,-93.54"/>
<polygon fill="midnightblue" stroke="midnightblue" points="149.14,-125.62 158.57,-130.45 154.21,-120.79 149.14,-125.62"/>
</g>
</g>
</svg>
