<?xml version="1.0" encoding="UTF-8" standalone="no"?>
<!DOCTYPE svg PUBLIC "-//W3C//DTD SVG 1.1//EN"
 "http://www.w3.org/Graphics/SVG/1.1/DTD/svg11.dtd">
<!-- Generated by graphviz version 2.50.0 (0)
 -->
<!-- Title: std::basic_iostream&lt; _CharT, _Traits &gt; Pages: 1 -->
<svg width="687pt" height="84pt"
 viewBox="0.00 0.00 687.00 84.00" xmlns="http://www.w3.org/2000/svg" xmlns:xlink="http://www.w3.org/1999/xlink">
<g id="graph0" class="graph" transform="scale(1 1) rotate(0) translate(4 80)">
<title>std::basic_iostream&lt; _CharT, _Traits &gt;</title>
<polygon fill="white" stroke="transparent" points="-4,4 -4,-80 683,-80 683,4 -4,4"/>
<!-- Node1 -->
<g id="node1" class="node">
<title>Node1</title>
<g id="a_node1"><a xlink:title="Template class basic_iostream.">
<polygon fill="#bfbfbf" stroke="black" points="405,-23.5 405,-51.5 509,-51.5 509,-23.5 405,-23.5"/>
<text text-anchor="start" x="413" y="-40.3" font-family="Helvetica,sans-Serif" font-size="9.00">std::basic_iostream</text>
<text text-anchor="middle" x="457" y="-30.3" font-family="Helvetica,sans-Serif" font-size="9.00">&lt; _CharT, _Traits &gt;</text>
</a>
</g>
</g>
<!-- Node6 -->
<g id="node6" class="node">
<title>Node6</title>
<g id="a_node6"><a xlink:href="a02374.html" target="_top" xlink:title="Controlling input and output for files.">
<polygon fill="white" stroke="black" points="561,-47.5 561,-75.5 663,-75.5 663,-47.5 561,-47.5"/>
<text text-anchor="start" x="569" y="-64.3" font-family="Helvetica,sans-Serif" font-size="9.00">std::basic_fstream</text>
<text text-anchor="middle" x="612" y="-54.3" font-family="Helvetica,sans-Serif" font-size="9.00">&lt; _CharT, _Traits &gt;</text>
</a>
</g>
</g>
<!-- Node1&#45;&gt;Node6 -->
<g id="edge6" class="edge">
<title>Node1&#45;&gt;Node6</title>
<path fill="none" stroke="midnightblue" d="M519.26,-47.11C533.05,-49.27 547.53,-51.54 560.8,-53.63"/>
<polygon fill="midnightblue" stroke="midnightblue" points="519.79,-43.65 509.37,-45.56 518.71,-50.57 519.79,-43.65"/>
</g>
<!-- Node7 -->
<g id="node7" class="node">
<title>Node7</title>
<g id="a_node7"><a xlink:href="a02766.html" target="_top" xlink:title="Controlling input and output for std::string.">
<polygon fill="white" stroke="black" points="545,-0.5 545,-28.5 679,-28.5 679,-0.5 545,-0.5"/>
<text text-anchor="start" x="553" y="-17.3" font-family="Helvetica,sans-Serif" font-size="9.00">std::basic_stringstream</text>
<text text-anchor="middle" x="612" y="-7.3" font-family="Helvetica,sans-Serif" font-size="9.00">&lt; _CharT, _Traits, _Alloc &gt;</text>
</a>
</g>
</g>
<!-- Node1&#45;&gt;Node7 -->
<g id="edge7" class="edge">
<title>Node1&#45;&gt;Node7</title>
<path fill="none" stroke="midnightblue" d="M519.42,-28.27C527.77,-27.01 536.38,-25.72 544.82,-24.45"/>
<polygon fill="midnightblue" stroke="midnightblue" points="518.74,-24.83 509.37,-29.78 519.78,-31.75 518.74,-24.83"/>
</g>
<!-- Node2 -->
<g id="node2" class="node">
<title>Node2</title>
<g id="a_node2"><a xlink:href="a02742.html" target="_top" xlink:title="Template class basic_istream.">
<polygon fill="white" stroke="black" points="267,-47.5 267,-75.5 369,-75.5 369,-47.5 267,-47.5"/>
<text text-anchor="start" x="275" y="-64.3" font-family="Helvetica,sans-Serif" font-size="9.00">std::basic_istream</text>
<text text-anchor="middle" x="318" y="-54.3" font-family="Helvetica,sans-Serif" font-size="9.00">&lt; _CharT, _Traits &gt;</text>
</a>
</g>
</g>
<!-- Node2&#45;&gt;Node1 -->
<g id="edge1" class="edge">
<title>Node2&#45;&gt;Node1</title>
<path fill="none" stroke="midnightblue" d="M379.18,-50.96C387.74,-49.46 396.48,-47.93 404.85,-46.46"/>
<polygon fill="midnightblue" stroke="midnightblue" points="378.48,-47.53 369.24,-52.7 379.69,-54.42 378.48,-47.53"/>
</g>
<!-- Node3 -->
<g id="node3" class="node">
<title>Node3</title>
<g id="a_node3"><a xlink:href="a02734.html" target="_top" xlink:title="Template class basic_ios, virtual base class for all stream classes.">
<polygon fill="white" stroke="black" points="110,-23.5 110,-51.5 231,-51.5 231,-23.5 110,-23.5"/>
<text text-anchor="start" x="118" y="-40.3" font-family="Helvetica,sans-Serif" font-size="9.00">std::basic_ios&lt; _CharT,</text>
<text text-anchor="middle" x="170.5" y="-30.3" font-family="Helvetica,sans-Serif" font-size="9.00"> _Traits &gt;</text>
</a>
</g>
</g>
<!-- Node3&#45;&gt;Node2 -->
<g id="edge2" class="edge">
<title>Node3&#45;&gt;Node2</title>
<path fill="none" stroke="midnightblue" d="M241.12,-48.98C249.7,-50.4 258.34,-51.82 266.55,-53.18"/>
<polygon fill="midnightblue" stroke="midnightblue" points="241.54,-45.51 231.1,-47.33 240.4,-52.41 241.54,-45.51"/>
</g>
<!-- Node5 -->
<g id="node5" class="node">
<title>Node5</title>
<g id="a_node5"><a xlink:href="a02746.html" target="_top" xlink:title="Template class basic_ostream.">
<polygon fill="white" stroke="black" points="267,-0.5 267,-28.5 369,-28.5 369,-0.5 267,-0.5"/>
<text text-anchor="start" x="275" y="-17.3" font-family="Helvetica,sans-Serif" font-size="9.00">std::basic_ostream</text>
<text text-anchor="middle" x="318" y="-7.3" font-family="Helvetica,sans-Serif" font-size="9.00">&lt; _CharT, _Traits &gt;</text>
</a>
</g>
</g>
<!-- Node3&#45;&gt;Node5 -->
<g id="edge5" class="edge">
<title>Node3&#45;&gt;Node5</title>
<path fill="none" stroke="midnightblue" d="M241.12,-26.5C249.7,-25.14 258.34,-23.77 266.55,-22.47"/>
<polygon fill="midnightblue" stroke="midnightblue" points="240.43,-23.06 231.1,-28.08 241.52,-29.97 240.43,-23.06"/>
</g>
<!-- Node4 -->
<g id="node4" class="node">
<title>Node4</title>
<g id="a_node4"><a xlink:href="a06134.html" target="_top" xlink:title="The base of the I/O class hierarchy.">
<polygon fill="white" stroke="black" points="0,-28.5 0,-46.5 74,-46.5 74,-28.5 0,-28.5"/>
<text text-anchor="middle" x="37" y="-35.3" font-family="Helvetica,sans-Serif" font-size="9.00">std::ios_base</text>
</a>
</g>
</g>
<!-- Node4&#45;&gt;Node3 -->
<g id="edge3" class="edge">
<title>Node4&#45;&gt;Node3</title>
<path fill="none" stroke="midnightblue" d="M84.42,-37.5C92.65,-37.5 101.32,-37.5 109.86,-37.5"/>
<polygon fill="midnightblue" stroke="midnightblue" points="84.28,-34 74.28,-37.5 84.28,-41 84.28,-34"/>
</g>
<!-- Node5&#45;&gt;Node1 -->
<g id="edge4" class="edge">
<title>Node5&#45;&gt;Node1</title>
<path fill="none" stroke="midnightblue" d="M379.18,-24.6C387.74,-26.04 396.48,-27.51 404.85,-28.91"/>
<polygon fill="midnightblue" stroke="midnightblue" points="379.68,-21.14 369.24,-22.93 378.52,-28.04 379.68,-21.14"/>
</g>
</g>
</svg>
