<?xml version="1.0" encoding="UTF-8" standalone="no"?>
<!DOCTYPE svg PUBLIC "-//W3C//DTD SVG 1.1//EN"
 "http://www.w3.org/Graphics/SVG/1.1/DTD/svg11.dtd">
<!-- Generated by graphviz version 2.50.0 (0)
 -->
<!-- Title: std::ratio_less_equal&lt; _R1, _R2 &gt; Pages: 1 -->
<svg width="124pt" height="112pt"
 viewBox="0.00 0.00 124.00 112.00" xmlns="http://www.w3.org/2000/svg" xmlns:xlink="http://www.w3.org/1999/xlink">
<g id="graph0" class="graph" transform="scale(1 1) rotate(0) translate(4 108)">
<title>std::ratio_less_equal&lt; _R1, _R2 &gt;</title>
<polygon fill="white" stroke="transparent" points="-4,4 -4,-108 120,-108 120,4 -4,4"/>
<!-- Node1 -->
<g id="node1" class="node">
<title>Node1</title>
<g id="a_node1"><a xlink:title="ratio_less_equal">
<polygon fill="#bfbfbf" stroke="black" points="4.5,-0.5 4.5,-28.5 111.5,-28.5 111.5,-0.5 4.5,-0.5"/>
<text text-anchor="start" x="12.5" y="-17.3" font-family="Helvetica,sans-Serif" font-size="9.00">std::ratio_less_equal</text>
<text text-anchor="middle" x="58" y="-7.3" font-family="Helvetica,sans-Serif" font-size="9.00">&lt; _R1, _R2 &gt;</text>
</a>
</g>
</g>
<!-- Node2 -->
<g id="node2" class="node">
<title>Node2</title>
<g id="a_node2"><a xlink:href="a03766.html" target="_top" xlink:title=" ">
<polygon fill="white" stroke="black" points="0,-65.5 0,-103.5 116,-103.5 116,-65.5 0,-65.5"/>
<text text-anchor="start" x="8" y="-92.3" font-family="Helvetica,sans-Serif" font-size="9.00">std::integral_constant</text>
<text text-anchor="start" x="8" y="-82.3" font-family="Helvetica,sans-Serif" font-size="9.00">&lt; bool, !ratio_less&lt; </text>
<text text-anchor="middle" x="58" y="-72.3" font-family="Helvetica,sans-Serif" font-size="9.00">_R2, _R1 &gt;::value &gt;</text>
</a>
</g>
</g>
<!-- Node2&#45;&gt;Node1 -->
<g id="edge1" class="edge">
<title>Node2&#45;&gt;Node1</title>
<path fill="none" stroke="midnightblue" d="M58,-55.01C58,-45.92 58,-36.29 58,-28.81"/>
<polygon fill="midnightblue" stroke="midnightblue" points="54.5,-55.28 58,-65.28 61.5,-55.28 54.5,-55.28"/>
</g>
</g>
</svg>
