<?xml version="1.0" encoding="UTF-8" standalone="no"?>
<!DOCTYPE svg PUBLIC "-//W3C//DTD SVG 1.1//EN"
 "http://www.w3.org/Graphics/SVG/1.1/DTD/svg11.dtd">
<!-- Generated by graphviz version 2.50.0 (0)
 -->
<!-- Title: std::ratio_equal&lt; _R1, _R2 &gt; Pages: 1 -->
<svg width="173pt" height="112pt"
 viewBox="0.00 0.00 173.00 112.00" xmlns="http://www.w3.org/2000/svg" xmlns:xlink="http://www.w3.org/1999/xlink">
<g id="graph0" class="graph" transform="scale(1 1) rotate(0) translate(4 108)">
<title>std::ratio_equal&lt; _R1, _R2 &gt;</title>
<polygon fill="white" stroke="transparent" points="-4,4 -4,-108 169,-108 169,4 -4,4"/>
<!-- Node1 -->
<g id="node1" class="node">
<title>Node1</title>
<g id="a_node1"><a xlink:title="ratio_equal">
<polygon fill="#bfbfbf" stroke="black" points="34,-0.5 34,-28.5 131,-28.5 131,-0.5 34,-0.5"/>
<text text-anchor="start" x="42" y="-17.3" font-family="Helvetica,sans-Serif" font-size="9.00">std::ratio_equal&lt; </text>
<text text-anchor="middle" x="82.5" y="-7.3" font-family="Helvetica,sans-Serif" font-size="9.00">_R1, _R2 &gt;</text>
</a>
</g>
</g>
<!-- Node2 -->
<g id="node2" class="node">
<title>Node2</title>
<g id="a_node2"><a xlink:href="a03766.html" target="_top" xlink:title=" ">
<polygon fill="white" stroke="black" points="0,-65.5 0,-103.5 165,-103.5 165,-65.5 0,-65.5"/>
<text text-anchor="start" x="8" y="-92.3" font-family="Helvetica,sans-Serif" font-size="9.00">std::integral_constant</text>
<text text-anchor="start" x="8" y="-82.3" font-family="Helvetica,sans-Serif" font-size="9.00">&lt; bool, _R1::num==_R2</text>
<text text-anchor="middle" x="82.5" y="-72.3" font-family="Helvetica,sans-Serif" font-size="9.00">::num &amp;&amp;_R1::den==_R2::den &gt;</text>
</a>
</g>
</g>
<!-- Node2&#45;&gt;Node1 -->
<g id="edge1" class="edge">
<title>Node2&#45;&gt;Node1</title>
<path fill="none" stroke="midnightblue" d="M82.5,-55.01C82.5,-45.92 82.5,-36.29 82.5,-28.81"/>
<polygon fill="midnightblue" stroke="midnightblue" points="79,-55.28 82.5,-65.28 86,-55.28 79,-55.28"/>
</g>
</g>
</svg>
