<?xml version="1.0" encoding="UTF-8" standalone="no"?>
<!DOCTYPE svg PUBLIC "-//W3C//DTD SVG 1.1//EN"
 "http://www.w3.org/Graphics/SVG/1.1/DTD/svg11.dtd">
<!-- Generated by graphviz version 2.50.0 (0)
 -->
<!-- Title: std::underflow_error Pages: 1 -->
<svg width="116pt" height="137pt"
 viewBox="0.00 0.00 116.00 137.00" xmlns="http://www.w3.org/2000/svg" xmlns:xlink="http://www.w3.org/1999/xlink">
<g id="graph0" class="graph" transform="scale(1 1) rotate(0) translate(4 133)">
<title>std::underflow_error</title>
<polygon fill="white" stroke="transparent" points="-4,4 -4,-133 112,-133 112,4 -4,4"/>
<!-- Node1 -->
<g id="node1" class="node">
<title>Node1</title>
<g id="a_node1"><a xlink:title=" ">
<polygon fill="#bfbfbf" stroke="black" points="0,-0.5 0,-18.5 108,-18.5 108,-0.5 0,-0.5"/>
<text text-anchor="middle" x="54" y="-7.3" font-family="Helvetica,sans-Serif" font-size="9.00">std::underflow_error</text>
</a>
</g>
</g>
<!-- Node2 -->
<g id="node2" class="node">
<title>Node2</title>
<g id="a_node2"><a xlink:href="a03470.html" target="_top" xlink:title="One of two subclasses of exception.">
<polygon fill="white" stroke="black" points="4.5,-55.5 4.5,-73.5 103.5,-73.5 103.5,-55.5 4.5,-55.5"/>
<text text-anchor="middle" x="54" y="-62.3" font-family="Helvetica,sans-Serif" font-size="9.00">std::runtime_error</text>
</a>
</g>
</g>
<!-- Node2&#45;&gt;Node1 -->
<g id="edge1" class="edge">
<title>Node2&#45;&gt;Node1</title>
<path fill="none" stroke="midnightblue" d="M54,-45.17C54,-36.09 54,-25.59 54,-18.55"/>
<polygon fill="midnightblue" stroke="midnightblue" points="50.5,-45.22 54,-55.22 57.5,-45.22 50.5,-45.22"/>
</g>
<!-- Node3 -->
<g id="node3" class="node">
<title>Node3</title>
<g id="a_node3"><a xlink:href="a05922.html" target="_top" xlink:title="Base class for all library exceptions.">
<polygon fill="white" stroke="black" points="14,-110.5 14,-128.5 94,-128.5 94,-110.5 14,-110.5"/>
<text text-anchor="middle" x="54" y="-117.3" font-family="Helvetica,sans-Serif" font-size="9.00">std::exception</text>
</a>
</g>
</g>
<!-- Node3&#45;&gt;Node2 -->
<g id="edge2" class="edge">
<title>Node3&#45;&gt;Node2</title>
<path fill="none" stroke="midnightblue" d="M54,-100.17C54,-91.09 54,-80.59 54,-73.55"/>
<polygon fill="midnightblue" stroke="midnightblue" points="50.5,-100.22 54,-110.22 57.5,-100.22 50.5,-100.22"/>
</g>
</g>
</svg>
