<?xml version="1.0" encoding="UTF-8" standalone="no"?>
<!DOCTYPE svg PUBLIC "-//W3C//DTD SVG 1.1//EN"
 "http://www.w3.org/Graphics/SVG/1.1/DTD/svg11.dtd">
<!-- Generated by graphviz version 2.50.0 (0)
 -->
<!-- Title: std::logic_error Pages: 1 -->
<svg width="518pt" height="321pt"
 viewBox="0.00 0.00 518.00 321.00" xmlns="http://www.w3.org/2000/svg" xmlns:xlink="http://www.w3.org/1999/xlink">
<g id="graph0" class="graph" transform="scale(1 1) rotate(0) translate(4 317)">
<title>std::logic_error</title>
<polygon fill="white" stroke="transparent" points="-4,4 -4,-317 514,-317 514,4 -4,4"/>
<!-- Node1 -->
<g id="node1" class="node">
<title>Node1</title>
<g id="a_node1"><a xlink:title="One of two subclasses of exception.">
<polygon fill="#bfbfbf" stroke="black" points="116,-111.5 116,-129.5 200,-129.5 200,-111.5 116,-111.5"/>
<text text-anchor="middle" x="158" y="-118.3" font-family="Helvetica,sans-Serif" font-size="9.00">std::logic_error</text>
</a>
</g>
</g>
<!-- Node3 -->
<g id="node3" class="node">
<title>Node3</title>
<g id="a_node3"><a xlink:href="a12842.html" target="_top" xlink:title="Base class for exceptions.">
<polygon fill="white" stroke="black" points="236,-242.5 236,-270.5 355,-270.5 355,-242.5 236,-242.5"/>
<text text-anchor="start" x="244" y="-259.3" font-family="Helvetica,sans-Serif" font-size="9.00">__gnu_pbds::container</text>
<text text-anchor="middle" x="295.5" y="-249.3" font-family="Helvetica,sans-Serif" font-size="9.00">_error</text>
</a>
</g>
</g>
<!-- Node1&#45;&gt;Node3 -->
<g id="edge2" class="edge">
<title>Node1&#45;&gt;Node3</title>
<path fill="none" stroke="midnightblue" d="M167.42,-138.89C179.44,-163.32 203.7,-206.44 236,-232.5 240.7,-236.29 246.08,-239.56 251.63,-242.36"/>
<polygon fill="midnightblue" stroke="midnightblue" points="170.48,-137.19 163.02,-129.66 164.16,-140.2 170.48,-137.19"/>
</g>
<!-- Node7 -->
<g id="node7" class="node">
<title>Node7</title>
<g id="a_node7"><a xlink:href="a03454.html" target="_top" xlink:title=" ">
<polygon fill="white" stroke="black" points="247,-205.5 247,-223.5 344,-223.5 344,-205.5 247,-205.5"/>
<text text-anchor="middle" x="295.5" y="-212.3" font-family="Helvetica,sans-Serif" font-size="9.00">std::domain_error</text>
</a>
</g>
</g>
<!-- Node1&#45;&gt;Node7 -->
<g id="edge6" class="edge">
<title>Node1&#45;&gt;Node7</title>
<path fill="none" stroke="midnightblue" d="M172.55,-137.69C186.72,-154.6 210.42,-180.06 236,-195.5 242.67,-199.53 250.3,-202.8 257.79,-205.43"/>
<polygon fill="midnightblue" stroke="midnightblue" points="175.09,-135.26 166.05,-129.73 169.67,-139.69 175.09,-135.26"/>
</g>
<!-- Node8 -->
<g id="node8" class="node">
<title>Node8</title>
<g id="a_node8"><a xlink:href="a11834.html" target="_top" xlink:title="Exception class thrown when a disengaged optional object is dereferenced.">
<polygon fill="white" stroke="black" points="236.5,-148.5 236.5,-186.5 354.5,-186.5 354.5,-148.5 236.5,-148.5"/>
<text text-anchor="start" x="244.5" y="-175.3" font-family="Helvetica,sans-Serif" font-size="9.00">std::experimental::</text>
<text text-anchor="start" x="244.5" y="-165.3" font-family="Helvetica,sans-Serif" font-size="9.00">fundamentals_v1::bad</text>
<text text-anchor="middle" x="295.5" y="-155.3" font-family="Helvetica,sans-Serif" font-size="9.00">_optional_access</text>
</a>
</g>
</g>
<!-- Node1&#45;&gt;Node8 -->
<g id="edge7" class="edge">
<title>Node1&#45;&gt;Node8</title>
<path fill="none" stroke="midnightblue" d="M194.68,-132.88C208.41,-137.64 224.43,-143.2 239.57,-148.45"/>
<polygon fill="midnightblue" stroke="midnightblue" points="195.72,-129.53 185.13,-129.56 193.43,-136.15 195.72,-129.53"/>
</g>
<!-- Node9 -->
<g id="node9" class="node">
<title>Node9</title>
<g id="a_node9"><a xlink:href="a02526.html" target="_top" xlink:title="Exception type thrown by futures.">
<polygon fill="white" stroke="black" points="250,-111.5 250,-129.5 341,-129.5 341,-111.5 250,-111.5"/>
<text text-anchor="middle" x="295.5" y="-118.3" font-family="Helvetica,sans-Serif" font-size="9.00">std::future_error</text>
</a>
</g>
</g>
<!-- Node1&#45;&gt;Node9 -->
<g id="edge8" class="edge">
<title>Node1&#45;&gt;Node9</title>
<path fill="none" stroke="midnightblue" d="M210.24,-120.5C223.27,-120.5 237.17,-120.5 249.84,-120.5"/>
<polygon fill="midnightblue" stroke="midnightblue" points="210.02,-117 200.02,-120.5 210.02,-124 210.02,-117"/>
</g>
<!-- Node10 -->
<g id="node10" class="node">
<title>Node10</title>
<g id="a_node10"><a xlink:href="a03458.html" target="_top" xlink:title=" ">
<polygon fill="white" stroke="black" points="237.5,-74.5 237.5,-92.5 353.5,-92.5 353.5,-74.5 237.5,-74.5"/>
<text text-anchor="middle" x="295.5" y="-81.3" font-family="Helvetica,sans-Serif" font-size="9.00">std::invalid_argument</text>
</a>
</g>
</g>
<!-- Node1&#45;&gt;Node10 -->
<g id="edge9" class="edge">
<title>Node1&#45;&gt;Node10</title>
<path fill="none" stroke="midnightblue" d="M201.86,-108.8C221.04,-103.56 243.32,-97.47 261.23,-92.59"/>
<polygon fill="midnightblue" stroke="midnightblue" points="200.87,-105.44 192.15,-111.45 202.72,-112.19 200.87,-105.44"/>
</g>
<!-- Node11 -->
<g id="node11" class="node">
<title>Node11</title>
<g id="a_node11"><a xlink:href="a03462.html" target="_top" xlink:title=" ">
<polygon fill="white" stroke="black" points="249.5,-37.5 249.5,-55.5 341.5,-55.5 341.5,-37.5 249.5,-37.5"/>
<text text-anchor="middle" x="295.5" y="-44.3" font-family="Helvetica,sans-Serif" font-size="9.00">std::length_error</text>
</a>
</g>
</g>
<!-- Node1&#45;&gt;Node11 -->
<g id="edge10" class="edge">
<title>Node1&#45;&gt;Node11</title>
<path fill="none" stroke="midnightblue" d="M177.13,-104.63C192.07,-92.25 214.25,-75.38 236,-64.5 243.03,-60.98 250.89,-58 258.5,-55.53"/>
<polygon fill="midnightblue" stroke="midnightblue" points="174.6,-102.19 169.24,-111.32 179.13,-107.53 174.6,-102.19"/>
</g>
<!-- Node12 -->
<g id="node12" class="node">
<title>Node12</title>
<g id="a_node12"><a xlink:href="a03466.html" target="_top" xlink:title=" ">
<polygon fill="white" stroke="black" points="248,-0.5 248,-18.5 343,-18.5 343,-0.5 248,-0.5"/>
<text text-anchor="middle" x="295.5" y="-7.3" font-family="Helvetica,sans-Serif" font-size="9.00">std::out_of_range</text>
</a>
</g>
</g>
<!-- Node1&#45;&gt;Node12 -->
<g id="edge11" class="edge">
<title>Node1&#45;&gt;Node12</title>
<path fill="none" stroke="midnightblue" d="M169.38,-102.47C182.36,-81.49 206.51,-47.2 236,-27.5 241.48,-23.84 247.73,-20.9 254.07,-18.54"/>
<polygon fill="midnightblue" stroke="midnightblue" points="166.21,-100.95 164.08,-111.33 172.22,-104.55 166.21,-100.95"/>
</g>
<!-- Node2 -->
<g id="node2" class="node">
<title>Node2</title>
<g id="a_node2"><a xlink:href="a05922.html" target="_top" xlink:title="Base class for all library exceptions.">
<polygon fill="white" stroke="black" points="0,-111.5 0,-129.5 80,-129.5 80,-111.5 0,-111.5"/>
<text text-anchor="middle" x="40" y="-118.3" font-family="Helvetica,sans-Serif" font-size="9.00">std::exception</text>
</a>
</g>
</g>
<!-- Node2&#45;&gt;Node1 -->
<g id="edge1" class="edge">
<title>Node2&#45;&gt;Node1</title>
<path fill="none" stroke="midnightblue" d="M90.41,-120.5C98.87,-120.5 107.57,-120.5 115.79,-120.5"/>
<polygon fill="midnightblue" stroke="midnightblue" points="90.27,-117 80.27,-120.5 90.27,-124 90.27,-117"/>
</g>
<!-- Node4 -->
<g id="node4" class="node">
<title>Node4</title>
<g id="a_node4"><a xlink:href="a12846.html" target="_top" xlink:title="An entry cannot be inserted into a container object for logical reasons (not, e.g....">
<polygon fill="white" stroke="black" points="399.5,-284.5 399.5,-312.5 501.5,-312.5 501.5,-284.5 399.5,-284.5"/>
<text text-anchor="start" x="407.5" y="-301.3" font-family="Helvetica,sans-Serif" font-size="9.00">__gnu_pbds::insert</text>
<text text-anchor="middle" x="450.5" y="-291.3" font-family="Helvetica,sans-Serif" font-size="9.00">_error</text>
</a>
</g>
</g>
<!-- Node3&#45;&gt;Node4 -->
<g id="edge3" class="edge">
<title>Node3&#45;&gt;Node4</title>
<path fill="none" stroke="midnightblue" d="M357.76,-273.32C371.55,-277.1 386.03,-281.08 399.3,-284.72"/>
<polygon fill="midnightblue" stroke="midnightblue" points="358.44,-269.87 347.87,-270.6 356.59,-276.62 358.44,-269.87"/>
</g>
<!-- Node5 -->
<g id="node5" class="node">
<title>Node5</title>
<g id="a_node5"><a xlink:href="a12850.html" target="_top" xlink:title="A join cannot be performed logical reasons (i.e., the ranges of the two container objects being joine...">
<polygon fill="white" stroke="black" points="391,-247.5 391,-265.5 510,-265.5 510,-247.5 391,-247.5"/>
<text text-anchor="middle" x="450.5" y="-254.3" font-family="Helvetica,sans-Serif" font-size="9.00">__gnu_pbds::join_error</text>
</a>
</g>
</g>
<!-- Node3&#45;&gt;Node5 -->
<g id="edge4" class="edge">
<title>Node3&#45;&gt;Node5</title>
<path fill="none" stroke="midnightblue" d="M365.49,-256.5C373.99,-256.5 382.62,-256.5 390.94,-256.5"/>
<polygon fill="midnightblue" stroke="midnightblue" points="365.22,-253 355.22,-256.5 365.22,-260 365.22,-253"/>
</g>
<!-- Node6 -->
<g id="node6" class="node">
<title>Node6</title>
<g id="a_node6"><a xlink:href="a12854.html" target="_top" xlink:title="A container cannot be resized.">
<polygon fill="white" stroke="black" points="399.5,-200.5 399.5,-228.5 501.5,-228.5 501.5,-200.5 399.5,-200.5"/>
<text text-anchor="start" x="407.5" y="-217.3" font-family="Helvetica,sans-Serif" font-size="9.00">__gnu_pbds::resize</text>
<text text-anchor="middle" x="450.5" y="-207.3" font-family="Helvetica,sans-Serif" font-size="9.00">_error</text>
</a>
</g>
</g>
<!-- Node3&#45;&gt;Node6 -->
<g id="edge5" class="edge">
<title>Node3&#45;&gt;Node6</title>
<path fill="none" stroke="midnightblue" d="M357.76,-239.68C371.55,-235.9 386.03,-231.92 399.3,-228.28"/>
<polygon fill="midnightblue" stroke="midnightblue" points="356.59,-236.38 347.87,-242.4 358.44,-243.13 356.59,-236.38"/>
</g>
</g>
</svg>
