<?xml version="1.0" encoding="UTF-8" standalone="no"?>
<!DOCTYPE svg PUBLIC "-//W3C//DTD SVG 1.1//EN"
 "http://www.w3.org/Graphics/SVG/1.1/DTD/svg11.dtd">
<!-- Generated by graphviz version 2.50.0 (0)
 -->
<!-- Title: std::runtime_error Pages: 1 -->
<svg width="559pt" height="175pt"
 viewBox="0.00 0.00 559.00 175.00" xmlns="http://www.w3.org/2000/svg" xmlns:xlink="http://www.w3.org/1999/xlink">
<g id="graph0" class="graph" transform="scale(1 1) rotate(0) translate(4 171)">
<title>std::runtime_error</title>
<polygon fill="white" stroke="transparent" points="-4,4 -4,-171 555,-171 555,4 -4,4"/>
<!-- Node1 -->
<g id="node1" class="node">
<title>Node1</title>
<g id="a_node1"><a xlink:title="One of two subclasses of exception.">
<polygon fill="#bfbfbf" stroke="black" points="116,-74.5 116,-92.5 215,-92.5 215,-74.5 116,-74.5"/>
<text text-anchor="middle" x="165.5" y="-81.3" font-family="Helvetica,sans-Serif" font-size="9.00">std::runtime_error</text>
</a>
</g>
</g>
<!-- Node3 -->
<g id="node3" class="node">
<title>Node3</title>
<g id="a_node3"><a xlink:href="a03478.html" target="_top" xlink:title=" ">
<polygon fill="white" stroke="black" points="254.5,-148.5 254.5,-166.5 355.5,-166.5 355.5,-148.5 254.5,-148.5"/>
<text text-anchor="middle" x="305" y="-155.3" font-family="Helvetica,sans-Serif" font-size="9.00">std::overflow_error</text>
</a>
</g>
</g>
<!-- Node1&#45;&gt;Node3 -->
<g id="edge2" class="edge">
<title>Node1&#45;&gt;Node3</title>
<path fill="none" stroke="midnightblue" d="M186.56,-98.95C203.14,-111.18 227.67,-128.05 251,-139.5 257.89,-142.88 265.58,-145.89 272.91,-148.44"/>
<polygon fill="midnightblue" stroke="midnightblue" points="188.32,-95.89 178.22,-92.7 184.12,-101.49 188.32,-95.89"/>
</g>
<!-- Node4 -->
<g id="node4" class="node">
<title>Node4</title>
<g id="a_node4"><a xlink:href="a03474.html" target="_top" xlink:title=" ">
<polygon fill="white" stroke="black" points="260.5,-111.5 260.5,-129.5 349.5,-129.5 349.5,-111.5 260.5,-111.5"/>
<text text-anchor="middle" x="305" y="-118.3" font-family="Helvetica,sans-Serif" font-size="9.00">std::range_error</text>
</a>
</g>
</g>
<!-- Node1&#45;&gt;Node4 -->
<g id="edge3" class="edge">
<title>Node1&#45;&gt;Node4</title>
<path fill="none" stroke="midnightblue" d="M209.99,-95.2C229.46,-100.44 252.07,-106.53 270.23,-111.41"/>
<polygon fill="midnightblue" stroke="midnightblue" points="210.7,-91.77 200.14,-92.55 208.88,-98.53 210.7,-91.77"/>
</g>
<!-- Node5 -->
<g id="node5" class="node">
<title>Node5</title>
<g id="a_node5"><a xlink:href="a07622.html" target="_top" xlink:title="A regular expression exception class.">
<polygon fill="white" stroke="black" points="260.5,-74.5 260.5,-92.5 349.5,-92.5 349.5,-74.5 260.5,-74.5"/>
<text text-anchor="middle" x="305" y="-81.3" font-family="Helvetica,sans-Serif" font-size="9.00">std::regex_error</text>
</a>
</g>
</g>
<!-- Node1&#45;&gt;Node5 -->
<g id="edge4" class="edge">
<title>Node1&#45;&gt;Node5</title>
<path fill="none" stroke="midnightblue" d="M225.5,-83.5C237.19,-83.5 249.26,-83.5 260.33,-83.5"/>
<polygon fill="midnightblue" stroke="midnightblue" points="225.36,-80 215.36,-83.5 225.36,-87 225.36,-80"/>
</g>
<!-- Node6 -->
<g id="node6" class="node">
<title>Node6</title>
<g id="a_node6"><a xlink:href="a03582.html" target="_top" xlink:title="An exception type that includes an error_code value.">
<polygon fill="white" stroke="black" points="257.5,-37.5 257.5,-55.5 352.5,-55.5 352.5,-37.5 257.5,-37.5"/>
<text text-anchor="middle" x="305" y="-44.3" font-family="Helvetica,sans-Serif" font-size="9.00">std::system_error</text>
</a>
</g>
</g>
<!-- Node1&#45;&gt;Node6 -->
<g id="edge5" class="edge">
<title>Node1&#45;&gt;Node6</title>
<path fill="none" stroke="midnightblue" d="M209.99,-71.8C229.46,-66.56 252.07,-60.47 270.23,-55.59"/>
<polygon fill="midnightblue" stroke="midnightblue" points="208.88,-68.47 200.14,-74.45 210.7,-75.23 208.88,-68.47"/>
</g>
<!-- Node9 -->
<g id="node9" class="node">
<title>Node9</title>
<g id="a_node9"><a xlink:href="a03482.html" target="_top" xlink:title=" ">
<polygon fill="white" stroke="black" points="251,-0.5 251,-18.5 359,-18.5 359,-0.5 251,-0.5"/>
<text text-anchor="middle" x="305" y="-7.3" font-family="Helvetica,sans-Serif" font-size="9.00">std::underflow_error</text>
</a>
</g>
</g>
<!-- Node1&#45;&gt;Node9 -->
<g id="edge8" class="edge">
<title>Node1&#45;&gt;Node9</title>
<path fill="none" stroke="midnightblue" d="M186.56,-68.05C203.14,-55.82 227.67,-38.95 251,-27.5 257.89,-24.12 265.58,-21.11 272.91,-18.56"/>
<polygon fill="midnightblue" stroke="midnightblue" points="184.12,-65.51 178.22,-74.3 188.32,-71.11 184.12,-65.51"/>
</g>
<!-- Node2 -->
<g id="node2" class="node">
<title>Node2</title>
<g id="a_node2"><a xlink:href="a05922.html" target="_top" xlink:title="Base class for all library exceptions.">
<polygon fill="white" stroke="black" points="0,-74.5 0,-92.5 80,-92.5 80,-74.5 0,-74.5"/>
<text text-anchor="middle" x="40" y="-81.3" font-family="Helvetica,sans-Serif" font-size="9.00">std::exception</text>
</a>
</g>
</g>
<!-- Node2&#45;&gt;Node1 -->
<g id="edge1" class="edge">
<title>Node2&#45;&gt;Node1</title>
<path fill="none" stroke="midnightblue" d="M90.13,-83.5C98.55,-83.5 107.28,-83.5 115.69,-83.5"/>
<polygon fill="midnightblue" stroke="midnightblue" points="90.08,-80 80.08,-83.5 90.08,-87 90.08,-80"/>
</g>
<!-- Node7 -->
<g id="node7" class="node">
<title>Node7</title>
<g id="a_node7"><a xlink:href="a10574.html" target="_top" xlink:title="Exception type thrown by the Filesystem TS library.">
<polygon fill="white" stroke="black" points="395,-55.5 395,-83.5 551,-83.5 551,-55.5 395,-55.5"/>
<text text-anchor="start" x="403" y="-72.3" font-family="Helvetica,sans-Serif" font-size="9.00">std::experimental::</text>
<text text-anchor="middle" x="473" y="-62.3" font-family="Helvetica,sans-Serif" font-size="9.00">filesystem::v1::filesystem_error</text>
</a>
</g>
</g>
<!-- Node6&#45;&gt;Node7 -->
<g id="edge6" class="edge">
<title>Node6&#45;&gt;Node7</title>
<path fill="none" stroke="midnightblue" d="M362.79,-54.37C373.13,-55.8 384.07,-57.32 394.88,-58.81"/>
<polygon fill="midnightblue" stroke="midnightblue" points="363.07,-50.87 352.68,-52.97 362.11,-57.81 363.07,-50.87"/>
</g>
<!-- Node8 -->
<g id="node8" class="node">
<title>Node8</title>
<g id="a_node8"><a xlink:href="a05994.html" target="_top" xlink:title="Exception type thrown by the Filesystem library.">
<polygon fill="white" stroke="black" points="406.5,-8.5 406.5,-36.5 539.5,-36.5 539.5,-8.5 406.5,-8.5"/>
<text text-anchor="start" x="414.5" y="-25.3" font-family="Helvetica,sans-Serif" font-size="9.00">std::filesystem::filesystem</text>
<text text-anchor="middle" x="473" y="-15.3" font-family="Helvetica,sans-Serif" font-size="9.00">_error</text>
</a>
</g>
</g>
<!-- Node6&#45;&gt;Node8 -->
<g id="edge7" class="edge">
<title>Node6&#45;&gt;Node8</title>
<path fill="none" stroke="midnightblue" d="M362.71,-38.3C376.79,-36.26 392,-34.07 406.47,-31.97"/>
<polygon fill="midnightblue" stroke="midnightblue" points="362.08,-34.86 352.68,-39.75 363.08,-41.78 362.08,-34.86"/>
</g>
</g>
</svg>
