<?xml version="1.0" encoding="UTF-8" standalone="no"?>
<!DOCTYPE svg PUBLIC "-//W3C//DTD SVG 1.1//EN"
 "http://www.w3.org/Graphics/SVG/1.1/DTD/svg11.dtd">
<!-- Generated by graphviz version 2.50.0 (0)
 -->
<!-- Title: std::system_error Pages: 1 -->
<svg width="546pt" height="84pt"
 viewBox="0.00 0.00 546.00 84.00" xmlns="http://www.w3.org/2000/svg" xmlns:xlink="http://www.w3.org/1999/xlink">
<g id="graph0" class="graph" transform="scale(1 1) rotate(0) translate(4 80)">
<title>std::system_error</title>
<polygon fill="white" stroke="transparent" points="-4,4 -4,-80 542,-80 542,4 -4,4"/>
<!-- Node1 -->
<g id="node1" class="node">
<title>Node1</title>
<g id="a_node1"><a xlink:title="An exception type that includes an error_code value.">
<polygon fill="#bfbfbf" stroke="black" points="251,-28.5 251,-46.5 346,-46.5 346,-28.5 251,-28.5"/>
<text text-anchor="middle" x="298.5" y="-35.3" font-family="Helvetica,sans-Serif" font-size="9.00">std::system_error</text>
</a>
</g>
</g>
<!-- Node4 -->
<g id="node4" class="node">
<title>Node4</title>
<g id="a_node4"><a xlink:href="a10574.html" target="_top" xlink:title="Exception type thrown by the Filesystem TS library.">
<polygon fill="white" stroke="black" points="382,-47.5 382,-75.5 538,-75.5 538,-47.5 382,-47.5"/>
<text text-anchor="start" x="390" y="-64.3" font-family="Helvetica,sans-Serif" font-size="9.00">std::experimental::</text>
<text text-anchor="middle" x="460" y="-54.3" font-family="Helvetica,sans-Serif" font-size="9.00">filesystem::v1::filesystem_error</text>
</a>
</g>
</g>
<!-- Node1&#45;&gt;Node4 -->
<g id="edge3" class="edge">
<title>Node1&#45;&gt;Node4</title>
<path fill="none" stroke="midnightblue" d="M356.03,-46.01C364.38,-47.26 373.09,-48.57 381.77,-49.88"/>
<polygon fill="midnightblue" stroke="midnightblue" points="356.47,-42.53 346.06,-44.51 355.43,-49.46 356.47,-42.53"/>
</g>
<!-- Node5 -->
<g id="node5" class="node">
<title>Node5</title>
<g id="a_node5"><a xlink:href="a05994.html" target="_top" xlink:title="Exception type thrown by the Filesystem library.">
<polygon fill="white" stroke="black" points="393.5,-0.5 393.5,-28.5 526.5,-28.5 526.5,-0.5 393.5,-0.5"/>
<text text-anchor="start" x="401.5" y="-17.3" font-family="Helvetica,sans-Serif" font-size="9.00">std::filesystem::filesystem</text>
<text text-anchor="middle" x="460" y="-7.3" font-family="Helvetica,sans-Serif" font-size="9.00">_error</text>
</a>
</g>
</g>
<!-- Node1&#45;&gt;Node5 -->
<g id="edge4" class="edge">
<title>Node1&#45;&gt;Node5</title>
<path fill="none" stroke="midnightblue" d="M356.02,-29.35C368.12,-27.61 381,-25.75 393.41,-23.96"/>
<polygon fill="midnightblue" stroke="midnightblue" points="355.46,-25.89 346.06,-30.79 356.46,-32.82 355.46,-25.89"/>
</g>
<!-- Node2 -->
<g id="node2" class="node">
<title>Node2</title>
<g id="a_node2"><a xlink:href="a03470.html" target="_top" xlink:title="One of two subclasses of exception.">
<polygon fill="white" stroke="black" points="116,-28.5 116,-46.5 215,-46.5 215,-28.5 116,-28.5"/>
<text text-anchor="middle" x="165.5" y="-35.3" font-family="Helvetica,sans-Serif" font-size="9.00">std::runtime_error</text>
</a>
</g>
</g>
<!-- Node2&#45;&gt;Node1 -->
<g id="edge1" class="edge">
<title>Node2&#45;&gt;Node1</title>
<path fill="none" stroke="midnightblue" d="M225.52,-37.5C234.01,-37.5 242.65,-37.5 250.85,-37.5"/>
<polygon fill="midnightblue" stroke="midnightblue" points="225.28,-34 215.28,-37.5 225.28,-41 225.28,-34"/>
</g>
<!-- Node3 -->
<g id="node3" class="node">
<title>Node3</title>
<g id="a_node3"><a xlink:href="a05922.html" target="_top" xlink:title="Base class for all library exceptions.">
<polygon fill="white" stroke="black" points="0,-28.5 0,-46.5 80,-46.5 80,-28.5 0,-28.5"/>
<text text-anchor="middle" x="40" y="-35.3" font-family="Helvetica,sans-Serif" font-size="9.00">std::exception</text>
</a>
</g>
</g>
<!-- Node3&#45;&gt;Node2 -->
<g id="edge2" class="edge">
<title>Node3&#45;&gt;Node2</title>
<path fill="none" stroke="midnightblue" d="M90.13,-37.5C98.55,-37.5 107.28,-37.5 115.69,-37.5"/>
<polygon fill="midnightblue" stroke="midnightblue" points="90.08,-34 80.08,-37.5 90.08,-41 90.08,-34"/>
</g>
</g>
</svg>
