<?xml version="1.0" encoding="UTF-8" standalone="no"?>
<!DOCTYPE svg PUBLIC "-//W3C//DTD SVG 1.1//EN"
 "http://www.w3.org/Graphics/SVG/1.1/DTD/svg11.dtd">
<!-- Generated by graphviz version 2.50.0 (0)
 -->
<!-- Title: std::integral_constant&lt; _Tp, __v &gt; Pages: 1 -->
<svg width="458pt" height="1346pt"
 viewBox="0.00 0.00 458.00 1346.00" xmlns="http://www.w3.org/2000/svg" xmlns:xlink="http://www.w3.org/1999/xlink">
<g id="graph0" class="graph" transform="scale(1 1) rotate(0) translate(4 1342)">
<title>std::integral_constant&lt; _Tp, __v &gt;</title>
<polygon fill="white" stroke="transparent" points="-4,4 -4,-1342 454,-1342 454,4 -4,4"/>
<!-- Node1 -->
<g id="node1" class="node">
<title>Node1</title>
<g id="a_node1"><a xlink:title="integral_constant">
<polygon fill="#bfbfbf" stroke="black" points="0,-622.5 0,-650.5 116,-650.5 116,-622.5 0,-622.5"/>
<text text-anchor="start" x="8" y="-639.3" font-family="Helvetica,sans-Serif" font-size="9.00">std::integral_constant</text>
<text text-anchor="middle" x="58" y="-629.3" font-family="Helvetica,sans-Serif" font-size="9.00">&lt; _Tp, __v &gt;</text>
</a>
</g>
</g>
<!-- Node2 -->
<g id="node2" class="node">
<title>Node2</title>
<g id="a_node2"><a xlink:href="a04250.html" target="_top" xlink:title=" ">
<polygon fill="white" stroke="black" points="171.5,-1289.5 171.5,-1337.5 299.5,-1337.5 299.5,-1289.5 171.5,-1289.5"/>
<text text-anchor="start" x="179.5" y="-1326.3" font-family="Helvetica,sans-Serif" font-size="9.00">std::is_base_of&lt; random</text>
<text text-anchor="start" x="179.5" y="-1316.3" font-family="Helvetica,sans-Serif" font-size="9.00">_access_iterator_tag,</text>
<text text-anchor="start" x="179.5" y="-1306.3" font-family="Helvetica,sans-Serif" font-size="9.00"> __iterator_category_t</text>
<text text-anchor="middle" x="235.5" y="-1296.3" font-family="Helvetica,sans-Serif" font-size="9.00">&lt; _It &gt; &gt;</text>
</a>
</g>
</g>
<!-- Node1&#45;&gt;Node2 -->
<g id="edge1" class="edge">
<title>Node1&#45;&gt;Node2</title>
<path fill="none" stroke="midnightblue" d="M59.35,-660.74C61.33,-765.87 74.05,-1181.47 152,-1280.5 157.25,-1287.17 164.05,-1292.49 171.49,-1296.74"/>
<polygon fill="midnightblue" stroke="midnightblue" points="62.85,-660.45 59.17,-650.52 55.85,-660.58 62.85,-660.45"/>
</g>
<!-- Node3 -->
<g id="node3" class="node">
<title>Node3</title>
<g id="a_node3"><a xlink:href="a04518.html" target="_top" xlink:title="has_unique_object_representations">
<polygon fill="white" stroke="black" points="171.5,-1242.5 171.5,-1270.5 299.5,-1270.5 299.5,-1242.5 171.5,-1242.5"/>
<text text-anchor="start" x="179.5" y="-1259.3" font-family="Helvetica,sans-Serif" font-size="9.00">std::has_unique_object</text>
<text text-anchor="middle" x="235.5" y="-1249.3" font-family="Helvetica,sans-Serif" font-size="9.00">_representations&lt; _Tp &gt;</text>
</a>
</g>
</g>
<!-- Node1&#45;&gt;Node3 -->
<g id="edge2" class="edge">
<title>Node1&#45;&gt;Node3</title>
<path fill="none" stroke="midnightblue" d="M59.39,-660.78C61.52,-761.67 74.66,-1146.51 152,-1233.5 157.33,-1239.5 164.09,-1243.99 171.43,-1247.35"/>
<polygon fill="midnightblue" stroke="midnightblue" points="62.89,-660.6 59.2,-650.67 55.89,-660.73 62.89,-660.6"/>
</g>
<!-- Node4 -->
<g id="node4" class="node">
<title>Node4</title>
<g id="a_node4"><a xlink:href="a04522.html" target="_top" xlink:title="is_aggregate">
<polygon fill="white" stroke="black" points="184.5,-1195.5 184.5,-1223.5 286.5,-1223.5 286.5,-1195.5 184.5,-1195.5"/>
<text text-anchor="start" x="192.5" y="-1212.3" font-family="Helvetica,sans-Serif" font-size="9.00">std::is_aggregate&lt;</text>
<text text-anchor="middle" x="235.5" y="-1202.3" font-family="Helvetica,sans-Serif" font-size="9.00"> _Tp &gt;</text>
</a>
</g>
</g>
<!-- Node1&#45;&gt;Node4 -->
<g id="edge3" class="edge">
<title>Node1&#45;&gt;Node4</title>
<path fill="none" stroke="midnightblue" d="M59.75,-660.69C63.18,-756.4 80.54,-1107.16 152,-1186.5 160.36,-1195.78 172.11,-1201.45 184.14,-1204.87"/>
<polygon fill="midnightblue" stroke="midnightblue" points="63.24,-660.43 59.4,-650.56 56.24,-660.67 63.24,-660.43"/>
</g>
<!-- Node5 -->
<g id="node5" class="node">
<title>Node5</title>
<g id="a_node5"><a xlink:href="a03818.html" target="_top" xlink:title="is_array">
<polygon fill="white" stroke="black" points="166.5,-1158.5 166.5,-1176.5 304.5,-1176.5 304.5,-1158.5 166.5,-1158.5"/>
<text text-anchor="middle" x="235.5" y="-1165.3" font-family="Helvetica,sans-Serif" font-size="9.00">std::is_array&lt; typename &gt;</text>
</a>
</g>
</g>
<!-- Node1&#45;&gt;Node5 -->
<g id="edge4" class="edge">
<title>Node1&#45;&gt;Node5</title>
<path fill="none" stroke="midnightblue" d="M59.95,-660.96C64.03,-753.18 83.14,-1078.15 152,-1149.5 156.07,-1153.72 160.89,-1157.06 166.11,-1159.69"/>
<polygon fill="midnightblue" stroke="midnightblue" points="63.44,-660.75 59.52,-650.9 56.45,-661.04 63.44,-660.75"/>
</g>
<!-- Node6 -->
<g id="node6" class="node">
<title>Node6</title>
<g id="a_node6"><a xlink:href="a02382.html" target="_top" xlink:title="Trait that identifies a bind expression.">
<polygon fill="white" stroke="black" points="175,-1111.5 175,-1139.5 296,-1139.5 296,-1111.5 175,-1111.5"/>
<text text-anchor="start" x="183" y="-1128.3" font-family="Helvetica,sans-Serif" font-size="9.00">std::is_bind_expression</text>
<text text-anchor="middle" x="235.5" y="-1118.3" font-family="Helvetica,sans-Serif" font-size="9.00">&lt; _Tp &gt;</text>
</a>
</g>
</g>
<!-- Node1&#45;&gt;Node6 -->
<g id="edge5" class="edge">
<title>Node1&#45;&gt;Node6</title>
<path fill="none" stroke="midnightblue" d="M60.58,-661.1C66.63,-747.71 91.12,-1036.88 152,-1102.5 158.27,-1109.26 166.34,-1114.09 174.98,-1117.54"/>
<polygon fill="midnightblue" stroke="midnightblue" points="64.06,-660.65 59.89,-650.91 57.07,-661.12 64.06,-660.65"/>
</g>
<!-- Node7 -->
<g id="node7" class="node">
<title>Node7</title>
<g id="a_node7"><a xlink:href="a02414.html" target="_top" xlink:title="Class template _Bind is always a bind expression.">
<polygon fill="white" stroke="black" points="169.5,-1064.5 169.5,-1092.5 301.5,-1092.5 301.5,-1064.5 169.5,-1064.5"/>
<text text-anchor="start" x="177.5" y="-1081.3" font-family="Helvetica,sans-Serif" font-size="9.00">std::is_bind_expression</text>
<text text-anchor="middle" x="235.5" y="-1071.3" font-family="Helvetica,sans-Serif" font-size="9.00">&lt; _Bind&lt; _Signature &gt; &gt;</text>
</a>
</g>
</g>
<!-- Node1&#45;&gt;Node7 -->
<g id="edge6" class="edge">
<title>Node1&#45;&gt;Node7</title>
<path fill="none" stroke="midnightblue" d="M61.16,-660.95C68.78,-741.6 96.92,-997.39 152,-1055.5 156.91,-1060.68 162.88,-1064.73 169.34,-1067.88"/>
<polygon fill="midnightblue" stroke="midnightblue" points="64.63,-660.4 60.22,-650.77 57.66,-661.05 64.63,-660.4"/>
</g>
<!-- Node8 -->
<g id="node8" class="node">
<title>Node8</title>
<g id="a_node8"><a xlink:href="a02430.html" target="_top" xlink:title="Class template _Bind_result is always a bind expression.">
<polygon fill="white" stroke="black" points="171.5,-1007.5 171.5,-1045.5 299.5,-1045.5 299.5,-1007.5 171.5,-1007.5"/>
<text text-anchor="start" x="179.5" y="-1034.3" font-family="Helvetica,sans-Serif" font-size="9.00">std::is_bind_expression</text>
<text text-anchor="start" x="179.5" y="-1024.3" font-family="Helvetica,sans-Serif" font-size="9.00">&lt; _Bind_result&lt; _Result,</text>
<text text-anchor="middle" x="235.5" y="-1014.3" font-family="Helvetica,sans-Serif" font-size="9.00"> _Signature &gt; &gt;</text>
</a>
</g>
</g>
<!-- Node1&#45;&gt;Node8 -->
<g id="edge7" class="edge">
<title>Node1&#45;&gt;Node8</title>
<path fill="none" stroke="midnightblue" d="M62.21,-660.81C72.26,-733.64 105.32,-948.14 152,-998.5 157.45,-1004.38 164.18,-1009.02 171.42,-1012.69"/>
<polygon fill="midnightblue" stroke="midnightblue" points="65.65,-660.19 60.84,-650.75 58.72,-661.13 65.65,-660.19"/>
</g>
<!-- Node9 -->
<g id="node9" class="node">
<title>Node9</title>
<g id="a_node9"><a xlink:href="a02418.html" target="_top" xlink:title="Class template _Bind is always a bind expression.">
<polygon fill="white" stroke="black" points="155.5,-960.5 155.5,-988.5 315.5,-988.5 315.5,-960.5 155.5,-960.5"/>
<text text-anchor="start" x="163.5" y="-977.3" font-family="Helvetica,sans-Serif" font-size="9.00">std::is_bind_expression</text>
<text text-anchor="middle" x="235.5" y="-967.3" font-family="Helvetica,sans-Serif" font-size="9.00">&lt; const _Bind&lt; _Signature &gt; &gt;</text>
</a>
</g>
</g>
<!-- Node1&#45;&gt;Node9 -->
<g id="edge8" class="edge">
<title>Node1&#45;&gt;Node9</title>
<path fill="none" stroke="midnightblue" d="M58.7,-661.04C59.38,-719.91 69.56,-870.31 152,-951.5 155.5,-954.94 159.46,-957.88 163.72,-960.39"/>
<polygon fill="midnightblue" stroke="midnightblue" points="62.2,-660.83 58.67,-650.84 55.2,-660.85 62.2,-660.83"/>
</g>
<!-- Node10 -->
<g id="node10" class="node">
<title>Node10</title>
<g id="a_node10"><a xlink:href="a02434.html" target="_top" xlink:title="Class template _Bind_result is always a bind expression.">
<polygon fill="white" stroke="black" points="171.5,-903.5 171.5,-941.5 299.5,-941.5 299.5,-903.5 171.5,-903.5"/>
<text text-anchor="start" x="179.5" y="-930.3" font-family="Helvetica,sans-Serif" font-size="9.00">std::is_bind_expression</text>
<text text-anchor="start" x="179.5" y="-920.3" font-family="Helvetica,sans-Serif" font-size="9.00">&lt; const _Bind_result&lt;</text>
<text text-anchor="middle" x="235.5" y="-910.3" font-family="Helvetica,sans-Serif" font-size="9.00"> _Result, _Signature &gt; &gt;</text>
</a>
</g>
</g>
<!-- Node1&#45;&gt;Node10 -->
<g id="edge9" class="edge">
<title>Node1&#45;&gt;Node10</title>
<path fill="none" stroke="midnightblue" d="M60.87,-660.79C66.06,-711.38 85.04,-828.79 152,-894.5 157.51,-899.9 164.09,-904.26 171.11,-907.79"/>
<polygon fill="midnightblue" stroke="midnightblue" points="64.35,-660.42 59.94,-650.78 57.38,-661.06 64.35,-660.42"/>
</g>
<!-- Node11 -->
<g id="node11" class="node">
<title>Node11</title>
<g id="a_node11"><a xlink:href="a02426.html" target="_top" xlink:title="Class template _Bind is always a bind expression.">
<polygon fill="white" stroke="black" points="175,-846.5 175,-884.5 296,-884.5 296,-846.5 175,-846.5"/>
<text text-anchor="start" x="183" y="-873.3" font-family="Helvetica,sans-Serif" font-size="9.00">std::is_bind_expression</text>
<text text-anchor="start" x="183" y="-863.3" font-family="Helvetica,sans-Serif" font-size="9.00">&lt; const volatile _Bind</text>
<text text-anchor="middle" x="235.5" y="-853.3" font-family="Helvetica,sans-Serif" font-size="9.00">&lt; _Signature &gt; &gt;</text>
</a>
</g>
</g>
<!-- Node1&#45;&gt;Node11 -->
<g id="edge10" class="edge">
<title>Node1&#45;&gt;Node11</title>
<path fill="none" stroke="midnightblue" d="M63.67,-660.58C73.01,-702.47 97.95,-788.9 152,-837.5 158.64,-843.47 166.6,-848.17 174.92,-851.88"/>
<polygon fill="midnightblue" stroke="midnightblue" points="67.07,-659.77 61.57,-650.71 60.22,-661.22 67.07,-659.77"/>
</g>
<!-- Node12 -->
<g id="node12" class="node">
<title>Node12</title>
<g id="a_node12"><a xlink:href="a02442.html" target="_top" xlink:title="Class template _Bind_result is always a bind expression.">
<polygon fill="white" stroke="black" points="153,-789.5 153,-827.5 318,-827.5 318,-789.5 153,-789.5"/>
<text text-anchor="start" x="161" y="-816.3" font-family="Helvetica,sans-Serif" font-size="9.00">std::is_bind_expression</text>
<text text-anchor="start" x="161" y="-806.3" font-family="Helvetica,sans-Serif" font-size="9.00">&lt; const volatile _Bind</text>
<text text-anchor="middle" x="235.5" y="-796.3" font-family="Helvetica,sans-Serif" font-size="9.00">_result&lt; _Result, _Signature &gt; &gt;</text>
</a>
</g>
</g>
<!-- Node1&#45;&gt;Node12 -->
<g id="edge11" class="edge">
<title>Node1&#45;&gt;Node12</title>
<path fill="none" stroke="midnightblue" d="M68.27,-660C81.95,-691.76 110.49,-748.13 152,-780.5 156.29,-783.85 161.01,-786.81 165.95,-789.42"/>
<polygon fill="midnightblue" stroke="midnightblue" points="71.43,-658.49 64.35,-650.61 64.97,-661.19 71.43,-658.49"/>
</g>
<!-- Node13 -->
<g id="node13" class="node">
<title>Node13</title>
<g id="a_node13"><a xlink:href="a02422.html" target="_top" xlink:title="Class template _Bind is always a bind expression.">
<polygon fill="white" stroke="black" points="152,-742.5 152,-770.5 319,-770.5 319,-742.5 152,-742.5"/>
<text text-anchor="start" x="160" y="-759.3" font-family="Helvetica,sans-Serif" font-size="9.00">std::is_bind_expression</text>
<text text-anchor="middle" x="235.5" y="-749.3" font-family="Helvetica,sans-Serif" font-size="9.00">&lt; volatile _Bind&lt; _Signature &gt; &gt;</text>
</a>
</g>
</g>
<!-- Node1&#45;&gt;Node13 -->
<g id="edge12" class="edge">
<title>Node1&#45;&gt;Node13</title>
<path fill="none" stroke="midnightblue" d="M74.7,-658.83C91.41,-680.96 119.83,-714.25 152,-733.5 157.74,-736.94 164.01,-739.87 170.45,-742.38"/>
<polygon fill="midnightblue" stroke="midnightblue" points="77.44,-656.64 68.69,-650.66 71.8,-660.79 77.44,-656.64"/>
</g>
<!-- Node14 -->
<g id="node14" class="node">
<title>Node14</title>
<g id="a_node14"><a xlink:href="a02438.html" target="_top" xlink:title="Class template _Bind_result is always a bind expression.">
<polygon fill="white" stroke="black" points="168,-685.5 168,-723.5 303,-723.5 303,-685.5 168,-685.5"/>
<text text-anchor="start" x="176" y="-712.3" font-family="Helvetica,sans-Serif" font-size="9.00">std::is_bind_expression</text>
<text text-anchor="start" x="176" y="-702.3" font-family="Helvetica,sans-Serif" font-size="9.00">&lt; volatile _Bind_result</text>
<text text-anchor="middle" x="235.5" y="-692.3" font-family="Helvetica,sans-Serif" font-size="9.00">&lt; _Result, _Signature &gt; &gt;</text>
</a>
</g>
</g>
<!-- Node1&#45;&gt;Node14 -->
<g id="edge13" class="edge">
<title>Node1&#45;&gt;Node14</title>
<path fill="none" stroke="midnightblue" d="M99.38,-654.69C115.62,-661.79 134.58,-669.81 152,-676.5 159.91,-679.54 168.3,-682.58 176.59,-685.49"/>
<polygon fill="midnightblue" stroke="midnightblue" points="100.73,-651.46 90.17,-650.64 97.91,-657.87 100.73,-651.46"/>
</g>
<!-- Node15 -->
<g id="node15" class="node">
<title>Node15</title>
<g id="a_node15"><a xlink:href="a03806.html" target="_top" xlink:title="is_const">
<polygon fill="white" stroke="black" points="165.5,-648.5 165.5,-666.5 305.5,-666.5 305.5,-648.5 165.5,-648.5"/>
<text text-anchor="middle" x="235.5" y="-655.3" font-family="Helvetica,sans-Serif" font-size="9.00">std::is_const&lt; typename &gt;</text>
</a>
</g>
</g>
<!-- Node1&#45;&gt;Node15 -->
<g id="edge14" class="edge">
<title>Node1&#45;&gt;Node15</title>
<path fill="none" stroke="midnightblue" d="M126.51,-644.58C139.21,-646.1 152.52,-647.69 165.28,-649.22"/>
<polygon fill="midnightblue" stroke="midnightblue" points="126.81,-641.09 116.47,-643.38 125.98,-648.04 126.81,-641.09"/>
</g>
<!-- Node16 -->
<g id="node16" class="node">
<title>Node16</title>
<g id="a_node16"><a xlink:href="a03558.html" target="_top" xlink:title="is_error_code_enum">
<polygon fill="white" stroke="black" points="187.5,-601.5 187.5,-629.5 283.5,-629.5 283.5,-601.5 187.5,-601.5"/>
<text text-anchor="start" x="195.5" y="-618.3" font-family="Helvetica,sans-Serif" font-size="9.00">std::is_error_code</text>
<text text-anchor="middle" x="235.5" y="-608.3" font-family="Helvetica,sans-Serif" font-size="9.00">_enum&lt; _Tp &gt;</text>
</a>
</g>
</g>
<!-- Node1&#45;&gt;Node16 -->
<g id="edge15" class="edge">
<title>Node1&#45;&gt;Node16</title>
<path fill="none" stroke="midnightblue" d="M126.61,-628.41C146.93,-625.98 168.77,-623.37 187.45,-621.13"/>
<polygon fill="midnightblue" stroke="midnightblue" points="125.98,-624.96 116.47,-629.62 126.81,-631.91 125.98,-624.96"/>
</g>
<!-- Node17 -->
<g id="node17" class="node">
<title>Node17</title>
<g id="a_node17"><a xlink:href="a02522.html" target="_top" xlink:title="Specialization.">
<polygon fill="white" stroke="black" points="176.5,-554.5 176.5,-582.5 294.5,-582.5 294.5,-554.5 176.5,-554.5"/>
<text text-anchor="start" x="184.5" y="-571.3" font-family="Helvetica,sans-Serif" font-size="9.00">std::is_error_code</text>
<text text-anchor="middle" x="235.5" y="-561.3" font-family="Helvetica,sans-Serif" font-size="9.00">_enum&lt; future_errc &gt;</text>
</a>
</g>
</g>
<!-- Node1&#45;&gt;Node17 -->
<g id="edge16" class="edge">
<title>Node1&#45;&gt;Node17</title>
<path fill="none" stroke="midnightblue" d="M94.82,-617.92C111.86,-609.5 132.69,-599.82 152,-592.5 161.34,-588.96 171.45,-585.62 181.28,-582.63"/>
<polygon fill="midnightblue" stroke="midnightblue" points="93.15,-614.84 85.77,-622.44 96.28,-621.1 93.15,-614.84"/>
</g>
<!-- Node18 -->
<g id="node18" class="node">
<title>Node18</title>
<g id="a_node18"><a xlink:href="a03562.html" target="_top" xlink:title="is_error_condition_enum">
<polygon fill="white" stroke="black" points="177.5,-507.5 177.5,-535.5 293.5,-535.5 293.5,-507.5 177.5,-507.5"/>
<text text-anchor="start" x="185.5" y="-524.3" font-family="Helvetica,sans-Serif" font-size="9.00">std::is_error_condition</text>
<text text-anchor="middle" x="235.5" y="-514.3" font-family="Helvetica,sans-Serif" font-size="9.00">_enum&lt; _Tp &gt;</text>
</a>
</g>
</g>
<!-- Node1&#45;&gt;Node18 -->
<g id="edge17" class="edge">
<title>Node1&#45;&gt;Node18</title>
<path fill="none" stroke="midnightblue" d="M76.12,-614.35C93.22,-593.69 121.32,-563.43 152,-545.5 159.86,-540.91 168.65,-537.14 177.5,-534.07"/>
<polygon fill="midnightblue" stroke="midnightblue" points="73.27,-612.31 69.7,-622.29 78.71,-616.72 73.27,-612.31"/>
</g>
<!-- Node19 -->
<g id="node19" class="node">
<title>Node19</title>
<g id="a_node19"><a xlink:href="a04562.html" target="_top" xlink:title=" ">
<polygon fill="white" stroke="black" points="170,-460.5 170,-488.5 301,-488.5 301,-460.5 170,-460.5"/>
<text text-anchor="start" x="178" y="-477.3" font-family="Helvetica,sans-Serif" font-size="9.00">std::is_layout_compatible</text>
<text text-anchor="middle" x="235.5" y="-467.3" font-family="Helvetica,sans-Serif" font-size="9.00">&lt; _Tp, _Up &gt;</text>
</a>
</g>
</g>
<!-- Node1&#45;&gt;Node19 -->
<g id="edge18" class="edge">
<title>Node1&#45;&gt;Node19</title>
<path fill="none" stroke="midnightblue" d="M68.73,-612.85C82.63,-581.97 111.11,-528.34 152,-498.5 157.42,-494.54 163.49,-491.24 169.8,-488.47"/>
<polygon fill="midnightblue" stroke="midnightblue" points="65.36,-611.82 64.57,-622.38 71.78,-614.62 65.36,-611.82"/>
</g>
<!-- Node20 -->
<g id="node20" class="node">
<title>Node20</title>
<g id="a_node20"><a xlink:href="a03842.html" target="_top" xlink:title="is_lvalue_reference">
<polygon fill="white" stroke="black" points="174.5,-413.5 174.5,-441.5 296.5,-441.5 296.5,-413.5 174.5,-413.5"/>
<text text-anchor="start" x="182.5" y="-430.3" font-family="Helvetica,sans-Serif" font-size="9.00">std::is_lvalue_reference</text>
<text text-anchor="middle" x="235.5" y="-420.3" font-family="Helvetica,sans-Serif" font-size="9.00">&lt; typename &gt;</text>
</a>
</g>
</g>
<!-- Node1&#45;&gt;Node20 -->
<g id="edge19" class="edge">
<title>Node1&#45;&gt;Node20</title>
<path fill="none" stroke="midnightblue" d="M64.46,-612.42C74.69,-572.89 100.49,-494.36 152,-451.5 158.54,-446.06 166.25,-441.85 174.3,-438.6"/>
<polygon fill="midnightblue" stroke="midnightblue" points="61.03,-611.71 62.03,-622.25 67.83,-613.38 61.03,-611.71"/>
</g>
<!-- Node21 -->
<g id="node21" class="node">
<title>Node21</title>
<g id="a_node21"><a xlink:href="a03878.html" target="_top" xlink:title="is_member_function_pointer">
<polygon fill="white" stroke="black" points="171.5,-366.5 171.5,-394.5 299.5,-394.5 299.5,-366.5 171.5,-366.5"/>
<text text-anchor="start" x="179.5" y="-383.3" font-family="Helvetica,sans-Serif" font-size="9.00">std::is_member_function</text>
<text text-anchor="middle" x="235.5" y="-373.3" font-family="Helvetica,sans-Serif" font-size="9.00">_pointer&lt; _Tp &gt;</text>
</a>
</g>
</g>
<!-- Node1&#45;&gt;Node21 -->
<g id="edge20" class="edge">
<title>Node1&#45;&gt;Node21</title>
<path fill="none" stroke="midnightblue" d="M61.75,-612.18C68.39,-565.06 89.64,-461.02 152,-404.5 157.64,-399.39 164.3,-395.37 171.36,-392.19"/>
<polygon fill="midnightblue" stroke="midnightblue" points="58.25,-611.99 60.42,-622.36 65.19,-612.9 58.25,-611.99"/>
</g>
<!-- Node22 -->
<g id="node22" class="node">
<title>Node22</title>
<g id="a_node22"><a xlink:href="a03866.html" target="_top" xlink:title="is_member_object_pointer">
<polygon fill="white" stroke="black" points="176,-319.5 176,-347.5 295,-347.5 295,-319.5 176,-319.5"/>
<text text-anchor="start" x="184" y="-336.3" font-family="Helvetica,sans-Serif" font-size="9.00">std::is_member_object</text>
<text text-anchor="middle" x="235.5" y="-326.3" font-family="Helvetica,sans-Serif" font-size="9.00">_pointer&lt; _Tp &gt;</text>
</a>
</g>
</g>
<!-- Node1&#45;&gt;Node22 -->
<g id="edge21" class="edge">
<title>Node1&#45;&gt;Node22</title>
<path fill="none" stroke="midnightblue" d="M59.85,-612.24C63.08,-558.42 78.51,-428.21 152,-357.5 158.66,-351.09 166.94,-346.37 175.66,-342.91"/>
<polygon fill="midnightblue" stroke="midnightblue" points="56.36,-612.07 59.34,-622.23 63.35,-612.42 56.36,-612.07"/>
</g>
<!-- Node23 -->
<g id="node23" class="node">
<title>Node23</title>
<g id="a_node23"><a xlink:href="a03910.html" target="_top" xlink:title="is_null_pointer (LWG 2247).">
<polygon fill="white" stroke="black" points="185,-272.5 185,-300.5 286,-300.5 286,-272.5 185,-272.5"/>
<text text-anchor="start" x="193" y="-289.3" font-family="Helvetica,sans-Serif" font-size="9.00">std::is_null_pointer</text>
<text text-anchor="middle" x="235.5" y="-279.3" font-family="Helvetica,sans-Serif" font-size="9.00">&lt; _Tp &gt;</text>
</a>
</g>
</g>
<!-- Node1&#45;&gt;Node23 -->
<g id="edge22" class="edge">
<title>Node1&#45;&gt;Node23</title>
<path fill="none" stroke="midnightblue" d="M58.47,-612.4C58.52,-552.53 67.2,-395.74 152,-310.5 160.84,-301.62 172.76,-295.98 184.79,-292.41"/>
<polygon fill="midnightblue" stroke="midnightblue" points="54.97,-612.44 58.55,-622.41 61.97,-612.39 54.97,-612.44"/>
</g>
<!-- Node25 -->
<g id="node25" class="node">
<title>Node25</title>
<g id="a_node25"><a xlink:href="a03838.html" target="_top" xlink:title="is_pointer">
<polygon fill="white" stroke="black" points="177,-235.5 177,-253.5 294,-253.5 294,-235.5 177,-235.5"/>
<text text-anchor="middle" x="235.5" y="-242.3" font-family="Helvetica,sans-Serif" font-size="9.00">std::is_pointer&lt; _Tp &gt;</text>
</a>
</g>
</g>
<!-- Node1&#45;&gt;Node25 -->
<g id="edge24" class="edge">
<title>Node1&#45;&gt;Node25</title>
<path fill="none" stroke="midnightblue" d="M61.81,-611.74C70.84,-536.57 101.5,-313.1 152,-263.5 158.82,-256.81 167.49,-252.29 176.64,-249.27"/>
<polygon fill="midnightblue" stroke="midnightblue" points="58.28,-611.76 60.59,-622.1 65.24,-612.58 58.28,-611.76"/>
</g>
<!-- Node26 -->
<g id="node26" class="node">
<title>Node26</title>
<g id="a_node26"><a xlink:href="a04566.html" target="_top" xlink:title="True if _Derived is standard&#45;layout and has a base class of type _Base">
<polygon fill="white" stroke="black" points="158,-188.5 158,-216.5 313,-216.5 313,-188.5 158,-188.5"/>
<text text-anchor="start" x="166" y="-205.3" font-family="Helvetica,sans-Serif" font-size="9.00">std::is_pointer_interconvertible</text>
<text text-anchor="middle" x="235.5" y="-195.3" font-family="Helvetica,sans-Serif" font-size="9.00">_base_of&lt; _Base, _Derived &gt;</text>
</a>
</g>
</g>
<!-- Node1&#45;&gt;Node26 -->
<g id="edge25" class="edge">
<title>Node1&#45;&gt;Node26</title>
<path fill="none" stroke="midnightblue" d="M61.32,-612.07C69.33,-532.62 98.36,-283.47 152,-226.5 155.68,-222.59 159.96,-219.31 164.59,-216.55"/>
<polygon fill="midnightblue" stroke="midnightblue" points="57.83,-611.82 60.33,-622.11 64.79,-612.51 57.83,-611.82"/>
</g>
<!-- Node27 -->
<g id="node27" class="node">
<title>Node27</title>
<g id="a_node27"><a xlink:href="a03850.html" target="_top" xlink:title="is_rvalue_reference">
<polygon fill="white" stroke="black" points="174,-141.5 174,-169.5 297,-169.5 297,-141.5 174,-141.5"/>
<text text-anchor="start" x="182" y="-158.3" font-family="Helvetica,sans-Serif" font-size="9.00">std::is_rvalue_reference</text>
<text text-anchor="middle" x="235.5" y="-148.3" font-family="Helvetica,sans-Serif" font-size="9.00">&lt; typename &gt;</text>
</a>
</g>
</g>
<!-- Node1&#45;&gt;Node27 -->
<g id="edge26" class="edge">
<title>Node1&#45;&gt;Node27</title>
<path fill="none" stroke="midnightblue" d="M60.68,-612.4C67.05,-527.52 92.49,-244.12 152,-179.5 157.96,-173.03 165.56,-168.26 173.72,-164.76"/>
<polygon fill="midnightblue" stroke="midnightblue" points="57.18,-612.15 59.95,-622.38 64.17,-612.66 57.18,-612.15"/>
</g>
<!-- Node28 -->
<g id="node28" class="node">
<title>Node28</title>
<g id="a_node28"><a xlink:href="a03942.html" target="_top" xlink:title="is_same">
<polygon fill="white" stroke="black" points="185,-94.5 185,-122.5 286,-122.5 286,-94.5 185,-94.5"/>
<text text-anchor="start" x="193" y="-111.3" font-family="Helvetica,sans-Serif" font-size="9.00">std::is_same&lt; _Tp,</text>
<text text-anchor="middle" x="235.5" y="-101.3" font-family="Helvetica,sans-Serif" font-size="9.00"> _Up &gt;</text>
</a>
</g>
</g>
<!-- Node1&#45;&gt;Node28 -->
<g id="edge27" class="edge">
<title>Node1&#45;&gt;Node28</title>
<path fill="none" stroke="midnightblue" d="M60.18,-612.33C65.08,-521.86 86.7,-204.73 152,-132.5 160.5,-123.09 172.46,-117.29 184.63,-113.73"/>
<polygon fill="midnightblue" stroke="midnightblue" points="56.68,-612.26 59.65,-622.43 63.67,-612.63 56.68,-612.26"/>
</g>
<!-- Node29 -->
<g id="node29" class="node">
<title>Node29</title>
<g id="a_node29"><a xlink:href="a03950.html" target="_top" xlink:title="is_volatile">
<polygon fill="white" stroke="black" points="162.5,-57.5 162.5,-75.5 308.5,-75.5 308.5,-57.5 162.5,-57.5"/>
<text text-anchor="middle" x="235.5" y="-64.3" font-family="Helvetica,sans-Serif" font-size="9.00">std::is_volatile&lt; typename &gt;</text>
</a>
</g>
</g>
<!-- Node1&#45;&gt;Node29 -->
<g id="edge28" class="edge">
<title>Node1&#45;&gt;Node29</title>
<path fill="none" stroke="midnightblue" d="M59.64,-612.17C62.66,-515.93 78.63,-163.34 152,-85.5 155.83,-81.44 160.34,-78.16 165.25,-75.53"/>
<polygon fill="midnightblue" stroke="midnightblue" points="56.13,-612.26 59.34,-622.36 63.13,-612.47 56.13,-612.26"/>
</g>
<!-- Node30 -->
<g id="node30" class="node">
<title>Node30</title>
<g id="a_node30"><a xlink:href="a03750.html" target="_top" xlink:title="Partial specialization for tuples.">
<polygon fill="white" stroke="black" points="180.5,-0.5 180.5,-38.5 290.5,-38.5 290.5,-0.5 180.5,-0.5"/>
<text text-anchor="start" x="188.5" y="-27.3" font-family="Helvetica,sans-Serif" font-size="9.00">std::uses_allocator</text>
<text text-anchor="start" x="188.5" y="-17.3" font-family="Helvetica,sans-Serif" font-size="9.00">&lt; tuple&lt; _Types... &gt;</text>
<text text-anchor="middle" x="235.5" y="-7.3" font-family="Helvetica,sans-Serif" font-size="9.00">, _Alloc &gt;</text>
</a>
</g>
</g>
<!-- Node1&#45;&gt;Node30 -->
<g id="edge29" class="edge">
<title>Node1&#45;&gt;Node30</title>
<path fill="none" stroke="midnightblue" d="M59.62,-612.08C62.63,-512.27 78.73,-136.41 152,-48.5 159.39,-39.64 169.66,-33.48 180.45,-29.2"/>
<polygon fill="midnightblue" stroke="midnightblue" points="56.11,-612.27 59.33,-622.36 63.11,-612.47 56.11,-612.27"/>
</g>
<!-- Node24 -->
<g id="node24" class="node">
<title>Node24</title>
<g id="a_node24"><a xlink:href="a03914.html" target="_top" xlink:title="__is_nullptr_t (deprecated extension).">
<polygon fill="white" stroke="black" points="355,-272.5 355,-300.5 450,-300.5 450,-272.5 355,-272.5"/>
<text text-anchor="start" x="363" y="-289.3" font-family="Helvetica,sans-Serif" font-size="9.00">std::__is_nullptr_t</text>
<text text-anchor="middle" x="402.5" y="-279.3" font-family="Helvetica,sans-Serif" font-size="9.00">&lt; _Tp &gt;</text>
</a>
</g>
</g>
<!-- Node23&#45;&gt;Node24 -->
<g id="edge23" class="edge">
<title>Node23&#45;&gt;Node24</title>
<path fill="none" stroke="midnightblue" d="M296.21,-286.5C315.52,-286.5 336.64,-286.5 354.86,-286.5"/>
<polygon fill="midnightblue" stroke="midnightblue" points="296.01,-283 286.01,-286.5 296.01,-290 296.01,-283"/>
</g>
</g>
</svg>
