<?xml version="1.0" encoding="UTF-8" standalone="no"?>
<!DOCTYPE svg PUBLIC "-//W3C//DTD SVG 1.1//EN"
 "http://www.w3.org/Graphics/SVG/1.1/DTD/svg11.dtd">
<!-- Generated by graphviz version 2.50.0 (0)
 -->
<!-- Title: std::is_pointer&lt; _Tp &gt; Pages: 1 -->
<svg width="127pt" height="102pt"
 viewBox="0.00 0.00 127.00 102.00" xmlns="http://www.w3.org/2000/svg" xmlns:xlink="http://www.w3.org/1999/xlink">
<g id="graph0" class="graph" transform="scale(1 1) rotate(0) translate(4 98)">
<title>std::is_pointer&lt; _Tp &gt;</title>
<polygon fill="white" stroke="transparent" points="-4,4 -4,-98 123,-98 123,4 -4,4"/>
<!-- Node1 -->
<g id="node1" class="node">
<title>Node1</title>
<g id="a_node1"><a xlink:title="is_pointer">
<polygon fill="#bfbfbf" stroke="black" points="1,-0.5 1,-18.5 118,-18.5 118,-0.5 1,-0.5"/>
<text text-anchor="middle" x="59.5" y="-7.3" font-family="Helvetica,sans-Serif" font-size="9.00">std::is_pointer&lt; _Tp &gt;</text>
</a>
</g>
</g>
<!-- Node2 -->
<g id="node2" class="node">
<title>Node2</title>
<g id="a_node2"><a xlink:href="a03766.html" target="_top" xlink:title="integral_constant">
<polygon fill="white" stroke="black" points="0,-55.5 0,-93.5 119,-93.5 119,-55.5 0,-55.5"/>
<text text-anchor="start" x="8" y="-82.3" font-family="Helvetica,sans-Serif" font-size="9.00">__is_pointer_helper</text>
<text text-anchor="start" x="8" y="-72.3" font-family="Helvetica,sans-Serif" font-size="9.00">&lt; __remove_cv_t&lt; _Tp</text>
<text text-anchor="middle" x="59.5" y="-62.3" font-family="Helvetica,sans-Serif" font-size="9.00"> &gt; &gt;::type</text>
</a>
</g>
</g>
<!-- Node2&#45;&gt;Node1 -->
<g id="edge1" class="edge">
<title>Node2&#45;&gt;Node1</title>
<path fill="none" stroke="midnightblue" d="M59.5,-45.16C59.5,-35.54 59.5,-25.52 59.5,-18.74"/>
<polygon fill="midnightblue" stroke="midnightblue" points="56,-45.28 59.5,-55.28 63,-45.28 56,-45.28"/>
</g>
</g>
</svg>
