<?xml version="1.0" encoding="UTF-8" standalone="no"?>
<!DOCTYPE svg PUBLIC "-//W3C//DTD SVG 1.1//EN"
 "http://www.w3.org/Graphics/SVG/1.1/DTD/svg11.dtd">
<!-- Generated by graphviz version 2.50.0 (0)
 -->
<!-- Title: std::has_unique_object_representations&lt; _Tp &gt; Pages: 1 -->
<svg width="346pt" height="57pt"
 viewBox="0.00 0.00 346.00 57.00" xmlns="http://www.w3.org/2000/svg" xmlns:xlink="http://www.w3.org/1999/xlink">
<g id="graph0" class="graph" transform="scale(1 1) rotate(0) translate(4 53)">
<title>std::has_unique_object_representations&lt; _Tp &gt;</title>
<polygon fill="white" stroke="transparent" points="-4,4 -4,-53 342,-53 342,4 -4,4"/>
<!-- Node1 -->
<g id="node1" class="node">
<title>Node1</title>
<g id="a_node1"><a xlink:title="has_unique_object_representations">
<polygon fill="#bfbfbf" stroke="black" points="210,-10.5 210,-38.5 338,-38.5 338,-10.5 210,-10.5"/>
<text text-anchor="start" x="218" y="-27.3" font-family="Helvetica,sans-Serif" font-size="9.00">std::has_unique_object</text>
<text text-anchor="middle" x="274" y="-17.3" font-family="Helvetica,sans-Serif" font-size="9.00">_representations&lt; _Tp &gt;</text>
</a>
</g>
</g>
<!-- Node2 -->
<g id="node2" class="node">
<title>Node2</title>
<g id="a_node2"><a xlink:href="a03766.html" target="_top" xlink:title="integral_constant">
<polygon fill="white" stroke="black" points="0,-0.5 0,-48.5 174,-48.5 174,-0.5 0,-0.5"/>
<text text-anchor="start" x="8" y="-37.3" font-family="Helvetica,sans-Serif" font-size="9.00">bool_constant&lt; __has</text>
<text text-anchor="start" x="8" y="-27.3" font-family="Helvetica,sans-Serif" font-size="9.00">_unique_object_representations</text>
<text text-anchor="start" x="8" y="-17.3" font-family="Helvetica,sans-Serif" font-size="9.00">(remove_cv_t&lt; remove_all_extents</text>
<text text-anchor="middle" x="87" y="-7.3" font-family="Helvetica,sans-Serif" font-size="9.00">_t&lt; _Tp &gt;&gt;)&gt;</text>
</a>
</g>
</g>
<!-- Node2&#45;&gt;Node1 -->
<g id="edge1" class="edge">
<title>Node2&#45;&gt;Node1</title>
<path fill="none" stroke="midnightblue" d="M184.21,-24.5C192.9,-24.5 201.55,-24.5 209.85,-24.5"/>
<polygon fill="midnightblue" stroke="midnightblue" points="184,-21 174,-24.5 184,-28 184,-21"/>
</g>
</g>
</svg>
