<?xml version="1.0" encoding="UTF-8" standalone="no"?>
<!DOCTYPE svg PUBLIC "-//W3C//DTD SVG 1.1//EN"
 "http://www.w3.org/Graphics/SVG/1.1/DTD/svg11.dtd">
<!-- Generated by graphviz version 2.50.0 (0)
 -->
<!-- Title: std::codecvt_byname&lt; _InternT, _ExternT, _StateT &gt; Pages: 1 -->
<svg width="216pt" height="242pt"
 viewBox="0.00 0.00 215.50 242.00" xmlns="http://www.w3.org/2000/svg" xmlns:xlink="http://www.w3.org/1999/xlink">
<g id="graph0" class="graph" transform="scale(1 1) rotate(0) translate(4 238)">
<title>std::codecvt_byname&lt; _InternT, _ExternT, _StateT &gt;</title>
<polygon fill="white" stroke="transparent" points="-4,4 -4,-238 211.5,-238 211.5,4 -4,4"/>
<!-- Node1 -->
<g id="node1" class="node">
<title>Node1</title>
<g id="a_node1"><a xlink:title="class codecvt_byname [22.2.1.6].">
<polygon fill="#bfbfbf" stroke="black" points="44.5,-0.5 44.5,-38.5 158.5,-38.5 158.5,-0.5 44.5,-0.5"/>
<text text-anchor="start" x="52.5" y="-27.3" font-family="Helvetica,sans-Serif" font-size="9.00">std::codecvt_byname</text>
<text text-anchor="start" x="52.5" y="-17.3" font-family="Helvetica,sans-Serif" font-size="9.00">&lt; _InternT, _ExternT,</text>
<text text-anchor="middle" x="101.5" y="-7.3" font-family="Helvetica,sans-Serif" font-size="9.00"> _StateT &gt;</text>
</a>
</g>
</g>
<!-- Node2 -->
<g id="node2" class="node">
<title>Node2</title>
<g id="a_node2"><a xlink:href="a05634.html" target="_top" xlink:title="Primary class template codecvt.">
<polygon fill="white" stroke="black" points="39.5,-75.5 39.5,-103.5 163.5,-103.5 163.5,-75.5 39.5,-75.5"/>
<text text-anchor="start" x="47.5" y="-92.3" font-family="Helvetica,sans-Serif" font-size="9.00">std::codecvt&lt; _InternT,</text>
<text text-anchor="middle" x="101.5" y="-82.3" font-family="Helvetica,sans-Serif" font-size="9.00"> _ExternT, _StateT &gt;</text>
</a>
</g>
</g>
<!-- Node2&#45;&gt;Node1 -->
<g id="edge1" class="edge">
<title>Node2&#45;&gt;Node1</title>
<path fill="none" stroke="midnightblue" d="M101.5,-65.17C101.5,-56.52 101.5,-46.84 101.5,-38.71"/>
<polygon fill="midnightblue" stroke="midnightblue" points="98,-65.39 101.5,-75.39 105,-65.39 98,-65.39"/>
</g>
<!-- Node3 -->
<g id="node3" class="node">
<title>Node3</title>
<g id="a_node3"><a xlink:href="a05630.html" target="_top" xlink:title="Common base for codecvt functions.">
<polygon fill="white" stroke="black" points="32,-140.5 32,-178.5 171,-178.5 171,-140.5 32,-140.5"/>
<text text-anchor="start" x="40" y="-167.3" font-family="Helvetica,sans-Serif" font-size="9.00">std::__codecvt_abstract</text>
<text text-anchor="start" x="40" y="-157.3" font-family="Helvetica,sans-Serif" font-size="9.00">_base&lt; _InternT, _ExternT,</text>
<text text-anchor="middle" x="101.5" y="-147.3" font-family="Helvetica,sans-Serif" font-size="9.00"> _StateT &gt;</text>
</a>
</g>
</g>
<!-- Node3&#45;&gt;Node2 -->
<g id="edge2" class="edge">
<title>Node3&#45;&gt;Node2</title>
<path fill="none" stroke="midnightblue" d="M101.5,-130.01C101.5,-120.92 101.5,-111.29 101.5,-103.81"/>
<polygon fill="midnightblue" stroke="midnightblue" points="98,-130.28 101.5,-140.28 105,-130.28 98,-130.28"/>
</g>
<!-- Node4 -->
<g id="node4" class="node">
<title>Node4</title>
<g id="a_node4"><a xlink:href="a06294.html" target="_top" xlink:title="Localization functionality base class.">
<polygon fill="white" stroke="black" points="0,-215.5 0,-233.5 91,-233.5 91,-215.5 0,-215.5"/>
<text text-anchor="middle" x="45.5" y="-222.3" font-family="Helvetica,sans-Serif" font-size="9.00">std::locale::facet</text>
</a>
</g>
</g>
<!-- Node4&#45;&gt;Node3 -->
<g id="edge3" class="edge">
<title>Node4&#45;&gt;Node3</title>
<path fill="none" stroke="midnightblue" d="M59.64,-207.59C67.5,-198.75 77.31,-187.71 85.45,-178.55"/>
<polygon fill="midnightblue" stroke="midnightblue" points="56.85,-205.46 52.82,-215.26 62.08,-210.12 56.85,-205.46"/>
</g>
<!-- Node5 -->
<g id="node5" class="node">
<title>Node5</title>
<g id="a_node5"><a xlink:href="a05626.html" target="_top" xlink:title="Empty base class for codecvt facet [22.2.1.5].">
<polygon fill="white" stroke="black" points="109.5,-215.5 109.5,-233.5 207.5,-233.5 207.5,-215.5 109.5,-215.5"/>
<text text-anchor="middle" x="158.5" y="-222.3" font-family="Helvetica,sans-Serif" font-size="9.00">std::codecvt_base</text>
</a>
</g>
</g>
<!-- Node5&#45;&gt;Node3 -->
<g id="edge4" class="edge">
<title>Node5&#45;&gt;Node3</title>
<path fill="none" stroke="midnightblue" d="M144.11,-207.59C136.11,-198.75 126.12,-187.71 117.83,-178.55"/>
<polygon fill="midnightblue" stroke="midnightblue" points="141.74,-210.2 151.05,-215.26 146.93,-205.5 141.74,-210.2"/>
</g>
</g>
</svg>
