<?xml version="1.0" encoding="UTF-8" standalone="no"?>
<!DOCTYPE svg PUBLIC "-//W3C//DTD SVG 1.1//EN"
 "http://www.w3.org/Graphics/SVG/1.1/DTD/svg11.dtd">
<!-- Generated by graphviz version 2.50.0 (0)
 -->
<!-- Title: std::codecvt&lt; char, char, mbstate_t &gt; Pages: 1 -->
<svg width="216pt" height="157pt"
 viewBox="0.00 0.00 215.50 157.00" xmlns="http://www.w3.org/2000/svg" xmlns:xlink="http://www.w3.org/1999/xlink">
<g id="graph0" class="graph" transform="scale(1 1) rotate(0) translate(4 153)">
<title>std::codecvt&lt; char, char, mbstate_t &gt;</title>
<polygon fill="white" stroke="transparent" points="-4,4 -4,-153 211.5,-153 211.5,4 -4,4"/>
<!-- Node1 -->
<g id="node1" class="node">
<title>Node1</title>
<g id="a_node1"><a xlink:title="class codecvt&lt;char, char, mbstate_t&gt; specialization.">
<polygon fill="#bfbfbf" stroke="black" points="48,-0.5 48,-28.5 155,-28.5 155,-0.5 48,-0.5"/>
<text text-anchor="start" x="56" y="-17.3" font-family="Helvetica,sans-Serif" font-size="9.00">std::codecvt&lt; char,</text>
<text text-anchor="middle" x="101.5" y="-7.3" font-family="Helvetica,sans-Serif" font-size="9.00"> char, mbstate_t &gt;</text>
</a>
</g>
</g>
<!-- Node2 -->
<g id="node2" class="node">
<title>Node2</title>
<g id="a_node2"><a xlink:href="a05630.html" target="_top" xlink:title=" ">
<polygon fill="white" stroke="black" points="21,-65.5 21,-93.5 182,-93.5 182,-65.5 21,-65.5"/>
<text text-anchor="start" x="29" y="-82.3" font-family="Helvetica,sans-Serif" font-size="9.00">std::__codecvt_abstract</text>
<text text-anchor="middle" x="101.5" y="-72.3" font-family="Helvetica,sans-Serif" font-size="9.00">_base&lt; char, char, mbstate_t &gt;</text>
</a>
</g>
</g>
<!-- Node2&#45;&gt;Node1 -->
<g id="edge1" class="edge">
<title>Node2&#45;&gt;Node1</title>
<path fill="none" stroke="midnightblue" d="M101.5,-55.16C101.5,-46.17 101.5,-36.22 101.5,-28.54"/>
<polygon fill="midnightblue" stroke="midnightblue" points="98,-55.45 101.5,-65.45 105,-55.45 98,-55.45"/>
</g>
<!-- Node3 -->
<g id="node3" class="node">
<title>Node3</title>
<g id="a_node3"><a xlink:href="a06294.html" target="_top" xlink:title="Localization functionality base class.">
<polygon fill="white" stroke="black" points="0,-130.5 0,-148.5 91,-148.5 91,-130.5 0,-130.5"/>
<text text-anchor="middle" x="45.5" y="-137.3" font-family="Helvetica,sans-Serif" font-size="9.00">std::locale::facet</text>
</a>
</g>
</g>
<!-- Node3&#45;&gt;Node2 -->
<g id="edge2" class="edge">
<title>Node3&#45;&gt;Node2</title>
<path fill="none" stroke="midnightblue" d="M60.32,-123.15C69.12,-114.03 80.18,-102.58 88.62,-93.84"/>
<polygon fill="midnightblue" stroke="midnightblue" points="57.71,-120.81 53.29,-130.44 62.75,-125.67 57.71,-120.81"/>
</g>
<!-- Node4 -->
<g id="node4" class="node">
<title>Node4</title>
<g id="a_node4"><a xlink:href="a05626.html" target="_top" xlink:title="Empty base class for codecvt facet [22.2.1.5].">
<polygon fill="white" stroke="black" points="109.5,-130.5 109.5,-148.5 207.5,-148.5 207.5,-130.5 109.5,-130.5"/>
<text text-anchor="middle" x="158.5" y="-137.3" font-family="Helvetica,sans-Serif" font-size="9.00">std::codecvt_base</text>
</a>
</g>
</g>
<!-- Node4&#45;&gt;Node2 -->
<g id="edge3" class="edge">
<title>Node4&#45;&gt;Node2</title>
<path fill="none" stroke="midnightblue" d="M143.41,-123.15C134.45,-114.03 123.2,-102.58 114.61,-93.84"/>
<polygon fill="midnightblue" stroke="midnightblue" points="141.07,-125.76 150.57,-130.44 146.06,-120.85 141.07,-125.76"/>
</g>
</g>
</svg>
