<?xml version="1.0" encoding="UTF-8" standalone="no"?>
<!DOCTYPE svg PUBLIC "-//W3C//DTD SVG 1.1//EN"
 "http://www.w3.org/Graphics/SVG/1.1/DTD/svg11.dtd">
<!-- Generated by graphviz version 2.50.0 (0)
 -->
<!-- Title: std::forward_list&lt; _Tp, _Alloc &gt; Pages: 1 -->
<svg width="142pt" height="102pt"
 viewBox="0.00 0.00 142.00 102.00" xmlns="http://www.w3.org/2000/svg" xmlns:xlink="http://www.w3.org/1999/xlink">
<g id="graph0" class="graph" transform="scale(1 1) rotate(0) translate(4 98)">
<title>std::forward_list&lt; _Tp, _Alloc &gt;</title>
<polygon fill="white" stroke="transparent" points="-4,4 -4,-98 138,-98 138,4 -4,4"/>
<!-- Node1 -->
<g id="node1" class="node">
<title>Node1</title>
<g id="a_node1"><a xlink:title="A standard container with linear time access to elements, and fixed time insertion/deletion at any po...">
<polygon fill="#bfbfbf" stroke="black" points="19,-0.5 19,-28.5 115,-28.5 115,-0.5 19,-0.5"/>
<text text-anchor="start" x="27" y="-17.3" font-family="Helvetica,sans-Serif" font-size="9.00">std::forward_list&lt;</text>
<text text-anchor="middle" x="67" y="-7.3" font-family="Helvetica,sans-Serif" font-size="9.00"> _Tp, _Alloc &gt;</text>
</a>
</g>
</g>
<!-- Node2 -->
<g id="node2" class="node">
<title>Node2</title>
<g id="a_node2"><a xlink:href="a05946.html" target="_top" xlink:title=" ">
<polygon fill="white" stroke="black" points="0,-65.5 0,-93.5 134,-93.5 134,-65.5 0,-65.5"/>
<text text-anchor="start" x="8" y="-82.3" font-family="Helvetica,sans-Serif" font-size="9.00">std::_Fwd_list_base</text>
<text text-anchor="middle" x="67" y="-72.3" font-family="Helvetica,sans-Serif" font-size="9.00">&lt; _Tp, allocator&lt; _Tp &gt; &gt;</text>
</a>
</g>
</g>
<!-- Node2&#45;&gt;Node1 -->
<g id="edge1" class="edge">
<title>Node2&#45;&gt;Node1</title>
<path fill="none" stroke="#8b1a1a" d="M67,-55.16C67,-46.17 67,-36.22 67,-28.54"/>
<polygon fill="#8b1a1a" stroke="#8b1a1a" points="63.5,-55.45 67,-65.45 70.5,-55.45 63.5,-55.45"/>
</g>
</g>
</svg>
