<?xml version="1.0" encoding="UTF-8" standalone="no"?>
<!DOCTYPE svg PUBLIC "-//W3C//DTD SVG 1.1//EN"
 "http://www.w3.org/Graphics/SVG/1.1/DTD/svg11.dtd">
<!-- Generated by graphviz version 2.50.0 (0)
 -->
<!-- Title: std::filesystem::filesystem_error Pages: 1 -->
<svg width="141pt" height="202pt"
 viewBox="0.00 0.00 141.00 202.00" xmlns="http://www.w3.org/2000/svg" xmlns:xlink="http://www.w3.org/1999/xlink">
<g id="graph0" class="graph" transform="scale(1 1) rotate(0) translate(4 198)">
<title>std::filesystem::filesystem_error</title>
<polygon fill="white" stroke="transparent" points="-4,4 -4,-198 137,-198 137,4 -4,4"/>
<!-- Node1 -->
<g id="node1" class="node">
<title>Node1</title>
<g id="a_node1"><a xlink:title="Exception type thrown by the Filesystem library.">
<polygon fill="#bfbfbf" stroke="black" points="0,-0.5 0,-28.5 133,-28.5 133,-0.5 0,-0.5"/>
<text text-anchor="start" x="8" y="-17.3" font-family="Helvetica,sans-Serif" font-size="9.00">std::filesystem::filesystem</text>
<text text-anchor="middle" x="66.5" y="-7.3" font-family="Helvetica,sans-Serif" font-size="9.00">_error</text>
</a>
</g>
</g>
<!-- Node2 -->
<g id="node2" class="node">
<title>Node2</title>
<g id="a_node2"><a xlink:href="a03582.html" target="_top" xlink:title="An exception type that includes an error_code value.">
<polygon fill="white" stroke="black" points="19,-65.5 19,-83.5 114,-83.5 114,-65.5 19,-65.5"/>
<text text-anchor="middle" x="66.5" y="-72.3" font-family="Helvetica,sans-Serif" font-size="9.00">std::system_error</text>
</a>
</g>
</g>
<!-- Node2&#45;&gt;Node1 -->
<g id="edge1" class="edge">
<title>Node2&#45;&gt;Node1</title>
<path fill="none" stroke="midnightblue" d="M66.5,-55.32C66.5,-46.75 66.5,-36.7 66.5,-28.84"/>
<polygon fill="midnightblue" stroke="midnightblue" points="63,-55.44 66.5,-65.44 70,-55.44 63,-55.44"/>
</g>
<!-- Node3 -->
<g id="node3" class="node">
<title>Node3</title>
<g id="a_node3"><a xlink:href="a03470.html" target="_top" xlink:title="One of two subclasses of exception.">
<polygon fill="white" stroke="black" points="17,-120.5 17,-138.5 116,-138.5 116,-120.5 17,-120.5"/>
<text text-anchor="middle" x="66.5" y="-127.3" font-family="Helvetica,sans-Serif" font-size="9.00">std::runtime_error</text>
</a>
</g>
</g>
<!-- Node3&#45;&gt;Node2 -->
<g id="edge2" class="edge">
<title>Node3&#45;&gt;Node2</title>
<path fill="none" stroke="midnightblue" d="M66.5,-110.17C66.5,-101.09 66.5,-90.59 66.5,-83.55"/>
<polygon fill="midnightblue" stroke="midnightblue" points="63,-110.22 66.5,-120.22 70,-110.22 63,-110.22"/>
</g>
<!-- Node4 -->
<g id="node4" class="node">
<title>Node4</title>
<g id="a_node4"><a xlink:href="a05922.html" target="_top" xlink:title="Base class for all library exceptions.">
<polygon fill="white" stroke="black" points="26.5,-175.5 26.5,-193.5 106.5,-193.5 106.5,-175.5 26.5,-175.5"/>
<text text-anchor="middle" x="66.5" y="-182.3" font-family="Helvetica,sans-Serif" font-size="9.00">std::exception</text>
</a>
</g>
</g>
<!-- Node4&#45;&gt;Node3 -->
<g id="edge3" class="edge">
<title>Node4&#45;&gt;Node3</title>
<path fill="none" stroke="midnightblue" d="M66.5,-165.17C66.5,-156.09 66.5,-145.59 66.5,-138.55"/>
<polygon fill="midnightblue" stroke="midnightblue" points="63,-165.22 66.5,-175.22 70,-165.22 63,-165.22"/>
</g>
</g>
</svg>
