<?xml version="1.0" encoding="UTF-8" standalone="no"?>
<!DOCTYPE svg PUBLIC "-//W3C//DTD SVG 1.1//EN"
 "http://www.w3.org/Graphics/SVG/1.1/DTD/svg11.dtd">
<!-- Generated by graphviz version 2.50.0 (0)
 -->
<!-- Title: std::ios_base Pages: 1 -->
<svg width="736pt" height="329pt"
 viewBox="0.00 0.00 736.00 329.00" xmlns="http://www.w3.org/2000/svg" xmlns:xlink="http://www.w3.org/1999/xlink">
<g id="graph0" class="graph" transform="scale(1 1) rotate(0) translate(4 325)">
<title>std::ios_base</title>
<polygon fill="white" stroke="transparent" points="-4,4 -4,-325 732,-325 732,4 -4,4"/>
<!-- Node1 -->
<g id="node1" class="node">
<title>Node1</title>
<g id="a_node1"><a xlink:title="The base of the I/O class hierarchy.">
<polygon fill="#bfbfbf" stroke="black" points="0,-198.5 0,-216.5 74,-216.5 74,-198.5 0,-198.5"/>
<text text-anchor="middle" x="37" y="-205.3" font-family="Helvetica,sans-Serif" font-size="9.00">std::ios_base</text>
</a>
</g>
</g>
<!-- Node2 -->
<g id="node2" class="node">
<title>Node2</title>
<g id="a_node2"><a xlink:href="a02734.html" target="_top" xlink:title=" ">
<polygon fill="white" stroke="black" points="120,-245.5 120,-273.5 230,-273.5 230,-245.5 120,-245.5"/>
<text text-anchor="start" x="128" y="-262.3" font-family="Helvetica,sans-Serif" font-size="9.00">std::basic_ios&lt; char,</text>
<text text-anchor="middle" x="175" y="-252.3" font-family="Helvetica,sans-Serif" font-size="9.00"> _Traits &gt;</text>
</a>
</g>
</g>
<!-- Node1&#45;&gt;Node2 -->
<g id="edge1" class="edge">
<title>Node1&#45;&gt;Node2</title>
<path fill="none" stroke="midnightblue" d="M71.3,-220.23C91.28,-227.87 116.71,-237.6 137.27,-245.46"/>
<polygon fill="midnightblue" stroke="midnightblue" points="72.28,-216.86 61.69,-216.56 69.78,-223.4 72.28,-216.86"/>
</g>
<!-- Node5 -->
<g id="node5" class="node">
<title>Node5</title>
<g id="a_node5"><a xlink:href="a02734.html" target="_top" xlink:title=" ">
<polygon fill="white" stroke="black" points="110,-193.5 110,-221.5 240,-221.5 240,-193.5 110,-193.5"/>
<text text-anchor="start" x="118" y="-210.3" font-family="Helvetica,sans-Serif" font-size="9.00">std::basic_ios&lt; _CharT,</text>
<text text-anchor="middle" x="175" y="-200.3" font-family="Helvetica,sans-Serif" font-size="9.00"> char_traits&lt; _CharT &gt; &gt;</text>
</a>
</g>
</g>
<!-- Node1&#45;&gt;Node5 -->
<g id="edge4" class="edge">
<title>Node1&#45;&gt;Node5</title>
<path fill="none" stroke="midnightblue" d="M84.24,-207.5C92.49,-207.5 101.22,-207.5 109.86,-207.5"/>
<polygon fill="midnightblue" stroke="midnightblue" points="84.09,-204 74.09,-207.5 84.09,-211 84.09,-204"/>
</g>
<!-- Node7 -->
<g id="node7" class="node">
<title>Node7</title>
<g id="a_node7"><a xlink:href="a02734.html" target="_top" xlink:title="Template class basic_ios, virtual base class for all stream classes.">
<polygon fill="white" stroke="black" points="114.5,-141.5 114.5,-169.5 235.5,-169.5 235.5,-141.5 114.5,-141.5"/>
<text text-anchor="start" x="122.5" y="-158.3" font-family="Helvetica,sans-Serif" font-size="9.00">std::basic_ios&lt; _CharT,</text>
<text text-anchor="middle" x="175" y="-148.3" font-family="Helvetica,sans-Serif" font-size="9.00"> _Traits &gt;</text>
</a>
</g>
</g>
<!-- Node1&#45;&gt;Node7 -->
<g id="edge6" class="edge">
<title>Node1&#45;&gt;Node7</title>
<path fill="none" stroke="midnightblue" d="M71.3,-194.77C91.28,-187.13 116.71,-177.4 137.27,-169.54"/>
<polygon fill="midnightblue" stroke="midnightblue" points="69.78,-191.6 61.69,-198.44 72.28,-198.14 69.78,-191.6"/>
</g>
<!-- Node3 -->
<g id="node3" class="node">
<title>Node3</title>
<g id="a_node3"><a xlink:href="a02742.html" target="_top" xlink:title=" ">
<polygon fill="white" stroke="black" points="283,-245.5 283,-273.5 381,-273.5 381,-245.5 283,-245.5"/>
<text text-anchor="start" x="291" y="-262.3" font-family="Helvetica,sans-Serif" font-size="9.00">std::basic_istream</text>
<text text-anchor="middle" x="332" y="-252.3" font-family="Helvetica,sans-Serif" font-size="9.00">&lt; char &gt;</text>
</a>
</g>
</g>
<!-- Node2&#45;&gt;Node3 -->
<g id="edge2" class="edge">
<title>Node2&#45;&gt;Node3</title>
<path fill="none" stroke="midnightblue" d="M240.4,-259.5C254.58,-259.5 269.36,-259.5 282.77,-259.5"/>
<polygon fill="midnightblue" stroke="midnightblue" points="240.21,-256 230.21,-259.5 240.21,-263 240.21,-256"/>
</g>
<!-- Node4 -->
<g id="node4" class="node">
<title>Node4</title>
<g id="a_node4"><a xlink:href="a02746.html" target="_top" xlink:title=" ">
<polygon fill="white" stroke="black" points="281.5,-292.5 281.5,-320.5 382.5,-320.5 382.5,-292.5 281.5,-292.5"/>
<text text-anchor="start" x="289.5" y="-309.3" font-family="Helvetica,sans-Serif" font-size="9.00">std::basic_ostream</text>
<text text-anchor="middle" x="332" y="-299.3" font-family="Helvetica,sans-Serif" font-size="9.00">&lt; char &gt;</text>
</a>
</g>
</g>
<!-- Node2&#45;&gt;Node4 -->
<g id="edge3" class="edge">
<title>Node2&#45;&gt;Node4</title>
<path fill="none" stroke="midnightblue" d="M232.43,-276.61C249.64,-281.83 268.35,-287.5 284.79,-292.49"/>
<polygon fill="midnightblue" stroke="midnightblue" points="233.09,-273.15 222.51,-273.6 231.06,-279.85 233.09,-273.15"/>
</g>
<!-- Node6 -->
<g id="node6" class="node">
<title>Node6</title>
<g id="a_node6"><a xlink:href="a02742.html" target="_top" xlink:title=" ">
<polygon fill="white" stroke="black" points="276,-188.5 276,-226.5 388,-226.5 388,-188.5 276,-188.5"/>
<text text-anchor="start" x="284" y="-215.3" font-family="Helvetica,sans-Serif" font-size="9.00">std::basic_istream</text>
<text text-anchor="start" x="284" y="-205.3" font-family="Helvetica,sans-Serif" font-size="9.00">&lt; _CharT, char_traits</text>
<text text-anchor="middle" x="332" y="-195.3" font-family="Helvetica,sans-Serif" font-size="9.00">&lt; _CharT &gt; &gt;</text>
</a>
</g>
</g>
<!-- Node5&#45;&gt;Node6 -->
<g id="edge5" class="edge">
<title>Node5&#45;&gt;Node6</title>
<path fill="none" stroke="midnightblue" d="M250.43,-207.5C259.02,-207.5 267.66,-207.5 275.94,-207.5"/>
<polygon fill="midnightblue" stroke="midnightblue" points="250.39,-204 240.39,-207.5 250.39,-211 250.39,-204"/>
</g>
<!-- Node8 -->
<g id="node8" class="node">
<title>Node8</title>
<g id="a_node8"><a xlink:href="a02742.html" target="_top" xlink:title="Template class basic_istream.">
<polygon fill="white" stroke="black" points="281,-141.5 281,-169.5 383,-169.5 383,-141.5 281,-141.5"/>
<text text-anchor="start" x="289" y="-158.3" font-family="Helvetica,sans-Serif" font-size="9.00">std::basic_istream</text>
<text text-anchor="middle" x="332" y="-148.3" font-family="Helvetica,sans-Serif" font-size="9.00">&lt; _CharT, _Traits &gt;</text>
</a>
</g>
</g>
<!-- Node7&#45;&gt;Node8 -->
<g id="edge7" class="edge">
<title>Node7&#45;&gt;Node8</title>
<path fill="none" stroke="midnightblue" d="M246.11,-155.5C257.8,-155.5 269.72,-155.5 280.78,-155.5"/>
<polygon fill="midnightblue" stroke="midnightblue" points="245.93,-152 235.93,-155.5 245.93,-159 245.93,-152"/>
</g>
<!-- Node15 -->
<g id="node15" class="node">
<title>Node15</title>
<g id="a_node15"><a xlink:href="a02746.html" target="_top" xlink:title="Template class basic_ostream.">
<polygon fill="white" stroke="black" points="281,-94.5 281,-122.5 383,-122.5 383,-94.5 281,-94.5"/>
<text text-anchor="start" x="289" y="-111.3" font-family="Helvetica,sans-Serif" font-size="9.00">std::basic_ostream</text>
<text text-anchor="middle" x="332" y="-101.3" font-family="Helvetica,sans-Serif" font-size="9.00">&lt; _CharT, _Traits &gt;</text>
</a>
</g>
</g>
<!-- Node7&#45;&gt;Node15 -->
<g id="edge14" class="edge">
<title>Node7&#45;&gt;Node15</title>
<path fill="none" stroke="midnightblue" d="M232.43,-138.39C249.64,-133.17 268.35,-127.5 284.79,-122.51"/>
<polygon fill="midnightblue" stroke="midnightblue" points="231.06,-135.15 222.51,-141.4 233.09,-141.85 231.06,-135.15"/>
</g>
<!-- Node9 -->
<g id="node9" class="node">
<title>Node9</title>
<g id="a_node9"><a xlink:href="a02750.html" target="_top" xlink:title=" ">
<polygon fill="white" stroke="black" points="439,-141.5 439,-169.5 543,-169.5 543,-141.5 439,-141.5"/>
<text text-anchor="start" x="447" y="-158.3" font-family="Helvetica,sans-Serif" font-size="9.00">std::basic_iostream</text>
<text text-anchor="middle" x="491" y="-148.3" font-family="Helvetica,sans-Serif" font-size="9.00">&lt; char &gt;</text>
</a>
</g>
</g>
<!-- Node8&#45;&gt;Node9 -->
<g id="edge8" class="edge">
<title>Node8&#45;&gt;Node9</title>
<path fill="none" stroke="midnightblue" d="M393.31,-155.5C408.3,-155.5 424.24,-155.5 438.75,-155.5"/>
<polygon fill="midnightblue" stroke="midnightblue" points="393.11,-152 383.11,-155.5 393.11,-159 393.11,-152"/>
</g>
<!-- Node10 -->
<g id="node10" class="node">
<title>Node10</title>
<g id="a_node10"><a xlink:href="a02366.html" target="_top" xlink:title="Controlling input for files.">
<polygon fill="white" stroke="black" points="440,-235.5 440,-263.5 542,-263.5 542,-235.5 440,-235.5"/>
<text text-anchor="start" x="448" y="-252.3" font-family="Helvetica,sans-Serif" font-size="9.00">std::basic_ifstream</text>
<text text-anchor="middle" x="491" y="-242.3" font-family="Helvetica,sans-Serif" font-size="9.00">&lt; _CharT, _Traits &gt;</text>
</a>
</g>
</g>
<!-- Node8&#45;&gt;Node10 -->
<g id="edge9" class="edge">
<title>Node8&#45;&gt;Node10</title>
<path fill="none" stroke="midnightblue" d="M380.8,-174.48C383.31,-176.05 385.73,-177.72 388,-179.5 408.72,-195.72 402.68,-211.08 424,-226.5 428.82,-229.98 434.21,-232.98 439.78,-235.54"/>
<polygon fill="midnightblue" stroke="midnightblue" points="382.42,-171.38 371.98,-169.53 378.99,-177.48 382.42,-171.38"/>
</g>
<!-- Node11 -->
<g id="node11" class="node">
<title>Node11</title>
<g id="a_node11"><a xlink:href="a02750.html" target="_top" xlink:title="Template class basic_iostream.">
<polygon fill="white" stroke="black" points="439,-94.5 439,-122.5 543,-122.5 543,-94.5 439,-94.5"/>
<text text-anchor="start" x="447" y="-111.3" font-family="Helvetica,sans-Serif" font-size="9.00">std::basic_iostream</text>
<text text-anchor="middle" x="491" y="-101.3" font-family="Helvetica,sans-Serif" font-size="9.00">&lt; _CharT, _Traits &gt;</text>
</a>
</g>
</g>
<!-- Node8&#45;&gt;Node11 -->
<g id="edge10" class="edge">
<title>Node8&#45;&gt;Node11</title>
<path fill="none" stroke="midnightblue" d="M390.16,-138.39C407.59,-133.17 426.54,-127.5 443.2,-122.51"/>
<polygon fill="midnightblue" stroke="midnightblue" points="388.68,-135.18 380.11,-141.4 390.69,-141.88 388.68,-135.18"/>
</g>
<!-- Node14 -->
<g id="node14" class="node">
<title>Node14</title>
<g id="a_node14"><a xlink:href="a02758.html" target="_top" xlink:title="Controlling input for std::string.">
<polygon fill="white" stroke="black" points="424,-188.5 424,-216.5 558,-216.5 558,-188.5 424,-188.5"/>
<text text-anchor="start" x="432" y="-205.3" font-family="Helvetica,sans-Serif" font-size="9.00">std::basic_istringstream</text>
<text text-anchor="middle" x="491" y="-195.3" font-family="Helvetica,sans-Serif" font-size="9.00">&lt; _CharT, _Traits, _Alloc &gt;</text>
</a>
</g>
</g>
<!-- Node8&#45;&gt;Node14 -->
<g id="edge13" class="edge">
<title>Node8&#45;&gt;Node14</title>
<path fill="none" stroke="midnightblue" d="M390.16,-172.61C407.59,-177.83 426.54,-183.5 443.2,-188.49"/>
<polygon fill="midnightblue" stroke="midnightblue" points="390.69,-169.12 380.11,-169.6 388.68,-175.82 390.69,-169.12"/>
</g>
<!-- Node12 -->
<g id="node12" class="node">
<title>Node12</title>
<g id="a_node12"><a xlink:href="a02374.html" target="_top" xlink:title="Controlling input and output for files.">
<polygon fill="white" stroke="black" points="610,-117.5 610,-145.5 712,-145.5 712,-117.5 610,-117.5"/>
<text text-anchor="start" x="618" y="-134.3" font-family="Helvetica,sans-Serif" font-size="9.00">std::basic_fstream</text>
<text text-anchor="middle" x="661" y="-124.3" font-family="Helvetica,sans-Serif" font-size="9.00">&lt; _CharT, _Traits &gt;</text>
</a>
</g>
</g>
<!-- Node11&#45;&gt;Node12 -->
<g id="edge11" class="edge">
<title>Node11&#45;&gt;Node12</title>
<path fill="none" stroke="midnightblue" d="M553.44,-116.91C571.99,-119.45 592.14,-122.21 609.86,-124.64"/>
<polygon fill="midnightblue" stroke="midnightblue" points="553.7,-113.41 543.32,-115.53 552.75,-120.35 553.7,-113.41"/>
</g>
<!-- Node13 -->
<g id="node13" class="node">
<title>Node13</title>
<g id="a_node13"><a xlink:href="a02766.html" target="_top" xlink:title="Controlling input and output for std::string.">
<polygon fill="white" stroke="black" points="594,-70.5 594,-98.5 728,-98.5 728,-70.5 594,-70.5"/>
<text text-anchor="start" x="602" y="-87.3" font-family="Helvetica,sans-Serif" font-size="9.00">std::basic_stringstream</text>
<text text-anchor="middle" x="661" y="-77.3" font-family="Helvetica,sans-Serif" font-size="9.00">&lt; _CharT, _Traits, _Alloc &gt;</text>
</a>
</g>
</g>
<!-- Node11&#45;&gt;Node13 -->
<g id="edge12" class="edge">
<title>Node11&#45;&gt;Node13</title>
<path fill="none" stroke="midnightblue" d="M553.23,-99.75C566.42,-97.87 580.43,-95.87 593.8,-93.96"/>
<polygon fill="midnightblue" stroke="midnightblue" points="552.72,-96.29 543.32,-101.17 553.71,-103.22 552.72,-96.29"/>
</g>
<!-- Node15&#45;&gt;Node9 -->
<g id="edge15" class="edge">
<title>Node15&#45;&gt;Node9</title>
<path fill="none" stroke="midnightblue" d="M390.16,-125.61C407.59,-130.83 426.54,-136.5 443.2,-141.49"/>
<polygon fill="midnightblue" stroke="midnightblue" points="390.69,-122.12 380.11,-122.6 388.68,-128.82 390.69,-122.12"/>
</g>
<!-- Node15&#45;&gt;Node11 -->
<g id="edge16" class="edge">
<title>Node15&#45;&gt;Node11</title>
<path fill="none" stroke="midnightblue" d="M393.31,-108.5C408.3,-108.5 424.24,-108.5 438.75,-108.5"/>
<polygon fill="midnightblue" stroke="midnightblue" points="393.11,-105 383.11,-108.5 393.11,-112 393.11,-105"/>
</g>
<!-- Node16 -->
<g id="node16" class="node">
<title>Node16</title>
<g id="a_node16"><a xlink:href="a02370.html" target="_top" xlink:title="Controlling output for files.">
<polygon fill="white" stroke="black" points="439,-47.5 439,-75.5 543,-75.5 543,-47.5 439,-47.5"/>
<text text-anchor="start" x="447" y="-64.3" font-family="Helvetica,sans-Serif" font-size="9.00">std::basic_ofstream</text>
<text text-anchor="middle" x="491" y="-54.3" font-family="Helvetica,sans-Serif" font-size="9.00">&lt; _CharT, _Traits &gt;</text>
</a>
</g>
</g>
<!-- Node15&#45;&gt;Node16 -->
<g id="edge17" class="edge">
<title>Node15&#45;&gt;Node16</title>
<path fill="none" stroke="midnightblue" d="M390.16,-91.39C407.59,-86.17 426.54,-80.5 443.2,-75.51"/>
<polygon fill="midnightblue" stroke="midnightblue" points="388.68,-88.18 380.11,-94.4 390.69,-94.88 388.68,-88.18"/>
</g>
<!-- Node17 -->
<g id="node17" class="node">
<title>Node17</title>
<g id="a_node17"><a xlink:href="a02762.html" target="_top" xlink:title="Controlling output for std::string.">
<polygon fill="white" stroke="black" points="424,-0.5 424,-28.5 558,-28.5 558,-0.5 424,-0.5"/>
<text text-anchor="start" x="432" y="-17.3" font-family="Helvetica,sans-Serif" font-size="9.00">std::basic_ostringstream</text>
<text text-anchor="middle" x="491" y="-7.3" font-family="Helvetica,sans-Serif" font-size="9.00">&lt; _CharT, _Traits, _Alloc &gt;</text>
</a>
</g>
</g>
<!-- Node15&#45;&gt;Node17 -->
<g id="edge18" class="edge">
<title>Node15&#45;&gt;Node17</title>
<path fill="none" stroke="midnightblue" d="M356.38,-87.26C373.98,-72.11 399.23,-52.11 424,-38.5 430.73,-34.8 438.15,-31.47 445.5,-28.55"/>
<polygon fill="midnightblue" stroke="midnightblue" points="353.61,-85.03 348.39,-94.25 358.22,-90.3 353.61,-85.03"/>
</g>
</g>
</svg>
