<?xml version="1.0" encoding="UTF-8" standalone="no"?>
<!DOCTYPE svg PUBLIC "-//W3C//DTD SVG 1.1//EN"
 "http://www.w3.org/Graphics/SVG/1.1/DTD/svg11.dtd">
<!-- Generated by graphviz version 2.50.0 (0)
 -->
<!-- Title: std::ctype&lt; char &gt; Pages: 1 -->
<svg width="206pt" height="147pt"
 viewBox="0.00 0.00 205.50 147.00" xmlns="http://www.w3.org/2000/svg" xmlns:xlink="http://www.w3.org/1999/xlink">
<g id="graph0" class="graph" transform="scale(1 1) rotate(0) translate(4 143)">
<title>std::ctype&lt; char &gt;</title>
<polygon fill="white" stroke="transparent" points="-4,4 -4,-143 201.5,-143 201.5,4 -4,4"/>
<!-- Node1 -->
<g id="node1" class="node">
<title>Node1</title>
<g id="a_node1"><a xlink:title="The ctype&lt;char&gt; specialization.">
<polygon fill="#bfbfbf" stroke="black" points="47.5,-65.5 47.5,-83.5 151.5,-83.5 151.5,-65.5 47.5,-65.5"/>
<text text-anchor="middle" x="99.5" y="-72.3" font-family="Helvetica,sans-Serif" font-size="9.00">std::ctype&lt; char &gt;</text>
</a>
</g>
</g>
<!-- Node4 -->
<g id="node4" class="node">
<title>Node4</title>
<g id="a_node4"><a xlink:href="a06350.html" target="_top" xlink:title="22.2.1.4 Class ctype_byname specializations.">
<polygon fill="white" stroke="black" points="44,-0.5 44,-28.5 155,-28.5 155,-0.5 44,-0.5"/>
<text text-anchor="start" x="52" y="-17.3" font-family="Helvetica,sans-Serif" font-size="9.00">std::ctype_byname&lt;</text>
<text text-anchor="middle" x="99.5" y="-7.3" font-family="Helvetica,sans-Serif" font-size="9.00"> char &gt;</text>
</a>
</g>
</g>
<!-- Node1&#45;&gt;Node4 -->
<g id="edge3" class="edge">
<title>Node1&#45;&gt;Node4</title>
<path fill="none" stroke="midnightblue" d="M99.5,-55.32C99.5,-46.75 99.5,-36.7 99.5,-28.84"/>
<polygon fill="midnightblue" stroke="midnightblue" points="96,-55.44 99.5,-65.44 103,-55.44 96,-55.44"/>
</g>
<!-- Node2 -->
<g id="node2" class="node">
<title>Node2</title>
<g id="a_node2"><a xlink:href="a06294.html" target="_top" xlink:title="Localization functionality base class.">
<polygon fill="white" stroke="black" points="0,-120.5 0,-138.5 91,-138.5 91,-120.5 0,-120.5"/>
<text text-anchor="middle" x="45.5" y="-127.3" font-family="Helvetica,sans-Serif" font-size="9.00">std::locale::facet</text>
</a>
</g>
</g>
<!-- Node2&#45;&gt;Node1 -->
<g id="edge1" class="edge">
<title>Node2&#45;&gt;Node1</title>
<path fill="none" stroke="midnightblue" d="M61.18,-113.11C71.03,-103.44 83.33,-91.37 91.3,-83.55"/>
<polygon fill="midnightblue" stroke="midnightblue" points="58.62,-110.72 53.94,-120.22 63.53,-115.71 58.62,-110.72"/>
</g>
<!-- Node3 -->
<g id="node3" class="node">
<title>Node3</title>
<g id="a_node3"><a xlink:href="a09410.html" target="_top" xlink:title="Base class for ctype.">
<polygon fill="white" stroke="black" points="109.5,-120.5 109.5,-138.5 197.5,-138.5 197.5,-120.5 109.5,-120.5"/>
<text text-anchor="middle" x="153.5" y="-127.3" font-family="Helvetica,sans-Serif" font-size="9.00">std::ctype_base</text>
</a>
</g>
</g>
<!-- Node3&#45;&gt;Node1 -->
<g id="edge2" class="edge">
<title>Node3&#45;&gt;Node1</title>
<path fill="none" stroke="midnightblue" d="M137.82,-113.11C127.97,-103.44 115.67,-91.37 107.7,-83.55"/>
<polygon fill="midnightblue" stroke="midnightblue" points="135.47,-115.71 145.06,-120.22 140.38,-110.72 135.47,-115.71"/>
</g>
</g>
</svg>
