<?xml version="1.0" encoding="UTF-8" standalone="no"?>
<!DOCTYPE svg PUBLIC "-//W3C//DTD SVG 1.1//EN"
 "http://www.w3.org/Graphics/SVG/1.1/DTD/svg11.dtd">
<!-- Generated by graphviz version 2.50.0 (0)
 -->
<!-- Title: std::ctype&lt; wchar_t &gt; Pages: 1 -->
<svg width="206pt" height="147pt"
 viewBox="0.00 0.00 205.50 147.00" xmlns="http://www.w3.org/2000/svg" xmlns:xlink="http://www.w3.org/1999/xlink">
<g id="graph0" class="graph" transform="scale(1 1) rotate(0) translate(4 143)">
<title>std::ctype&lt; wchar_t &gt;</title>
<polygon fill="white" stroke="transparent" points="-4,4 -4,-143 201.5,-143 201.5,4 -4,4"/>
<!-- Node1 -->
<g id="node1" class="node">
<title>Node1</title>
<g id="a_node1"><a xlink:title="The ctype&lt;wchar_t&gt; specialization.">
<polygon fill="#bfbfbf" stroke="black" points="40,-0.5 40,-18.5 159,-18.5 159,-0.5 40,-0.5"/>
<text text-anchor="middle" x="99.5" y="-7.3" font-family="Helvetica,sans-Serif" font-size="9.00">std::ctype&lt; wchar_t &gt;</text>
</a>
</g>
</g>
<!-- Node2 -->
<g id="node2" class="node">
<title>Node2</title>
<g id="a_node2"><a xlink:href="a06330.html" target="_top" xlink:title=" ">
<polygon fill="white" stroke="black" points="43,-55.5 43,-83.5 156,-83.5 156,-55.5 43,-55.5"/>
<text text-anchor="start" x="51" y="-72.3" font-family="Helvetica,sans-Serif" font-size="9.00">std::__ctype_abstract</text>
<text text-anchor="middle" x="99.5" y="-62.3" font-family="Helvetica,sans-Serif" font-size="9.00">_base&lt; wchar_t &gt;</text>
</a>
</g>
</g>
<!-- Node2&#45;&gt;Node1 -->
<g id="edge1" class="edge">
<title>Node2&#45;&gt;Node1</title>
<path fill="none" stroke="midnightblue" d="M99.5,-45.32C99.5,-35.94 99.5,-25.7 99.5,-18.77"/>
<polygon fill="midnightblue" stroke="midnightblue" points="96,-45.34 99.5,-55.34 103,-45.34 96,-45.34"/>
</g>
<!-- Node3 -->
<g id="node3" class="node">
<title>Node3</title>
<g id="a_node3"><a xlink:href="a06294.html" target="_top" xlink:title="Localization functionality base class.">
<polygon fill="white" stroke="black" points="0,-120.5 0,-138.5 91,-138.5 91,-120.5 0,-120.5"/>
<text text-anchor="middle" x="45.5" y="-127.3" font-family="Helvetica,sans-Serif" font-size="9.00">std::locale::facet</text>
</a>
</g>
</g>
<!-- Node3&#45;&gt;Node2 -->
<g id="edge2" class="edge">
<title>Node3&#45;&gt;Node2</title>
<path fill="none" stroke="midnightblue" d="M60.05,-112.87C68.5,-103.8 79.02,-92.49 87.08,-83.84"/>
<polygon fill="midnightblue" stroke="midnightblue" points="57.26,-110.73 53.01,-120.44 62.38,-115.5 57.26,-110.73"/>
</g>
<!-- Node4 -->
<g id="node4" class="node">
<title>Node4</title>
<g id="a_node4"><a xlink:href="a09410.html" target="_top" xlink:title="Base class for ctype.">
<polygon fill="white" stroke="black" points="109.5,-120.5 109.5,-138.5 197.5,-138.5 197.5,-120.5 109.5,-120.5"/>
<text text-anchor="middle" x="153.5" y="-127.3" font-family="Helvetica,sans-Serif" font-size="9.00">std::ctype_base</text>
</a>
</g>
</g>
<!-- Node4&#45;&gt;Node2 -->
<g id="edge3" class="edge">
<title>Node4&#45;&gt;Node2</title>
<path fill="none" stroke="midnightblue" d="M138.95,-112.87C130.5,-103.8 119.98,-92.49 111.92,-83.84"/>
<polygon fill="midnightblue" stroke="midnightblue" points="136.62,-115.5 145.99,-120.44 141.74,-110.73 136.62,-115.5"/>
</g>
</g>
</svg>
