<?xml version="1.0" encoding="UTF-8" standalone="no"?>
<!DOCTYPE svg PUBLIC "-//W3C//DTD SVG 1.1//EN"
 "http://www.w3.org/Graphics/SVG/1.1/DTD/svg11.dtd">
<!-- Generated by graphviz version 2.50.0 (0)
 -->
<!-- Title: std::messages_base Pages: 1 -->
<svg width="141pt" height="147pt"
 viewBox="0.00 0.00 141.00 147.00" xmlns="http://www.w3.org/2000/svg" xmlns:xlink="http://www.w3.org/1999/xlink">
<g id="graph0" class="graph" transform="scale(1 1) rotate(0) translate(4 143)">
<title>std::messages_base</title>
<polygon fill="white" stroke="transparent" points="-4,4 -4,-143 137,-143 137,4 -4,4"/>
<!-- Node1 -->
<g id="node1" class="node">
<title>Node1</title>
<g id="a_node1"><a xlink:title="Messages facet base class providing catalog typedef.">
<polygon fill="#bfbfbf" stroke="black" points="13,-120.5 13,-138.5 120,-138.5 120,-120.5 13,-120.5"/>
<text text-anchor="middle" x="66.5" y="-127.3" font-family="Helvetica,sans-Serif" font-size="9.00">std::messages_base</text>
</a>
</g>
</g>
<!-- Node2 -->
<g id="node2" class="node">
<title>Node2</title>
<g id="a_node2"><a xlink:href="a06454.html" target="_top" xlink:title="Primary class template messages.">
<polygon fill="white" stroke="black" points="0,-65.5 0,-83.5 133,-83.5 133,-65.5 0,-65.5"/>
<text text-anchor="middle" x="66.5" y="-72.3" font-family="Helvetica,sans-Serif" font-size="9.00">std::messages&lt; _CharT &gt;</text>
</a>
</g>
</g>
<!-- Node1&#45;&gt;Node2 -->
<g id="edge1" class="edge">
<title>Node1&#45;&gt;Node2</title>
<path fill="none" stroke="midnightblue" d="M66.5,-110.17C66.5,-101.09 66.5,-90.59 66.5,-83.55"/>
<polygon fill="midnightblue" stroke="midnightblue" points="63,-110.22 66.5,-120.22 70,-110.22 63,-110.22"/>
</g>
<!-- Node3 -->
<g id="node3" class="node">
<title>Node3</title>
<g id="a_node3"><a xlink:href="a06458.html" target="_top" xlink:title="class messages_byname [22.2.7.2].">
<polygon fill="white" stroke="black" points="5.5,-0.5 5.5,-28.5 127.5,-28.5 127.5,-0.5 5.5,-0.5"/>
<text text-anchor="start" x="13.5" y="-17.3" font-family="Helvetica,sans-Serif" font-size="9.00">std::messages_byname</text>
<text text-anchor="middle" x="66.5" y="-7.3" font-family="Helvetica,sans-Serif" font-size="9.00">&lt; _CharT &gt;</text>
</a>
</g>
</g>
<!-- Node2&#45;&gt;Node3 -->
<g id="edge2" class="edge">
<title>Node2&#45;&gt;Node3</title>
<path fill="none" stroke="midnightblue" d="M66.5,-55.32C66.5,-46.75 66.5,-36.7 66.5,-28.84"/>
<polygon fill="midnightblue" stroke="midnightblue" points="63,-55.44 66.5,-65.44 70,-55.44 63,-55.44"/>
</g>
</g>
</svg>
