<?xml version="1.0" encoding="UTF-8" standalone="no"?>
<!DOCTYPE svg PUBLIC "-//W3C//DTD SVG 1.1//EN"
 "http://www.w3.org/Graphics/SVG/1.1/DTD/svg11.dtd">
<!-- Generated by graphviz version 2.50.0 (0)
 -->
<!-- Title: std::__new_allocator&lt; _Tp &gt; Pages: 1 -->
<svg width="398pt" height="102pt"
 viewBox="0.00 0.00 398.00 102.00" xmlns="http://www.w3.org/2000/svg" xmlns:xlink="http://www.w3.org/1999/xlink">
<g id="graph0" class="graph" transform="scale(1 1) rotate(0) translate(4 98)">
<title>std::__new_allocator&lt; _Tp &gt;</title>
<polygon fill="white" stroke="transparent" points="-4,4 -4,-98 394,-98 394,4 -4,4"/>
<!-- Node1 -->
<g id="node1" class="node">
<title>Node1</title>
<g id="a_node1"><a xlink:title="An allocator that uses global new, as per C++03 [20.4.1].">
<polygon fill="#bfbfbf" stroke="black" points="140.5,-65.5 140.5,-93.5 247.5,-93.5 247.5,-65.5 140.5,-65.5"/>
<text text-anchor="start" x="148.5" y="-82.3" font-family="Helvetica,sans-Serif" font-size="9.00">std::__new_allocator</text>
<text text-anchor="middle" x="194" y="-72.3" font-family="Helvetica,sans-Serif" font-size="9.00">&lt; _Tp &gt;</text>
</a>
</g>
</g>
<!-- Node2 -->
<g id="node2" class="node">
<title>Node2</title>
<g id="a_node2"><a xlink:href="a05054.html" target="_top" xlink:title=" ">
<polygon fill="white" stroke="black" points="0,-0.5 0,-28.5 110,-28.5 110,-0.5 0,-0.5"/>
<text text-anchor="start" x="8" y="-17.3" font-family="Helvetica,sans-Serif" font-size="9.00">std::allocator&lt; value</text>
<text text-anchor="middle" x="55" y="-7.3" font-family="Helvetica,sans-Serif" font-size="9.00">_type &gt;</text>
</a>
</g>
</g>
<!-- Node1&#45;&gt;Node2 -->
<g id="edge1" class="edge">
<title>Node1&#45;&gt;Node2</title>
<path fill="none" stroke="midnightblue" d="M155.83,-61.2C133.06,-50.88 104.63,-37.99 83.76,-28.54"/>
<polygon fill="midnightblue" stroke="midnightblue" points="154.65,-64.51 165.2,-65.45 157.54,-58.13 154.65,-64.51"/>
</g>
<!-- Node3 -->
<g id="node3" class="node">
<title>Node3</title>
<g id="a_node3"><a xlink:href="a12210.html" target="_top" xlink:title="An allocator that uses global new, as per C++03 [20.4.1].">
<polygon fill="white" stroke="black" points="128.5,-0.5 128.5,-28.5 259.5,-28.5 259.5,-0.5 128.5,-0.5"/>
<text text-anchor="start" x="136.5" y="-17.3" font-family="Helvetica,sans-Serif" font-size="9.00">__gnu_cxx::new_allocator</text>
<text text-anchor="middle" x="194" y="-7.3" font-family="Helvetica,sans-Serif" font-size="9.00">&lt; _Tp &gt;</text>
</a>
</g>
</g>
<!-- Node1&#45;&gt;Node3 -->
<g id="edge2" class="edge">
<title>Node1&#45;&gt;Node3</title>
<path fill="none" stroke="midnightblue" d="M194,-55.16C194,-46.17 194,-36.22 194,-28.54"/>
<polygon fill="midnightblue" stroke="midnightblue" points="190.5,-55.45 194,-65.45 197.5,-55.45 190.5,-55.45"/>
</g>
<!-- Node4 -->
<g id="node4" class="node">
<title>Node4</title>
<g id="a_node4"><a xlink:href="a05054.html" target="_top" xlink:title="The standard allocator, as per C++03 [20.4.1].">
<polygon fill="white" stroke="black" points="278,-5.5 278,-23.5 390,-23.5 390,-5.5 278,-5.5"/>
<text text-anchor="middle" x="334" y="-12.3" font-family="Helvetica,sans-Serif" font-size="9.00">std::allocator&lt; _Tp &gt;</text>
</a>
</g>
</g>
<!-- Node1&#45;&gt;Node4 -->
<g id="edge3" class="edge">
<title>Node1&#45;&gt;Node4</title>
<path fill="none" stroke="midnightblue" d="M232.29,-61.27C259.61,-48.98 295.09,-33.01 316.12,-23.55"/>
<polygon fill="midnightblue" stroke="midnightblue" points="230.69,-58.15 223.01,-65.45 233.56,-64.53 230.69,-58.15"/>
</g>
</g>
</svg>
