<?xml version="1.0" encoding="UTF-8" standalone="no"?>
<!DOCTYPE svg PUBLIC "-//W3C//DTD SVG 1.1//EN"
 "http://www.w3.org/Graphics/SVG/1.1/DTD/svg11.dtd">
<!-- Generated by graphviz version 2.50.0 (0)
 -->
<!-- Title: std::time_put&lt; _CharT, _OutIter &gt; Pages: 1 -->
<svg width="130pt" height="157pt"
 viewBox="0.00 0.00 130.00 157.00" xmlns="http://www.w3.org/2000/svg" xmlns:xlink="http://www.w3.org/1999/xlink">
<g id="graph0" class="graph" transform="scale(1 1) rotate(0) translate(4 153)">
<title>std::time_put&lt; _CharT, _OutIter &gt;</title>
<polygon fill="white" stroke="transparent" points="-4,4 -4,-153 126,-153 126,4 -4,4"/>
<!-- Node1 -->
<g id="node1" class="node">
<title>Node1</title>
<g id="a_node1"><a xlink:title="Primary class template time_put.">
<polygon fill="#bfbfbf" stroke="black" points="0,-65.5 0,-93.5 122,-93.5 122,-65.5 0,-65.5"/>
<text text-anchor="start" x="8" y="-82.3" font-family="Helvetica,sans-Serif" font-size="9.00">std::time_put&lt; _CharT,</text>
<text text-anchor="middle" x="61" y="-72.3" font-family="Helvetica,sans-Serif" font-size="9.00"> _OutIter &gt;</text>
</a>
</g>
</g>
<!-- Node3 -->
<g id="node3" class="node">
<title>Node3</title>
<g id="a_node3"><a xlink:href="a06418.html" target="_top" xlink:title="class time_put_byname [22.2.5.4].">
<polygon fill="white" stroke="black" points="1.5,-0.5 1.5,-28.5 120.5,-28.5 120.5,-0.5 1.5,-0.5"/>
<text text-anchor="start" x="9.5" y="-17.3" font-family="Helvetica,sans-Serif" font-size="9.00">std::time_put_byname</text>
<text text-anchor="middle" x="61" y="-7.3" font-family="Helvetica,sans-Serif" font-size="9.00">&lt; _CharT, _OutIter &gt;</text>
</a>
</g>
</g>
<!-- Node1&#45;&gt;Node3 -->
<g id="edge2" class="edge">
<title>Node1&#45;&gt;Node3</title>
<path fill="none" stroke="midnightblue" d="M61,-55.16C61,-46.17 61,-36.22 61,-28.54"/>
<polygon fill="midnightblue" stroke="midnightblue" points="57.5,-55.45 61,-65.45 64.5,-55.45 57.5,-55.45"/>
</g>
<!-- Node2 -->
<g id="node2" class="node">
<title>Node2</title>
<g id="a_node2"><a xlink:href="a06294.html" target="_top" xlink:title="Localization functionality base class.">
<polygon fill="white" stroke="black" points="15.5,-130.5 15.5,-148.5 106.5,-148.5 106.5,-130.5 15.5,-130.5"/>
<text text-anchor="middle" x="61" y="-137.3" font-family="Helvetica,sans-Serif" font-size="9.00">std::locale::facet</text>
</a>
</g>
</g>
<!-- Node2&#45;&gt;Node1 -->
<g id="edge1" class="edge">
<title>Node2&#45;&gt;Node1</title>
<path fill="none" stroke="midnightblue" d="M61,-120.32C61,-111.75 61,-101.7 61,-93.84"/>
<polygon fill="midnightblue" stroke="midnightblue" points="57.5,-120.44 61,-130.44 64.5,-120.44 57.5,-120.44"/>
</g>
</g>
</svg>
