<?xml version="1.0" encoding="UTF-8" standalone="no"?>
<!DOCTYPE svg PUBLIC "-//W3C//DTD SVG 1.1//EN"
 "http://www.w3.org/Graphics/SVG/1.1/DTD/svg11.dtd">
<!-- Generated by graphviz version 2.50.0 (0)
 -->
<!-- Title: std::messages&lt; _CharT &gt; Pages: 1 -->
<svg width="224pt" height="147pt"
 viewBox="0.00 0.00 224.00 147.00" xmlns="http://www.w3.org/2000/svg" xmlns:xlink="http://www.w3.org/1999/xlink">
<g id="graph0" class="graph" transform="scale(1 1) rotate(0) translate(4 143)">
<title>std::messages&lt; _CharT &gt;</title>
<polygon fill="white" stroke="transparent" points="-4,4 -4,-143 220,-143 220,4 -4,4"/>
<!-- Node1 -->
<g id="node1" class="node">
<title>Node1</title>
<g id="a_node1"><a xlink:title="Primary class template messages.">
<polygon fill="#bfbfbf" stroke="black" points="37,-65.5 37,-83.5 170,-83.5 170,-65.5 37,-65.5"/>
<text text-anchor="middle" x="103.5" y="-72.3" font-family="Helvetica,sans-Serif" font-size="9.00">std::messages&lt; _CharT &gt;</text>
</a>
</g>
</g>
<!-- Node4 -->
<g id="node4" class="node">
<title>Node4</title>
<g id="a_node4"><a xlink:href="a06458.html" target="_top" xlink:title="class messages_byname [22.2.7.2].">
<polygon fill="white" stroke="black" points="42.5,-0.5 42.5,-28.5 164.5,-28.5 164.5,-0.5 42.5,-0.5"/>
<text text-anchor="start" x="50.5" y="-17.3" font-family="Helvetica,sans-Serif" font-size="9.00">std::messages_byname</text>
<text text-anchor="middle" x="103.5" y="-7.3" font-family="Helvetica,sans-Serif" font-size="9.00">&lt; _CharT &gt;</text>
</a>
</g>
</g>
<!-- Node1&#45;&gt;Node4 -->
<g id="edge3" class="edge">
<title>Node1&#45;&gt;Node4</title>
<path fill="none" stroke="midnightblue" d="M103.5,-55.32C103.5,-46.75 103.5,-36.7 103.5,-28.84"/>
<polygon fill="midnightblue" stroke="midnightblue" points="100,-55.44 103.5,-65.44 107,-55.44 100,-55.44"/>
</g>
<!-- Node2 -->
<g id="node2" class="node">
<title>Node2</title>
<g id="a_node2"><a xlink:href="a06294.html" target="_top" xlink:title="Localization functionality base class.">
<polygon fill="white" stroke="black" points="0,-120.5 0,-138.5 91,-138.5 91,-120.5 0,-120.5"/>
<text text-anchor="middle" x="45.5" y="-127.3" font-family="Helvetica,sans-Serif" font-size="9.00">std::locale::facet</text>
</a>
</g>
</g>
<!-- Node2&#45;&gt;Node1 -->
<g id="edge1" class="edge">
<title>Node2&#45;&gt;Node1</title>
<path fill="none" stroke="midnightblue" d="M62.03,-113.4C72.66,-103.68 86.05,-91.45 94.69,-83.55"/>
<polygon fill="midnightblue" stroke="midnightblue" points="59.58,-110.89 54.56,-120.22 64.31,-116.06 59.58,-110.89"/>
</g>
<!-- Node3 -->
<g id="node3" class="node">
<title>Node3</title>
<g id="a_node3"><a xlink:href="a06450.html" target="_top" xlink:title="Messages facet base class providing catalog typedef.">
<polygon fill="white" stroke="black" points="109,-120.5 109,-138.5 216,-138.5 216,-120.5 109,-120.5"/>
<text text-anchor="middle" x="162.5" y="-127.3" font-family="Helvetica,sans-Serif" font-size="9.00">std::messages_base</text>
</a>
</g>
</g>
<!-- Node3&#45;&gt;Node1 -->
<g id="edge2" class="edge">
<title>Node3&#45;&gt;Node1</title>
<path fill="none" stroke="midnightblue" d="M145.96,-113.64C135.14,-103.92 121.41,-91.59 112.55,-83.63"/>
<polygon fill="midnightblue" stroke="midnightblue" points="143.76,-116.37 153.54,-120.45 148.44,-111.16 143.76,-116.37"/>
</g>
</g>
</svg>
