<?xml version="1.0" encoding="UTF-8" standalone="no"?>
<!DOCTYPE svg PUBLIC "-//W3C//DTD SVG 1.1//EN"
 "http://www.w3.org/Graphics/SVG/1.1/DTD/svg11.dtd">
<!-- Generated by graphviz version 2.50.0 (0)
 -->
<!-- Title: std::match_results&lt; _Bi_iter, _Alloc &gt; Pages: 1 -->
<svg width="160pt" height="197pt"
 viewBox="0.00 0.00 160.00 197.00" xmlns="http://www.w3.org/2000/svg" xmlns:xlink="http://www.w3.org/1999/xlink">
<g id="graph0" class="graph" transform="scale(1 1) rotate(0) translate(4 193)">
<title>std::match_results&lt; _Bi_iter, _Alloc &gt;</title>
<polygon fill="white" stroke="transparent" points="-4,4 -4,-193 156,-193 156,4 -4,4"/>
<!-- Node1 -->
<g id="node1" class="node">
<title>Node1</title>
<g id="a_node1"><a xlink:title="The results of a match or search operation.">
<polygon fill="#bfbfbf" stroke="black" points="25.5,-0.5 25.5,-28.5 126.5,-28.5 126.5,-0.5 25.5,-0.5"/>
<text text-anchor="start" x="33.5" y="-17.3" font-family="Helvetica,sans-Serif" font-size="9.00">std::match_results</text>
<text text-anchor="middle" x="76" y="-7.3" font-family="Helvetica,sans-Serif" font-size="9.00">&lt; _Bi_iter, _Alloc &gt;</text>
</a>
</g>
</g>
<!-- Node2 -->
<g id="node2" class="node">
<title>Node2</title>
<g id="a_node2"><a xlink:href="a08862.html" target="_top" xlink:title=" ">
<polygon fill="white" stroke="black" points="0,-65.5 0,-103.5 152,-103.5 152,-65.5 0,-65.5"/>
<text text-anchor="start" x="8" y="-92.3" font-family="Helvetica,sans-Serif" font-size="9.00">std::vector&lt; sub_match</text>
<text text-anchor="start" x="8" y="-82.3" font-family="Helvetica,sans-Serif" font-size="9.00">&lt; _Bi_iter &gt;, allocator</text>
<text text-anchor="middle" x="76" y="-72.3" font-family="Helvetica,sans-Serif" font-size="9.00">&lt; sub_match&lt; _Bi_iter &gt; &gt; &gt;</text>
</a>
</g>
</g>
<!-- Node2&#45;&gt;Node1 -->
<g id="edge1" class="edge">
<title>Node2&#45;&gt;Node1</title>
<path fill="none" stroke="#8b1a1a" d="M76,-55.01C76,-45.92 76,-36.29 76,-28.81"/>
<polygon fill="#8b1a1a" stroke="#8b1a1a" points="72.5,-55.28 76,-65.28 79.5,-55.28 72.5,-55.28"/>
</g>
<!-- Node3 -->
<g id="node3" class="node">
<title>Node3</title>
<g id="a_node3"><a xlink:href="a08850.html" target="_top" xlink:title=" ">
<polygon fill="white" stroke="black" points="10,-140.5 10,-188.5 142,-188.5 142,-140.5 10,-140.5"/>
<text text-anchor="start" x="18" y="-177.3" font-family="Helvetica,sans-Serif" font-size="9.00">std::_Vector_base&lt;</text>
<text text-anchor="start" x="18" y="-167.3" font-family="Helvetica,sans-Serif" font-size="9.00"> sub_match&lt; _Bi_iter</text>
<text text-anchor="start" x="18" y="-157.3" font-family="Helvetica,sans-Serif" font-size="9.00"> &gt;, allocator&lt; sub_match</text>
<text text-anchor="middle" x="76" y="-147.3" font-family="Helvetica,sans-Serif" font-size="9.00">&lt; _Bi_iter &gt; &gt; &gt;</text>
</a>
</g>
</g>
<!-- Node3&#45;&gt;Node2 -->
<g id="edge2" class="edge">
<title>Node3&#45;&gt;Node2</title>
<path fill="none" stroke="darkgreen" d="M76,-129.84C76,-120.85 76,-111.48 76,-103.68"/>
<polygon fill="darkgreen" stroke="darkgreen" points="72.5,-130.1 76,-140.1 79.5,-130.1 72.5,-130.1"/>
</g>
</g>
</svg>
