<?xml version="1.0" encoding="UTF-8" standalone="no"?>
<!DOCTYPE svg PUBLIC "-//W3C//DTD SVG 1.1//EN"
 "http://www.w3.org/Graphics/SVG/1.1/DTD/svg11.dtd">
<!-- Generated by graphviz version 2.50.0 (0)
 -->
<!-- Title: std::deque&lt; _Tp, _Alloc &gt; Pages: 1 -->
<svg width="142pt" height="102pt"
 viewBox="0.00 0.00 142.00 102.00" xmlns="http://www.w3.org/2000/svg" xmlns:xlink="http://www.w3.org/1999/xlink">
<g id="graph0" class="graph" transform="scale(1 1) rotate(0) translate(4 98)">
<title>std::deque&lt; _Tp, _Alloc &gt;</title>
<polygon fill="white" stroke="transparent" points="-4,4 -4,-98 138,-98 138,4 -4,4"/>
<!-- Node1 -->
<g id="node1" class="node">
<title>Node1</title>
<g id="a_node1"><a xlink:title="A standard container using fixed&#45;size memory allocation and constant&#45;time manipulation of elements at...">
<polygon fill="#bfbfbf" stroke="black" points="0,-0.5 0,-18.5 134,-18.5 134,-0.5 0,-0.5"/>
<text text-anchor="middle" x="67" y="-7.3" font-family="Helvetica,sans-Serif" font-size="9.00">std::deque&lt; _Tp, _Alloc &gt;</text>
</a>
</g>
</g>
<!-- Node2 -->
<g id="node2" class="node">
<title>Node2</title>
<g id="a_node2"><a xlink:href="a08186.html" target="_top" xlink:title=" ">
<polygon fill="white" stroke="black" points="13.5,-55.5 13.5,-93.5 120.5,-93.5 120.5,-55.5 13.5,-55.5"/>
<text text-anchor="start" x="21.5" y="-82.3" font-family="Helvetica,sans-Serif" font-size="9.00">std::_Deque_base&lt; </text>
<text text-anchor="start" x="21.5" y="-72.3" font-family="Helvetica,sans-Serif" font-size="9.00">_Tp, std::allocator</text>
<text text-anchor="middle" x="67" y="-62.3" font-family="Helvetica,sans-Serif" font-size="9.00">&lt; _Tp &gt; &gt;</text>
</a>
</g>
</g>
<!-- Node2&#45;&gt;Node1 -->
<g id="edge1" class="edge">
<title>Node2&#45;&gt;Node1</title>
<path fill="none" stroke="darkgreen" d="M67,-45.16C67,-35.54 67,-25.52 67,-18.74"/>
<polygon fill="darkgreen" stroke="darkgreen" points="63.5,-45.28 67,-55.28 70.5,-45.28 63.5,-45.28"/>
</g>
</g>
</svg>
