<?xml version="1.0" encoding="UTF-8" standalone="no"?>
<!DOCTYPE svg PUBLIC "-//W3C//DTD SVG 1.1//EN"
 "http://www.w3.org/Graphics/SVG/1.1/DTD/svg11.dtd">
<!-- Generated by graphviz version 2.50.0 (0)
 -->
<!-- Title: std::unary_function&lt; _Arg, _Result &gt; Pages: 1 -->
<svg width="146pt" height="102pt"
 viewBox="0.00 0.00 146.00 102.00" xmlns="http://www.w3.org/2000/svg" xmlns:xlink="http://www.w3.org/1999/xlink">
<g id="graph0" class="graph" transform="scale(1 1) rotate(0) translate(4 98)">
<title>std::unary_function&lt; _Arg, _Result &gt;</title>
<polygon fill="white" stroke="transparent" points="-4,4 -4,-98 142,-98 142,4 -4,4"/>
<!-- Node1 -->
<g id="node1" class="node">
<title>Node1</title>
<g id="a_node1"><a xlink:title=" ">
<polygon fill="#bfbfbf" stroke="black" points="16.5,-65.5 16.5,-93.5 121.5,-93.5 121.5,-65.5 16.5,-65.5"/>
<text text-anchor="start" x="24.5" y="-82.3" font-family="Helvetica,sans-Serif" font-size="9.00">std::unary_function</text>
<text text-anchor="middle" x="69" y="-72.3" font-family="Helvetica,sans-Serif" font-size="9.00">&lt; _Arg, _Result &gt;</text>
</a>
</g>
</g>
<!-- Node2 -->
<g id="node2" class="node">
<title>Node2</title>
<g id="a_node2"><a xlink:href="a08454.html" target="_top" xlink:title="One of the adaptors for function pointers.">
<polygon fill="white" stroke="black" points="0,-0.5 0,-28.5 138,-28.5 138,-0.5 0,-0.5"/>
<text text-anchor="start" x="8" y="-17.3" font-family="Helvetica,sans-Serif" font-size="9.00">std::pointer_to_unary</text>
<text text-anchor="middle" x="69" y="-7.3" font-family="Helvetica,sans-Serif" font-size="9.00">_function&lt; _Arg, _Result &gt;</text>
</a>
</g>
</g>
<!-- Node1&#45;&gt;Node2 -->
<g id="edge1" class="edge">
<title>Node1&#45;&gt;Node2</title>
<path fill="none" stroke="midnightblue" d="M69,-55.16C69,-46.17 69,-36.22 69,-28.54"/>
<polygon fill="midnightblue" stroke="midnightblue" points="65.5,-55.45 69,-65.45 72.5,-55.45 65.5,-55.45"/>
</g>
</g>
</svg>
