<?xml version="1.0" encoding="UTF-8" standalone="no"?>
<!DOCTYPE svg PUBLIC "-//W3C//DTD SVG 1.1//EN"
 "http://www.w3.org/Graphics/SVG/1.1/DTD/svg11.dtd">
<!-- Generated by graphviz version 2.50.0 (0)
 -->
<!-- Title: std::pointer_to_binary_function&lt; _Arg1, _Arg2, _Result &gt; Pages: 1 -->
<svg width="142pt" height="112pt"
 viewBox="0.00 0.00 142.00 112.00" xmlns="http://www.w3.org/2000/svg" xmlns:xlink="http://www.w3.org/1999/xlink">
<g id="graph0" class="graph" transform="scale(1 1) rotate(0) translate(4 108)">
<title>std::pointer_to_binary_function&lt; _Arg1, _Arg2, _Result &gt;</title>
<polygon fill="white" stroke="transparent" points="-4,4 -4,-108 138,-108 138,4 -4,4"/>
<!-- Node1 -->
<g id="node1" class="node">
<title>Node1</title>
<g id="a_node1"><a xlink:title="One of the adaptors for function pointers.">
<polygon fill="#bfbfbf" stroke="black" points="1.5,-0.5 1.5,-38.5 132.5,-38.5 132.5,-0.5 1.5,-0.5"/>
<text text-anchor="start" x="9.5" y="-27.3" font-family="Helvetica,sans-Serif" font-size="9.00">std::pointer_to_binary</text>
<text text-anchor="start" x="9.5" y="-17.3" font-family="Helvetica,sans-Serif" font-size="9.00">_function&lt; _Arg1, _Arg2,</text>
<text text-anchor="middle" x="67" y="-7.3" font-family="Helvetica,sans-Serif" font-size="9.00"> _Result &gt;</text>
</a>
</g>
</g>
<!-- Node2 -->
<g id="node2" class="node">
<title>Node2</title>
<g id="a_node2"><a xlink:href="a08210.html" target="_top" xlink:title=" ">
<polygon fill="white" stroke="black" points="0,-75.5 0,-103.5 134,-103.5 134,-75.5 0,-75.5"/>
<text text-anchor="start" x="8" y="-92.3" font-family="Helvetica,sans-Serif" font-size="9.00">std::binary_function</text>
<text text-anchor="middle" x="67" y="-82.3" font-family="Helvetica,sans-Serif" font-size="9.00">&lt; _Arg1, _Arg2, _Result &gt;</text>
</a>
</g>
</g>
<!-- Node2&#45;&gt;Node1 -->
<g id="edge1" class="edge">
<title>Node2&#45;&gt;Node1</title>
<path fill="none" stroke="midnightblue" d="M67,-65.17C67,-56.52 67,-46.84 67,-38.71"/>
<polygon fill="midnightblue" stroke="midnightblue" points="63.5,-65.39 67,-75.39 70.5,-65.39 63.5,-65.39"/>
</g>
</g>
</svg>
