<?xml version="1.0" encoding="UTF-8" standalone="no"?>
<!DOCTYPE svg PUBLIC "-//W3C//DTD SVG 1.1//EN"
 "http://www.w3.org/Graphics/SVG/1.1/DTD/svg11.dtd">
<!-- Generated by graphviz version 2.50.0 (0)
 -->
<!-- Title: std::mem_fun_ref_t&lt; _Ret, _Tp &gt; Pages: 1 -->
<svg width="113pt" height="102pt"
 viewBox="0.00 0.00 113.00 102.00" xmlns="http://www.w3.org/2000/svg" xmlns:xlink="http://www.w3.org/1999/xlink">
<g id="graph0" class="graph" transform="scale(1 1) rotate(0) translate(4 98)">
<title>std::mem_fun_ref_t&lt; _Ret, _Tp &gt;</title>
<polygon fill="white" stroke="transparent" points="-4,4 -4,-98 109,-98 109,4 -4,4"/>
<!-- Node1 -->
<g id="node1" class="node">
<title>Node1</title>
<g id="a_node1"><a xlink:title="One of the adaptors for member pointers.">
<polygon fill="#bfbfbf" stroke="black" points="0.5,-0.5 0.5,-28.5 104.5,-28.5 104.5,-0.5 0.5,-0.5"/>
<text text-anchor="start" x="8.5" y="-17.3" font-family="Helvetica,sans-Serif" font-size="9.00">std::mem_fun_ref_t</text>
<text text-anchor="middle" x="52.5" y="-7.3" font-family="Helvetica,sans-Serif" font-size="9.00">&lt; _Ret, _Tp &gt;</text>
</a>
</g>
</g>
<!-- Node2 -->
<g id="node2" class="node">
<title>Node2</title>
<g id="a_node2"><a xlink:href="a08206.html" target="_top" xlink:title=" ">
<polygon fill="white" stroke="black" points="0,-65.5 0,-93.5 105,-93.5 105,-65.5 0,-65.5"/>
<text text-anchor="start" x="8" y="-82.3" font-family="Helvetica,sans-Serif" font-size="9.00">std::unary_function</text>
<text text-anchor="middle" x="52.5" y="-72.3" font-family="Helvetica,sans-Serif" font-size="9.00">&lt; _Tp, _Ret &gt;</text>
</a>
</g>
</g>
<!-- Node2&#45;&gt;Node1 -->
<g id="edge1" class="edge">
<title>Node2&#45;&gt;Node1</title>
<path fill="none" stroke="midnightblue" d="M52.5,-55.16C52.5,-46.17 52.5,-36.22 52.5,-28.54"/>
<polygon fill="midnightblue" stroke="midnightblue" points="49,-55.45 52.5,-65.45 56,-55.45 49,-55.45"/>
</g>
</g>
</svg>
