<?xml version="1.0" encoding="UTF-8" standalone="no"?>
<!DOCTYPE svg PUBLIC "-//W3C//DTD SVG 1.1//EN"
 "http://www.w3.org/Graphics/SVG/1.1/DTD/svg11.dtd">
<!-- Generated by graphviz version 2.50.0 (0)
 -->
<!-- Title: std::const_mem_fun_ref_t&lt; _Ret, _Tp &gt; Pages: 1 -->
<svg width="117pt" height="102pt"
 viewBox="0.00 0.00 117.00 102.00" xmlns="http://www.w3.org/2000/svg" xmlns:xlink="http://www.w3.org/1999/xlink">
<g id="graph0" class="graph" transform="scale(1 1) rotate(0) translate(4 98)">
<title>std::const_mem_fun_ref_t&lt; _Ret, _Tp &gt;</title>
<polygon fill="white" stroke="transparent" points="-4,4 -4,-98 113,-98 113,4 -4,4"/>
<!-- Node1 -->
<g id="node1" class="node">
<title>Node1</title>
<g id="a_node1"><a xlink:title="One of the adaptors for member pointers.">
<polygon fill="#bfbfbf" stroke="black" points="0,-0.5 0,-28.5 109,-28.5 109,-0.5 0,-0.5"/>
<text text-anchor="start" x="8" y="-17.3" font-family="Helvetica,sans-Serif" font-size="9.00">std::const_mem_fun</text>
<text text-anchor="middle" x="54.5" y="-7.3" font-family="Helvetica,sans-Serif" font-size="9.00">_ref_t&lt; _Ret, _Tp &gt;</text>
</a>
</g>
</g>
<!-- Node2 -->
<g id="node2" class="node">
<title>Node2</title>
<g id="a_node2"><a xlink:href="a08206.html" target="_top" xlink:title=" ">
<polygon fill="white" stroke="black" points="2,-65.5 2,-93.5 107,-93.5 107,-65.5 2,-65.5"/>
<text text-anchor="start" x="10" y="-82.3" font-family="Helvetica,sans-Serif" font-size="9.00">std::unary_function</text>
<text text-anchor="middle" x="54.5" y="-72.3" font-family="Helvetica,sans-Serif" font-size="9.00">&lt; _Tp, _Ret &gt;</text>
</a>
</g>
</g>
<!-- Node2&#45;&gt;Node1 -->
<g id="edge1" class="edge">
<title>Node2&#45;&gt;Node1</title>
<path fill="none" stroke="midnightblue" d="M54.5,-55.16C54.5,-46.17 54.5,-36.22 54.5,-28.54"/>
<polygon fill="midnightblue" stroke="midnightblue" points="51,-55.45 54.5,-65.45 58,-55.45 51,-55.45"/>
</g>
</g>
</svg>
