<?xml version="1.0" encoding="UTF-8" standalone="no"?>
<!DOCTYPE svg PUBLIC "-//W3C//DTD SVG 1.1//EN"
 "http://www.w3.org/Graphics/SVG/1.1/DTD/svg11.dtd">
<!-- Generated by graphviz version 2.50.0 (0)
 -->
<!-- Title: std::vector&lt; _Tp, _Alloc &gt; Pages: 1 -->
<svg width="112pt" height="112pt"
 viewBox="0.00 0.00 112.00 112.00" xmlns="http://www.w3.org/2000/svg" xmlns:xlink="http://www.w3.org/1999/xlink">
<g id="graph0" class="graph" transform="scale(1 1) rotate(0) translate(4 108)">
<title>std::vector&lt; _Tp, _Alloc &gt;</title>
<polygon fill="white" stroke="transparent" points="-4,4 -4,-108 108,-108 108,4 -4,4"/>
<!-- Node1 -->
<g id="node1" class="node">
<title>Node1</title>
<g id="a_node1"><a xlink:title="A standard container which offers fixed time access to individual elements in any order.">
<polygon fill="#bfbfbf" stroke="black" points="3,-0.5 3,-28.5 101,-28.5 101,-0.5 3,-0.5"/>
<text text-anchor="start" x="11" y="-17.3" font-family="Helvetica,sans-Serif" font-size="9.00">std::vector&lt; _Tp, </text>
<text text-anchor="middle" x="52" y="-7.3" font-family="Helvetica,sans-Serif" font-size="9.00">_Alloc &gt;</text>
</a>
</g>
</g>
<!-- Node2 -->
<g id="node2" class="node">
<title>Node2</title>
<g id="a_node2"><a xlink:href="a08850.html" target="_top" xlink:title=" ">
<polygon fill="white" stroke="black" points="0,-65.5 0,-103.5 104,-103.5 104,-65.5 0,-65.5"/>
<text text-anchor="start" x="8" y="-92.3" font-family="Helvetica,sans-Serif" font-size="9.00">std::_Vector_base&lt;</text>
<text text-anchor="start" x="8" y="-82.3" font-family="Helvetica,sans-Serif" font-size="9.00"> _Tp, std::allocator</text>
<text text-anchor="middle" x="52" y="-72.3" font-family="Helvetica,sans-Serif" font-size="9.00">&lt; _Tp &gt; &gt;</text>
</a>
</g>
</g>
<!-- Node2&#45;&gt;Node1 -->
<g id="edge1" class="edge">
<title>Node2&#45;&gt;Node1</title>
<path fill="none" stroke="darkgreen" d="M52,-55.01C52,-45.92 52,-36.29 52,-28.81"/>
<polygon fill="darkgreen" stroke="darkgreen" points="48.5,-55.28 52,-65.28 55.5,-55.28 48.5,-55.28"/>
</g>
</g>
</svg>
