<?xml version="1.0" encoding="UTF-8" standalone="no"?>
<!DOCTYPE svg PUBLIC "-//W3C//DTD SVG 1.1//EN"
 "http://www.w3.org/Graphics/SVG/1.1/DTD/svg11.dtd">
<!-- Generated by graphviz version 2.50.0 (0)
 -->
<!-- Title: std::ctype_base Pages: 1 -->
<svg width="547pt" height="126pt"
 viewBox="0.00 0.00 547.00 126.00" xmlns="http://www.w3.org/2000/svg" xmlns:xlink="http://www.w3.org/1999/xlink">
<g id="graph0" class="graph" transform="scale(1 1) rotate(0) translate(4 122)">
<title>std::ctype_base</title>
<polygon fill="white" stroke="transparent" points="-4,4 -4,-122 543,-122 543,4 -4,4"/>
<!-- Node1 -->
<g id="node1" class="node">
<title>Node1</title>
<g id="a_node1"><a xlink:title="Base class for ctype.">
<polygon fill="#bfbfbf" stroke="black" points="0,-47.5 0,-65.5 88,-65.5 88,-47.5 0,-47.5"/>
<text text-anchor="middle" x="44" y="-54.3" font-family="Helvetica,sans-Serif" font-size="9.00">std::ctype_base</text>
</a>
</g>
</g>
<!-- Node2 -->
<g id="node2" class="node">
<title>Node2</title>
<g id="a_node2"><a xlink:href="a06330.html" target="_top" xlink:title=" ">
<polygon fill="white" stroke="black" points="124,-89.5 124,-117.5 237,-117.5 237,-89.5 124,-89.5"/>
<text text-anchor="start" x="132" y="-106.3" font-family="Helvetica,sans-Serif" font-size="9.00">std::__ctype_abstract</text>
<text text-anchor="middle" x="180.5" y="-96.3" font-family="Helvetica,sans-Serif" font-size="9.00">_base&lt; wchar_t &gt;</text>
</a>
</g>
</g>
<!-- Node1&#45;&gt;Node2 -->
<g id="edge1" class="edge">
<title>Node1&#45;&gt;Node2</title>
<path fill="none" stroke="midnightblue" d="M80.52,-68.91C98.6,-75.23 120.66,-82.94 139.35,-89.47"/>
<polygon fill="midnightblue" stroke="midnightblue" points="81.53,-65.56 70.93,-65.56 79.22,-72.17 81.53,-65.56"/>
</g>
<!-- Node4 -->
<g id="node4" class="node">
<title>Node4</title>
<g id="a_node4"><a xlink:href="a06330.html" target="_top" xlink:title="Common base for ctype facet.">
<polygon fill="white" stroke="black" points="124,-42.5 124,-70.5 237,-70.5 237,-42.5 124,-42.5"/>
<text text-anchor="start" x="132" y="-59.3" font-family="Helvetica,sans-Serif" font-size="9.00">std::__ctype_abstract</text>
<text text-anchor="middle" x="180.5" y="-49.3" font-family="Helvetica,sans-Serif" font-size="9.00">_base&lt; _CharT &gt;</text>
</a>
</g>
</g>
<!-- Node1&#45;&gt;Node4 -->
<g id="edge3" class="edge">
<title>Node1&#45;&gt;Node4</title>
<path fill="none" stroke="midnightblue" d="M98.38,-56.5C106.8,-56.5 115.52,-56.5 123.99,-56.5"/>
<polygon fill="midnightblue" stroke="midnightblue" points="98.3,-53 88.3,-56.5 98.3,-60 98.3,-53"/>
</g>
<!-- Node7 -->
<g id="node7" class="node">
<title>Node7</title>
<g id="a_node7"><a xlink:href="a06338.html" target="_top" xlink:title="The ctype&lt;char&gt; specialization.">
<polygon fill="white" stroke="black" points="128.5,-5.5 128.5,-23.5 232.5,-23.5 232.5,-5.5 128.5,-5.5"/>
<text text-anchor="middle" x="180.5" y="-12.3" font-family="Helvetica,sans-Serif" font-size="9.00">std::ctype&lt; char &gt;</text>
</a>
</g>
</g>
<!-- Node1&#45;&gt;Node7 -->
<g id="edge6" class="edge">
<title>Node1&#45;&gt;Node7</title>
<path fill="none" stroke="midnightblue" d="M83.54,-44.47C104.76,-37.84 130.68,-29.74 150.23,-23.64"/>
<polygon fill="midnightblue" stroke="midnightblue" points="82.36,-41.17 73.85,-47.49 84.44,-47.85 82.36,-41.17"/>
</g>
<!-- Node3 -->
<g id="node3" class="node">
<title>Node3</title>
<g id="a_node3"><a xlink:href="a06342.html" target="_top" xlink:title="The ctype&lt;wchar_t&gt; specialization.">
<polygon fill="white" stroke="black" points="273,-94.5 273,-112.5 392,-112.5 392,-94.5 273,-94.5"/>
<text text-anchor="middle" x="332.5" y="-101.3" font-family="Helvetica,sans-Serif" font-size="9.00">std::ctype&lt; wchar_t &gt;</text>
</a>
</g>
</g>
<!-- Node2&#45;&gt;Node3 -->
<g id="edge2" class="edge">
<title>Node2&#45;&gt;Node3</title>
<path fill="none" stroke="midnightblue" d="M247.53,-103.5C255.96,-103.5 264.54,-103.5 272.84,-103.5"/>
<polygon fill="midnightblue" stroke="midnightblue" points="247.35,-100 237.35,-103.5 247.35,-107 247.35,-100"/>
</g>
<!-- Node5 -->
<g id="node5" class="node">
<title>Node5</title>
<g id="a_node5"><a xlink:href="a06334.html" target="_top" xlink:title="Primary class template ctype facet.">
<polygon fill="white" stroke="black" points="275.5,-47.5 275.5,-65.5 389.5,-65.5 389.5,-47.5 275.5,-47.5"/>
<text text-anchor="middle" x="332.5" y="-54.3" font-family="Helvetica,sans-Serif" font-size="9.00">std::ctype&lt; _CharT &gt;</text>
</a>
</g>
</g>
<!-- Node4&#45;&gt;Node5 -->
<g id="edge4" class="edge">
<title>Node4&#45;&gt;Node5</title>
<path fill="none" stroke="midnightblue" d="M247.38,-56.5C256.7,-56.5 266.23,-56.5 275.35,-56.5"/>
<polygon fill="midnightblue" stroke="midnightblue" points="247.35,-53 237.35,-56.5 247.35,-60 247.35,-53"/>
</g>
<!-- Node6 -->
<g id="node6" class="node">
<title>Node6</title>
<g id="a_node6"><a xlink:href="a06346.html" target="_top" xlink:title="class ctype_byname [22.2.1.2].">
<polygon fill="white" stroke="black" points="428,-42.5 428,-70.5 539,-70.5 539,-42.5 428,-42.5"/>
<text text-anchor="start" x="436" y="-59.3" font-family="Helvetica,sans-Serif" font-size="9.00">std::ctype_byname&lt;</text>
<text text-anchor="middle" x="483.5" y="-49.3" font-family="Helvetica,sans-Serif" font-size="9.00"> _CharT &gt;</text>
</a>
</g>
</g>
<!-- Node5&#45;&gt;Node6 -->
<g id="edge5" class="edge">
<title>Node5&#45;&gt;Node6</title>
<path fill="none" stroke="midnightblue" d="M400.1,-56.5C409.28,-56.5 418.63,-56.5 427.57,-56.5"/>
<polygon fill="midnightblue" stroke="midnightblue" points="399.83,-53 389.83,-56.5 399.83,-60 399.83,-53"/>
</g>
<!-- Node8 -->
<g id="node8" class="node">
<title>Node8</title>
<g id="a_node8"><a xlink:href="a06350.html" target="_top" xlink:title="22.2.1.4 Class ctype_byname specializations.">
<polygon fill="white" stroke="black" points="277,-0.5 277,-28.5 388,-28.5 388,-0.5 277,-0.5"/>
<text text-anchor="start" x="285" y="-17.3" font-family="Helvetica,sans-Serif" font-size="9.00">std::ctype_byname&lt;</text>
<text text-anchor="middle" x="332.5" y="-7.3" font-family="Helvetica,sans-Serif" font-size="9.00"> char &gt;</text>
</a>
</g>
</g>
<!-- Node7&#45;&gt;Node8 -->
<g id="edge7" class="edge">
<title>Node7&#45;&gt;Node8</title>
<path fill="none" stroke="midnightblue" d="M242.91,-14.5C254.18,-14.5 265.88,-14.5 276.94,-14.5"/>
<polygon fill="midnightblue" stroke="midnightblue" points="242.7,-11 232.7,-14.5 242.7,-18 242.7,-11"/>
</g>
</g>
</svg>
