<?xml version="1.0" encoding="UTF-8" standalone="no"?>
<!DOCTYPE svg PUBLIC "-//W3C//DTD SVG 1.1//EN"
 "http://www.w3.org/Graphics/SVG/1.1/DTD/svg11.dtd">
<!-- Generated by graphviz version 2.50.0 (0)
 -->
<!-- Title: std::binder2nd&lt; _Operation &gt; Pages: 1 -->
<svg width="162pt" height="112pt"
 viewBox="0.00 0.00 162.00 112.00" xmlns="http://www.w3.org/2000/svg" xmlns:xlink="http://www.w3.org/1999/xlink">
<g id="graph0" class="graph" transform="scale(1 1) rotate(0) translate(4 108)">
<title>std::binder2nd&lt; _Operation &gt;</title>
<polygon fill="white" stroke="transparent" points="-4,4 -4,-108 158,-108 158,4 -4,4"/>
<!-- Node1 -->
<g id="node1" class="node">
<title>Node1</title>
<g id="a_node1"><a xlink:title="One of the binder functors.">
<polygon fill="#bfbfbf" stroke="black" points="0,-0.5 0,-18.5 154,-18.5 154,-0.5 0,-0.5"/>
<text text-anchor="middle" x="77" y="-7.3" font-family="Helvetica,sans-Serif" font-size="9.00">std::binder2nd&lt; _Operation &gt;</text>
</a>
</g>
</g>
<!-- Node2 -->
<g id="node2" class="node">
<title>Node2</title>
<g id="a_node2"><a xlink:href="a08206.html" target="_top" xlink:title=" ">
<polygon fill="white" stroke="black" points="4,-55.5 4,-103.5 150,-103.5 150,-55.5 4,-55.5"/>
<text text-anchor="start" x="12" y="-92.3" font-family="Helvetica,sans-Serif" font-size="9.00">std::unary_function</text>
<text text-anchor="start" x="12" y="-82.3" font-family="Helvetica,sans-Serif" font-size="9.00">&lt; _Operation::first</text>
<text text-anchor="start" x="12" y="-72.3" font-family="Helvetica,sans-Serif" font-size="9.00">_argument_type, _Operation</text>
<text text-anchor="middle" x="77" y="-62.3" font-family="Helvetica,sans-Serif" font-size="9.00">::result_type &gt;</text>
</a>
</g>
</g>
<!-- Node2&#45;&gt;Node1 -->
<g id="edge1" class="edge">
<title>Node2&#45;&gt;Node1</title>
<path fill="none" stroke="midnightblue" d="M77,-45.27C77,-35.3 77,-25.24 77,-18.53"/>
<polygon fill="midnightblue" stroke="midnightblue" points="73.5,-45.48 77,-55.48 80.5,-45.48 73.5,-45.48"/>
</g>
</g>
</svg>
