<?xml version="1.0" encoding="UTF-8" standalone="no"?>
<!DOCTYPE svg PUBLIC "-//W3C//DTD SVG 1.1//EN"
 "http://www.w3.org/Graphics/SVG/1.1/DTD/svg11.dtd">
<!-- Generated by graphviz version 2.50.0 (0)
 -->
<!-- Title: __gnu_debug::_Safe_sequence&lt; _Sequence &gt; Pages: 1 -->
<!--zoomable 716 -->
<svg id="main" version="1.1" xmlns="http://www.w3.org/2000/svg" xmlns:xlink="http://www.w3.org/1999/xlink" xml:space="preserve" onload="init(evt)">
<style type="text/css"><![CDATA[
.edge:hover path { stroke: red; }
.edge:hover polygon { stroke: red; fill: red; }
]]></style>
<script type="text/javascript"><![CDATA[
var edges = document.getElementsByTagName('g');
if (edges && edges.length) {
  for (var i=0;i<edges.length;i++) {
    if (edges[i].id.substr(0,4)=='edge') {
      edges[i].setAttribute('class','edge');
    }
  }
}
]]></script>
        <defs>
                <circle id="rim" cx="0" cy="0" r="7"/>
                <circle id="rim2" cx="0" cy="0" r="3.5"/>
                <g id="zoomPlus">
                        <use xlink:href="#rim" fill="#404040">
                                <set attributeName="fill" to="#808080" begin="zoomplus.mouseover" end="zoomplus.mouseout"/>
                        </use>
                        <path d="M-4,0h8M0,-4v8" fill="none" stroke="white" stroke-width="1.5" pointer-events="none"/>
                </g>
                <g id="zoomMin">
                        <use xlink:href="#rim" fill="#404040">
                                <set attributeName="fill" to="#808080" begin="zoomminus.mouseover" end="zoomminus.mouseout"/>
                        </use>
                        <path d="M-4,0h8" fill="none" stroke="white" stroke-width="1.5" pointer-events="none"/>
                </g>
                <g id="dirArrow">
                        <path fill="none" stroke="white" stroke-width="1.5" d="M0,-3.0v7 M-2.5,-0.5L0,-3.0L2.5,-0.5"/>
                </g>
               <g id="resetDef">
                       <use xlink:href="#rim2" fill="#404040">
                               <set attributeName="fill" to="#808080" begin="reset.mouseover" end="reset.mouseout"/>
                       </use>
               </g>
        </defs>

<script type="text/javascript">
var viewWidth = 923;
var viewHeight = 716;
var sectionId = 'dynsection-0';
</script>
<script xlink:href="svgpan.js"/>
<svg id="graph" class="graph">
<g id="viewport">
<title>__gnu_debug::_Safe_sequence&lt; _Sequence &gt;</title>
<polygon fill="white" stroke="transparent" points="-4,4 -4,-712 919,-712 919,4 -4,4"/>
<!-- Node1 -->
<g id="node1" class="node">
<title>Node1</title>
<g id="a_node1"><a xlink:title="Base class for constructing a safe sequence type that tracks iterators that reference it.">
<polygon fill="#bfbfbf" stroke="black" points="143,-518.5 143,-546.5 278,-546.5 278,-518.5 143,-518.5"/>
<text text-anchor="start" x="151" y="-535.3" font-family="Helvetica,sans-Serif" font-size="9.00">__gnu_debug::_Safe</text>
<text text-anchor="middle" x="210.5" y="-525.3" font-family="Helvetica,sans-Serif" font-size="9.00">_sequence&lt; _Sequence &gt;</text>
</a>
</g>
</g>
<!-- Node3 -->
<g id="node3" class="node">
<title>Node3</title>
<g id="a_node3"><a xlink:href="a09654.html" target="_top" xlink:title=" ">
<polygon fill="white" stroke="black" points="314,-629.5 314,-707.5 485,-707.5 485,-629.5 314,-629.5"/>
<text text-anchor="start" x="322" y="-696.3" font-family="Helvetica,sans-Serif" font-size="9.00">__gnu_debug::_Safe</text>
<text text-anchor="start" x="322" y="-686.3" font-family="Helvetica,sans-Serif" font-size="9.00">_container&lt; basic_string</text>
<text text-anchor="start" x="322" y="-676.3" font-family="Helvetica,sans-Serif" font-size="9.00">&lt; _CharT, std::char_traits</text>
<text text-anchor="start" x="322" y="-666.3" font-family="Helvetica,sans-Serif" font-size="9.00">&lt; _CharT &gt;, std::allocator</text>
<text text-anchor="start" x="322" y="-656.3" font-family="Helvetica,sans-Serif" font-size="9.00">&lt; _CharT &gt; &gt;, std::allocator</text>
<text text-anchor="start" x="322" y="-646.3" font-family="Helvetica,sans-Serif" font-size="9.00">&lt; _CharT &gt;, _Safe_sequence, bool</text>
<text text-anchor="middle" x="399.5" y="-636.3" font-family="Helvetica,sans-Serif" font-size="9.00">(_GLIBCXX_USE_CXX11_ABI)&gt;</text>
</a>
</g>
</g>
<!-- Node1&#45;&gt;Node3 -->
<g id="edge2" class="edge">
<title>Node1&#45;&gt;Node3</title>
<path fill="none" stroke="midnightblue" d="M233.43,-553.52C253.52,-572.24 284.53,-599.77 314,-620.5 318.28,-623.51 322.76,-626.49 327.33,-629.41"/>
<polygon fill="midnightblue" stroke="midnightblue" points="235.72,-550.87 226.04,-546.58 230.93,-555.97 235.72,-550.87"/>
</g>
<!-- Node5 -->
<g id="node5" class="node">
<title>Node5</title>
<g id="a_node5"><a xlink:href="a09654.html" target="_top" xlink:title=" ">
<polygon fill="white" stroke="black" points="324.5,-542.5 324.5,-610.5 474.5,-610.5 474.5,-542.5 324.5,-542.5"/>
<text text-anchor="start" x="332.5" y="-599.3" font-family="Helvetica,sans-Serif" font-size="9.00">__gnu_debug::_Safe</text>
<text text-anchor="start" x="332.5" y="-589.3" font-family="Helvetica,sans-Serif" font-size="9.00">_container&lt; vector&lt;</text>
<text text-anchor="start" x="332.5" y="-579.3" font-family="Helvetica,sans-Serif" font-size="9.00"> _Tp, std::allocator</text>
<text text-anchor="start" x="332.5" y="-569.3" font-family="Helvetica,sans-Serif" font-size="9.00">&lt; _Tp &gt; &gt;, std::allocator</text>
<text text-anchor="start" x="332.5" y="-559.3" font-family="Helvetica,sans-Serif" font-size="9.00">&lt; _Tp &gt;, __gnu_debug::_Safe</text>
<text text-anchor="middle" x="399.5" y="-549.3" font-family="Helvetica,sans-Serif" font-size="9.00">_sequence &gt;</text>
</a>
</g>
</g>
<!-- Node1&#45;&gt;Node5 -->
<g id="edge4" class="edge">
<title>Node1&#45;&gt;Node5</title>
<path fill="none" stroke="midnightblue" d="M281.25,-548.91C295.3,-552.22 310.1,-555.7 324.29,-559.04"/>
<polygon fill="midnightblue" stroke="midnightblue" points="281.72,-545.43 271.18,-546.54 280.11,-552.24 281.72,-545.43"/>
</g>
<!-- Node7 -->
<g id="node7" class="node">
<title>Node7</title>
<g id="a_node7"><a xlink:href="a09654.html" target="_top" xlink:title=" ">
<polygon fill="white" stroke="black" points="324.5,-455.5 324.5,-523.5 474.5,-523.5 474.5,-455.5 324.5,-455.5"/>
<text text-anchor="start" x="332.5" y="-512.3" font-family="Helvetica,sans-Serif" font-size="9.00">__gnu_debug::_Safe</text>
<text text-anchor="start" x="332.5" y="-502.3" font-family="Helvetica,sans-Serif" font-size="9.00">_container&lt; deque&lt; </text>
<text text-anchor="start" x="332.5" y="-492.3" font-family="Helvetica,sans-Serif" font-size="9.00">_Tp, std::allocator&lt;</text>
<text text-anchor="start" x="332.5" y="-482.3" font-family="Helvetica,sans-Serif" font-size="9.00"> _Tp &gt; &gt;, std::allocator</text>
<text text-anchor="start" x="332.5" y="-472.3" font-family="Helvetica,sans-Serif" font-size="9.00">&lt; _Tp &gt;, __gnu_debug::_Safe</text>
<text text-anchor="middle" x="399.5" y="-462.3" font-family="Helvetica,sans-Serif" font-size="9.00">_sequence &gt;</text>
</a>
</g>
</g>
<!-- Node1&#45;&gt;Node7 -->
<g id="edge6" class="edge">
<title>Node1&#45;&gt;Node7</title>
<path fill="none" stroke="midnightblue" d="M282.31,-516.22C296.02,-513.07 310.41,-509.76 324.22,-506.58"/>
<polygon fill="midnightblue" stroke="midnightblue" points="281.43,-512.83 272.47,-518.48 283,-519.65 281.43,-512.83"/>
</g>
<!-- Node9 -->
<g id="node9" class="node">
<title>Node9</title>
<g id="a_node9"><a xlink:href="a09694.html" target="_top" xlink:title="Like _Safe_sequence but with a special _M_invalidate_all implementation not invalidating past&#45;the&#45;end...">
<polygon fill="white" stroke="black" points="318.5,-265.5 318.5,-293.5 480.5,-293.5 480.5,-265.5 318.5,-265.5"/>
<text text-anchor="start" x="326.5" y="-282.3" font-family="Helvetica,sans-Serif" font-size="9.00">__gnu_debug::_Safe</text>
<text text-anchor="middle" x="399.5" y="-272.3" font-family="Helvetica,sans-Serif" font-size="9.00">_node_sequence&lt; _Sequence &gt;</text>
</a>
</g>
</g>
<!-- Node1&#45;&gt;Node9 -->
<g id="edge8" class="edge">
<title>Node1&#45;&gt;Node9</title>
<path fill="none" stroke="midnightblue" d="M228.07,-510.08C265.77,-459.08 357.06,-335.56 388.03,-293.67"/>
<polygon fill="midnightblue" stroke="midnightblue" points="225.22,-508.05 222.09,-518.17 230.85,-512.21 225.22,-508.05"/>
</g>
<!-- Node2 -->
<g id="node2" class="node">
<title>Node2</title>
<g id="a_node2"><a xlink:href="a09650.html" target="_top" xlink:title="Base class that supports tracking of iterators that reference a sequence.">
<polygon fill="white" stroke="black" points="0,-518.5 0,-546.5 107,-546.5 107,-518.5 0,-518.5"/>
<text text-anchor="start" x="8" y="-535.3" font-family="Helvetica,sans-Serif" font-size="9.00">__gnu_debug::_Safe</text>
<text text-anchor="middle" x="53.5" y="-525.3" font-family="Helvetica,sans-Serif" font-size="9.00">_sequence_base</text>
</a>
</g>
</g>
<!-- Node2&#45;&gt;Node1 -->
<g id="edge1" class="edge">
<title>Node2&#45;&gt;Node1</title>
<path fill="none" stroke="midnightblue" d="M117.47,-532.5C125.83,-532.5 134.43,-532.5 142.85,-532.5"/>
<polygon fill="midnightblue" stroke="midnightblue" points="117.41,-529 107.41,-532.5 117.41,-536 117.41,-529"/>
</g>
<!-- Node4 -->
<g id="node4" class="node">
<title>Node4</title>
<g id="a_node4"><a xlink:href="a09786.html" target="_top" xlink:title="Class std::basic_string with safety/checking/debug instrumentation.">
<polygon fill="white" stroke="black" points="558,-649.5 558,-687.5 683,-687.5 683,-649.5 558,-649.5"/>
<text text-anchor="start" x="566" y="-676.3" font-family="Helvetica,sans-Serif" font-size="9.00">__gnu_debug::basic</text>
<text text-anchor="start" x="566" y="-666.3" font-family="Helvetica,sans-Serif" font-size="9.00">_string&lt; _CharT, _Traits,</text>
<text text-anchor="middle" x="620.5" y="-656.3" font-family="Helvetica,sans-Serif" font-size="9.00"> _Allocator &gt;</text>
</a>
</g>
</g>
<!-- Node3&#45;&gt;Node4 -->
<g id="edge3" class="edge">
<title>Node3&#45;&gt;Node4</title>
<path fill="none" stroke="midnightblue" d="M495.18,-668.5C516.38,-668.5 538.35,-668.5 557.8,-668.5"/>
<polygon fill="midnightblue" stroke="midnightblue" points="495.17,-665 485.17,-668.5 495.17,-672 495.17,-665"/>
</g>
<!-- Node6 -->
<g id="node6" class="node">
<title>Node6</title>
<g id="a_node6"><a xlink:href="a09834.html" target="_top" xlink:title="Class std::vector with safety/checking/debug instrumentation.">
<polygon fill="white" stroke="black" points="565.5,-562.5 565.5,-590.5 675.5,-590.5 675.5,-562.5 565.5,-562.5"/>
<text text-anchor="start" x="573.5" y="-579.3" font-family="Helvetica,sans-Serif" font-size="9.00">std::__debug::vector</text>
<text text-anchor="middle" x="620.5" y="-569.3" font-family="Helvetica,sans-Serif" font-size="9.00">&lt; _Tp, _Allocator &gt;</text>
</a>
</g>
</g>
<!-- Node5&#45;&gt;Node6 -->
<g id="edge5" class="edge">
<title>Node5&#45;&gt;Node6</title>
<path fill="none" stroke="midnightblue" d="M484.86,-576.5C511.82,-576.5 540.93,-576.5 565.16,-576.5"/>
<polygon fill="midnightblue" stroke="midnightblue" points="484.64,-573 474.64,-576.5 484.64,-580 484.64,-573"/>
</g>
<!-- Node8 -->
<g id="node8" class="node">
<title>Node8</title>
<g id="a_node8"><a xlink:href="a09738.html" target="_top" xlink:title="Class std::deque with safety/checking/debug instrumentation.">
<polygon fill="white" stroke="black" points="565.5,-495.5 565.5,-523.5 675.5,-523.5 675.5,-495.5 565.5,-495.5"/>
<text text-anchor="start" x="573.5" y="-512.3" font-family="Helvetica,sans-Serif" font-size="9.00">std::__debug::deque</text>
<text text-anchor="middle" x="620.5" y="-502.3" font-family="Helvetica,sans-Serif" font-size="9.00">&lt; _Tp, _Allocator &gt;</text>
</a>
</g>
</g>
<!-- Node7&#45;&gt;Node8 -->
<g id="edge7" class="edge">
<title>Node7&#45;&gt;Node8</title>
<path fill="none" stroke="midnightblue" d="M484.86,-497.2C511.82,-499.67 540.93,-502.32 565.16,-504.54"/>
<polygon fill="midnightblue" stroke="midnightblue" points="484.92,-493.7 474.64,-496.27 484.28,-500.67 484.92,-493.7"/>
</g>
<!-- Node10 -->
<g id="node10" class="node">
<title>Node10</title>
<g id="a_node10"><a xlink:href="a09654.html" target="_top" xlink:title=" ">
<polygon fill="white" stroke="black" points="545,-398.5 545,-476.5 696,-476.5 696,-398.5 545,-398.5"/>
<text text-anchor="start" x="553" y="-465.3" font-family="Helvetica,sans-Serif" font-size="9.00">__gnu_debug::_Safe</text>
<text text-anchor="start" x="553" y="-455.3" font-family="Helvetica,sans-Serif" font-size="9.00">_container&lt; multiset</text>
<text text-anchor="start" x="553" y="-445.3" font-family="Helvetica,sans-Serif" font-size="9.00">&lt; _Key, std::less&lt; _Key</text>
<text text-anchor="start" x="553" y="-435.3" font-family="Helvetica,sans-Serif" font-size="9.00"> &gt;, std::allocator&lt; _Key</text>
<text text-anchor="start" x="553" y="-425.3" font-family="Helvetica,sans-Serif" font-size="9.00"> &gt; &gt;, std::allocator&lt; _Key</text>
<text text-anchor="start" x="553" y="-415.3" font-family="Helvetica,sans-Serif" font-size="9.00"> &gt;, __gnu_debug::_Safe_node</text>
<text text-anchor="middle" x="620.5" y="-405.3" font-family="Helvetica,sans-Serif" font-size="9.00">_sequence &gt;</text>
</a>
</g>
</g>
<!-- Node9&#45;&gt;Node10 -->
<g id="edge9" class="edge">
<title>Node9&#45;&gt;Node10</title>
<path fill="none" stroke="midnightblue" d="M420.65,-300.95C443.45,-324.43 482.47,-362.23 521,-388.5 528.5,-393.61 536.6,-398.51 544.83,-403.11"/>
<polygon fill="midnightblue" stroke="midnightblue" points="423.01,-298.36 413.56,-293.58 417.96,-303.21 423.01,-298.36"/>
</g>
<!-- Node12 -->
<g id="node12" class="node">
<title>Node12</title>
<g id="a_node12"><a xlink:href="a09654.html" target="_top" xlink:title=" ">
<polygon fill="white" stroke="black" points="540,-281.5 540,-379.5 701,-379.5 701,-281.5 540,-281.5"/>
<text text-anchor="start" x="548" y="-368.3" font-family="Helvetica,sans-Serif" font-size="9.00">__gnu_debug::_Safe</text>
<text text-anchor="start" x="548" y="-358.3" font-family="Helvetica,sans-Serif" font-size="9.00">_container&lt; multimap</text>
<text text-anchor="start" x="548" y="-348.3" font-family="Helvetica,sans-Serif" font-size="9.00">&lt; _Key, _Tp, std::less</text>
<text text-anchor="start" x="548" y="-338.3" font-family="Helvetica,sans-Serif" font-size="9.00">&lt; _Key &gt;, std::allocator</text>
<text text-anchor="start" x="548" y="-328.3" font-family="Helvetica,sans-Serif" font-size="9.00">&lt; std::pair&lt; const _Key,</text>
<text text-anchor="start" x="548" y="-318.3" font-family="Helvetica,sans-Serif" font-size="9.00"> _Tp &gt; &gt; &gt;, std::allocator</text>
<text text-anchor="start" x="548" y="-308.3" font-family="Helvetica,sans-Serif" font-size="9.00">&lt; std::pair&lt; const _Key, _Tp</text>
<text text-anchor="start" x="548" y="-298.3" font-family="Helvetica,sans-Serif" font-size="9.00"> &gt; &gt;, __gnu_debug::_Safe_node</text>
<text text-anchor="middle" x="620.5" y="-288.3" font-family="Helvetica,sans-Serif" font-size="9.00">_sequence &gt;</text>
</a>
</g>
</g>
<!-- Node9&#45;&gt;Node12 -->
<g id="edge11" class="edge">
<title>Node9&#45;&gt;Node12</title>
<path fill="none" stroke="midnightblue" d="M470.57,-295.82C492.62,-300.95 517.13,-306.66 539.8,-311.94"/>
<polygon fill="midnightblue" stroke="midnightblue" points="471.17,-292.36 460.63,-293.5 469.58,-299.18 471.17,-292.36"/>
</g>
<!-- Node14 -->
<g id="node14" class="node">
<title>Node14</title>
<g id="a_node14"><a xlink:href="a09654.html" target="_top" xlink:title=" ">
<polygon fill="white" stroke="black" points="545,-194.5 545,-262.5 696,-262.5 696,-194.5 545,-194.5"/>
<text text-anchor="start" x="553" y="-251.3" font-family="Helvetica,sans-Serif" font-size="9.00">__gnu_debug::_Safe</text>
<text text-anchor="start" x="553" y="-241.3" font-family="Helvetica,sans-Serif" font-size="9.00">_container&lt; list&lt; _Tp,</text>
<text text-anchor="start" x="553" y="-231.3" font-family="Helvetica,sans-Serif" font-size="9.00"> std::allocator&lt; _Tp &gt;</text>
<text text-anchor="start" x="553" y="-221.3" font-family="Helvetica,sans-Serif" font-size="9.00"> &gt;, std::allocator&lt; _Tp</text>
<text text-anchor="start" x="553" y="-211.3" font-family="Helvetica,sans-Serif" font-size="9.00"> &gt;, __gnu_debug::_Safe_node</text>
<text text-anchor="middle" x="620.5" y="-201.3" font-family="Helvetica,sans-Serif" font-size="9.00">_sequence &gt;</text>
</a>
</g>
</g>
<!-- Node9&#45;&gt;Node14 -->
<g id="edge13" class="edge">
<title>Node9&#45;&gt;Node14</title>
<path fill="none" stroke="midnightblue" d="M470.57,-263.18C494.2,-257.68 520.66,-251.52 544.64,-245.93"/>
<polygon fill="midnightblue" stroke="midnightblue" points="469.58,-259.82 460.63,-265.5 471.17,-266.64 469.58,-259.82"/>
</g>
<!-- Node16 -->
<g id="node16" class="node">
<title>Node16</title>
<g id="a_node16"><a xlink:href="a09654.html" target="_top" xlink:title=" ">
<polygon fill="white" stroke="black" points="521,-87.5 521,-175.5 720,-175.5 720,-87.5 521,-87.5"/>
<text text-anchor="start" x="529" y="-164.3" font-family="Helvetica,sans-Serif" font-size="9.00">__gnu_debug::_Safe</text>
<text text-anchor="start" x="529" y="-154.3" font-family="Helvetica,sans-Serif" font-size="9.00">_container&lt; map&lt; _Key,</text>
<text text-anchor="start" x="529" y="-144.3" font-family="Helvetica,sans-Serif" font-size="9.00"> _Tp, std::less&lt; _Key</text>
<text text-anchor="start" x="529" y="-134.3" font-family="Helvetica,sans-Serif" font-size="9.00"> &gt;, std::allocator&lt; std</text>
<text text-anchor="start" x="529" y="-124.3" font-family="Helvetica,sans-Serif" font-size="9.00">::pair&lt; const _Key, _Tp</text>
<text text-anchor="start" x="529" y="-114.3" font-family="Helvetica,sans-Serif" font-size="9.00"> &gt; &gt; &gt;, std::allocator&lt; std</text>
<text text-anchor="start" x="529" y="-104.3" font-family="Helvetica,sans-Serif" font-size="9.00">::pair&lt; const _Key, _Tp &gt; &gt;</text>
<text text-anchor="middle" x="620.5" y="-94.3" font-family="Helvetica,sans-Serif" font-size="9.00">, __gnu_debug::_Safe_node_sequence &gt;</text>
</a>
</g>
</g>
<!-- Node9&#45;&gt;Node16 -->
<g id="edge15" class="edge">
<title>Node9&#45;&gt;Node16</title>
<path fill="none" stroke="midnightblue" d="M424.34,-258.67C448,-238.49 485.73,-207.64 521,-184.5 525.55,-181.52 530.28,-178.55 535.1,-175.64"/>
<polygon fill="midnightblue" stroke="midnightblue" points="421.89,-256.16 416.58,-265.33 426.45,-261.47 421.89,-256.16"/>
</g>
<!-- Node18 -->
<g id="node18" class="node">
<title>Node18</title>
<g id="a_node18"><a xlink:href="a09654.html" target="_top" xlink:title=" ">
<polygon fill="white" stroke="black" points="537.5,-0.5 537.5,-68.5 703.5,-68.5 703.5,-0.5 537.5,-0.5"/>
<text text-anchor="start" x="545.5" y="-57.3" font-family="Helvetica,sans-Serif" font-size="9.00">__gnu_debug::_Safe</text>
<text text-anchor="start" x="545.5" y="-47.3" font-family="Helvetica,sans-Serif" font-size="9.00">_container&lt; set&lt; _Key,</text>
<text text-anchor="start" x="545.5" y="-37.3" font-family="Helvetica,sans-Serif" font-size="9.00"> std::less&lt; _Key &gt;, std</text>
<text text-anchor="start" x="545.5" y="-27.3" font-family="Helvetica,sans-Serif" font-size="9.00">::allocator&lt; _Key &gt; &gt;, std</text>
<text text-anchor="start" x="545.5" y="-17.3" font-family="Helvetica,sans-Serif" font-size="9.00">::allocator&lt; _Key &gt;, __gnu</text>
<text text-anchor="middle" x="620.5" y="-7.3" font-family="Helvetica,sans-Serif" font-size="9.00">_debug::_Safe_node_sequence &gt;</text>
</a>
</g>
</g>
<!-- Node9&#45;&gt;Node18 -->
<g id="edge17" class="edge">
<title>Node9&#45;&gt;Node18</title>
<path fill="none" stroke="midnightblue" d="M408.93,-256.01C424.83,-214.71 462.96,-128.64 521,-77.5 526.04,-73.06 531.61,-69.02 537.46,-65.35"/>
<polygon fill="midnightblue" stroke="midnightblue" points="405.61,-254.9 405.37,-265.5 412.16,-257.36 405.61,-254.9"/>
</g>
<!-- Node11 -->
<g id="node11" class="node">
<title>Node11</title>
<g id="a_node11"><a xlink:href="a09638.html" target="_top" xlink:title="Class std::multiset with safety/checking/debug instrumentation.">
<polygon fill="white" stroke="black" points="756,-423.5 756,-451.5 915,-451.5 915,-423.5 756,-423.5"/>
<text text-anchor="start" x="764" y="-440.3" font-family="Helvetica,sans-Serif" font-size="9.00">std::__debug::multiset</text>
<text text-anchor="middle" x="835.5" y="-430.3" font-family="Helvetica,sans-Serif" font-size="9.00">&lt; _Key, _Compare, _Allocator &gt;</text>
</a>
</g>
</g>
<!-- Node10&#45;&gt;Node11 -->
<g id="edge10" class="edge">
<title>Node10&#45;&gt;Node11</title>
<path fill="none" stroke="midnightblue" d="M706.37,-437.5C722.72,-437.5 739.77,-437.5 755.91,-437.5"/>
<polygon fill="midnightblue" stroke="midnightblue" points="706.3,-434 696.3,-437.5 706.3,-441 706.3,-434"/>
</g>
<!-- Node13 -->
<g id="node13" class="node">
<title>Node13</title>
<g id="a_node13"><a xlink:href="a09630.html" target="_top" xlink:title="Class std::multimap with safety/checking/debug instrumentation.">
<polygon fill="white" stroke="black" points="773,-311.5 773,-349.5 898,-349.5 898,-311.5 773,-311.5"/>
<text text-anchor="start" x="781" y="-338.3" font-family="Helvetica,sans-Serif" font-size="9.00">std::__debug::multimap</text>
<text text-anchor="start" x="781" y="-328.3" font-family="Helvetica,sans-Serif" font-size="9.00">&lt; _Key, _Tp, _Compare,</text>
<text text-anchor="middle" x="835.5" y="-318.3" font-family="Helvetica,sans-Serif" font-size="9.00"> _Allocator &gt;</text>
</a>
</g>
</g>
<!-- Node12&#45;&gt;Node13 -->
<g id="edge12" class="edge">
<title>Node12&#45;&gt;Node13</title>
<path fill="none" stroke="midnightblue" d="M711.23,-330.5C732.02,-330.5 753.68,-330.5 772.94,-330.5"/>
<polygon fill="midnightblue" stroke="midnightblue" points="711.12,-327 701.12,-330.5 711.12,-334 711.12,-327"/>
</g>
<!-- Node15 -->
<g id="node15" class="node">
<title>Node15</title>
<g id="a_node15"><a xlink:href="a09770.html" target="_top" xlink:title="Class std::list with safety/checking/debug instrumentation.">
<polygon fill="white" stroke="black" points="784,-214.5 784,-242.5 887,-242.5 887,-214.5 784,-214.5"/>
<text text-anchor="start" x="792" y="-231.3" font-family="Helvetica,sans-Serif" font-size="9.00">std::__debug::list</text>
<text text-anchor="middle" x="835.5" y="-221.3" font-family="Helvetica,sans-Serif" font-size="9.00">&lt; _Tp, _Allocator &gt;</text>
</a>
</g>
</g>
<!-- Node14&#45;&gt;Node15 -->
<g id="edge14" class="edge">
<title>Node14&#45;&gt;Node15</title>
<path fill="none" stroke="midnightblue" d="M706.62,-228.5C732.83,-228.5 760.83,-228.5 783.94,-228.5"/>
<polygon fill="midnightblue" stroke="midnightblue" points="706.3,-225 696.3,-228.5 706.3,-232 706.3,-225"/>
</g>
<!-- Node17 -->
<g id="node17" class="node">
<title>Node17</title>
<g id="a_node17"><a xlink:href="a09622.html" target="_top" xlink:title="Class std::map with safety/checking/debug instrumentation.">
<polygon fill="white" stroke="black" points="777.5,-112.5 777.5,-150.5 893.5,-150.5 893.5,-112.5 777.5,-112.5"/>
<text text-anchor="start" x="785.5" y="-139.3" font-family="Helvetica,sans-Serif" font-size="9.00">std::__debug::map&lt;</text>
<text text-anchor="start" x="785.5" y="-129.3" font-family="Helvetica,sans-Serif" font-size="9.00"> _Key, _Tp, _Compare,</text>
<text text-anchor="middle" x="835.5" y="-119.3" font-family="Helvetica,sans-Serif" font-size="9.00"> _Allocator &gt;</text>
</a>
</g>
</g>
<!-- Node16&#45;&gt;Node17 -->
<g id="edge16" class="edge">
<title>Node16&#45;&gt;Node17</title>
<path fill="none" stroke="midnightblue" d="M730.32,-131.5C746.58,-131.5 762.76,-131.5 777.36,-131.5"/>
<polygon fill="midnightblue" stroke="midnightblue" points="730.21,-128 720.21,-131.5 730.21,-135 730.21,-128"/>
</g>
<!-- Node19 -->
<g id="node19" class="node">
<title>Node19</title>
<g id="a_node19"><a xlink:href="a09722.html" target="_top" xlink:title="Class std::set with safety/checking/debug instrumentation.">
<polygon fill="white" stroke="black" points="759.5,-20.5 759.5,-48.5 911.5,-48.5 911.5,-20.5 759.5,-20.5"/>
<text text-anchor="start" x="767.5" y="-37.3" font-family="Helvetica,sans-Serif" font-size="9.00">std::__debug::set&lt;</text>
<text text-anchor="middle" x="835.5" y="-27.3" font-family="Helvetica,sans-Serif" font-size="9.00"> _Key, _Compare, _Allocator &gt;</text>
</a>
</g>
</g>
<!-- Node18&#45;&gt;Node19 -->
<g id="edge18" class="edge">
<title>Node18&#45;&gt;Node19</title>
<path fill="none" stroke="midnightblue" d="M713.55,-34.5C728.89,-34.5 744.63,-34.5 759.47,-34.5"/>
<polygon fill="midnightblue" stroke="midnightblue" points="713.55,-31 703.55,-34.5 713.55,-38 713.55,-31"/>
</g>
</g>
</svg>
        <g id="navigator" transform="translate(0 0)" fill="#404254">
                <rect fill="#f2f5e9" fill-opacity="0.5" stroke="#606060" stroke-width=".5" x="0" y="0" width="60" height="60"/>
                <use id="zoomplus" xlink:href="#zoomPlus" x="17" y="9" onmousedown="handleZoom(evt,'in')"/>
                <use id="zoomminus" xlink:href="#zoomMin" x="42" y="9" onmousedown="handleZoom(evt,'out')"/>
                <use id="reset" xlink:href="#resetDef" x="30" y="36" onmousedown="handleReset()"/>
                <g id="arrowUp" xlink:href="#dirArrow" transform="translate(30 24)" onmousedown="handlePan(0,-1)">
                  <use xlink:href="#rim" fill="#404040">
                        <set attributeName="fill" to="#808080" begin="arrowUp.mouseover" end="arrowUp.mouseout"/>
                  </use>
                  <path fill="none" stroke="white" stroke-width="1.5" d="M0,-3.0v7 M-2.5,-0.5L0,-3.0L2.5,-0.5"/>
                </g>
                <g id="arrowRight" xlink:href="#dirArrow" transform="rotate(90) translate(36 -43)" onmousedown="handlePan(1,0)">
                  <use xlink:href="#rim" fill="#404040">
                        <set attributeName="fill" to="#808080" begin="arrowRight.mouseover" end="arrowRight.mouseout"/>
                  </use>
                  <path fill="none" stroke="white" stroke-width="1.5" d="M0,-3.0v7 M-2.5,-0.5L0,-3.0L2.5,-0.5"/>
                </g>
                <g id="arrowDown" xlink:href="#dirArrow" transform="rotate(180) translate(-30 -48)" onmousedown="handlePan(0,1)">
                  <use xlink:href="#rim" fill="#404040">
                        <set attributeName="fill" to="#808080" begin="arrowDown.mouseover" end="arrowDown.mouseout"/>
                  </use>
                  <path fill="none" stroke="white" stroke-width="1.5" d="M0,-3.0v7 M-2.5,-0.5L0,-3.0L2.5,-0.5"/>
                </g>
                <g id="arrowLeft" xlink:href="#dirArrow" transform="rotate(270) translate(-36 17)" onmousedown="handlePan(-1,0)">
                  <use xlink:href="#rim" fill="#404040">
                        <set attributeName="fill" to="#808080" begin="arrowLeft.mouseover" end="arrowLeft.mouseout"/>
                  </use>
                  <path fill="none" stroke="white" stroke-width="1.5" d="M0,-3.0v7 M-2.5,-0.5L0,-3.0L2.5,-0.5"/>
                </g>
        </g>
        <svg viewBox="0 0 15 15" width="100%" height="30px" preserveAspectRatio="xMaxYMin meet">
         <g id="arrow_out" transform="scale(0.3 0.3)">
          <a xlink:href="a09549_org.svg" target="_base">
           <rect id="button" ry="5" rx="5" y="6" x="6" height="38" width="38"
                fill="#f2f5e9" fill-opacity="0.5" stroke="#606060" stroke-width="1.0"/>
           <path id="arrow"
             d="M 11.500037,31.436501 C 11.940474,20.09759 22.043105,11.32322 32.158766,21.979434 L 37.068811,17.246167 C 37.068811,17.246167 37.088388,32 37.088388,32 L 22.160133,31.978069 C 22.160133,31.978069 26.997745,27.140456 26.997745,27.140456 C 18.528582,18.264221 13.291696,25.230495 11.500037,31.436501 z"
             style="fill:#404040;"/>
          </a>
         </g>
        </svg>
</svg>
