<?xml version="1.0" encoding="UTF-8" standalone="no"?>
<!DOCTYPE svg PUBLIC "-//W3C//DTD SVG 1.1//EN"
 "http://www.w3.org/Graphics/SVG/1.1/DTD/svg11.dtd">
<!-- Generated by graphviz version 2.50.0 (0)
 -->
<!-- Title: __gnu_debug::_Safe_iterator_base Pages: 1 -->
<svg width="469pt" height="233pt"
 viewBox="0.00 0.00 469.00 233.00" xmlns="http://www.w3.org/2000/svg" xmlns:xlink="http://www.w3.org/1999/xlink">
<g id="graph0" class="graph" transform="scale(1 1) rotate(0) translate(4 229)">
<title>__gnu_debug::_Safe_iterator_base</title>
<polygon fill="white" stroke="transparent" points="-4,4 -4,-229 465,-229 465,4 -4,4"/>
<!-- Node1 -->
<g id="node1" class="node">
<title>Node1</title>
<g id="a_node1"><a xlink:title="Basic functionality for a safe iterator.">
<polygon fill="#bfbfbf" stroke="black" points="0,-88.5 0,-116.5 107,-116.5 107,-88.5 0,-88.5"/>
<text text-anchor="start" x="8" y="-105.3" font-family="Helvetica,sans-Serif" font-size="9.00">__gnu_debug::_Safe</text>
<text text-anchor="middle" x="53.5" y="-95.3" font-family="Helvetica,sans-Serif" font-size="9.00">_iterator_base</text>
</a>
</g>
</g>
<!-- Node2 -->
<g id="node2" class="node">
<title>Node2</title>
<g id="a_node2"><a xlink:href="a05206.html" target="_top" xlink:title=" ">
<polygon fill="white" stroke="black" points="143,-176.5 143,-224.5 294,-224.5 294,-176.5 143,-176.5"/>
<text text-anchor="start" x="151" y="-213.3" font-family="Helvetica,sans-Serif" font-size="9.00">__gnu_debug::_Safe</text>
<text text-anchor="start" x="151" y="-203.3" font-family="Helvetica,sans-Serif" font-size="9.00">_iterator&lt; _Iterator,</text>
<text text-anchor="start" x="151" y="-193.3" font-family="Helvetica,sans-Serif" font-size="9.00"> _Sequence, std::bidirectional</text>
<text text-anchor="middle" x="218.5" y="-183.3" font-family="Helvetica,sans-Serif" font-size="9.00">_iterator_tag &gt;</text>
</a>
</g>
</g>
<!-- Node1&#45;&gt;Node2 -->
<g id="edge1" class="edge">
<title>Node1&#45;&gt;Node2</title>
<path fill="none" stroke="midnightblue" d="M79.25,-122.94C96.47,-136.58 120.32,-154.36 143,-167.5 148.26,-170.55 153.86,-173.51 159.53,-176.31"/>
<polygon fill="midnightblue" stroke="midnightblue" points="81.36,-120.14 71.37,-116.61 76.98,-125.6 81.36,-120.14"/>
</g>
<!-- Node3 -->
<g id="node3" class="node">
<title>Node3</title>
<g id="a_node3"><a xlink:href="a05206.html" target="_top" xlink:title=" ">
<polygon fill="white" stroke="black" points="153.5,-109.5 153.5,-157.5 283.5,-157.5 283.5,-109.5 153.5,-109.5"/>
<text text-anchor="start" x="161.5" y="-146.3" font-family="Helvetica,sans-Serif" font-size="9.00">__gnu_debug::_Safe</text>
<text text-anchor="start" x="161.5" y="-136.3" font-family="Helvetica,sans-Serif" font-size="9.00">_iterator&lt; _Iterator,</text>
<text text-anchor="start" x="161.5" y="-126.3" font-family="Helvetica,sans-Serif" font-size="9.00"> _Sequence, std::forward</text>
<text text-anchor="middle" x="218.5" y="-116.3" font-family="Helvetica,sans-Serif" font-size="9.00">_iterator_tag &gt;</text>
</a>
</g>
</g>
<!-- Node1&#45;&gt;Node3 -->
<g id="edge2" class="edge">
<title>Node1&#45;&gt;Node3</title>
<path fill="none" stroke="midnightblue" d="M117.6,-114.5C129.36,-116.74 141.67,-119.08 153.46,-121.32"/>
<polygon fill="midnightblue" stroke="midnightblue" points="117.9,-110.99 107.42,-112.56 116.59,-117.87 117.9,-110.99"/>
</g>
<!-- Node4 -->
<g id="node4" class="node">
<title>Node4</title>
<g id="a_node4"><a xlink:href="a05206.html" target="_top" xlink:title="Safe iterator wrapper.">
<polygon fill="white" stroke="black" points="153,-52.5 153,-90.5 284,-90.5 284,-52.5 153,-52.5"/>
<text text-anchor="start" x="161" y="-79.3" font-family="Helvetica,sans-Serif" font-size="9.00">__gnu_debug::_Safe</text>
<text text-anchor="start" x="161" y="-69.3" font-family="Helvetica,sans-Serif" font-size="9.00">_iterator&lt; _Iterator,</text>
<text text-anchor="middle" x="218.5" y="-59.3" font-family="Helvetica,sans-Serif" font-size="9.00"> _Sequence, _Category &gt;</text>
</a>
</g>
</g>
<!-- Node1&#45;&gt;Node4 -->
<g id="edge3" class="edge">
<title>Node1&#45;&gt;Node4</title>
<path fill="none" stroke="midnightblue" d="M117.47,-90.52C129.08,-88.32 141.22,-86.01 152.88,-83.79"/>
<polygon fill="midnightblue" stroke="midnightblue" points="116.59,-87.13 107.42,-92.44 117.9,-94.01 116.59,-87.13"/>
</g>
<!-- Node5 -->
<g id="node5" class="node">
<title>Node5</title>
<g id="a_node5"><a xlink:href="a09698.html" target="_top" xlink:title="Basic functionality for a safe iterator.">
<polygon fill="white" stroke="black" points="165,-5.5 165,-33.5 272,-33.5 272,-5.5 165,-5.5"/>
<text text-anchor="start" x="173" y="-22.3" font-family="Helvetica,sans-Serif" font-size="9.00">__gnu_debug::_Safe</text>
<text text-anchor="middle" x="218.5" y="-12.3" font-family="Helvetica,sans-Serif" font-size="9.00">_local_iterator_base</text>
</a>
</g>
</g>
<!-- Node1&#45;&gt;Node5 -->
<g id="edge4" class="edge">
<title>Node1&#45;&gt;Node5</title>
<path fill="none" stroke="midnightblue" d="M80.9,-82.08C97.91,-69.65 120.91,-54.17 143,-43.5 150.71,-39.78 159.14,-36.43 167.46,-33.51"/>
<polygon fill="midnightblue" stroke="midnightblue" points="78.53,-79.48 72.59,-88.26 82.7,-85.1 78.53,-79.48"/>
</g>
<!-- Node6 -->
<g id="node6" class="node">
<title>Node6</title>
<g id="a_node6"><a xlink:href="a09546.html" target="_top" xlink:title="Safe iterator wrapper.">
<polygon fill="white" stroke="black" points="330,-0.5 330,-38.5 461,-38.5 461,-0.5 330,-0.5"/>
<text text-anchor="start" x="338" y="-27.3" font-family="Helvetica,sans-Serif" font-size="9.00">__gnu_debug::_Safe</text>
<text text-anchor="start" x="338" y="-17.3" font-family="Helvetica,sans-Serif" font-size="9.00">_local_iterator&lt; _Iterator,</text>
<text text-anchor="middle" x="395.5" y="-7.3" font-family="Helvetica,sans-Serif" font-size="9.00"> _Sequence &gt;</text>
</a>
</g>
</g>
<!-- Node5&#45;&gt;Node6 -->
<g id="edge5" class="edge">
<title>Node5&#45;&gt;Node6</title>
<path fill="none" stroke="midnightblue" d="M282.04,-19.5C297.6,-19.5 314.3,-19.5 329.96,-19.5"/>
<polygon fill="midnightblue" stroke="midnightblue" points="282.01,-16 272.01,-19.5 282.01,-23 282.01,-16"/>
</g>
</g>
</svg>
