<?xml version="1.0" encoding="UTF-8" standalone="no"?>
<!DOCTYPE svg PUBLIC "-//W3C//DTD SVG 1.1//EN"
 "http://www.w3.org/Graphics/SVG/1.1/DTD/svg11.dtd">
<!-- Generated by graphviz version 2.50.0 (0)
 -->
<!-- Title: std::__debug::deque&lt; _Tp, _Allocator &gt; Pages: 1 -->
<svg width="618pt" height="77pt"
 viewBox="0.00 0.00 618.00 77.00" xmlns="http://www.w3.org/2000/svg" xmlns:xlink="http://www.w3.org/1999/xlink">
<g id="graph0" class="graph" transform="scale(1 1) rotate(0) translate(4 73)">
<title>std::__debug::deque&lt; _Tp, _Allocator &gt;</title>
<polygon fill="white" stroke="transparent" points="-4,4 -4,-73 614,-73 614,4 -4,4"/>
<!-- Node1 -->
<g id="node1" class="node">
<title>Node1</title>
<g id="a_node1"><a xlink:title="Class std::deque with safety/checking/debug instrumentation.">
<polygon fill="#bfbfbf" stroke="black" points="500,-20.5 500,-48.5 610,-48.5 610,-20.5 500,-20.5"/>
<text text-anchor="start" x="508" y="-37.3" font-family="Helvetica,sans-Serif" font-size="9.00">std::__debug::deque</text>
<text text-anchor="middle" x="555" y="-27.3" font-family="Helvetica,sans-Serif" font-size="9.00">&lt; _Tp, _Allocator &gt;</text>
</a>
</g>
</g>
<!-- Node2 -->
<g id="node2" class="node">
<title>Node2</title>
<g id="a_node2"><a xlink:href="a09654.html" target="_top" xlink:title=" ">
<polygon fill="white" stroke="black" points="314,-0.5 314,-68.5 464,-68.5 464,-0.5 314,-0.5"/>
<text text-anchor="start" x="322" y="-57.3" font-family="Helvetica,sans-Serif" font-size="9.00">__gnu_debug::_Safe</text>
<text text-anchor="start" x="322" y="-47.3" font-family="Helvetica,sans-Serif" font-size="9.00">_container&lt; deque&lt; </text>
<text text-anchor="start" x="322" y="-37.3" font-family="Helvetica,sans-Serif" font-size="9.00">_Tp, std::allocator&lt;</text>
<text text-anchor="start" x="322" y="-27.3" font-family="Helvetica,sans-Serif" font-size="9.00"> _Tp &gt; &gt;, std::allocator</text>
<text text-anchor="start" x="322" y="-17.3" font-family="Helvetica,sans-Serif" font-size="9.00">&lt; _Tp &gt;, __gnu_debug::_Safe</text>
<text text-anchor="middle" x="389" y="-7.3" font-family="Helvetica,sans-Serif" font-size="9.00">_sequence &gt;</text>
</a>
</g>
</g>
<!-- Node2&#45;&gt;Node1 -->
<g id="edge1" class="edge">
<title>Node2&#45;&gt;Node1</title>
<path fill="none" stroke="midnightblue" d="M474.36,-34.5C482.92,-34.5 491.44,-34.5 499.56,-34.5"/>
<polygon fill="midnightblue" stroke="midnightblue" points="474.32,-31 464.32,-34.5 474.32,-38 474.32,-31"/>
</g>
<!-- Node3 -->
<g id="node3" class="node">
<title>Node3</title>
<g id="a_node3"><a xlink:href="a09550.html" target="_top" xlink:title="Base class for constructing a safe sequence type that tracks iterators that reference it.">
<polygon fill="white" stroke="black" points="143,-20.5 143,-48.5 278,-48.5 278,-20.5 143,-20.5"/>
<text text-anchor="start" x="151" y="-37.3" font-family="Helvetica,sans-Serif" font-size="9.00">__gnu_debug::_Safe</text>
<text text-anchor="middle" x="210.5" y="-27.3" font-family="Helvetica,sans-Serif" font-size="9.00">_sequence&lt; _Sequence &gt;</text>
</a>
</g>
</g>
<!-- Node3&#45;&gt;Node2 -->
<g id="edge2" class="edge">
<title>Node3&#45;&gt;Node2</title>
<path fill="none" stroke="midnightblue" d="M288.41,-34.5C296.84,-34.5 305.4,-34.5 313.79,-34.5"/>
<polygon fill="midnightblue" stroke="midnightblue" points="288.23,-31 278.23,-34.5 288.23,-38 288.23,-31"/>
</g>
<!-- Node4 -->
<g id="node4" class="node">
<title>Node4</title>
<g id="a_node4"><a xlink:href="a09650.html" target="_top" xlink:title="Base class that supports tracking of iterators that reference a sequence.">
<polygon fill="white" stroke="black" points="0,-20.5 0,-48.5 107,-48.5 107,-20.5 0,-20.5"/>
<text text-anchor="start" x="8" y="-37.3" font-family="Helvetica,sans-Serif" font-size="9.00">__gnu_debug::_Safe</text>
<text text-anchor="middle" x="53.5" y="-27.3" font-family="Helvetica,sans-Serif" font-size="9.00">_sequence_base</text>
</a>
</g>
</g>
<!-- Node4&#45;&gt;Node3 -->
<g id="edge3" class="edge">
<title>Node4&#45;&gt;Node3</title>
<path fill="none" stroke="midnightblue" d="M117.47,-34.5C125.83,-34.5 134.43,-34.5 142.85,-34.5"/>
<polygon fill="midnightblue" stroke="midnightblue" points="117.41,-31 107.41,-34.5 117.41,-38 117.41,-31"/>
</g>
</g>
</svg>
