<?xml version="1.0" encoding="UTF-8" standalone="no"?>
<!DOCTYPE svg PUBLIC "-//W3C//DTD SVG 1.1//EN"
 "http://www.w3.org/Graphics/SVG/1.1/DTD/svg11.dtd">
<!-- Generated by graphviz version 2.50.0 (0)
 -->
<!-- Title: __gnu_debug::_Safe_unordered_container&lt; _Container &gt; Pages: 1 -->
<svg width="840pt" height="458pt"
 viewBox="0.00 0.00 840.00 458.00" xmlns="http://www.w3.org/2000/svg" xmlns:xlink="http://www.w3.org/1999/xlink">
<g id="graph0" class="graph" transform="scale(1 1) rotate(0) translate(4 454)">
<title>__gnu_debug::_Safe_unordered_container&lt; _Container &gt;</title>
<polygon fill="white" stroke="transparent" points="-4,4 -4,-454 836,-454 836,4 -4,4"/>
<!-- Node1 -->
<g id="node1" class="node">
<title>Node1</title>
<g id="a_node1"><a xlink:title="Base class for constructing a safe unordered container type that tracks iterators that reference it.">
<polygon fill="#bfbfbf" stroke="black" points="320,-213.5 320,-251.5 436,-251.5 436,-213.5 320,-213.5"/>
<text text-anchor="start" x="328" y="-240.3" font-family="Helvetica,sans-Serif" font-size="9.00">__gnu_debug::_Safe</text>
<text text-anchor="start" x="328" y="-230.3" font-family="Helvetica,sans-Serif" font-size="9.00">_unordered_container</text>
<text text-anchor="middle" x="378" y="-220.3" font-family="Helvetica,sans-Serif" font-size="9.00">&lt; _Container &gt;</text>
</a>
</g>
</g>
<!-- Node4 -->
<g id="node4" class="node">
<title>Node4</title>
<g id="a_node4"><a xlink:href="a09654.html" target="_top" xlink:title=" ">
<polygon fill="white" stroke="black" points="485,-361.5 485,-449.5 649,-449.5 649,-361.5 485,-361.5"/>
<text text-anchor="start" x="493" y="-438.3" font-family="Helvetica,sans-Serif" font-size="9.00">__gnu_debug::_Safe</text>
<text text-anchor="start" x="493" y="-428.3" font-family="Helvetica,sans-Serif" font-size="9.00">_container&lt; unordered</text>
<text text-anchor="start" x="493" y="-418.3" font-family="Helvetica,sans-Serif" font-size="9.00">_set&lt; _Value, std::hash</text>
<text text-anchor="start" x="493" y="-408.3" font-family="Helvetica,sans-Serif" font-size="9.00">&lt; _Value &gt;, std::equal_to</text>
<text text-anchor="start" x="493" y="-398.3" font-family="Helvetica,sans-Serif" font-size="9.00">&lt; _Value &gt;, std::allocator</text>
<text text-anchor="start" x="493" y="-388.3" font-family="Helvetica,sans-Serif" font-size="9.00">&lt; _Value &gt; &gt;, std::allocator</text>
<text text-anchor="start" x="493" y="-378.3" font-family="Helvetica,sans-Serif" font-size="9.00">&lt; _Value &gt;, __gnu_debug::_Safe</text>
<text text-anchor="middle" x="567" y="-368.3" font-family="Helvetica,sans-Serif" font-size="9.00">_unordered_container &gt;</text>
</a>
</g>
</g>
<!-- Node1&#45;&gt;Node4 -->
<g id="edge3" class="edge">
<title>Node1&#45;&gt;Node4</title>
<path fill="none" stroke="midnightblue" d="M396.07,-260.55C412.96,-286.67 440.78,-325.53 472,-352.5 475.97,-355.93 480.2,-359.24 484.57,-362.42"/>
<polygon fill="midnightblue" stroke="midnightblue" points="398.87,-258.44 390.56,-251.88 392.97,-262.2 398.87,-258.44"/>
</g>
<!-- Node6 -->
<g id="node6" class="node">
<title>Node6</title>
<g id="a_node6"><a xlink:href="a09654.html" target="_top" xlink:title=" ">
<polygon fill="white" stroke="black" points="486,-244.5 486,-342.5 648,-342.5 648,-244.5 486,-244.5"/>
<text text-anchor="start" x="494" y="-331.3" font-family="Helvetica,sans-Serif" font-size="9.00">__gnu_debug::_Safe</text>
<text text-anchor="start" x="494" y="-321.3" font-family="Helvetica,sans-Serif" font-size="9.00">_container&lt; unordered</text>
<text text-anchor="start" x="494" y="-311.3" font-family="Helvetica,sans-Serif" font-size="9.00">_multiset&lt; _Value, std</text>
<text text-anchor="start" x="494" y="-301.3" font-family="Helvetica,sans-Serif" font-size="9.00">::hash&lt; _Value &gt;, std::</text>
<text text-anchor="start" x="494" y="-291.3" font-family="Helvetica,sans-Serif" font-size="9.00">equal_to&lt; _Value &gt;, std</text>
<text text-anchor="start" x="494" y="-281.3" font-family="Helvetica,sans-Serif" font-size="9.00">::allocator&lt; _Value &gt; &gt;,</text>
<text text-anchor="start" x="494" y="-271.3" font-family="Helvetica,sans-Serif" font-size="9.00"> std::allocator&lt; _Value &gt;,</text>
<text text-anchor="start" x="494" y="-261.3" font-family="Helvetica,sans-Serif" font-size="9.00"> __gnu_debug::_Safe_unordered</text>
<text text-anchor="middle" x="567" y="-251.3" font-family="Helvetica,sans-Serif" font-size="9.00">_container &gt;</text>
</a>
</g>
</g>
<!-- Node1&#45;&gt;Node6 -->
<g id="edge5" class="edge">
<title>Node1&#45;&gt;Node6</title>
<path fill="none" stroke="midnightblue" d="M445.86,-254.31C458.81,-258.53 472.5,-263 485.82,-267.35"/>
<polygon fill="midnightblue" stroke="midnightblue" points="446.71,-250.91 436.12,-251.13 444.54,-257.56 446.71,-250.91"/>
</g>
<!-- Node8 -->
<g id="node8" class="node">
<title>Node8</title>
<g id="a_node8"><a xlink:href="a09654.html" target="_top" xlink:title=" ">
<polygon fill="white" stroke="black" points="479,-117.5 479,-225.5 655,-225.5 655,-117.5 479,-117.5"/>
<text text-anchor="start" x="487" y="-214.3" font-family="Helvetica,sans-Serif" font-size="9.00">__gnu_debug::_Safe</text>
<text text-anchor="start" x="487" y="-204.3" font-family="Helvetica,sans-Serif" font-size="9.00">_container&lt; unordered</text>
<text text-anchor="start" x="487" y="-194.3" font-family="Helvetica,sans-Serif" font-size="9.00">_multimap&lt; _Key, _Tp,</text>
<text text-anchor="start" x="487" y="-184.3" font-family="Helvetica,sans-Serif" font-size="9.00"> std::hash&lt; _Key &gt;, std</text>
<text text-anchor="start" x="487" y="-174.3" font-family="Helvetica,sans-Serif" font-size="9.00">::equal_to&lt; _Key &gt;, std</text>
<text text-anchor="start" x="487" y="-164.3" font-family="Helvetica,sans-Serif" font-size="9.00">::allocator&lt; std::pair&lt; const</text>
<text text-anchor="start" x="487" y="-154.3" font-family="Helvetica,sans-Serif" font-size="9.00"> _Key, _Tp &gt; &gt; &gt;, std::allocator</text>
<text text-anchor="start" x="487" y="-144.3" font-family="Helvetica,sans-Serif" font-size="9.00">&lt; std::pair&lt; const _Key, _Tp &gt;</text>
<text text-anchor="start" x="487" y="-134.3" font-family="Helvetica,sans-Serif" font-size="9.00"> &gt;, __gnu_debug::_Safe_unordered</text>
<text text-anchor="middle" x="567" y="-124.3" font-family="Helvetica,sans-Serif" font-size="9.00">_container &gt;</text>
</a>
</g>
</g>
<!-- Node1&#45;&gt;Node8 -->
<g id="edge7" class="edge">
<title>Node1&#45;&gt;Node8</title>
<path fill="none" stroke="midnightblue" d="M445.82,-210.7C456.55,-207.2 467.8,-203.53 478.92,-199.9"/>
<polygon fill="midnightblue" stroke="midnightblue" points="444.54,-207.44 436.12,-213.87 446.71,-214.09 444.54,-207.44"/>
</g>
<!-- Node10 -->
<g id="node10" class="node">
<title>Node10</title>
<g id="a_node10"><a xlink:href="a09654.html" target="_top" xlink:title=" ">
<polygon fill="white" stroke="black" points="472,-0.5 472,-98.5 662,-98.5 662,-0.5 472,-0.5"/>
<text text-anchor="start" x="480" y="-87.3" font-family="Helvetica,sans-Serif" font-size="9.00">__gnu_debug::_Safe</text>
<text text-anchor="start" x="480" y="-77.3" font-family="Helvetica,sans-Serif" font-size="9.00">_container&lt; unordered</text>
<text text-anchor="start" x="480" y="-67.3" font-family="Helvetica,sans-Serif" font-size="9.00">_map&lt; _Key, _Tp, std::</text>
<text text-anchor="start" x="480" y="-57.3" font-family="Helvetica,sans-Serif" font-size="9.00">hash&lt; _Key &gt;, std::equal</text>
<text text-anchor="start" x="480" y="-47.3" font-family="Helvetica,sans-Serif" font-size="9.00">_to&lt; _Key &gt;, std::allocator</text>
<text text-anchor="start" x="480" y="-37.3" font-family="Helvetica,sans-Serif" font-size="9.00">&lt; std::pair&lt; const _Key, _Tp</text>
<text text-anchor="start" x="480" y="-27.3" font-family="Helvetica,sans-Serif" font-size="9.00"> &gt; &gt; &gt;, std::allocator&lt; std::</text>
<text text-anchor="start" x="480" y="-17.3" font-family="Helvetica,sans-Serif" font-size="9.00">pair&lt; const _Key, _Tp &gt; &gt;, __gnu</text>
<text text-anchor="middle" x="567" y="-7.3" font-family="Helvetica,sans-Serif" font-size="9.00">_debug::_Safe_unordered_container &gt;</text>
</a>
</g>
</g>
<!-- Node1&#45;&gt;Node10 -->
<g id="edge9" class="edge">
<title>Node1&#45;&gt;Node10</title>
<path fill="none" stroke="midnightblue" d="M395.28,-204.79C412.09,-177.76 440.29,-136.57 472,-107.5 475.25,-104.52 478.68,-101.61 482.22,-98.77"/>
<polygon fill="midnightblue" stroke="midnightblue" points="392.26,-203.02 390.02,-213.38 398.23,-206.68 392.26,-203.02"/>
</g>
<!-- Node2 -->
<g id="node2" class="node">
<title>Node2</title>
<g id="a_node2"><a xlink:href="a09702.html" target="_top" xlink:title="Base class that supports tracking of local iterators that reference an unordered container.">
<polygon fill="white" stroke="black" points="143,-218.5 143,-246.5 284,-246.5 284,-218.5 143,-218.5"/>
<text text-anchor="start" x="151" y="-235.3" font-family="Helvetica,sans-Serif" font-size="9.00">__gnu_debug::_Safe</text>
<text text-anchor="middle" x="213.5" y="-225.3" font-family="Helvetica,sans-Serif" font-size="9.00">_unordered_container_base</text>
</a>
</g>
</g>
<!-- Node2&#45;&gt;Node1 -->
<g id="edge1" class="edge">
<title>Node2&#45;&gt;Node1</title>
<path fill="none" stroke="midnightblue" d="M294.43,-232.5C303.04,-232.5 311.66,-232.5 319.92,-232.5"/>
<polygon fill="midnightblue" stroke="midnightblue" points="294.36,-229 284.36,-232.5 294.36,-236 294.36,-229"/>
</g>
<!-- Node3 -->
<g id="node3" class="node">
<title>Node3</title>
<g id="a_node3"><a xlink:href="a09650.html" target="_top" xlink:title="Base class that supports tracking of iterators that reference a sequence.">
<polygon fill="white" stroke="black" points="0,-218.5 0,-246.5 107,-246.5 107,-218.5 0,-218.5"/>
<text text-anchor="start" x="8" y="-235.3" font-family="Helvetica,sans-Serif" font-size="9.00">__gnu_debug::_Safe</text>
<text text-anchor="middle" x="53.5" y="-225.3" font-family="Helvetica,sans-Serif" font-size="9.00">_sequence_base</text>
</a>
</g>
</g>
<!-- Node3&#45;&gt;Node2 -->
<g id="edge2" class="edge">
<title>Node3&#45;&gt;Node2</title>
<path fill="none" stroke="midnightblue" d="M117.26,-232.5C125.71,-232.5 134.41,-232.5 142.97,-232.5"/>
<polygon fill="midnightblue" stroke="midnightblue" points="117.11,-229 107.11,-232.5 117.11,-236 117.11,-229"/>
</g>
<!-- Node5 -->
<g id="node5" class="node">
<title>Node5</title>
<g id="a_node5"><a xlink:href="a09818.html" target="_top" xlink:title="Class std::unordered_set with safety/checking/debug instrumentation.">
<polygon fill="white" stroke="black" points="701,-386.5 701,-424.5 829,-424.5 829,-386.5 701,-386.5"/>
<text text-anchor="start" x="709" y="-413.3" font-family="Helvetica,sans-Serif" font-size="9.00">std::__debug::unordered</text>
<text text-anchor="start" x="709" y="-403.3" font-family="Helvetica,sans-Serif" font-size="9.00">_set&lt; _Value, _Hash, </text>
<text text-anchor="middle" x="765" y="-393.3" font-family="Helvetica,sans-Serif" font-size="9.00">_Pred, _Alloc &gt;</text>
</a>
</g>
</g>
<!-- Node4&#45;&gt;Node5 -->
<g id="edge4" class="edge">
<title>Node4&#45;&gt;Node5</title>
<path fill="none" stroke="midnightblue" d="M659.32,-405.5C673.38,-405.5 687.62,-405.5 700.88,-405.5"/>
<polygon fill="midnightblue" stroke="midnightblue" points="659.14,-402 649.14,-405.5 659.14,-409 659.14,-402"/>
</g>
<!-- Node7 -->
<g id="node7" class="node">
<title>Node7</title>
<g id="a_node7"><a xlink:href="a09822.html" target="_top" xlink:title="Class std::unordered_multiset with safety/checking/debug instrumentation.">
<polygon fill="white" stroke="black" points="698,-274.5 698,-312.5 832,-312.5 832,-274.5 698,-274.5"/>
<text text-anchor="start" x="706" y="-301.3" font-family="Helvetica,sans-Serif" font-size="9.00">std::__debug::unordered</text>
<text text-anchor="start" x="706" y="-291.3" font-family="Helvetica,sans-Serif" font-size="9.00">_multiset&lt; _Value, _Hash,</text>
<text text-anchor="middle" x="765" y="-281.3" font-family="Helvetica,sans-Serif" font-size="9.00"> _Pred, _Alloc &gt;</text>
</a>
</g>
</g>
<!-- Node6&#45;&gt;Node7 -->
<g id="edge6" class="edge">
<title>Node6&#45;&gt;Node7</title>
<path fill="none" stroke="midnightblue" d="M658.14,-293.5C671.46,-293.5 684.98,-293.5 697.7,-293.5"/>
<polygon fill="midnightblue" stroke="midnightblue" points="658,-290 648,-293.5 658,-297 658,-290"/>
</g>
<!-- Node9 -->
<g id="node9" class="node">
<title>Node9</title>
<g id="a_node9"><a xlink:href="a09806.html" target="_top" xlink:title="Class std::unordered_multimap with safety/checking/debug instrumentation.">
<polygon fill="white" stroke="black" points="701,-152.5 701,-190.5 829,-190.5 829,-152.5 701,-152.5"/>
<text text-anchor="start" x="709" y="-179.3" font-family="Helvetica,sans-Serif" font-size="9.00">std::__debug::unordered</text>
<text text-anchor="start" x="709" y="-169.3" font-family="Helvetica,sans-Serif" font-size="9.00">_multimap&lt; _Key, _Tp,</text>
<text text-anchor="middle" x="765" y="-159.3" font-family="Helvetica,sans-Serif" font-size="9.00"> _Hash, _Pred, _Alloc &gt;</text>
</a>
</g>
</g>
<!-- Node8&#45;&gt;Node9 -->
<g id="edge8" class="edge">
<title>Node8&#45;&gt;Node9</title>
<path fill="none" stroke="midnightblue" d="M665.28,-171.5C677.4,-171.5 689.55,-171.5 700.96,-171.5"/>
<polygon fill="midnightblue" stroke="midnightblue" points="665.11,-168 655.11,-171.5 665.11,-175 665.11,-168"/>
</g>
<!-- Node11 -->
<g id="node11" class="node">
<title>Node11</title>
<g id="a_node11"><a xlink:href="a09802.html" target="_top" xlink:title="Class std::unordered_map with safety/checking/debug instrumentation.">
<polygon fill="white" stroke="black" points="699.5,-30.5 699.5,-68.5 830.5,-68.5 830.5,-30.5 699.5,-30.5"/>
<text text-anchor="start" x="707.5" y="-57.3" font-family="Helvetica,sans-Serif" font-size="9.00">std::__debug::unordered</text>
<text text-anchor="start" x="707.5" y="-47.3" font-family="Helvetica,sans-Serif" font-size="9.00">_map&lt; _Key, _Tp, _Hash,</text>
<text text-anchor="middle" x="765" y="-37.3" font-family="Helvetica,sans-Serif" font-size="9.00"> _Pred, _Alloc &gt;</text>
</a>
</g>
</g>
<!-- Node10&#45;&gt;Node11 -->
<g id="edge10" class="edge">
<title>Node10&#45;&gt;Node11</title>
<path fill="none" stroke="midnightblue" d="M672.27,-49.5C681.48,-49.5 690.61,-49.5 699.35,-49.5"/>
<polygon fill="midnightblue" stroke="midnightblue" points="672.27,-46 662.27,-49.5 672.27,-53 672.27,-46"/>
</g>
</g>
</svg>
