<?xml version="1.0" encoding="UTF-8" standalone="no"?>
<!DOCTYPE svg PUBLIC "-//W3C//DTD SVG 1.1//EN"
 "http://www.w3.org/Graphics/SVG/1.1/DTD/svg11.dtd">
<!-- Generated by graphviz version 2.50.0 (0)
 -->
<!-- Title: __gnu_debug::_Safe_forward_list&lt; _SafeSequence &gt; Pages: 1 -->
<svg width="843pt" height="77pt"
 viewBox="0.00 0.00 843.00 77.00" xmlns="http://www.w3.org/2000/svg" xmlns:xlink="http://www.w3.org/1999/xlink">
<g id="graph0" class="graph" transform="scale(1 1) rotate(0) translate(4 73)">
<title>__gnu_debug::_Safe_forward_list&lt; _SafeSequence &gt;</title>
<polygon fill="white" stroke="transparent" points="-4,4 -4,-73 839,-73 839,4 -4,4"/>
<!-- Node1 -->
<g id="node1" class="node">
<title>Node1</title>
<g id="a_node1"><a xlink:title="Special iterators swap and invalidation for forward_list because of the before_begin iterator.">
<polygon fill="#bfbfbf" stroke="black" points="334,-20.5 334,-48.5 497,-48.5 497,-20.5 334,-20.5"/>
<text text-anchor="start" x="342" y="-37.3" font-family="Helvetica,sans-Serif" font-size="9.00">__gnu_debug::_Safe</text>
<text text-anchor="middle" x="415.5" y="-27.3" font-family="Helvetica,sans-Serif" font-size="9.00">_forward_list&lt; _SafeSequence &gt;</text>
</a>
</g>
</g>
<!-- Node4 -->
<g id="node4" class="node">
<title>Node4</title>
<g id="a_node4"><a xlink:href="a09654.html" target="_top" xlink:title=" ">
<polygon fill="white" stroke="black" points="533,-0.5 533,-68.5 683,-68.5 683,-0.5 533,-0.5"/>
<text text-anchor="start" x="541" y="-57.3" font-family="Helvetica,sans-Serif" font-size="9.00">__gnu_debug::_Safe</text>
<text text-anchor="start" x="541" y="-47.3" font-family="Helvetica,sans-Serif" font-size="9.00">_container&lt; forward</text>
<text text-anchor="start" x="541" y="-37.3" font-family="Helvetica,sans-Serif" font-size="9.00">_list&lt; _Tp, std::allocator</text>
<text text-anchor="start" x="541" y="-27.3" font-family="Helvetica,sans-Serif" font-size="9.00">&lt; _Tp &gt; &gt;, std::allocator</text>
<text text-anchor="start" x="541" y="-17.3" font-family="Helvetica,sans-Serif" font-size="9.00">&lt; _Tp &gt;, __gnu_debug::_Safe</text>
<text text-anchor="middle" x="608" y="-7.3" font-family="Helvetica,sans-Serif" font-size="9.00">_forward_list &gt;</text>
</a>
</g>
</g>
<!-- Node1&#45;&gt;Node4 -->
<g id="edge3" class="edge">
<title>Node1&#45;&gt;Node4</title>
<path fill="none" stroke="midnightblue" d="M507.09,-34.5C515.72,-34.5 524.39,-34.5 532.83,-34.5"/>
<polygon fill="midnightblue" stroke="midnightblue" points="507.01,-31 497.01,-34.5 507.01,-38 507.01,-31"/>
</g>
<!-- Node2 -->
<g id="node2" class="node">
<title>Node2</title>
<g id="a_node2"><a xlink:href="a09550.html" target="_top" xlink:title=" ">
<polygon fill="white" stroke="black" points="143,-20.5 143,-48.5 298,-48.5 298,-20.5 143,-20.5"/>
<text text-anchor="start" x="151" y="-37.3" font-family="Helvetica,sans-Serif" font-size="9.00">__gnu_debug::_Safe</text>
<text text-anchor="middle" x="220.5" y="-27.3" font-family="Helvetica,sans-Serif" font-size="9.00">_sequence&lt; _SafeSequence &gt;</text>
</a>
</g>
</g>
<!-- Node2&#45;&gt;Node1 -->
<g id="edge1" class="edge">
<title>Node2&#45;&gt;Node1</title>
<path fill="none" stroke="midnightblue" d="M308.08,-34.5C316.68,-34.5 325.38,-34.5 333.92,-34.5"/>
<polygon fill="midnightblue" stroke="midnightblue" points="308.06,-31 298.06,-34.5 308.06,-38 308.06,-31"/>
</g>
<!-- Node3 -->
<g id="node3" class="node">
<title>Node3</title>
<g id="a_node3"><a xlink:href="a09650.html" target="_top" xlink:title="Base class that supports tracking of iterators that reference a sequence.">
<polygon fill="white" stroke="black" points="0,-20.5 0,-48.5 107,-48.5 107,-20.5 0,-20.5"/>
<text text-anchor="start" x="8" y="-37.3" font-family="Helvetica,sans-Serif" font-size="9.00">__gnu_debug::_Safe</text>
<text text-anchor="middle" x="53.5" y="-27.3" font-family="Helvetica,sans-Serif" font-size="9.00">_sequence_base</text>
</a>
</g>
</g>
<!-- Node3&#45;&gt;Node2 -->
<g id="edge2" class="edge">
<title>Node3&#45;&gt;Node2</title>
<path fill="none" stroke="midnightblue" d="M117.25,-34.5C125.66,-34.5 134.37,-34.5 142.98,-34.5"/>
<polygon fill="midnightblue" stroke="midnightblue" points="117.16,-31 107.16,-34.5 117.16,-38 117.16,-31"/>
</g>
<!-- Node5 -->
<g id="node5" class="node">
<title>Node5</title>
<g id="a_node5"><a xlink:href="a09746.html" target="_top" xlink:title="Class std::forward_list with safety/checking/debug instrumentation.">
<polygon fill="white" stroke="black" points="719,-20.5 719,-48.5 835,-48.5 835,-20.5 719,-20.5"/>
<text text-anchor="start" x="727" y="-37.3" font-family="Helvetica,sans-Serif" font-size="9.00">std::__debug::forward</text>
<text text-anchor="middle" x="777" y="-27.3" font-family="Helvetica,sans-Serif" font-size="9.00">_list&lt; _Tp, _Alloc &gt;</text>
</a>
</g>
</g>
<!-- Node4&#45;&gt;Node5 -->
<g id="edge4" class="edge">
<title>Node4&#45;&gt;Node5</title>
<path fill="none" stroke="midnightblue" d="M693.33,-34.5C701.95,-34.5 710.57,-34.5 718.8,-34.5"/>
<polygon fill="midnightblue" stroke="midnightblue" points="693.22,-31 683.22,-34.5 693.22,-38 693.22,-31"/>
</g>
</g>
</svg>
