<?xml version="1.0" encoding="UTF-8" standalone="no"?>
<!DOCTYPE svg PUBLIC "-//W3C//DTD SVG 1.1//EN"
 "http://www.w3.org/Graphics/SVG/1.1/DTD/svg11.dtd">
<!-- Generated by graphviz version 2.50.0 (0)
 -->
<!-- Title: std::__debug::unordered_multimap&lt; _Key, _Tp, _Hash, _Pred, _Alloc &gt; Pages: 1 -->
<svg width="820pt" height="117pt"
 viewBox="0.00 0.00 820.00 117.00" xmlns="http://www.w3.org/2000/svg" xmlns:xlink="http://www.w3.org/1999/xlink">
<g id="graph0" class="graph" transform="scale(1 1) rotate(0) translate(4 113)">
<title>std::__debug::unordered_multimap&lt; _Key, _Tp, _Hash, _Pred, _Alloc &gt;</title>
<polygon fill="white" stroke="transparent" points="-4,4 -4,-113 816,-113 816,4 -4,4"/>
<!-- Node1 -->
<g id="node1" class="node">
<title>Node1</title>
<g id="a_node1"><a xlink:title="Class std::unordered_multimap with safety/checking/debug instrumentation.">
<polygon fill="#bfbfbf" stroke="black" points="684,-35.5 684,-73.5 812,-73.5 812,-35.5 684,-35.5"/>
<text text-anchor="start" x="692" y="-62.3" font-family="Helvetica,sans-Serif" font-size="9.00">std::__debug::unordered</text>
<text text-anchor="start" x="692" y="-52.3" font-family="Helvetica,sans-Serif" font-size="9.00">_multimap&lt; _Key, _Tp,</text>
<text text-anchor="middle" x="748" y="-42.3" font-family="Helvetica,sans-Serif" font-size="9.00"> _Hash, _Pred, _Alloc &gt;</text>
</a>
</g>
</g>
<!-- Node2 -->
<g id="node2" class="node">
<title>Node2</title>
<g id="a_node2"><a xlink:href="a09654.html" target="_top" xlink:title=" ">
<polygon fill="white" stroke="black" points="472,-0.5 472,-108.5 648,-108.5 648,-0.5 472,-0.5"/>
<text text-anchor="start" x="480" y="-97.3" font-family="Helvetica,sans-Serif" font-size="9.00">__gnu_debug::_Safe</text>
<text text-anchor="start" x="480" y="-87.3" font-family="Helvetica,sans-Serif" font-size="9.00">_container&lt; unordered</text>
<text text-anchor="start" x="480" y="-77.3" font-family="Helvetica,sans-Serif" font-size="9.00">_multimap&lt; _Key, _Tp,</text>
<text text-anchor="start" x="480" y="-67.3" font-family="Helvetica,sans-Serif" font-size="9.00"> std::hash&lt; _Key &gt;, std</text>
<text text-anchor="start" x="480" y="-57.3" font-family="Helvetica,sans-Serif" font-size="9.00">::equal_to&lt; _Key &gt;, std</text>
<text text-anchor="start" x="480" y="-47.3" font-family="Helvetica,sans-Serif" font-size="9.00">::allocator&lt; std::pair&lt; const</text>
<text text-anchor="start" x="480" y="-37.3" font-family="Helvetica,sans-Serif" font-size="9.00"> _Key, _Tp &gt; &gt; &gt;, std::allocator</text>
<text text-anchor="start" x="480" y="-27.3" font-family="Helvetica,sans-Serif" font-size="9.00">&lt; std::pair&lt; const _Key, _Tp &gt;</text>
<text text-anchor="start" x="480" y="-17.3" font-family="Helvetica,sans-Serif" font-size="9.00"> &gt;, __gnu_debug::_Safe_unordered</text>
<text text-anchor="middle" x="560" y="-7.3" font-family="Helvetica,sans-Serif" font-size="9.00">_container &gt;</text>
</a>
</g>
</g>
<!-- Node2&#45;&gt;Node1 -->
<g id="edge1" class="edge">
<title>Node2&#45;&gt;Node1</title>
<path fill="none" stroke="midnightblue" d="M658.23,-54.5C666.94,-54.5 675.6,-54.5 683.9,-54.5"/>
<polygon fill="midnightblue" stroke="midnightblue" points="658.01,-51 648.01,-54.5 658.01,-58 658.01,-51"/>
</g>
<!-- Node3 -->
<g id="node3" class="node">
<title>Node3</title>
<g id="a_node3"><a xlink:href="a09706.html" target="_top" xlink:title="Base class for constructing a safe unordered container type that tracks iterators that reference it.">
<polygon fill="white" stroke="black" points="320,-35.5 320,-73.5 436,-73.5 436,-35.5 320,-35.5"/>
<text text-anchor="start" x="328" y="-62.3" font-family="Helvetica,sans-Serif" font-size="9.00">__gnu_debug::_Safe</text>
<text text-anchor="start" x="328" y="-52.3" font-family="Helvetica,sans-Serif" font-size="9.00">_unordered_container</text>
<text text-anchor="middle" x="378" y="-42.3" font-family="Helvetica,sans-Serif" font-size="9.00">&lt; _Container &gt;</text>
</a>
</g>
</g>
<!-- Node3&#45;&gt;Node2 -->
<g id="edge2" class="edge">
<title>Node3&#45;&gt;Node2</title>
<path fill="none" stroke="midnightblue" d="M446.72,-54.5C454.95,-54.5 463.45,-54.5 471.92,-54.5"/>
<polygon fill="midnightblue" stroke="midnightblue" points="446.45,-51 436.45,-54.5 446.45,-58 446.45,-51"/>
</g>
<!-- Node4 -->
<g id="node4" class="node">
<title>Node4</title>
<g id="a_node4"><a xlink:href="a09702.html" target="_top" xlink:title="Base class that supports tracking of local iterators that reference an unordered container.">
<polygon fill="white" stroke="black" points="143,-40.5 143,-68.5 284,-68.5 284,-40.5 143,-40.5"/>
<text text-anchor="start" x="151" y="-57.3" font-family="Helvetica,sans-Serif" font-size="9.00">__gnu_debug::_Safe</text>
<text text-anchor="middle" x="213.5" y="-47.3" font-family="Helvetica,sans-Serif" font-size="9.00">_unordered_container_base</text>
</a>
</g>
</g>
<!-- Node4&#45;&gt;Node3 -->
<g id="edge3" class="edge">
<title>Node4&#45;&gt;Node3</title>
<path fill="none" stroke="midnightblue" d="M294.43,-54.5C303.04,-54.5 311.66,-54.5 319.92,-54.5"/>
<polygon fill="midnightblue" stroke="midnightblue" points="294.36,-51 284.36,-54.5 294.36,-58 294.36,-51"/>
</g>
<!-- Node5 -->
<g id="node5" class="node">
<title>Node5</title>
<g id="a_node5"><a xlink:href="a09650.html" target="_top" xlink:title="Base class that supports tracking of iterators that reference a sequence.">
<polygon fill="white" stroke="black" points="0,-40.5 0,-68.5 107,-68.5 107,-40.5 0,-40.5"/>
<text text-anchor="start" x="8" y="-57.3" font-family="Helvetica,sans-Serif" font-size="9.00">__gnu_debug::_Safe</text>
<text text-anchor="middle" x="53.5" y="-47.3" font-family="Helvetica,sans-Serif" font-size="9.00">_sequence_base</text>
</a>
</g>
</g>
<!-- Node5&#45;&gt;Node4 -->
<g id="edge4" class="edge">
<title>Node5&#45;&gt;Node4</title>
<path fill="none" stroke="midnightblue" d="M117.26,-54.5C125.71,-54.5 134.41,-54.5 142.97,-54.5"/>
<polygon fill="midnightblue" stroke="midnightblue" points="117.11,-51 107.11,-54.5 117.11,-58 117.11,-51"/>
</g>
</g>
</svg>
