<?xml version="1.0" encoding="UTF-8" standalone="no"?>
<!DOCTYPE svg PUBLIC "-//W3C//DTD SVG 1.1//EN"
 "http://www.w3.org/Graphics/SVG/1.1/DTD/svg11.dtd">
<!-- Generated by graphviz version 2.50.0 (0)
 -->
<!-- Title: __gnu_cxx::unary_compose&lt; _Operation1, _Operation2 &gt; Pages: 1 -->
<svg width="177pt" height="112pt"
 viewBox="0.00 0.00 177.00 112.00" xmlns="http://www.w3.org/2000/svg" xmlns:xlink="http://www.w3.org/1999/xlink">
<g id="graph0" class="graph" transform="scale(1 1) rotate(0) translate(4 108)">
<title>__gnu_cxx::unary_compose&lt; _Operation1, _Operation2 &gt;</title>
<polygon fill="white" stroke="transparent" points="-4,4 -4,-108 173,-108 173,4 -4,4"/>
<!-- Node1 -->
<g id="node1" class="node">
<title>Node1</title>
<g id="a_node1"><a xlink:title="An SGI extension .">
<polygon fill="#bfbfbf" stroke="black" points="8,-0.5 8,-28.5 161,-28.5 161,-0.5 8,-0.5"/>
<text text-anchor="start" x="16" y="-17.3" font-family="Helvetica,sans-Serif" font-size="9.00">__gnu_cxx::unary_compose</text>
<text text-anchor="middle" x="84.5" y="-7.3" font-family="Helvetica,sans-Serif" font-size="9.00">&lt; _Operation1, _Operation2 &gt;</text>
</a>
</g>
</g>
<!-- Node2 -->
<g id="node2" class="node">
<title>Node2</title>
<g id="a_node2"><a xlink:href="a08206.html" target="_top" xlink:title=" ">
<polygon fill="white" stroke="black" points="0,-65.5 0,-103.5 169,-103.5 169,-65.5 0,-65.5"/>
<text text-anchor="start" x="8" y="-92.3" font-family="Helvetica,sans-Serif" font-size="9.00">std::unary_function</text>
<text text-anchor="start" x="8" y="-82.3" font-family="Helvetica,sans-Serif" font-size="9.00">&lt; _Operation2::argument</text>
<text text-anchor="middle" x="84.5" y="-72.3" font-family="Helvetica,sans-Serif" font-size="9.00">_type, _Operation1::result_type &gt;</text>
</a>
</g>
</g>
<!-- Node2&#45;&gt;Node1 -->
<g id="edge1" class="edge">
<title>Node2&#45;&gt;Node1</title>
<path fill="none" stroke="midnightblue" d="M84.5,-55.01C84.5,-45.92 84.5,-36.29 84.5,-28.81"/>
<polygon fill="midnightblue" stroke="midnightblue" points="81,-55.28 84.5,-65.28 88,-55.28 81,-55.28"/>
</g>
</g>
</svg>
