<?xml version="1.0" encoding="UTF-8" standalone="no"?>
<!DOCTYPE svg PUBLIC "-//W3C//DTD SVG 1.1//EN"
 "http://www.w3.org/Graphics/SVG/1.1/DTD/svg11.dtd">
<!-- Generated by graphviz version 2.50.0 (0)
 -->
<!-- Title: std::__debug::unordered_map&lt; _Key, _Tp, _Hash, _Pred, _Alloc &gt; Pages: 1 -->
<!--zoomable 107 -->
<svg id="main" version="1.1" xmlns="http://www.w3.org/2000/svg" xmlns:xlink="http://www.w3.org/1999/xlink" xml:space="preserve" onload="init(evt)">
<style type="text/css"><![CDATA[
.edge:hover path { stroke: red; }
.edge:hover polygon { stroke: red; fill: red; }
]]></style>
<script type="text/javascript"><![CDATA[
var edges = document.getElementsByTagName('g');
if (edges && edges.length) {
  for (var i=0;i<edges.length;i++) {
    if (edges[i].id.substr(0,4)=='edge') {
      edges[i].setAttribute('class','edge');
    }
  }
}
]]></script>
        <defs>
                <circle id="rim" cx="0" cy="0" r="7"/>
                <circle id="rim2" cx="0" cy="0" r="3.5"/>
                <g id="zoomPlus">
                        <use xlink:href="#rim" fill="#404040">
                                <set attributeName="fill" to="#808080" begin="zoomplus.mouseover" end="zoomplus.mouseout"/>
                        </use>
                        <path d="M-4,0h8M0,-4v8" fill="none" stroke="white" stroke-width="1.5" pointer-events="none"/>
                </g>
                <g id="zoomMin">
                        <use xlink:href="#rim" fill="#404040">
                                <set attributeName="fill" to="#808080" begin="zoomminus.mouseover" end="zoomminus.mouseout"/>
                        </use>
                        <path d="M-4,0h8" fill="none" stroke="white" stroke-width="1.5" pointer-events="none"/>
                </g>
                <g id="dirArrow">
                        <path fill="none" stroke="white" stroke-width="1.5" d="M0,-3.0v7 M-2.5,-0.5L0,-3.0L2.5,-0.5"/>
                </g>
               <g id="resetDef">
                       <use xlink:href="#rim2" fill="#404040">
                               <set attributeName="fill" to="#808080" begin="reset.mouseover" end="reset.mouseout"/>
                       </use>
               </g>
        </defs>

<script type="text/javascript">
var viewWidth = 837;
var viewHeight = 107;
var sectionId = 'dynsection-0';
</script>
<script xlink:href="svgpan.js"/>
<svg id="graph" class="graph">
<g id="viewport">
<title>std::__debug::unordered_map&lt; _Key, _Tp, _Hash, _Pred, _Alloc &gt;</title>
<polygon fill="white" stroke="transparent" points="-4,4 -4,-103 833,-103 833,4 -4,4"/>
<!-- Node1 -->
<g id="node1" class="node">
<title>Node1</title>
<g id="a_node1"><a xlink:title="Class std::unordered_map with safety/checking/debug instrumentation.">
<polygon fill="#bfbfbf" stroke="black" points="698,-30.5 698,-68.5 829,-68.5 829,-30.5 698,-30.5"/>
<text text-anchor="start" x="706" y="-57.3" font-family="Helvetica,sans-Serif" font-size="9.00">std::__debug::unordered</text>
<text text-anchor="start" x="706" y="-47.3" font-family="Helvetica,sans-Serif" font-size="9.00">_map&lt; _Key, _Tp, _Hash,</text>
<text text-anchor="middle" x="763.5" y="-37.3" font-family="Helvetica,sans-Serif" font-size="9.00"> _Pred, _Alloc &gt;</text>
</a>
</g>
</g>
<!-- Node2 -->
<g id="node2" class="node">
<title>Node2</title>
<g id="a_node2"><a xlink:href="a09654.html" target="_top" xlink:title=" ">
<polygon fill="white" stroke="black" points="472,-0.5 472,-98.5 662,-98.5 662,-0.5 472,-0.5"/>
<text text-anchor="start" x="480" y="-87.3" font-family="Helvetica,sans-Serif" font-size="9.00">__gnu_debug::_Safe</text>
<text text-anchor="start" x="480" y="-77.3" font-family="Helvetica,sans-Serif" font-size="9.00">_container&lt; unordered</text>
<text text-anchor="start" x="480" y="-67.3" font-family="Helvetica,sans-Serif" font-size="9.00">_map&lt; _Key, _Tp, std::</text>
<text text-anchor="start" x="480" y="-57.3" font-family="Helvetica,sans-Serif" font-size="9.00">hash&lt; _Key &gt;, std::equal</text>
<text text-anchor="start" x="480" y="-47.3" font-family="Helvetica,sans-Serif" font-size="9.00">_to&lt; _Key &gt;, std::allocator</text>
<text text-anchor="start" x="480" y="-37.3" font-family="Helvetica,sans-Serif" font-size="9.00">&lt; std::pair&lt; const _Key, _Tp</text>
<text text-anchor="start" x="480" y="-27.3" font-family="Helvetica,sans-Serif" font-size="9.00"> &gt; &gt; &gt;, std::allocator&lt; std::</text>
<text text-anchor="start" x="480" y="-17.3" font-family="Helvetica,sans-Serif" font-size="9.00">pair&lt; const _Key, _Tp &gt; &gt;, __gnu</text>
<text text-anchor="middle" x="567" y="-7.3" font-family="Helvetica,sans-Serif" font-size="9.00">_debug::_Safe_unordered_container &gt;</text>
</a>
</g>
</g>
<!-- Node2&#45;&gt;Node1 -->
<g id="edge1" class="edge">
<title>Node2&#45;&gt;Node1</title>
<path fill="none" stroke="midnightblue" d="M672.34,-49.5C681.04,-49.5 689.66,-49.5 697.92,-49.5"/>
<polygon fill="midnightblue" stroke="midnightblue" points="672.12,-46 662.12,-49.5 672.12,-53 672.12,-46"/>
</g>
<!-- Node3 -->
<g id="node3" class="node">
<title>Node3</title>
<g id="a_node3"><a xlink:href="a09706.html" target="_top" xlink:title="Base class for constructing a safe unordered container type that tracks iterators that reference it.">
<polygon fill="white" stroke="black" points="320,-30.5 320,-68.5 436,-68.5 436,-30.5 320,-30.5"/>
<text text-anchor="start" x="328" y="-57.3" font-family="Helvetica,sans-Serif" font-size="9.00">__gnu_debug::_Safe</text>
<text text-anchor="start" x="328" y="-47.3" font-family="Helvetica,sans-Serif" font-size="9.00">_unordered_container</text>
<text text-anchor="middle" x="378" y="-37.3" font-family="Helvetica,sans-Serif" font-size="9.00">&lt; _Container &gt;</text>
</a>
</g>
</g>
<!-- Node3&#45;&gt;Node2 -->
<g id="edge2" class="edge">
<title>Node3&#45;&gt;Node2</title>
<path fill="none" stroke="midnightblue" d="M446.19,-49.5C454.58,-49.5 463.29,-49.5 471.99,-49.5"/>
<polygon fill="midnightblue" stroke="midnightblue" points="446.12,-46 436.12,-49.5 446.12,-53 446.12,-46"/>
</g>
<!-- Node4 -->
<g id="node4" class="node">
<title>Node4</title>
<g id="a_node4"><a xlink:href="a09702.html" target="_top" xlink:title="Base class that supports tracking of local iterators that reference an unordered container.">
<polygon fill="white" stroke="black" points="143,-35.5 143,-63.5 284,-63.5 284,-35.5 143,-35.5"/>
<text text-anchor="start" x="151" y="-52.3" font-family="Helvetica,sans-Serif" font-size="9.00">__gnu_debug::_Safe</text>
<text text-anchor="middle" x="213.5" y="-42.3" font-family="Helvetica,sans-Serif" font-size="9.00">_unordered_container_base</text>
</a>
</g>
</g>
<!-- Node4&#45;&gt;Node3 -->
<g id="edge3" class="edge">
<title>Node4&#45;&gt;Node3</title>
<path fill="none" stroke="midnightblue" d="M294.43,-49.5C303.04,-49.5 311.66,-49.5 319.92,-49.5"/>
<polygon fill="midnightblue" stroke="midnightblue" points="294.36,-46 284.36,-49.5 294.36,-53 294.36,-46"/>
</g>
<!-- Node5 -->
<g id="node5" class="node">
<title>Node5</title>
<g id="a_node5"><a xlink:href="a09650.html" target="_top" xlink:title="Base class that supports tracking of iterators that reference a sequence.">
<polygon fill="white" stroke="black" points="0,-35.5 0,-63.5 107,-63.5 107,-35.5 0,-35.5"/>
<text text-anchor="start" x="8" y="-52.3" font-family="Helvetica,sans-Serif" font-size="9.00">__gnu_debug::_Safe</text>
<text text-anchor="middle" x="53.5" y="-42.3" font-family="Helvetica,sans-Serif" font-size="9.00">_sequence_base</text>
</a>
</g>
</g>
<!-- Node5&#45;&gt;Node4 -->
<g id="edge4" class="edge">
<title>Node5&#45;&gt;Node4</title>
<path fill="none" stroke="midnightblue" d="M117.26,-49.5C125.71,-49.5 134.41,-49.5 142.97,-49.5"/>
<polygon fill="midnightblue" stroke="midnightblue" points="117.11,-46 107.11,-49.5 117.11,-53 117.11,-46"/>
</g>
</g>
</svg>
        <g id="navigator" transform="translate(0 0)" fill="#404254">
                <rect fill="#f2f5e9" fill-opacity="0.5" stroke="#606060" stroke-width=".5" x="0" y="0" width="60" height="60"/>
                <use id="zoomplus" xlink:href="#zoomPlus" x="17" y="9" onmousedown="handleZoom(evt,'in')"/>
                <use id="zoomminus" xlink:href="#zoomMin" x="42" y="9" onmousedown="handleZoom(evt,'out')"/>
                <use id="reset" xlink:href="#resetDef" x="30" y="36" onmousedown="handleReset()"/>
                <g id="arrowUp" xlink:href="#dirArrow" transform="translate(30 24)" onmousedown="handlePan(0,-1)">
                  <use xlink:href="#rim" fill="#404040">
                        <set attributeName="fill" to="#808080" begin="arrowUp.mouseover" end="arrowUp.mouseout"/>
                  </use>
                  <path fill="none" stroke="white" stroke-width="1.5" d="M0,-3.0v7 M-2.5,-0.5L0,-3.0L2.5,-0.5"/>
                </g>
                <g id="arrowRight" xlink:href="#dirArrow" transform="rotate(90) translate(36 -43)" onmousedown="handlePan(1,0)">
                  <use xlink:href="#rim" fill="#404040">
                        <set attributeName="fill" to="#808080" begin="arrowRight.mouseover" end="arrowRight.mouseout"/>
                  </use>
                  <path fill="none" stroke="white" stroke-width="1.5" d="M0,-3.0v7 M-2.5,-0.5L0,-3.0L2.5,-0.5"/>
                </g>
                <g id="arrowDown" xlink:href="#dirArrow" transform="rotate(180) translate(-30 -48)" onmousedown="handlePan(0,1)">
                  <use xlink:href="#rim" fill="#404040">
                        <set attributeName="fill" to="#808080" begin="arrowDown.mouseover" end="arrowDown.mouseout"/>
                  </use>
                  <path fill="none" stroke="white" stroke-width="1.5" d="M0,-3.0v7 M-2.5,-0.5L0,-3.0L2.5,-0.5"/>
                </g>
                <g id="arrowLeft" xlink:href="#dirArrow" transform="rotate(270) translate(-36 17)" onmousedown="handlePan(-1,0)">
                  <use xlink:href="#rim" fill="#404040">
                        <set attributeName="fill" to="#808080" begin="arrowLeft.mouseover" end="arrowLeft.mouseout"/>
                  </use>
                  <path fill="none" stroke="white" stroke-width="1.5" d="M0,-3.0v7 M-2.5,-0.5L0,-3.0L2.5,-0.5"/>
                </g>
        </g>
        <svg viewBox="0 0 15 15" width="100%" height="30px" preserveAspectRatio="xMaxYMin meet">
         <g id="arrow_out" transform="scale(0.3 0.3)">
          <a xlink:href="a09801_org.svg" target="_base">
           <rect id="button" ry="5" rx="5" y="6" x="6" height="38" width="38"
                fill="#f2f5e9" fill-opacity="0.5" stroke="#606060" stroke-width="1.0"/>
           <path id="arrow"
             d="M 11.500037,31.436501 C 11.940474,20.09759 22.043105,11.32322 32.158766,21.979434 L 37.068811,17.246167 C 37.068811,17.246167 37.088388,32 37.088388,32 L 22.160133,31.978069 C 22.160133,31.978069 26.997745,27.140456 26.997745,27.140456 C 18.528582,18.264221 13.291696,25.230495 11.500037,31.436501 z"
             style="fill:#404040;"/>
          </a>
         </g>
        </svg>
</svg>
