<?xml version="1.0" encoding="UTF-8" standalone="no"?>
<!DOCTYPE svg PUBLIC "-//W3C//DTD SVG 1.1//EN"
 "http://www.w3.org/Graphics/SVG/1.1/DTD/svg11.dtd">
<!-- Generated by graphviz version 2.50.0 (0)
 -->
<!-- Title: std::__debug::unordered_multiset&lt; _Value, _Hash, _Pred, _Alloc &gt; Pages: 1 -->
<svg width="812pt" height="107pt"
 viewBox="0.00 0.00 812.00 107.00" xmlns="http://www.w3.org/2000/svg" xmlns:xlink="http://www.w3.org/1999/xlink">
<g id="graph0" class="graph" transform="scale(1 1) rotate(0) translate(4 103)">
<title>std::__debug::unordered_multiset&lt; _Value, _Hash, _Pred, _Alloc &gt;</title>
<polygon fill="white" stroke="transparent" points="-4,4 -4,-103 808,-103 808,4 -4,4"/>
<!-- Node1 -->
<g id="node1" class="node">
<title>Node1</title>
<g id="a_node1"><a xlink:title="Class std::unordered_multiset with safety/checking/debug instrumentation.">
<polygon fill="#bfbfbf" stroke="black" points="670,-30.5 670,-68.5 804,-68.5 804,-30.5 670,-30.5"/>
<text text-anchor="start" x="678" y="-57.3" font-family="Helvetica,sans-Serif" font-size="9.00">std::__debug::unordered</text>
<text text-anchor="start" x="678" y="-47.3" font-family="Helvetica,sans-Serif" font-size="9.00">_multiset&lt; _Value, _Hash,</text>
<text text-anchor="middle" x="737" y="-37.3" font-family="Helvetica,sans-Serif" font-size="9.00"> _Pred, _Alloc &gt;</text>
</a>
</g>
</g>
<!-- Node2 -->
<g id="node2" class="node">
<title>Node2</title>
<g id="a_node2"><a xlink:href="a09654.html" target="_top" xlink:title=" ">
<polygon fill="white" stroke="black" points="472,-0.5 472,-98.5 634,-98.5 634,-0.5 472,-0.5"/>
<text text-anchor="start" x="480" y="-87.3" font-family="Helvetica,sans-Serif" font-size="9.00">__gnu_debug::_Safe</text>
<text text-anchor="start" x="480" y="-77.3" font-family="Helvetica,sans-Serif" font-size="9.00">_container&lt; unordered</text>
<text text-anchor="start" x="480" y="-67.3" font-family="Helvetica,sans-Serif" font-size="9.00">_multiset&lt; _Value, std</text>
<text text-anchor="start" x="480" y="-57.3" font-family="Helvetica,sans-Serif" font-size="9.00">::hash&lt; _Value &gt;, std::</text>
<text text-anchor="start" x="480" y="-47.3" font-family="Helvetica,sans-Serif" font-size="9.00">equal_to&lt; _Value &gt;, std</text>
<text text-anchor="start" x="480" y="-37.3" font-family="Helvetica,sans-Serif" font-size="9.00">::allocator&lt; _Value &gt; &gt;,</text>
<text text-anchor="start" x="480" y="-27.3" font-family="Helvetica,sans-Serif" font-size="9.00"> std::allocator&lt; _Value &gt;,</text>
<text text-anchor="start" x="480" y="-17.3" font-family="Helvetica,sans-Serif" font-size="9.00"> __gnu_debug::_Safe_unordered</text>
<text text-anchor="middle" x="553" y="-7.3" font-family="Helvetica,sans-Serif" font-size="9.00">_container &gt;</text>
</a>
</g>
</g>
<!-- Node2&#45;&gt;Node1 -->
<g id="edge1" class="edge">
<title>Node2&#45;&gt;Node1</title>
<path fill="none" stroke="midnightblue" d="M644.19,-49.5C652.82,-49.5 661.45,-49.5 669.78,-49.5"/>
<polygon fill="midnightblue" stroke="midnightblue" points="644.09,-46 634.09,-49.5 644.09,-53 644.09,-46"/>
</g>
<!-- Node3 -->
<g id="node3" class="node">
<title>Node3</title>
<g id="a_node3"><a xlink:href="a09706.html" target="_top" xlink:title="Base class for constructing a safe unordered container type that tracks iterators that reference it.">
<polygon fill="white" stroke="black" points="320,-30.5 320,-68.5 436,-68.5 436,-30.5 320,-30.5"/>
<text text-anchor="start" x="328" y="-57.3" font-family="Helvetica,sans-Serif" font-size="9.00">__gnu_debug::_Safe</text>
<text text-anchor="start" x="328" y="-47.3" font-family="Helvetica,sans-Serif" font-size="9.00">_unordered_container</text>
<text text-anchor="middle" x="378" y="-37.3" font-family="Helvetica,sans-Serif" font-size="9.00">&lt; _Container &gt;</text>
</a>
</g>
</g>
<!-- Node3&#45;&gt;Node2 -->
<g id="edge2" class="edge">
<title>Node3&#45;&gt;Node2</title>
<path fill="none" stroke="midnightblue" d="M446.2,-49.5C454.58,-49.5 463.21,-49.5 471.76,-49.5"/>
<polygon fill="midnightblue" stroke="midnightblue" points="446.13,-46 436.13,-49.5 446.13,-53 446.13,-46"/>
</g>
<!-- Node4 -->
<g id="node4" class="node">
<title>Node4</title>
<g id="a_node4"><a xlink:href="a09702.html" target="_top" xlink:title="Base class that supports tracking of local iterators that reference an unordered container.">
<polygon fill="white" stroke="black" points="143,-35.5 143,-63.5 284,-63.5 284,-35.5 143,-35.5"/>
<text text-anchor="start" x="151" y="-52.3" font-family="Helvetica,sans-Serif" font-size="9.00">__gnu_debug::_Safe</text>
<text text-anchor="middle" x="213.5" y="-42.3" font-family="Helvetica,sans-Serif" font-size="9.00">_unordered_container_base</text>
</a>
</g>
</g>
<!-- Node4&#45;&gt;Node3 -->
<g id="edge3" class="edge">
<title>Node4&#45;&gt;Node3</title>
<path fill="none" stroke="midnightblue" d="M294.43,-49.5C303.04,-49.5 311.66,-49.5 319.92,-49.5"/>
<polygon fill="midnightblue" stroke="midnightblue" points="294.36,-46 284.36,-49.5 294.36,-53 294.36,-46"/>
</g>
<!-- Node5 -->
<g id="node5" class="node">
<title>Node5</title>
<g id="a_node5"><a xlink:href="a09650.html" target="_top" xlink:title="Base class that supports tracking of iterators that reference a sequence.">
<polygon fill="white" stroke="black" points="0,-35.5 0,-63.5 107,-63.5 107,-35.5 0,-35.5"/>
<text text-anchor="start" x="8" y="-52.3" font-family="Helvetica,sans-Serif" font-size="9.00">__gnu_debug::_Safe</text>
<text text-anchor="middle" x="53.5" y="-42.3" font-family="Helvetica,sans-Serif" font-size="9.00">_sequence_base</text>
</a>
</g>
</g>
<!-- Node5&#45;&gt;Node4 -->
<g id="edge4" class="edge">
<title>Node5&#45;&gt;Node4</title>
<path fill="none" stroke="midnightblue" d="M117.26,-49.5C125.71,-49.5 134.41,-49.5 142.97,-49.5"/>
<polygon fill="midnightblue" stroke="midnightblue" points="117.11,-46 107.11,-49.5 117.11,-53 117.11,-46"/>
</g>
</g>
</svg>
