<?xml version="1.0" encoding="UTF-8" standalone="no"?>
<!DOCTYPE svg PUBLIC "-//W3C//DTD SVG 1.1//EN"
 "http://www.w3.org/Graphics/SVG/1.1/DTD/svg11.dtd">
<!-- Generated by graphviz version 2.50.0 (0)
 -->
<!-- Title: __gnu_cxx::binary_compose&lt; _Operation1, _Operation2, _Operation3 &gt; Pages: 1 -->
<svg width="177pt" height="122pt"
 viewBox="0.00 0.00 177.00 122.00" xmlns="http://www.w3.org/2000/svg" xmlns:xlink="http://www.w3.org/1999/xlink">
<g id="graph0" class="graph" transform="scale(1 1) rotate(0) translate(4 118)">
<title>__gnu_cxx::binary_compose&lt; _Operation1, _Operation2, _Operation3 &gt;</title>
<polygon fill="white" stroke="transparent" points="-4,4 -4,-118 173,-118 173,4 -4,4"/>
<!-- Node1 -->
<g id="node1" class="node">
<title>Node1</title>
<g id="a_node1"><a xlink:title="An SGI extension .">
<polygon fill="#bfbfbf" stroke="black" points="11.5,-0.5 11.5,-38.5 157.5,-38.5 157.5,-0.5 11.5,-0.5"/>
<text text-anchor="start" x="19.5" y="-27.3" font-family="Helvetica,sans-Serif" font-size="9.00">__gnu_cxx::binary_compose</text>
<text text-anchor="start" x="19.5" y="-17.3" font-family="Helvetica,sans-Serif" font-size="9.00">&lt; _Operation1, _Operation2,</text>
<text text-anchor="middle" x="84.5" y="-7.3" font-family="Helvetica,sans-Serif" font-size="9.00"> _Operation3 &gt;</text>
</a>
</g>
</g>
<!-- Node2 -->
<g id="node2" class="node">
<title>Node2</title>
<g id="a_node2"><a xlink:href="a08206.html" target="_top" xlink:title=" ">
<polygon fill="white" stroke="black" points="0,-75.5 0,-113.5 169,-113.5 169,-75.5 0,-75.5"/>
<text text-anchor="start" x="8" y="-102.3" font-family="Helvetica,sans-Serif" font-size="9.00">std::unary_function</text>
<text text-anchor="start" x="8" y="-92.3" font-family="Helvetica,sans-Serif" font-size="9.00">&lt; _Operation2::argument</text>
<text text-anchor="middle" x="84.5" y="-82.3" font-family="Helvetica,sans-Serif" font-size="9.00">_type, _Operation1::result_type &gt;</text>
</a>
</g>
</g>
<!-- Node2&#45;&gt;Node1 -->
<g id="edge1" class="edge">
<title>Node2&#45;&gt;Node1</title>
<path fill="none" stroke="midnightblue" d="M84.5,-65.37C84.5,-56.38 84.5,-46.67 84.5,-38.59"/>
<polygon fill="midnightblue" stroke="midnightblue" points="81,-65.46 84.5,-75.46 88,-65.46 81,-65.46"/>
</g>
</g>
</svg>
