<?xml version="1.0" encoding="UTF-8" standalone="no"?>
<!DOCTYPE svg PUBLIC "-//W3C//DTD SVG 1.1//EN"
 "http://www.w3.org/Graphics/SVG/1.1/DTD/svg11.dtd">
<!-- Generated by graphviz version 2.50.0 (0)
 -->
<!-- Title: __gnu_parallel::_Less&lt; _T1, _T2 &gt; Pages: 1 -->
<svg width="118pt" height="102pt"
 viewBox="0.00 0.00 118.00 102.00" xmlns="http://www.w3.org/2000/svg" xmlns:xlink="http://www.w3.org/1999/xlink">
<g id="graph0" class="graph" transform="scale(1 1) rotate(0) translate(4 98)">
<title>__gnu_parallel::_Less&lt; _T1, _T2 &gt;</title>
<polygon fill="white" stroke="transparent" points="-4,4 -4,-98 114,-98 114,4 -4,4"/>
<!-- Node1 -->
<g id="node1" class="node">
<title>Node1</title>
<g id="a_node1"><a xlink:title="Similar to std::less, but allows two different types.">
<polygon fill="#bfbfbf" stroke="black" points="0,-0.5 0,-28.5 110,-28.5 110,-0.5 0,-0.5"/>
<text text-anchor="start" x="8" y="-17.3" font-family="Helvetica,sans-Serif" font-size="9.00">__gnu_parallel::_Less</text>
<text text-anchor="middle" x="55" y="-7.3" font-family="Helvetica,sans-Serif" font-size="9.00">&lt; _T1, _T2 &gt;</text>
</a>
</g>
</g>
<!-- Node2 -->
<g id="node2" class="node">
<title>Node2</title>
<g id="a_node2"><a xlink:href="a08210.html" target="_top" xlink:title=" ">
<polygon fill="white" stroke="black" points="1.5,-65.5 1.5,-93.5 108.5,-93.5 108.5,-65.5 1.5,-65.5"/>
<text text-anchor="start" x="9.5" y="-82.3" font-family="Helvetica,sans-Serif" font-size="9.00">std::binary_function</text>
<text text-anchor="middle" x="55" y="-72.3" font-family="Helvetica,sans-Serif" font-size="9.00">&lt; _T1, _T2, bool &gt;</text>
</a>
</g>
</g>
<!-- Node2&#45;&gt;Node1 -->
<g id="edge1" class="edge">
<title>Node2&#45;&gt;Node1</title>
<path fill="none" stroke="midnightblue" d="M55,-55.16C55,-46.17 55,-36.22 55,-28.54"/>
<polygon fill="midnightblue" stroke="midnightblue" points="51.5,-55.45 55,-65.45 58.5,-55.45 51.5,-55.45"/>
</g>
</g>
</svg>
