<?xml version="1.0" encoding="UTF-8" standalone="no"?>
<!DOCTYPE svg PUBLIC "-//W3C//DTD SVG 1.1//EN"
 "http://www.w3.org/Graphics/SVG/1.1/DTD/svg11.dtd">
<!-- Generated by graphviz version 2.50.0 (0)
 -->
<!-- Title: __gnu_parallel::__find_first_of_selector&lt; _FIterator &gt; Pages: 1 -->
<svg width="163pt" height="102pt"
 viewBox="0.00 0.00 163.00 102.00" xmlns="http://www.w3.org/2000/svg" xmlns:xlink="http://www.w3.org/1999/xlink">
<g id="graph0" class="graph" transform="scale(1 1) rotate(0) translate(4 98)">
<title>__gnu_parallel::__find_first_of_selector&lt; _FIterator &gt;</title>
<polygon fill="white" stroke="transparent" points="-4,4 -4,-98 159,-98 159,4 -4,4"/>
<!-- Node1 -->
<g id="node1" class="node">
<title>Node1</title>
<g id="a_node1"><a xlink:title="Test predicate on several elements.">
<polygon fill="#bfbfbf" stroke="black" points="0,-0.5 0,-28.5 155,-28.5 155,-0.5 0,-0.5"/>
<text text-anchor="start" x="8" y="-17.3" font-family="Helvetica,sans-Serif" font-size="9.00">__gnu_parallel::__find</text>
<text text-anchor="middle" x="77.5" y="-7.3" font-family="Helvetica,sans-Serif" font-size="9.00">_first_of_selector&lt; _FIterator &gt;</text>
</a>
</g>
</g>
<!-- Node2 -->
<g id="node2" class="node">
<title>Node2</title>
<g id="a_node2"><a xlink:href="a10110.html" target="_top" xlink:title="Base class of all __gnu_parallel::__find_template selectors.">
<polygon fill="white" stroke="black" points="13,-65.5 13,-93.5 142,-93.5 142,-65.5 13,-65.5"/>
<text text-anchor="start" x="21" y="-82.3" font-family="Helvetica,sans-Serif" font-size="9.00">__gnu_parallel::__generic</text>
<text text-anchor="middle" x="77.5" y="-72.3" font-family="Helvetica,sans-Serif" font-size="9.00">_find_selector</text>
</a>
</g>
</g>
<!-- Node2&#45;&gt;Node1 -->
<g id="edge1" class="edge">
<title>Node2&#45;&gt;Node1</title>
<path fill="none" stroke="midnightblue" d="M77.5,-55.16C77.5,-46.17 77.5,-36.22 77.5,-28.54"/>
<polygon fill="midnightblue" stroke="midnightblue" points="74,-55.45 77.5,-65.45 81,-55.45 74,-55.45"/>
</g>
</g>
</svg>
