<?xml version="1.0" encoding="UTF-8" standalone="no"?>
<!DOCTYPE svg PUBLIC "-//W3C//DTD SVG 1.1//EN"
 "http://www.w3.org/Graphics/SVG/1.1/DTD/svg11.dtd">
<!-- Generated by graphviz version 2.50.0 (0)
 -->
<!-- Title: __gnu_parallel::__accumulate_selector&lt; _It &gt; Pages: 1 -->
<svg width="157pt" height="102pt"
 viewBox="0.00 0.00 157.00 102.00" xmlns="http://www.w3.org/2000/svg" xmlns:xlink="http://www.w3.org/1999/xlink">
<g id="graph0" class="graph" transform="scale(1 1) rotate(0) translate(4 98)">
<title>__gnu_parallel::__accumulate_selector&lt; _It &gt;</title>
<polygon fill="white" stroke="transparent" points="-4,4 -4,-98 153,-98 153,4 -4,4"/>
<!-- Node1 -->
<g id="node1" class="node">
<title>Node1</title>
<g id="a_node1"><a xlink:title="std::accumulate() selector.">
<polygon fill="#bfbfbf" stroke="black" points="0,-0.5 0,-28.5 149,-28.5 149,-0.5 0,-0.5"/>
<text text-anchor="start" x="8" y="-17.3" font-family="Helvetica,sans-Serif" font-size="9.00">__gnu_parallel::__accumulate</text>
<text text-anchor="middle" x="74.5" y="-7.3" font-family="Helvetica,sans-Serif" font-size="9.00">_selector&lt; _It &gt;</text>
</a>
</g>
</g>
<!-- Node2 -->
<g id="node2" class="node">
<title>Node2</title>
<g id="a_node2"><a xlink:href="a10130.html" target="_top" xlink:title="Generic __selector for embarrassingly parallel functions.">
<polygon fill="white" stroke="black" points="9,-65.5 9,-93.5 140,-93.5 140,-65.5 9,-65.5"/>
<text text-anchor="start" x="17" y="-82.3" font-family="Helvetica,sans-Serif" font-size="9.00">__gnu_parallel::__generic</text>
<text text-anchor="middle" x="74.5" y="-72.3" font-family="Helvetica,sans-Serif" font-size="9.00">_for_each_selector&lt; _It &gt;</text>
</a>
</g>
</g>
<!-- Node2&#45;&gt;Node1 -->
<g id="edge1" class="edge">
<title>Node2&#45;&gt;Node1</title>
<path fill="none" stroke="midnightblue" d="M74.5,-55.16C74.5,-46.17 74.5,-36.22 74.5,-28.54"/>
<polygon fill="midnightblue" stroke="midnightblue" points="71,-55.45 74.5,-65.45 78,-55.45 71,-55.45"/>
</g>
</g>
</svg>
