<?xml version="1.0" encoding="UTF-8" standalone="no"?>
<!DOCTYPE svg PUBLIC "-//W3C//DTD SVG 1.1//EN"
 "http://www.w3.org/Graphics/SVG/1.1/DTD/svg11.dtd">
<!-- Generated by graphviz version 2.50.0 (0)
 -->
<!-- Title: __gnu_parallel::_LoserTreePointerUnguardedBase&lt; _Tp, _Compare &gt; Pages: 1 -->
<svg width="326pt" height="104pt"
 viewBox="0.00 0.00 326.00 104.00" xmlns="http://www.w3.org/2000/svg" xmlns:xlink="http://www.w3.org/1999/xlink">
<g id="graph0" class="graph" transform="scale(1 1) rotate(0) translate(4 100)">
<title>__gnu_parallel::_LoserTreePointerUnguardedBase&lt; _Tp, _Compare &gt;</title>
<polygon fill="white" stroke="transparent" points="-4,4 -4,-100 322,-100 322,4 -4,4"/>
<!-- Node1 -->
<g id="node1" class="node">
<title>Node1</title>
<g id="a_node1"><a xlink:title="Unguarded loser tree, keeping only pointers to the elements in the tree structure.">
<polygon fill="#bfbfbf" stroke="black" points="0,-28.5 0,-66.5 133,-66.5 133,-28.5 0,-28.5"/>
<text text-anchor="start" x="8" y="-55.3" font-family="Helvetica,sans-Serif" font-size="9.00">__gnu_parallel::_LoserTree</text>
<text text-anchor="start" x="8" y="-45.3" font-family="Helvetica,sans-Serif" font-size="9.00">PointerUnguardedBase&lt; </text>
<text text-anchor="middle" x="66.5" y="-35.3" font-family="Helvetica,sans-Serif" font-size="9.00">_Tp, _Compare &gt;</text>
</a>
</g>
</g>
<!-- Node2 -->
<g id="node2" class="node">
<title>Node2</title>
<g id="a_node2"><a xlink:href="a10270.html" target="_top" xlink:title="Stable unguarded _LoserTree variant storing pointers.">
<polygon fill="white" stroke="black" points="169,-57.5 169,-95.5 318,-95.5 318,-57.5 169,-57.5"/>
<text text-anchor="start" x="177" y="-84.3" font-family="Helvetica,sans-Serif" font-size="9.00">__gnu_parallel::_LoserTree</text>
<text text-anchor="start" x="177" y="-74.3" font-family="Helvetica,sans-Serif" font-size="9.00">PointerUnguarded&lt; __stable,</text>
<text text-anchor="middle" x="243.5" y="-64.3" font-family="Helvetica,sans-Serif" font-size="9.00"> _Tp, _Compare &gt;</text>
</a>
</g>
</g>
<!-- Node1&#45;&gt;Node2 -->
<g id="edge1" class="edge">
<title>Node1&#45;&gt;Node2</title>
<path fill="none" stroke="midnightblue" d="M143.09,-60.03C151.63,-61.44 160.32,-62.88 168.83,-64.29"/>
<polygon fill="midnightblue" stroke="midnightblue" points="143.6,-56.56 133.16,-58.38 142.45,-63.47 143.6,-56.56"/>
</g>
<!-- Node3 -->
<g id="node3" class="node">
<title>Node3</title>
<g id="a_node3"><a xlink:href="a10274.html" target="_top" xlink:title="Unstable unguarded _LoserTree variant storing pointers.">
<polygon fill="white" stroke="black" points="177,-0.5 177,-38.5 310,-38.5 310,-0.5 177,-0.5"/>
<text text-anchor="start" x="185" y="-27.3" font-family="Helvetica,sans-Serif" font-size="9.00">__gnu_parallel::_LoserTree</text>
<text text-anchor="start" x="185" y="-17.3" font-family="Helvetica,sans-Serif" font-size="9.00">PointerUnguarded&lt; false,</text>
<text text-anchor="middle" x="243.5" y="-7.3" font-family="Helvetica,sans-Serif" font-size="9.00"> _Tp, _Compare &gt;</text>
</a>
</g>
</g>
<!-- Node1&#45;&gt;Node3 -->
<g id="edge2" class="edge">
<title>Node1&#45;&gt;Node3</title>
<path fill="none" stroke="midnightblue" d="M143.3,-35.37C154.44,-33.59 165.84,-31.76 176.76,-30.02"/>
<polygon fill="midnightblue" stroke="midnightblue" points="142.48,-31.96 133.16,-36.99 143.59,-38.87 142.48,-31.96"/>
</g>
</g>
</svg>
