<?xml version="1.0" encoding="UTF-8" standalone="no"?>
<!DOCTYPE svg PUBLIC "-//W3C//DTD SVG 1.1//EN"
 "http://www.w3.org/Graphics/SVG/1.1/DTD/svg11.dtd">
<!-- Generated by graphviz version 2.50.0 (0)
 -->
<!-- Title: __gnu_parallel::_LoserTreePointer&lt; false, _Tp, _Compare &gt; Pages: 1 -->
<svg width="170pt" height="102pt"
 viewBox="0.00 0.00 170.00 102.00" xmlns="http://www.w3.org/2000/svg" xmlns:xlink="http://www.w3.org/1999/xlink">
<g id="graph0" class="graph" transform="scale(1 1) rotate(0) translate(4 98)">
<title>__gnu_parallel::_LoserTreePointer&lt; false, _Tp, _Compare &gt;</title>
<polygon fill="white" stroke="transparent" points="-4,4 -4,-98 166,-98 166,4 -4,4"/>
<!-- Node1 -->
<g id="node1" class="node">
<title>Node1</title>
<g id="a_node1"><a xlink:title="Unstable _LoserTree implementation.">
<polygon fill="#bfbfbf" stroke="black" points="0,-0.5 0,-28.5 162,-28.5 162,-0.5 0,-0.5"/>
<text text-anchor="start" x="8" y="-17.3" font-family="Helvetica,sans-Serif" font-size="9.00">__gnu_parallel::_LoserTree</text>
<text text-anchor="middle" x="81" y="-7.3" font-family="Helvetica,sans-Serif" font-size="9.00">Pointer&lt; false, _Tp, _Compare &gt;</text>
</a>
</g>
</g>
<!-- Node2 -->
<g id="node2" class="node">
<title>Node2</title>
<g id="a_node2"><a xlink:href="a10230.html" target="_top" xlink:title="Base class of _Loser Tree implementation using pointers.">
<polygon fill="white" stroke="black" points="2.5,-65.5 2.5,-93.5 159.5,-93.5 159.5,-65.5 2.5,-65.5"/>
<text text-anchor="start" x="10.5" y="-82.3" font-family="Helvetica,sans-Serif" font-size="9.00">__gnu_parallel::_LoserTree</text>
<text text-anchor="middle" x="81" y="-72.3" font-family="Helvetica,sans-Serif" font-size="9.00">PointerBase&lt; _Tp, _Compare &gt;</text>
</a>
</g>
</g>
<!-- Node2&#45;&gt;Node1 -->
<g id="edge1" class="edge">
<title>Node2&#45;&gt;Node1</title>
<path fill="none" stroke="midnightblue" d="M81,-55.16C81,-46.17 81,-36.22 81,-28.54"/>
<polygon fill="midnightblue" stroke="midnightblue" points="77.5,-55.45 81,-65.45 84.5,-55.45 77.5,-55.45"/>
</g>
</g>
</svg>
