<?xml version="1.0" encoding="UTF-8" standalone="no"?>
<!DOCTYPE svg PUBLIC "-//W3C//DTD SVG 1.1//EN"
 "http://www.w3.org/Graphics/SVG/1.1/DTD/svg11.dtd">
<!-- Generated by graphviz version 2.50.0 (0)
 -->
<!-- Title: __gnu_parallel::_LoserTreePointer&lt; __stable, _Tp, _Compare &gt; Pages: 1 -->
<svg width="165pt" height="112pt"
 viewBox="0.00 0.00 165.00 112.00" xmlns="http://www.w3.org/2000/svg" xmlns:xlink="http://www.w3.org/1999/xlink">
<g id="graph0" class="graph" transform="scale(1 1) rotate(0) translate(4 108)">
<title>__gnu_parallel::_LoserTreePointer&lt; __stable, _Tp, _Compare &gt;</title>
<polygon fill="white" stroke="transparent" points="-4,4 -4,-108 161,-108 161,4 -4,4"/>
<!-- Node1 -->
<g id="node1" class="node">
<title>Node1</title>
<g id="a_node1"><a xlink:title="Stable _LoserTree implementation.">
<polygon fill="#bfbfbf" stroke="black" points="12,-0.5 12,-38.5 145,-38.5 145,-0.5 12,-0.5"/>
<text text-anchor="start" x="20" y="-27.3" font-family="Helvetica,sans-Serif" font-size="9.00">__gnu_parallel::_LoserTree</text>
<text text-anchor="start" x="20" y="-17.3" font-family="Helvetica,sans-Serif" font-size="9.00">Pointer&lt; __stable, _Tp,</text>
<text text-anchor="middle" x="78.5" y="-7.3" font-family="Helvetica,sans-Serif" font-size="9.00"> _Compare &gt;</text>
</a>
</g>
</g>
<!-- Node2 -->
<g id="node2" class="node">
<title>Node2</title>
<g id="a_node2"><a xlink:href="a10230.html" target="_top" xlink:title="Base class of _Loser Tree implementation using pointers.">
<polygon fill="white" stroke="black" points="0,-75.5 0,-103.5 157,-103.5 157,-75.5 0,-75.5"/>
<text text-anchor="start" x="8" y="-92.3" font-family="Helvetica,sans-Serif" font-size="9.00">__gnu_parallel::_LoserTree</text>
<text text-anchor="middle" x="78.5" y="-82.3" font-family="Helvetica,sans-Serif" font-size="9.00">PointerBase&lt; _Tp, _Compare &gt;</text>
</a>
</g>
</g>
<!-- Node2&#45;&gt;Node1 -->
<g id="edge1" class="edge">
<title>Node2&#45;&gt;Node1</title>
<path fill="none" stroke="midnightblue" d="M78.5,-65.17C78.5,-56.52 78.5,-46.84 78.5,-38.71"/>
<polygon fill="midnightblue" stroke="midnightblue" points="75,-65.39 78.5,-75.39 82,-65.39 75,-65.39"/>
</g>
</g>
</svg>
