<?xml version="1.0" encoding="UTF-8" standalone="no"?>
<!DOCTYPE svg PUBLIC "-//W3C//DTD SVG 1.1//EN"
 "http://www.w3.org/Graphics/SVG/1.1/DTD/svg11.dtd">
<!-- Generated by graphviz version 2.50.0 (0)
 -->
<!-- Title: __gnu_parallel::_Lexicographic&lt; _T1, _T2, _Compare &gt; Pages: 1 -->
<svg width="162pt" height="122pt"
 viewBox="0.00 0.00 162.00 122.00" xmlns="http://www.w3.org/2000/svg" xmlns:xlink="http://www.w3.org/1999/xlink">
<g id="graph0" class="graph" transform="scale(1 1) rotate(0) translate(4 118)">
<title>__gnu_parallel::_Lexicographic&lt; _T1, _T2, _Compare &gt;</title>
<polygon fill="white" stroke="transparent" points="-4,4 -4,-118 158,-118 158,4 -4,4"/>
<!-- Node1 -->
<g id="node1" class="node">
<title>Node1</title>
<g id="a_node1"><a xlink:title="Compare __a pair of types lexicographically, ascending.">
<polygon fill="#bfbfbf" stroke="black" points="0,-0.5 0,-28.5 154,-28.5 154,-0.5 0,-0.5"/>
<text text-anchor="start" x="8" y="-17.3" font-family="Helvetica,sans-Serif" font-size="9.00">__gnu_parallel::_Lexicographic</text>
<text text-anchor="middle" x="77" y="-7.3" font-family="Helvetica,sans-Serif" font-size="9.00">&lt; _T1, _T2, _Compare &gt;</text>
</a>
</g>
</g>
<!-- Node2 -->
<g id="node2" class="node">
<title>Node2</title>
<g id="a_node2"><a xlink:href="a08210.html" target="_top" xlink:title=" ">
<polygon fill="white" stroke="black" points="17.5,-65.5 17.5,-113.5 136.5,-113.5 136.5,-65.5 17.5,-65.5"/>
<text text-anchor="start" x="25.5" y="-102.3" font-family="Helvetica,sans-Serif" font-size="9.00">std::binary_function</text>
<text text-anchor="start" x="25.5" y="-92.3" font-family="Helvetica,sans-Serif" font-size="9.00">&lt; std::pair&lt; _T1, _T2</text>
<text text-anchor="start" x="25.5" y="-82.3" font-family="Helvetica,sans-Serif" font-size="9.00"> &gt;, std::pair&lt; _T1, _T2</text>
<text text-anchor="middle" x="77" y="-72.3" font-family="Helvetica,sans-Serif" font-size="9.00"> &gt;, bool &gt;</text>
</a>
</g>
</g>
<!-- Node2&#45;&gt;Node1 -->
<g id="edge1" class="edge">
<title>Node2&#45;&gt;Node1</title>
<path fill="none" stroke="midnightblue" d="M77,-55.16C77,-45.87 77,-36.3 77,-28.89"/>
<polygon fill="midnightblue" stroke="midnightblue" points="73.5,-55.4 77,-65.4 80.5,-55.4 73.5,-55.4"/>
</g>
</g>
</svg>
