<?xml version="1.0" encoding="UTF-8" standalone="no"?>
<!DOCTYPE svg PUBLIC "-//W3C//DTD SVG 1.1//EN"
 "http://www.w3.org/Graphics/SVG/1.1/DTD/svg11.dtd">
<!-- Generated by graphviz version 2.50.0 (0)
 -->
<!-- Title: __gnu_parallel::_LoserTreeUnguarded&lt; false, _Tp, _Compare &gt; Pages: 1 -->
<svg width="184pt" height="112pt"
 viewBox="0.00 0.00 184.00 112.00" xmlns="http://www.w3.org/2000/svg" xmlns:xlink="http://www.w3.org/1999/xlink">
<g id="graph0" class="graph" transform="scale(1 1) rotate(0) translate(4 108)">
<title>__gnu_parallel::_LoserTreeUnguarded&lt; false, _Tp, _Compare &gt;</title>
<polygon fill="white" stroke="transparent" points="-4,4 -4,-108 180,-108 180,4 -4,4"/>
<!-- Node1 -->
<g id="node1" class="node">
<title>Node1</title>
<g id="a_node1"><a xlink:title="Non&#45;Stable implementation of unguarded _LoserTree.">
<polygon fill="#bfbfbf" stroke="black" points="21.5,-0.5 21.5,-38.5 154.5,-38.5 154.5,-0.5 21.5,-0.5"/>
<text text-anchor="start" x="29.5" y="-27.3" font-family="Helvetica,sans-Serif" font-size="9.00">__gnu_parallel::_LoserTree</text>
<text text-anchor="start" x="29.5" y="-17.3" font-family="Helvetica,sans-Serif" font-size="9.00">Unguarded&lt; false, _Tp,</text>
<text text-anchor="middle" x="88" y="-7.3" font-family="Helvetica,sans-Serif" font-size="9.00"> _Compare &gt;</text>
</a>
</g>
</g>
<!-- Node2 -->
<g id="node2" class="node">
<title>Node2</title>
<g id="a_node2"><a xlink:href="a10246.html" target="_top" xlink:title="Base class for unguarded _LoserTree implementation.">
<polygon fill="white" stroke="black" points="0,-75.5 0,-103.5 176,-103.5 176,-75.5 0,-75.5"/>
<text text-anchor="start" x="8" y="-92.3" font-family="Helvetica,sans-Serif" font-size="9.00">__gnu_parallel::_LoserTree</text>
<text text-anchor="middle" x="88" y="-82.3" font-family="Helvetica,sans-Serif" font-size="9.00">UnguardedBase&lt; _Tp, _Compare &gt;</text>
</a>
</g>
</g>
<!-- Node2&#45;&gt;Node1 -->
<g id="edge1" class="edge">
<title>Node2&#45;&gt;Node1</title>
<path fill="none" stroke="midnightblue" d="M88,-65.17C88,-56.52 88,-46.84 88,-38.71"/>
<polygon fill="midnightblue" stroke="midnightblue" points="84.5,-65.39 88,-75.39 91.5,-65.39 84.5,-65.39"/>
</g>
</g>
</svg>
