<?xml version="1.0" encoding="UTF-8" standalone="no"?>
<!DOCTYPE svg PUBLIC "-//W3C//DTD SVG 1.1//EN"
 "http://www.w3.org/Graphics/SVG/1.1/DTD/svg11.dtd">
<!-- Generated by graphviz version 2.50.0 (0)
 -->
<!-- Title: __gnu_parallel::parallel_tag Pages: 1 -->
<!--zoomable 504 -->
<svg id="main" version="1.1" xmlns="http://www.w3.org/2000/svg" xmlns:xlink="http://www.w3.org/1999/xlink" xml:space="preserve" onload="init(evt)">
<style type="text/css"><![CDATA[
.edge:hover path { stroke: red; }
.edge:hover polygon { stroke: red; fill: red; }
]]></style>
<script type="text/javascript"><![CDATA[
var edges = document.getElementsByTagName('g');
if (edges && edges.length) {
  for (var i=0;i<edges.length;i++) {
    if (edges[i].id.substr(0,4)=='edge') {
      edges[i].setAttribute('class','edge');
    }
  }
}
]]></script>
        <defs>
                <circle id="rim" cx="0" cy="0" r="7"/>
                <circle id="rim2" cx="0" cy="0" r="3.5"/>
                <g id="zoomPlus">
                        <use xlink:href="#rim" fill="#404040">
                                <set attributeName="fill" to="#808080" begin="zoomplus.mouseover" end="zoomplus.mouseout"/>
                        </use>
                        <path d="M-4,0h8M0,-4v8" fill="none" stroke="white" stroke-width="1.5" pointer-events="none"/>
                </g>
                <g id="zoomMin">
                        <use xlink:href="#rim" fill="#404040">
                                <set attributeName="fill" to="#808080" begin="zoomminus.mouseover" end="zoomminus.mouseout"/>
                        </use>
                        <path d="M-4,0h8" fill="none" stroke="white" stroke-width="1.5" pointer-events="none"/>
                </g>
                <g id="dirArrow">
                        <path fill="none" stroke="white" stroke-width="1.5" d="M0,-3.0v7 M-2.5,-0.5L0,-3.0L2.5,-0.5"/>
                </g>
               <g id="resetDef">
                       <use xlink:href="#rim2" fill="#404040">
                               <set attributeName="fill" to="#808080" begin="reset.mouseover" end="reset.mouseout"/>
                       </use>
               </g>
        </defs>

<script type="text/javascript">
var viewWidth = 341;
var viewHeight = 504;
var sectionId = 'dynsection-0';
</script>
<script xlink:href="svgpan.js"/>
<svg id="graph" class="graph">
<g id="viewport">
<title>__gnu_parallel::parallel_tag</title>
<polygon fill="white" stroke="transparent" points="-4,4 -4,-500 337,-500 337,4 -4,4"/>
<!-- Node1 -->
<g id="node1" class="node">
<title>Node1</title>
<g id="a_node1"><a xlink:title="Recommends parallel execution at compile time, optionally using a user&#45;specified number of threads.">
<polygon fill="#bfbfbf" stroke="black" points="0,-233.5 0,-251.5 138,-251.5 138,-233.5 0,-233.5"/>
<text text-anchor="middle" x="69" y="-240.3" font-family="Helvetica,sans-Serif" font-size="9.00">__gnu_parallel::parallel_tag</text>
</a>
</g>
</g>
<!-- Node2 -->
<g id="node2" class="node">
<title>Node2</title>
<g id="a_node2"><a xlink:href="a10466.html" target="_top" xlink:title="Forces parallel sorting using balanced quicksort at compile time.">
<polygon fill="white" stroke="black" points="189.5,-467.5 189.5,-495.5 317.5,-495.5 317.5,-467.5 189.5,-467.5"/>
<text text-anchor="start" x="197.5" y="-484.3" font-family="Helvetica,sans-Serif" font-size="9.00">__gnu_parallel::balanced</text>
<text text-anchor="middle" x="253.5" y="-474.3" font-family="Helvetica,sans-Serif" font-size="9.00">_quicksort_tag</text>
</a>
</g>
</g>
<!-- Node1&#45;&gt;Node2 -->
<g id="edge1" class="edge">
<title>Node1&#45;&gt;Node2</title>
<path fill="none" stroke="midnightblue" d="M73.75,-261.76C82.98,-303.92 110.78,-404.87 174,-458.5 178.55,-462.36 183.72,-465.57 189.18,-468.24"/>
<polygon fill="midnightblue" stroke="midnightblue" points="77.17,-261.02 71.71,-251.94 70.32,-262.45 77.17,-261.02"/>
</g>
<!-- Node3 -->
<g id="node3" class="node">
<title>Node3</title>
<g id="a_node3"><a xlink:href="a10422.html" target="_top" xlink:title="Recommends parallel execution using dynamic load&#45;balancing at compile time.">
<polygon fill="white" stroke="black" points="180,-430.5 180,-448.5 327,-448.5 327,-430.5 180,-430.5"/>
<text text-anchor="middle" x="253.5" y="-437.3" font-family="Helvetica,sans-Serif" font-size="9.00">__gnu_parallel::balanced_tag</text>
</a>
</g>
</g>
<!-- Node1&#45;&gt;Node3 -->
<g id="edge2" class="edge">
<title>Node1&#45;&gt;Node3</title>
<path fill="none" stroke="midnightblue" d="M75.48,-261.67C87.1,-298.72 117.88,-380.16 174,-421.5 178.95,-425.15 184.52,-428.08 190.35,-430.42"/>
<polygon fill="midnightblue" stroke="midnightblue" points="78.71,-260.26 72.48,-251.69 72.01,-262.27 78.71,-260.26"/>
</g>
<!-- Node4 -->
<g id="node4" class="node">
<title>Node4</title>
<g id="a_node4"><a xlink:href="a10418.html" target="_top" xlink:title="Recommends parallel execution using the default parallel algorithm.">
<polygon fill="white" stroke="black" points="194.5,-383.5 194.5,-411.5 312.5,-411.5 312.5,-383.5 194.5,-383.5"/>
<text text-anchor="start" x="202.5" y="-400.3" font-family="Helvetica,sans-Serif" font-size="9.00">__gnu_parallel::default</text>
<text text-anchor="middle" x="253.5" y="-390.3" font-family="Helvetica,sans-Serif" font-size="9.00">_parallel_tag</text>
</a>
</g>
</g>
<!-- Node1&#45;&gt;Node4 -->
<g id="edge3" class="edge">
<title>Node1&#45;&gt;Node4</title>
<path fill="none" stroke="midnightblue" d="M79.43,-260.69C95.15,-289.24 129.45,-344.4 174,-374.5 180.24,-378.71 187.26,-382.17 194.47,-385"/>
<polygon fill="midnightblue" stroke="midnightblue" points="82.46,-258.95 74.65,-251.79 76.29,-262.26 82.46,-258.95"/>
</g>
<!-- Node5 -->
<g id="node5" class="node">
<title>Node5</title>
<g id="a_node5"><a xlink:href="a10442.html" target="_top" xlink:title="Forces parallel merging with exact splitting, at compile time.">
<polygon fill="white" stroke="black" points="188,-346.5 188,-364.5 319,-364.5 319,-346.5 188,-346.5"/>
<text text-anchor="middle" x="253.5" y="-353.3" font-family="Helvetica,sans-Serif" font-size="9.00">__gnu_parallel::exact_tag</text>
</a>
</g>
</g>
<!-- Node1&#45;&gt;Node5 -->
<g id="edge4" class="edge">
<title>Node1&#45;&gt;Node5</title>
<path fill="none" stroke="midnightblue" d="M83.85,-259.74C102.15,-281.32 136.5,-317.84 174,-337.5 181.06,-341.2 188.87,-344.14 196.74,-346.49"/>
<polygon fill="midnightblue" stroke="midnightblue" points="86.3,-257.21 77.23,-251.75 80.91,-261.68 86.3,-257.21"/>
</g>
<!-- Node6 -->
<g id="node6" class="node">
<title>Node6</title>
<g id="a_node6"><a xlink:href="a10454.html" target="_top" xlink:title="Forces parallel sorting using multiway mergesort with exact splitting at compile time.">
<polygon fill="white" stroke="black" points="189.5,-299.5 189.5,-327.5 317.5,-327.5 317.5,-299.5 189.5,-299.5"/>
<text text-anchor="start" x="197.5" y="-316.3" font-family="Helvetica,sans-Serif" font-size="9.00">__gnu_parallel::multiway</text>
<text text-anchor="middle" x="253.5" y="-306.3" font-family="Helvetica,sans-Serif" font-size="9.00">_mergesort_exact_tag</text>
</a>
</g>
</g>
<!-- Node1&#45;&gt;Node6 -->
<g id="edge5" class="edge">
<title>Node1&#45;&gt;Node6</title>
<path fill="none" stroke="midnightblue" d="M96.83,-256.21C117.56,-266.48 147.16,-280.44 174,-290.5 182.51,-293.69 191.67,-296.72 200.63,-299.48"/>
<polygon fill="midnightblue" stroke="midnightblue" points="98.2,-252.99 87.69,-251.64 95.07,-259.25 98.2,-252.99"/>
</g>
<!-- Node7 -->
<g id="node7" class="node">
<title>Node7</title>
<g id="a_node7"><a xlink:href="a10458.html" target="_top" xlink:title="Forces parallel sorting using multiway mergesort with splitting by sampling at compile time.">
<polygon fill="white" stroke="black" points="187,-252.5 187,-280.5 320,-280.5 320,-252.5 187,-252.5"/>
<text text-anchor="start" x="195" y="-269.3" font-family="Helvetica,sans-Serif" font-size="9.00">__gnu_parallel::multiway</text>
<text text-anchor="middle" x="253.5" y="-259.3" font-family="Helvetica,sans-Serif" font-size="9.00">_mergesort_sampling_tag</text>
</a>
</g>
</g>
<!-- Node1&#45;&gt;Node7 -->
<g id="edge6" class="edge">
<title>Node1&#45;&gt;Node7</title>
<path fill="none" stroke="midnightblue" d="M148.39,-252.81C161.19,-254.49 174.33,-256.22 186.79,-257.86"/>
<polygon fill="midnightblue" stroke="midnightblue" points="148.59,-249.3 138.22,-251.47 147.67,-256.24 148.59,-249.3"/>
</g>
<!-- Node8 -->
<g id="node8" class="node">
<title>Node8</title>
<g id="a_node8"><a xlink:href="a10450.html" target="_top" xlink:title="Forces parallel sorting using multiway mergesort at compile time.">
<polygon fill="white" stroke="black" points="189.5,-205.5 189.5,-233.5 317.5,-233.5 317.5,-205.5 189.5,-205.5"/>
<text text-anchor="start" x="197.5" y="-222.3" font-family="Helvetica,sans-Serif" font-size="9.00">__gnu_parallel::multiway</text>
<text text-anchor="middle" x="253.5" y="-212.3" font-family="Helvetica,sans-Serif" font-size="9.00">_mergesort_tag</text>
</a>
</g>
</g>
<!-- Node1&#45;&gt;Node8 -->
<g id="edge7" class="edge">
<title>Node1&#45;&gt;Node8</title>
<path fill="none" stroke="midnightblue" d="M148.17,-232.65C161.97,-230.91 176.18,-229.12 189.49,-227.44"/>
<polygon fill="midnightblue" stroke="midnightblue" points="147.7,-229.18 138.22,-233.9 148.57,-236.13 147.7,-229.18"/>
</g>
<!-- Node9 -->
<g id="node9" class="node">
<title>Node9</title>
<g id="a_node9"><a xlink:href="a10434.html" target="_top" xlink:title="Recommends parallel execution using OpenMP static load&#45;balancing at compile time.">
<polygon fill="white" stroke="black" points="200,-158.5 200,-186.5 307,-186.5 307,-158.5 200,-158.5"/>
<text text-anchor="start" x="208" y="-175.3" font-family="Helvetica,sans-Serif" font-size="9.00">__gnu_parallel::omp</text>
<text text-anchor="middle" x="253.5" y="-165.3" font-family="Helvetica,sans-Serif" font-size="9.00">_loop_static_tag</text>
</a>
</g>
</g>
<!-- Node1&#45;&gt;Node9 -->
<g id="edge8" class="edge">
<title>Node1&#45;&gt;Node9</title>
<path fill="none" stroke="midnightblue" d="M98.06,-228.99C118.78,-219.29 147.81,-206.26 174,-196.5 183.35,-193.02 193.45,-189.65 203.2,-186.58"/>
<polygon fill="midnightblue" stroke="midnightblue" points="96.43,-225.89 88.89,-233.33 99.42,-232.22 96.43,-225.89"/>
</g>
<!-- Node10 -->
<g id="node10" class="node">
<title>Node10</title>
<g id="a_node10"><a xlink:href="a10430.html" target="_top" xlink:title="Recommends parallel execution using OpenMP dynamic load&#45;balancing at compile time.">
<polygon fill="white" stroke="black" points="200,-111.5 200,-139.5 307,-139.5 307,-111.5 200,-111.5"/>
<text text-anchor="start" x="208" y="-128.3" font-family="Helvetica,sans-Serif" font-size="9.00">__gnu_parallel::omp</text>
<text text-anchor="middle" x="253.5" y="-118.3" font-family="Helvetica,sans-Serif" font-size="9.00">_loop_tag</text>
</a>
</g>
</g>
<!-- Node1&#45;&gt;Node10 -->
<g id="edge9" class="edge">
<title>Node1&#45;&gt;Node10</title>
<path fill="none" stroke="midnightblue" d="M84.43,-225.73C103.13,-205.01 137.65,-169.98 174,-149.5 181.95,-145.02 190.83,-141.28 199.67,-138.19"/>
<polygon fill="midnightblue" stroke="midnightblue" points="81.65,-223.6 77.64,-233.41 86.89,-228.24 81.65,-223.6"/>
</g>
<!-- Node11 -->
<g id="node11" class="node">
<title>Node11</title>
<g id="a_node11"><a xlink:href="a10462.html" target="_top" xlink:title="Forces parallel sorting using unbalanced quicksort at compile time.">
<polygon fill="white" stroke="black" points="179.5,-74.5 179.5,-92.5 327.5,-92.5 327.5,-74.5 179.5,-74.5"/>
<text text-anchor="middle" x="253.5" y="-81.3" font-family="Helvetica,sans-Serif" font-size="9.00">__gnu_parallel::quicksort_tag</text>
</a>
</g>
</g>
<!-- Node1&#45;&gt;Node11 -->
<g id="edge10" class="edge">
<title>Node1&#45;&gt;Node11</title>
<path fill="none" stroke="midnightblue" d="M78.53,-223.82C93.39,-193.44 127.02,-133.59 174,-102.5 180.31,-98.32 187.46,-95.06 194.8,-92.51"/>
<polygon fill="midnightblue" stroke="midnightblue" points="75.18,-222.71 74.06,-233.25 81.51,-225.71 75.18,-222.71"/>
</g>
<!-- Node12 -->
<g id="node12" class="node">
<title>Node12</title>
<g id="a_node12"><a xlink:href="a10446.html" target="_top" xlink:title="Forces parallel merging with exact splitting, at compile time.">
<polygon fill="white" stroke="black" points="180,-37.5 180,-55.5 327,-55.5 327,-37.5 180,-37.5"/>
<text text-anchor="middle" x="253.5" y="-44.3" font-family="Helvetica,sans-Serif" font-size="9.00">__gnu_parallel::sampling_tag</text>
</a>
</g>
</g>
<!-- Node1&#45;&gt;Node12 -->
<g id="edge11" class="edge">
<title>Node1&#45;&gt;Node12</title>
<path fill="none" stroke="midnightblue" d="M75.59,-223.6C87.4,-187.06 118.5,-106.7 174,-65.5 179.52,-61.4 185.8,-58.18 192.35,-55.65"/>
<polygon fill="midnightblue" stroke="midnightblue" points="72.15,-222.85 72.53,-233.44 78.84,-224.93 72.15,-222.85"/>
</g>
<!-- Node13 -->
<g id="node13" class="node">
<title>Node13</title>
<g id="a_node13"><a xlink:href="a10426.html" target="_top" xlink:title="Recommends parallel execution using static load&#45;balancing at compile time.">
<polygon fill="white" stroke="black" points="174,-0.5 174,-18.5 333,-18.5 333,-0.5 174,-0.5"/>
<text text-anchor="middle" x="253.5" y="-7.3" font-family="Helvetica,sans-Serif" font-size="9.00">__gnu_parallel::unbalanced_tag</text>
</a>
</g>
</g>
<!-- Node1&#45;&gt;Node13 -->
<g id="edge12" class="edge">
<title>Node1&#45;&gt;Node13</title>
<path fill="none" stroke="midnightblue" d="M73.56,-223.5C82.46,-181.47 109.75,-80.24 174,-28.5 179.13,-24.37 185.03,-21.11 191.23,-18.55"/>
<polygon fill="midnightblue" stroke="midnightblue" points="70.09,-223 71.56,-233.49 76.95,-224.37 70.09,-223"/>
</g>
</g>
</svg>
        <g id="navigator" transform="translate(0 0)" fill="#404254">
                <rect fill="#f2f5e9" fill-opacity="0.5" stroke="#606060" stroke-width=".5" x="0" y="0" width="60" height="60"/>
                <use id="zoomplus" xlink:href="#zoomPlus" x="17" y="9" onmousedown="handleZoom(evt,'in')"/>
                <use id="zoomminus" xlink:href="#zoomMin" x="42" y="9" onmousedown="handleZoom(evt,'out')"/>
                <use id="reset" xlink:href="#resetDef" x="30" y="36" onmousedown="handleReset()"/>
                <g id="arrowUp" xlink:href="#dirArrow" transform="translate(30 24)" onmousedown="handlePan(0,-1)">
                  <use xlink:href="#rim" fill="#404040">
                        <set attributeName="fill" to="#808080" begin="arrowUp.mouseover" end="arrowUp.mouseout"/>
                  </use>
                  <path fill="none" stroke="white" stroke-width="1.5" d="M0,-3.0v7 M-2.5,-0.5L0,-3.0L2.5,-0.5"/>
                </g>
                <g id="arrowRight" xlink:href="#dirArrow" transform="rotate(90) translate(36 -43)" onmousedown="handlePan(1,0)">
                  <use xlink:href="#rim" fill="#404040">
                        <set attributeName="fill" to="#808080" begin="arrowRight.mouseover" end="arrowRight.mouseout"/>
                  </use>
                  <path fill="none" stroke="white" stroke-width="1.5" d="M0,-3.0v7 M-2.5,-0.5L0,-3.0L2.5,-0.5"/>
                </g>
                <g id="arrowDown" xlink:href="#dirArrow" transform="rotate(180) translate(-30 -48)" onmousedown="handlePan(0,1)">
                  <use xlink:href="#rim" fill="#404040">
                        <set attributeName="fill" to="#808080" begin="arrowDown.mouseover" end="arrowDown.mouseout"/>
                  </use>
                  <path fill="none" stroke="white" stroke-width="1.5" d="M0,-3.0v7 M-2.5,-0.5L0,-3.0L2.5,-0.5"/>
                </g>
                <g id="arrowLeft" xlink:href="#dirArrow" transform="rotate(270) translate(-36 17)" onmousedown="handlePan(-1,0)">
                  <use xlink:href="#rim" fill="#404040">
                        <set attributeName="fill" to="#808080" begin="arrowLeft.mouseover" end="arrowLeft.mouseout"/>
                  </use>
                  <path fill="none" stroke="white" stroke-width="1.5" d="M0,-3.0v7 M-2.5,-0.5L0,-3.0L2.5,-0.5"/>
                </g>
        </g>
        <svg viewBox="0 0 15 15" width="100%" height="30px" preserveAspectRatio="xMaxYMin meet">
         <g id="arrow_out" transform="scale(0.3 0.3)">
          <a xlink:href="a10413_org.svg" target="_base">
           <rect id="button" ry="5" rx="5" y="6" x="6" height="38" width="38"
                fill="#f2f5e9" fill-opacity="0.5" stroke="#606060" stroke-width="1.0"/>
           <path id="arrow"
             d="M 11.500037,31.436501 C 11.940474,20.09759 22.043105,11.32322 32.158766,21.979434 L 37.068811,17.246167 C 37.068811,17.246167 37.088388,32 37.088388,32 L 22.160133,31.978069 C 22.160133,31.978069 26.997745,27.140456 26.997745,27.140456 C 18.528582,18.264221 13.291696,25.230495 11.500037,31.436501 z"
             style="fill:#404040;"/>
          </a>
         </g>
        </svg>
</svg>
