<?xml version="1.0" encoding="UTF-8" standalone="no"?>
<!DOCTYPE svg PUBLIC "-//W3C//DTD SVG 1.1//EN"
 "http://www.w3.org/Graphics/SVG/1.1/DTD/svg11.dtd">
<!-- Generated by graphviz version 2.50.0 (0)
 -->
<!-- Title: std::tr2::dynamic_bitset&lt; _WordT, _Alloc &gt; Pages: 1 -->
<svg width="304pt" height="57pt"
 viewBox="0.00 0.00 304.00 57.00" xmlns="http://www.w3.org/2000/svg" xmlns:xlink="http://www.w3.org/1999/xlink">
<g id="graph0" class="graph" transform="scale(1 1) rotate(0) translate(4 53)">
<title>std::tr2::dynamic_bitset&lt; _WordT, _Alloc &gt;</title>
<polygon fill="white" stroke="transparent" points="-4,4 -4,-53 300,-53 300,4 -4,4"/>
<!-- Node1 -->
<g id="node1" class="node">
<title>Node1</title>
<g id="a_node1"><a xlink:title="The dynamic_bitset class represents a sequence of bits.">
<polygon fill="#bfbfbf" stroke="black" points="171,-10.5 171,-38.5 296,-38.5 296,-10.5 171,-10.5"/>
<text text-anchor="start" x="179" y="-27.3" font-family="Helvetica,sans-Serif" font-size="9.00">std::tr2::dynamic_bitset</text>
<text text-anchor="middle" x="233.5" y="-17.3" font-family="Helvetica,sans-Serif" font-size="9.00">&lt; _WordT, _Alloc &gt;</text>
</a>
</g>
</g>
<!-- Node2 -->
<g id="node2" class="node">
<title>Node2</title>
<g id="a_node2"><a xlink:href="a10490.html" target="_top" xlink:title=" ">
<polygon fill="white" stroke="black" points="0,-0.5 0,-48.5 135,-48.5 135,-0.5 0,-0.5"/>
<text text-anchor="start" x="8" y="-37.3" font-family="Helvetica,sans-Serif" font-size="9.00">std::tr2::__dynamic</text>
<text text-anchor="start" x="8" y="-27.3" font-family="Helvetica,sans-Serif" font-size="9.00">_bitset_base&lt; unsigned</text>
<text text-anchor="start" x="8" y="-17.3" font-family="Helvetica,sans-Serif" font-size="9.00"> long long, std::allocator</text>
<text text-anchor="middle" x="67.5" y="-7.3" font-family="Helvetica,sans-Serif" font-size="9.00">&lt; unsigned long long &gt; &gt;</text>
</a>
</g>
</g>
<!-- Node2&#45;&gt;Node1 -->
<g id="edge1" class="edge">
<title>Node2&#45;&gt;Node1</title>
<path fill="none" stroke="#8b1a1a" d="M145.24,-24.5C153.83,-24.5 162.51,-24.5 170.88,-24.5"/>
<polygon fill="#8b1a1a" stroke="#8b1a1a" points="145.21,-21 135.21,-24.5 145.21,-28 145.21,-21"/>
</g>
</g>
</svg>
