<?xml version="1.0" encoding="UTF-8" standalone="no"?>
<!DOCTYPE svg PUBLIC "-//W3C//DTD SVG 1.1//EN"
 "http://www.w3.org/Graphics/SVG/1.1/DTD/svg11.dtd">
<!-- Generated by graphviz version 2.50.0 (0)
 -->
<!-- Title: std::experimental::filesystem::v1::filesystem_error Pages: 1 -->
<svg width="164pt" height="202pt"
 viewBox="0.00 0.00 164.00 202.00" xmlns="http://www.w3.org/2000/svg" xmlns:xlink="http://www.w3.org/1999/xlink">
<g id="graph0" class="graph" transform="scale(1 1) rotate(0) translate(4 198)">
<title>std::experimental::filesystem::v1::filesystem_error</title>
<polygon fill="white" stroke="transparent" points="-4,4 -4,-198 160,-198 160,4 -4,4"/>
<!-- Node1 -->
<g id="node1" class="node">
<title>Node1</title>
<g id="a_node1"><a xlink:title="Exception type thrown by the Filesystem TS library.">
<polygon fill="#bfbfbf" stroke="black" points="0,-0.5 0,-28.5 156,-28.5 156,-0.5 0,-0.5"/>
<text text-anchor="start" x="8" y="-17.3" font-family="Helvetica,sans-Serif" font-size="9.00">std::experimental::</text>
<text text-anchor="middle" x="78" y="-7.3" font-family="Helvetica,sans-Serif" font-size="9.00">filesystem::v1::filesystem_error</text>
</a>
</g>
</g>
<!-- Node2 -->
<g id="node2" class="node">
<title>Node2</title>
<g id="a_node2"><a xlink:href="a03582.html" target="_top" xlink:title="An exception type that includes an error_code value.">
<polygon fill="white" stroke="black" points="30.5,-65.5 30.5,-83.5 125.5,-83.5 125.5,-65.5 30.5,-65.5"/>
<text text-anchor="middle" x="78" y="-72.3" font-family="Helvetica,sans-Serif" font-size="9.00">std::system_error</text>
</a>
</g>
</g>
<!-- Node2&#45;&gt;Node1 -->
<g id="edge1" class="edge">
<title>Node2&#45;&gt;Node1</title>
<path fill="none" stroke="midnightblue" d="M78,-55.32C78,-46.75 78,-36.7 78,-28.84"/>
<polygon fill="midnightblue" stroke="midnightblue" points="74.5,-55.44 78,-65.44 81.5,-55.44 74.5,-55.44"/>
</g>
<!-- Node3 -->
<g id="node3" class="node">
<title>Node3</title>
<g id="a_node3"><a xlink:href="a03470.html" target="_top" xlink:title="One of two subclasses of exception.">
<polygon fill="white" stroke="black" points="28.5,-120.5 28.5,-138.5 127.5,-138.5 127.5,-120.5 28.5,-120.5"/>
<text text-anchor="middle" x="78" y="-127.3" font-family="Helvetica,sans-Serif" font-size="9.00">std::runtime_error</text>
</a>
</g>
</g>
<!-- Node3&#45;&gt;Node2 -->
<g id="edge2" class="edge">
<title>Node3&#45;&gt;Node2</title>
<path fill="none" stroke="midnightblue" d="M78,-110.17C78,-101.09 78,-90.59 78,-83.55"/>
<polygon fill="midnightblue" stroke="midnightblue" points="74.5,-110.22 78,-120.22 81.5,-110.22 74.5,-110.22"/>
</g>
<!-- Node4 -->
<g id="node4" class="node">
<title>Node4</title>
<g id="a_node4"><a xlink:href="a05922.html" target="_top" xlink:title="Base class for all library exceptions.">
<polygon fill="white" stroke="black" points="38,-175.5 38,-193.5 118,-193.5 118,-175.5 38,-175.5"/>
<text text-anchor="middle" x="78" y="-182.3" font-family="Helvetica,sans-Serif" font-size="9.00">std::exception</text>
</a>
</g>
</g>
<!-- Node4&#45;&gt;Node3 -->
<g id="edge3" class="edge">
<title>Node4&#45;&gt;Node3</title>
<path fill="none" stroke="midnightblue" d="M78,-165.17C78,-156.09 78,-145.59 78,-138.55"/>
<polygon fill="midnightblue" stroke="midnightblue" points="74.5,-165.22 78,-175.22 81.5,-165.22 74.5,-165.22"/>
</g>
</g>
</svg>
