<?xml version="1.0" encoding="UTF-8" standalone="no"?>
<!DOCTYPE svg PUBLIC "-//W3C//DTD SVG 1.1//EN"
 "http://www.w3.org/Graphics/SVG/1.1/DTD/svg11.dtd">
<!-- Generated by graphviz version 2.50.0 (0)
 -->
<!-- Title: std::experimental::fundamentals_v1::bad_optional_access Pages: 1 -->
<svg width="126pt" height="157pt"
 viewBox="0.00 0.00 126.00 157.00" xmlns="http://www.w3.org/2000/svg" xmlns:xlink="http://www.w3.org/1999/xlink">
<g id="graph0" class="graph" transform="scale(1 1) rotate(0) translate(4 153)">
<title>std::experimental::fundamentals_v1::bad_optional_access</title>
<polygon fill="white" stroke="transparent" points="-4,4 -4,-153 122,-153 122,4 -4,4"/>
<!-- Node1 -->
<g id="node1" class="node">
<title>Node1</title>
<g id="a_node1"><a xlink:title="Exception class thrown when a disengaged optional object is dereferenced.">
<polygon fill="#bfbfbf" stroke="black" points="0,-0.5 0,-38.5 118,-38.5 118,-0.5 0,-0.5"/>
<text text-anchor="start" x="8" y="-27.3" font-family="Helvetica,sans-Serif" font-size="9.00">std::experimental::</text>
<text text-anchor="start" x="8" y="-17.3" font-family="Helvetica,sans-Serif" font-size="9.00">fundamentals_v1::bad</text>
<text text-anchor="middle" x="59" y="-7.3" font-family="Helvetica,sans-Serif" font-size="9.00">_optional_access</text>
</a>
</g>
</g>
<!-- Node2 -->
<g id="node2" class="node">
<title>Node2</title>
<g id="a_node2"><a xlink:href="a03450.html" target="_top" xlink:title="One of two subclasses of exception.">
<polygon fill="white" stroke="black" points="17,-75.5 17,-93.5 101,-93.5 101,-75.5 17,-75.5"/>
<text text-anchor="middle" x="59" y="-82.3" font-family="Helvetica,sans-Serif" font-size="9.00">std::logic_error</text>
</a>
</g>
</g>
<!-- Node2&#45;&gt;Node1 -->
<g id="edge1" class="edge">
<title>Node2&#45;&gt;Node1</title>
<path fill="none" stroke="midnightblue" d="M59,-65.08C59,-56.72 59,-46.86 59,-38.55"/>
<polygon fill="midnightblue" stroke="midnightblue" points="55.5,-65.26 59,-75.26 62.5,-65.26 55.5,-65.26"/>
</g>
<!-- Node3 -->
<g id="node3" class="node">
<title>Node3</title>
<g id="a_node3"><a xlink:href="a05922.html" target="_top" xlink:title="Base class for all library exceptions.">
<polygon fill="white" stroke="black" points="19,-130.5 19,-148.5 99,-148.5 99,-130.5 19,-130.5"/>
<text text-anchor="middle" x="59" y="-137.3" font-family="Helvetica,sans-Serif" font-size="9.00">std::exception</text>
</a>
</g>
</g>
<!-- Node3&#45;&gt;Node2 -->
<g id="edge2" class="edge">
<title>Node3&#45;&gt;Node2</title>
<path fill="none" stroke="midnightblue" d="M59,-120.17C59,-111.09 59,-100.59 59,-93.55"/>
<polygon fill="midnightblue" stroke="midnightblue" points="55.5,-120.22 59,-130.22 62.5,-120.22 55.5,-120.22"/>
</g>
</g>
</svg>
