<?xml version="1.0" encoding="UTF-8" standalone="no"?>
<!DOCTYPE svg PUBLIC "-//W3C//DTD SVG 1.1//EN"
 "http://www.w3.org/Graphics/SVG/1.1/DTD/svg11.dtd">
<!-- Generated by graphviz version 2.50.0 (0)
 -->
<!-- Title: __gnu_cxx::enc_filebuf&lt; _CharT &gt; Pages: 1 -->
<svg width="139pt" height="177pt"
 viewBox="0.00 0.00 139.00 177.00" xmlns="http://www.w3.org/2000/svg" xmlns:xlink="http://www.w3.org/1999/xlink">
<g id="graph0" class="graph" transform="scale(1 1) rotate(0) translate(4 173)">
<title>__gnu_cxx::enc_filebuf&lt; _CharT &gt;</title>
<polygon fill="white" stroke="transparent" points="-4,4 -4,-173 135,-173 135,4 -4,4"/>
<!-- Node1 -->
<g id="node1" class="node">
<title>Node1</title>
<g id="a_node1"><a xlink:title="class enc_filebuf.">
<polygon fill="#bfbfbf" stroke="black" points="6,-0.5 6,-28.5 125,-28.5 125,-0.5 6,-0.5"/>
<text text-anchor="start" x="14" y="-17.3" font-family="Helvetica,sans-Serif" font-size="9.00">__gnu_cxx::enc_filebuf</text>
<text text-anchor="middle" x="65.5" y="-7.3" font-family="Helvetica,sans-Serif" font-size="9.00">&lt; _CharT &gt;</text>
</a>
</g>
</g>
<!-- Node2 -->
<g id="node2" class="node">
<title>Node2</title>
<g id="a_node2"><a xlink:href="a02362.html" target="_top" xlink:title=" ">
<polygon fill="white" stroke="black" points="0,-65.5 0,-103.5 131,-103.5 131,-65.5 0,-65.5"/>
<text text-anchor="start" x="8" y="-92.3" font-family="Helvetica,sans-Serif" font-size="9.00">std::basic_filebuf</text>
<text text-anchor="start" x="8" y="-82.3" font-family="Helvetica,sans-Serif" font-size="9.00">&lt; _CharT, encoding_char</text>
<text text-anchor="middle" x="65.5" y="-72.3" font-family="Helvetica,sans-Serif" font-size="9.00">_traits&lt; _CharT &gt; &gt;</text>
</a>
</g>
</g>
<!-- Node2&#45;&gt;Node1 -->
<g id="edge1" class="edge">
<title>Node2&#45;&gt;Node1</title>
<path fill="none" stroke="midnightblue" d="M65.5,-55.01C65.5,-45.92 65.5,-36.29 65.5,-28.81"/>
<polygon fill="midnightblue" stroke="midnightblue" points="62,-55.28 65.5,-65.28 69,-55.28 62,-55.28"/>
</g>
<!-- Node3 -->
<g id="node3" class="node">
<title>Node3</title>
<g id="a_node3"><a xlink:href="a02738.html" target="_top" xlink:title="The actual work of input and output (interface).">
<polygon fill="white" stroke="black" points="10,-140.5 10,-168.5 121,-168.5 121,-140.5 10,-140.5"/>
<text text-anchor="start" x="18" y="-157.3" font-family="Helvetica,sans-Serif" font-size="9.00">std::basic_streambuf</text>
<text text-anchor="middle" x="65.5" y="-147.3" font-family="Helvetica,sans-Serif" font-size="9.00">&lt; _CharT, _Traits &gt;</text>
</a>
</g>
</g>
<!-- Node3&#45;&gt;Node2 -->
<g id="edge2" class="edge">
<title>Node3&#45;&gt;Node2</title>
<path fill="none" stroke="midnightblue" d="M65.5,-130.17C65.5,-121.52 65.5,-111.84 65.5,-103.71"/>
<polygon fill="midnightblue" stroke="midnightblue" points="62,-130.39 65.5,-140.39 69,-130.39 62,-130.39"/>
</g>
</g>
</svg>
