<?xml version="1.0" encoding="UTF-8" standalone="no"?>
<!DOCTYPE svg PUBLIC "-//W3C//DTD SVG 1.1//EN"
 "http://www.w3.org/Graphics/SVG/1.1/DTD/svg11.dtd">
<!-- Generated by graphviz version 2.50.0 (0)
 -->
<!-- Title: __gnu_cxx::stdio_filebuf&lt; _CharT, _Traits &gt; Pages: 1 -->
<svg width="140pt" height="187pt"
 viewBox="0.00 0.00 140.00 187.00" xmlns="http://www.w3.org/2000/svg" xmlns:xlink="http://www.w3.org/1999/xlink">
<g id="graph0" class="graph" transform="scale(1 1) rotate(0) translate(4 183)">
<title>__gnu_cxx::stdio_filebuf&lt; _CharT, _Traits &gt;</title>
<polygon fill="white" stroke="transparent" points="-4,4 -4,-183 136,-183 136,4 -4,4"/>
<!-- Node1 -->
<g id="node1" class="node">
<title>Node1</title>
<g id="a_node1"><a xlink:title="Provides a layer of compatibility for C/POSIX.">
<polygon fill="#bfbfbf" stroke="black" points="4,-0.5 4,-28.5 128,-28.5 128,-0.5 4,-0.5"/>
<text text-anchor="start" x="12" y="-17.3" font-family="Helvetica,sans-Serif" font-size="9.00">__gnu_cxx::stdio_filebuf</text>
<text text-anchor="middle" x="66" y="-7.3" font-family="Helvetica,sans-Serif" font-size="9.00">&lt; _CharT, _Traits &gt;</text>
</a>
</g>
</g>
<!-- Node2 -->
<g id="node2" class="node">
<title>Node2</title>
<g id="a_node2"><a xlink:href="a02362.html" target="_top" xlink:title=" ">
<polygon fill="white" stroke="black" points="12.5,-65.5 12.5,-103.5 119.5,-103.5 119.5,-65.5 12.5,-65.5"/>
<text text-anchor="start" x="20.5" y="-92.3" font-family="Helvetica,sans-Serif" font-size="9.00">std::basic_filebuf</text>
<text text-anchor="start" x="20.5" y="-82.3" font-family="Helvetica,sans-Serif" font-size="9.00">&lt; _CharT, std::char</text>
<text text-anchor="middle" x="66" y="-72.3" font-family="Helvetica,sans-Serif" font-size="9.00">_traits&lt; _CharT &gt; &gt;</text>
</a>
</g>
</g>
<!-- Node2&#45;&gt;Node1 -->
<g id="edge1" class="edge">
<title>Node2&#45;&gt;Node1</title>
<path fill="none" stroke="midnightblue" d="M66,-55.01C66,-45.92 66,-36.29 66,-28.81"/>
<polygon fill="midnightblue" stroke="midnightblue" points="62.5,-55.28 66,-65.28 69.5,-55.28 62.5,-55.28"/>
</g>
<!-- Node3 -->
<g id="node3" class="node">
<title>Node3</title>
<g id="a_node3"><a xlink:href="a02738.html" target="_top" xlink:title=" ">
<polygon fill="white" stroke="black" points="0,-140.5 0,-178.5 132,-178.5 132,-140.5 0,-140.5"/>
<text text-anchor="start" x="8" y="-167.3" font-family="Helvetica,sans-Serif" font-size="9.00">std::basic_streambuf</text>
<text text-anchor="start" x="8" y="-157.3" font-family="Helvetica,sans-Serif" font-size="9.00">&lt; _CharT, std::char_traits</text>
<text text-anchor="middle" x="66" y="-147.3" font-family="Helvetica,sans-Serif" font-size="9.00">&lt; _CharT &gt; &gt;</text>
</a>
</g>
</g>
<!-- Node3&#45;&gt;Node2 -->
<g id="edge2" class="edge">
<title>Node3&#45;&gt;Node2</title>
<path fill="none" stroke="midnightblue" d="M66,-130.37C66,-121.38 66,-111.67 66,-103.59"/>
<polygon fill="midnightblue" stroke="midnightblue" points="62.5,-130.46 66,-140.46 69.5,-130.46 62.5,-130.46"/>
</g>
</g>
</svg>
