<?xml version="1.0" encoding="UTF-8" standalone="no"?>
<!DOCTYPE svg PUBLIC "-//W3C//DTD SVG 1.1//EN"
 "http://www.w3.org/Graphics/SVG/1.1/DTD/svg11.dtd">
<!-- Generated by graphviz version 2.50.0 (0)
 -->
<!-- Title: __gnu_cxx::stdio_sync_filebuf&lt; _CharT, _Traits &gt; Pages: 1 -->
<svg width="142pt" height="112pt"
 viewBox="0.00 0.00 142.00 112.00" xmlns="http://www.w3.org/2000/svg" xmlns:xlink="http://www.w3.org/1999/xlink">
<g id="graph0" class="graph" transform="scale(1 1) rotate(0) translate(4 108)">
<title>__gnu_cxx::stdio_sync_filebuf&lt; _CharT, _Traits &gt;</title>
<polygon fill="white" stroke="transparent" points="-4,4 -4,-108 138,-108 138,4 -4,4"/>
<!-- Node1 -->
<g id="node1" class="node">
<title>Node1</title>
<g id="a_node1"><a xlink:title="Provides a layer of compatibility for C.">
<polygon fill="#bfbfbf" stroke="black" points="0,-0.5 0,-28.5 134,-28.5 134,-0.5 0,-0.5"/>
<text text-anchor="start" x="8" y="-17.3" font-family="Helvetica,sans-Serif" font-size="9.00">__gnu_cxx::stdio_sync</text>
<text text-anchor="middle" x="67" y="-7.3" font-family="Helvetica,sans-Serif" font-size="9.00">_filebuf&lt; _CharT, _Traits &gt;</text>
</a>
</g>
</g>
<!-- Node2 -->
<g id="node2" class="node">
<title>Node2</title>
<g id="a_node2"><a xlink:href="a02738.html" target="_top" xlink:title=" ">
<polygon fill="white" stroke="black" points="1,-65.5 1,-103.5 133,-103.5 133,-65.5 1,-65.5"/>
<text text-anchor="start" x="9" y="-92.3" font-family="Helvetica,sans-Serif" font-size="9.00">std::basic_streambuf</text>
<text text-anchor="start" x="9" y="-82.3" font-family="Helvetica,sans-Serif" font-size="9.00">&lt; _CharT, std::char_traits</text>
<text text-anchor="middle" x="67" y="-72.3" font-family="Helvetica,sans-Serif" font-size="9.00">&lt; _CharT &gt; &gt;</text>
</a>
</g>
</g>
<!-- Node2&#45;&gt;Node1 -->
<g id="edge1" class="edge">
<title>Node2&#45;&gt;Node1</title>
<path fill="none" stroke="midnightblue" d="M67,-55.01C67,-45.92 67,-36.29 67,-28.81"/>
<polygon fill="midnightblue" stroke="midnightblue" points="63.5,-55.28 67,-65.28 70.5,-55.28 63.5,-55.28"/>
</g>
</g>
</svg>
