<?xml version="1.0" encoding="UTF-8" standalone="no"?>
<!DOCTYPE svg PUBLIC "-//W3C//DTD SVG 1.1//EN"
 "http://www.w3.org/Graphics/SVG/1.1/DTD/svg11.dtd">
<!-- Generated by graphviz version 2.50.0 (0)
 -->
<!-- Title: __gnu_cxx::annotate_base Pages: 1 -->
<svg width="522pt" height="131pt"
 viewBox="0.00 0.00 522.00 131.00" xmlns="http://www.w3.org/2000/svg" xmlns:xlink="http://www.w3.org/1999/xlink">
<g id="graph0" class="graph" transform="scale(1 1) rotate(0) translate(4 127)">
<title>__gnu_cxx::annotate_base</title>
<polygon fill="white" stroke="transparent" points="-4,4 -4,-127 518,-127 518,4 -4,4"/>
<!-- Node1 -->
<g id="node1" class="node">
<title>Node1</title>
<g id="a_node1"><a xlink:title="Base class for checking address and label information about allocations. Create a std::map between th...">
<polygon fill="#bfbfbf" stroke="black" points="0,-52.5 0,-70.5 136,-70.5 136,-52.5 0,-52.5"/>
<text text-anchor="middle" x="68" y="-59.3" font-family="Helvetica,sans-Serif" font-size="9.00">__gnu_cxx::annotate_base</text>
</a>
</g>
</g>
<!-- Node2 -->
<g id="node2" class="node">
<title>Node2</title>
<g id="a_node2"><a xlink:href="a12454.html" target="_top" xlink:title=" ">
<polygon fill="white" stroke="black" points="172,-94.5 172,-122.5 339,-122.5 339,-94.5 172,-94.5"/>
<text text-anchor="start" x="180" y="-111.3" font-family="Helvetica,sans-Serif" font-size="9.00">__gnu_cxx::throw_allocator</text>
<text text-anchor="middle" x="255.5" y="-101.3" font-family="Helvetica,sans-Serif" font-size="9.00">_base&lt; _Tp, random_condition &gt;</text>
</a>
</g>
</g>
<!-- Node1&#45;&gt;Node2 -->
<g id="edge1" class="edge">
<title>Node1&#45;&gt;Node2</title>
<path fill="none" stroke="midnightblue" d="M114.57,-73.04C140.1,-79.52 172.15,-87.63 199.13,-94.47"/>
<polygon fill="midnightblue" stroke="midnightblue" points="115.32,-69.63 104.77,-70.56 113.6,-76.41 115.32,-69.63"/>
</g>
<!-- Node4 -->
<g id="node4" class="node">
<title>Node4</title>
<g id="a_node4"><a xlink:href="a12454.html" target="_top" xlink:title=" ">
<polygon fill="white" stroke="black" points="180,-47.5 180,-75.5 331,-75.5 331,-47.5 180,-47.5"/>
<text text-anchor="start" x="188" y="-64.3" font-family="Helvetica,sans-Serif" font-size="9.00">__gnu_cxx::throw_allocator</text>
<text text-anchor="middle" x="255.5" y="-54.3" font-family="Helvetica,sans-Serif" font-size="9.00">_base&lt; _Tp, limit_condition &gt;</text>
</a>
</g>
</g>
<!-- Node1&#45;&gt;Node4 -->
<g id="edge3" class="edge">
<title>Node1&#45;&gt;Node4</title>
<path fill="none" stroke="midnightblue" d="M146.34,-61.5C157.47,-61.5 168.9,-61.5 179.96,-61.5"/>
<polygon fill="midnightblue" stroke="midnightblue" points="146.23,-58 136.23,-61.5 146.23,-65 146.23,-58"/>
</g>
<!-- Node6 -->
<g id="node6" class="node">
<title>Node6</title>
<g id="a_node6"><a xlink:href="a12454.html" target="_top" xlink:title="Allocator class with logging and exception generation control. Intended to be used as an allocator_ty...">
<polygon fill="white" stroke="black" points="186,-0.5 186,-28.5 325,-28.5 325,-0.5 186,-0.5"/>
<text text-anchor="start" x="194" y="-17.3" font-family="Helvetica,sans-Serif" font-size="9.00">__gnu_cxx::throw_allocator</text>
<text text-anchor="middle" x="255.5" y="-7.3" font-family="Helvetica,sans-Serif" font-size="9.00">_base&lt; _Tp, _Cond &gt;</text>
</a>
</g>
</g>
<!-- Node1&#45;&gt;Node6 -->
<g id="edge5" class="edge">
<title>Node1&#45;&gt;Node6</title>
<path fill="none" stroke="midnightblue" d="M114.57,-49.96C140.1,-43.48 172.15,-35.37 199.13,-28.53"/>
<polygon fill="midnightblue" stroke="midnightblue" points="113.6,-46.59 104.77,-52.44 115.32,-53.37 113.6,-46.59"/>
</g>
<!-- Node3 -->
<g id="node3" class="node">
<title>Node3</title>
<g id="a_node3"><a xlink:href="a12466.html" target="_top" xlink:title="Allocator throwing via random condition.">
<polygon fill="white" stroke="black" points="375,-94.5 375,-122.5 514,-122.5 514,-94.5 375,-94.5"/>
<text text-anchor="start" x="383" y="-111.3" font-family="Helvetica,sans-Serif" font-size="9.00">__gnu_cxx::throw_allocator</text>
<text text-anchor="middle" x="444.5" y="-101.3" font-family="Helvetica,sans-Serif" font-size="9.00">_random&lt; _Tp &gt;</text>
</a>
</g>
</g>
<!-- Node2&#45;&gt;Node3 -->
<g id="edge2" class="edge">
<title>Node2&#45;&gt;Node3</title>
<path fill="none" stroke="midnightblue" d="M349.18,-108.5C357.81,-108.5 366.45,-108.5 374.81,-108.5"/>
<polygon fill="midnightblue" stroke="midnightblue" points="349.07,-105 339.07,-108.5 349.07,-112 349.07,-105"/>
</g>
<!-- Node5 -->
<g id="node5" class="node">
<title>Node5</title>
<g id="a_node5"><a xlink:href="a12458.html" target="_top" xlink:title="Allocator throwing via limit condition.">
<polygon fill="white" stroke="black" points="375,-47.5 375,-75.5 514,-75.5 514,-47.5 375,-47.5"/>
<text text-anchor="start" x="383" y="-64.3" font-family="Helvetica,sans-Serif" font-size="9.00">__gnu_cxx::throw_allocator</text>
<text text-anchor="middle" x="444.5" y="-54.3" font-family="Helvetica,sans-Serif" font-size="9.00">_limit&lt; _Tp &gt;</text>
</a>
</g>
</g>
<!-- Node4&#45;&gt;Node5 -->
<g id="edge4" class="edge">
<title>Node4&#45;&gt;Node5</title>
<path fill="none" stroke="midnightblue" d="M341.45,-61.5C352.68,-61.5 364.07,-61.5 374.97,-61.5"/>
<polygon fill="midnightblue" stroke="midnightblue" points="341.21,-58 331.21,-61.5 341.21,-65 341.21,-58"/>
</g>
</g>
</svg>
