<?xml version="1.0" encoding="UTF-8" standalone="no"?>
<!DOCTYPE svg PUBLIC "-//W3C//DTD SVG 1.1//EN"
 "http://www.w3.org/Graphics/SVG/1.1/DTD/svg11.dtd">
<!-- Generated by graphviz version 2.50.0 (0)
 -->
<!-- Title: std::hash&lt; __gnu_cxx::throw_value_random &gt; Pages: 1 -->
<svg width="143pt" height="112pt"
 viewBox="0.00 0.00 143.00 112.00" xmlns="http://www.w3.org/2000/svg" xmlns:xlink="http://www.w3.org/1999/xlink">
<g id="graph0" class="graph" transform="scale(1 1) rotate(0) translate(4 108)">
<title>std::hash&lt; __gnu_cxx::throw_value_random &gt;</title>
<polygon fill="white" stroke="transparent" points="-4,4 -4,-108 139,-108 139,4 -4,4"/>
<!-- Node1 -->
<g id="node1" class="node">
<title>Node1</title>
<g id="a_node1"><a xlink:title="Explicit specialization of std::hash for __gnu_cxx::throw_value_random.">
<polygon fill="#bfbfbf" stroke="black" points="3.5,-0.5 3.5,-28.5 131.5,-28.5 131.5,-0.5 3.5,-0.5"/>
<text text-anchor="start" x="11.5" y="-17.3" font-family="Helvetica,sans-Serif" font-size="9.00">std::hash&lt; __gnu_cxx</text>
<text text-anchor="middle" x="67.5" y="-7.3" font-family="Helvetica,sans-Serif" font-size="9.00">::throw_value_random &gt;</text>
</a>
</g>
</g>
<!-- Node2 -->
<g id="node2" class="node">
<title>Node2</title>
<g id="a_node2"><a xlink:href="a08206.html" target="_top" xlink:title=" ">
<polygon fill="white" stroke="black" points="0,-65.5 0,-103.5 135,-103.5 135,-65.5 0,-65.5"/>
<text text-anchor="start" x="8" y="-92.3" font-family="Helvetica,sans-Serif" font-size="9.00">std::unary_function</text>
<text text-anchor="start" x="8" y="-82.3" font-family="Helvetica,sans-Serif" font-size="9.00">&lt; __gnu_cxx::throw_value</text>
<text text-anchor="middle" x="67.5" y="-72.3" font-family="Helvetica,sans-Serif" font-size="9.00">_random, size_t &gt;</text>
</a>
</g>
</g>
<!-- Node2&#45;&gt;Node1 -->
<g id="edge1" class="edge">
<title>Node2&#45;&gt;Node1</title>
<path fill="none" stroke="midnightblue" d="M67.5,-55.01C67.5,-45.92 67.5,-36.29 67.5,-28.81"/>
<polygon fill="midnightblue" stroke="midnightblue" points="64,-55.28 67.5,-65.28 71,-55.28 64,-55.28"/>
</g>
</g>
</svg>
