<?xml version="1.0" encoding="UTF-8" standalone="no"?>
<!DOCTYPE svg PUBLIC "-//W3C//DTD SVG 1.1//EN"
 "http://www.w3.org/Graphics/SVG/1.1/DTD/svg11.dtd">
<!-- Generated by graphviz version 2.50.0 (0)
 -->
<!-- Title: __gnu_pbds::hash_standard_resize_policy&lt; Size_Policy, Trigger_Policy, External_Size_Access, Size_Type &gt; Pages: 1 -->
<svg width="507pt" height="104pt"
 viewBox="0.00 0.00 507.00 104.00" xmlns="http://www.w3.org/2000/svg" xmlns:xlink="http://www.w3.org/1999/xlink">
<g id="graph0" class="graph" transform="scale(1 1) rotate(0) translate(4 100)">
<title>__gnu_pbds::hash_standard_resize_policy&lt; Size_Policy, Trigger_Policy, External_Size_Access, Size_Type &gt;</title>
<polygon fill="white" stroke="transparent" points="-4,4 -4,-100 503,-100 503,4 -4,4"/>
<!-- Node1 -->
<g id="node1" class="node">
<title>Node1</title>
<g id="a_node1"><a xlink:title="A resize policy which delegates operations to size and trigger policies.">
<polygon fill="#bfbfbf" stroke="black" points="356,-28.5 356,-76.5 499,-76.5 499,-28.5 356,-28.5"/>
<text text-anchor="start" x="364" y="-65.3" font-family="Helvetica,sans-Serif" font-size="9.00">__gnu_pbds::hash_standard</text>
<text text-anchor="start" x="364" y="-55.3" font-family="Helvetica,sans-Serif" font-size="9.00">_resize_policy&lt; Size_Policy,</text>
<text text-anchor="start" x="364" y="-45.3" font-family="Helvetica,sans-Serif" font-size="9.00"> Trigger_Policy, External</text>
<text text-anchor="middle" x="427.5" y="-35.3" font-family="Helvetica,sans-Serif" font-size="9.00">_Size_Access, Size_Type &gt;</text>
</a>
</g>
</g>
<!-- Node2 -->
<g id="node2" class="node">
<title>Node2</title>
<g id="a_node2"><a xlink:href="a12882.html" target="_top" xlink:title="A size policy whose sequence of sizes form an exponential sequence (typically powers of 2.">
<polygon fill="white" stroke="black" points="165,-67.5 165,-95.5 320,-95.5 320,-67.5 165,-67.5"/>
<text text-anchor="start" x="173" y="-84.3" font-family="Helvetica,sans-Serif" font-size="9.00">__gnu_pbds::hash_exponential</text>
<text text-anchor="middle" x="242.5" y="-74.3" font-family="Helvetica,sans-Serif" font-size="9.00">_size_policy&lt; Size_Type &gt;</text>
</a>
</g>
</g>
<!-- Node2&#45;&gt;Node1 -->
<g id="edge1" class="edge">
<title>Node2&#45;&gt;Node1</title>
<path fill="none" stroke="midnightblue" d="M330.11,-67.77C338.72,-66.41 347.39,-65.04 355.81,-63.7"/>
<polygon fill="midnightblue" stroke="midnightblue" points="329.38,-64.35 320.05,-69.37 330.47,-71.26 329.38,-64.35"/>
</g>
<!-- Node3 -->
<g id="node3" class="node">
<title>Node3</title>
<g id="a_node3"><a xlink:href="a12874.html" target="_top" xlink:title="A resize trigger policy based on a load check. It keeps the load factor between some load factors loa...">
<polygon fill="white" stroke="black" points="178.5,-0.5 178.5,-48.5 306.5,-48.5 306.5,-0.5 178.5,-0.5"/>
<text text-anchor="start" x="186.5" y="-37.3" font-family="Helvetica,sans-Serif" font-size="9.00">__gnu_pbds::hash_load</text>
<text text-anchor="start" x="186.5" y="-27.3" font-family="Helvetica,sans-Serif" font-size="9.00">_check_resize_trigger</text>
<text text-anchor="start" x="186.5" y="-17.3" font-family="Helvetica,sans-Serif" font-size="9.00">&lt; External_Load_Access,</text>
<text text-anchor="middle" x="242.5" y="-7.3" font-family="Helvetica,sans-Serif" font-size="9.00"> Size_Type &gt;</text>
</a>
</g>
</g>
<!-- Node3&#45;&gt;Node1 -->
<g id="edge2" class="edge">
<title>Node3&#45;&gt;Node1</title>
<path fill="none" stroke="midnightblue" d="M316.88,-35.73C329.7,-37.69 343,-39.72 355.74,-41.67"/>
<polygon fill="midnightblue" stroke="midnightblue" points="317.15,-32.23 306.73,-34.18 316.09,-39.15 317.15,-32.23"/>
</g>
<!-- Node4 -->
<g id="node4" class="node">
<title>Node4</title>
<g id="a_node4"><a xlink:href="a13658.html" target="_top" xlink:title=" ">
<polygon fill="white" stroke="black" points="0,-0.5 0,-48.5 129,-48.5 129,-0.5 0,-0.5"/>
<text text-anchor="start" x="8" y="-37.3" font-family="Helvetica,sans-Serif" font-size="9.00">__gnu_pbds::detail</text>
<text text-anchor="start" x="8" y="-27.3" font-family="Helvetica,sans-Serif" font-size="9.00">::hash_load_check_resize</text>
<text text-anchor="start" x="8" y="-17.3" font-family="Helvetica,sans-Serif" font-size="9.00">_trigger_size_base&lt; std</text>
<text text-anchor="middle" x="64.5" y="-7.3" font-family="Helvetica,sans-Serif" font-size="9.00">::size_t, false &gt;</text>
</a>
</g>
</g>
<!-- Node4&#45;&gt;Node3 -->
<g id="edge3" class="edge">
<title>Node4&#45;&gt;Node3</title>
<path fill="none" stroke="#8b1a1a" d="M139.33,-24.5C152.3,-24.5 165.7,-24.5 178.35,-24.5"/>
<polygon fill="#8b1a1a" stroke="#8b1a1a" points="139.04,-21 129.04,-24.5 139.04,-28 139.04,-21"/>
</g>
</g>
</svg>
