<?xml version="1.0" encoding="UTF-8" standalone="no"?>
<!DOCTYPE svg PUBLIC "-//W3C//DTD SVG 1.1//EN"
 "http://www.w3.org/Graphics/SVG/1.1/DTD/svg11.dtd">
<!-- Generated by graphviz version 2.50.0 (0)
 -->
<!-- Title: __gnu_pbds::container_error Pages: 1 -->
<svg width="368pt" height="212pt"
 viewBox="0.00 0.00 368.00 212.00" xmlns="http://www.w3.org/2000/svg" xmlns:xlink="http://www.w3.org/1999/xlink">
<g id="graph0" class="graph" transform="scale(1 1) rotate(0) translate(4 208)">
<title>__gnu_pbds::container_error</title>
<polygon fill="white" stroke="transparent" points="-4,4 -4,-208 364,-208 364,4 -4,4"/>
<!-- Node1 -->
<g id="node1" class="node">
<title>Node1</title>
<g id="a_node1"><a xlink:title="Base class for exceptions.">
<polygon fill="#bfbfbf" stroke="black" points="120.5,-65.5 120.5,-93.5 239.5,-93.5 239.5,-65.5 120.5,-65.5"/>
<text text-anchor="start" x="128.5" y="-82.3" font-family="Helvetica,sans-Serif" font-size="9.00">__gnu_pbds::container</text>
<text text-anchor="middle" x="180" y="-72.3" font-family="Helvetica,sans-Serif" font-size="9.00">_error</text>
</a>
</g>
</g>
<!-- Node4 -->
<g id="node4" class="node">
<title>Node4</title>
<g id="a_node4"><a xlink:href="a12846.html" target="_top" xlink:title="An entry cannot be inserted into a container object for logical reasons (not, e.g....">
<polygon fill="white" stroke="black" points="0,-0.5 0,-28.5 102,-28.5 102,-0.5 0,-0.5"/>
<text text-anchor="start" x="8" y="-17.3" font-family="Helvetica,sans-Serif" font-size="9.00">__gnu_pbds::insert</text>
<text text-anchor="middle" x="51" y="-7.3" font-family="Helvetica,sans-Serif" font-size="9.00">_error</text>
</a>
</g>
</g>
<!-- Node1&#45;&gt;Node4 -->
<g id="edge3" class="edge">
<title>Node1&#45;&gt;Node4</title>
<path fill="none" stroke="midnightblue" d="M144.01,-60.92C122.98,-50.65 96.89,-37.91 77.69,-28.54"/>
<polygon fill="midnightblue" stroke="midnightblue" points="142.75,-64.2 153.27,-65.45 145.82,-57.91 142.75,-64.2"/>
</g>
<!-- Node5 -->
<g id="node5" class="node">
<title>Node5</title>
<g id="a_node5"><a xlink:href="a12850.html" target="_top" xlink:title="A join cannot be performed logical reasons (i.e., the ranges of the two container objects being joine...">
<polygon fill="white" stroke="black" points="120.5,-5.5 120.5,-23.5 239.5,-23.5 239.5,-5.5 120.5,-5.5"/>
<text text-anchor="middle" x="180" y="-12.3" font-family="Helvetica,sans-Serif" font-size="9.00">__gnu_pbds::join_error</text>
</a>
</g>
</g>
<!-- Node1&#45;&gt;Node5 -->
<g id="edge4" class="edge">
<title>Node1&#45;&gt;Node5</title>
<path fill="none" stroke="midnightblue" d="M180,-55.13C180,-44.12 180,-31.69 180,-23.73"/>
<polygon fill="midnightblue" stroke="midnightblue" points="176.5,-55.45 180,-65.45 183.5,-55.45 176.5,-55.45"/>
</g>
<!-- Node6 -->
<g id="node6" class="node">
<title>Node6</title>
<g id="a_node6"><a xlink:href="a12854.html" target="_top" xlink:title="A container cannot be resized.">
<polygon fill="white" stroke="black" points="258,-0.5 258,-28.5 360,-28.5 360,-0.5 258,-0.5"/>
<text text-anchor="start" x="266" y="-17.3" font-family="Helvetica,sans-Serif" font-size="9.00">__gnu_pbds::resize</text>
<text text-anchor="middle" x="309" y="-7.3" font-family="Helvetica,sans-Serif" font-size="9.00">_error</text>
</a>
</g>
</g>
<!-- Node1&#45;&gt;Node6 -->
<g id="edge5" class="edge">
<title>Node1&#45;&gt;Node6</title>
<path fill="none" stroke="midnightblue" d="M215.99,-60.92C237.02,-50.65 263.11,-37.91 282.31,-28.54"/>
<polygon fill="midnightblue" stroke="midnightblue" points="214.18,-57.91 206.73,-65.45 217.25,-64.2 214.18,-57.91"/>
</g>
<!-- Node2 -->
<g id="node2" class="node">
<title>Node2</title>
<g id="a_node2"><a xlink:href="a03450.html" target="_top" xlink:title="One of two subclasses of exception.">
<polygon fill="white" stroke="black" points="138,-130.5 138,-148.5 222,-148.5 222,-130.5 138,-130.5"/>
<text text-anchor="middle" x="180" y="-137.3" font-family="Helvetica,sans-Serif" font-size="9.00">std::logic_error</text>
</a>
</g>
</g>
<!-- Node2&#45;&gt;Node1 -->
<g id="edge1" class="edge">
<title>Node2&#45;&gt;Node1</title>
<path fill="none" stroke="midnightblue" d="M180,-120.32C180,-111.75 180,-101.7 180,-93.84"/>
<polygon fill="midnightblue" stroke="midnightblue" points="176.5,-120.44 180,-130.44 183.5,-120.44 176.5,-120.44"/>
</g>
<!-- Node3 -->
<g id="node3" class="node">
<title>Node3</title>
<g id="a_node3"><a xlink:href="a05922.html" target="_top" xlink:title="Base class for all library exceptions.">
<polygon fill="white" stroke="black" points="140,-185.5 140,-203.5 220,-203.5 220,-185.5 140,-185.5"/>
<text text-anchor="middle" x="180" y="-192.3" font-family="Helvetica,sans-Serif" font-size="9.00">std::exception</text>
</a>
</g>
</g>
<!-- Node3&#45;&gt;Node2 -->
<g id="edge2" class="edge">
<title>Node3&#45;&gt;Node2</title>
<path fill="none" stroke="midnightblue" d="M180,-175.17C180,-166.09 180,-155.59 180,-148.55"/>
<polygon fill="midnightblue" stroke="midnightblue" points="176.5,-175.22 180,-185.22 183.5,-175.22 176.5,-175.22"/>
</g>
</g>
</svg>
