<?xml version="1.0" encoding="UTF-8" standalone="no"?>
<!DOCTYPE svg PUBLIC "-//W3C//DTD SVG 1.1//EN"
 "http://www.w3.org/Graphics/SVG/1.1/DTD/svg11.dtd">
<!-- Generated by graphviz version 2.50.0 (0)
 -->
<!-- Title: __gnu_pbds::insert_error Pages: 1 -->
<svg width="127pt" height="212pt"
 viewBox="0.00 0.00 127.00 212.00" xmlns="http://www.w3.org/2000/svg" xmlns:xlink="http://www.w3.org/1999/xlink">
<g id="graph0" class="graph" transform="scale(1 1) rotate(0) translate(4 208)">
<title>__gnu_pbds::insert_error</title>
<polygon fill="white" stroke="transparent" points="-4,4 -4,-208 123,-208 123,4 -4,4"/>
<!-- Node1 -->
<g id="node1" class="node">
<title>Node1</title>
<g id="a_node1"><a xlink:title="An entry cannot be inserted into a container object for logical reasons (not, e.g....">
<polygon fill="#bfbfbf" stroke="black" points="8.5,-0.5 8.5,-28.5 110.5,-28.5 110.5,-0.5 8.5,-0.5"/>
<text text-anchor="start" x="16.5" y="-17.3" font-family="Helvetica,sans-Serif" font-size="9.00">__gnu_pbds::insert</text>
<text text-anchor="middle" x="59.5" y="-7.3" font-family="Helvetica,sans-Serif" font-size="9.00">_error</text>
</a>
</g>
</g>
<!-- Node2 -->
<g id="node2" class="node">
<title>Node2</title>
<g id="a_node2"><a xlink:href="a12842.html" target="_top" xlink:title="Base class for exceptions.">
<polygon fill="white" stroke="black" points="0,-65.5 0,-93.5 119,-93.5 119,-65.5 0,-65.5"/>
<text text-anchor="start" x="8" y="-82.3" font-family="Helvetica,sans-Serif" font-size="9.00">__gnu_pbds::container</text>
<text text-anchor="middle" x="59.5" y="-72.3" font-family="Helvetica,sans-Serif" font-size="9.00">_error</text>
</a>
</g>
</g>
<!-- Node2&#45;&gt;Node1 -->
<g id="edge1" class="edge">
<title>Node2&#45;&gt;Node1</title>
<path fill="none" stroke="midnightblue" d="M59.5,-55.16C59.5,-46.17 59.5,-36.22 59.5,-28.54"/>
<polygon fill="midnightblue" stroke="midnightblue" points="56,-55.45 59.5,-65.45 63,-55.45 56,-55.45"/>
</g>
<!-- Node3 -->
<g id="node3" class="node">
<title>Node3</title>
<g id="a_node3"><a xlink:href="a03450.html" target="_top" xlink:title="One of two subclasses of exception.">
<polygon fill="white" stroke="black" points="17.5,-130.5 17.5,-148.5 101.5,-148.5 101.5,-130.5 17.5,-130.5"/>
<text text-anchor="middle" x="59.5" y="-137.3" font-family="Helvetica,sans-Serif" font-size="9.00">std::logic_error</text>
</a>
</g>
</g>
<!-- Node3&#45;&gt;Node2 -->
<g id="edge2" class="edge">
<title>Node3&#45;&gt;Node2</title>
<path fill="none" stroke="midnightblue" d="M59.5,-120.32C59.5,-111.75 59.5,-101.7 59.5,-93.84"/>
<polygon fill="midnightblue" stroke="midnightblue" points="56,-120.44 59.5,-130.44 63,-120.44 56,-120.44"/>
</g>
<!-- Node4 -->
<g id="node4" class="node">
<title>Node4</title>
<g id="a_node4"><a xlink:href="a05922.html" target="_top" xlink:title="Base class for all library exceptions.">
<polygon fill="white" stroke="black" points="19.5,-185.5 19.5,-203.5 99.5,-203.5 99.5,-185.5 19.5,-185.5"/>
<text text-anchor="middle" x="59.5" y="-192.3" font-family="Helvetica,sans-Serif" font-size="9.00">std::exception</text>
</a>
</g>
</g>
<!-- Node4&#45;&gt;Node3 -->
<g id="edge3" class="edge">
<title>Node4&#45;&gt;Node3</title>
<path fill="none" stroke="midnightblue" d="M59.5,-175.17C59.5,-166.09 59.5,-155.59 59.5,-148.55"/>
<polygon fill="midnightblue" stroke="midnightblue" points="56,-175.22 59.5,-185.22 63,-175.22 56,-175.22"/>
</g>
</g>
</svg>
