<?xml version="1.0" encoding="UTF-8" standalone="no"?>
<!DOCTYPE svg PUBLIC "-//W3C//DTD SVG 1.1//EN"
 "http://www.w3.org/Graphics/SVG/1.1/DTD/svg11.dtd">
<!-- Generated by graphviz version 2.50.0 (0)
 -->
<!-- Title: __gnu_pbds::basic_hash_tag Pages: 1 -->
<svg width="294pt" height="192pt"
 viewBox="0.00 0.00 293.50 192.00" xmlns="http://www.w3.org/2000/svg" xmlns:xlink="http://www.w3.org/1999/xlink">
<g id="graph0" class="graph" transform="scale(1 1) rotate(0) translate(4 188)">
<title>__gnu_pbds::basic_hash_tag</title>
<polygon fill="white" stroke="transparent" points="-4,4 -4,-188 289.5,-188 289.5,4 -4,4"/>
<!-- Node1 -->
<g id="node1" class="node">
<title>Node1</title>
<g id="a_node1"><a xlink:title="Basic hash structure.">
<polygon fill="#bfbfbf" stroke="black" points="69.5,-55.5 69.5,-73.5 215.5,-73.5 215.5,-55.5 69.5,-55.5"/>
<text text-anchor="middle" x="142.5" y="-62.3" font-family="Helvetica,sans-Serif" font-size="9.00">__gnu_pbds::basic_hash_tag</text>
</a>
</g>
</g>
<!-- Node4 -->
<g id="node4" class="node">
<title>Node4</title>
<g id="a_node4"><a xlink:href="a12942.html" target="_top" xlink:title="Collision&#45;chaining hash.">
<polygon fill="white" stroke="black" points="0,-0.5 0,-18.5 133,-18.5 133,-0.5 0,-0.5"/>
<text text-anchor="middle" x="66.5" y="-7.3" font-family="Helvetica,sans-Serif" font-size="9.00">__gnu_pbds::cc_hash_tag</text>
</a>
</g>
</g>
<!-- Node1&#45;&gt;Node4 -->
<g id="edge3" class="edge">
<title>Node1&#45;&gt;Node4</title>
<path fill="none" stroke="midnightblue" d="M122.41,-49.49C108.3,-39.65 89.91,-26.83 78.15,-18.63"/>
<polygon fill="midnightblue" stroke="midnightblue" points="120.75,-52.6 130.96,-55.45 124.76,-46.86 120.75,-52.6"/>
</g>
<!-- Node5 -->
<g id="node5" class="node">
<title>Node5</title>
<g id="a_node5"><a xlink:href="a12946.html" target="_top" xlink:title="General&#45;probing hash.">
<polygon fill="white" stroke="black" points="151.5,-0.5 151.5,-18.5 285.5,-18.5 285.5,-0.5 151.5,-0.5"/>
<text text-anchor="middle" x="218.5" y="-7.3" font-family="Helvetica,sans-Serif" font-size="9.00">__gnu_pbds::gp_hash_tag</text>
</a>
</g>
</g>
<!-- Node1&#45;&gt;Node5 -->
<g id="edge4" class="edge">
<title>Node1&#45;&gt;Node5</title>
<path fill="none" stroke="midnightblue" d="M162.59,-49.49C176.7,-39.65 195.09,-26.83 206.85,-18.63"/>
<polygon fill="midnightblue" stroke="midnightblue" points="160.24,-46.86 154.04,-55.45 164.25,-52.6 160.24,-46.86"/>
</g>
<!-- Node2 -->
<g id="node2" class="node">
<title>Node2</title>
<g id="a_node2"><a xlink:href="a12934.html" target="_top" xlink:title="Basic associative&#45;container.">
<polygon fill="white" stroke="black" points="70,-110.5 70,-128.5 215,-128.5 215,-110.5 70,-110.5"/>
<text text-anchor="middle" x="142.5" y="-117.3" font-family="Helvetica,sans-Serif" font-size="9.00">__gnu_pbds::associative_tag</text>
</a>
</g>
</g>
<!-- Node2&#45;&gt;Node1 -->
<g id="edge1" class="edge">
<title>Node2&#45;&gt;Node1</title>
<path fill="none" stroke="midnightblue" d="M142.5,-100.17C142.5,-91.09 142.5,-80.59 142.5,-73.55"/>
<polygon fill="midnightblue" stroke="midnightblue" points="139,-100.22 142.5,-110.22 146,-100.22 139,-100.22"/>
</g>
<!-- Node3 -->
<g id="node3" class="node">
<title>Node3</title>
<g id="a_node3"><a xlink:href="a12922.html" target="_top" xlink:title="Base data structure tag.">
<polygon fill="white" stroke="black" points="73,-165.5 73,-183.5 212,-183.5 212,-165.5 73,-165.5"/>
<text text-anchor="middle" x="142.5" y="-172.3" font-family="Helvetica,sans-Serif" font-size="9.00">__gnu_pbds::container_tag</text>
</a>
</g>
</g>
<!-- Node3&#45;&gt;Node2 -->
<g id="edge2" class="edge">
<title>Node3&#45;&gt;Node2</title>
<path fill="none" stroke="midnightblue" d="M142.5,-155.17C142.5,-146.09 142.5,-135.59 142.5,-128.55"/>
<polygon fill="midnightblue" stroke="midnightblue" points="139,-155.22 142.5,-165.22 146,-155.22 139,-155.22"/>
</g>
</g>
</svg>
