<?xml version="1.0" encoding="UTF-8" standalone="no"?>
<!DOCTYPE svg PUBLIC "-//W3C//DTD SVG 1.1//EN"
 "http://www.w3.org/Graphics/SVG/1.1/DTD/svg11.dtd">
<!-- Generated by graphviz version 2.50.0 (0)
 -->
<!-- Title: __gnu_pbds::list_update_tag Pages: 1 -->
<svg width="154pt" height="137pt"
 viewBox="0.00 0.00 154.00 137.00" xmlns="http://www.w3.org/2000/svg" xmlns:xlink="http://www.w3.org/1999/xlink">
<g id="graph0" class="graph" transform="scale(1 1) rotate(0) translate(4 133)">
<title>__gnu_pbds::list_update_tag</title>
<polygon fill="white" stroke="transparent" points="-4,4 -4,-133 150,-133 150,4 -4,4"/>
<!-- Node1 -->
<g id="node1" class="node">
<title>Node1</title>
<g id="a_node1"><a xlink:title="List&#45;update.">
<polygon fill="#bfbfbf" stroke="black" points="0,-0.5 0,-18.5 146,-18.5 146,-0.5 0,-0.5"/>
<text text-anchor="middle" x="73" y="-7.3" font-family="Helvetica,sans-Serif" font-size="9.00">__gnu_pbds::list_update_tag</text>
</a>
</g>
</g>
<!-- Node2 -->
<g id="node2" class="node">
<title>Node2</title>
<g id="a_node2"><a xlink:href="a12934.html" target="_top" xlink:title="Basic associative&#45;container.">
<polygon fill="white" stroke="black" points="0.5,-55.5 0.5,-73.5 145.5,-73.5 145.5,-55.5 0.5,-55.5"/>
<text text-anchor="middle" x="73" y="-62.3" font-family="Helvetica,sans-Serif" font-size="9.00">__gnu_pbds::associative_tag</text>
</a>
</g>
</g>
<!-- Node2&#45;&gt;Node1 -->
<g id="edge1" class="edge">
<title>Node2&#45;&gt;Node1</title>
<path fill="none" stroke="midnightblue" d="M73,-45.17C73,-36.09 73,-25.59 73,-18.55"/>
<polygon fill="midnightblue" stroke="midnightblue" points="69.5,-45.22 73,-55.22 76.5,-45.22 69.5,-45.22"/>
</g>
<!-- Node3 -->
<g id="node3" class="node">
<title>Node3</title>
<g id="a_node3"><a xlink:href="a12922.html" target="_top" xlink:title="Base data structure tag.">
<polygon fill="white" stroke="black" points="3.5,-110.5 3.5,-128.5 142.5,-128.5 142.5,-110.5 3.5,-110.5"/>
<text text-anchor="middle" x="73" y="-117.3" font-family="Helvetica,sans-Serif" font-size="9.00">__gnu_pbds::container_tag</text>
</a>
</g>
</g>
<!-- Node3&#45;&gt;Node2 -->
<g id="edge2" class="edge">
<title>Node3&#45;&gt;Node2</title>
<path fill="none" stroke="midnightblue" d="M73,-100.17C73,-91.09 73,-80.59 73,-73.55"/>
<polygon fill="midnightblue" stroke="midnightblue" points="69.5,-100.22 73,-110.22 76.5,-100.22 69.5,-100.22"/>
</g>
</g>
</svg>
