<?xml version="1.0" encoding="UTF-8" standalone="no"?>
<!DOCTYPE svg PUBLIC "-//W3C//DTD SVG 1.1//EN"
 "http://www.w3.org/Graphics/SVG/1.1/DTD/svg11.dtd">
<!-- Generated by graphviz version 2.50.0 (0)
 -->
<!-- Title: __gnu_pbds::pat_trie_tag Pages: 1 -->
<svg width="164pt" height="247pt"
 viewBox="0.00 0.00 164.00 247.00" xmlns="http://www.w3.org/2000/svg" xmlns:xlink="http://www.w3.org/1999/xlink">
<g id="graph0" class="graph" transform="scale(1 1) rotate(0) translate(4 243)">
<title>__gnu_pbds::pat_trie_tag</title>
<polygon fill="white" stroke="transparent" points="-4,4 -4,-243 160,-243 160,4 -4,4"/>
<!-- Node1 -->
<g id="node1" class="node">
<title>Node1</title>
<g id="a_node1"><a xlink:title="PATRICIA trie.">
<polygon fill="#bfbfbf" stroke="black" points="12.5,-0.5 12.5,-18.5 143.5,-18.5 143.5,-0.5 12.5,-0.5"/>
<text text-anchor="middle" x="78" y="-7.3" font-family="Helvetica,sans-Serif" font-size="9.00">__gnu_pbds::pat_trie_tag</text>
</a>
</g>
</g>
<!-- Node2 -->
<g id="node2" class="node">
<title>Node2</title>
<g id="a_node2"><a xlink:href="a12970.html" target="_top" xlink:title="Basic trie structure.">
<polygon fill="white" stroke="black" points="22.5,-55.5 22.5,-73.5 133.5,-73.5 133.5,-55.5 22.5,-55.5"/>
<text text-anchor="middle" x="78" y="-62.3" font-family="Helvetica,sans-Serif" font-size="9.00">__gnu_pbds::trie_tag</text>
</a>
</g>
</g>
<!-- Node2&#45;&gt;Node1 -->
<g id="edge1" class="edge">
<title>Node2&#45;&gt;Node1</title>
<path fill="none" stroke="midnightblue" d="M78,-45.17C78,-36.09 78,-25.59 78,-18.55"/>
<polygon fill="midnightblue" stroke="midnightblue" points="74.5,-45.22 78,-55.22 81.5,-45.22 74.5,-45.22"/>
</g>
<!-- Node3 -->
<g id="node3" class="node">
<title>Node3</title>
<g id="a_node3"><a xlink:href="a12950.html" target="_top" xlink:title="Basic branch structure.">
<polygon fill="white" stroke="black" points="0,-110.5 0,-128.5 156,-128.5 156,-110.5 0,-110.5"/>
<text text-anchor="middle" x="78" y="-117.3" font-family="Helvetica,sans-Serif" font-size="9.00">__gnu_pbds::basic_branch_tag</text>
</a>
</g>
</g>
<!-- Node3&#45;&gt;Node2 -->
<g id="edge2" class="edge">
<title>Node3&#45;&gt;Node2</title>
<path fill="none" stroke="midnightblue" d="M78,-100.17C78,-91.09 78,-80.59 78,-73.55"/>
<polygon fill="midnightblue" stroke="midnightblue" points="74.5,-100.22 78,-110.22 81.5,-100.22 74.5,-100.22"/>
</g>
<!-- Node4 -->
<g id="node4" class="node">
<title>Node4</title>
<g id="a_node4"><a xlink:href="a12934.html" target="_top" xlink:title="Basic associative&#45;container.">
<polygon fill="white" stroke="black" points="5.5,-165.5 5.5,-183.5 150.5,-183.5 150.5,-165.5 5.5,-165.5"/>
<text text-anchor="middle" x="78" y="-172.3" font-family="Helvetica,sans-Serif" font-size="9.00">__gnu_pbds::associative_tag</text>
</a>
</g>
</g>
<!-- Node4&#45;&gt;Node3 -->
<g id="edge3" class="edge">
<title>Node4&#45;&gt;Node3</title>
<path fill="none" stroke="midnightblue" d="M78,-155.17C78,-146.09 78,-135.59 78,-128.55"/>
<polygon fill="midnightblue" stroke="midnightblue" points="74.5,-155.22 78,-165.22 81.5,-155.22 74.5,-155.22"/>
</g>
<!-- Node5 -->
<g id="node5" class="node">
<title>Node5</title>
<g id="a_node5"><a xlink:href="a12922.html" target="_top" xlink:title="Base data structure tag.">
<polygon fill="white" stroke="black" points="8.5,-220.5 8.5,-238.5 147.5,-238.5 147.5,-220.5 8.5,-220.5"/>
<text text-anchor="middle" x="78" y="-227.3" font-family="Helvetica,sans-Serif" font-size="9.00">__gnu_pbds::container_tag</text>
</a>
</g>
</g>
<!-- Node5&#45;&gt;Node4 -->
<g id="edge4" class="edge">
<title>Node5&#45;&gt;Node4</title>
<path fill="none" stroke="midnightblue" d="M78,-210.17C78,-201.09 78,-190.59 78,-183.55"/>
<polygon fill="midnightblue" stroke="midnightblue" points="74.5,-210.22 78,-220.22 81.5,-210.22 74.5,-210.22"/>
</g>
</g>
</svg>
