<?xml version="1.0" encoding="UTF-8" standalone="no"?>
<!DOCTYPE svg PUBLIC "-//W3C//DTD SVG 1.1//EN"
 "http://www.w3.org/Graphics/SVG/1.1/DTD/svg11.dtd">
<!-- Generated by graphviz version 2.50.0 (0)
 -->
<!-- Title: __gnu_pbds::priority_queue_tag Pages: 1 -->
<svg width="469pt" height="215pt"
 viewBox="0.00 0.00 469.00 215.00" xmlns="http://www.w3.org/2000/svg" xmlns:xlink="http://www.w3.org/1999/xlink">
<g id="graph0" class="graph" transform="scale(1 1) rotate(0) translate(4 211)">
<title>__gnu_pbds::priority_queue_tag</title>
<polygon fill="white" stroke="transparent" points="-4,4 -4,-211 465,-211 465,4 -4,4"/>
<!-- Node1 -->
<g id="node1" class="node">
<title>Node1</title>
<g id="a_node1"><a xlink:title="Basic priority&#45;queue.">
<polygon fill="#bfbfbf" stroke="black" points="175,-84.5 175,-112.5 284,-112.5 284,-84.5 175,-84.5"/>
<text text-anchor="start" x="183" y="-101.3" font-family="Helvetica,sans-Serif" font-size="9.00">__gnu_pbds::priority</text>
<text text-anchor="middle" x="229.5" y="-91.3" font-family="Helvetica,sans-Serif" font-size="9.00">_queue_tag</text>
</a>
</g>
</g>
<!-- Node3 -->
<g id="node3" class="node">
<title>Node3</title>
<g id="a_node3"><a xlink:href="a12998.html" target="_top" xlink:title="Binary&#45;heap (array&#45;based).">
<polygon fill="white" stroke="black" points="338,-178.5 338,-206.5 443,-206.5 443,-178.5 338,-178.5"/>
<text text-anchor="start" x="346" y="-195.3" font-family="Helvetica,sans-Serif" font-size="9.00">__gnu_pbds::binary</text>
<text text-anchor="middle" x="390.5" y="-185.3" font-family="Helvetica,sans-Serif" font-size="9.00">_heap_tag</text>
</a>
</g>
</g>
<!-- Node1&#45;&gt;Node3 -->
<g id="edge2" class="edge">
<title>Node1&#45;&gt;Node3</title>
<path fill="none" stroke="midnightblue" d="M252.65,-119.74C269.86,-135.3 294.95,-155.98 320,-169.5 326.15,-172.82 332.87,-175.78 339.62,-178.37"/>
<polygon fill="midnightblue" stroke="midnightblue" points="254.59,-116.77 244.86,-112.57 249.85,-121.92 254.59,-116.77"/>
</g>
<!-- Node4 -->
<g id="node4" class="node">
<title>Node4</title>
<g id="a_node4"><a xlink:href="a12990.html" target="_top" xlink:title="Binomial&#45;heap.">
<polygon fill="white" stroke="black" points="333,-131.5 333,-159.5 448,-159.5 448,-131.5 333,-131.5"/>
<text text-anchor="start" x="341" y="-148.3" font-family="Helvetica,sans-Serif" font-size="9.00">__gnu_pbds::binomial</text>
<text text-anchor="middle" x="390.5" y="-138.3" font-family="Helvetica,sans-Serif" font-size="9.00">_heap_tag</text>
</a>
</g>
</g>
<!-- Node1&#45;&gt;Node4 -->
<g id="edge3" class="edge">
<title>Node1&#45;&gt;Node4</title>
<path fill="none" stroke="midnightblue" d="M287.9,-115.47C305.68,-120.72 325.07,-126.46 342.1,-131.49"/>
<polygon fill="midnightblue" stroke="midnightblue" points="288.79,-112.08 278.21,-112.6 286.8,-118.79 288.79,-112.08"/>
</g>
<!-- Node5 -->
<g id="node5" class="node">
<title>Node5</title>
<g id="a_node5"><a xlink:href="a12986.html" target="_top" xlink:title="Pairing&#45;heap.">
<polygon fill="white" stroke="black" points="336.5,-84.5 336.5,-112.5 444.5,-112.5 444.5,-84.5 336.5,-84.5"/>
<text text-anchor="start" x="344.5" y="-101.3" font-family="Helvetica,sans-Serif" font-size="9.00">__gnu_pbds::pairing</text>
<text text-anchor="middle" x="390.5" y="-91.3" font-family="Helvetica,sans-Serif" font-size="9.00">_heap_tag</text>
</a>
</g>
</g>
<!-- Node1&#45;&gt;Node5 -->
<g id="edge4" class="edge">
<title>Node1&#45;&gt;Node5</title>
<path fill="none" stroke="midnightblue" d="M294.72,-98.5C308.52,-98.5 322.94,-98.5 336.27,-98.5"/>
<polygon fill="midnightblue" stroke="midnightblue" points="294.33,-95 284.33,-98.5 294.33,-102 294.33,-95"/>
</g>
<!-- Node6 -->
<g id="node6" class="node">
<title>Node6</title>
<g id="a_node6"><a xlink:href="a12994.html" target="_top" xlink:title="Redundant&#45;counter binomial&#45;heap.">
<polygon fill="white" stroke="black" points="326.5,-37.5 326.5,-65.5 454.5,-65.5 454.5,-37.5 326.5,-37.5"/>
<text text-anchor="start" x="334.5" y="-54.3" font-family="Helvetica,sans-Serif" font-size="9.00">__gnu_pbds::rc_binomial</text>
<text text-anchor="middle" x="390.5" y="-44.3" font-family="Helvetica,sans-Serif" font-size="9.00">_heap_tag</text>
</a>
</g>
</g>
<!-- Node1&#45;&gt;Node6 -->
<g id="edge5" class="edge">
<title>Node1&#45;&gt;Node6</title>
<path fill="none" stroke="midnightblue" d="M287.9,-81.53C305.68,-76.28 325.07,-70.54 342.1,-65.51"/>
<polygon fill="midnightblue" stroke="midnightblue" points="286.8,-78.21 278.21,-84.4 288.79,-84.92 286.8,-78.21"/>
</g>
<!-- Node7 -->
<g id="node7" class="node">
<title>Node7</title>
<g id="a_node7"><a xlink:href="a13002.html" target="_top" xlink:title="Thin heap.">
<polygon fill="white" stroke="black" points="320,-0.5 320,-18.5 461,-18.5 461,-0.5 320,-0.5"/>
<text text-anchor="middle" x="390.5" y="-7.3" font-family="Helvetica,sans-Serif" font-size="9.00">__gnu_pbds::thin_heap_tag</text>
</a>
</g>
</g>
<!-- Node1&#45;&gt;Node7 -->
<g id="edge6" class="edge">
<title>Node1&#45;&gt;Node7</title>
<path fill="none" stroke="midnightblue" d="M252.09,-77.06C269.18,-61.21 294.37,-40.26 320,-27.5 327.25,-23.89 335.3,-20.95 343.28,-18.58"/>
<polygon fill="midnightblue" stroke="midnightblue" points="249.23,-74.94 244.38,-84.36 254.05,-80.02 249.23,-74.94"/>
</g>
<!-- Node2 -->
<g id="node2" class="node">
<title>Node2</title>
<g id="a_node2"><a xlink:href="a12922.html" target="_top" xlink:title="Base data structure tag.">
<polygon fill="white" stroke="black" points="0,-89.5 0,-107.5 139,-107.5 139,-89.5 0,-89.5"/>
<text text-anchor="middle" x="69.5" y="-96.3" font-family="Helvetica,sans-Serif" font-size="9.00">__gnu_pbds::container_tag</text>
</a>
</g>
</g>
<!-- Node2&#45;&gt;Node1 -->
<g id="edge1" class="edge">
<title>Node2&#45;&gt;Node1</title>
<path fill="none" stroke="midnightblue" d="M149.35,-98.5C157.9,-98.5 166.46,-98.5 174.61,-98.5"/>
<polygon fill="midnightblue" stroke="midnightblue" points="149.34,-95 139.34,-98.5 149.34,-102 149.34,-95"/>
</g>
</g>
</svg>
