<?xml version="1.0" encoding="UTF-8" standalone="no"?>
<!DOCTYPE svg PUBLIC "-//W3C//DTD SVG 1.1//EN"
 "http://www.w3.org/Graphics/SVG/1.1/DTD/svg11.dtd">
<!-- Generated by graphviz version 2.50.0 (0)
 -->
<!-- Title: __gnu_pbds::binary_heap_tag Pages: 1 -->
<svg width="147pt" height="157pt"
 viewBox="0.00 0.00 147.00 157.00" xmlns="http://www.w3.org/2000/svg" xmlns:xlink="http://www.w3.org/1999/xlink">
<g id="graph0" class="graph" transform="scale(1 1) rotate(0) translate(4 153)">
<title>__gnu_pbds::binary_heap_tag</title>
<polygon fill="white" stroke="transparent" points="-4,4 -4,-153 143,-153 143,4 -4,4"/>
<!-- Node1 -->
<g id="node1" class="node">
<title>Node1</title>
<g id="a_node1"><a xlink:title="Binary&#45;heap (array&#45;based).">
<polygon fill="#bfbfbf" stroke="black" points="17,-0.5 17,-28.5 122,-28.5 122,-0.5 17,-0.5"/>
<text text-anchor="start" x="25" y="-17.3" font-family="Helvetica,sans-Serif" font-size="9.00">__gnu_pbds::binary</text>
<text text-anchor="middle" x="69.5" y="-7.3" font-family="Helvetica,sans-Serif" font-size="9.00">_heap_tag</text>
</a>
</g>
</g>
<!-- Node2 -->
<g id="node2" class="node">
<title>Node2</title>
<g id="a_node2"><a xlink:href="a12982.html" target="_top" xlink:title="Basic priority&#45;queue.">
<polygon fill="white" stroke="black" points="15,-65.5 15,-93.5 124,-93.5 124,-65.5 15,-65.5"/>
<text text-anchor="start" x="23" y="-82.3" font-family="Helvetica,sans-Serif" font-size="9.00">__gnu_pbds::priority</text>
<text text-anchor="middle" x="69.5" y="-72.3" font-family="Helvetica,sans-Serif" font-size="9.00">_queue_tag</text>
</a>
</g>
</g>
<!-- Node2&#45;&gt;Node1 -->
<g id="edge1" class="edge">
<title>Node2&#45;&gt;Node1</title>
<path fill="none" stroke="midnightblue" d="M69.5,-55.16C69.5,-46.17 69.5,-36.22 69.5,-28.54"/>
<polygon fill="midnightblue" stroke="midnightblue" points="66,-55.45 69.5,-65.45 73,-55.45 66,-55.45"/>
</g>
<!-- Node3 -->
<g id="node3" class="node">
<title>Node3</title>
<g id="a_node3"><a xlink:href="a12922.html" target="_top" xlink:title="Base data structure tag.">
<polygon fill="white" stroke="black" points="0,-130.5 0,-148.5 139,-148.5 139,-130.5 0,-130.5"/>
<text text-anchor="middle" x="69.5" y="-137.3" font-family="Helvetica,sans-Serif" font-size="9.00">__gnu_pbds::container_tag</text>
</a>
</g>
</g>
<!-- Node3&#45;&gt;Node2 -->
<g id="edge2" class="edge">
<title>Node3&#45;&gt;Node2</title>
<path fill="none" stroke="midnightblue" d="M69.5,-120.32C69.5,-111.75 69.5,-101.7 69.5,-93.84"/>
<polygon fill="midnightblue" stroke="midnightblue" points="66,-120.44 69.5,-130.44 73,-120.44 66,-120.44"/>
</g>
</g>
</svg>
