<?xml version="1.0" encoding="UTF-8" standalone="no"?>
<!DOCTYPE svg PUBLIC "-//W3C//DTD SVG 1.1//EN"
 "http://www.w3.org/Graphics/SVG/1.1/DTD/svg11.dtd">
<!-- Generated by graphviz version 2.50.0 (0)
 -->
<!-- Title: __gnu_pbds::basic_branch_tag Pages: 1 -->
<svg width="848pt" height="138pt"
 viewBox="0.00 0.00 848.00 138.00" xmlns="http://www.w3.org/2000/svg" xmlns:xlink="http://www.w3.org/1999/xlink">
<g id="graph0" class="graph" transform="scale(1 1) rotate(0) translate(4 134)">
<title>__gnu_pbds::basic_branch_tag</title>
<polygon fill="white" stroke="transparent" points="-4,4 -4,-134 844,-134 844,4 -4,4"/>
<!-- Node1 -->
<g id="node1" class="node">
<title>Node1</title>
<g id="a_node1"><a xlink:title="Basic branch structure.">
<polygon fill="#bfbfbf" stroke="black" points="356,-18.5 356,-36.5 512,-36.5 512,-18.5 356,-18.5"/>
<text text-anchor="middle" x="434" y="-25.3" font-family="Helvetica,sans-Serif" font-size="9.00">__gnu_pbds::basic_branch_tag</text>
</a>
</g>
</g>
<!-- Node4 -->
<g id="node4" class="node">
<title>Node4</title>
<g id="a_node4"><a xlink:href="a12954.html" target="_top" xlink:title="Basic tree structure.">
<polygon fill="white" stroke="black" points="548,-55.5 548,-73.5 662,-73.5 662,-55.5 548,-55.5"/>
<text text-anchor="middle" x="605" y="-62.3" font-family="Helvetica,sans-Serif" font-size="9.00">__gnu_pbds::tree_tag</text>
</a>
</g>
</g>
<!-- Node1&#45;&gt;Node4 -->
<g id="edge3" class="edge">
<title>Node1&#45;&gt;Node4</title>
<path fill="none" stroke="midnightblue" d="M486.2,-38.71C510.73,-44.08 539.71,-50.43 562.79,-55.48"/>
<polygon fill="midnightblue" stroke="midnightblue" points="486.86,-35.27 476.34,-36.55 485.36,-42.11 486.86,-35.27"/>
</g>
<!-- Node8 -->
<g id="node8" class="node">
<title>Node8</title>
<g id="a_node8"><a xlink:href="a12970.html" target="_top" xlink:title="Basic trie structure.">
<polygon fill="white" stroke="black" points="549.5,-0.5 549.5,-18.5 660.5,-18.5 660.5,-0.5 549.5,-0.5"/>
<text text-anchor="middle" x="605" y="-7.3" font-family="Helvetica,sans-Serif" font-size="9.00">__gnu_pbds::trie_tag</text>
</a>
</g>
</g>
<!-- Node1&#45;&gt;Node8 -->
<g id="edge7" class="edge">
<title>Node1&#45;&gt;Node8</title>
<path fill="none" stroke="midnightblue" d="M522.1,-18.22C531.33,-17.24 540.52,-16.26 549.23,-15.33"/>
<polygon fill="midnightblue" stroke="midnightblue" points="521.65,-14.75 512.08,-19.29 522.4,-21.71 521.65,-14.75"/>
</g>
<!-- Node2 -->
<g id="node2" class="node">
<title>Node2</title>
<g id="a_node2"><a xlink:href="a12934.html" target="_top" xlink:title="Basic associative&#45;container.">
<polygon fill="white" stroke="black" points="175,-18.5 175,-36.5 320,-36.5 320,-18.5 175,-18.5"/>
<text text-anchor="middle" x="247.5" y="-25.3" font-family="Helvetica,sans-Serif" font-size="9.00">__gnu_pbds::associative_tag</text>
</a>
</g>
</g>
<!-- Node2&#45;&gt;Node1 -->
<g id="edge1" class="edge">
<title>Node2&#45;&gt;Node1</title>
<path fill="none" stroke="midnightblue" d="M330.1,-27.5C338.69,-27.5 347.41,-27.5 355.94,-27.5"/>
<polygon fill="midnightblue" stroke="midnightblue" points="330.1,-24 320.1,-27.5 330.1,-31 330.1,-24"/>
</g>
<!-- Node3 -->
<g id="node3" class="node">
<title>Node3</title>
<g id="a_node3"><a xlink:href="a12922.html" target="_top" xlink:title="Base data structure tag.">
<polygon fill="white" stroke="black" points="0,-18.5 0,-36.5 139,-36.5 139,-18.5 0,-18.5"/>
<text text-anchor="middle" x="69.5" y="-25.3" font-family="Helvetica,sans-Serif" font-size="9.00">__gnu_pbds::container_tag</text>
</a>
</g>
</g>
<!-- Node3&#45;&gt;Node2 -->
<g id="edge2" class="edge">
<title>Node3&#45;&gt;Node2</title>
<path fill="none" stroke="midnightblue" d="M149.08,-27.5C157.69,-27.5 166.42,-27.5 174.94,-27.5"/>
<polygon fill="midnightblue" stroke="midnightblue" points="149.05,-24 139.05,-27.5 149.05,-31 149.05,-24"/>
</g>
<!-- Node5 -->
<g id="node5" class="node">
<title>Node5</title>
<g id="a_node5"><a xlink:href="a12966.html" target="_top" xlink:title="Ordered&#45;vector tree.">
<polygon fill="white" stroke="black" points="704.5,-111.5 704.5,-129.5 833.5,-129.5 833.5,-111.5 704.5,-111.5"/>
<text text-anchor="middle" x="769" y="-118.3" font-family="Helvetica,sans-Serif" font-size="9.00">__gnu_pbds::ov_tree_tag</text>
</a>
</g>
</g>
<!-- Node4&#45;&gt;Node5 -->
<g id="edge4" class="edge">
<title>Node4&#45;&gt;Node5</title>
<path fill="none" stroke="midnightblue" d="M635.11,-77.75C653.01,-85.59 676.56,-95.35 698,-102.5 707.88,-105.79 718.71,-108.84 728.84,-111.46"/>
<polygon fill="midnightblue" stroke="midnightblue" points="636.36,-74.47 625.79,-73.62 633.52,-80.87 636.36,-74.47"/>
</g>
<!-- Node6 -->
<g id="node6" class="node">
<title>Node6</title>
<g id="a_node6"><a xlink:href="a12958.html" target="_top" xlink:title="Red&#45;black tree.">
<polygon fill="white" stroke="black" points="705,-74.5 705,-92.5 833,-92.5 833,-74.5 705,-74.5"/>
<text text-anchor="middle" x="769" y="-81.3" font-family="Helvetica,sans-Serif" font-size="9.00">__gnu_pbds::rb_tree_tag</text>
</a>
</g>
</g>
<!-- Node4&#45;&gt;Node6 -->
<g id="edge5" class="edge">
<title>Node4&#45;&gt;Node6</title>
<path fill="none" stroke="midnightblue" d="M672.39,-72.29C683.16,-73.55 694.28,-74.85 704.96,-76.11"/>
<polygon fill="midnightblue" stroke="midnightblue" points="672.54,-68.78 662.21,-71.09 671.73,-75.73 672.54,-68.78"/>
</g>
<!-- Node7 -->
<g id="node7" class="node">
<title>Node7</title>
<g id="a_node7"><a xlink:href="a12962.html" target="_top" xlink:title="Splay tree.">
<polygon fill="white" stroke="black" points="698,-37.5 698,-55.5 840,-55.5 840,-37.5 698,-37.5"/>
<text text-anchor="middle" x="769" y="-44.3" font-family="Helvetica,sans-Serif" font-size="9.00">__gnu_pbds::splay_tree_tag</text>
</a>
</g>
</g>
<!-- Node4&#45;&gt;Node7 -->
<g id="edge6" class="edge">
<title>Node4&#45;&gt;Node7</title>
<path fill="none" stroke="midnightblue" d="M672.35,-57.13C680.78,-56.19 689.42,-55.23 697.91,-54.29"/>
<polygon fill="midnightblue" stroke="midnightblue" points="671.76,-53.67 662.21,-58.25 672.53,-60.63 671.76,-53.67"/>
</g>
<!-- Node9 -->
<g id="node9" class="node">
<title>Node9</title>
<g id="a_node9"><a xlink:href="a12974.html" target="_top" xlink:title="PATRICIA trie.">
<polygon fill="white" stroke="black" points="703.5,-0.5 703.5,-18.5 834.5,-18.5 834.5,-0.5 703.5,-0.5"/>
<text text-anchor="middle" x="769" y="-7.3" font-family="Helvetica,sans-Serif" font-size="9.00">__gnu_pbds::pat_trie_tag</text>
</a>
</g>
</g>
<!-- Node8&#45;&gt;Node9 -->
<g id="edge8" class="edge">
<title>Node8&#45;&gt;Node9</title>
<path fill="none" stroke="midnightblue" d="M670.95,-9.5C681.65,-9.5 692.73,-9.5 703.41,-9.5"/>
<polygon fill="midnightblue" stroke="midnightblue" points="670.85,-6 660.85,-9.5 670.85,-13 670.85,-6"/>
</g>
</g>
</svg>
