<?xml version="1.0" encoding="UTF-8" standalone="no"?>
<!DOCTYPE svg PUBLIC "-//W3C//DTD SVG 1.1//EN"
 "http://www.w3.org/Graphics/SVG/1.1/DTD/svg11.dtd">
<!-- Generated by graphviz version 2.50.0 (0)
 -->
<!-- Title: __gnu_pbds::null_type Pages: 1 -->
<svg width="128pt" height="102pt"
 viewBox="0.00 0.00 128.00 102.00" xmlns="http://www.w3.org/2000/svg" xmlns:xlink="http://www.w3.org/1999/xlink">
<g id="graph0" class="graph" transform="scale(1 1) rotate(0) translate(4 98)">
<title>__gnu_pbds::null_type</title>
<polygon fill="white" stroke="transparent" points="-4,4 -4,-98 124,-98 124,4 -4,4"/>
<!-- Node1 -->
<g id="node1" class="node">
<title>Node1</title>
<g id="a_node1"><a xlink:title="Represents no type, or absence of type, for template tricks.">
<polygon fill="#bfbfbf" stroke="black" points="1,-75.5 1,-93.5 119,-93.5 119,-75.5 1,-75.5"/>
<text text-anchor="middle" x="60" y="-82.3" font-family="Helvetica,sans-Serif" font-size="9.00">__gnu_pbds::null_type</text>
</a>
</g>
</g>
<!-- Node2 -->
<g id="node2" class="node">
<title>Node2</title>
<g id="a_node2"><a xlink:href="a13010.html" target="_top" xlink:title="A null node updator, indicating that no node updates are required.">
<polygon fill="white" stroke="black" points="0,-0.5 0,-38.5 120,-38.5 120,-0.5 0,-0.5"/>
<text text-anchor="start" x="8" y="-27.3" font-family="Helvetica,sans-Serif" font-size="9.00">__gnu_pbds::null_node</text>
<text text-anchor="start" x="8" y="-17.3" font-family="Helvetica,sans-Serif" font-size="9.00">_update&lt; _Tp1, _Tp2,</text>
<text text-anchor="middle" x="60" y="-7.3" font-family="Helvetica,sans-Serif" font-size="9.00"> _Tp3, _Tp4 &gt;</text>
</a>
</g>
</g>
<!-- Node1&#45;&gt;Node2 -->
<g id="edge1" class="edge">
<title>Node1&#45;&gt;Node2</title>
<path fill="none" stroke="midnightblue" d="M60,-65.08C60,-56.72 60,-46.86 60,-38.55"/>
<polygon fill="midnightblue" stroke="midnightblue" points="56.5,-65.26 60,-75.26 63.5,-65.26 56.5,-65.26"/>
</g>
</g>
</svg>
