<?xml version="1.0" encoding="UTF-8" standalone="no"?>
<!DOCTYPE svg PUBLIC "-//W3C//DTD SVG 1.1//EN"
 "http://www.w3.org/Graphics/SVG/1.1/DTD/svg11.dtd">
<!-- Generated by graphviz version 2.50.0 (0)
 -->
<!-- Title: __gnu_pbds::detail::stored_hash&lt; _Th &gt; Pages: 1 -->
<svg width="122pt" height="112pt"
 viewBox="0.00 0.00 122.00 112.00" xmlns="http://www.w3.org/2000/svg" xmlns:xlink="http://www.w3.org/1999/xlink">
<g id="graph0" class="graph" transform="scale(1 1) rotate(0) translate(4 108)">
<title>__gnu_pbds::detail::stored_hash&lt; _Th &gt;</title>
<polygon fill="white" stroke="transparent" points="-4,4 -4,-108 118,-108 118,4 -4,4"/>
<!-- Node1 -->
<g id="node1" class="node">
<title>Node1</title>
<g id="a_node1"><a xlink:title="Stored hash.">
<polygon fill="#bfbfbf" stroke="black" points="0,-75.5 0,-103.5 114,-103.5 114,-75.5 0,-75.5"/>
<text text-anchor="start" x="8" y="-92.3" font-family="Helvetica,sans-Serif" font-size="9.00">__gnu_pbds::detail</text>
<text text-anchor="middle" x="57" y="-82.3" font-family="Helvetica,sans-Serif" font-size="9.00">::stored_hash&lt; _Th &gt;</text>
</a>
</g>
</g>
<!-- Node2 -->
<g id="node2" class="node">
<title>Node2</title>
<g id="a_node2"><a xlink:href="a13246.html" target="_top" xlink:title="Primary template for representation of stored data. Two types of data can be stored: value and hash.">
<polygon fill="white" stroke="black" points="5,-0.5 5,-38.5 109,-38.5 109,-0.5 5,-0.5"/>
<text text-anchor="start" x="13" y="-27.3" font-family="Helvetica,sans-Serif" font-size="9.00">__gnu_pbds::detail</text>
<text text-anchor="start" x="13" y="-17.3" font-family="Helvetica,sans-Serif" font-size="9.00">::stored_data&lt; _Tv,</text>
<text text-anchor="middle" x="57" y="-7.3" font-family="Helvetica,sans-Serif" font-size="9.00"> _Th, Store_Hash &gt;</text>
</a>
</g>
</g>
<!-- Node1&#45;&gt;Node2 -->
<g id="edge1" class="edge">
<title>Node1&#45;&gt;Node2</title>
<path fill="none" stroke="midnightblue" d="M57,-65.17C57,-56.52 57,-46.84 57,-38.71"/>
<polygon fill="midnightblue" stroke="midnightblue" points="53.5,-65.39 57,-75.39 60.5,-65.39 53.5,-65.39"/>
</g>
</g>
</svg>
