<?xml version="1.0" encoding="UTF-8" standalone="no"?>
<!DOCTYPE svg PUBLIC "-//W3C//DTD SVG 1.1//EN"
 "http://www.w3.org/Graphics/SVG/1.1/DTD/svg11.dtd">
<!-- Generated by graphviz version 2.50.0 (0)
 -->
<!-- Title: __gnu_pbds::detail::stored_data&lt; _Tv, _Th, false &gt; Pages: 1 -->
<svg width="124pt" height="112pt"
 viewBox="0.00 0.00 124.00 112.00" xmlns="http://www.w3.org/2000/svg" xmlns:xlink="http://www.w3.org/1999/xlink">
<g id="graph0" class="graph" transform="scale(1 1) rotate(0) translate(4 108)">
<title>__gnu_pbds::detail::stored_data&lt; _Tv, _Th, false &gt;</title>
<polygon fill="white" stroke="transparent" points="-4,4 -4,-108 120,-108 120,4 -4,4"/>
<!-- Node1 -->
<g id="node1" class="node">
<title>Node1</title>
<g id="a_node1"><a xlink:title="Specialization for representation of stored data of just value type.">
<polygon fill="#bfbfbf" stroke="black" points="6,-0.5 6,-38.5 110,-38.5 110,-0.5 6,-0.5"/>
<text text-anchor="start" x="14" y="-27.3" font-family="Helvetica,sans-Serif" font-size="9.00">__gnu_pbds::detail</text>
<text text-anchor="start" x="14" y="-17.3" font-family="Helvetica,sans-Serif" font-size="9.00">::stored_data&lt; _Tv,</text>
<text text-anchor="middle" x="58" y="-7.3" font-family="Helvetica,sans-Serif" font-size="9.00"> _Th, false &gt;</text>
</a>
</g>
</g>
<!-- Node2 -->
<g id="node2" class="node">
<title>Node2</title>
<g id="a_node2"><a xlink:href="a13238.html" target="_top" xlink:title="Stored value.">
<polygon fill="white" stroke="black" points="0,-75.5 0,-103.5 116,-103.5 116,-75.5 0,-75.5"/>
<text text-anchor="start" x="8" y="-92.3" font-family="Helvetica,sans-Serif" font-size="9.00">__gnu_pbds::detail</text>
<text text-anchor="middle" x="58" y="-82.3" font-family="Helvetica,sans-Serif" font-size="9.00">::stored_value&lt; _Tv &gt;</text>
</a>
</g>
</g>
<!-- Node2&#45;&gt;Node1 -->
<g id="edge1" class="edge">
<title>Node2&#45;&gt;Node1</title>
<path fill="none" stroke="midnightblue" d="M58,-65.17C58,-56.52 58,-46.84 58,-38.71"/>
<polygon fill="midnightblue" stroke="midnightblue" points="54.5,-65.39 58,-75.39 61.5,-65.39 54.5,-65.39"/>
</g>
</g>
</svg>
