<?xml version="1.0" encoding="UTF-8" standalone="no"?>
<!DOCTYPE svg PUBLIC "-//W3C//DTD SVG 1.1//EN"
 "http://www.w3.org/Graphics/SVG/1.1/DTD/svg11.dtd">
<!-- Generated by graphviz version 2.50.0 (0)
 -->
<!-- Title: __gnu_pbds::detail::types_traits&lt; Key, Mapped, _Alloc, Store_Hash &gt; Pages: 1 -->
<svg width="480pt" height="144pt"
 viewBox="0.00 0.00 480.00 144.00" xmlns="http://www.w3.org/2000/svg" xmlns:xlink="http://www.w3.org/1999/xlink">
<g id="graph0" class="graph" transform="scale(1 1) rotate(0) translate(4 140)">
<title>__gnu_pbds::detail::types_traits&lt; Key, Mapped, _Alloc, Store_Hash &gt;</title>
<polygon fill="white" stroke="transparent" points="-4,4 -4,-140 476,-140 476,4 -4,4"/>
<!-- Node1 -->
<g id="node1" class="node">
<title>Node1</title>
<g id="a_node1"><a xlink:title="Traits for abstract types.">
<polygon fill="#bfbfbf" stroke="black" points="165,-43.5 165,-91.5 282,-91.5 282,-43.5 165,-43.5"/>
<text text-anchor="start" x="173" y="-80.3" font-family="Helvetica,sans-Serif" font-size="9.00">__gnu_pbds::detail</text>
<text text-anchor="start" x="173" y="-70.3" font-family="Helvetica,sans-Serif" font-size="9.00">::types_traits&lt; Key,</text>
<text text-anchor="start" x="173" y="-60.3" font-family="Helvetica,sans-Serif" font-size="9.00"> Mapped, _Alloc, Store</text>
<text text-anchor="middle" x="223.5" y="-50.3" font-family="Helvetica,sans-Serif" font-size="9.00">_Hash &gt;</text>
</a>
</g>
</g>
<!-- Node3 -->
<g id="node3" class="node">
<title>Node3</title>
<g id="a_node3"><a xlink:href="a13382.html" target="_top" xlink:title=" ">
<polygon fill="white" stroke="black" points="320.5,-77.5 320.5,-135.5 469.5,-135.5 469.5,-77.5 320.5,-77.5"/>
<text text-anchor="start" x="328.5" y="-124.3" font-family="Helvetica,sans-Serif" font-size="9.00">__gnu_pbds::detail</text>
<text text-anchor="start" x="328.5" y="-114.3" font-family="Helvetica,sans-Serif" font-size="9.00">::cc_ht_map&lt; Key, Mapped,</text>
<text text-anchor="start" x="328.5" y="-104.3" font-family="Helvetica,sans-Serif" font-size="9.00"> Hash_Fn, Eq_Fn, _Alloc,</text>
<text text-anchor="start" x="328.5" y="-94.3" font-family="Helvetica,sans-Serif" font-size="9.00"> Store_Hash, Comb_Hash_Fn,</text>
<text text-anchor="middle" x="395" y="-84.3" font-family="Helvetica,sans-Serif" font-size="9.00"> Resize_Policy &gt;</text>
</a>
</g>
</g>
<!-- Node1&#45;&gt;Node3 -->
<g id="edge2" class="edge">
<title>Node1&#45;&gt;Node3</title>
<path fill="none" stroke="midnightblue" d="M292.22,-83.08C301.42,-85.2 310.91,-87.38 320.22,-89.52"/>
<polygon fill="midnightblue" stroke="midnightblue" points="292.89,-79.64 282.36,-80.81 291.32,-86.47 292.89,-79.64"/>
</g>
<!-- Node4 -->
<g id="node4" class="node">
<title>Node4</title>
<g id="a_node4"><a xlink:href="a13406.html" target="_top" xlink:title=" ">
<polygon fill="white" stroke="black" points="318,-0.5 318,-58.5 472,-58.5 472,-0.5 318,-0.5"/>
<text text-anchor="start" x="326" y="-47.3" font-family="Helvetica,sans-Serif" font-size="9.00">__gnu_pbds::detail</text>
<text text-anchor="start" x="326" y="-37.3" font-family="Helvetica,sans-Serif" font-size="9.00">::gp_ht_map&lt; Key, Mapped,</text>
<text text-anchor="start" x="326" y="-27.3" font-family="Helvetica,sans-Serif" font-size="9.00"> Hash_Fn, Eq_Fn, _Alloc,</text>
<text text-anchor="start" x="326" y="-17.3" font-family="Helvetica,sans-Serif" font-size="9.00"> Store_Hash, Comb_Probe</text>
<text text-anchor="middle" x="395" y="-7.3" font-family="Helvetica,sans-Serif" font-size="9.00">_Fn, Probe_Fn, Resize_Policy &gt;</text>
</a>
</g>
</g>
<!-- Node1&#45;&gt;Node4 -->
<g id="edge3" class="edge">
<title>Node1&#45;&gt;Node4</title>
<path fill="none" stroke="midnightblue" d="M292.14,-52.34C300.58,-50.44 309.26,-48.5 317.82,-46.58"/>
<polygon fill="midnightblue" stroke="midnightblue" points="291.35,-48.93 282.36,-54.53 292.88,-55.76 291.35,-48.93"/>
</g>
<!-- Node2 -->
<g id="node2" class="node">
<title>Node2</title>
<g id="a_node2"><a xlink:href="a13262.html" target="_top" xlink:title="Base class for conditionally defining a static data member.">
<polygon fill="white" stroke="black" points="0,-43.5 0,-91.5 129,-91.5 129,-43.5 0,-43.5"/>
<text text-anchor="start" x="8" y="-80.3" font-family="Helvetica,sans-Serif" font-size="9.00">__gnu_pbds::detail</text>
<text text-anchor="start" x="8" y="-70.3" font-family="Helvetica,sans-Serif" font-size="9.00">::maybe_null_type&lt; Key,</text>
<text text-anchor="start" x="8" y="-60.3" font-family="Helvetica,sans-Serif" font-size="9.00"> Mapped, _Alloc, Store</text>
<text text-anchor="middle" x="64.5" y="-50.3" font-family="Helvetica,sans-Serif" font-size="9.00">_Hash &gt;</text>
</a>
</g>
</g>
<!-- Node2&#45;&gt;Node1 -->
<g id="edge1" class="edge">
<title>Node2&#45;&gt;Node1</title>
<path fill="none" stroke="midnightblue" d="M139.6,-67.5C148.05,-67.5 156.57,-67.5 164.76,-67.5"/>
<polygon fill="midnightblue" stroke="midnightblue" points="139.36,-64 129.36,-67.5 139.36,-71 139.36,-64"/>
</g>
</g>
</svg>
