<?xml version="1.0" encoding="UTF-8" standalone="no"?>
<!DOCTYPE svg PUBLIC "-//W3C//DTD SVG 1.1//EN"
 "http://www.w3.org/Graphics/SVG/1.1/DTD/svg11.dtd">
<!-- Generated by graphviz version 2.50.0 (0)
 -->
<!-- Title: __gnu_pbds::detail::stored_data&lt; _Tv, _Th, Store_Hash &gt; Pages: 1 -->
<svg width="256pt" height="112pt"
 viewBox="0.00 0.00 256.00 112.00" xmlns="http://www.w3.org/2000/svg" xmlns:xlink="http://www.w3.org/1999/xlink">
<g id="graph0" class="graph" transform="scale(1 1) rotate(0) translate(4 108)">
<title>__gnu_pbds::detail::stored_data&lt; _Tv, _Th, Store_Hash &gt;</title>
<polygon fill="white" stroke="transparent" points="-4,4 -4,-108 252,-108 252,4 -4,4"/>
<!-- Node1 -->
<g id="node1" class="node">
<title>Node1</title>
<g id="a_node1"><a xlink:title="Primary template for representation of stored data. Two types of data can be stored: value and hash.">
<polygon fill="#bfbfbf" stroke="black" points="72,-0.5 72,-38.5 176,-38.5 176,-0.5 72,-0.5"/>
<text text-anchor="start" x="80" y="-27.3" font-family="Helvetica,sans-Serif" font-size="9.00">__gnu_pbds::detail</text>
<text text-anchor="start" x="80" y="-17.3" font-family="Helvetica,sans-Serif" font-size="9.00">::stored_data&lt; _Tv,</text>
<text text-anchor="middle" x="124" y="-7.3" font-family="Helvetica,sans-Serif" font-size="9.00"> _Th, Store_Hash &gt;</text>
</a>
</g>
</g>
<!-- Node2 -->
<g id="node2" class="node">
<title>Node2</title>
<g id="a_node2"><a xlink:href="a13238.html" target="_top" xlink:title="Stored value.">
<polygon fill="white" stroke="black" points="0,-75.5 0,-103.5 116,-103.5 116,-75.5 0,-75.5"/>
<text text-anchor="start" x="8" y="-92.3" font-family="Helvetica,sans-Serif" font-size="9.00">__gnu_pbds::detail</text>
<text text-anchor="middle" x="58" y="-82.3" font-family="Helvetica,sans-Serif" font-size="9.00">::stored_value&lt; _Tv &gt;</text>
</a>
</g>
</g>
<!-- Node2&#45;&gt;Node1 -->
<g id="edge1" class="edge">
<title>Node2&#45;&gt;Node1</title>
<path fill="none" stroke="midnightblue" d="M77.88,-68.01C86.93,-58.69 97.56,-47.74 106.32,-38.71"/>
<polygon fill="midnightblue" stroke="midnightblue" points="75.18,-65.78 70.73,-75.39 80.2,-70.65 75.18,-65.78"/>
</g>
<!-- Node3 -->
<g id="node3" class="node">
<title>Node3</title>
<g id="a_node3"><a xlink:href="a13242.html" target="_top" xlink:title="Stored hash.">
<polygon fill="white" stroke="black" points="134,-75.5 134,-103.5 248,-103.5 248,-75.5 134,-75.5"/>
<text text-anchor="start" x="142" y="-92.3" font-family="Helvetica,sans-Serif" font-size="9.00">__gnu_pbds::detail</text>
<text text-anchor="middle" x="191" y="-82.3" font-family="Helvetica,sans-Serif" font-size="9.00">::stored_hash&lt; _Th &gt;</text>
</a>
</g>
</g>
<!-- Node3&#45;&gt;Node1 -->
<g id="edge2" class="edge">
<title>Node3&#45;&gt;Node1</title>
<path fill="none" stroke="midnightblue" d="M170.82,-68.01C161.63,-58.69 150.84,-47.74 141.94,-38.71"/>
<polygon fill="midnightblue" stroke="midnightblue" points="168.57,-70.72 178.08,-75.39 173.56,-65.81 168.57,-70.72"/>
</g>
</g>
</svg>
