<?xml version="1.0" encoding="UTF-8" standalone="no"?>
<!DOCTYPE svg PUBLIC "-//W3C//DTD SVG 1.1//EN"
 "http://www.w3.org/Graphics/SVG/1.1/DTD/svg11.dtd">
<!-- Generated by graphviz version 2.50.0 (0)
 -->
<!-- Title: __gnu_pbds::detail::binomial_heap&lt; Value_Type, Cmp_Fn, _Alloc &gt; Pages: 1 -->
<svg width="477pt" height="57pt"
 viewBox="0.00 0.00 477.00 57.00" xmlns="http://www.w3.org/2000/svg" xmlns:xlink="http://www.w3.org/1999/xlink">
<g id="graph0" class="graph" transform="scale(1 1) rotate(0) translate(4 53)">
<title>__gnu_pbds::detail::binomial_heap&lt; Value_Type, Cmp_Fn, _Alloc &gt;</title>
<polygon fill="white" stroke="transparent" points="-4,4 -4,-53 473,-53 473,4 -4,4"/>
<!-- Node1 -->
<g id="node1" class="node">
<title>Node1</title>
<g id="a_node1"><a xlink:title=" ">
<polygon fill="#bfbfbf" stroke="black" points="343,-5.5 343,-43.5 469,-43.5 469,-5.5 343,-5.5"/>
<text text-anchor="start" x="351" y="-32.3" font-family="Helvetica,sans-Serif" font-size="9.00">__gnu_pbds::detail</text>
<text text-anchor="start" x="351" y="-22.3" font-family="Helvetica,sans-Serif" font-size="9.00">::binomial_heap&lt; Value</text>
<text text-anchor="middle" x="406" y="-12.3" font-family="Helvetica,sans-Serif" font-size="9.00">_Type, Cmp_Fn, _Alloc &gt;</text>
</a>
</g>
</g>
<!-- Node2 -->
<g id="node2" class="node">
<title>Node2</title>
<g id="a_node2"><a xlink:href="a13330.html" target="_top" xlink:title="Base class for binomial heap.">
<polygon fill="white" stroke="black" points="185,-0.5 185,-48.5 307,-48.5 307,-0.5 185,-0.5"/>
<text text-anchor="start" x="193" y="-37.3" font-family="Helvetica,sans-Serif" font-size="9.00">__gnu_pbds::detail</text>
<text text-anchor="start" x="193" y="-27.3" font-family="Helvetica,sans-Serif" font-size="9.00">::binomial_heap_base</text>
<text text-anchor="start" x="193" y="-17.3" font-family="Helvetica,sans-Serif" font-size="9.00">&lt; Value_Type, Cmp_Fn,</text>
<text text-anchor="middle" x="246" y="-7.3" font-family="Helvetica,sans-Serif" font-size="9.00"> _Alloc &gt;</text>
</a>
</g>
</g>
<!-- Node2&#45;&gt;Node1 -->
<g id="edge1" class="edge">
<title>Node2&#45;&gt;Node1</title>
<path fill="none" stroke="midnightblue" d="M317.44,-24.5C325.92,-24.5 334.53,-24.5 342.89,-24.5"/>
<polygon fill="midnightblue" stroke="midnightblue" points="317.18,-21 307.18,-24.5 317.18,-28 317.18,-21"/>
</g>
<!-- Node3 -->
<g id="node3" class="node">
<title>Node3</title>
<g id="a_node3"><a xlink:href="a13482.html" target="_top" xlink:title=" ">
<polygon fill="white" stroke="black" points="0,-0.5 0,-48.5 149,-48.5 149,-0.5 0,-0.5"/>
<text text-anchor="start" x="8" y="-37.3" font-family="Helvetica,sans-Serif" font-size="9.00">__gnu_pbds::detail</text>
<text text-anchor="start" x="8" y="-27.3" font-family="Helvetica,sans-Serif" font-size="9.00">::left_child_next_sibling</text>
<text text-anchor="start" x="8" y="-17.3" font-family="Helvetica,sans-Serif" font-size="9.00">_heap&lt; Value_Type, Cmp_Fn,</text>
<text text-anchor="middle" x="74.5" y="-7.3" font-family="Helvetica,sans-Serif" font-size="9.00"> _Alloc::size_type, _Alloc &gt;</text>
</a>
</g>
</g>
<!-- Node3&#45;&gt;Node2 -->
<g id="edge2" class="edge">
<title>Node3&#45;&gt;Node2</title>
<path fill="none" stroke="midnightblue" d="M159.41,-24.5C168,-24.5 176.6,-24.5 184.87,-24.5"/>
<polygon fill="midnightblue" stroke="midnightblue" points="159.35,-21 149.35,-24.5 159.35,-28 159.35,-21"/>
</g>
</g>
</svg>
