<?xml version="1.0" encoding="UTF-8" standalone="no"?>
<!DOCTYPE svg PUBLIC "-//W3C//DTD SVG 1.1//EN"
 "http://www.w3.org/Graphics/SVG/1.1/DTD/svg11.dtd">
<!-- Generated by graphviz version 2.50.0 (0)
 -->
<!-- Title: __gnu_pbds::detail::binomial_heap_base&lt; Value_Type, Cmp_Fn, _Alloc &gt; Pages: 1 -->
<svg width="477pt" height="114pt"
 viewBox="0.00 0.00 477.00 114.00" xmlns="http://www.w3.org/2000/svg" xmlns:xlink="http://www.w3.org/1999/xlink">
<g id="graph0" class="graph" transform="scale(1 1) rotate(0) translate(4 110)">
<title>__gnu_pbds::detail::binomial_heap_base&lt; Value_Type, Cmp_Fn, _Alloc &gt;</title>
<polygon fill="white" stroke="transparent" points="-4,4 -4,-110 473,-110 473,4 -4,4"/>
<!-- Node1 -->
<g id="node1" class="node">
<title>Node1</title>
<g id="a_node1"><a xlink:title="Base class for binomial heap.">
<polygon fill="#bfbfbf" stroke="black" points="185,-31.5 185,-79.5 307,-79.5 307,-31.5 185,-31.5"/>
<text text-anchor="start" x="193" y="-68.3" font-family="Helvetica,sans-Serif" font-size="9.00">__gnu_pbds::detail</text>
<text text-anchor="start" x="193" y="-58.3" font-family="Helvetica,sans-Serif" font-size="9.00">::binomial_heap_base</text>
<text text-anchor="start" x="193" y="-48.3" font-family="Helvetica,sans-Serif" font-size="9.00">&lt; Value_Type, Cmp_Fn,</text>
<text text-anchor="middle" x="246" y="-38.3" font-family="Helvetica,sans-Serif" font-size="9.00"> _Alloc &gt;</text>
</a>
</g>
</g>
<!-- Node3 -->
<g id="node3" class="node">
<title>Node3</title>
<g id="a_node3"><a xlink:href="a13326.html" target="_top" xlink:title=" ">
<polygon fill="white" stroke="black" points="343,-67.5 343,-105.5 469,-105.5 469,-67.5 343,-67.5"/>
<text text-anchor="start" x="351" y="-94.3" font-family="Helvetica,sans-Serif" font-size="9.00">__gnu_pbds::detail</text>
<text text-anchor="start" x="351" y="-84.3" font-family="Helvetica,sans-Serif" font-size="9.00">::binomial_heap&lt; Value</text>
<text text-anchor="middle" x="406" y="-74.3" font-family="Helvetica,sans-Serif" font-size="9.00">_Type, Cmp_Fn, _Alloc &gt;</text>
</a>
</g>
</g>
<!-- Node1&#45;&gt;Node3 -->
<g id="edge2" class="edge">
<title>Node1&#45;&gt;Node3</title>
<path fill="none" stroke="midnightblue" d="M317.16,-69.27C325.73,-70.95 334.44,-72.66 342.89,-74.31"/>
<polygon fill="midnightblue" stroke="midnightblue" points="317.67,-65.8 307.18,-67.31 316.32,-72.67 317.67,-65.8"/>
</g>
<!-- Node4 -->
<g id="node4" class="node">
<title>Node4</title>
<g id="a_node4"><a xlink:href="a13654.html" target="_top" xlink:title=" ">
<polygon fill="white" stroke="black" points="348.5,-0.5 348.5,-48.5 463.5,-48.5 463.5,-0.5 348.5,-0.5"/>
<text text-anchor="start" x="356.5" y="-37.3" font-family="Helvetica,sans-Serif" font-size="9.00">__gnu_pbds::detail</text>
<text text-anchor="start" x="356.5" y="-27.3" font-family="Helvetica,sans-Serif" font-size="9.00">::rc_binomial_heap&lt;</text>
<text text-anchor="start" x="356.5" y="-17.3" font-family="Helvetica,sans-Serif" font-size="9.00"> Value_Type, Cmp_Fn,</text>
<text text-anchor="middle" x="406" y="-7.3" font-family="Helvetica,sans-Serif" font-size="9.00"> _Alloc &gt;</text>
</a>
</g>
</g>
<!-- Node1&#45;&gt;Node4 -->
<g id="edge3" class="edge">
<title>Node1&#45;&gt;Node4</title>
<path fill="none" stroke="midnightblue" d="M317.12,-41.74C327.57,-39.69 338.24,-37.6 348.37,-35.61"/>
<polygon fill="midnightblue" stroke="midnightblue" points="316.32,-38.33 307.18,-43.69 317.67,-45.2 316.32,-38.33"/>
</g>
<!-- Node2 -->
<g id="node2" class="node">
<title>Node2</title>
<g id="a_node2"><a xlink:href="a13482.html" target="_top" xlink:title=" ">
<polygon fill="white" stroke="black" points="0,-31.5 0,-79.5 149,-79.5 149,-31.5 0,-31.5"/>
<text text-anchor="start" x="8" y="-68.3" font-family="Helvetica,sans-Serif" font-size="9.00">__gnu_pbds::detail</text>
<text text-anchor="start" x="8" y="-58.3" font-family="Helvetica,sans-Serif" font-size="9.00">::left_child_next_sibling</text>
<text text-anchor="start" x="8" y="-48.3" font-family="Helvetica,sans-Serif" font-size="9.00">_heap&lt; Value_Type, Cmp_Fn,</text>
<text text-anchor="middle" x="74.5" y="-38.3" font-family="Helvetica,sans-Serif" font-size="9.00"> _Alloc::size_type, _Alloc &gt;</text>
</a>
</g>
</g>
<!-- Node2&#45;&gt;Node1 -->
<g id="edge1" class="edge">
<title>Node2&#45;&gt;Node1</title>
<path fill="none" stroke="midnightblue" d="M159.41,-55.5C168,-55.5 176.6,-55.5 184.87,-55.5"/>
<polygon fill="midnightblue" stroke="midnightblue" points="159.35,-52 149.35,-55.5 159.35,-59 159.35,-52"/>
</g>
</g>
</svg>
