<?xml version="1.0" encoding="UTF-8" standalone="no"?>
<!DOCTYPE svg PUBLIC "-//W3C//DTD SVG 1.1//EN"
 "http://www.w3.org/Graphics/SVG/1.1/DTD/svg11.dtd">
<!-- Generated by graphviz version 2.50.0 (0)
 -->
<!-- Title: __gnu_pbds::detail::left_child_next_sibling_heap_node_point_const_iterator_&lt; Node, _Alloc &gt; Pages: 1 -->
<svg width="173pt" height="142pt"
 viewBox="0.00 0.00 173.00 142.00" xmlns="http://www.w3.org/2000/svg" xmlns:xlink="http://www.w3.org/1999/xlink">
<g id="graph0" class="graph" transform="scale(1 1) rotate(0) translate(4 138)">
<title>__gnu_pbds::detail::left_child_next_sibling_heap_node_point_const_iterator_&lt; Node, _Alloc &gt;</title>
<polygon fill="white" stroke="transparent" points="-4,4 -4,-138 169,-138 169,4 -4,4"/>
<!-- Node1 -->
<g id="node1" class="node">
<title>Node1</title>
<g id="a_node1"><a xlink:title="Const point&#45;type iterator.">
<polygon fill="#bfbfbf" stroke="black" points="0,-85.5 0,-133.5 165,-133.5 165,-85.5 0,-85.5"/>
<text text-anchor="start" x="8" y="-122.3" font-family="Helvetica,sans-Serif" font-size="9.00">__gnu_pbds::detail</text>
<text text-anchor="start" x="8" y="-112.3" font-family="Helvetica,sans-Serif" font-size="9.00">::left_child_next_sibling</text>
<text text-anchor="start" x="8" y="-102.3" font-family="Helvetica,sans-Serif" font-size="9.00">_heap_node_point_const_iterator</text>
<text text-anchor="middle" x="82.5" y="-92.3" font-family="Helvetica,sans-Serif" font-size="9.00">_&lt; Node, _Alloc &gt;</text>
</a>
</g>
</g>
<!-- Node2 -->
<g id="node2" class="node">
<title>Node2</title>
<g id="a_node2"><a xlink:href="a13478.html" target="_top" xlink:title="Const point&#45;type iterator.">
<polygon fill="white" stroke="black" points="6.5,-0.5 6.5,-48.5 158.5,-48.5 158.5,-0.5 6.5,-0.5"/>
<text text-anchor="start" x="14.5" y="-37.3" font-family="Helvetica,sans-Serif" font-size="9.00">__gnu_pbds::detail</text>
<text text-anchor="start" x="14.5" y="-27.3" font-family="Helvetica,sans-Serif" font-size="9.00">::left_child_next_sibling</text>
<text text-anchor="start" x="14.5" y="-17.3" font-family="Helvetica,sans-Serif" font-size="9.00">_heap_const_iterator_&lt; Node,</text>
<text text-anchor="middle" x="82.5" y="-7.3" font-family="Helvetica,sans-Serif" font-size="9.00"> _Alloc &gt;</text>
</a>
</g>
</g>
<!-- Node1&#45;&gt;Node2 -->
<g id="edge1" class="edge">
<title>Node1&#45;&gt;Node2</title>
<path fill="none" stroke="midnightblue" d="M82.5,-75.3C82.5,-66.42 82.5,-57.01 82.5,-48.78"/>
<polygon fill="midnightblue" stroke="midnightblue" points="79,-75.38 82.5,-85.38 86,-75.38 79,-75.38"/>
</g>
</g>
</svg>
