<?xml version="1.0" encoding="UTF-8" standalone="no"?>
<!DOCTYPE svg PUBLIC "-//W3C//DTD SVG 1.1//EN"
 "http://www.w3.org/Graphics/SVG/1.1/DTD/svg11.dtd">
<!-- Generated by graphviz version 2.50.0 (0)
 -->
<!-- Title: __gnu_pbds::detail::ov_tree_map&lt; Key, Mapped, Cmp_Fn, Node_And_It_Traits, _Alloc &gt; Pages: 1 -->
<svg width="137pt" height="217pt"
 viewBox="0.00 0.00 137.00 217.00" xmlns="http://www.w3.org/2000/svg" xmlns:xlink="http://www.w3.org/1999/xlink">
<g id="graph0" class="graph" transform="scale(1 1) rotate(0) translate(4 213)">
<title>__gnu_pbds::detail::ov_tree_map&lt; Key, Mapped, Cmp_Fn, Node_And_It_Traits, _Alloc &gt;</title>
<polygon fill="white" stroke="transparent" points="-4,4 -4,-213 133,-213 133,4 -4,4"/>
<!-- Node1 -->
<g id="node1" class="node">
<title>Node1</title>
<g id="a_node1"><a xlink:title="Ordered&#45;vector tree associative&#45;container.">
<polygon fill="#bfbfbf" stroke="black" points="0.5,-0.5 0.5,-48.5 128.5,-48.5 128.5,-0.5 0.5,-0.5"/>
<text text-anchor="start" x="8.5" y="-37.3" font-family="Helvetica,sans-Serif" font-size="9.00">__gnu_pbds::detail</text>
<text text-anchor="start" x="8.5" y="-27.3" font-family="Helvetica,sans-Serif" font-size="9.00">::ov_tree_map&lt; Key,</text>
<text text-anchor="start" x="8.5" y="-17.3" font-family="Helvetica,sans-Serif" font-size="9.00"> Mapped, Cmp_Fn, Node</text>
<text text-anchor="middle" x="64.5" y="-7.3" font-family="Helvetica,sans-Serif" font-size="9.00">_And_It_Traits, _Alloc &gt;</text>
</a>
</g>
</g>
<!-- Node2 -->
<g id="node2" class="node">
<title>Node2</title>
<g id="a_node2"><a xlink:href="a13274.html" target="_top" xlink:title=" ">
<polygon fill="white" stroke="black" points="2.5,-85.5 2.5,-123.5 126.5,-123.5 126.5,-85.5 2.5,-85.5"/>
<text text-anchor="start" x="10.5" y="-112.3" font-family="Helvetica,sans-Serif" font-size="9.00">__gnu_pbds::detail</text>
<text text-anchor="start" x="10.5" y="-102.3" font-family="Helvetica,sans-Serif" font-size="9.00">::types_traits&lt; Key,</text>
<text text-anchor="middle" x="64.5" y="-92.3" font-family="Helvetica,sans-Serif" font-size="9.00"> Mapped, _Alloc, false &gt;</text>
</a>
</g>
</g>
<!-- Node2&#45;&gt;Node1 -->
<g id="edge1" class="edge">
<title>Node2&#45;&gt;Node1</title>
<path fill="none" stroke="midnightblue" d="M64.5,-75.23C64.5,-66.46 64.5,-56.9 64.5,-48.53"/>
<polygon fill="midnightblue" stroke="midnightblue" points="61,-75.41 64.5,-85.41 68,-75.41 61,-75.41"/>
</g>
<!-- Node3 -->
<g id="node3" class="node">
<title>Node3</title>
<g id="a_node3"><a xlink:href="a13262.html" target="_top" xlink:title="Base class for conditionally defining a static data member.">
<polygon fill="white" stroke="black" points="0,-160.5 0,-208.5 129,-208.5 129,-160.5 0,-160.5"/>
<text text-anchor="start" x="8" y="-197.3" font-family="Helvetica,sans-Serif" font-size="9.00">__gnu_pbds::detail</text>
<text text-anchor="start" x="8" y="-187.3" font-family="Helvetica,sans-Serif" font-size="9.00">::maybe_null_type&lt; Key,</text>
<text text-anchor="start" x="8" y="-177.3" font-family="Helvetica,sans-Serif" font-size="9.00"> Mapped, _Alloc, Store</text>
<text text-anchor="middle" x="64.5" y="-167.3" font-family="Helvetica,sans-Serif" font-size="9.00">_Hash &gt;</text>
</a>
</g>
</g>
<!-- Node3&#45;&gt;Node2 -->
<g id="edge2" class="edge">
<title>Node3&#45;&gt;Node2</title>
<path fill="none" stroke="midnightblue" d="M64.5,-149.84C64.5,-140.85 64.5,-131.48 64.5,-123.68"/>
<polygon fill="midnightblue" stroke="midnightblue" points="61,-150.1 64.5,-160.1 68,-150.1 61,-150.1"/>
</g>
</g>
</svg>
