<?xml version="1.0" encoding="UTF-8" standalone="no"?>
<!DOCTYPE svg PUBLIC "-//W3C//DTD SVG 1.1//EN"
 "http://www.w3.org/Graphics/SVG/1.1/DTD/svg11.dtd">
<!-- Generated by graphviz version 2.50.0 (0)
 -->
<!-- Title: __gnu_pbds::detail::pat_trie_base::_Node_citer&lt; Node, Leaf, Head, Inode, _CIterator, Iterator, _Alloc &gt; Pages: 1 -->
<svg width="320pt" height="67pt"
 viewBox="0.00 0.00 320.00 67.00" xmlns="http://www.w3.org/2000/svg" xmlns:xlink="http://www.w3.org/1999/xlink">
<g id="graph0" class="graph" transform="scale(1 1) rotate(0) translate(4 63)">
<title>__gnu_pbds::detail::pat_trie_base::_Node_citer&lt; Node, Leaf, Head, Inode, _CIterator, Iterator, _Alloc &gt;</title>
<polygon fill="white" stroke="transparent" points="-4,4 -4,-63 316,-63 316,4 -4,4"/>
<!-- Node1 -->
<g id="node1" class="node">
<title>Node1</title>
<g id="a_node1"><a xlink:title="Node const iterator.">
<polygon fill="#bfbfbf" stroke="black" points="0,-0.5 0,-58.5 138,-58.5 138,-0.5 0,-0.5"/>
<text text-anchor="start" x="8" y="-47.3" font-family="Helvetica,sans-Serif" font-size="9.00">__gnu_pbds::detail</text>
<text text-anchor="start" x="8" y="-37.3" font-family="Helvetica,sans-Serif" font-size="9.00">::pat_trie_base::_Node</text>
<text text-anchor="start" x="8" y="-27.3" font-family="Helvetica,sans-Serif" font-size="9.00">_citer&lt; Node, Leaf, Head,</text>
<text text-anchor="start" x="8" y="-17.3" font-family="Helvetica,sans-Serif" font-size="9.00"> Inode, _CIterator, Iterator,</text>
<text text-anchor="middle" x="69" y="-7.3" font-family="Helvetica,sans-Serif" font-size="9.00"> _Alloc &gt;</text>
</a>
</g>
</g>
<!-- Node2 -->
<g id="node2" class="node">
<title>Node2</title>
<g id="a_node2"><a xlink:href="a13614.html" target="_top" xlink:title="Node iterator.">
<polygon fill="white" stroke="black" points="174,-0.5 174,-58.5 312,-58.5 312,-0.5 174,-0.5"/>
<text text-anchor="start" x="182" y="-47.3" font-family="Helvetica,sans-Serif" font-size="9.00">__gnu_pbds::detail</text>
<text text-anchor="start" x="182" y="-37.3" font-family="Helvetica,sans-Serif" font-size="9.00">::pat_trie_base::_Node</text>
<text text-anchor="start" x="182" y="-27.3" font-family="Helvetica,sans-Serif" font-size="9.00">_iter&lt; Node, Leaf, Head,</text>
<text text-anchor="start" x="182" y="-17.3" font-family="Helvetica,sans-Serif" font-size="9.00"> Inode, _CIterator, Iterator,</text>
<text text-anchor="middle" x="243" y="-7.3" font-family="Helvetica,sans-Serif" font-size="9.00"> _Alloc &gt;</text>
</a>
</g>
</g>
<!-- Node1&#45;&gt;Node2 -->
<g id="edge1" class="edge">
<title>Node1&#45;&gt;Node2</title>
<path fill="none" stroke="midnightblue" d="M148.64,-29.5C157.03,-29.5 165.51,-29.5 173.76,-29.5"/>
<polygon fill="midnightblue" stroke="midnightblue" points="148.47,-26 138.47,-29.5 148.47,-33 148.47,-26"/>
</g>
</g>
</svg>
