<?xml version="1.0" encoding="UTF-8" standalone="no"?>
<!DOCTYPE svg PUBLIC "-//W3C//DTD SVG 1.1//EN"
 "http://www.w3.org/Graphics/SVG/1.1/DTD/svg11.dtd">
<!-- Generated by graphviz version 2.50.0 (0)
 -->
<!-- Title: __gnu_pbds::detail::trie_policy_base&lt; Node_CItr, Node_Itr, _ATraits, _Alloc &gt; Pages: 1 -->
<svg width="463pt" height="124pt"
 viewBox="0.00 0.00 463.00 124.00" xmlns="http://www.w3.org/2000/svg" xmlns:xlink="http://www.w3.org/1999/xlink">
<g id="graph0" class="graph" transform="scale(1 1) rotate(0) translate(4 120)">
<title>__gnu_pbds::detail::trie_policy_base&lt; Node_CItr, Node_Itr, _ATraits, _Alloc &gt;</title>
<polygon fill="white" stroke="transparent" points="-4,4 -4,-120 459,-120 459,4 -4,4"/>
<!-- Node1 -->
<g id="node1" class="node">
<title>Node1</title>
<g id="a_node1"><a xlink:title="Base class for trie policies.">
<polygon fill="#bfbfbf" stroke="black" points="160,-33.5 160,-81.5 271,-81.5 271,-33.5 160,-33.5"/>
<text text-anchor="start" x="168" y="-70.3" font-family="Helvetica,sans-Serif" font-size="9.00">__gnu_pbds::detail</text>
<text text-anchor="start" x="168" y="-60.3" font-family="Helvetica,sans-Serif" font-size="9.00">::trie_policy_base&lt;</text>
<text text-anchor="start" x="168" y="-50.3" font-family="Helvetica,sans-Serif" font-size="9.00"> Node_CItr, Node_Itr,</text>
<text text-anchor="middle" x="215.5" y="-40.3" font-family="Helvetica,sans-Serif" font-size="9.00"> _ATraits, _Alloc &gt;</text>
</a>
</g>
</g>
<!-- Node3 -->
<g id="node3" class="node">
<title>Node3</title>
<g id="a_node3"><a xlink:href="a13086.html" target="_top" xlink:title="Functor updating ranks of entrees.">
<polygon fill="white" stroke="black" points="318.5,-67.5 318.5,-115.5 443.5,-115.5 443.5,-67.5 318.5,-67.5"/>
<text text-anchor="start" x="326.5" y="-104.3" font-family="Helvetica,sans-Serif" font-size="9.00">__gnu_pbds::trie_order</text>
<text text-anchor="start" x="326.5" y="-94.3" font-family="Helvetica,sans-Serif" font-size="9.00">_statistics_node_update</text>
<text text-anchor="start" x="326.5" y="-84.3" font-family="Helvetica,sans-Serif" font-size="9.00">&lt; Node_CItr, Node_Itr, </text>
<text text-anchor="middle" x="381" y="-74.3" font-family="Helvetica,sans-Serif" font-size="9.00">_ATraits, _Alloc &gt;</text>
</a>
</g>
</g>
<!-- Node1&#45;&gt;Node3 -->
<g id="edge2" class="edge">
<title>Node1&#45;&gt;Node3</title>
<path fill="none" stroke="#8b1a1a" d="M281.49,-71.02C293.69,-73.55 306.4,-76.2 318.49,-78.71"/>
<polygon fill="#8b1a1a" stroke="#8b1a1a" points="281.9,-67.53 271.4,-68.92 280.48,-74.38 281.9,-67.53"/>
</g>
<!-- Node4 -->
<g id="node4" class="node">
<title>Node4</title>
<g id="a_node4"><a xlink:href="a13082.html" target="_top" xlink:title="A node updator that allows tries to be searched for the range of values that match a certain prefix.">
<polygon fill="white" stroke="black" points="307,-0.5 307,-48.5 455,-48.5 455,-0.5 307,-0.5"/>
<text text-anchor="start" x="315" y="-37.3" font-family="Helvetica,sans-Serif" font-size="9.00">__gnu_pbds::trie_prefix</text>
<text text-anchor="start" x="315" y="-27.3" font-family="Helvetica,sans-Serif" font-size="9.00">_search_node_update&lt; Node</text>
<text text-anchor="start" x="315" y="-17.3" font-family="Helvetica,sans-Serif" font-size="9.00">_CItr, Node_Itr, _ATraits,</text>
<text text-anchor="middle" x="381" y="-7.3" font-family="Helvetica,sans-Serif" font-size="9.00"> _Alloc &gt;</text>
</a>
</g>
</g>
<!-- Node1&#45;&gt;Node4 -->
<g id="edge3" class="edge">
<title>Node1&#45;&gt;Node4</title>
<path fill="none" stroke="#8b1a1a" d="M281.47,-44.39C289.84,-42.7 298.46,-40.96 306.95,-39.24"/>
<polygon fill="#8b1a1a" stroke="#8b1a1a" points="280.51,-41.01 271.4,-46.42 281.89,-47.87 280.51,-41.01"/>
</g>
<!-- Node2 -->
<g id="node2" class="node">
<title>Node2</title>
<g id="a_node2"><a xlink:href="a13362.html" target="_top" xlink:title="Primary template, base class for branch structure policies.">
<polygon fill="white" stroke="black" points="0,-38.5 0,-76.5 124,-76.5 124,-38.5 0,-38.5"/>
<text text-anchor="start" x="8" y="-65.3" font-family="Helvetica,sans-Serif" font-size="9.00">__gnu_pbds::detail</text>
<text text-anchor="start" x="8" y="-55.3" font-family="Helvetica,sans-Serif" font-size="9.00">::branch_policy&lt; Node</text>
<text text-anchor="middle" x="62" y="-45.3" font-family="Helvetica,sans-Serif" font-size="9.00">_CItr, Node_Itr, _Alloc &gt;</text>
</a>
</g>
</g>
<!-- Node2&#45;&gt;Node1 -->
<g id="edge1" class="edge">
<title>Node2&#45;&gt;Node1</title>
<path fill="none" stroke="midnightblue" d="M134.25,-57.5C142.88,-57.5 151.59,-57.5 159.93,-57.5"/>
<polygon fill="midnightblue" stroke="midnightblue" points="134.18,-54 124.18,-57.5 134.18,-61 134.18,-54"/>
</g>
</g>
</svg>
