<?xml version="1.0" encoding="UTF-8" standalone="no"?>
<!DOCTYPE svg PUBLIC "-//W3C//DTD SVG 1.1//EN"
 "http://www.w3.org/Graphics/SVG/1.1/DTD/svg11.dtd">
<!-- Generated by graphviz version 2.50.0 (0)
 -->
<!-- Title: Graphical Class Hierarchy Pages: 1 -->
<svg width="273pt" height="47pt"
 viewBox="0.00 0.00 273.00 47.00" xmlns="http://www.w3.org/2000/svg" xmlns:xlink="http://www.w3.org/1999/xlink">
<g id="graph0" class="graph" transform="scale(1 1) rotate(0) translate(4 43)">
<title>Graphical Class Hierarchy</title>
<polygon fill="white" stroke="transparent" points="-4,4 -4,-43 269,-43 269,4 -4,4"/>
<!-- Node0 -->
<g id="node1" class="node">
<title>Node0</title>
<g id="a_node1"><a xlink:href="a08850.html" target="_top" xlink:title=" ">
<polygon fill="white" stroke="black" points="0,-0.5 0,-38.5 113,-38.5 113,-0.5 0,-0.5"/>
<text text-anchor="start" x="8" y="-27.3" font-family="Helvetica,sans-Serif" font-size="9.00">std::_Vector_base&lt;</text>
<text text-anchor="start" x="8" y="-17.3" font-family="Helvetica,sans-Serif" font-size="9.00"> _Cmpt, std::allocator</text>
<text text-anchor="middle" x="56.5" y="-7.3" font-family="Helvetica,sans-Serif" font-size="9.00">&lt; _Cmpt &gt; &gt;</text>
</a>
</g>
</g>
<!-- Node1 -->
<g id="node2" class="node">
<title>Node1</title>
<g id="a_node2"><a xlink:href="a08862.html" target="_top" xlink:title=" ">
<polygon fill="white" stroke="black" points="149,-10.5 149,-28.5 265,-28.5 265,-10.5 149,-10.5"/>
<text text-anchor="middle" x="207" y="-17.3" font-family="Helvetica,sans-Serif" font-size="9.00">std::vector&lt; _Cmpt &gt;</text>
</a>
</g>
</g>
<!-- Node0&#45;&gt;Node1 -->
<g id="edge1" class="edge">
<title>Node0&#45;&gt;Node1</title>
<path fill="none" stroke="darkgreen" d="M123.49,-19.5C131.99,-19.5 140.64,-19.5 148.98,-19.5"/>
<polygon fill="darkgreen" stroke="darkgreen" points="123.22,-16 113.22,-19.5 123.22,-23 123.22,-16"/>
</g>
</g>
</svg>
