<?xml version="1.0" encoding="UTF-8" standalone="no"?>
<!DOCTYPE svg PUBLIC "-//W3C//DTD SVG 1.1//EN"
 "http://www.w3.org/Graphics/SVG/1.1/DTD/svg11.dtd">
<!-- Generated by graphviz version 2.50.0 (0)
 -->
<!-- Title: Graphical Class Hierarchy Pages: 1 -->
<svg width="276pt" height="47pt"
 viewBox="0.00 0.00 276.00 47.00" xmlns="http://www.w3.org/2000/svg" xmlns:xlink="http://www.w3.org/1999/xlink">
<g id="graph0" class="graph" transform="scale(1 1) rotate(0) translate(4 43)">
<title>Graphical Class Hierarchy</title>
<polygon fill="white" stroke="transparent" points="-4,4 -4,-43 272,-43 272,4 -4,4"/>
<!-- Node0 -->
<g id="node1" class="node">
<title>Node0</title>
<g id="a_node1"><a xlink:href="a08206.html" target="_top" xlink:title=" ">
<polygon fill="white" stroke="black" points="0,-0.5 0,-38.5 125,-38.5 125,-0.5 0,-0.5"/>
<text text-anchor="start" x="8" y="-27.3" font-family="Helvetica,sans-Serif" font-size="9.00">std::unary_function</text>
<text text-anchor="start" x="8" y="-17.3" font-family="Helvetica,sans-Serif" font-size="9.00">&lt; _Predicate::argument</text>
<text text-anchor="middle" x="62.5" y="-7.3" font-family="Helvetica,sans-Serif" font-size="9.00">_type, bool &gt;</text>
</a>
</g>
</g>
<!-- Node1 -->
<g id="node2" class="node">
<title>Node1</title>
<g id="a_node2"><a xlink:href="a08446.html" target="_top" xlink:title="One of the negation functors.">
<polygon fill="white" stroke="black" points="161,-5.5 161,-33.5 268,-33.5 268,-5.5 161,-5.5"/>
<text text-anchor="start" x="169" y="-22.3" font-family="Helvetica,sans-Serif" font-size="9.00">std::unary_negate&lt;</text>
<text text-anchor="middle" x="214.5" y="-12.3" font-family="Helvetica,sans-Serif" font-size="9.00"> _Predicate &gt;</text>
</a>
</g>
</g>
<!-- Node0&#45;&gt;Node1 -->
<g id="edge1" class="edge">
<title>Node0&#45;&gt;Node1</title>
<path fill="none" stroke="midnightblue" d="M135.4,-19.5C143.98,-19.5 152.61,-19.5 160.85,-19.5"/>
<polygon fill="midnightblue" stroke="midnightblue" points="135.38,-16 125.38,-19.5 135.38,-23 135.38,-16"/>
</g>
</g>
</svg>
