<?xml version="1.0" encoding="UTF-8" standalone="no"?>
<!DOCTYPE svg PUBLIC "-//W3C//DTD SVG 1.1//EN"
 "http://www.w3.org/Graphics/SVG/1.1/DTD/svg11.dtd">
<!-- Generated by graphviz version 2.50.0 (0)
 -->
<!-- Title: Graphical Class Hierarchy Pages: 1 -->
<svg width="322pt" height="289pt"
 viewBox="0.00 0.00 322.00 289.00" xmlns="http://www.w3.org/2000/svg" xmlns:xlink="http://www.w3.org/1999/xlink">
<g id="graph0" class="graph" transform="scale(1 1) rotate(0) translate(4 285)">
<title>Graphical Class Hierarchy</title>
<polygon fill="white" stroke="transparent" points="-4,4 -4,-285 318,-285 318,4 -4,4"/>
<!-- Node0 -->
<g id="node1" class="node">
<title>Node0</title>
<g id="a_node1"><a xlink:href="a03622.html" target="_top" xlink:title=" ">
<polygon fill="white" stroke="black" points="0,-111.5 0,-139.5 108,-139.5 108,-111.5 0,-111.5"/>
<text text-anchor="start" x="8" y="-128.3" font-family="Helvetica,sans-Serif" font-size="9.00">std::_Tuple_impl&lt; 0,</text>
<text text-anchor="middle" x="54" y="-118.3" font-family="Helvetica,sans-Serif" font-size="9.00"> _Elements... &gt;</text>
</a>
</g>
</g>
<!-- Node1 -->
<g id="node2" class="node">
<title>Node1</title>
<g id="a_node2"><a xlink:href="a03598.html" target="_top" xlink:title=" ">
<polygon fill="white" stroke="black" points="144,-252.5 144,-280.5 314,-280.5 314,-252.5 144,-252.5"/>
<text text-anchor="start" x="152" y="-269.3" font-family="Helvetica,sans-Serif" font-size="9.00">std::tuple&lt; _ForwardIterator1,</text>
<text text-anchor="middle" x="229" y="-259.3" font-family="Helvetica,sans-Serif" font-size="9.00"> _ForwardIterator1, equal_to&lt;&gt; &gt;</text>
</a>
</g>
</g>
<!-- Node0&#45;&gt;Node1 -->
<g id="edge1" class="edge">
<title>Node0&#45;&gt;Node1</title>
<path fill="none" stroke="midnightblue" d="M66.36,-148.58C80.75,-175.42 108.06,-219.13 144,-243.5 149.13,-246.98 154.77,-249.93 160.63,-252.44"/>
<polygon fill="midnightblue" stroke="midnightblue" points="69.37,-146.79 61.65,-139.53 63.16,-150.02 69.37,-146.79"/>
</g>
<!-- Node2 -->
<g id="node3" class="node">
<title>Node2</title>
<g id="a_node3"><a xlink:href="a03598.html" target="_top" xlink:title=" ">
<polygon fill="white" stroke="black" points="168,-205.5 168,-233.5 290,-233.5 290,-205.5 168,-205.5"/>
<text text-anchor="start" x="176" y="-222.3" font-family="Helvetica,sans-Serif" font-size="9.00">std::tuple&lt; std::array</text>
<text text-anchor="middle" x="229" y="-212.3" font-family="Helvetica,sans-Serif" font-size="9.00">&lt; _Tp, _Len &gt;, _Pred &gt;</text>
</a>
</g>
</g>
<!-- Node0&#45;&gt;Node2 -->
<g id="edge2" class="edge">
<title>Node0&#45;&gt;Node2</title>
<path fill="none" stroke="midnightblue" d="M76.5,-146.85C93.51,-162.64 118.56,-183.57 144,-196.5 151.41,-200.27 159.52,-203.48 167.68,-206.2"/>
<polygon fill="midnightblue" stroke="midnightblue" points="78.49,-143.91 68.83,-139.57 73.67,-148.99 78.49,-143.91"/>
</g>
<!-- Node3 -->
<g id="node4" class="node">
<title>Node3</title>
<g id="a_node4"><a xlink:href="a03598.html" target="_top" xlink:title=" ">
<polygon fill="white" stroke="black" points="177,-158.5 177,-186.5 281,-186.5 281,-158.5 177,-158.5"/>
<text text-anchor="start" x="185" y="-175.3" font-family="Helvetica,sans-Serif" font-size="9.00">std::tuple&lt; _Bound</text>
<text text-anchor="middle" x="229" y="-165.3" font-family="Helvetica,sans-Serif" font-size="9.00">_args... &gt;</text>
</a>
</g>
</g>
<!-- Node0&#45;&gt;Node3 -->
<g id="edge3" class="edge">
<title>Node0&#45;&gt;Node3</title>
<path fill="none" stroke="midnightblue" d="M116.69,-142.26C136.35,-147.6 157.88,-153.45 176.73,-158.57"/>
<polygon fill="midnightblue" stroke="midnightblue" points="117.47,-138.85 106.91,-139.6 115.64,-145.6 117.47,-138.85"/>
</g>
<!-- Node4 -->
<g id="node5" class="node">
<title>Node4</title>
<g id="a_node5"><a xlink:href="a03598.html" target="_top" xlink:title=" ">
<polygon fill="white" stroke="black" points="165,-111.5 165,-139.5 293,-139.5 293,-111.5 165,-111.5"/>
<text text-anchor="start" x="173" y="-128.3" font-family="Helvetica,sans-Serif" font-size="9.00">std::tuple&lt; _MutexTypes</text>
<text text-anchor="middle" x="229" y="-118.3" font-family="Helvetica,sans-Serif" font-size="9.00"> &amp;... &gt;</text>
</a>
</g>
</g>
<!-- Node0&#45;&gt;Node4 -->
<g id="edge4" class="edge">
<title>Node0&#45;&gt;Node4</title>
<path fill="none" stroke="midnightblue" d="M118.58,-125.5C133.67,-125.5 149.76,-125.5 164.84,-125.5"/>
<polygon fill="midnightblue" stroke="midnightblue" points="118.32,-122 108.32,-125.5 118.32,-129 118.32,-122"/>
</g>
<!-- Node5 -->
<g id="node6" class="node">
<title>Node5</title>
<g id="a_node6"><a xlink:href="a03598.html" target="_top" xlink:title=" ">
<polygon fill="white" stroke="black" points="157,-74.5 157,-92.5 301,-92.5 301,-74.5 157,-74.5"/>
<text text-anchor="middle" x="229" y="-81.3" font-family="Helvetica,sans-Serif" font-size="9.00">std::tuple&lt; _BoundArgs... &gt;</text>
</a>
</g>
</g>
<!-- Node0&#45;&gt;Node5 -->
<g id="edge5" class="edge">
<title>Node0&#45;&gt;Node5</title>
<path fill="none" stroke="midnightblue" d="M117.91,-108.99C126.66,-106.77 135.55,-104.55 144,-102.5 157.95,-99.12 173.25,-95.6 186.93,-92.53"/>
<polygon fill="midnightblue" stroke="midnightblue" points="116.94,-105.62 108.11,-111.49 118.67,-112.41 116.94,-105.62"/>
</g>
<!-- Node6 -->
<g id="node7" class="node">
<title>Node6</title>
<g id="a_node7"><a xlink:href="a03598.html" target="_top" xlink:title=" ">
<polygon fill="white" stroke="black" points="171.5,-37.5 171.5,-55.5 286.5,-55.5 286.5,-37.5 171.5,-37.5"/>
<text text-anchor="middle" x="229" y="-44.3" font-family="Helvetica,sans-Serif" font-size="9.00">std::tuple&lt; _Args... &gt;</text>
</a>
</g>
</g>
<!-- Node0&#45;&gt;Node6 -->
<g id="edge6" class="edge">
<title>Node0&#45;&gt;Node6</title>
<path fill="none" stroke="midnightblue" d="M80.22,-104.76C97.28,-91.71 120.84,-75.51 144,-65.5 153.47,-61.41 163.94,-58.14 174.18,-55.55"/>
<polygon fill="midnightblue" stroke="midnightblue" points="77.65,-102.33 71.94,-111.25 81.97,-107.84 77.65,-102.33"/>
</g>
<!-- Node7 -->
<g id="node8" class="node">
<title>Node7</title>
<g id="a_node8"><a xlink:href="a03598.html" target="_top" xlink:title="Primary class template, tuple.">
<polygon fill="white" stroke="black" points="165,-0.5 165,-18.5 293,-18.5 293,-0.5 165,-0.5"/>
<text text-anchor="middle" x="229" y="-7.3" font-family="Helvetica,sans-Serif" font-size="9.00">std::tuple&lt; _Elements &gt;</text>
</a>
</g>
</g>
<!-- Node0&#45;&gt;Node7 -->
<g id="edge7" class="edge">
<title>Node0&#45;&gt;Node7</title>
<path fill="none" stroke="midnightblue" d="M69.57,-102.9C85.23,-80.5 112.2,-46.94 144,-28.5 151.11,-24.38 159.05,-21.15 167.12,-18.62"/>
<polygon fill="midnightblue" stroke="midnightblue" points="66.48,-101.21 63.76,-111.45 72.27,-105.15 66.48,-101.21"/>
</g>
</g>
</svg>
