<?xml version="1.0" encoding="UTF-8" standalone="no"?>
<!DOCTYPE svg PUBLIC "-//W3C//DTD SVG 1.1//EN"
 "http://www.w3.org/Graphics/SVG/1.1/DTD/svg11.dtd">
<!-- Generated by graphviz version 2.50.0 (0)
 -->
<!-- Title: Graphical Class Hierarchy Pages: 1 -->
<svg width="262pt" height="47pt"
 viewBox="0.00 0.00 262.00 47.00" xmlns="http://www.w3.org/2000/svg" xmlns:xlink="http://www.w3.org/1999/xlink">
<g id="graph0" class="graph" transform="scale(1 1) rotate(0) translate(4 43)">
<title>Graphical Class Hierarchy</title>
<polygon fill="white" stroke="transparent" points="-4,4 -4,-43 258,-43 258,4 -4,4"/>
<!-- Node0 -->
<g id="node1" class="node">
<title>Node0</title>
<g id="a_node1"><a xlink:href="a03766.html" target="_top" xlink:title=" ">
<polygon fill="white" stroke="black" points="0,-0.5 0,-38.5 123,-38.5 123,-0.5 0,-0.5"/>
<text text-anchor="start" x="8" y="-27.3" font-family="Helvetica,sans-Serif" font-size="9.00">std::integral_constant</text>
<text text-anchor="start" x="8" y="-17.3" font-family="Helvetica,sans-Serif" font-size="9.00">&lt; bool, ratio_less&lt; _R2,</text>
<text text-anchor="middle" x="61.5" y="-7.3" font-family="Helvetica,sans-Serif" font-size="9.00"> _R1 &gt;::value &gt;</text>
</a>
</g>
</g>
<!-- Node1 -->
<g id="node2" class="node">
<title>Node1</title>
<g id="a_node2"><a xlink:href="a03386.html" target="_top" xlink:title="ratio_greater">
<polygon fill="white" stroke="black" points="159,-5.5 159,-33.5 254,-33.5 254,-5.5 159,-5.5"/>
<text text-anchor="start" x="167" y="-22.3" font-family="Helvetica,sans-Serif" font-size="9.00">std::ratio_greater</text>
<text text-anchor="middle" x="206.5" y="-12.3" font-family="Helvetica,sans-Serif" font-size="9.00">&lt; _R1, _R2 &gt;</text>
</a>
</g>
</g>
<!-- Node0&#45;&gt;Node1 -->
<g id="edge1" class="edge">
<title>Node0&#45;&gt;Node1</title>
<path fill="none" stroke="midnightblue" d="M133.23,-19.5C141.86,-19.5 150.49,-19.5 158.65,-19.5"/>
<polygon fill="midnightblue" stroke="midnightblue" points="133.14,-16 123.14,-19.5 133.14,-23 133.14,-16"/>
</g>
</g>
</svg>
