<?xml version="1.0" encoding="UTF-8" standalone="no"?>
<!DOCTYPE svg PUBLIC "-//W3C//DTD SVG 1.1//EN"
 "http://www.w3.org/Graphics/SVG/1.1/DTD/svg11.dtd">
<!-- Generated by graphviz version 2.50.0 (0)
 -->
<!-- Title: Graphical Class Hierarchy Pages: 1 -->
<svg width="323pt" height="84pt"
 viewBox="0.00 0.00 323.00 84.00" xmlns="http://www.w3.org/2000/svg" xmlns:xlink="http://www.w3.org/1999/xlink">
<g id="graph0" class="graph" transform="scale(1 1) rotate(0) translate(4 80)">
<title>Graphical Class Hierarchy</title>
<polygon fill="white" stroke="transparent" points="-4,4 -4,-80 319,-80 319,4 -4,4"/>
<!-- Node0 -->
<g id="node1" class="node">
<title>Node0</title>
<g id="a_node1"><a xlink:href="a10214.html" target="_top" xlink:title="Guarded loser/tournament tree.">
<polygon fill="white" stroke="black" points="0,-23.5 0,-51.5 133,-51.5 133,-23.5 0,-23.5"/>
<text text-anchor="start" x="8" y="-40.3" font-family="Helvetica,sans-Serif" font-size="9.00">__gnu_parallel::_LoserTree</text>
<text text-anchor="middle" x="66.5" y="-30.3" font-family="Helvetica,sans-Serif" font-size="9.00">Base&lt; _Tp, _Compare &gt;</text>
</a>
</g>
</g>
<!-- Node1 -->
<g id="node2" class="node">
<title>Node1</title>
<g id="a_node2"><a xlink:href="a10222.html" target="_top" xlink:title="Stable _LoserTree variant.">
<polygon fill="white" stroke="black" points="169,-47.5 169,-75.5 315,-75.5 315,-47.5 169,-47.5"/>
<text text-anchor="start" x="177" y="-64.3" font-family="Helvetica,sans-Serif" font-size="9.00">__gnu_parallel::_LoserTree</text>
<text text-anchor="middle" x="242" y="-54.3" font-family="Helvetica,sans-Serif" font-size="9.00">&lt; __stable, _Tp, _Compare &gt;</text>
</a>
</g>
</g>
<!-- Node0&#45;&gt;Node1 -->
<g id="edge1" class="edge">
<title>Node0&#45;&gt;Node1</title>
<path fill="none" stroke="midnightblue" d="M143.08,-47.95C151.66,-49.14 160.4,-50.35 168.93,-51.53"/>
<polygon fill="midnightblue" stroke="midnightblue" points="143.48,-44.48 133.09,-46.57 142.52,-51.41 143.48,-44.48"/>
</g>
<!-- Node2 -->
<g id="node3" class="node">
<title>Node2</title>
<g id="a_node3"><a xlink:href="a10226.html" target="_top" xlink:title="Unstable _LoserTree variant.">
<polygon fill="white" stroke="black" points="175.5,-0.5 175.5,-28.5 308.5,-28.5 308.5,-0.5 175.5,-0.5"/>
<text text-anchor="start" x="183.5" y="-17.3" font-family="Helvetica,sans-Serif" font-size="9.00">__gnu_parallel::_LoserTree</text>
<text text-anchor="middle" x="242" y="-7.3" font-family="Helvetica,sans-Serif" font-size="9.00">&lt; false, _Tp, _Compare &gt;</text>
</a>
</g>
</g>
<!-- Node0&#45;&gt;Node2 -->
<g id="edge2" class="edge">
<title>Node0&#45;&gt;Node2</title>
<path fill="none" stroke="midnightblue" d="M143.25,-27.46C153.93,-26.04 164.84,-24.6 175.31,-23.21"/>
<polygon fill="midnightblue" stroke="midnightblue" points="142.55,-24.02 133.09,-28.8 143.47,-30.96 142.55,-24.02"/>
</g>
</g>
</svg>
