<?xml version="1.0" encoding="UTF-8" standalone="no"?>
<!DOCTYPE svg PUBLIC "-//W3C//DTD SVG 1.1//EN"
 "http://www.w3.org/Graphics/SVG/1.1/DTD/svg11.dtd">
<!-- Generated by graphviz version 2.50.0 (0)
 -->
<!-- Title: Graphical Class Hierarchy Pages: 1 -->
<svg width="268pt" height="175pt"
 viewBox="0.00 0.00 268.00 175.00" xmlns="http://www.w3.org/2000/svg" xmlns:xlink="http://www.w3.org/1999/xlink">
<g id="graph0" class="graph" transform="scale(1 1) rotate(0) translate(4 171)">
<title>Graphical Class Hierarchy</title>
<polygon fill="white" stroke="transparent" points="-4,4 -4,-171 264,-171 264,4 -4,4"/>
<!-- Node0 -->
<g id="node1" class="node">
<title>Node0</title>
<g id="a_node1"><a xlink:href="a08210.html" target="_top" xlink:title=" ">
<polygon fill="white" stroke="black" points="0,-69.5 0,-97.5 107,-97.5 107,-69.5 0,-69.5"/>
<text text-anchor="start" x="8" y="-86.3" font-family="Helvetica,sans-Serif" font-size="9.00">std::binary_function</text>
<text text-anchor="middle" x="53.5" y="-76.3" font-family="Helvetica,sans-Serif" font-size="9.00">&lt; _Tp, _Tp, _Tp &gt;</text>
</a>
</g>
</g>
<!-- Node1 -->
<g id="node2" class="node">
<title>Node1</title>
<g id="a_node2"><a xlink:href="a08226.html" target="_top" xlink:title="One of the math functors.">
<polygon fill="white" stroke="black" points="149,-148.5 149,-166.5 254,-166.5 254,-148.5 149,-148.5"/>
<text text-anchor="middle" x="201.5" y="-155.3" font-family="Helvetica,sans-Serif" font-size="9.00">std::divides&lt; _Tp &gt;</text>
</a>
</g>
</g>
<!-- Node0&#45;&gt;Node1 -->
<g id="edge1" class="edge">
<title>Node0&#45;&gt;Node1</title>
<path fill="none" stroke="midnightblue" d="M82.01,-103.55C98.97,-115.22 121.5,-129.54 143,-139.5 150.4,-142.93 158.63,-145.94 166.5,-148.47"/>
<polygon fill="midnightblue" stroke="midnightblue" points="83.89,-100.59 73.69,-97.72 79.88,-106.32 83.89,-100.59"/>
</g>
<!-- Node2 -->
<g id="node3" class="node">
<title>Node2</title>
<g id="a_node3"><a xlink:href="a08218.html" target="_top" xlink:title="One of the math functors.">
<polygon fill="white" stroke="black" points="151,-111.5 151,-129.5 252,-129.5 252,-111.5 151,-111.5"/>
<text text-anchor="middle" x="201.5" y="-118.3" font-family="Helvetica,sans-Serif" font-size="9.00">std::minus&lt; _Tp &gt;</text>
</a>
</g>
</g>
<!-- Node0&#45;&gt;Node2 -->
<g id="edge2" class="edge">
<title>Node0&#45;&gt;Node2</title>
<path fill="none" stroke="midnightblue" d="M117.21,-99.39C133.47,-103.51 150.43,-107.81 164.76,-111.44"/>
<polygon fill="midnightblue" stroke="midnightblue" points="117.76,-95.92 107.21,-96.86 116.04,-102.71 117.76,-95.92"/>
</g>
<!-- Node3 -->
<g id="node4" class="node">
<title>Node3</title>
<g id="a_node4"><a xlink:href="a08230.html" target="_top" xlink:title="One of the math functors.">
<polygon fill="white" stroke="black" points="145,-74.5 145,-92.5 258,-92.5 258,-74.5 145,-74.5"/>
<text text-anchor="middle" x="201.5" y="-81.3" font-family="Helvetica,sans-Serif" font-size="9.00">std::modulus&lt; _Tp &gt;</text>
</a>
</g>
</g>
<!-- Node0&#45;&gt;Node3 -->
<g id="edge3" class="edge">
<title>Node0&#45;&gt;Node3</title>
<path fill="none" stroke="midnightblue" d="M117.41,-83.5C126.56,-83.5 135.92,-83.5 144.91,-83.5"/>
<polygon fill="midnightblue" stroke="midnightblue" points="117.21,-80 107.21,-83.5 117.21,-87 117.21,-80"/>
</g>
<!-- Node4 -->
<g id="node5" class="node">
<title>Node4</title>
<g id="a_node5"><a xlink:href="a08222.html" target="_top" xlink:title="One of the math functors.">
<polygon fill="white" stroke="black" points="143,-37.5 143,-55.5 260,-55.5 260,-37.5 143,-37.5"/>
<text text-anchor="middle" x="201.5" y="-44.3" font-family="Helvetica,sans-Serif" font-size="9.00">std::multiplies&lt; _Tp &gt;</text>
</a>
</g>
</g>
<!-- Node0&#45;&gt;Node4 -->
<g id="edge4" class="edge">
<title>Node0&#45;&gt;Node4</title>
<path fill="none" stroke="midnightblue" d="M117.21,-67.61C133.47,-63.49 150.43,-59.19 164.76,-55.56"/>
<polygon fill="midnightblue" stroke="midnightblue" points="116.04,-64.29 107.21,-70.14 117.76,-71.08 116.04,-64.29"/>
</g>
<!-- Node5 -->
<g id="node6" class="node">
<title>Node5</title>
<g id="a_node6"><a xlink:href="a08214.html" target="_top" xlink:title="One of the math functors.">
<polygon fill="white" stroke="black" points="155.5,-0.5 155.5,-18.5 247.5,-18.5 247.5,-0.5 155.5,-0.5"/>
<text text-anchor="middle" x="201.5" y="-7.3" font-family="Helvetica,sans-Serif" font-size="9.00">std::plus&lt; _Tp &gt;</text>
</a>
</g>
</g>
<!-- Node0&#45;&gt;Node5 -->
<g id="edge5" class="edge">
<title>Node0&#45;&gt;Node5</title>
<path fill="none" stroke="midnightblue" d="M82.45,-63.74C99.4,-52.37 121.79,-38.42 143,-28.5 151.09,-24.71 160.15,-21.35 168.64,-18.54"/>
<polygon fill="midnightblue" stroke="midnightblue" points="80.42,-60.89 74.12,-69.41 84.36,-66.68 80.42,-60.89"/>
</g>
</g>
</svg>
