<?xml version="1.0" encoding="UTF-8" standalone="no"?>
<!DOCTYPE svg PUBLIC "-//W3C//DTD SVG 1.1//EN"
 "http://www.w3.org/Graphics/SVG/1.1/DTD/svg11.dtd">
<!-- Generated by graphviz version 2.50.0 (0)
 -->
<!-- Title: Graphical Class Hierarchy Pages: 1 -->
<svg width="266pt" height="47pt"
 viewBox="0.00 0.00 266.00 47.00" xmlns="http://www.w3.org/2000/svg" xmlns:xlink="http://www.w3.org/1999/xlink">
<g id="graph0" class="graph" transform="scale(1 1) rotate(0) translate(4 43)">
<title>Graphical Class Hierarchy</title>
<polygon fill="white" stroke="transparent" points="-4,4 -4,-43 262,-43 262,4 -4,4"/>
<!-- Node0 -->
<g id="node1" class="node">
<title>Node0</title>
<g id="a_node1"><a xlink:href="a08210.html" target="_top" xlink:title=" ">
<polygon fill="white" stroke="black" points="0,-0.5 0,-38.5 107,-38.5 107,-0.5 0,-0.5"/>
<text text-anchor="start" x="8" y="-27.3" font-family="Helvetica,sans-Serif" font-size="9.00">std::binary_function</text>
<text text-anchor="start" x="8" y="-17.3" font-family="Helvetica,sans-Serif" font-size="9.00">&lt; const _Tp *, _Arg,</text>
<text text-anchor="middle" x="53.5" y="-7.3" font-family="Helvetica,sans-Serif" font-size="9.00"> _Ret &gt;</text>
</a>
</g>
</g>
<!-- Node1 -->
<g id="node2" class="node">
<title>Node1</title>
<g id="a_node2"><a xlink:href="a08498.html" target="_top" xlink:title="One of the adaptors for member pointers.">
<polygon fill="white" stroke="black" points="143,-5.5 143,-33.5 258,-33.5 258,-5.5 143,-5.5"/>
<text text-anchor="start" x="151" y="-22.3" font-family="Helvetica,sans-Serif" font-size="9.00">std::const_mem_fun1</text>
<text text-anchor="middle" x="200.5" y="-12.3" font-family="Helvetica,sans-Serif" font-size="9.00">_t&lt; _Ret, _Tp, _Arg &gt;</text>
</a>
</g>
</g>
<!-- Node0&#45;&gt;Node1 -->
<g id="edge1" class="edge">
<title>Node0&#45;&gt;Node1</title>
<path fill="none" stroke="midnightblue" d="M117.38,-19.5C125.77,-19.5 134.34,-19.5 142.62,-19.5"/>
<polygon fill="midnightblue" stroke="midnightblue" points="117.26,-16 107.26,-19.5 117.26,-23 117.26,-16"/>
</g>
</g>
</svg>
