<?xml version="1.0" encoding="UTF-8" standalone="no"?>
<!DOCTYPE svg PUBLIC "-//W3C//DTD SVG 1.1//EN"
 "http://www.w3.org/Graphics/SVG/1.1/DTD/svg11.dtd">
<!-- Generated by graphviz version 2.50.0 (0)
 -->
<!-- Title: Graphical Class Hierarchy Pages: 1 -->
<svg width="363pt" height="94pt"
 viewBox="0.00 0.00 363.00 94.00" xmlns="http://www.w3.org/2000/svg" xmlns:xlink="http://www.w3.org/1999/xlink">
<g id="graph0" class="graph" transform="scale(1 1) rotate(0) translate(4 90)">
<title>Graphical Class Hierarchy</title>
<polygon fill="white" stroke="transparent" points="-4,4 -4,-90 359,-90 359,4 -4,4"/>
<!-- Node0 -->
<g id="node1" class="node">
<title>Node0</title>
<g id="a_node1"><a xlink:href="a10230.html" target="_top" xlink:title="Base class of _Loser Tree implementation using pointers.">
<polygon fill="white" stroke="black" points="0,-26.5 0,-54.5 157,-54.5 157,-26.5 0,-26.5"/>
<text text-anchor="start" x="8" y="-43.3" font-family="Helvetica,sans-Serif" font-size="9.00">__gnu_parallel::_LoserTree</text>
<text text-anchor="middle" x="78.5" y="-33.3" font-family="Helvetica,sans-Serif" font-size="9.00">PointerBase&lt; _Tp, _Compare &gt;</text>
</a>
</g>
</g>
<!-- Node1 -->
<g id="node2" class="node">
<title>Node1</title>
<g id="a_node2"><a xlink:href="a10238.html" target="_top" xlink:title="Stable _LoserTree implementation.">
<polygon fill="white" stroke="black" points="207.5,-47.5 207.5,-85.5 340.5,-85.5 340.5,-47.5 207.5,-47.5"/>
<text text-anchor="start" x="215.5" y="-74.3" font-family="Helvetica,sans-Serif" font-size="9.00">__gnu_parallel::_LoserTree</text>
<text text-anchor="start" x="215.5" y="-64.3" font-family="Helvetica,sans-Serif" font-size="9.00">Pointer&lt; __stable, _Tp,</text>
<text text-anchor="middle" x="274" y="-54.3" font-family="Helvetica,sans-Serif" font-size="9.00"> _Compare &gt;</text>
</a>
</g>
</g>
<!-- Node0&#45;&gt;Node1 -->
<g id="edge1" class="edge">
<title>Node0&#45;&gt;Node1</title>
<path fill="none" stroke="midnightblue" d="M167.29,-52.3C180.72,-54.1 194.37,-55.94 207.22,-57.66"/>
<polygon fill="midnightblue" stroke="midnightblue" points="167.47,-48.79 157.09,-50.93 166.53,-55.73 167.47,-48.79"/>
</g>
<!-- Node2 -->
<g id="node3" class="node">
<title>Node2</title>
<g id="a_node3"><a xlink:href="a10242.html" target="_top" xlink:title="Unstable _LoserTree implementation.">
<polygon fill="white" stroke="black" points="193,-0.5 193,-28.5 355,-28.5 355,-0.5 193,-0.5"/>
<text text-anchor="start" x="201" y="-17.3" font-family="Helvetica,sans-Serif" font-size="9.00">__gnu_parallel::_LoserTree</text>
<text text-anchor="middle" x="274" y="-7.3" font-family="Helvetica,sans-Serif" font-size="9.00">Pointer&lt; false, _Tp, _Compare &gt;</text>
</a>
</g>
</g>
<!-- Node0&#45;&gt;Node2 -->
<g id="edge2" class="edge">
<title>Node0&#45;&gt;Node2</title>
<path fill="none" stroke="midnightblue" d="M167.1,-28.73C175.68,-27.58 184.36,-26.41 192.86,-25.27"/>
<polygon fill="midnightblue" stroke="midnightblue" points="166.53,-25.27 157.09,-30.07 167.47,-32.21 166.53,-25.27"/>
</g>
</g>
</svg>
