<?xml version="1.0" encoding="UTF-8" standalone="no"?>
<!DOCTYPE svg PUBLIC "-//W3C//DTD SVG 1.1//EN"
 "http://www.w3.org/Graphics/SVG/1.1/DTD/svg11.dtd">
<!-- Generated by graphviz version 2.50.0 (0)
 -->
<!-- Title: Graphical Class Hierarchy Pages: 1 -->
<svg width="259pt" height="57pt"
 viewBox="0.00 0.00 259.00 57.00" xmlns="http://www.w3.org/2000/svg" xmlns:xlink="http://www.w3.org/1999/xlink">
<g id="graph0" class="graph" transform="scale(1 1) rotate(0) translate(4 53)">
<title>Graphical Class Hierarchy</title>
<polygon fill="white" stroke="transparent" points="-4,4 -4,-53 255,-53 255,4 -4,4"/>
<!-- Node0 -->
<g id="node1" class="node">
<title>Node0</title>
<g id="a_node1"><a xlink:href="a08850.html" target="_top" xlink:title=" ">
<polygon fill="white" stroke="black" points="0,-0.5 0,-48.5 105,-48.5 105,-0.5 0,-0.5"/>
<text text-anchor="start" x="8" y="-37.3" font-family="Helvetica,sans-Serif" font-size="9.00">std::_Vector_base&lt;</text>
<text text-anchor="start" x="8" y="-27.3" font-family="Helvetica,sans-Serif" font-size="9.00"> Catalog_info *, std</text>
<text text-anchor="start" x="8" y="-17.3" font-family="Helvetica,sans-Serif" font-size="9.00">::allocator&lt; Catalog</text>
<text text-anchor="middle" x="52.5" y="-7.3" font-family="Helvetica,sans-Serif" font-size="9.00">_info * &gt; &gt;</text>
</a>
</g>
</g>
<!-- Node1 -->
<g id="node2" class="node">
<title>Node1</title>
<g id="a_node2"><a xlink:href="a08862.html" target="_top" xlink:title=" ">
<polygon fill="white" stroke="black" points="141,-10.5 141,-38.5 251,-38.5 251,-10.5 141,-10.5"/>
<text text-anchor="start" x="149" y="-27.3" font-family="Helvetica,sans-Serif" font-size="9.00">std::vector&lt; Catalog</text>
<text text-anchor="middle" x="196" y="-17.3" font-family="Helvetica,sans-Serif" font-size="9.00">_info * &gt;</text>
</a>
</g>
</g>
<!-- Node0&#45;&gt;Node1 -->
<g id="edge1" class="edge">
<title>Node0&#45;&gt;Node1</title>
<path fill="none" stroke="darkgreen" d="M115.52,-24.5C123.92,-24.5 132.49,-24.5 140.74,-24.5"/>
<polygon fill="darkgreen" stroke="darkgreen" points="115.39,-21 105.39,-24.5 115.39,-28 115.39,-21"/>
</g>
</g>
</svg>
