<?xml version="1.0" encoding="UTF-8" standalone="no"?>
<!DOCTYPE svg PUBLIC "-//W3C//DTD SVG 1.1//EN"
 "http://www.w3.org/Graphics/SVG/1.1/DTD/svg11.dtd">
<!-- Generated by graphviz version 2.50.0 (0)
 -->
<!-- Title: Graphical Class Hierarchy Pages: 1 -->
<svg width="361pt" height="57pt"
 viewBox="0.00 0.00 361.00 57.00" xmlns="http://www.w3.org/2000/svg" xmlns:xlink="http://www.w3.org/1999/xlink">
<g id="graph0" class="graph" transform="scale(1 1) rotate(0) translate(4 53)">
<title>Graphical Class Hierarchy</title>
<polygon fill="white" stroke="transparent" points="-4,4 -4,-53 357,-53 357,4 -4,4"/>
<!-- Node0 -->
<g id="node1" class="node">
<title>Node0</title>
<g id="a_node1"><a xlink:href="a13494.html" target="_top" xlink:title="Const point&#45;type iterator.">
<polygon fill="white" stroke="black" points="0,-0.5 0,-48.5 165,-48.5 165,-0.5 0,-0.5"/>
<text text-anchor="start" x="8" y="-37.3" font-family="Helvetica,sans-Serif" font-size="9.00">__gnu_pbds::detail</text>
<text text-anchor="start" x="8" y="-27.3" font-family="Helvetica,sans-Serif" font-size="9.00">::left_child_next_sibling</text>
<text text-anchor="start" x="8" y="-17.3" font-family="Helvetica,sans-Serif" font-size="9.00">_heap_node_point_const_iterator</text>
<text text-anchor="middle" x="82.5" y="-7.3" font-family="Helvetica,sans-Serif" font-size="9.00">_&lt; Node, _Alloc &gt;</text>
</a>
</g>
</g>
<!-- Node1 -->
<g id="node2" class="node">
<title>Node1</title>
<g id="a_node2"><a xlink:href="a13478.html" target="_top" xlink:title="Const point&#45;type iterator.">
<polygon fill="white" stroke="black" points="201,-0.5 201,-48.5 353,-48.5 353,-0.5 201,-0.5"/>
<text text-anchor="start" x="209" y="-37.3" font-family="Helvetica,sans-Serif" font-size="9.00">__gnu_pbds::detail</text>
<text text-anchor="start" x="209" y="-27.3" font-family="Helvetica,sans-Serif" font-size="9.00">::left_child_next_sibling</text>
<text text-anchor="start" x="209" y="-17.3" font-family="Helvetica,sans-Serif" font-size="9.00">_heap_const_iterator_&lt; Node,</text>
<text text-anchor="middle" x="277" y="-7.3" font-family="Helvetica,sans-Serif" font-size="9.00"> _Alloc &gt;</text>
</a>
</g>
</g>
<!-- Node0&#45;&gt;Node1 -->
<g id="edge1" class="edge">
<title>Node0&#45;&gt;Node1</title>
<path fill="none" stroke="midnightblue" d="M175.22,-24.5C183.85,-24.5 192.52,-24.5 200.96,-24.5"/>
<polygon fill="midnightblue" stroke="midnightblue" points="175.14,-21 165.14,-24.5 175.14,-28 175.14,-21"/>
</g>
</g>
</svg>
