<?xml version="1.0" encoding="UTF-8" standalone="no"?>
<!DOCTYPE svg PUBLIC "-//W3C//DTD SVG 1.1//EN"
 "http://www.w3.org/Graphics/SVG/1.1/DTD/svg11.dtd">
<!-- Generated by graphviz version 2.50.0 (0)
 -->
<!-- Title: Graphical Class Hierarchy Pages: 1 -->
<svg width="272pt" height="84pt"
 viewBox="0.00 0.00 272.00 84.00" xmlns="http://www.w3.org/2000/svg" xmlns:xlink="http://www.w3.org/1999/xlink">
<g id="graph0" class="graph" transform="scale(1 1) rotate(0) translate(4 80)">
<title>Graphical Class Hierarchy</title>
<polygon fill="white" stroke="transparent" points="-4,4 -4,-80 268,-80 268,4 -4,4"/>
<!-- Node0 -->
<g id="node1" class="node">
<title>Node0</title>
<g id="a_node1"><a xlink:href="a12106.html" target="_top" xlink:title="Base class for pool object.">
<polygon fill="white" stroke="black" points="0,-28.5 0,-46.5 123,-46.5 123,-28.5 0,-28.5"/>
<text text-anchor="middle" x="61.5" y="-35.3" font-family="Helvetica,sans-Serif" font-size="9.00">__gnu_cxx::__pool_base</text>
</a>
</g>
</g>
<!-- Node1 -->
<g id="node2" class="node">
<title>Node1</title>
<g id="a_node2"><a xlink:href="a12122.html" target="_top" xlink:title="Specialization for single thread.">
<polygon fill="white" stroke="black" points="159,-47.5 159,-75.5 264,-75.5 264,-47.5 159,-47.5"/>
<text text-anchor="start" x="167" y="-64.3" font-family="Helvetica,sans-Serif" font-size="9.00">__gnu_cxx::__pool&lt;</text>
<text text-anchor="middle" x="211.5" y="-54.3" font-family="Helvetica,sans-Serif" font-size="9.00"> false &gt;</text>
</a>
</g>
</g>
<!-- Node0&#45;&gt;Node1 -->
<g id="edge1" class="edge">
<title>Node0&#45;&gt;Node1</title>
<path fill="none" stroke="midnightblue" d="M128.13,-48.14C138.32,-49.8 148.73,-51.48 158.57,-53.08"/>
<polygon fill="midnightblue" stroke="midnightblue" points="128.46,-44.65 118.03,-46.5 127.34,-51.56 128.46,-44.65"/>
</g>
<!-- Node2 -->
<g id="node3" class="node">
<title>Node2</title>
<g id="a_node3"><a xlink:href="a12134.html" target="_top" xlink:title="Specialization for thread enabled, via gthreads.h.">
<polygon fill="white" stroke="black" points="159,-0.5 159,-28.5 264,-28.5 264,-0.5 159,-0.5"/>
<text text-anchor="start" x="167" y="-17.3" font-family="Helvetica,sans-Serif" font-size="9.00">__gnu_cxx::__pool&lt;</text>
<text text-anchor="middle" x="211.5" y="-7.3" font-family="Helvetica,sans-Serif" font-size="9.00"> true &gt;</text>
</a>
</g>
</g>
<!-- Node0&#45;&gt;Node2 -->
<g id="edge2" class="edge">
<title>Node0&#45;&gt;Node2</title>
<path fill="none" stroke="midnightblue" d="M130.74,-26.89C140.19,-25.43 149.77,-23.94 158.85,-22.53"/>
<polygon fill="midnightblue" stroke="midnightblue" points="129.91,-23.48 120.57,-28.48 130.99,-30.4 129.91,-23.48"/>
</g>
</g>
</svg>
