<?xml version="1.0" encoding="UTF-8" standalone="no"?>
<!DOCTYPE svg PUBLIC "-//W3C//DTD SVG 1.1//EN"
 "http://www.w3.org/Graphics/SVG/1.1/DTD/svg11.dtd">
<!-- Generated by graphviz version 2.50.0 (0)
 -->
<!-- Title: Graphical Class Hierarchy Pages: 1 -->
<svg width="311pt" height="37pt"
 viewBox="0.00 0.00 311.00 37.00" xmlns="http://www.w3.org/2000/svg" xmlns:xlink="http://www.w3.org/1999/xlink">
<g id="graph0" class="graph" transform="scale(1 1) rotate(0) translate(4 33)">
<title>Graphical Class Hierarchy</title>
<polygon fill="white" stroke="transparent" points="-4,4 -4,-33 307,-33 307,4 -4,4"/>
<!-- Node0 -->
<g id="node1" class="node">
<title>Node0</title>
<g id="a_node1"><a xlink:href="a03766.html" target="_top" xlink:title=" ">
<polygon fill="white" stroke="black" points="0,-0.5 0,-28.5 152,-28.5 152,-0.5 0,-0.5"/>
<text text-anchor="start" x="8" y="-17.3" font-family="Helvetica,sans-Serif" font-size="9.00">std::integral_constant</text>
<text text-anchor="middle" x="76" y="-7.3" font-family="Helvetica,sans-Serif" font-size="9.00">&lt; size_t, sizeof...(_Elements)&gt;</text>
</a>
</g>
</g>
<!-- Node1 -->
<g id="node2" class="node">
<title>Node1</title>
<g id="a_node2"><a xlink:href="a03662.html" target="_top" xlink:title="class tuple_size">
<polygon fill="white" stroke="black" points="188,-0.5 188,-28.5 303,-28.5 303,-0.5 188,-0.5"/>
<text text-anchor="start" x="196" y="-17.3" font-family="Helvetica,sans-Serif" font-size="9.00">std::tuple_size&lt; tuple</text>
<text text-anchor="middle" x="245.5" y="-7.3" font-family="Helvetica,sans-Serif" font-size="9.00">&lt; _Elements... &gt; &gt;</text>
</a>
</g>
</g>
<!-- Node0&#45;&gt;Node1 -->
<g id="edge1" class="edge">
<title>Node0&#45;&gt;Node1</title>
<path fill="none" stroke="midnightblue" d="M162.69,-14.5C171.12,-14.5 179.53,-14.5 187.57,-14.5"/>
<polygon fill="midnightblue" stroke="midnightblue" points="162.42,-11 152.42,-14.5 162.42,-18 162.42,-11"/>
</g>
</g>
</svg>
