<?xml version="1.0" encoding="UTF-8" standalone="no"?>
<!DOCTYPE svg PUBLIC "-//W3C//DTD SVG 1.1//EN"
 "http://www.w3.org/Graphics/SVG/1.1/DTD/svg11.dtd">
<!-- Generated by graphviz version 2.50.0 (0)
 -->
<!-- Title: Graphical Class Hierarchy Pages: 1 -->
<svg width="711pt" height="225pt"
 viewBox="0.00 0.00 711.00 225.00" xmlns="http://www.w3.org/2000/svg" xmlns:xlink="http://www.w3.org/1999/xlink">
<g id="graph0" class="graph" transform="scale(1 1) rotate(0) translate(4 221)">
<title>Graphical Class Hierarchy</title>
<polygon fill="white" stroke="transparent" points="-4,4 -4,-221 707,-221 707,4 -4,4"/>
<!-- Node0 -->
<g id="node1" class="node">
<title>Node0</title>
<g id="a_node1"><a xlink:href="a12394.html" target="_top" xlink:title="Base class for checking address and label information about allocations. Create a std::map between th...">
<polygon fill="white" stroke="black" points="181,-99.5 181,-117.5 317,-117.5 317,-99.5 181,-99.5"/>
<text text-anchor="middle" x="249" y="-106.3" font-family="Helvetica,sans-Serif" font-size="9.00">__gnu_cxx::annotate_base</text>
</a>
</g>
</g>
<!-- Node1 -->
<g id="node2" class="node">
<title>Node1</title>
<g id="a_node2"><a xlink:href="a12454.html" target="_top" xlink:title=" ">
<polygon fill="white" stroke="black" points="361,-47.5 361,-75.5 528,-75.5 528,-47.5 361,-47.5"/>
<text text-anchor="start" x="369" y="-64.3" font-family="Helvetica,sans-Serif" font-size="9.00">__gnu_cxx::throw_allocator</text>
<text text-anchor="middle" x="444.5" y="-54.3" font-family="Helvetica,sans-Serif" font-size="9.00">_base&lt; _Tp, random_condition &gt;</text>
</a>
</g>
</g>
<!-- Node0&#45;&gt;Node1 -->
<g id="edge1" class="edge">
<title>Node0&#45;&gt;Node1</title>
<path fill="none" stroke="midnightblue" d="M297.18,-97.04C323.87,-90.56 357.47,-82.4 385.74,-75.53"/>
<polygon fill="midnightblue" stroke="midnightblue" points="296.2,-93.68 287.31,-99.44 297.85,-100.48 296.2,-93.68"/>
</g>
<!-- Node3 -->
<g id="node4" class="node">
<title>Node3</title>
<g id="a_node4"><a xlink:href="a12454.html" target="_top" xlink:title=" ">
<polygon fill="white" stroke="black" points="369,-141.5 369,-169.5 520,-169.5 520,-141.5 369,-141.5"/>
<text text-anchor="start" x="377" y="-158.3" font-family="Helvetica,sans-Serif" font-size="9.00">__gnu_cxx::throw_allocator</text>
<text text-anchor="middle" x="444.5" y="-148.3" font-family="Helvetica,sans-Serif" font-size="9.00">_base&lt; _Tp, limit_condition &gt;</text>
</a>
</g>
</g>
<!-- Node0&#45;&gt;Node3 -->
<g id="edge3" class="edge">
<title>Node0&#45;&gt;Node3</title>
<path fill="none" stroke="midnightblue" d="M297.18,-119.96C323.87,-126.44 357.47,-134.6 385.74,-141.47"/>
<polygon fill="midnightblue" stroke="midnightblue" points="297.85,-116.52 287.31,-117.56 296.2,-123.32 297.85,-116.52"/>
</g>
<!-- Node5 -->
<g id="node6" class="node">
<title>Node5</title>
<g id="a_node6"><a xlink:href="a12454.html" target="_top" xlink:title="Allocator class with logging and exception generation control. Intended to be used as an allocator_ty...">
<polygon fill="white" stroke="black" points="375,-94.5 375,-122.5 514,-122.5 514,-94.5 375,-94.5"/>
<text text-anchor="start" x="383" y="-111.3" font-family="Helvetica,sans-Serif" font-size="9.00">__gnu_cxx::throw_allocator</text>
<text text-anchor="middle" x="444.5" y="-101.3" font-family="Helvetica,sans-Serif" font-size="9.00">_base&lt; _Tp, _Cond &gt;</text>
</a>
</g>
</g>
<!-- Node0&#45;&gt;Node5 -->
<g id="edge5" class="edge">
<title>Node0&#45;&gt;Node5</title>
<path fill="none" stroke="midnightblue" d="M327.34,-108.5C343.04,-108.5 359.46,-108.5 374.84,-108.5"/>
<polygon fill="midnightblue" stroke="midnightblue" points="327.13,-105 317.13,-108.5 327.13,-112 327.13,-105"/>
</g>
<!-- Node2 -->
<g id="node3" class="node">
<title>Node2</title>
<g id="a_node3"><a xlink:href="a12466.html" target="_top" xlink:title="Allocator throwing via random condition.">
<polygon fill="white" stroke="black" points="564,-47.5 564,-75.5 703,-75.5 703,-47.5 564,-47.5"/>
<text text-anchor="start" x="572" y="-64.3" font-family="Helvetica,sans-Serif" font-size="9.00">__gnu_cxx::throw_allocator</text>
<text text-anchor="middle" x="633.5" y="-54.3" font-family="Helvetica,sans-Serif" font-size="9.00">_random&lt; _Tp &gt;</text>
</a>
</g>
</g>
<!-- Node1&#45;&gt;Node2 -->
<g id="edge2" class="edge">
<title>Node1&#45;&gt;Node2</title>
<path fill="none" stroke="midnightblue" d="M538.18,-61.5C546.81,-61.5 555.45,-61.5 563.81,-61.5"/>
<polygon fill="midnightblue" stroke="midnightblue" points="538.07,-58 528.07,-61.5 538.07,-65 538.07,-58"/>
</g>
<!-- Node4 -->
<g id="node5" class="node">
<title>Node4</title>
<g id="a_node5"><a xlink:href="a12458.html" target="_top" xlink:title="Allocator throwing via limit condition.">
<polygon fill="white" stroke="black" points="564,-141.5 564,-169.5 703,-169.5 703,-141.5 564,-141.5"/>
<text text-anchor="start" x="572" y="-158.3" font-family="Helvetica,sans-Serif" font-size="9.00">__gnu_cxx::throw_allocator</text>
<text text-anchor="middle" x="633.5" y="-148.3" font-family="Helvetica,sans-Serif" font-size="9.00">_limit&lt; _Tp &gt;</text>
</a>
</g>
</g>
<!-- Node3&#45;&gt;Node4 -->
<g id="edge4" class="edge">
<title>Node3&#45;&gt;Node4</title>
<path fill="none" stroke="midnightblue" d="M530.45,-155.5C541.68,-155.5 553.07,-155.5 563.97,-155.5"/>
<polygon fill="midnightblue" stroke="midnightblue" points="530.21,-152 520.21,-155.5 530.21,-159 530.21,-152"/>
</g>
<!-- Node514 -->
<g id="node7" class="node">
<title>Node514</title>
<g id="a_node7"><a xlink:href="a12398.html" target="_top" xlink:title="Base struct for condition policy.">
<polygon fill="white" stroke="black" points="0,-99.5 0,-117.5 137,-117.5 137,-99.5 0,-99.5"/>
<text text-anchor="middle" x="68.5" y="-106.3" font-family="Helvetica,sans-Serif" font-size="9.00">__gnu_cxx::condition_base</text>
</a>
</g>
</g>
<!-- Node515 -->
<g id="node8" class="node">
<title>Node515</title>
<g id="a_node8"><a xlink:href="a12402.html" target="_top" xlink:title="Base class for incremental control and throw.">
<polygon fill="white" stroke="black" points="181,-146.5 181,-164.5 317,-164.5 317,-146.5 181,-146.5"/>
<text text-anchor="middle" x="249" y="-153.3" font-family="Helvetica,sans-Serif" font-size="9.00">__gnu_cxx::limit_condition</text>
</a>
</g>
</g>
<!-- Node514&#45;&gt;Node515 -->
<g id="edge6" class="edge">
<title>Node514&#45;&gt;Node515</title>
<path fill="none" stroke="midnightblue" d="M113.98,-120.21C144.83,-128.34 185.32,-139 213.69,-146.47"/>
<polygon fill="midnightblue" stroke="midnightblue" points="114.48,-116.72 103.92,-117.56 112.7,-123.49 114.48,-116.72"/>
</g>
<!-- Node518 -->
<g id="node11" class="node">
<title>Node518</title>
<g id="a_node11"><a xlink:href="a12422.html" target="_top" xlink:title="Base class for random probability control and throw.">
<polygon fill="white" stroke="black" points="173,-52.5 173,-70.5 325,-70.5 325,-52.5 173,-52.5"/>
<text text-anchor="middle" x="249" y="-59.3" font-family="Helvetica,sans-Serif" font-size="9.00">__gnu_cxx::random_condition</text>
</a>
</g>
</g>
<!-- Node514&#45;&gt;Node518 -->
<g id="edge10" class="edge">
<title>Node514&#45;&gt;Node518</title>
<path fill="none" stroke="midnightblue" d="M113.98,-96.79C144.83,-88.66 185.32,-78 213.69,-70.53"/>
<polygon fill="midnightblue" stroke="midnightblue" points="112.7,-93.51 103.92,-99.44 114.48,-100.28 112.7,-93.51"/>
</g>
<!-- Node515&#45;&gt;Node3 -->
<g id="edge7" class="edge">
<title>Node515&#45;&gt;Node3</title>
<path fill="none" stroke="midnightblue" d="M327.45,-155.5C341.11,-155.5 355.3,-155.5 368.87,-155.5"/>
<polygon fill="midnightblue" stroke="midnightblue" points="327.13,-152 317.13,-155.5 327.13,-159 327.13,-152"/>
</g>
<!-- Node516 -->
<g id="node9" class="node">
<title>Node516</title>
<g id="a_node9"><a xlink:href="a12442.html" target="_top" xlink:title=" ">
<polygon fill="white" stroke="black" points="380,-188.5 380,-216.5 509,-216.5 509,-188.5 380,-188.5"/>
<text text-anchor="start" x="388" y="-205.3" font-family="Helvetica,sans-Serif" font-size="9.00">__gnu_cxx::throw_value</text>
<text text-anchor="middle" x="444.5" y="-195.3" font-family="Helvetica,sans-Serif" font-size="9.00">_base&lt; limit_condition &gt;</text>
</a>
</g>
</g>
<!-- Node515&#45;&gt;Node516 -->
<g id="edge8" class="edge">
<title>Node515&#45;&gt;Node516</title>
<path fill="none" stroke="midnightblue" d="M297.18,-166.96C323.87,-173.44 357.47,-181.6 385.74,-188.47"/>
<polygon fill="midnightblue" stroke="midnightblue" points="297.85,-163.52 287.31,-164.56 296.2,-170.32 297.85,-163.52"/>
</g>
<!-- Node517 -->
<g id="node10" class="node">
<title>Node517</title>
<g id="a_node10"><a xlink:href="a12446.html" target="_top" xlink:title="Type throwing via limit condition.">
<polygon fill="white" stroke="black" points="571,-188.5 571,-216.5 696,-216.5 696,-188.5 571,-188.5"/>
<text text-anchor="start" x="579" y="-205.3" font-family="Helvetica,sans-Serif" font-size="9.00">__gnu_cxx::throw_value</text>
<text text-anchor="middle" x="633.5" y="-195.3" font-family="Helvetica,sans-Serif" font-size="9.00">_limit</text>
</a>
</g>
</g>
<!-- Node516&#45;&gt;Node517 -->
<g id="edge9" class="edge">
<title>Node516&#45;&gt;Node517</title>
<path fill="none" stroke="midnightblue" d="M519.49,-202.5C536.45,-202.5 554.31,-202.5 570.69,-202.5"/>
<polygon fill="midnightblue" stroke="midnightblue" points="519.07,-199 509.07,-202.5 519.07,-206 519.07,-199"/>
</g>
<!-- Node518&#45;&gt;Node1 -->
<g id="edge11" class="edge">
<title>Node518&#45;&gt;Node1</title>
<path fill="none" stroke="midnightblue" d="M335.32,-61.5C343.76,-61.5 352.33,-61.5 360.75,-61.5"/>
<polygon fill="midnightblue" stroke="midnightblue" points="335.09,-58 325.09,-61.5 335.09,-65 335.09,-58"/>
</g>
<!-- Node519 -->
<g id="node12" class="node">
<title>Node519</title>
<g id="a_node12"><a xlink:href="a12442.html" target="_top" xlink:title=" ">
<polygon fill="white" stroke="black" points="372,-0.5 372,-28.5 517,-28.5 517,-0.5 372,-0.5"/>
<text text-anchor="start" x="380" y="-17.3" font-family="Helvetica,sans-Serif" font-size="9.00">__gnu_cxx::throw_value</text>
<text text-anchor="middle" x="444.5" y="-7.3" font-family="Helvetica,sans-Serif" font-size="9.00">_base&lt; random_condition &gt;</text>
</a>
</g>
</g>
<!-- Node518&#45;&gt;Node519 -->
<g id="edge12" class="edge">
<title>Node518&#45;&gt;Node519</title>
<path fill="none" stroke="midnightblue" d="M297.18,-50.04C323.87,-43.56 357.47,-35.4 385.74,-28.53"/>
<polygon fill="midnightblue" stroke="midnightblue" points="296.2,-46.68 287.31,-52.44 297.85,-53.48 296.2,-46.68"/>
</g>
<!-- Node520 -->
<g id="node13" class="node">
<title>Node520</title>
<g id="a_node13"><a xlink:href="a12450.html" target="_top" xlink:title="Type throwing via random condition.">
<polygon fill="white" stroke="black" points="571,-0.5 571,-28.5 696,-28.5 696,-0.5 571,-0.5"/>
<text text-anchor="start" x="579" y="-17.3" font-family="Helvetica,sans-Serif" font-size="9.00">__gnu_cxx::throw_value</text>
<text text-anchor="middle" x="633.5" y="-7.3" font-family="Helvetica,sans-Serif" font-size="9.00">_random</text>
</a>
</g>
</g>
<!-- Node519&#45;&gt;Node520 -->
<g id="edge13" class="edge">
<title>Node519&#45;&gt;Node520</title>
<path fill="none" stroke="midnightblue" d="M527.33,-14.5C541.98,-14.5 557.02,-14.5 570.98,-14.5"/>
<polygon fill="midnightblue" stroke="midnightblue" points="527.26,-11 517.26,-14.5 527.26,-18 527.26,-11"/>
</g>
</g>
</svg>
