<?xml version="1.0" encoding="UTF-8" standalone="no"?>
<!DOCTYPE svg PUBLIC "-//W3C//DTD SVG 1.1//EN"
 "http://www.w3.org/Graphics/SVG/1.1/DTD/svg11.dtd">
<!-- Generated by graphviz version 2.50.0 (0)
 -->
<!-- Title: Graphical Class Hierarchy Pages: 1 -->
<svg width="366pt" height="94pt"
 viewBox="0.00 0.00 366.00 94.00" xmlns="http://www.w3.org/2000/svg" xmlns:xlink="http://www.w3.org/1999/xlink">
<g id="graph0" class="graph" transform="scale(1 1) rotate(0) translate(4 90)">
<title>Graphical Class Hierarchy</title>
<polygon fill="white" stroke="transparent" points="-4,4 -4,-90 362,-90 362,4 -4,4"/>
<!-- Node0 -->
<g id="node1" class="node">
<title>Node0</title>
<g id="a_node1"><a xlink:href="a08206.html" target="_top" xlink:title=" ">
<polygon fill="white" stroke="black" points="0,-21.5 0,-59.5 169,-59.5 169,-21.5 0,-21.5"/>
<text text-anchor="start" x="8" y="-48.3" font-family="Helvetica,sans-Serif" font-size="9.00">std::unary_function</text>
<text text-anchor="start" x="8" y="-38.3" font-family="Helvetica,sans-Serif" font-size="9.00">&lt; _Operation2::argument</text>
<text text-anchor="middle" x="84.5" y="-28.3" font-family="Helvetica,sans-Serif" font-size="9.00">_type, _Operation1::result_type &gt;</text>
</a>
</g>
</g>
<!-- Node1 -->
<g id="node2" class="node">
<title>Node1</title>
<g id="a_node2"><a xlink:href="a09870.html" target="_top" xlink:title="An SGI extension .">
<polygon fill="white" stroke="black" points="208.5,-47.5 208.5,-85.5 354.5,-85.5 354.5,-47.5 208.5,-47.5"/>
<text text-anchor="start" x="216.5" y="-74.3" font-family="Helvetica,sans-Serif" font-size="9.00">__gnu_cxx::binary_compose</text>
<text text-anchor="start" x="216.5" y="-64.3" font-family="Helvetica,sans-Serif" font-size="9.00">&lt; _Operation1, _Operation2,</text>
<text text-anchor="middle" x="281.5" y="-54.3" font-family="Helvetica,sans-Serif" font-size="9.00"> _Operation3 &gt;</text>
</a>
</g>
</g>
<!-- Node0&#45;&gt;Node1 -->
<g id="edge1" class="edge">
<title>Node0&#45;&gt;Node1</title>
<path fill="none" stroke="midnightblue" d="M179.25,-53C189.08,-54.31 198.96,-55.63 208.49,-56.9"/>
<polygon fill="midnightblue" stroke="midnightblue" points="179.42,-49.49 169.05,-51.64 178.5,-56.43 179.42,-49.49"/>
</g>
<!-- Node2 -->
<g id="node3" class="node">
<title>Node2</title>
<g id="a_node3"><a xlink:href="a09866.html" target="_top" xlink:title="An SGI extension .">
<polygon fill="white" stroke="black" points="205,-0.5 205,-28.5 358,-28.5 358,-0.5 205,-0.5"/>
<text text-anchor="start" x="213" y="-17.3" font-family="Helvetica,sans-Serif" font-size="9.00">__gnu_cxx::unary_compose</text>
<text text-anchor="middle" x="281.5" y="-7.3" font-family="Helvetica,sans-Serif" font-size="9.00">&lt; _Operation1, _Operation2 &gt;</text>
</a>
</g>
</g>
<!-- Node0&#45;&gt;Node2 -->
<g id="edge2" class="edge">
<title>Node0&#45;&gt;Node2</title>
<path fill="none" stroke="midnightblue" d="M179.13,-28.02C187.74,-26.87 196.4,-25.71 204.83,-24.59"/>
<polygon fill="midnightblue" stroke="midnightblue" points="178.5,-24.57 169.05,-29.36 179.42,-31.51 178.5,-24.57"/>
</g>
</g>
</svg>
