<?xml version="1.0" encoding="UTF-8" standalone="no"?>
<!DOCTYPE svg PUBLIC "-//W3C//DTD SVG 1.1//EN"
 "http://www.w3.org/Graphics/SVG/1.1/DTD/svg11.dtd">
<!-- Generated by graphviz version 2.50.0 (0)
 -->
<!-- Title: Graphical Class Hierarchy Pages: 1 -->
<svg width="320pt" height="84pt"
 viewBox="0.00 0.00 320.00 84.00" xmlns="http://www.w3.org/2000/svg" xmlns:xlink="http://www.w3.org/1999/xlink">
<g id="graph0" class="graph" transform="scale(1 1) rotate(0) translate(4 80)">
<title>Graphical Class Hierarchy</title>
<polygon fill="white" stroke="transparent" points="-4,4 -4,-80 316,-80 316,4 -4,4"/>
<!-- Node0 -->
<g id="node1" class="node">
<title>Node0</title>
<g id="a_node1"><a xlink:href="a02878.html" target="_top" xlink:title="Class memory_resource.">
<polygon fill="white" stroke="black" points="0,-28.5 0,-46.5 142,-46.5 142,-28.5 0,-28.5"/>
<text text-anchor="middle" x="71" y="-35.3" font-family="Helvetica,sans-Serif" font-size="9.00">std::pmr::memory_resource</text>
</a>
</g>
</g>
<!-- Node1 -->
<g id="node2" class="node">
<title>Node1</title>
<g id="a_node2"><a xlink:href="a02902.html" target="_top" xlink:title="A thread&#45;safe memory resource that manages pools of fixed&#45;size blocks.">
<polygon fill="white" stroke="black" points="184,-47.5 184,-75.5 306,-75.5 306,-47.5 184,-47.5"/>
<text text-anchor="start" x="192" y="-64.3" font-family="Helvetica,sans-Serif" font-size="9.00">std::pmr::synchronized</text>
<text text-anchor="middle" x="245" y="-54.3" font-family="Helvetica,sans-Serif" font-size="9.00">_pool_resource</text>
</a>
</g>
</g>
<!-- Node0&#45;&gt;Node1 -->
<g id="edge1" class="edge">
<title>Node0&#45;&gt;Node1</title>
<path fill="none" stroke="midnightblue" d="M146.48,-47.89C159,-49.64 171.84,-51.43 183.93,-53.12"/>
<polygon fill="midnightblue" stroke="midnightblue" points="146.92,-44.42 136.54,-46.5 145.96,-51.35 146.92,-44.42"/>
</g>
<!-- Node2 -->
<g id="node3" class="node">
<title>Node2</title>
<g id="a_node3"><a xlink:href="a02906.html" target="_top" xlink:title="A non&#45;thread&#45;safe memory resource that manages pools of fixed&#45;size blocks.">
<polygon fill="white" stroke="black" points="178,-0.5 178,-28.5 312,-28.5 312,-0.5 178,-0.5"/>
<text text-anchor="start" x="186" y="-17.3" font-family="Helvetica,sans-Serif" font-size="9.00">std::pmr::unsynchronized</text>
<text text-anchor="middle" x="245" y="-7.3" font-family="Helvetica,sans-Serif" font-size="9.00">_pool_resource</text>
</a>
</g>
</g>
<!-- Node0&#45;&gt;Node2 -->
<g id="edge2" class="edge">
<title>Node0&#45;&gt;Node2</title>
<path fill="none" stroke="midnightblue" d="M149.63,-27.12C159.05,-25.86 168.6,-24.58 177.84,-23.35"/>
<polygon fill="midnightblue" stroke="midnightblue" points="148.93,-23.68 139.49,-28.48 149.86,-30.62 148.93,-23.68"/>
</g>
</g>
</svg>
