<?xml version="1.0" encoding="UTF-8" standalone="no"?>
<!DOCTYPE svg PUBLIC "-//W3C//DTD SVG 1.1//EN"
 "http://www.w3.org/Graphics/SVG/1.1/DTD/svg11.dtd">
<!-- Generated by graphviz version 2.50.0 (0)
 -->
<!-- Title: Graphical Class Hierarchy Pages: 1 -->
<svg width="293pt" height="131pt"
 viewBox="0.00 0.00 293.00 131.00" xmlns="http://www.w3.org/2000/svg" xmlns:xlink="http://www.w3.org/1999/xlink">
<g id="graph0" class="graph" transform="scale(1 1) rotate(0) translate(4 127)">
<title>Graphical Class Hierarchy</title>
<polygon fill="white" stroke="transparent" points="-4,4 -4,-127 289,-127 289,4 -4,4"/>
<!-- Node0 -->
<g id="node1" class="node">
<title>Node0</title>
<g id="a_node1"><a xlink:href="a10438.html" target="_top" xlink:title="Base class for for std::find() variants.">
<polygon fill="white" stroke="black" points="0,-52.5 0,-70.5 123,-70.5 123,-52.5 0,-52.5"/>
<text text-anchor="middle" x="61.5" y="-59.3" font-family="Helvetica,sans-Serif" font-size="9.00">__gnu_parallel::find_tag</text>
</a>
</g>
</g>
<!-- Node1 -->
<g id="node2" class="node">
<title>Node1</title>
<g id="a_node2"><a xlink:href="a10474.html" target="_top" xlink:title="Selects the constant block size variant for std::find().">
<polygon fill="white" stroke="black" points="159,-94.5 159,-122.5 285,-122.5 285,-94.5 159,-94.5"/>
<text text-anchor="start" x="167" y="-111.3" font-family="Helvetica,sans-Serif" font-size="9.00">__gnu_parallel::constant</text>
<text text-anchor="middle" x="222" y="-101.3" font-family="Helvetica,sans-Serif" font-size="9.00">_size_blocks_tag</text>
</a>
</g>
</g>
<!-- Node0&#45;&gt;Node1 -->
<g id="edge1" class="edge">
<title>Node0&#45;&gt;Node1</title>
<path fill="none" stroke="midnightblue" d="M102.89,-73.48C124.46,-79.87 151.15,-87.79 173.69,-94.47"/>
<polygon fill="midnightblue" stroke="midnightblue" points="103.64,-70.05 93.06,-70.56 101.65,-76.76 103.64,-70.05"/>
</g>
<!-- Node2 -->
<g id="node3" class="node">
<title>Node2</title>
<g id="a_node3"><a xlink:href="a10478.html" target="_top" xlink:title="Selects the equal splitting variant for std::find().">
<polygon fill="white" stroke="black" points="166.5,-47.5 166.5,-75.5 277.5,-75.5 277.5,-47.5 166.5,-47.5"/>
<text text-anchor="start" x="174.5" y="-64.3" font-family="Helvetica,sans-Serif" font-size="9.00">__gnu_parallel::equal</text>
<text text-anchor="middle" x="222" y="-54.3" font-family="Helvetica,sans-Serif" font-size="9.00">_split_tag</text>
</a>
</g>
</g>
<!-- Node0&#45;&gt;Node2 -->
<g id="edge2" class="edge">
<title>Node0&#45;&gt;Node2</title>
<path fill="none" stroke="midnightblue" d="M133.38,-61.5C144.43,-61.5 155.69,-61.5 166.3,-61.5"/>
<polygon fill="midnightblue" stroke="midnightblue" points="133.33,-58 123.33,-61.5 133.33,-65 133.33,-58"/>
</g>
<!-- Node3 -->
<g id="node4" class="node">
<title>Node3</title>
<g id="a_node4"><a xlink:href="a10470.html" target="_top" xlink:title="Selects the growing block size variant for std::find().">
<polygon fill="white" stroke="black" points="160.5,-0.5 160.5,-28.5 283.5,-28.5 283.5,-0.5 160.5,-0.5"/>
<text text-anchor="start" x="168.5" y="-17.3" font-family="Helvetica,sans-Serif" font-size="9.00">__gnu_parallel::growing</text>
<text text-anchor="middle" x="222" y="-7.3" font-family="Helvetica,sans-Serif" font-size="9.00">_blocks_tag</text>
</a>
</g>
</g>
<!-- Node0&#45;&gt;Node3 -->
<g id="edge3" class="edge">
<title>Node0&#45;&gt;Node3</title>
<path fill="none" stroke="midnightblue" d="M102.89,-49.52C124.46,-43.13 151.15,-35.21 173.69,-28.53"/>
<polygon fill="midnightblue" stroke="midnightblue" points="101.65,-46.24 93.06,-52.44 103.64,-52.95 101.65,-46.24"/>
</g>
</g>
</svg>
