<?xml version="1.0" encoding="UTF-8" standalone="no"?>
<!DOCTYPE svg PUBLIC "-//W3C//DTD SVG 1.1//EN"
 "http://www.w3.org/Graphics/SVG/1.1/DTD/svg11.dtd">
<!-- Generated by graphviz version 2.50.0 (0)
 -->
<!-- Title: Graphical Class Hierarchy Pages: 1 -->
<svg width="293pt" height="57pt"
 viewBox="0.00 0.00 293.00 57.00" xmlns="http://www.w3.org/2000/svg" xmlns:xlink="http://www.w3.org/1999/xlink">
<g id="graph0" class="graph" transform="scale(1 1) rotate(0) translate(4 53)">
<title>Graphical Class Hierarchy</title>
<polygon fill="white" stroke="transparent" points="-4,4 -4,-53 289,-53 289,4 -4,4"/>
<!-- Node0 -->
<g id="node1" class="node">
<title>Node0</title>
<g id="a_node1"><a xlink:href="a08646.html" target="_top" xlink:title=" ">
<polygon fill="white" stroke="black" points="0,-0.5 0,-48.5 126,-48.5 126,-0.5 0,-0.5"/>
<text text-anchor="start" x="8" y="-37.3" font-family="Helvetica,sans-Serif" font-size="9.00">std::iterator&lt; input</text>
<text text-anchor="start" x="8" y="-27.3" font-family="Helvetica,sans-Serif" font-size="9.00">_iterator_tag, _CharT,</text>
<text text-anchor="start" x="8" y="-17.3" font-family="Helvetica,sans-Serif" font-size="9.00"> _Traits::off_type, _CharT</text>
<text text-anchor="middle" x="63" y="-7.3" font-family="Helvetica,sans-Serif" font-size="9.00"> *, _CharT &gt;</text>
</a>
</g>
</g>
<!-- Node1 -->
<g id="node2" class="node">
<title>Node1</title>
<g id="a_node2"><a xlink:href="a02770.html" target="_top" xlink:title="Provides input iterator semantics for streambufs.">
<polygon fill="white" stroke="black" points="162,-10.5 162,-38.5 285,-38.5 285,-10.5 162,-10.5"/>
<text text-anchor="start" x="170" y="-27.3" font-family="Helvetica,sans-Serif" font-size="9.00">std::istreambuf_iterator</text>
<text text-anchor="middle" x="223.5" y="-17.3" font-family="Helvetica,sans-Serif" font-size="9.00">&lt; _CharT, _Traits &gt;</text>
</a>
</g>
</g>
<!-- Node0&#45;&gt;Node1 -->
<g id="edge1" class="edge">
<title>Node0&#45;&gt;Node1</title>
<path fill="none" stroke="midnightblue" d="M136.45,-24.5C144.92,-24.5 153.5,-24.5 161.79,-24.5"/>
<polygon fill="midnightblue" stroke="midnightblue" points="136.19,-21 126.19,-24.5 136.19,-28 136.19,-21"/>
</g>
</g>
</svg>
