<?xml version="1.0" encoding="UTF-8" standalone="no"?>
<!DOCTYPE svg PUBLIC "-//W3C//DTD SVG 1.1//EN"
 "http://www.w3.org/Graphics/SVG/1.1/DTD/svg11.dtd">
<!-- Generated by graphviz version 2.50.0 (0)
 -->
<!-- Title: Graphical Class Hierarchy Pages: 1 -->
<svg width="282pt" height="121pt"
 viewBox="0.00 0.00 282.00 121.00" xmlns="http://www.w3.org/2000/svg" xmlns:xlink="http://www.w3.org/1999/xlink">
<g id="graph0" class="graph" transform="scale(1 1) rotate(0) translate(4 117)">
<title>Graphical Class Hierarchy</title>
<polygon fill="white" stroke="transparent" points="-4,4 -4,-117 278,-117 278,4 -4,4"/>
<!-- Node0 -->
<g id="node1" class="node">
<title>Node0</title>
<g id="a_node1"><a xlink:href="a06482.html" target="_top" xlink:title="An allocator that uses global new, as per C++03 [20.4.1].">
<polygon fill="white" stroke="black" points="0,-37.5 0,-65.5 107,-65.5 107,-37.5 0,-37.5"/>
<text text-anchor="start" x="8" y="-54.3" font-family="Helvetica,sans-Serif" font-size="9.00">std::__new_allocator</text>
<text text-anchor="middle" x="53.5" y="-44.3" font-family="Helvetica,sans-Serif" font-size="9.00">&lt; _Tp &gt;</text>
</a>
</g>
</g>
<!-- Node1 -->
<g id="node2" class="node">
<title>Node1</title>
<g id="a_node2"><a xlink:href="a05054.html" target="_top" xlink:title=" ">
<polygon fill="white" stroke="black" points="153.5,-84.5 153.5,-112.5 263.5,-112.5 263.5,-84.5 153.5,-84.5"/>
<text text-anchor="start" x="161.5" y="-101.3" font-family="Helvetica,sans-Serif" font-size="9.00">std::allocator&lt; value</text>
<text text-anchor="middle" x="208.5" y="-91.3" font-family="Helvetica,sans-Serif" font-size="9.00">_type &gt;</text>
</a>
</g>
</g>
<!-- Node0&#45;&gt;Node1 -->
<g id="edge1" class="edge">
<title>Node0&#45;&gt;Node1</title>
<path fill="none" stroke="midnightblue" d="M110.21,-68.61C127.19,-73.83 145.66,-79.5 161.89,-84.49"/>
<polygon fill="midnightblue" stroke="midnightblue" points="110.99,-65.19 100.41,-65.6 108.94,-71.88 110.99,-65.19"/>
</g>
<!-- Node2 -->
<g id="node3" class="node">
<title>Node2</title>
<g id="a_node3"><a xlink:href="a12210.html" target="_top" xlink:title="An allocator that uses global new, as per C++03 [20.4.1].">
<polygon fill="white" stroke="black" points="143,-37.5 143,-65.5 274,-65.5 274,-37.5 143,-37.5"/>
<text text-anchor="start" x="151" y="-54.3" font-family="Helvetica,sans-Serif" font-size="9.00">__gnu_cxx::new_allocator</text>
<text text-anchor="middle" x="208.5" y="-44.3" font-family="Helvetica,sans-Serif" font-size="9.00">&lt; _Tp &gt;</text>
</a>
</g>
</g>
<!-- Node0&#45;&gt;Node2 -->
<g id="edge2" class="edge">
<title>Node0&#45;&gt;Node2</title>
<path fill="none" stroke="midnightblue" d="M117.29,-51.5C125.73,-51.5 134.39,-51.5 142.85,-51.5"/>
<polygon fill="midnightblue" stroke="midnightblue" points="117.15,-48 107.15,-51.5 117.15,-55 117.15,-48"/>
</g>
<!-- Node3 -->
<g id="node4" class="node">
<title>Node3</title>
<g id="a_node4"><a xlink:href="a05054.html" target="_top" xlink:title="The standard allocator, as per C++03 [20.4.1].">
<polygon fill="white" stroke="black" points="152.5,-0.5 152.5,-18.5 264.5,-18.5 264.5,-0.5 152.5,-0.5"/>
<text text-anchor="middle" x="208.5" y="-7.3" font-family="Helvetica,sans-Serif" font-size="9.00">std::allocator&lt; _Tp &gt;</text>
</a>
</g>
</g>
<!-- Node0&#45;&gt;Node3 -->
<g id="edge3" class="edge">
<title>Node0&#45;&gt;Node3</title>
<path fill="none" stroke="midnightblue" d="M115.56,-34.74C135.6,-29.24 157.11,-23.33 174.28,-18.62"/>
<polygon fill="midnightblue" stroke="midnightblue" points="114.59,-31.38 105.87,-37.4 116.44,-38.13 114.59,-31.38"/>
</g>
</g>
</svg>
