<?xml version="1.0" encoding="UTF-8" standalone="no"?>
<!DOCTYPE svg PUBLIC "-//W3C//DTD SVG 1.1//EN"
 "http://www.w3.org/Graphics/SVG/1.1/DTD/svg11.dtd">
<!-- Generated by graphviz version 2.50.0 (0)
 -->
<!-- Title: Graphical Class Hierarchy Pages: 1 -->
<svg width="332pt" height="97pt"
 viewBox="0.00 0.00 332.00 97.00" xmlns="http://www.w3.org/2000/svg" xmlns:xlink="http://www.w3.org/1999/xlink">
<g id="graph0" class="graph" transform="scale(1 1) rotate(0) translate(4 93)">
<title>Graphical Class Hierarchy</title>
<polygon fill="white" stroke="transparent" points="-4,4 -4,-93 328,-93 328,4 -4,4"/>
<!-- Node0 -->
<g id="node1" class="node">
<title>Node0</title>
<g id="a_node1"><a xlink:href="a08646.html" target="_top" xlink:title=" ">
<polygon fill="white" stroke="black" points="0,-0.5 0,-88.5 181,-88.5 181,-0.5 0,-0.5"/>
<text text-anchor="start" x="8" y="-77.3" font-family="Helvetica,sans-Serif" font-size="9.00">std::iterator&lt; iterator</text>
<text text-anchor="start" x="8" y="-67.3" font-family="Helvetica,sans-Serif" font-size="9.00">_traits&lt; _Iterator &gt;::</text>
<text text-anchor="start" x="8" y="-57.3" font-family="Helvetica,sans-Serif" font-size="9.00">iterator_category, iterator</text>
<text text-anchor="start" x="8" y="-47.3" font-family="Helvetica,sans-Serif" font-size="9.00">_traits&lt; _Iterator &gt;::value</text>
<text text-anchor="start" x="8" y="-37.3" font-family="Helvetica,sans-Serif" font-size="9.00">_type, iterator_traits&lt; _Iterator</text>
<text text-anchor="start" x="8" y="-27.3" font-family="Helvetica,sans-Serif" font-size="9.00"> &gt;::difference_type, iterator_traits</text>
<text text-anchor="start" x="8" y="-17.3" font-family="Helvetica,sans-Serif" font-size="9.00">&lt; _Iterator &gt;::pointer, iterator_traits</text>
<text text-anchor="middle" x="90.5" y="-7.3" font-family="Helvetica,sans-Serif" font-size="9.00">&lt; _Iterator &gt;::reference &gt;</text>
</a>
</g>
</g>
<!-- Node1 -->
<g id="node2" class="node">
<title>Node1</title>
<g id="a_node2"><a xlink:href="a08518.html" target="_top" xlink:title=" ">
<polygon fill="white" stroke="black" points="217,-30.5 217,-58.5 324,-58.5 324,-30.5 217,-30.5"/>
<text text-anchor="start" x="225" y="-47.3" font-family="Helvetica,sans-Serif" font-size="9.00">std::reverse_iterator</text>
<text text-anchor="middle" x="270.5" y="-37.3" font-family="Helvetica,sans-Serif" font-size="9.00">&lt; _Iterator &gt;</text>
</a>
</g>
</g>
<!-- Node0&#45;&gt;Node1 -->
<g id="edge1" class="edge">
<title>Node0&#45;&gt;Node1</title>
<path fill="none" stroke="midnightblue" d="M191.08,-44.5C199.96,-44.5 208.69,-44.5 216.92,-44.5"/>
<polygon fill="midnightblue" stroke="midnightblue" points="191.02,-41 181.02,-44.5 191.02,-48 191.02,-41"/>
</g>
</g>
</svg>
