<?xml version="1.0" encoding="UTF-8" standalone="no"?>
<!DOCTYPE svg PUBLIC "-//W3C//DTD SVG 1.1//EN"
 "http://www.w3.org/Graphics/SVG/1.1/DTD/svg11.dtd">
<!-- Generated by graphviz version 2.50.0 (0)
 -->
<!-- Title: Graphical Class Hierarchy Pages: 1 -->
<svg width="264pt" height="104pt"
 viewBox="0.00 0.00 264.00 104.00" xmlns="http://www.w3.org/2000/svg" xmlns:xlink="http://www.w3.org/1999/xlink">
<g id="graph0" class="graph" transform="scale(1 1) rotate(0) translate(4 100)">
<title>Graphical Class Hierarchy</title>
<polygon fill="white" stroke="transparent" points="-4,4 -4,-100 260,-100 260,4 -4,4"/>
<!-- Node0 -->
<g id="node1" class="node">
<title>Node0</title>
<g id="a_node1"><a xlink:href="a13242.html" target="_top" xlink:title="Stored hash.">
<polygon fill="white" stroke="black" points="1,-62.5 1,-90.5 115,-90.5 115,-62.5 1,-62.5"/>
<text text-anchor="start" x="9" y="-79.3" font-family="Helvetica,sans-Serif" font-size="9.00">__gnu_pbds::detail</text>
<text text-anchor="middle" x="58" y="-69.3" font-family="Helvetica,sans-Serif" font-size="9.00">::stored_hash&lt; _Th &gt;</text>
</a>
</g>
</g>
<!-- Node1 -->
<g id="node2" class="node">
<title>Node1</title>
<g id="a_node2"><a xlink:href="a13246.html" target="_top" xlink:title="Primary template for representation of stored data. Two types of data can be stored: value and hash.">
<polygon fill="white" stroke="black" points="152,-57.5 152,-95.5 256,-95.5 256,-57.5 152,-57.5"/>
<text text-anchor="start" x="160" y="-84.3" font-family="Helvetica,sans-Serif" font-size="9.00">__gnu_pbds::detail</text>
<text text-anchor="start" x="160" y="-74.3" font-family="Helvetica,sans-Serif" font-size="9.00">::stored_data&lt; _Tv,</text>
<text text-anchor="middle" x="204" y="-64.3" font-family="Helvetica,sans-Serif" font-size="9.00"> _Th, Store_Hash &gt;</text>
</a>
</g>
</g>
<!-- Node0&#45;&gt;Node1 -->
<g id="edge1" class="edge">
<title>Node0&#45;&gt;Node1</title>
<path fill="none" stroke="midnightblue" d="M125.18,-76.5C134.18,-76.5 143.32,-76.5 152,-76.5"/>
<polygon fill="midnightblue" stroke="midnightblue" points="125.09,-73 115.09,-76.5 125.09,-80 125.09,-73"/>
</g>
<!-- Node1248 -->
<g id="node3" class="node">
<title>Node1248</title>
<g id="a_node3"><a xlink:href="a13238.html" target="_top" xlink:title="Stored value.">
<polygon fill="white" stroke="black" points="0,-10.5 0,-38.5 116,-38.5 116,-10.5 0,-10.5"/>
<text text-anchor="start" x="8" y="-27.3" font-family="Helvetica,sans-Serif" font-size="9.00">__gnu_pbds::detail</text>
<text text-anchor="middle" x="58" y="-17.3" font-family="Helvetica,sans-Serif" font-size="9.00">::stored_value&lt; _Tv &gt;</text>
</a>
</g>
</g>
<!-- Node1248&#45;&gt;Node1 -->
<g id="edge2" class="edge">
<title>Node1248&#45;&gt;Node1</title>
<path fill="none" stroke="midnightblue" d="M107.57,-42.04C121.81,-47.18 137.42,-52.82 151.82,-58.02"/>
<polygon fill="midnightblue" stroke="midnightblue" points="108.56,-38.68 97.97,-38.57 106.19,-45.26 108.56,-38.68"/>
</g>
<!-- Node1249 -->
<g id="node4" class="node">
<title>Node1249</title>
<g id="a_node4"><a xlink:href="a13250.html" target="_top" xlink:title="Specialization for representation of stored data of just value type.">
<polygon fill="white" stroke="black" points="152,-0.5 152,-38.5 256,-38.5 256,-0.5 152,-0.5"/>
<text text-anchor="start" x="160" y="-27.3" font-family="Helvetica,sans-Serif" font-size="9.00">__gnu_pbds::detail</text>
<text text-anchor="start" x="160" y="-17.3" font-family="Helvetica,sans-Serif" font-size="9.00">::stored_data&lt; _Tv,</text>
<text text-anchor="middle" x="204" y="-7.3" font-family="Helvetica,sans-Serif" font-size="9.00"> _Th, false &gt;</text>
</a>
</g>
</g>
<!-- Node1248&#45;&gt;Node1249 -->
<g id="edge3" class="edge">
<title>Node1248&#45;&gt;Node1249</title>
<path fill="none" stroke="midnightblue" d="M126.35,-22.16C134.95,-21.86 143.64,-21.56 151.93,-21.27"/>
<polygon fill="midnightblue" stroke="midnightblue" points="126.2,-18.66 116.33,-22.51 126.44,-25.66 126.2,-18.66"/>
</g>
</g>
</svg>
