<?xml version="1.0" encoding="UTF-8" standalone="no"?>
<!DOCTYPE svg PUBLIC "-//W3C//DTD SVG 1.1//EN"
 "http://www.w3.org/Graphics/SVG/1.1/DTD/svg11.dtd">
<!-- Generated by graphviz version 2.50.0 (0)
 -->
<!-- Title: Graphical Class Hierarchy Pages: 1 -->
<svg width="285pt" height="47pt"
 viewBox="0.00 0.00 285.00 47.00" xmlns="http://www.w3.org/2000/svg" xmlns:xlink="http://www.w3.org/1999/xlink">
<g id="graph0" class="graph" transform="scale(1 1) rotate(0) translate(4 43)">
<title>Graphical Class Hierarchy</title>
<polygon fill="white" stroke="transparent" points="-4,4 -4,-43 281,-43 281,4 -4,4"/>
<!-- Node0 -->
<g id="node1" class="node">
<title>Node0</title>
<g id="a_node1"><a xlink:href="a08186.html" target="_top" xlink:title=" ">
<polygon fill="white" stroke="black" points="0,-0.5 0,-38.5 107,-38.5 107,-0.5 0,-0.5"/>
<text text-anchor="start" x="8" y="-27.3" font-family="Helvetica,sans-Serif" font-size="9.00">std::_Deque_base&lt; </text>
<text text-anchor="start" x="8" y="-17.3" font-family="Helvetica,sans-Serif" font-size="9.00">_Tp, std::allocator</text>
<text text-anchor="middle" x="53.5" y="-7.3" font-family="Helvetica,sans-Serif" font-size="9.00">&lt; _Tp &gt; &gt;</text>
</a>
</g>
</g>
<!-- Node1 -->
<g id="node2" class="node">
<title>Node1</title>
<g id="a_node2"><a xlink:href="a08198.html" target="_top" xlink:title="A standard container using fixed&#45;size memory allocation and constant&#45;time manipulation of elements at...">
<polygon fill="white" stroke="black" points="143,-10.5 143,-28.5 277,-28.5 277,-10.5 143,-10.5"/>
<text text-anchor="middle" x="210" y="-17.3" font-family="Helvetica,sans-Serif" font-size="9.00">std::deque&lt; _Tp, _Alloc &gt;</text>
</a>
</g>
</g>
<!-- Node0&#45;&gt;Node1 -->
<g id="edge1" class="edge">
<title>Node0&#45;&gt;Node1</title>
<path fill="none" stroke="darkgreen" d="M117.34,-19.5C125.74,-19.5 134.38,-19.5 142.84,-19.5"/>
<polygon fill="darkgreen" stroke="darkgreen" points="117.24,-16 107.24,-19.5 117.24,-23 117.24,-16"/>
</g>
</g>
</svg>
