<?xml version="1.0" encoding="UTF-8" standalone="no"?>
<!DOCTYPE svg PUBLIC "-//W3C//DTD SVG 1.1//EN"
 "http://www.w3.org/Graphics/SVG/1.1/DTD/svg11.dtd">
<!-- Generated by graphviz version 2.50.0 (0)
 -->
<!-- Title: Graphical Class Hierarchy Pages: 1 -->
<svg width="470pt" height="94pt"
 viewBox="0.00 0.00 470.00 94.00" xmlns="http://www.w3.org/2000/svg" xmlns:xlink="http://www.w3.org/1999/xlink">
<g id="graph0" class="graph" transform="scale(1 1) rotate(0) translate(4 90)">
<title>Graphical Class Hierarchy</title>
<polygon fill="white" stroke="transparent" points="-4,4 -4,-90 466,-90 466,4 -4,4"/>
<!-- Node0 -->
<g id="node1" class="node">
<title>Node0</title>
<g id="a_node1"><a xlink:href="a02738.html" target="_top" xlink:title=" ">
<polygon fill="white" stroke="black" points="0,-21.5 0,-59.5 132,-59.5 132,-21.5 0,-21.5"/>
<text text-anchor="start" x="8" y="-48.3" font-family="Helvetica,sans-Serif" font-size="9.00">std::basic_streambuf</text>
<text text-anchor="start" x="8" y="-38.3" font-family="Helvetica,sans-Serif" font-size="9.00">&lt; _CharT, std::char_traits</text>
<text text-anchor="middle" x="66" y="-28.3" font-family="Helvetica,sans-Serif" font-size="9.00">&lt; _CharT &gt; &gt;</text>
</a>
</g>
</g>
<!-- Node1 -->
<g id="node2" class="node">
<title>Node1</title>
<g id="a_node2"><a xlink:href="a02362.html" target="_top" xlink:title=" ">
<polygon fill="white" stroke="black" points="181.5,-47.5 181.5,-85.5 288.5,-85.5 288.5,-47.5 181.5,-47.5"/>
<text text-anchor="start" x="189.5" y="-74.3" font-family="Helvetica,sans-Serif" font-size="9.00">std::basic_filebuf</text>
<text text-anchor="start" x="189.5" y="-64.3" font-family="Helvetica,sans-Serif" font-size="9.00">&lt; _CharT, std::char</text>
<text text-anchor="middle" x="235" y="-54.3" font-family="Helvetica,sans-Serif" font-size="9.00">_traits&lt; _CharT &gt; &gt;</text>
</a>
</g>
</g>
<!-- Node0&#45;&gt;Node1 -->
<g id="edge1" class="edge">
<title>Node0&#45;&gt;Node1</title>
<path fill="none" stroke="midnightblue" d="M142.08,-52.19C155.3,-54.25 168.81,-56.35 181.26,-58.29"/>
<polygon fill="midnightblue" stroke="midnightblue" points="142.46,-48.71 132.04,-50.63 141.39,-55.62 142.46,-48.71"/>
</g>
<!-- Node3 -->
<g id="node4" class="node">
<title>Node3</title>
<g id="a_node4"><a xlink:href="a12386.html" target="_top" xlink:title="Provides a layer of compatibility for C.">
<polygon fill="white" stroke="black" points="168,-0.5 168,-28.5 302,-28.5 302,-0.5 168,-0.5"/>
<text text-anchor="start" x="176" y="-17.3" font-family="Helvetica,sans-Serif" font-size="9.00">__gnu_cxx::stdio_sync</text>
<text text-anchor="middle" x="235" y="-7.3" font-family="Helvetica,sans-Serif" font-size="9.00">_filebuf&lt; _CharT, _Traits &gt;</text>
</a>
</g>
</g>
<!-- Node0&#45;&gt;Node3 -->
<g id="edge3" class="edge">
<title>Node0&#45;&gt;Node3</title>
<path fill="none" stroke="midnightblue" d="M142.04,-28.82C150.61,-27.48 159.31,-26.13 167.76,-24.81"/>
<polygon fill="midnightblue" stroke="midnightblue" points="141.39,-25.38 132.04,-30.37 142.46,-32.29 141.39,-25.38"/>
</g>
<!-- Node2 -->
<g id="node3" class="node">
<title>Node2</title>
<g id="a_node3"><a xlink:href="a12382.html" target="_top" xlink:title="Provides a layer of compatibility for C/POSIX.">
<polygon fill="white" stroke="black" points="338,-52.5 338,-80.5 462,-80.5 462,-52.5 338,-52.5"/>
<text text-anchor="start" x="346" y="-69.3" font-family="Helvetica,sans-Serif" font-size="9.00">__gnu_cxx::stdio_filebuf</text>
<text text-anchor="middle" x="400" y="-59.3" font-family="Helvetica,sans-Serif" font-size="9.00">&lt; _CharT, _Traits &gt;</text>
</a>
</g>
</g>
<!-- Node1&#45;&gt;Node2 -->
<g id="edge2" class="edge">
<title>Node1&#45;&gt;Node2</title>
<path fill="none" stroke="midnightblue" d="M298.99,-66.5C311.75,-66.5 325.15,-66.5 337.85,-66.5"/>
<polygon fill="midnightblue" stroke="midnightblue" points="298.92,-63 288.92,-66.5 298.92,-70 298.92,-63"/>
</g>
</g>
</svg>
