<?xml version="1.0" encoding="UTF-8" standalone="no"?>
<!DOCTYPE svg PUBLIC "-//W3C//DTD SVG 1.1//EN"
 "http://www.w3.org/Graphics/SVG/1.1/DTD/svg11.dtd">
<!-- Generated by graphviz version 2.50.0 (0)
 -->
<!-- Title: Graphical Class Hierarchy Pages: 1 -->
<svg width="276pt" height="47pt"
 viewBox="0.00 0.00 276.00 47.00" xmlns="http://www.w3.org/2000/svg" xmlns:xlink="http://www.w3.org/1999/xlink">
<g id="graph0" class="graph" transform="scale(1 1) rotate(0) translate(4 43)">
<title>Graphical Class Hierarchy</title>
<polygon fill="white" stroke="transparent" points="-4,4 -4,-43 272,-43 272,4 -4,4"/>
<!-- Node0 -->
<g id="node1" class="node">
<title>Node0</title>
<g id="a_node1"><a xlink:href="a08850.html" target="_top" xlink:title=" ">
<polygon fill="white" stroke="black" points="0,-0.5 0,-38.5 115,-38.5 115,-0.5 0,-0.5"/>
<text text-anchor="start" x="8" y="-27.3" font-family="Helvetica,sans-Serif" font-size="9.00">std::_Vector_base&lt;</text>
<text text-anchor="start" x="8" y="-17.3" font-family="Helvetica,sans-Serif" font-size="9.00"> double, std::allocator</text>
<text text-anchor="middle" x="57.5" y="-7.3" font-family="Helvetica,sans-Serif" font-size="9.00">&lt; double &gt; &gt;</text>
</a>
</g>
</g>
<!-- Node1 -->
<g id="node2" class="node">
<title>Node1</title>
<g id="a_node2"><a xlink:href="a08862.html" target="_top" xlink:title=" ">
<polygon fill="white" stroke="black" points="151,-10.5 151,-28.5 268,-28.5 268,-10.5 151,-10.5"/>
<text text-anchor="middle" x="209.5" y="-17.3" font-family="Helvetica,sans-Serif" font-size="9.00">std::vector&lt; double &gt;</text>
</a>
</g>
</g>
<!-- Node0&#45;&gt;Node1 -->
<g id="edge1" class="edge">
<title>Node0&#45;&gt;Node1</title>
<path fill="none" stroke="darkgreen" d="M125.41,-19.5C133.85,-19.5 142.43,-19.5 150.71,-19.5"/>
<polygon fill="darkgreen" stroke="darkgreen" points="125.21,-16 115.21,-19.5 125.21,-23 125.21,-16"/>
</g>
</g>
</svg>
