<?xml version="1.0" encoding="UTF-8" standalone="no"?>
<!DOCTYPE svg PUBLIC "-//W3C//DTD SVG 1.1//EN"
 "http://www.w3.org/Graphics/SVG/1.1/DTD/svg11.dtd">
<!-- Generated by graphviz version 2.50.0 (0)
 -->
<!-- Title: Graphical Class Hierarchy Pages: 1 -->
<svg width="407pt" height="77pt"
 viewBox="0.00 0.00 407.00 77.00" xmlns="http://www.w3.org/2000/svg" xmlns:xlink="http://www.w3.org/1999/xlink">
<g id="graph0" class="graph" transform="scale(1 1) rotate(0) translate(4 73)">
<title>Graphical Class Hierarchy</title>
<polygon fill="white" stroke="transparent" points="-4,4 -4,-73 403,-73 403,4 -4,4"/>
<!-- Node0 -->
<g id="node1" class="node">
<title>Node0</title>
<g id="a_node1"><a xlink:href="a08850.html" target="_top" xlink:title=" ">
<polygon fill="white" stroke="black" points="0,-0.5 0,-68.5 200,-68.5 200,-0.5 0,-0.5"/>
<text text-anchor="start" x="8" y="-57.3" font-family="Helvetica,sans-Serif" font-size="9.00">std::_Vector_base&lt;</text>
<text text-anchor="start" x="8" y="-47.3" font-family="Helvetica,sans-Serif" font-size="9.00"> std::pair&lt; _StateIdT,</text>
<text text-anchor="start" x="8" y="-37.3" font-family="Helvetica,sans-Serif" font-size="9.00"> vector&lt; sub_match&lt; _BiIter</text>
<text text-anchor="start" x="8" y="-27.3" font-family="Helvetica,sans-Serif" font-size="9.00"> &gt;, _Alloc &gt; &gt;, std::allocator</text>
<text text-anchor="start" x="8" y="-17.3" font-family="Helvetica,sans-Serif" font-size="9.00">&lt; std::pair&lt; _StateIdT, vector</text>
<text text-anchor="middle" x="100" y="-7.3" font-family="Helvetica,sans-Serif" font-size="9.00">&lt; sub_match&lt; _BiIter &gt;, _Alloc &gt; &gt; &gt; &gt;</text>
</a>
</g>
</g>
<!-- Node1 -->
<g id="node2" class="node">
<title>Node1</title>
<g id="a_node2"><a xlink:href="a08862.html" target="_top" xlink:title=" ">
<polygon fill="white" stroke="black" points="236,-15.5 236,-53.5 399,-53.5 399,-15.5 236,-15.5"/>
<text text-anchor="start" x="244" y="-42.3" font-family="Helvetica,sans-Serif" font-size="9.00">std::vector&lt; std::pair</text>
<text text-anchor="start" x="244" y="-32.3" font-family="Helvetica,sans-Serif" font-size="9.00">&lt; _StateIdT, vector&lt; sub</text>
<text text-anchor="middle" x="317.5" y="-22.3" font-family="Helvetica,sans-Serif" font-size="9.00">_match&lt; _BiIter &gt;, _Alloc &gt; &gt; &gt;</text>
</a>
</g>
</g>
<!-- Node0&#45;&gt;Node1 -->
<g id="edge1" class="edge">
<title>Node0&#45;&gt;Node1</title>
<path fill="none" stroke="darkgreen" d="M210.32,-34.5C218.92,-34.5 227.5,-34.5 235.86,-34.5"/>
<polygon fill="darkgreen" stroke="darkgreen" points="210.23,-31 200.23,-34.5 210.23,-38 210.23,-31"/>
</g>
</g>
</svg>
