<?xml version="1.0" encoding="UTF-8" standalone="no"?>
<!DOCTYPE svg PUBLIC "-//W3C//DTD SVG 1.1//EN"
 "http://www.w3.org/Graphics/SVG/1.1/DTD/svg11.dtd">
<!-- Generated by graphviz version 2.50.0 (0)
 -->
<!-- Title: Graphical Class Hierarchy Pages: 1 -->
<svg width="315pt" height="67pt"
 viewBox="0.00 0.00 315.00 67.00" xmlns="http://www.w3.org/2000/svg" xmlns:xlink="http://www.w3.org/1999/xlink">
<g id="graph0" class="graph" transform="scale(1 1) rotate(0) translate(4 63)">
<title>Graphical Class Hierarchy</title>
<polygon fill="white" stroke="transparent" points="-4,4 -4,-63 311,-63 311,4 -4,4"/>
<!-- Node0 -->
<g id="node1" class="node">
<title>Node0</title>
<g id="a_node1"><a xlink:href="a08850.html" target="_top" xlink:title=" ">
<polygon fill="white" stroke="black" points="0,-0.5 0,-58.5 163,-58.5 163,-0.5 0,-0.5"/>
<text text-anchor="start" x="8" y="-47.3" font-family="Helvetica,sans-Serif" font-size="9.00">std::_Vector_base&lt;</text>
<text text-anchor="start" x="8" y="-37.3" font-family="Helvetica,sans-Serif" font-size="9.00"> __gnu_parallel::_Piece</text>
<text text-anchor="start" x="8" y="-27.3" font-family="Helvetica,sans-Serif" font-size="9.00">&lt; _DifferenceType &gt;, std</text>
<text text-anchor="start" x="8" y="-17.3" font-family="Helvetica,sans-Serif" font-size="9.00">::allocator&lt; __gnu_parallel</text>
<text text-anchor="middle" x="81.5" y="-7.3" font-family="Helvetica,sans-Serif" font-size="9.00">::_Piece&lt; _DifferenceType &gt; &gt; &gt;</text>
</a>
</g>
</g>
<!-- Node1 -->
<g id="node2" class="node">
<title>Node1</title>
<g id="a_node2"><a xlink:href="a08862.html" target="_top" xlink:title=" ">
<polygon fill="white" stroke="black" points="199,-10.5 199,-48.5 307,-48.5 307,-10.5 199,-10.5"/>
<text text-anchor="start" x="207" y="-37.3" font-family="Helvetica,sans-Serif" font-size="9.00">std::vector&lt; __gnu</text>
<text text-anchor="start" x="207" y="-27.3" font-family="Helvetica,sans-Serif" font-size="9.00">_parallel::_Piece&lt; </text>
<text text-anchor="middle" x="253" y="-17.3" font-family="Helvetica,sans-Serif" font-size="9.00">_DifferenceType &gt; &gt;</text>
</a>
</g>
</g>
<!-- Node0&#45;&gt;Node1 -->
<g id="edge1" class="edge">
<title>Node0&#45;&gt;Node1</title>
<path fill="none" stroke="darkgreen" d="M173.5,-29.5C182.19,-29.5 190.79,-29.5 198.94,-29.5"/>
<polygon fill="darkgreen" stroke="darkgreen" points="173.28,-26 163.28,-29.5 173.28,-33 173.28,-26"/>
</g>
</g>
</svg>
