<?xml version="1.0" encoding="UTF-8" standalone="no"?>
<!DOCTYPE svg PUBLIC "-//W3C//DTD SVG 1.1//EN"
 "http://www.w3.org/Graphics/SVG/1.1/DTD/svg11.dtd">
<!-- Generated by graphviz version 2.50.0 (0)
 -->
<!-- Title: Graphical Class Hierarchy Pages: 1 -->
<svg width="275pt" height="306pt"
 viewBox="0.00 0.00 275.00 306.00" xmlns="http://www.w3.org/2000/svg" xmlns:xlink="http://www.w3.org/1999/xlink">
<g id="graph0" class="graph" transform="scale(1 1) rotate(0) translate(4 302)">
<title>Graphical Class Hierarchy</title>
<polygon fill="white" stroke="transparent" points="-4,4 -4,-302 271,-302 271,4 -4,4"/>
<!-- Node0 -->
<g id="node1" class="node">
<title>Node0</title>
<g id="a_node1"><a xlink:href="a08210.html" target="_top" xlink:title=" ">
<polygon fill="white" stroke="black" points="0,-134.5 0,-162.5 107,-162.5 107,-134.5 0,-134.5"/>
<text text-anchor="start" x="8" y="-151.3" font-family="Helvetica,sans-Serif" font-size="9.00">std::binary_function</text>
<text text-anchor="middle" x="53.5" y="-141.3" font-family="Helvetica,sans-Serif" font-size="9.00">&lt; _Tp, _Tp, bool &gt;</text>
</a>
</g>
</g>
<!-- Node1 -->
<g id="node2" class="node">
<title>Node1</title>
<g id="a_node2"><a xlink:href="a08262.html" target="_top" xlink:title="One of the comparison functors.">
<polygon fill="white" stroke="black" points="149,-279.5 149,-297.5 261,-297.5 261,-279.5 149,-279.5"/>
<text text-anchor="middle" x="205" y="-286.3" font-family="Helvetica,sans-Serif" font-size="9.00">std::equal_to&lt; _Tp &gt;</text>
</a>
</g>
</g>
<!-- Node0&#45;&gt;Node1 -->
<g id="edge1" class="edge">
<title>Node0&#45;&gt;Node1</title>
<path fill="none" stroke="midnightblue" d="M65.42,-171.81C79.53,-199.4 106.65,-244.82 143,-270.5 148.23,-274.2 154.22,-277.14 160.36,-279.48"/>
<polygon fill="midnightblue" stroke="midnightblue" points="68.4,-169.93 60.82,-162.52 62.13,-173.04 68.4,-169.93"/>
</g>
<!-- Node2 -->
<g id="node3" class="node">
<title>Node2</title>
<g id="a_node3"><a xlink:href="a08270.html" target="_top" xlink:title="One of the comparison functors.">
<polygon fill="white" stroke="black" points="151.5,-242.5 151.5,-260.5 258.5,-260.5 258.5,-242.5 151.5,-242.5"/>
<text text-anchor="middle" x="205" y="-249.3" font-family="Helvetica,sans-Serif" font-size="9.00">std::greater&lt; _Tp &gt;</text>
</a>
</g>
</g>
<!-- Node0&#45;&gt;Node2 -->
<g id="edge2" class="edge">
<title>Node0&#45;&gt;Node2</title>
<path fill="none" stroke="midnightblue" d="M71.94,-170.38C88.37,-189.61 114.63,-217.03 143,-233.5 149.21,-237.1 156.19,-240.04 163.17,-242.41"/>
<polygon fill="midnightblue" stroke="midnightblue" points="74.62,-168.13 65.53,-162.7 69.25,-172.62 74.62,-168.13"/>
</g>
<!-- Node3 -->
<g id="node4" class="node">
<title>Node3</title>
<g id="a_node4"><a xlink:href="a08278.html" target="_top" xlink:title="One of the comparison functors.">
<polygon fill="white" stroke="black" points="155.5,-195.5 155.5,-223.5 254.5,-223.5 254.5,-195.5 155.5,-195.5"/>
<text text-anchor="start" x="163.5" y="-212.3" font-family="Helvetica,sans-Serif" font-size="9.00">std::greater_equal</text>
<text text-anchor="middle" x="205" y="-202.3" font-family="Helvetica,sans-Serif" font-size="9.00">&lt; _Tp &gt;</text>
</a>
</g>
</g>
<!-- Node0&#45;&gt;Node3 -->
<g id="edge3" class="edge">
<title>Node0&#45;&gt;Node3</title>
<path fill="none" stroke="midnightblue" d="M95.73,-166.66C110.57,-173.07 127.48,-180.25 143,-186.5 150.35,-189.46 158.24,-192.52 165.83,-195.41"/>
<polygon fill="midnightblue" stroke="midnightblue" points="96.87,-163.34 86.31,-162.57 94.09,-169.76 96.87,-163.34"/>
</g>
<!-- Node4 -->
<g id="node5" class="node">
<title>Node4</title>
<g id="a_node5"><a xlink:href="a08274.html" target="_top" xlink:title="One of the comparison functors.">
<polygon fill="white" stroke="black" points="160,-158.5 160,-176.5 250,-176.5 250,-158.5 160,-158.5"/>
<text text-anchor="middle" x="205" y="-165.3" font-family="Helvetica,sans-Serif" font-size="9.00">std::less&lt; _Tp &gt;</text>
</a>
</g>
</g>
<!-- Node0&#45;&gt;Node4 -->
<g id="edge4" class="edge">
<title>Node0&#45;&gt;Node4</title>
<path fill="none" stroke="midnightblue" d="M117.42,-156.5C131.63,-158.3 146.42,-160.18 159.68,-161.87"/>
<polygon fill="midnightblue" stroke="midnightblue" points="117.57,-152.99 107.21,-155.2 116.69,-159.93 117.57,-152.99"/>
</g>
<!-- Node5 -->
<g id="node6" class="node">
<title>Node5</title>
<g id="a_node6"><a xlink:href="a08282.html" target="_top" xlink:title="One of the comparison functors.">
<polygon fill="white" stroke="black" points="145.5,-121.5 145.5,-139.5 264.5,-139.5 264.5,-121.5 145.5,-121.5"/>
<text text-anchor="middle" x="205" y="-128.3" font-family="Helvetica,sans-Serif" font-size="9.00">std::less_equal&lt; _Tp &gt;</text>
</a>
</g>
</g>
<!-- Node0&#45;&gt;Node5 -->
<g id="edge5" class="edge">
<title>Node0&#45;&gt;Node5</title>
<path fill="none" stroke="midnightblue" d="M117.21,-140.95C126.55,-139.82 136.15,-138.67 145.4,-137.56"/>
<polygon fill="midnightblue" stroke="midnightblue" points="116.72,-137.48 107.21,-142.15 117.55,-144.43 116.72,-137.48"/>
</g>
<!-- Node6 -->
<g id="node7" class="node">
<title>Node6</title>
<g id="a_node7"><a xlink:href="a08390.html" target="_top" xlink:title="One of the Boolean operations functors.">
<polygon fill="white" stroke="black" points="143,-84.5 143,-102.5 267,-102.5 267,-84.5 143,-84.5"/>
<text text-anchor="middle" x="205" y="-91.3" font-family="Helvetica,sans-Serif" font-size="9.00">std::logical_and&lt; _Tp &gt;</text>
</a>
</g>
</g>
<!-- Node0&#45;&gt;Node6 -->
<g id="edge6" class="edge">
<title>Node0&#45;&gt;Node6</title>
<path fill="none" stroke="midnightblue" d="M96.71,-130.48C111.27,-124.49 127.76,-117.96 143,-112.5 152.71,-109.02 163.42,-105.56 173.11,-102.57"/>
<polygon fill="midnightblue" stroke="midnightblue" points="95.34,-127.26 87.44,-134.33 98.02,-133.73 95.34,-127.26"/>
</g>
<!-- Node7 -->
<g id="node8" class="node">
<title>Node7</title>
<g id="a_node8"><a xlink:href="a08394.html" target="_top" xlink:title="One of the Boolean operations functors.">
<polygon fill="white" stroke="black" points="147,-47.5 147,-65.5 263,-65.5 263,-47.5 147,-47.5"/>
<text text-anchor="middle" x="205" y="-54.3" font-family="Helvetica,sans-Serif" font-size="9.00">std::logical_or&lt; _Tp &gt;</text>
</a>
</g>
</g>
<!-- Node0&#45;&gt;Node7 -->
<g id="edge7" class="edge">
<title>Node0&#45;&gt;Node7</title>
<path fill="none" stroke="midnightblue" d="M75.12,-127.5C92.04,-111.3 117.33,-89.39 143,-75.5 150.41,-71.49 158.8,-68.19 166.93,-65.52"/>
<polygon fill="midnightblue" stroke="midnightblue" points="72.67,-125 67.96,-134.49 77.56,-130 72.67,-125"/>
</g>
<!-- Node8 -->
<g id="node9" class="node">
<title>Node8</title>
<g id="a_node9"><a xlink:href="a08266.html" target="_top" xlink:title="One of the comparison functors.">
<polygon fill="white" stroke="black" points="154,-0.5 154,-28.5 256,-28.5 256,-0.5 154,-0.5"/>
<text text-anchor="start" x="162" y="-17.3" font-family="Helvetica,sans-Serif" font-size="9.00">std::not_equal_to&lt;</text>
<text text-anchor="middle" x="205" y="-7.3" font-family="Helvetica,sans-Serif" font-size="9.00"> _Tp &gt;</text>
</a>
</g>
</g>
<!-- Node0&#45;&gt;Node8 -->
<g id="edge8" class="edge">
<title>Node0&#45;&gt;Node8</title>
<path fill="none" stroke="midnightblue" d="M67.77,-125.73C83.1,-101.2 110.43,-62.45 143,-38.5 148.13,-34.72 153.94,-31.45 159.88,-28.64"/>
<polygon fill="midnightblue" stroke="midnightblue" points="64.71,-124.02 62.49,-134.38 70.69,-127.67 64.71,-124.02"/>
</g>
</g>
</svg>
