<?xml version="1.0" encoding="UTF-8" standalone="no"?>
<!DOCTYPE svg PUBLIC "-//W3C//DTD SVG 1.1//EN"
 "http://www.w3.org/Graphics/SVG/1.1/DTD/svg11.dtd">
<!-- Generated by graphviz version 2.50.0 (0)
 -->
<!-- Title: Graphical Class Hierarchy Pages: 1 -->
<svg width="258pt" height="84pt"
 viewBox="0.00 0.00 258.00 84.00" xmlns="http://www.w3.org/2000/svg" xmlns:xlink="http://www.w3.org/1999/xlink">
<g id="graph0" class="graph" transform="scale(1 1) rotate(0) translate(4 80)">
<title>Graphical Class Hierarchy</title>
<polygon fill="white" stroke="transparent" points="-4,4 -4,-80 254,-80 254,4 -4,4"/>
<!-- Node0 -->
<g id="node1" class="node">
<title>Node0</title>
<g id="a_node1"><a xlink:href="a08206.html" target="_top" xlink:title=" ">
<polygon fill="white" stroke="black" points="0,-23.5 0,-51.5 105,-51.5 105,-23.5 0,-23.5"/>
<text text-anchor="start" x="8" y="-40.3" font-family="Helvetica,sans-Serif" font-size="9.00">std::unary_function</text>
<text text-anchor="middle" x="52.5" y="-30.3" font-family="Helvetica,sans-Serif" font-size="9.00">&lt; _Tp, _Ret &gt;</text>
</a>
</g>
</g>
<!-- Node1 -->
<g id="node2" class="node">
<title>Node1</title>
<g id="a_node2"><a xlink:href="a08490.html" target="_top" xlink:title="One of the adaptors for member pointers.">
<polygon fill="white" stroke="black" points="141,-47.5 141,-75.5 250,-75.5 250,-47.5 141,-47.5"/>
<text text-anchor="start" x="149" y="-64.3" font-family="Helvetica,sans-Serif" font-size="9.00">std::const_mem_fun</text>
<text text-anchor="middle" x="195.5" y="-54.3" font-family="Helvetica,sans-Serif" font-size="9.00">_ref_t&lt; _Ret, _Tp &gt;</text>
</a>
</g>
</g>
<!-- Node0&#45;&gt;Node1 -->
<g id="edge1" class="edge">
<title>Node0&#45;&gt;Node1</title>
<path fill="none" stroke="midnightblue" d="M115.16,-48C123.74,-49.46 132.5,-50.95 140.91,-52.38"/>
<polygon fill="midnightblue" stroke="midnightblue" points="115.65,-44.53 105.2,-46.3 114.47,-51.43 115.65,-44.53"/>
</g>
<!-- Node2 -->
<g id="node3" class="node">
<title>Node2</title>
<g id="a_node3"><a xlink:href="a08486.html" target="_top" xlink:title="One of the adaptors for member pointers.">
<polygon fill="white" stroke="black" points="143.5,-0.5 143.5,-28.5 247.5,-28.5 247.5,-0.5 143.5,-0.5"/>
<text text-anchor="start" x="151.5" y="-17.3" font-family="Helvetica,sans-Serif" font-size="9.00">std::mem_fun_ref_t</text>
<text text-anchor="middle" x="195.5" y="-7.3" font-family="Helvetica,sans-Serif" font-size="9.00">&lt; _Ret, _Tp &gt;</text>
</a>
</g>
</g>
<!-- Node0&#45;&gt;Node2 -->
<g id="edge2" class="edge">
<title>Node0&#45;&gt;Node2</title>
<path fill="none" stroke="midnightblue" d="M115.24,-27.43C124.6,-25.9 134.17,-24.34 143.27,-22.86"/>
<polygon fill="midnightblue" stroke="midnightblue" points="114.51,-24 105.2,-29.07 115.64,-30.91 114.51,-24"/>
</g>
</g>
</svg>
