<?xml version="1.0" encoding="UTF-8" standalone="no"?>
<!DOCTYPE svg PUBLIC "-//W3C//DTD SVG 1.1//EN"
 "http://www.w3.org/Graphics/SVG/1.1/DTD/svg11.dtd">
<!-- Generated by graphviz version 2.50.0 (0)
 -->
<!-- Title: Graphical Class Hierarchy Pages: 1 -->
<svg width="643pt" height="900pt"
 viewBox="0.00 0.00 643.00 900.00" xmlns="http://www.w3.org/2000/svg" xmlns:xlink="http://www.w3.org/1999/xlink">
<g id="graph0" class="graph" transform="scale(1 1) rotate(0) translate(4 896)">
<title>Graphical Class Hierarchy</title>
<polygon fill="white" stroke="transparent" points="-4,4 -4,-896 639,-896 639,4 -4,4"/>
<!-- Node0 -->
<g id="node1" class="node">
<title>Node0</title>
<g id="a_node1"><a xlink:href="a05626.html" target="_top" xlink:title="Empty base class for codecvt facet [22.2.1.5].">
<polygon fill="white" stroke="black" points="4.5,-716.5 4.5,-734.5 102.5,-734.5 102.5,-716.5 4.5,-716.5"/>
<text text-anchor="middle" x="53.5" y="-723.3" font-family="Helvetica,sans-Serif" font-size="9.00">std::codecvt_base</text>
</a>
</g>
</g>
<!-- Node1 -->
<g id="node2" class="node">
<title>Node1</title>
<g id="a_node2"><a xlink:href="a05630.html" target="_top" xlink:title=" ">
<polygon fill="white" stroke="black" points="161.5,-678.5 161.5,-716.5 285.5,-716.5 285.5,-678.5 161.5,-678.5"/>
<text text-anchor="start" x="169.5" y="-705.3" font-family="Helvetica,sans-Serif" font-size="9.00">std::__codecvt_abstract</text>
<text text-anchor="start" x="169.5" y="-695.3" font-family="Helvetica,sans-Serif" font-size="9.00">_base&lt; char16_t, char,</text>
<text text-anchor="middle" x="223.5" y="-685.3" font-family="Helvetica,sans-Serif" font-size="9.00"> mbstate_t &gt;</text>
</a>
</g>
</g>
<!-- Node0&#45;&gt;Node1 -->
<g id="edge1" class="edge">
<title>Node0&#45;&gt;Node1</title>
<path fill="none" stroke="midnightblue" d="M112.77,-715.79C128.5,-713.17 145.58,-710.32 161.46,-707.67"/>
<polygon fill="midnightblue" stroke="midnightblue" points="111.93,-712.38 102.64,-717.48 113.08,-719.28 111.93,-712.38"/>
</g>
<!-- Node3 -->
<g id="node4" class="node">
<title>Node3</title>
<g id="a_node4"><a xlink:href="a05630.html" target="_top" xlink:title=" ">
<polygon fill="white" stroke="black" points="143,-631.5 143,-659.5 304,-659.5 304,-631.5 143,-631.5"/>
<text text-anchor="start" x="151" y="-648.3" font-family="Helvetica,sans-Serif" font-size="9.00">std::__codecvt_abstract</text>
<text text-anchor="middle" x="223.5" y="-638.3" font-family="Helvetica,sans-Serif" font-size="9.00">_base&lt; char, char, mbstate_t &gt;</text>
</a>
</g>
</g>
<!-- Node0&#45;&gt;Node3 -->
<g id="edge3" class="edge">
<title>Node0&#45;&gt;Node3</title>
<path fill="none" stroke="midnightblue" d="M74.74,-710.45C92.12,-698.09 118.22,-680.83 143,-669.5 151.13,-665.78 159.98,-662.46 168.74,-659.56"/>
<polygon fill="midnightblue" stroke="midnightblue" points="72.55,-707.71 66.5,-716.41 76.65,-713.38 72.55,-707.71"/>
</g>
<!-- Node5 -->
<g id="node6" class="node">
<title>Node5</title>
<g id="a_node6"><a xlink:href="a05630.html" target="_top" xlink:title=" ">
<polygon fill="white" stroke="black" points="161.5,-574.5 161.5,-612.5 285.5,-612.5 285.5,-574.5 161.5,-574.5"/>
<text text-anchor="start" x="169.5" y="-601.3" font-family="Helvetica,sans-Serif" font-size="9.00">std::__codecvt_abstract</text>
<text text-anchor="start" x="169.5" y="-591.3" font-family="Helvetica,sans-Serif" font-size="9.00">_base&lt; wchar_t, char,</text>
<text text-anchor="middle" x="223.5" y="-581.3" font-family="Helvetica,sans-Serif" font-size="9.00"> mbstate_t &gt;</text>
</a>
</g>
</g>
<!-- Node0&#45;&gt;Node5 -->
<g id="edge5" class="edge">
<title>Node0&#45;&gt;Node5</title>
<path fill="none" stroke="midnightblue" d="M65.51,-707.8C80.46,-685.09 109.24,-645.86 143,-622.5 148.68,-618.57 154.95,-615.11 161.41,-612.07"/>
<polygon fill="midnightblue" stroke="midnightblue" points="62.43,-706.12 59.97,-716.43 68.32,-709.9 62.43,-706.12"/>
</g>
<!-- Node7 -->
<g id="node8" class="node">
<title>Node7</title>
<g id="a_node8"><a xlink:href="a05630.html" target="_top" xlink:title=" ">
<polygon fill="white" stroke="black" points="154,-849.5 154,-887.5 293,-887.5 293,-849.5 154,-849.5"/>
<text text-anchor="start" x="162" y="-876.3" font-family="Helvetica,sans-Serif" font-size="9.00">std::__codecvt_abstract</text>
<text text-anchor="start" x="162" y="-866.3" font-family="Helvetica,sans-Serif" font-size="9.00">_base&lt; _InternT, _ExternT,</text>
<text text-anchor="middle" x="223.5" y="-856.3" font-family="Helvetica,sans-Serif" font-size="9.00"> encoding_state &gt;</text>
</a>
</g>
</g>
<!-- Node0&#45;&gt;Node7 -->
<g id="edge7" class="edge">
<title>Node0&#45;&gt;Node7</title>
<path fill="none" stroke="midnightblue" d="M63.95,-743.56C77.98,-768.71 106.61,-814.15 143,-840.5 147.62,-843.85 152.68,-846.82 157.94,-849.47"/>
<polygon fill="midnightblue" stroke="midnightblue" points="66.99,-741.83 59.15,-734.71 60.84,-745.17 66.99,-741.83"/>
</g>
<!-- Node9 -->
<g id="node10" class="node">
<title>Node9</title>
<g id="a_node10"><a xlink:href="a05630.html" target="_top" xlink:title=" ">
<polygon fill="white" stroke="black" points="161.5,-792.5 161.5,-830.5 285.5,-830.5 285.5,-792.5 161.5,-792.5"/>
<text text-anchor="start" x="169.5" y="-819.3" font-family="Helvetica,sans-Serif" font-size="9.00">std::__codecvt_abstract</text>
<text text-anchor="start" x="169.5" y="-809.3" font-family="Helvetica,sans-Serif" font-size="9.00">_base&lt; char32_t, char,</text>
<text text-anchor="middle" x="223.5" y="-799.3" font-family="Helvetica,sans-Serif" font-size="9.00"> mbstate_t &gt;</text>
</a>
</g>
</g>
<!-- Node0&#45;&gt;Node9 -->
<g id="edge9" class="edge">
<title>Node0&#45;&gt;Node9</title>
<path fill="none" stroke="midnightblue" d="M74.5,-740.63C91.91,-753.3 118.18,-771.22 143,-783.5 149.43,-786.68 156.31,-789.67 163.23,-792.42"/>
<polygon fill="midnightblue" stroke="midnightblue" points="76.38,-737.67 66.26,-734.54 72.22,-743.3 76.38,-737.67"/>
</g>
<!-- Node11 -->
<g id="node12" class="node">
<title>Node11</title>
<g id="a_node12"><a xlink:href="a05630.html" target="_top" xlink:title="Common base for codecvt functions.">
<polygon fill="white" stroke="black" points="154,-735.5 154,-773.5 293,-773.5 293,-735.5 154,-735.5"/>
<text text-anchor="start" x="162" y="-762.3" font-family="Helvetica,sans-Serif" font-size="9.00">std::__codecvt_abstract</text>
<text text-anchor="start" x="162" y="-752.3" font-family="Helvetica,sans-Serif" font-size="9.00">_base&lt; _InternT, _ExternT,</text>
<text text-anchor="middle" x="223.5" y="-742.3" font-family="Helvetica,sans-Serif" font-size="9.00"> _StateT &gt;</text>
</a>
</g>
</g>
<!-- Node0&#45;&gt;Node11 -->
<g id="edge11" class="edge">
<title>Node0&#45;&gt;Node11</title>
<path fill="none" stroke="midnightblue" d="M112.57,-735.52C125.82,-737.81 140.04,-740.27 153.69,-742.62"/>
<polygon fill="midnightblue" stroke="midnightblue" points="113.09,-732.06 102.64,-733.81 111.9,-738.96 113.09,-732.06"/>
</g>
<!-- Node2 -->
<g id="node3" class="node">
<title>Node2</title>
<g id="a_node3"><a xlink:href="a05646.html" target="_top" xlink:title="Class codecvt&lt;char16_t, char, mbstate_t&gt; specialization.">
<polygon fill="white" stroke="black" points="354.5,-675.5 354.5,-703.5 470.5,-703.5 470.5,-675.5 354.5,-675.5"/>
<text text-anchor="start" x="362.5" y="-692.3" font-family="Helvetica,sans-Serif" font-size="9.00">std::codecvt&lt; char16</text>
<text text-anchor="middle" x="412.5" y="-682.3" font-family="Helvetica,sans-Serif" font-size="9.00">_t, char, mbstate_t &gt;</text>
</a>
</g>
</g>
<!-- Node1&#45;&gt;Node2 -->
<g id="edge2" class="edge">
<title>Node1&#45;&gt;Node2</title>
<path fill="none" stroke="midnightblue" d="M295.98,-694.44C315.26,-693.62 335.86,-692.74 354.25,-691.95"/>
<polygon fill="midnightblue" stroke="midnightblue" points="295.57,-690.96 285.73,-694.88 295.87,-697.95 295.57,-690.96"/>
</g>
<!-- Node4 -->
<g id="node5" class="node">
<title>Node4</title>
<g id="a_node5"><a xlink:href="a05638.html" target="_top" xlink:title="class codecvt&lt;char, char, mbstate_t&gt; specialization.">
<polygon fill="white" stroke="black" points="359,-628.5 359,-656.5 466,-656.5 466,-628.5 359,-628.5"/>
<text text-anchor="start" x="367" y="-645.3" font-family="Helvetica,sans-Serif" font-size="9.00">std::codecvt&lt; char,</text>
<text text-anchor="middle" x="412.5" y="-635.3" font-family="Helvetica,sans-Serif" font-size="9.00"> char, mbstate_t &gt;</text>
</a>
</g>
</g>
<!-- Node3&#45;&gt;Node4 -->
<g id="edge4" class="edge">
<title>Node3&#45;&gt;Node4</title>
<path fill="none" stroke="midnightblue" d="M314.1,-644.06C329.41,-643.82 344.85,-643.57 358.79,-643.35"/>
<polygon fill="midnightblue" stroke="midnightblue" points="314.02,-640.56 304.08,-644.22 314.13,-647.56 314.02,-640.56"/>
</g>
<!-- Node6 -->
<g id="node7" class="node">
<title>Node6</title>
<g id="a_node7"><a xlink:href="a05642.html" target="_top" xlink:title="Class codecvt&lt;wchar_t, char, mbstate_t&gt; specialization.">
<polygon fill="white" stroke="black" points="356,-579.5 356,-607.5 469,-607.5 469,-579.5 356,-579.5"/>
<text text-anchor="start" x="364" y="-596.3" font-family="Helvetica,sans-Serif" font-size="9.00">std::codecvt&lt; wchar</text>
<text text-anchor="middle" x="412.5" y="-586.3" font-family="Helvetica,sans-Serif" font-size="9.00">_t, char, mbstate_t &gt;</text>
</a>
</g>
</g>
<!-- Node5&#45;&gt;Node6 -->
<g id="edge6" class="edge">
<title>Node5&#45;&gt;Node6</title>
<path fill="none" stroke="midnightblue" d="M295.96,-593.5C315.79,-593.5 337.03,-593.5 355.82,-593.5"/>
<polygon fill="midnightblue" stroke="midnightblue" points="295.73,-590 285.73,-593.5 295.73,-597 295.73,-590"/>
</g>
<!-- Node8 -->
<g id="node9" class="node">
<title>Node8</title>
<g id="a_node9"><a xlink:href="a12034.html" target="_top" xlink:title="codecvt&lt;InternT, _ExternT, encoding_state&gt; specialization.">
<polygon fill="white" stroke="black" points="340,-863.5 340,-891.5 485,-891.5 485,-863.5 340,-863.5"/>
<text text-anchor="start" x="348" y="-880.3" font-family="Helvetica,sans-Serif" font-size="9.00">std::codecvt&lt; _InternT,</text>
<text text-anchor="middle" x="412.5" y="-870.3" font-family="Helvetica,sans-Serif" font-size="9.00"> _ExternT, encoding_state &gt;</text>
</a>
</g>
</g>
<!-- Node7&#45;&gt;Node8 -->
<g id="edge8" class="edge">
<title>Node7&#45;&gt;Node8</title>
<path fill="none" stroke="midnightblue" d="M303.18,-872.29C315.32,-872.87 327.81,-873.47 339.8,-874.05"/>
<polygon fill="midnightblue" stroke="midnightblue" points="303.23,-868.79 293.07,-871.8 302.89,-875.78 303.23,-868.79"/>
</g>
<!-- Node10 -->
<g id="node11" class="node">
<title>Node10</title>
<g id="a_node11"><a xlink:href="a05650.html" target="_top" xlink:title="Class codecvt&lt;char32_t, char, mbstate_t&gt; specialization.">
<polygon fill="white" stroke="black" points="354.5,-816.5 354.5,-844.5 470.5,-844.5 470.5,-816.5 354.5,-816.5"/>
<text text-anchor="start" x="362.5" y="-833.3" font-family="Helvetica,sans-Serif" font-size="9.00">std::codecvt&lt; char32</text>
<text text-anchor="middle" x="412.5" y="-823.3" font-family="Helvetica,sans-Serif" font-size="9.00">_t, char, mbstate_t &gt;</text>
</a>
</g>
</g>
<!-- Node9&#45;&gt;Node10 -->
<g id="edge10" class="edge">
<title>Node9&#45;&gt;Node10</title>
<path fill="none" stroke="midnightblue" d="M295.71,-818.74C315.07,-820.7 335.78,-822.81 354.25,-824.68"/>
<polygon fill="midnightblue" stroke="midnightblue" points="296.03,-815.25 285.73,-817.72 295.33,-822.21 296.03,-815.25"/>
</g>
<!-- Node12 -->
<g id="node13" class="node">
<title>Node12</title>
<g id="a_node13"><a xlink:href="a05634.html" target="_top" xlink:title=" ">
<polygon fill="white" stroke="black" points="356,-769.5 356,-797.5 469,-797.5 469,-769.5 356,-769.5"/>
<text text-anchor="start" x="364" y="-786.3" font-family="Helvetica,sans-Serif" font-size="9.00">std::codecvt&lt; _Elem,</text>
<text text-anchor="middle" x="412.5" y="-776.3" font-family="Helvetica,sans-Serif" font-size="9.00"> char, mbstate_t &gt;</text>
</a>
</g>
</g>
<!-- Node11&#45;&gt;Node12 -->
<g id="edge12" class="edge">
<title>Node11&#45;&gt;Node12</title>
<path fill="none" stroke="midnightblue" d="M303.35,-766.73C320.98,-769.46 339.33,-772.31 355.79,-774.86"/>
<polygon fill="midnightblue" stroke="midnightblue" points="303.49,-763.21 293.07,-765.13 302.42,-770.13 303.49,-763.21"/>
</g>
<!-- Node13 -->
<g id="node14" class="node">
<title>Node13</title>
<g id="a_node14"><a xlink:href="a05634.html" target="_top" xlink:title="Primary class template codecvt.">
<polygon fill="white" stroke="black" points="350.5,-722.5 350.5,-750.5 474.5,-750.5 474.5,-722.5 350.5,-722.5"/>
<text text-anchor="start" x="358.5" y="-739.3" font-family="Helvetica,sans-Serif" font-size="9.00">std::codecvt&lt; _InternT,</text>
<text text-anchor="middle" x="412.5" y="-729.3" font-family="Helvetica,sans-Serif" font-size="9.00"> _ExternT, _StateT &gt;</text>
</a>
</g>
</g>
<!-- Node11&#45;&gt;Node13 -->
<g id="edge13" class="edge">
<title>Node11&#45;&gt;Node13</title>
<path fill="none" stroke="midnightblue" d="M303.3,-746.91C319.03,-745.4 335.33,-743.83 350.36,-742.39"/>
<polygon fill="midnightblue" stroke="midnightblue" points="302.69,-743.46 293.07,-747.9 303.36,-750.43 302.69,-743.46"/>
</g>
<!-- Node14 -->
<g id="node15" class="node">
<title>Node14</title>
<g id="a_node15"><a xlink:href="a05654.html" target="_top" xlink:title="class codecvt_byname [22.2.1.6].">
<polygon fill="white" stroke="black" points="521,-717.5 521,-755.5 635,-755.5 635,-717.5 521,-717.5"/>
<text text-anchor="start" x="529" y="-744.3" font-family="Helvetica,sans-Serif" font-size="9.00">std::codecvt_byname</text>
<text text-anchor="start" x="529" y="-734.3" font-family="Helvetica,sans-Serif" font-size="9.00">&lt; _InternT, _ExternT,</text>
<text text-anchor="middle" x="578" y="-724.3" font-family="Helvetica,sans-Serif" font-size="9.00"> _StateT &gt;</text>
</a>
</g>
</g>
<!-- Node13&#45;&gt;Node14 -->
<g id="edge14" class="edge">
<title>Node13&#45;&gt;Node14</title>
<path fill="none" stroke="midnightblue" d="M484.9,-736.5C496.97,-736.5 509.36,-736.5 520.97,-736.5"/>
<polygon fill="midnightblue" stroke="midnightblue" points="484.85,-733 474.85,-736.5 484.85,-740 484.85,-733"/>
</g>
<!-- Node587 -->
<g id="node16" class="node">
<title>Node587</title>
<g id="a_node16"><a xlink:href="a09410.html" target="_top" xlink:title="Base class for ctype.">
<polygon fill="white" stroke="black" points="9.5,-485.5 9.5,-503.5 97.5,-503.5 97.5,-485.5 9.5,-485.5"/>
<text text-anchor="middle" x="53.5" y="-492.3" font-family="Helvetica,sans-Serif" font-size="9.00">std::ctype_base</text>
</a>
</g>
</g>
<!-- Node588 -->
<g id="node17" class="node">
<title>Node588</title>
<g id="a_node17"><a xlink:href="a06330.html" target="_top" xlink:title=" ">
<polygon fill="white" stroke="black" points="167,-527.5 167,-555.5 280,-555.5 280,-527.5 167,-527.5"/>
<text text-anchor="start" x="175" y="-544.3" font-family="Helvetica,sans-Serif" font-size="9.00">std::__ctype_abstract</text>
<text text-anchor="middle" x="223.5" y="-534.3" font-family="Helvetica,sans-Serif" font-size="9.00">_base&lt; wchar_t &gt;</text>
</a>
</g>
</g>
<!-- Node587&#45;&gt;Node588 -->
<g id="edge15" class="edge">
<title>Node587&#45;&gt;Node588</title>
<path fill="none" stroke="midnightblue" d="M96.69,-506.3C119.67,-512.73 148.24,-520.73 172.35,-527.47"/>
<polygon fill="midnightblue" stroke="midnightblue" points="97.47,-502.89 86.89,-503.56 95.58,-509.63 97.47,-502.89"/>
</g>
<!-- Node590 -->
<g id="node19" class="node">
<title>Node590</title>
<g id="a_node19"><a xlink:href="a06330.html" target="_top" xlink:title="Common base for ctype facet.">
<polygon fill="white" stroke="black" points="167,-480.5 167,-508.5 280,-508.5 280,-480.5 167,-480.5"/>
<text text-anchor="start" x="175" y="-497.3" font-family="Helvetica,sans-Serif" font-size="9.00">std::__ctype_abstract</text>
<text text-anchor="middle" x="223.5" y="-487.3" font-family="Helvetica,sans-Serif" font-size="9.00">_base&lt; _CharT &gt;</text>
</a>
</g>
</g>
<!-- Node587&#45;&gt;Node590 -->
<g id="edge17" class="edge">
<title>Node587&#45;&gt;Node590</title>
<path fill="none" stroke="midnightblue" d="M107.91,-494.5C126.65,-494.5 147.75,-494.5 166.69,-494.5"/>
<polygon fill="midnightblue" stroke="midnightblue" points="107.76,-491 97.76,-494.5 107.76,-498 107.76,-491"/>
</g>
<!-- Node593 -->
<g id="node22" class="node">
<title>Node593</title>
<g id="a_node22"><a xlink:href="a06338.html" target="_top" xlink:title="The ctype&lt;char&gt; specialization.">
<polygon fill="white" stroke="black" points="171.5,-443.5 171.5,-461.5 275.5,-461.5 275.5,-443.5 171.5,-443.5"/>
<text text-anchor="middle" x="223.5" y="-450.3" font-family="Helvetica,sans-Serif" font-size="9.00">std::ctype&lt; char &gt;</text>
</a>
</g>
</g>
<!-- Node587&#45;&gt;Node593 -->
<g id="edge20" class="edge">
<title>Node587&#45;&gt;Node593</title>
<path fill="none" stroke="midnightblue" d="M96.58,-482.7C111.24,-478.69 127.81,-474.28 143,-470.5 155.36,-467.43 168.86,-464.29 181.16,-461.51"/>
<polygon fill="midnightblue" stroke="midnightblue" points="95.49,-479.37 86.78,-485.39 97.35,-486.12 95.49,-479.37"/>
</g>
<!-- Node589 -->
<g id="node18" class="node">
<title>Node589</title>
<g id="a_node18"><a xlink:href="a06342.html" target="_top" xlink:title="The ctype&lt;wchar_t&gt; specialization.">
<polygon fill="white" stroke="black" points="353,-532.5 353,-550.5 472,-550.5 472,-532.5 353,-532.5"/>
<text text-anchor="middle" x="412.5" y="-539.3" font-family="Helvetica,sans-Serif" font-size="9.00">std::ctype&lt; wchar_t &gt;</text>
</a>
</g>
</g>
<!-- Node588&#45;&gt;Node589 -->
<g id="edge16" class="edge">
<title>Node588&#45;&gt;Node589</title>
<path fill="none" stroke="midnightblue" d="M290.25,-541.5C310.65,-541.5 332.98,-541.5 352.86,-541.5"/>
<polygon fill="midnightblue" stroke="midnightblue" points="290.1,-538 280.1,-541.5 290.1,-545 290.1,-538"/>
</g>
<!-- Node591 -->
<g id="node20" class="node">
<title>Node591</title>
<g id="a_node20"><a xlink:href="a06334.html" target="_top" xlink:title="Primary class template ctype facet.">
<polygon fill="white" stroke="black" points="355.5,-488.5 355.5,-506.5 469.5,-506.5 469.5,-488.5 355.5,-488.5"/>
<text text-anchor="middle" x="412.5" y="-495.3" font-family="Helvetica,sans-Serif" font-size="9.00">std::ctype&lt; _CharT &gt;</text>
</a>
</g>
</g>
<!-- Node590&#45;&gt;Node591 -->
<g id="edge18" class="edge">
<title>Node590&#45;&gt;Node591</title>
<path fill="none" stroke="midnightblue" d="M290.35,-495.56C311.62,-495.9 334.98,-496.27 355.47,-496.6"/>
<polygon fill="midnightblue" stroke="midnightblue" points="290.15,-492.05 280.1,-495.39 290.04,-499.05 290.15,-492.05"/>
</g>
<!-- Node592 -->
<g id="node21" class="node">
<title>Node592</title>
<g id="a_node21"><a xlink:href="a06346.html" target="_top" xlink:title="class ctype_byname [22.2.1.2].">
<polygon fill="white" stroke="black" points="522.5,-483.5 522.5,-511.5 633.5,-511.5 633.5,-483.5 522.5,-483.5"/>
<text text-anchor="start" x="530.5" y="-500.3" font-family="Helvetica,sans-Serif" font-size="9.00">std::ctype_byname&lt;</text>
<text text-anchor="middle" x="578" y="-490.3" font-family="Helvetica,sans-Serif" font-size="9.00"> _CharT &gt;</text>
</a>
</g>
</g>
<!-- Node591&#45;&gt;Node592 -->
<g id="edge19" class="edge">
<title>Node591&#45;&gt;Node592</title>
<path fill="none" stroke="midnightblue" d="M479.89,-497.5C493.97,-497.5 508.69,-497.5 522.29,-497.5"/>
<polygon fill="midnightblue" stroke="midnightblue" points="479.77,-494 469.77,-497.5 479.77,-501 479.77,-494"/>
</g>
<!-- Node594 -->
<g id="node23" class="node">
<title>Node594</title>
<g id="a_node23"><a xlink:href="a06350.html" target="_top" xlink:title="22.2.1.4 Class ctype_byname specializations.">
<polygon fill="white" stroke="black" points="357,-441.5 357,-469.5 468,-469.5 468,-441.5 357,-441.5"/>
<text text-anchor="start" x="365" y="-458.3" font-family="Helvetica,sans-Serif" font-size="9.00">std::ctype_byname&lt;</text>
<text text-anchor="middle" x="412.5" y="-448.3" font-family="Helvetica,sans-Serif" font-size="9.00"> char &gt;</text>
</a>
</g>
</g>
<!-- Node593&#45;&gt;Node594 -->
<g id="edge21" class="edge">
<title>Node593&#45;&gt;Node594</title>
<path fill="none" stroke="midnightblue" d="M285.89,-453.48C308.79,-453.85 334.61,-454.27 356.86,-454.62"/>
<polygon fill="midnightblue" stroke="midnightblue" points="285.65,-449.98 275.6,-453.32 285.54,-456.98 285.65,-449.98"/>
</g>
<!-- Node678 -->
<g id="node24" class="node">
<title>Node678</title>
<g id="a_node24"><a xlink:href="a06294.html" target="_top" xlink:title="Localization functionality base class.">
<polygon fill="white" stroke="black" points="8,-401.5 8,-419.5 99,-419.5 99,-401.5 8,-401.5"/>
<text text-anchor="middle" x="53.5" y="-408.3" font-family="Helvetica,sans-Serif" font-size="9.00">std::locale::facet</text>
</a>
</g>
</g>
<!-- Node678&#45;&gt;Node1 -->
<g id="edge22" class="edge">
<title>Node678&#45;&gt;Node1</title>
<path fill="none" stroke="midnightblue" d="M71.56,-426.79C83.37,-439.07 98.44,-456.91 107,-475.5 143.67,-555.16 85.98,-602.87 143,-669.5 148.04,-675.39 154.4,-680.05 161.32,-683.72"/>
<polygon fill="midnightblue" stroke="midnightblue" points="73.92,-424.2 64.38,-419.58 68.96,-429.14 73.92,-424.2"/>
</g>
<!-- Node678&#45;&gt;Node3 -->
<g id="edge23" class="edge">
<title>Node678&#45;&gt;Node3</title>
<path fill="none" stroke="midnightblue" d="M71.25,-426.94C82.9,-439.29 97.92,-457.16 107,-475.5 136.85,-535.78 96.43,-573.96 143,-622.5 146.28,-625.92 150.04,-628.84 154.09,-631.34"/>
<polygon fill="midnightblue" stroke="midnightblue" points="73.66,-424.4 64.17,-419.68 68.64,-429.29 73.66,-424.4"/>
</g>
<!-- Node678&#45;&gt;Node5 -->
<g id="edge24" class="edge">
<title>Node678&#45;&gt;Node5</title>
<path fill="none" stroke="midnightblue" d="M70.09,-426.92C81.42,-439.49 96.53,-457.64 107,-475.5 128.78,-512.67 111.91,-535.68 143,-565.5 148.28,-570.56 154.53,-574.72 161.17,-578.12"/>
<polygon fill="midnightblue" stroke="midnightblue" points="72.63,-424.51 63.28,-419.53 67.48,-429.26 72.63,-424.51"/>
</g>
<!-- Node678&#45;&gt;Node7 -->
<g id="edge25" class="edge">
<title>Node678&#45;&gt;Node7</title>
<path fill="none" stroke="midnightblue" d="M72.47,-427.01C84.44,-439.17 99.33,-456.78 107,-475.5 137.9,-550.92 92.69,-776.37 143,-840.5 146.07,-844.41 149.73,-847.78 153.76,-850.68"/>
<polygon fill="midnightblue" stroke="midnightblue" points="74.73,-424.33 65.13,-419.85 69.84,-429.34 74.73,-424.33"/>
</g>
<!-- Node678&#45;&gt;Node9 -->
<g id="edge26" class="edge">
<title>Node678&#45;&gt;Node9</title>
<path fill="none" stroke="midnightblue" d="M72.36,-427.05C84.28,-439.23 99.16,-456.85 107,-475.5 160.4,-602.55 56.96,-675.84 143,-783.5 147.93,-789.67 154.32,-794.49 161.33,-798.24"/>
<polygon fill="midnightblue" stroke="midnightblue" points="74.65,-424.39 65.06,-419.88 69.74,-429.39 74.65,-424.39"/>
</g>
<!-- Node678&#45;&gt;Node11 -->
<g id="edge28" class="edge">
<title>Node678&#45;&gt;Node11</title>
<path fill="none" stroke="midnightblue" d="M71.79,-426.69C83.71,-438.91 98.82,-456.74 107,-475.5 152.02,-578.81 71.5,-639.39 143,-726.5 146.16,-730.35 149.88,-733.66 153.96,-736.53"/>
<polygon fill="midnightblue" stroke="midnightblue" points="74.1,-424.05 64.53,-419.51 69.18,-429.03 74.1,-424.05"/>
</g>
<!-- Node678&#45;&gt;Node588 -->
<g id="edge27" class="edge">
<title>Node678&#45;&gt;Node588</title>
<path fill="none" stroke="midnightblue" d="M68.2,-427.48C92.44,-457.49 140.58,-516.91 143,-518.5 150.2,-523.25 158.39,-527.03 166.71,-530.04"/>
<polygon fill="midnightblue" stroke="midnightblue" points="70.79,-425.12 61.79,-419.54 65.35,-429.52 70.79,-425.12"/>
</g>
<!-- Node678&#45;&gt;Node590 -->
<g id="edge29" class="edge">
<title>Node678&#45;&gt;Node590</title>
<path fill="none" stroke="midnightblue" d="M73.69,-426.04C90.95,-439.38 117.45,-458.33 143,-470.5 150.81,-474.22 159.33,-477.51 167.79,-480.38"/>
<polygon fill="midnightblue" stroke="midnightblue" points="75.58,-423.08 65.56,-419.64 71.25,-428.58 75.58,-423.08"/>
</g>
<!-- Node678&#45;&gt;Node593 -->
<g id="edge32" class="edge">
<title>Node678&#45;&gt;Node593</title>
<path fill="none" stroke="midnightblue" d="M98.5,-422.12C112.69,-425.82 128.5,-429.88 143,-433.5 156.36,-436.83 171,-440.37 184.05,-443.47"/>
<polygon fill="midnightblue" stroke="midnightblue" points="99.06,-418.65 88.5,-419.5 97.29,-425.42 99.06,-418.65"/>
</g>
<!-- Node679 -->
<g id="node25" class="node">
<title>Node679</title>
<g id="a_node25"><a xlink:href="a06306.html" target="_top" xlink:title="Facet for localized string comparison.">
<polygon fill="white" stroke="black" points="164.5,-359.5 164.5,-377.5 282.5,-377.5 282.5,-359.5 164.5,-359.5"/>
<text text-anchor="middle" x="223.5" y="-366.3" font-family="Helvetica,sans-Serif" font-size="9.00">std::collate&lt; _CharT &gt;</text>
</a>
</g>
</g>
<!-- Node678&#45;&gt;Node679 -->
<g id="edge30" class="edge">
<title>Node678&#45;&gt;Node679</title>
<path fill="none" stroke="midnightblue" d="M96.58,-398.7C111.24,-394.69 127.81,-390.28 143,-386.5 155.36,-383.43 168.86,-380.29 181.16,-377.51"/>
<polygon fill="midnightblue" stroke="midnightblue" points="95.49,-395.37 86.78,-401.39 97.35,-402.12 95.49,-395.37"/>
</g>
<!-- Node681 -->
<g id="node27" class="node">
<title>Node681</title>
<g id="a_node27"><a xlink:href="a06454.html" target="_top" xlink:title="Primary class template messages.">
<polygon fill="white" stroke="black" points="157,-97.5 157,-115.5 290,-115.5 290,-97.5 157,-97.5"/>
<text text-anchor="middle" x="223.5" y="-104.3" font-family="Helvetica,sans-Serif" font-size="9.00">std::messages&lt; _CharT &gt;</text>
</a>
</g>
</g>
<!-- Node678&#45;&gt;Node681 -->
<g id="edge33" class="edge">
<title>Node678&#45;&gt;Node681</title>
<path fill="none" stroke="midnightblue" d="M54.3,-391.35C54.88,-339.91 63.91,-197.69 143,-124.5 147.05,-120.75 151.71,-117.73 156.7,-115.29"/>
<polygon fill="midnightblue" stroke="midnightblue" points="50.8,-391.39 54.29,-401.39 57.8,-391.4 50.8,-391.39"/>
</g>
<!-- Node683 -->
<g id="node29" class="node">
<title>Node683</title>
<g id="a_node29"><a xlink:href="a06442.html" target="_top" xlink:title="Primary class template money_get.">
<polygon fill="white" stroke="black" points="158,-312.5 158,-340.5 289,-340.5 289,-312.5 158,-312.5"/>
<text text-anchor="start" x="166" y="-329.3" font-family="Helvetica,sans-Serif" font-size="9.00">std::money_get&lt; _CharT,</text>
<text text-anchor="middle" x="223.5" y="-319.3" font-family="Helvetica,sans-Serif" font-size="9.00"> _InIter &gt;</text>
</a>
</g>
</g>
<!-- Node678&#45;&gt;Node683 -->
<g id="edge35" class="edge">
<title>Node678&#45;&gt;Node683</title>
<path fill="none" stroke="midnightblue" d="M73.33,-394.83C90.53,-381.2 117.15,-361.75 143,-349.5 150.14,-346.12 157.88,-343.12 165.64,-340.51"/>
<polygon fill="midnightblue" stroke="midnightblue" points="70.82,-392.36 65.24,-401.37 75.22,-397.8 70.82,-392.36"/>
</g>
<!-- Node684 -->
<g id="node30" class="node">
<title>Node684</title>
<g id="a_node30"><a xlink:href="a06446.html" target="_top" xlink:title="Primary class template money_put.">
<polygon fill="white" stroke="black" points="157.5,-265.5 157.5,-293.5 289.5,-293.5 289.5,-265.5 157.5,-265.5"/>
<text text-anchor="start" x="165.5" y="-282.3" font-family="Helvetica,sans-Serif" font-size="9.00">std::money_put&lt; _CharT,</text>
<text text-anchor="middle" x="223.5" y="-272.3" font-family="Helvetica,sans-Serif" font-size="9.00"> _OutIter &gt;</text>
</a>
</g>
</g>
<!-- Node678&#45;&gt;Node684 -->
<g id="edge36" class="edge">
<title>Node678&#45;&gt;Node684</title>
<path fill="none" stroke="midnightblue" d="M64.43,-392.6C78.7,-368.54 107.25,-326.07 143,-302.5 148.28,-299.02 154.09,-296.06 160.1,-293.54"/>
<polygon fill="midnightblue" stroke="midnightblue" points="61.32,-390.99 59.37,-401.4 67.39,-394.48 61.32,-390.99"/>
</g>
<!-- Node685 -->
<g id="node31" class="node">
<title>Node685</title>
<g id="a_node31"><a xlink:href="a06434.html" target="_top" xlink:title="Primary class template moneypunct.">
<polygon fill="white" stroke="black" points="154,-49.5 154,-77.5 293,-77.5 293,-49.5 154,-49.5"/>
<text text-anchor="start" x="162" y="-66.3" font-family="Helvetica,sans-Serif" font-size="9.00">std::moneypunct&lt; _CharT,</text>
<text text-anchor="middle" x="223.5" y="-56.3" font-family="Helvetica,sans-Serif" font-size="9.00"> _Intl &gt;</text>
</a>
</g>
</g>
<!-- Node678&#45;&gt;Node685 -->
<g id="edge37" class="edge">
<title>Node678&#45;&gt;Node685</title>
<path fill="none" stroke="midnightblue" d="M53.79,-391.11C52.84,-335.65 57.95,-174.77 143,-87.5 146.82,-83.58 151.26,-80.29 156.05,-77.54"/>
<polygon fill="midnightblue" stroke="midnightblue" points="50.29,-391.37 54.05,-401.28 57.29,-391.19 50.29,-391.37"/>
</g>
<!-- Node687 -->
<g id="node33" class="node">
<title>Node687</title>
<g id="a_node33"><a xlink:href="a06374.html" target="_top" xlink:title="Primary class template num_get.">
<polygon fill="white" stroke="black" points="162.5,-218.5 162.5,-246.5 284.5,-246.5 284.5,-218.5 162.5,-218.5"/>
<text text-anchor="start" x="170.5" y="-235.3" font-family="Helvetica,sans-Serif" font-size="9.00">std::num_get&lt; _CharT,</text>
<text text-anchor="middle" x="223.5" y="-225.3" font-family="Helvetica,sans-Serif" font-size="9.00"> _InIter &gt;</text>
</a>
</g>
</g>
<!-- Node678&#45;&gt;Node687 -->
<g id="edge39" class="edge">
<title>Node678&#45;&gt;Node687</title>
<path fill="none" stroke="midnightblue" d="M60.11,-391.48C70.76,-358.71 97.06,-291.66 143,-255.5 148.76,-250.97 155.38,-247.33 162.29,-244.41"/>
<polygon fill="midnightblue" stroke="midnightblue" points="56.72,-390.59 57.09,-401.18 63.41,-392.67 56.72,-390.59"/>
</g>
<!-- Node688 -->
<g id="node34" class="node">
<title>Node688</title>
<g id="a_node34"><a xlink:href="a06378.html" target="_top" xlink:title="Primary class template num_put.">
<polygon fill="white" stroke="black" points="162.5,-171.5 162.5,-199.5 284.5,-199.5 284.5,-171.5 162.5,-171.5"/>
<text text-anchor="start" x="170.5" y="-188.3" font-family="Helvetica,sans-Serif" font-size="9.00">std::num_put&lt; _CharT,</text>
<text text-anchor="middle" x="223.5" y="-178.3" font-family="Helvetica,sans-Serif" font-size="9.00"> _OutIter &gt;</text>
</a>
</g>
</g>
<!-- Node678&#45;&gt;Node688 -->
<g id="edge40" class="edge">
<title>Node678&#45;&gt;Node688</title>
<path fill="none" stroke="midnightblue" d="M57.4,-391.19C64.44,-351.05 86.28,-258.22 143,-208.5 148.62,-203.57 155.23,-199.7 162.21,-196.66"/>
<polygon fill="midnightblue" stroke="midnightblue" points="53.91,-390.81 55.75,-401.24 60.82,-391.94 53.91,-390.81"/>
</g>
<!-- Node689 -->
<g id="node35" class="node">
<title>Node689</title>
<g id="a_node35"><a xlink:href="a06366.html" target="_top" xlink:title="Primary class template numpunct.">
<polygon fill="white" stroke="black" points="155,-134.5 155,-152.5 292,-152.5 292,-134.5 155,-134.5"/>
<text text-anchor="middle" x="223.5" y="-141.3" font-family="Helvetica,sans-Serif" font-size="9.00">std::numpunct&lt; _CharT &gt;</text>
</a>
</g>
</g>
<!-- Node678&#45;&gt;Node689 -->
<g id="edge41" class="edge">
<title>Node678&#45;&gt;Node689</title>
<path fill="none" stroke="midnightblue" d="M55.34,-391.02C58.48,-343.96 73.27,-223.4 143,-161.5 147.02,-157.93 151.6,-155.02 156.48,-152.66"/>
<polygon fill="midnightblue" stroke="midnightblue" points="51.84,-390.91 54.78,-401.09 58.83,-391.3 51.84,-390.91"/>
</g>
<!-- Node691 -->
<g id="node37" class="node">
<title>Node691</title>
<g id="a_node37"><a xlink:href="a06406.html" target="_top" xlink:title="Primary class template time_get.">
<polygon fill="white" stroke="black" points="163,-2.5 163,-30.5 284,-30.5 284,-2.5 163,-2.5"/>
<text text-anchor="start" x="171" y="-19.3" font-family="Helvetica,sans-Serif" font-size="9.00">std::time_get&lt; _CharT,</text>
<text text-anchor="middle" x="223.5" y="-9.3" font-family="Helvetica,sans-Serif" font-size="9.00"> _InIter &gt;</text>
</a>
</g>
</g>
<!-- Node678&#45;&gt;Node691 -->
<g id="edge43" class="edge">
<title>Node678&#45;&gt;Node691</title>
<path fill="none" stroke="midnightblue" d="M57.9,-391.4C70.89,-319.21 117.95,-65.77 143,-39.5 148.55,-33.68 155.48,-29.3 162.92,-26.02"/>
<polygon fill="midnightblue" stroke="midnightblue" points="54.43,-390.91 56.11,-401.37 61.32,-392.14 54.43,-390.91"/>
</g>
<!-- Node693 -->
<g id="node39" class="node">
<title>Node693</title>
<g id="a_node39"><a xlink:href="a06414.html" target="_top" xlink:title="Primary class template time_put.">
<polygon fill="white" stroke="black" points="162.5,-396.5 162.5,-424.5 284.5,-424.5 284.5,-396.5 162.5,-396.5"/>
<text text-anchor="start" x="170.5" y="-413.3" font-family="Helvetica,sans-Serif" font-size="9.00">std::time_put&lt; _CharT,</text>
<text text-anchor="middle" x="223.5" y="-403.3" font-family="Helvetica,sans-Serif" font-size="9.00"> _OutIter &gt;</text>
</a>
</g>
</g>
<!-- Node678&#45;&gt;Node693 -->
<g id="edge45" class="edge">
<title>Node678&#45;&gt;Node693</title>
<path fill="none" stroke="midnightblue" d="M109.34,-410.5C126.25,-410.5 144.96,-410.5 162.21,-410.5"/>
<polygon fill="midnightblue" stroke="midnightblue" points="109.08,-407 99.08,-410.5 109.08,-414 109.08,-407"/>
</g>
<!-- Node680 -->
<g id="node26" class="node">
<title>Node680</title>
<g id="a_node26"><a xlink:href="a06310.html" target="_top" xlink:title="class collate_byname [22.2.4.2].">
<polygon fill="white" stroke="black" points="359,-347.5 359,-375.5 466,-375.5 466,-347.5 359,-347.5"/>
<text text-anchor="start" x="367" y="-364.3" font-family="Helvetica,sans-Serif" font-size="9.00">std::collate_byname</text>
<text text-anchor="middle" x="412.5" y="-354.3" font-family="Helvetica,sans-Serif" font-size="9.00">&lt; _CharT &gt;</text>
</a>
</g>
</g>
<!-- Node679&#45;&gt;Node680 -->
<g id="edge31" class="edge">
<title>Node679&#45;&gt;Node680</title>
<path fill="none" stroke="midnightblue" d="M292.81,-365.94C314.58,-365.13 338.31,-364.24 358.79,-363.47"/>
<polygon fill="midnightblue" stroke="midnightblue" points="292.5,-362.45 282.64,-366.32 292.77,-369.45 292.5,-362.45"/>
</g>
<!-- Node682 -->
<g id="node28" class="node">
<title>Node682</title>
<g id="a_node28"><a xlink:href="a06458.html" target="_top" xlink:title="class messages_byname [22.2.7.2].">
<polygon fill="white" stroke="black" points="351.5,-94.5 351.5,-122.5 473.5,-122.5 473.5,-94.5 351.5,-94.5"/>
<text text-anchor="start" x="359.5" y="-111.3" font-family="Helvetica,sans-Serif" font-size="9.00">std::messages_byname</text>
<text text-anchor="middle" x="412.5" y="-101.3" font-family="Helvetica,sans-Serif" font-size="9.00">&lt; _CharT &gt;</text>
</a>
</g>
</g>
<!-- Node681&#45;&gt;Node682 -->
<g id="edge34" class="edge">
<title>Node681&#45;&gt;Node682</title>
<path fill="none" stroke="midnightblue" d="M300.57,-107.31C317.46,-107.49 335.15,-107.68 351.31,-107.86"/>
<polygon fill="midnightblue" stroke="midnightblue" points="300.2,-103.81 290.17,-107.2 300.13,-110.81 300.2,-103.81"/>
</g>
<!-- Node686 -->
<g id="node32" class="node">
<title>Node686</title>
<g id="a_node32"><a xlink:href="a06438.html" target="_top" xlink:title="class moneypunct_byname [22.2.6.4].">
<polygon fill="white" stroke="black" points="344.5,-47.5 344.5,-75.5 480.5,-75.5 480.5,-47.5 344.5,-47.5"/>
<text text-anchor="start" x="352.5" y="-64.3" font-family="Helvetica,sans-Serif" font-size="9.00">std::moneypunct_byname</text>
<text text-anchor="middle" x="412.5" y="-54.3" font-family="Helvetica,sans-Serif" font-size="9.00">&lt; _CharT, _Intl &gt;</text>
</a>
</g>
</g>
<!-- Node685&#45;&gt;Node686 -->
<g id="edge38" class="edge">
<title>Node685&#45;&gt;Node686</title>
<path fill="none" stroke="midnightblue" d="M303.42,-62.66C317.09,-62.51 331.18,-62.36 344.5,-62.22"/>
<polygon fill="midnightblue" stroke="midnightblue" points="303.03,-59.16 293.07,-62.77 303.11,-66.16 303.03,-59.16"/>
</g>
<!-- Node690 -->
<g id="node36" class="node">
<title>Node690</title>
<g id="a_node36"><a xlink:href="a06370.html" target="_top" xlink:title="class numpunct_byname [22.2.3.2].">
<polygon fill="white" stroke="black" points="349.5,-141.5 349.5,-169.5 475.5,-169.5 475.5,-141.5 349.5,-141.5"/>
<text text-anchor="start" x="357.5" y="-158.3" font-family="Helvetica,sans-Serif" font-size="9.00">std::numpunct_byname</text>
<text text-anchor="middle" x="412.5" y="-148.3" font-family="Helvetica,sans-Serif" font-size="9.00">&lt; _CharT &gt;</text>
</a>
</g>
</g>
<!-- Node689&#45;&gt;Node690 -->
<g id="edge42" class="edge">
<title>Node689&#45;&gt;Node690</title>
<path fill="none" stroke="midnightblue" d="M302.23,-148.49C317.95,-149.5 334.28,-150.54 349.38,-151.51"/>
<polygon fill="midnightblue" stroke="midnightblue" points="302.21,-144.98 292.01,-147.83 301.77,-151.97 302.21,-144.98"/>
</g>
<!-- Node692 -->
<g id="node38" class="node">
<title>Node692</title>
<g id="a_node38"><a xlink:href="a06410.html" target="_top" xlink:title="class time_get_byname [22.2.5.2].">
<polygon fill="white" stroke="black" points="353.5,-0.5 353.5,-28.5 471.5,-28.5 471.5,-0.5 353.5,-0.5"/>
<text text-anchor="start" x="361.5" y="-17.3" font-family="Helvetica,sans-Serif" font-size="9.00">std::time_get_byname</text>
<text text-anchor="middle" x="412.5" y="-7.3" font-family="Helvetica,sans-Serif" font-size="9.00">&lt; _CharT, _InIter &gt;</text>
</a>
</g>
</g>
<!-- Node691&#45;&gt;Node692 -->
<g id="edge44" class="edge">
<title>Node691&#45;&gt;Node692</title>
<path fill="none" stroke="midnightblue" d="M294.21,-15.75C313.68,-15.55 334.62,-15.32 353.34,-15.12"/>
<polygon fill="midnightblue" stroke="midnightblue" points="294.14,-12.25 284.18,-15.86 294.22,-19.25 294.14,-12.25"/>
</g>
<!-- Node694 -->
<g id="node40" class="node">
<title>Node694</title>
<g id="a_node40"><a xlink:href="a06418.html" target="_top" xlink:title="class time_put_byname [22.2.5.4].">
<polygon fill="white" stroke="black" points="353,-394.5 353,-422.5 472,-422.5 472,-394.5 353,-394.5"/>
<text text-anchor="start" x="361" y="-411.3" font-family="Helvetica,sans-Serif" font-size="9.00">std::time_put_byname</text>
<text text-anchor="middle" x="412.5" y="-401.3" font-family="Helvetica,sans-Serif" font-size="9.00">&lt; _CharT, _OutIter &gt;</text>
</a>
</g>
</g>
<!-- Node693&#45;&gt;Node694 -->
<g id="edge46" class="edge">
<title>Node693&#45;&gt;Node694</title>
<path fill="none" stroke="midnightblue" d="M294.82,-409.75C313.89,-409.54 334.33,-409.33 352.69,-409.13"/>
<polygon fill="midnightblue" stroke="midnightblue" points="294.66,-406.25 284.7,-409.86 294.73,-413.25 294.66,-406.25"/>
</g>
<!-- Node1027 -->
<g id="node41" class="node">
<title>Node1027</title>
<g id="a_node41"><a xlink:href="a06450.html" target="_top" xlink:title="Messages facet base class providing catalog typedef.">
<polygon fill="white" stroke="black" points="0,-97.5 0,-115.5 107,-115.5 107,-97.5 0,-97.5"/>
<text text-anchor="middle" x="53.5" y="-104.3" font-family="Helvetica,sans-Serif" font-size="9.00">std::messages_base</text>
</a>
</g>
</g>
<!-- Node1027&#45;&gt;Node681 -->
<g id="edge47" class="edge">
<title>Node1027&#45;&gt;Node681</title>
<path fill="none" stroke="midnightblue" d="M117.39,-106.5C130.32,-106.5 143.96,-106.5 156.98,-106.5"/>
<polygon fill="midnightblue" stroke="midnightblue" points="117.2,-103 107.2,-106.5 117.2,-110 117.2,-103"/>
</g>
<!-- Node1033 -->
<g id="node42" class="node">
<title>Node1033</title>
<g id="a_node42"><a xlink:href="a06422.html" target="_top" xlink:title="Money format ordering data.">
<polygon fill="white" stroke="black" points="7,-54.5 7,-72.5 100,-72.5 100,-54.5 7,-54.5"/>
<text text-anchor="middle" x="53.5" y="-61.3" font-family="Helvetica,sans-Serif" font-size="9.00">std::money_base</text>
</a>
</g>
</g>
<!-- Node1033&#45;&gt;Node685 -->
<g id="edge48" class="edge">
<title>Node1033&#45;&gt;Node685</title>
<path fill="none" stroke="midnightblue" d="M110.75,-63.5C124.6,-63.5 139.59,-63.5 153.96,-63.5"/>
<polygon fill="midnightblue" stroke="midnightblue" points="110.41,-60 100.41,-63.5 110.41,-67 110.41,-60"/>
</g>
<!-- Node1257 -->
<g id="node43" class="node">
<title>Node1257</title>
<g id="a_node43"><a xlink:href="a06390.html" target="_top" xlink:title="Time format ordering data.">
<polygon fill="white" stroke="black" points="12,-7.5 12,-25.5 95,-25.5 95,-7.5 12,-7.5"/>
<text text-anchor="middle" x="53.5" y="-14.3" font-family="Helvetica,sans-Serif" font-size="9.00">std::time_base</text>
</a>
</g>
</g>
<!-- Node1257&#45;&gt;Node691 -->
<g id="edge49" class="edge">
<title>Node1257&#45;&gt;Node691</title>
<path fill="none" stroke="midnightblue" d="M105.25,-16.5C123.39,-16.5 144,-16.5 162.82,-16.5"/>
<polygon fill="midnightblue" stroke="midnightblue" points="105.17,-13 95.17,-16.5 105.17,-20 105.17,-13"/>
</g>
</g>
</svg>
