<?xml version="1.0" encoding="UTF-8" standalone="no"?>
<!DOCTYPE svg PUBLIC "-//W3C//DTD SVG 1.1//EN"
 "http://www.w3.org/Graphics/SVG/1.1/DTD/svg11.dtd">
<!-- Generated by graphviz version 2.50.0 (0)
 -->
<!-- Title: Graphical Class Hierarchy Pages: 1 -->
<svg width="282pt" height="37pt"
 viewBox="0.00 0.00 282.00 37.00" xmlns="http://www.w3.org/2000/svg" xmlns:xlink="http://www.w3.org/1999/xlink">
<g id="graph0" class="graph" transform="scale(1 1) rotate(0) translate(4 33)">
<title>Graphical Class Hierarchy</title>
<polygon fill="white" stroke="transparent" points="-4,4 -4,-33 278,-33 278,4 -4,4"/>
<!-- Node0 -->
<g id="node1" class="node">
<title>Node0</title>
<g id="a_node1"><a xlink:href="a07394.html" target="_top" xlink:title=" ">
<polygon fill="white" stroke="black" points="0,-0.5 0,-28.5 138,-28.5 138,-0.5 0,-0.5"/>
<text text-anchor="start" x="8" y="-17.3" font-family="Helvetica,sans-Serif" font-size="9.00">std::ranges::view_interface</text>
<text text-anchor="middle" x="69" y="-7.3" font-family="Helvetica,sans-Serif" font-size="9.00">&lt; single_view&lt; _Tp &gt; &gt;</text>
</a>
</g>
</g>
<!-- Node1 -->
<g id="node2" class="node">
<title>Node1</title>
<g id="a_node2"><a xlink:href="a03054.html" target="_top" xlink:title="A view that contains exactly one element.">
<polygon fill="white" stroke="black" points="174,-0.5 174,-28.5 274,-28.5 274,-0.5 174,-0.5"/>
<text text-anchor="start" x="182" y="-17.3" font-family="Helvetica,sans-Serif" font-size="9.00">std::ranges::single</text>
<text text-anchor="middle" x="224" y="-7.3" font-family="Helvetica,sans-Serif" font-size="9.00">_view&lt; _Tp &gt;</text>
</a>
</g>
</g>
<!-- Node0&#45;&gt;Node1 -->
<g id="edge1" class="edge">
<title>Node0&#45;&gt;Node1</title>
<path fill="none" stroke="midnightblue" d="M148.55,-14.5C157.17,-14.5 165.75,-14.5 173.86,-14.5"/>
<polygon fill="midnightblue" stroke="midnightblue" points="148.44,-11 138.44,-14.5 148.44,-18 148.44,-11"/>
</g>
</g>
</svg>
