<?xml version="1.0" encoding="UTF-8" standalone="no"?>
<!DOCTYPE svg PUBLIC "-//W3C//DTD SVG 1.1//EN"
 "http://www.w3.org/Graphics/SVG/1.1/DTD/svg11.dtd">
<!-- Generated by graphviz version 2.50.0 (0)
 -->
<!-- Title: Graphical Class Hierarchy Pages: 1 -->
<svg width="291pt" height="57pt"
 viewBox="0.00 0.00 291.00 57.00" xmlns="http://www.w3.org/2000/svg" xmlns:xlink="http://www.w3.org/1999/xlink">
<g id="graph0" class="graph" transform="scale(1 1) rotate(0) translate(4 53)">
<title>Graphical Class Hierarchy</title>
<polygon fill="white" stroke="transparent" points="-4,4 -4,-53 287,-53 287,4 -4,4"/>
<!-- Node0 -->
<g id="node1" class="node">
<title>Node0</title>
<g id="a_node1"><a xlink:href="a08210.html" target="_top" xlink:title=" ">
<polygon fill="white" stroke="black" points="0,-0.5 0,-48.5 146,-48.5 146,-0.5 0,-0.5"/>
<text text-anchor="start" x="8" y="-37.3" font-family="Helvetica,sans-Serif" font-size="9.00">std::binary_function</text>
<text text-anchor="start" x="8" y="-27.3" font-family="Helvetica,sans-Serif" font-size="9.00">&lt; _Predicate::first_argument</text>
<text text-anchor="start" x="8" y="-17.3" font-family="Helvetica,sans-Serif" font-size="9.00">_type, _Predicate::second</text>
<text text-anchor="middle" x="73" y="-7.3" font-family="Helvetica,sans-Serif" font-size="9.00">_argument_type, bool &gt;</text>
</a>
</g>
</g>
<!-- Node1 -->
<g id="node2" class="node">
<title>Node1</title>
<g id="a_node2"><a xlink:href="a08450.html" target="_top" xlink:title="One of the negation functors.">
<polygon fill="white" stroke="black" points="182,-10.5 182,-38.5 283,-38.5 283,-10.5 182,-10.5"/>
<text text-anchor="start" x="190" y="-27.3" font-family="Helvetica,sans-Serif" font-size="9.00">std::binary_negate</text>
<text text-anchor="middle" x="232.5" y="-17.3" font-family="Helvetica,sans-Serif" font-size="9.00">&lt; _Predicate &gt;</text>
</a>
</g>
</g>
<!-- Node0&#45;&gt;Node1 -->
<g id="edge1" class="edge">
<title>Node0&#45;&gt;Node1</title>
<path fill="none" stroke="midnightblue" d="M156.42,-24.5C165.04,-24.5 173.6,-24.5 181.69,-24.5"/>
<polygon fill="midnightblue" stroke="midnightblue" points="156.3,-21 146.3,-24.5 156.3,-28 156.3,-21"/>
</g>
</g>
</svg>
