<?xml version="1.0" encoding="UTF-8" standalone="no"?>
<!DOCTYPE svg PUBLIC "-//W3C//DTD SVG 1.1//EN"
 "http://www.w3.org/Graphics/SVG/1.1/DTD/svg11.dtd">
<!-- Generated by graphviz version 2.50.0 (0)
 -->
<!-- Title: Graphical Class Hierarchy Pages: 1 -->
<svg width="465pt" height="57pt"
 viewBox="0.00 0.00 465.00 57.00" xmlns="http://www.w3.org/2000/svg" xmlns:xlink="http://www.w3.org/1999/xlink">
<g id="graph0" class="graph" transform="scale(1 1) rotate(0) translate(4 53)">
<title>Graphical Class Hierarchy</title>
<polygon fill="white" stroke="transparent" points="-4,4 -4,-53 461,-53 461,4 -4,4"/>
<!-- Node0 -->
<g id="node1" class="node">
<title>Node0</title>
<g id="a_node1"><a xlink:href="a08850.html" target="_top" xlink:title=" ">
<polygon fill="white" stroke="black" points="0,-0.5 0,-48.5 132,-48.5 132,-0.5 0,-0.5"/>
<text text-anchor="start" x="8" y="-37.3" font-family="Helvetica,sans-Serif" font-size="9.00">std::_Vector_base&lt;</text>
<text text-anchor="start" x="8" y="-27.3" font-family="Helvetica,sans-Serif" font-size="9.00"> sub_match&lt; _Bi_iter</text>
<text text-anchor="start" x="8" y="-17.3" font-family="Helvetica,sans-Serif" font-size="9.00"> &gt;, allocator&lt; sub_match</text>
<text text-anchor="middle" x="66" y="-7.3" font-family="Helvetica,sans-Serif" font-size="9.00">&lt; _Bi_iter &gt; &gt; &gt;</text>
</a>
</g>
</g>
<!-- Node1 -->
<g id="node2" class="node">
<title>Node1</title>
<g id="a_node2"><a xlink:href="a08862.html" target="_top" xlink:title=" ">
<polygon fill="white" stroke="black" points="168,-5.5 168,-43.5 320,-43.5 320,-5.5 168,-5.5"/>
<text text-anchor="start" x="176" y="-32.3" font-family="Helvetica,sans-Serif" font-size="9.00">std::vector&lt; sub_match</text>
<text text-anchor="start" x="176" y="-22.3" font-family="Helvetica,sans-Serif" font-size="9.00">&lt; _Bi_iter &gt;, allocator</text>
<text text-anchor="middle" x="244" y="-12.3" font-family="Helvetica,sans-Serif" font-size="9.00">&lt; sub_match&lt; _Bi_iter &gt; &gt; &gt;</text>
</a>
</g>
</g>
<!-- Node0&#45;&gt;Node1 -->
<g id="edge1" class="edge">
<title>Node0&#45;&gt;Node1</title>
<path fill="none" stroke="darkgreen" d="M142.26,-24.5C150.73,-24.5 159.36,-24.5 167.83,-24.5"/>
<polygon fill="darkgreen" stroke="darkgreen" points="142.04,-21 132.04,-24.5 142.04,-28 142.04,-21"/>
</g>
<!-- Node2 -->
<g id="node3" class="node">
<title>Node2</title>
<g id="a_node3"><a xlink:href="a07498.html" target="_top" xlink:title="The results of a match or search operation.">
<polygon fill="white" stroke="black" points="356,-10.5 356,-38.5 457,-38.5 457,-10.5 356,-10.5"/>
<text text-anchor="start" x="364" y="-27.3" font-family="Helvetica,sans-Serif" font-size="9.00">std::match_results</text>
<text text-anchor="middle" x="406.5" y="-17.3" font-family="Helvetica,sans-Serif" font-size="9.00">&lt; _Bi_iter, _Alloc &gt;</text>
</a>
</g>
</g>
<!-- Node1&#45;&gt;Node2 -->
<g id="edge2" class="edge">
<title>Node1&#45;&gt;Node2</title>
<path fill="none" stroke="#8b1a1a" d="M330.28,-24.5C338.96,-24.5 347.56,-24.5 355.68,-24.5"/>
<polygon fill="#8b1a1a" stroke="#8b1a1a" points="330.08,-21 320.08,-24.5 330.08,-28 330.08,-21"/>
</g>
</g>
</svg>
