<?xml version="1.0" encoding="UTF-8" standalone="no"?>
<!DOCTYPE svg PUBLIC "-//W3C//DTD SVG 1.1//EN"
 "http://www.w3.org/Graphics/SVG/1.1/DTD/svg11.dtd">
<!-- Generated by graphviz version 2.50.0 (0)
 -->
<!-- Title: Graphical Class Hierarchy Pages: 1 -->
<svg width="551pt" height="37pt"
 viewBox="0.00 0.00 551.00 37.00" xmlns="http://www.w3.org/2000/svg" xmlns:xlink="http://www.w3.org/1999/xlink">
<g id="graph0" class="graph" transform="scale(1 1) rotate(0) translate(4 33)">
<title>Graphical Class Hierarchy</title>
<polygon fill="white" stroke="transparent" points="-4,4 -4,-33 547,-33 547,4 -4,4"/>
<!-- Node0 -->
<g id="node1" class="node">
<title>Node0</title>
<g id="a_node1"><a xlink:href="a12910.html" target="_top" xlink:title=" ">
<polygon fill="white" stroke="black" points="0,-0.5 0,-28.5 156,-28.5 156,-0.5 0,-0.5"/>
<text text-anchor="start" x="8" y="-17.3" font-family="Helvetica,sans-Serif" font-size="9.00">__gnu_pbds::basic_invalidation</text>
<text text-anchor="middle" x="78" y="-7.3" font-family="Helvetica,sans-Serif" font-size="9.00">_guarantee</text>
</a>
</g>
</g>
<!-- Node1 -->
<g id="node2" class="node">
<title>Node1</title>
<g id="a_node2"><a xlink:href="a12914.html" target="_top" xlink:title=" ">
<polygon fill="white" stroke="black" points="192,-0.5 192,-28.5 348,-28.5 348,-0.5 192,-0.5"/>
<text text-anchor="start" x="200" y="-17.3" font-family="Helvetica,sans-Serif" font-size="9.00">__gnu_pbds::point_invalidation</text>
<text text-anchor="middle" x="270" y="-7.3" font-family="Helvetica,sans-Serif" font-size="9.00">_guarantee</text>
</a>
</g>
</g>
<!-- Node0&#45;&gt;Node1 -->
<g id="edge1" class="edge">
<title>Node0&#45;&gt;Node1</title>
<path fill="none" stroke="midnightblue" d="M166.06,-14.5C174.68,-14.5 183.38,-14.5 191.88,-14.5"/>
<polygon fill="midnightblue" stroke="midnightblue" points="166.01,-11 156.01,-14.5 166.01,-18 166.01,-11"/>
</g>
<!-- Node2 -->
<g id="node3" class="node">
<title>Node2</title>
<g id="a_node3"><a xlink:href="a12918.html" target="_top" xlink:title=" ">
<polygon fill="white" stroke="black" points="384,-0.5 384,-28.5 543,-28.5 543,-0.5 384,-0.5"/>
<text text-anchor="start" x="392" y="-17.3" font-family="Helvetica,sans-Serif" font-size="9.00">__gnu_pbds::range_invalidation</text>
<text text-anchor="middle" x="463.5" y="-7.3" font-family="Helvetica,sans-Serif" font-size="9.00">_guarantee</text>
</a>
</g>
</g>
<!-- Node1&#45;&gt;Node2 -->
<g id="edge2" class="edge">
<title>Node1&#45;&gt;Node2</title>
<path fill="none" stroke="midnightblue" d="M358.33,-14.5C366.79,-14.5 375.35,-14.5 383.72,-14.5"/>
<polygon fill="midnightblue" stroke="midnightblue" points="358.06,-11 348.06,-14.5 358.06,-18 358.06,-11"/>
</g>
</g>
</svg>
