<?xml version="1.0" encoding="UTF-8" standalone="no"?>
<!DOCTYPE svg PUBLIC "-//W3C//DTD SVG 1.1//EN"
 "http://www.w3.org/Graphics/SVG/1.1/DTD/svg11.dtd">
<!-- Generated by graphviz version 2.50.0 (0)
 -->
<!-- Title: Graphical Class Hierarchy Pages: 1 -->
<svg width="741pt" height="37pt"
 viewBox="0.00 0.00 741.00 37.00" xmlns="http://www.w3.org/2000/svg" xmlns:xlink="http://www.w3.org/1999/xlink">
<g id="graph0" class="graph" transform="scale(1 1) rotate(0) translate(4 33)">
<title>Graphical Class Hierarchy</title>
<polygon fill="white" stroke="transparent" points="-4,4 -4,-33 737,-33 737,4 -4,4"/>
<!-- Node0 -->
<g id="node1" class="node">
<title>Node0</title>
<g id="a_node1"><a xlink:href="a08622.html" target="_top" xlink:title="Marking input iterators.">
<polygon fill="white" stroke="black" points="0,-5.5 0,-23.5 118,-23.5 118,-5.5 0,-5.5"/>
<text text-anchor="middle" x="59" y="-12.3" font-family="Helvetica,sans-Serif" font-size="9.00">std::input_iterator_tag</text>
</a>
</g>
</g>
<!-- Node1 -->
<g id="node2" class="node">
<title>Node1</title>
<g id="a_node2"><a xlink:href="a08630.html" target="_top" xlink:title="Forward iterators support a superset of input iterator operations.">
<polygon fill="white" stroke="black" points="154,-5.5 154,-23.5 282,-23.5 282,-5.5 154,-5.5"/>
<text text-anchor="middle" x="218" y="-12.3" font-family="Helvetica,sans-Serif" font-size="9.00">std::forward_iterator_tag</text>
</a>
</g>
</g>
<!-- Node0&#45;&gt;Node1 -->
<g id="edge1" class="edge">
<title>Node0&#45;&gt;Node1</title>
<path fill="none" stroke="midnightblue" d="M128.02,-14.5C136.63,-14.5 145.42,-14.5 153.95,-14.5"/>
<polygon fill="midnightblue" stroke="midnightblue" points="128.01,-11 118.01,-14.5 128.01,-18 128.01,-11"/>
</g>
<!-- Node2 -->
<g id="node3" class="node">
<title>Node2</title>
<g id="a_node3"><a xlink:href="a08634.html" target="_top" xlink:title="Bidirectional iterators support a superset of forward iterator operations.">
<polygon fill="white" stroke="black" points="318,-0.5 318,-28.5 410,-28.5 410,-0.5 318,-0.5"/>
<text text-anchor="start" x="326" y="-17.3" font-family="Helvetica,sans-Serif" font-size="9.00">std::bidirectional</text>
<text text-anchor="middle" x="364" y="-7.3" font-family="Helvetica,sans-Serif" font-size="9.00">_iterator_tag</text>
</a>
</g>
</g>
<!-- Node1&#45;&gt;Node2 -->
<g id="edge2" class="edge">
<title>Node1&#45;&gt;Node2</title>
<path fill="none" stroke="midnightblue" d="M292.28,-14.5C300.92,-14.5 309.54,-14.5 317.63,-14.5"/>
<polygon fill="midnightblue" stroke="midnightblue" points="292.16,-11 282.16,-14.5 292.16,-18 292.16,-11"/>
</g>
<!-- Node3 -->
<g id="node4" class="node">
<title>Node3</title>
<g id="a_node4"><a xlink:href="a08638.html" target="_top" xlink:title="Random&#45;access iterators support a superset of bidirectional iterator operations.">
<polygon fill="white" stroke="black" points="446,-0.5 446,-28.5 553,-28.5 553,-0.5 446,-0.5"/>
<text text-anchor="start" x="454" y="-17.3" font-family="Helvetica,sans-Serif" font-size="9.00">std::random_access</text>
<text text-anchor="middle" x="499.5" y="-7.3" font-family="Helvetica,sans-Serif" font-size="9.00">_iterator_tag</text>
</a>
</g>
</g>
<!-- Node2&#45;&gt;Node3 -->
<g id="edge3" class="edge">
<title>Node2&#45;&gt;Node3</title>
<path fill="none" stroke="midnightblue" d="M420.37,-14.5C428.84,-14.5 437.57,-14.5 445.98,-14.5"/>
<polygon fill="midnightblue" stroke="midnightblue" points="420.2,-11 410.2,-14.5 420.2,-18 420.2,-11"/>
</g>
<!-- Node4 -->
<g id="node5" class="node">
<title>Node4</title>
<g id="a_node5"><a xlink:href="a08642.html" target="_top" xlink:title="Contiguous iterators point to objects stored contiguously in memory.">
<polygon fill="white" stroke="black" points="589,-5.5 589,-23.5 733,-23.5 733,-5.5 589,-5.5"/>
<text text-anchor="middle" x="661" y="-12.3" font-family="Helvetica,sans-Serif" font-size="9.00">std::contiguous_iterator_tag</text>
</a>
</g>
</g>
<!-- Node3&#45;&gt;Node4 -->
<g id="edge4" class="edge">
<title>Node3&#45;&gt;Node4</title>
<path fill="none" stroke="midnightblue" d="M563.27,-14.5C571.68,-14.5 580.35,-14.5 588.89,-14.5"/>
<polygon fill="midnightblue" stroke="midnightblue" points="563.17,-11 553.17,-14.5 563.17,-18 563.17,-11"/>
</g>
</g>
</svg>
