<?xml version="1.0" encoding="UTF-8" standalone="no"?>
<!DOCTYPE svg PUBLIC "-//W3C//DTD SVG 1.1//EN"
 "http://www.w3.org/Graphics/SVG/1.1/DTD/svg11.dtd">
<!-- Generated by graphviz version 2.50.0 (0)
 -->
<!-- Title: Concurrency Pages: 1 -->
<svg width="221pt" height="134pt"
 viewBox="0.00 0.00 221.00 134.00" xmlns="http://www.w3.org/2000/svg" xmlns:xlink="http://www.w3.org/1999/xlink">
<g id="graph0" class="graph" transform="scale(1 1) rotate(0) translate(4 130)">
<title>Concurrency</title>
<polygon fill="white" stroke="transparent" points="-4,4 -4,-130 217,-130 217,4 -4,4"/>
<!-- Node5 -->
<g id="node1" class="node">
<title>Node5</title>
<g id="a_node1"><a xlink:href="a01585.html" target="_top" xlink:title=" ">
<polygon fill="white" stroke="black" points="188,-126 135,-126 135,-108 188,-108 188,-126"/>
<text text-anchor="middle" x="161.5" y="-114.8" font-family="Helvetica,sans-Serif" font-size="9.00">Threads</text>
</a>
</g>
</g>
<!-- Node3 -->
<g id="node2" class="node">
<title>Node3</title>
<g id="a_node2"><a xlink:href="a01576.html" target="_top" xlink:title=" ">
<polygon fill="white" stroke="black" points="186.5,-90 136.5,-90 136.5,-72 186.5,-72 186.5,-90"/>
<text text-anchor="middle" x="161.5" y="-78.8" font-family="Helvetica,sans-Serif" font-size="9.00">Futures</text>
</a>
</g>
</g>
<!-- Node2 -->
<g id="node3" class="node">
<title>Node2</title>
<g id="a_node3"><a xlink:href="a01574.html" target="_top" xlink:title=" ">
<polygon fill="white" stroke="black" points="213,-54 110,-54 110,-36 213,-36 213,-54"/>
<text text-anchor="middle" x="161.5" y="-42.8" font-family="Helvetica,sans-Serif" font-size="9.00">Condition Variables</text>
</a>
</g>
</g>
<!-- Node1 -->
<g id="node4" class="node">
<title>Node1</title>
<g id="a_node4"><a xlink:title=" ">
<polygon fill="#bfbfbf" stroke="black" points="74,-72 0,-72 0,-54 74,-54 74,-72"/>
<text text-anchor="middle" x="37" y="-60.8" font-family="Helvetica,sans-Serif" font-size="9.00">Concurrency</text>
</a>
</g>
</g>
<!-- Node1&#45;&gt;Node5 -->
<g id="edge4" class="edge">
<title>Node1&#45;&gt;Node5</title>
<path fill="none" stroke="black" d="M63.8,-76.85C77.37,-83.89 94.38,-92.34 110,-99 117.96,-102.39 126.8,-105.7 134.84,-108.53"/>
<polygon fill="black" stroke="black" points="65.09,-73.57 54.6,-72.02 61.83,-79.77 65.09,-73.57"/>
</g>
<!-- Node1&#45;&gt;Node3 -->
<g id="edge2" class="edge">
<title>Node1&#45;&gt;Node3</title>
<path fill="none" stroke="black" d="M84.26,-69.8C101.96,-72.4 121.44,-75.26 136.28,-77.44"/>
<polygon fill="black" stroke="black" points="84.49,-66.29 74.09,-68.3 83.48,-73.22 84.49,-66.29"/>
</g>
<!-- Node1&#45;&gt;Node2 -->
<g id="edge1" class="edge">
<title>Node1&#45;&gt;Node2</title>
<path fill="none" stroke="black" d="M84.05,-56.23C92.42,-55 101.19,-53.71 109.69,-52.47"/>
<polygon fill="black" stroke="black" points="83.48,-52.78 74.09,-57.7 84.49,-59.71 83.48,-52.78"/>
</g>
<!-- Node4 -->
<g id="node5" class="node">
<title>Node4</title>
<g id="a_node5"><a xlink:href="a01606.html" target="_top" xlink:title=" ">
<polygon fill="white" stroke="black" points="188.5,-18 134.5,-18 134.5,0 188.5,0 188.5,-18"/>
<text text-anchor="middle" x="161.5" y="-6.8" font-family="Helvetica,sans-Serif" font-size="9.00">Mutexes</text>
</a>
</g>
</g>
<!-- Node1&#45;&gt;Node4 -->
<g id="edge3" class="edge">
<title>Node1&#45;&gt;Node4</title>
<path fill="none" stroke="black" d="M63.8,-49.15C77.37,-42.11 94.38,-33.66 110,-27 117.79,-23.68 126.42,-20.44 134.32,-17.65"/>
<polygon fill="black" stroke="black" points="61.83,-46.23 54.6,-53.98 65.09,-52.43 61.83,-46.23"/>
</g>
</g>
</svg>
