<?xml version="1.0" encoding="UTF-8" standalone="no"?>
<!DOCTYPE svg PUBLIC "-//W3C//DTD SVG 1.1//EN"
 "http://www.w3.org/Graphics/SVG/1.1/DTD/svg11.dtd">
<!-- Generated by graphviz version 2.50.0 (0)
 -->
<!-- Title: Extensions Pages: 1 -->
<svg width="256pt" height="98pt"
 viewBox="0.00 0.00 256.00 98.00" xmlns="http://www.w3.org/2000/svg" xmlns:xlink="http://www.w3.org/1999/xlink">
<g id="graph0" class="graph" transform="scale(1 1) rotate(0) translate(4 94)">
<title>Extensions</title>
<polygon fill="white" stroke="transparent" points="-4,4 -4,-94 252,-94 252,4 -4,4"/>
<!-- Node3 -->
<g id="node1" class="node">
<title>Node3</title>
<g id="a_node1"><a xlink:href="a01643.html" target="_top" xlink:title=" ">
<polygon fill="white" stroke="black" points="248,-90 101,-90 101,-72 248,-72 248,-90"/>
<text text-anchor="middle" x="174.5" y="-78.8" font-family="Helvetica,sans-Serif" font-size="9.00">Policy&#45;Based Data Structures</text>
</a>
</g>
</g>
<!-- Node4 -->
<g id="node2" class="node">
<title>Node4</title>
<g id="a_node2"><a xlink:href="a01562.html" target="_top" xlink:title=" ">
<polygon fill="white" stroke="black" points="190.5,-54 158.5,-54 158.5,-36 190.5,-36 190.5,-54"/>
<text text-anchor="middle" x="174.5" y="-42.8" font-family="Helvetica,sans-Serif" font-size="9.00">SGI</text>
</a>
</g>
</g>
<!-- Node1 -->
<g id="node3" class="node">
<title>Node1</title>
<g id="a_node3"><a xlink:title=" ">
<polygon fill="#bfbfbf" stroke="black" points="65,-54 0,-54 0,-36 65,-36 65,-54"/>
<text text-anchor="middle" x="32.5" y="-42.8" font-family="Helvetica,sans-Serif" font-size="9.00">Extensions</text>
</a>
</g>
</g>
<!-- Node1&#45;&gt;Node3 -->
<g id="edge2" class="edge">
<title>Node1&#45;&gt;Node3</title>
<path fill="none" stroke="black" d="M74.92,-56.17C83.54,-58.45 92.56,-60.83 101,-63 112.55,-65.97 125.17,-69.14 136.59,-71.97"/>
<polygon fill="black" stroke="black" points="75.63,-52.73 65.06,-53.54 73.82,-59.5 75.63,-52.73"/>
</g>
<!-- Node1&#45;&gt;Node4 -->
<g id="edge3" class="edge">
<title>Node1&#45;&gt;Node4</title>
<path fill="none" stroke="black" d="M75.58,-45C103.51,-45 138.54,-45 158.23,-45"/>
<polygon fill="black" stroke="black" points="75.27,-41.5 65.27,-45 75.27,-48.5 75.27,-41.5"/>
</g>
<!-- Node2 -->
<g id="node4" class="node">
<title>Node2</title>
<g id="a_node4"><a xlink:href="a01621.html" target="_top" xlink:title=" ">
<polygon fill="white" stroke="black" points="218.5,-18 130.5,-18 130.5,0 218.5,0 218.5,-18"/>
<text text-anchor="middle" x="174.5" y="-6.8" font-family="Helvetica,sans-Serif" font-size="9.00">Dynamic Bitset.</text>
</a>
</g>
</g>
<!-- Node1&#45;&gt;Node2 -->
<g id="edge1" class="edge">
<title>Node1&#45;&gt;Node2</title>
<path fill="none" stroke="black" d="M74.92,-33.83C83.54,-31.55 92.56,-29.17 101,-27 112.55,-24.03 125.17,-20.86 136.59,-18.03"/>
<polygon fill="black" stroke="black" points="73.82,-30.5 65.06,-36.46 75.63,-37.27 73.82,-30.5"/>
</g>
</g>
</svg>
