<?xml version="1.0" encoding="UTF-8" standalone="no"?>
<!DOCTYPE svg PUBLIC "-//W3C//DTD SVG 1.1//EN"
 "http://www.w3.org/Graphics/SVG/1.1/DTD/svg11.dtd">
<!-- Generated by graphviz version 2.50.0 (0)
 -->
<!-- Title: Memory Pages: 1 -->
<svg width="290pt" height="108pt"
 viewBox="0.00 0.00 290.00 108.00" xmlns="http://www.w3.org/2000/svg" xmlns:xlink="http://www.w3.org/1999/xlink">
<g id="graph0" class="graph" transform="scale(1 1) rotate(0) translate(4 104)">
<title>Memory</title>
<polygon fill="white" stroke="transparent" points="-4,4 -4,-104 286,-104 286,4 -4,4"/>
<!-- Node2 -->
<g id="node1" class="node">
<title>Node2</title>
<g id="a_node1"><a xlink:href="a01588.html" target="_top" xlink:title=" ">
<polygon fill="white" stroke="black" points="50,-64 0,-64 0,-46 50,-46 50,-64"/>
<text text-anchor="middle" x="25" y="-52.8" font-family="Helvetica,sans-Serif" font-size="9.00">Utilities</text>
</a>
</g>
</g>
<!-- Node1 -->
<g id="node5" class="node">
<title>Node1</title>
<g id="a_node5"><a xlink:title=" ">
<polygon fill="#bfbfbf" stroke="black" points="139,-64 86,-64 86,-46 139,-46 139,-64"/>
<text text-anchor="middle" x="112.5" y="-52.8" font-family="Helvetica,sans-Serif" font-size="9.00">Memory</text>
</a>
</g>
</g>
<!-- Node2&#45;&gt;Node1 -->
<g id="edge1" class="edge">
<title>Node2&#45;&gt;Node1</title>
<path fill="none" stroke="black" d="M60.37,-55C68.92,-55 77.94,-55 85.97,-55"/>
<polygon fill="black" stroke="black" points="60.27,-51.5 50.27,-55 60.27,-58.5 60.27,-51.5"/>
</g>
<!-- Node4 -->
<g id="node2" class="node">
<title>Node4</title>
<g id="a_node2"><a xlink:href="a01579.html" target="_top" xlink:title=" ">
<polygon fill="white" stroke="black" points="282,-100 175,-100 175,-82 282,-82 282,-100"/>
<text text-anchor="middle" x="228.5" y="-88.8" font-family="Helvetica,sans-Serif" font-size="9.00">Pointer Abstractions</text>
</a>
</g>
</g>
<!-- Node3 -->
<g id="node3" class="node">
<title>Node3</title>
<g id="a_node3"><a xlink:href="a01600.html" target="_top" xlink:title=" ">
<polygon fill="white" stroke="black" points="258.5,-64 198.5,-64 198.5,-46 258.5,-46 258.5,-64"/>
<text text-anchor="middle" x="228.5" y="-52.8" font-family="Helvetica,sans-Serif" font-size="9.00">Allocators</text>
</a>
</g>
</g>
<!-- Node5 -->
<g id="node4" class="node">
<title>Node5</title>
<g id="a_node4"><a xlink:href="a01580.html" target="_top" xlink:title=" ">
<polygon fill="white" stroke="black" points="280.5,-28 176.5,-28 176.5,0 280.5,0 280.5,-28"/>
<text text-anchor="start" x="184.5" y="-16.8" font-family="Helvetica,sans-Serif" font-size="9.00">Pointer Safety and</text>
<text text-anchor="middle" x="228.5" y="-6.8" font-family="Helvetica,sans-Serif" font-size="9.00"> Garbage Collection</text>
</a>
</g>
</g>
<!-- Node1&#45;&gt;Node4 -->
<g id="edge3" class="edge">
<title>Node1&#45;&gt;Node4</title>
<path fill="none" stroke="black" d="M148.69,-66.11C164.77,-71.19 183.58,-77.13 198.79,-81.93"/>
<polygon fill="black" stroke="black" points="149.67,-62.75 139.08,-63.08 147.57,-69.43 149.67,-62.75"/>
</g>
<!-- Node1&#45;&gt;Node3 -->
<g id="edge2" class="edge">
<title>Node1&#45;&gt;Node3</title>
<path fill="none" stroke="black" d="M149.52,-55C165.27,-55 183.51,-55 198.38,-55"/>
<polygon fill="black" stroke="black" points="149.08,-51.5 139.08,-55 149.08,-58.5 149.08,-51.5"/>
</g>
<!-- Node1&#45;&gt;Node5 -->
<g id="edge4" class="edge">
<title>Node1&#45;&gt;Node5</title>
<path fill="none" stroke="black" d="M148.5,-42.41C161.12,-37.88 175.43,-32.73 188.38,-28.07"/>
<polygon fill="black" stroke="black" points="147.03,-39.22 138.8,-45.9 149.39,-45.81 147.03,-39.22"/>
</g>
</g>
</svg>
