<?xml version="1.0" encoding="UTF-8" standalone="no"?>
<!DOCTYPE svg PUBLIC "-//W3C//DTD SVG 1.1//EN"
 "http://www.w3.org/Graphics/SVG/1.1/DTD/svg11.dtd">
<!-- Generated by graphviz version 2.50.0 (0)
 -->
<!-- Title: Algorithms Pages: 1 -->
<svg width="219pt" height="144pt"
 viewBox="0.00 0.00 219.00 144.00" xmlns="http://www.w3.org/2000/svg" xmlns:xlink="http://www.w3.org/1999/xlink">
<g id="graph0" class="graph" transform="scale(1 1) rotate(0) translate(4 140)">
<title>Algorithms</title>
<polygon fill="white" stroke="transparent" points="-4,4 -4,-140 215,-140 215,4 -4,4"/>
<!-- Node4 -->
<g id="node1" class="node">
<title>Node4</title>
<g id="a_node1"><a xlink:href="a01592.html" target="_top" xlink:title=" ">
<polygon fill="white" stroke="black" points="195,-136 117,-136 117,-118 195,-118 195,-136"/>
<text text-anchor="middle" x="156" y="-124.8" font-family="Helvetica,sans-Serif" font-size="9.00">Non&#45;Mutating</text>
</a>
</g>
</g>
<!-- Node3 -->
<g id="node2" class="node">
<title>Node3</title>
<g id="a_node2"><a xlink:href="a01591.html" target="_top" xlink:title=" ">
<polygon fill="white" stroke="black" points="184.5,-100 127.5,-100 127.5,-82 184.5,-82 184.5,-100"/>
<text text-anchor="middle" x="156" y="-88.8" font-family="Helvetica,sans-Serif" font-size="9.00">Mutating</text>
</a>
</g>
</g>
<!-- Node2 -->
<g id="node3" class="node">
<title>Node2</title>
<g id="a_node3"><a xlink:href="a01617.html" target="_top" xlink:title=" ">
<polygon fill="white" stroke="black" points="211,-64 101,-64 101,-36 211,-36 211,-64"/>
<text text-anchor="start" x="109" y="-52.8" font-family="Helvetica,sans-Serif" font-size="9.00">Generalized Numeric</text>
<text text-anchor="middle" x="156" y="-42.8" font-family="Helvetica,sans-Serif" font-size="9.00"> operations</text>
</a>
</g>
</g>
<!-- Node1 -->
<g id="node4" class="node">
<title>Node1</title>
<g id="a_node4"><a xlink:title=" ">
<polygon fill="#bfbfbf" stroke="black" points="65,-79 0,-79 0,-61 65,-61 65,-79"/>
<text text-anchor="middle" x="32.5" y="-67.8" font-family="Helvetica,sans-Serif" font-size="9.00">Algorithms</text>
</a>
</g>
</g>
<!-- Node1&#45;&gt;Node4 -->
<g id="edge3" class="edge">
<title>Node1&#45;&gt;Node4</title>
<path fill="none" stroke="black" d="M55.91,-84.48C68.77,-92.39 85.41,-101.98 101,-109 108.39,-112.33 116.59,-115.37 124.31,-117.97"/>
<polygon fill="black" stroke="black" points="57.61,-81.42 47.28,-79.07 53.9,-87.35 57.61,-81.42"/>
</g>
<!-- Node1&#45;&gt;Node3 -->
<g id="edge2" class="edge">
<title>Node1&#45;&gt;Node3</title>
<path fill="none" stroke="black" d="M75.44,-77.25C92.58,-80.21 111.94,-83.56 127.27,-86.21"/>
<polygon fill="black" stroke="black" points="75.56,-73.72 65.11,-75.46 74.36,-80.61 75.56,-73.72"/>
</g>
<!-- Node1&#45;&gt;Node2 -->
<g id="edge1" class="edge">
<title>Node1&#45;&gt;Node2</title>
<path fill="none" stroke="black" d="M74.98,-63.17C83.35,-61.8 92.25,-60.33 100.96,-58.89"/>
<polygon fill="black" stroke="black" points="74.4,-59.72 65.11,-64.8 75.54,-66.63 74.4,-59.72"/>
</g>
<!-- Node5 -->
<g id="node5" class="node">
<title>Node5</title>
<g id="a_node5"><a xlink:href="a01593.html" target="_top" xlink:title=" ">
<polygon fill="white" stroke="black" points="181,-18 131,-18 131,0 181,0 181,-18"/>
<text text-anchor="middle" x="156" y="-6.8" font-family="Helvetica,sans-Serif" font-size="9.00">Sorting</text>
</a>
</g>
</g>
<!-- Node1&#45;&gt;Node5 -->
<g id="edge4" class="edge">
<title>Node1&#45;&gt;Node5</title>
<path fill="none" stroke="black" d="M54.12,-54.98C67.11,-46.01 84.49,-34.86 101,-27 110.46,-22.5 121.34,-18.64 130.85,-15.66"/>
<polygon fill="black" stroke="black" points="52.06,-52.16 45.9,-60.78 56.09,-57.88 52.06,-52.16"/>
</g>
</g>
</svg>
