<?xml version="1.0" encoding="UTF-8" standalone="no"?>
<!DOCTYPE svg PUBLIC "-//W3C//DTD SVG 1.1//EN"
 "http://www.w3.org/Graphics/SVG/1.1/DTD/svg11.dtd">
<!-- Generated by graphviz version 2.50.0 (0)
 -->
<!-- Title: Policy&#45;Based Data Structures Pages: 1 -->
<svg width="357pt" height="134pt"
 viewBox="0.00 0.00 357.00 134.00" xmlns="http://www.w3.org/2000/svg" xmlns:xlink="http://www.w3.org/1999/xlink">
<g id="graph0" class="graph" transform="scale(1 1) rotate(0) translate(4 130)">
<title>Policy&#45;Based Data Structures</title>
<polygon fill="white" stroke="transparent" points="-4,4 -4,-130 353,-130 353,4 -4,4"/>
<!-- Node1 -->
<g id="node1" class="node">
<title>Node1</title>
<g id="a_node1"><a xlink:title=" ">
<polygon fill="#bfbfbf" stroke="black" points="248,-72 101,-72 101,-54 248,-54 248,-72"/>
<text text-anchor="middle" x="174.5" y="-60.8" font-family="Helvetica,sans-Serif" font-size="9.00">Policy&#45;Based Data Structures</text>
</a>
</g>
</g>
<!-- Node5 -->
<g id="node2" class="node">
<title>Node5</title>
<g id="a_node2"><a xlink:href="a01644.html" target="_top" xlink:title=" ">
<polygon fill="white" stroke="black" points="334.5,-126 298.5,-126 298.5,-108 334.5,-108 334.5,-126"/>
<text text-anchor="middle" x="316.5" y="-114.8" font-family="Helvetica,sans-Serif" font-size="9.00">Tags</text>
</a>
</g>
</g>
<!-- Node1&#45;&gt;Node5 -->
<g id="edge4" class="edge">
<title>Node1&#45;&gt;Node5</title>
<path fill="none" stroke="black" d="M208.36,-75.68C236.47,-86.52 275.84,-101.7 298.19,-110.32"/>
<polygon fill="black" stroke="black" points="209.52,-72.37 198.93,-72.04 207,-78.9 209.52,-72.37"/>
</g>
<!-- Node3 -->
<g id="node4" class="node">
<title>Node3</title>
<g id="a_node4"><a xlink:href="a01634.html" target="_top" xlink:title=" ">
<polygon fill="white" stroke="black" points="349,-90 284,-90 284,-72 349,-72 349,-90"/>
<text text-anchor="middle" x="316.5" y="-78.8" font-family="Helvetica,sans-Serif" font-size="9.00">Containers</text>
</a>
</g>
</g>
<!-- Node1&#45;&gt;Node3 -->
<g id="edge2" class="edge">
<title>Node1&#45;&gt;Node3</title>
<path fill="none" stroke="black" d="M255.89,-73.34C265.8,-74.61 275.42,-75.85 283.95,-76.94"/>
<polygon fill="black" stroke="black" points="256.27,-69.86 245.91,-72.05 255.38,-76.8 256.27,-69.86"/>
</g>
<!-- Node4 -->
<g id="node5" class="node">
<title>Node4</title>
<g id="a_node5"><a xlink:href="a01640.html" target="_top" xlink:title=" ">
<polygon fill="white" stroke="black" points="349,-54 284,-54 284,-36 349,-36 349,-54"/>
<text text-anchor="middle" x="316.5" y="-42.8" font-family="Helvetica,sans-Serif" font-size="9.00">Exceptions</text>
</a>
</g>
</g>
<!-- Node1&#45;&gt;Node4 -->
<g id="edge3" class="edge">
<title>Node1&#45;&gt;Node4</title>
<path fill="none" stroke="black" d="M255.89,-52.66C265.8,-51.39 275.42,-50.15 283.95,-49.06"/>
<polygon fill="black" stroke="black" points="255.38,-49.2 245.91,-53.95 256.27,-56.14 255.38,-49.2"/>
</g>
<!-- Node6 -->
<g id="node6" class="node">
<title>Node6</title>
<g id="a_node6"><a xlink:href="a01647.html" target="_top" xlink:title=" ">
<polygon fill="white" stroke="black" points="336.5,-18 296.5,-18 296.5,0 336.5,0 336.5,-18"/>
<text text-anchor="middle" x="316.5" y="-6.8" font-family="Helvetica,sans-Serif" font-size="9.00">Traits</text>
</a>
</g>
</g>
<!-- Node1&#45;&gt;Node6 -->
<g id="edge5" class="edge">
<title>Node1&#45;&gt;Node6</title>
<path fill="none" stroke="black" d="M208.5,-50.27C235.9,-39.7 273.93,-25.04 296.49,-16.33"/>
<polygon fill="black" stroke="black" points="207,-47.1 198.93,-53.96 209.52,-53.63 207,-47.1"/>
</g>
<!-- Node2 -->
<g id="node3" class="node">
<title>Node2</title>
<g id="a_node3"><a xlink:href="a01561.html" target="_top" xlink:title=" ">
<polygon fill="white" stroke="black" points="65,-72 0,-72 0,-54 65,-54 65,-72"/>
<text text-anchor="middle" x="32.5" y="-60.8" font-family="Helvetica,sans-Serif" font-size="9.00">Extensions</text>
</a>
</g>
</g>
<!-- Node2&#45;&gt;Node1 -->
<g id="edge1" class="edge">
<title>Node2&#45;&gt;Node1</title>
<path fill="none" stroke="black" d="M75.43,-63C83.46,-63 92.07,-63 100.74,-63"/>
<polygon fill="black" stroke="black" points="75.27,-59.5 65.27,-63 75.27,-66.5 75.27,-59.5"/>
</g>
</g>
</svg>
