<?xml version="1.0" encoding="UTF-8" standalone="no"?>
<!DOCTYPE svg PUBLIC "-//W3C//DTD SVG 1.1//EN"
 "http://www.w3.org/Graphics/SVG/1.1/DTD/svg11.dtd">
<!-- Generated by graphviz version 2.50.0 (0)
 -->
<!-- Title: Random Number Generation Pages: 1 -->
<svg width="439pt" height="98pt"
 viewBox="0.00 0.00 439.00 98.00" xmlns="http://www.w3.org/2000/svg" xmlns:xlink="http://www.w3.org/1999/xlink">
<g id="graph0" class="graph" transform="scale(1 1) rotate(0) translate(4 94)">
<title>Random Number Generation</title>
<polygon fill="white" stroke="transparent" points="-4,4 -4,-94 435,-94 435,4 -4,4"/>
<!-- Node3 -->
<g id="node1" class="node">
<title>Node3</title>
<g id="a_node1"><a xlink:href="a01649.html" target="_top" xlink:title=" ">
<polygon fill="white" stroke="black" points="431,-90 277,-90 277,-72 431,-72 431,-90"/>
<text text-anchor="middle" x="354" y="-78.8" font-family="Helvetica,sans-Serif" font-size="9.00">Random Number Distributions</text>
</a>
</g>
</g>
<!-- Node1 -->
<g id="node2" class="node">
<title>Node1</title>
<g id="a_node2"><a xlink:title=" ">
<polygon fill="#bfbfbf" stroke="black" points="241,-54 95,-54 95,-36 241,-36 241,-54"/>
<text text-anchor="middle" x="168" y="-42.8" font-family="Helvetica,sans-Serif" font-size="9.00">Random Number Generation</text>
</a>
</g>
</g>
<!-- Node1&#45;&gt;Node3 -->
<g id="edge2" class="edge">
<title>Node1&#45;&gt;Node3</title>
<path fill="none" stroke="black" d="M225.56,-56.07C251.65,-61.17 282.24,-67.16 306.9,-71.98"/>
<polygon fill="black" stroke="black" points="225.92,-52.57 215.43,-54.08 224.57,-59.44 225.92,-52.57"/>
</g>
<!-- Node5 -->
<g id="node4" class="node">
<title>Node5</title>
<g id="a_node4"><a xlink:href="a01654.html" target="_top" xlink:title=" ">
<polygon fill="white" stroke="black" points="419,-54 289,-54 289,-36 419,-36 419,-54"/>
<text text-anchor="middle" x="354" y="-42.8" font-family="Helvetica,sans-Serif" font-size="9.00">Random Number Utilities</text>
</a>
</g>
</g>
<!-- Node1&#45;&gt;Node5 -->
<g id="edge4" class="edge">
<title>Node1&#45;&gt;Node5</title>
<path fill="none" stroke="black" d="M251.22,-45C263.82,-45 276.66,-45 288.79,-45"/>
<polygon fill="black" stroke="black" points="251.19,-41.5 241.19,-45 251.19,-48.5 251.19,-41.5"/>
</g>
<!-- Node4 -->
<g id="node5" class="node">
<title>Node4</title>
<g id="a_node5"><a xlink:href="a01648.html" target="_top" xlink:title=" ">
<polygon fill="white" stroke="black" points="427,-18 281,-18 281,0 427,0 427,-18"/>
<text text-anchor="middle" x="354" y="-6.8" font-family="Helvetica,sans-Serif" font-size="9.00">Random Number Generators</text>
</a>
</g>
</g>
<!-- Node1&#45;&gt;Node4 -->
<g id="edge3" class="edge">
<title>Node1&#45;&gt;Node4</title>
<path fill="none" stroke="black" d="M225.56,-33.93C251.65,-28.83 282.24,-22.84 306.9,-18.02"/>
<polygon fill="black" stroke="black" points="224.57,-30.56 215.43,-35.92 225.92,-37.43 224.57,-30.56"/>
</g>
<!-- Node2 -->
<g id="node3" class="node">
<title>Node2</title>
<g id="a_node3"><a xlink:href="a01581.html" target="_top" xlink:title=" ">
<polygon fill="white" stroke="black" points="59,-54 0,-54 0,-36 59,-36 59,-54"/>
<text text-anchor="middle" x="29.5" y="-42.8" font-family="Helvetica,sans-Serif" font-size="9.00">Numerics</text>
</a>
</g>
</g>
<!-- Node2&#45;&gt;Node1 -->
<g id="edge1" class="edge">
<title>Node2&#45;&gt;Node1</title>
<path fill="none" stroke="black" d="M69.25,-45C77.3,-45 86.02,-45 94.83,-45"/>
<polygon fill="black" stroke="black" points="69.11,-41.5 59.11,-45 69.11,-48.5 69.11,-41.5"/>
</g>
</g>
</svg>
