<?xml version="1.0" encoding="UTF-8" standalone="no"?>
<!DOCTYPE svg PUBLIC "-//W3C//DTD SVG 1.1//EN"
 "http://www.w3.org/Graphics/SVG/1.1/DTD/svg11.dtd">
<!-- Generated by graphviz version 2.50.0 (0)
 -->
<!-- Title: Containers Pages: 1 -->
<svg width="371pt" height="134pt"
 viewBox="0.00 0.00 371.00 134.00" xmlns="http://www.w3.org/2000/svg" xmlns:xlink="http://www.w3.org/1999/xlink">
<g id="graph0" class="graph" transform="scale(1 1) rotate(0) translate(4 130)">
<title>Containers</title>
<polygon fill="white" stroke="transparent" points="-4,4 -4,-130 367,-130 367,4 -4,4"/>
<!-- Node2 -->
<g id="node1" class="node">
<title>Node2</title>
<g id="a_node1"><a xlink:href="a01643.html" target="_top" xlink:title=" ">
<polygon fill="white" stroke="black" points="147,-72 0,-72 0,-54 147,-54 147,-72"/>
<text text-anchor="middle" x="73.5" y="-60.8" font-family="Helvetica,sans-Serif" font-size="9.00">Policy&#45;Based Data Structures</text>
</a>
</g>
</g>
<!-- Node1 -->
<g id="node2" class="node">
<title>Node1</title>
<g id="a_node2"><a xlink:title=" ">
<polygon fill="#bfbfbf" stroke="black" points="248,-72 183,-72 183,-54 248,-54 248,-72"/>
<text text-anchor="middle" x="215.5" y="-60.8" font-family="Helvetica,sans-Serif" font-size="9.00">Containers</text>
</a>
</g>
</g>
<!-- Node2&#45;&gt;Node1 -->
<g id="edge1" class="edge">
<title>Node2&#45;&gt;Node1</title>
<path fill="none" stroke="black" d="M157.56,-63C166.5,-63 175.14,-63 182.88,-63"/>
<polygon fill="black" stroke="black" points="157.37,-59.5 147.37,-63 157.37,-66.5 157.37,-59.5"/>
</g>
<!-- Node5 -->
<g id="node3" class="node">
<title>Node5</title>
<g id="a_node3"><a xlink:href="a01641.html" target="_top" xlink:title=" ">
<polygon fill="white" stroke="black" points="358.5,-126 288.5,-126 288.5,-108 358.5,-108 358.5,-126"/>
<text text-anchor="middle" x="323.5" y="-114.8" font-family="Helvetica,sans-Serif" font-size="9.00">Heap&#45;Based</text>
</a>
</g>
</g>
<!-- Node1&#45;&gt;Node5 -->
<g id="edge4" class="edge">
<title>Node1&#45;&gt;Node5</title>
<path fill="none" stroke="black" d="M242,-77.01C254.56,-83.8 269.99,-92 284,-99 289.94,-101.97 296.46,-105.08 302.42,-107.86"/>
<polygon fill="black" stroke="black" points="243.47,-73.83 233.02,-72.12 240.13,-79.97 243.47,-73.83"/>
</g>
<!-- Node6 -->
<g id="node4" class="node">
<title>Node6</title>
<g id="a_node4"><a xlink:href="a01639.html" target="_top" xlink:title=" ">
<polygon fill="white" stroke="black" points="354.5,-90 292.5,-90 292.5,-72 354.5,-72 354.5,-90"/>
<text text-anchor="middle" x="323.5" y="-78.8" font-family="Helvetica,sans-Serif" font-size="9.00">List&#45;Based</text>
</a>
</g>
</g>
<!-- Node1&#45;&gt;Node6 -->
<g id="edge5" class="edge">
<title>Node1&#45;&gt;Node6</title>
<path fill="none" stroke="black" d="M258.22,-70.08C269.62,-72.02 281.76,-74.08 292.38,-75.88"/>
<polygon fill="black" stroke="black" points="258.46,-66.58 248.02,-68.35 257.29,-73.48 258.46,-66.58"/>
</g>
<!-- Node4 -->
<g id="node5" class="node">
<title>Node4</title>
<g id="a_node5"><a xlink:href="a01635.html" target="_top" xlink:title=" ">
<polygon fill="white" stroke="black" points="358,-54 289,-54 289,-36 358,-36 358,-54"/>
<text text-anchor="middle" x="323.5" y="-42.8" font-family="Helvetica,sans-Serif" font-size="9.00">Hash&#45;Based</text>
</a>
</g>
</g>
<!-- Node1&#45;&gt;Node4 -->
<g id="edge3" class="edge">
<title>Node1&#45;&gt;Node4</title>
<path fill="none" stroke="black" d="M257.95,-55.96C268.14,-54.23 278.93,-52.4 288.7,-50.74"/>
<polygon fill="black" stroke="black" points="257.29,-52.52 248.02,-57.65 258.46,-59.42 257.29,-52.52"/>
</g>
<!-- Node3 -->
<g id="node6" class="node">
<title>Node3</title>
<g id="a_node6"><a xlink:href="a01637.html" target="_top" xlink:title=" ">
<polygon fill="white" stroke="black" points="363,-18 284,-18 284,0 363,0 363,-18"/>
<text text-anchor="middle" x="323.5" y="-6.8" font-family="Helvetica,sans-Serif" font-size="9.00">Branch&#45;Based</text>
</a>
</g>
</g>
<!-- Node1&#45;&gt;Node3 -->
<g id="edge2" class="edge">
<title>Node1&#45;&gt;Node3</title>
<path fill="none" stroke="black" d="M242,-48.99C254.56,-42.2 269.99,-34 284,-27 289.94,-24.03 296.46,-20.92 302.42,-18.14"/>
<polygon fill="black" stroke="black" points="240.13,-46.03 233.02,-53.88 243.47,-52.17 240.13,-46.03"/>
</g>
</g>
</svg>
