<?xml version="1.0" encoding="UTF-8" standalone="no"?>
<!DOCTYPE svg PUBLIC "-//W3C//DTD SVG 1.1//EN"
 "http://www.w3.org/Graphics/SVG/1.1/DTD/svg11.dtd">
<!-- Generated by graphviz version 2.50.0 (0)
 -->
<!-- Title: Iterator Tags Pages: 1 -->
<svg width="274pt" height="33pt"
 viewBox="0.00 0.00 274.00 33.22" xmlns="http://www.w3.org/2000/svg" xmlns:xlink="http://www.w3.org/1999/xlink">
<g id="graph0" class="graph" transform="scale(1 1) rotate(0) translate(4 29.22)">
<title>Iterator Tags</title>
<polygon fill="white" stroke="transparent" points="-4,4 -4,-29.22 270,-29.22 270,4 -4,4"/>
<!-- Node2 -->
<g id="node1" class="node">
<title>Node2</title>
<g id="a_node1"><a xlink:href="a01615.html" target="_top" xlink:title=" ">
<polygon fill="white" stroke="black" points="55,-25.22 0,-25.22 0,-7.22 55,-7.22 55,-25.22"/>
<text text-anchor="middle" x="27.5" y="-14.02" font-family="Helvetica,sans-Serif" font-size="9.00">Iterators</text>
</a>
</g>
</g>
<!-- Node1 -->
<g id="node2" class="node">
<title>Node1</title>
<g id="a_node2"><a xlink:title=" ">
<polygon fill="#bfbfbf" stroke="black" points="266,-25.22 193,-25.22 193,-7.22 266,-7.22 266,-25.22"/>
<text text-anchor="middle" x="229.5" y="-14.02" font-family="Helvetica,sans-Serif" font-size="9.00">Iterator Tags</text>
</a>
</g>
</g>
<!-- Node2&#45;&gt;Node1 -->
<g id="edge1" class="edge">
<title>Node2&#45;&gt;Node1</title>
<path fill="none" stroke="black" d="M65.22,-16.22C101.53,-16.22 156.72,-16.22 192.7,-16.22"/>
<polygon fill="black" stroke="black" points="65.06,-12.72 55.06,-16.22 65.06,-19.72 65.06,-12.72"/>
</g>
<!-- Node1&#45;&gt;Node2 -->
<g id="edge2" class="edge">
<title>Node1&#45;&gt;Node2</title>
<path fill="none" stroke="orange" stroke-dasharray="5,2" d="M193.29,-7.17C187.23,-5.95 180.96,-4.88 175,-4.22 129.94,0.77 117.94,1.73 73,-4.22 67.13,-5 60.94,-6.33 55.09,-7.83"/>
<text text-anchor="middle" x="124" y="-7.02" font-family="Helvetica,sans-Serif" font-size="9.00">std::input_iterator_tag</text>
</g>
</g>
</svg>
