<?xml version="1.0" encoding="UTF-8" standalone="no"?>
<!DOCTYPE svg PUBLIC "-//W3C//DTD SVG 1.1//EN"
 "http://www.w3.org/Graphics/SVG/1.1/DTD/svg11.dtd">
<!-- Generated by graphviz version 2.50.0 (0)
 -->
<!-- Title: std::bad_cast Pages: 1 -->
<svg width="242pt" height="157pt"
 viewBox="0.00 0.00 242.00 157.00" xmlns="http://www.w3.org/2000/svg" xmlns:xlink="http://www.w3.org/1999/xlink">
<g id="graph0" class="graph" transform="scale(1 1) rotate(0) translate(4 153)">
<title>std::bad_cast</title>
<polygon fill="white" stroke="transparent" points="-4,4 -4,-153 238,-153 238,4 -4,4"/>
<!-- Node1 -->
<g id="node1" class="node">
<title>Node1</title>
<g id="a_node1"><a xlink:title="Thrown during incorrect typecasting.">
<polygon fill="#bfbfbf" stroke="black" points="73.5,-75.5 73.5,-93.5 150.5,-93.5 150.5,-75.5 73.5,-75.5"/>
<text text-anchor="middle" x="112" y="-82.3" font-family="Helvetica,sans-Serif" font-size="9.00">std::bad_cast</text>
</a>
</g>
</g>
<!-- Node3 -->
<g id="node3" class="node">
<title>Node3</title>
<g id="a_node3"><a xlink:href="a01910.html" target="_top" xlink:title="Exception class thrown by a failed any_cast.">
<polygon fill="white" stroke="black" points="0,-10.5 0,-28.5 98,-28.5 98,-10.5 0,-10.5"/>
<text text-anchor="middle" x="49" y="-17.3" font-family="Helvetica,sans-Serif" font-size="9.00">std::bad_any_cast</text>
</a>
</g>
</g>
<!-- Node1&#45;&gt;Node3 -->
<g id="edge2" class="edge">
<title>Node1&#45;&gt;Node3</title>
<path fill="none" stroke="midnightblue" d="M96.69,-68.19C84.18,-55.68 67,-38.5 57.04,-28.54"/>
<polygon fill="midnightblue" stroke="midnightblue" points="94.22,-70.67 103.76,-75.26 99.17,-65.72 94.22,-70.67"/>
</g>
<!-- Node4 -->
<g id="node4" class="node">
<title>Node4</title>
<g id="a_node4"><a xlink:href="a11730.html" target="_top" xlink:title="Exception class thrown by a failed any_cast.">
<polygon fill="white" stroke="black" points="116,-0.5 116,-38.5 234,-38.5 234,-0.5 116,-0.5"/>
<text text-anchor="start" x="124" y="-27.3" font-family="Helvetica,sans-Serif" font-size="9.00">std::experimental::</text>
<text text-anchor="start" x="124" y="-17.3" font-family="Helvetica,sans-Serif" font-size="9.00">fundamentals_v1::bad</text>
<text text-anchor="middle" x="175" y="-7.3" font-family="Helvetica,sans-Serif" font-size="9.00">_any_cast</text>
</a>
</g>
</g>
<!-- Node1&#45;&gt;Node4 -->
<g id="edge3" class="edge">
<title>Node1&#45;&gt;Node4</title>
<path fill="none" stroke="midnightblue" d="M127.37,-68.13C136.3,-59.2 147.6,-47.9 156.95,-38.55"/>
<polygon fill="midnightblue" stroke="midnightblue" points="124.83,-65.72 120.24,-75.26 129.78,-70.67 124.83,-65.72"/>
</g>
<!-- Node2 -->
<g id="node2" class="node">
<title>Node2</title>
<g id="a_node2"><a xlink:href="a05922.html" target="_top" xlink:title="Base class for all library exceptions.">
<polygon fill="white" stroke="black" points="72,-130.5 72,-148.5 152,-148.5 152,-130.5 72,-130.5"/>
<text text-anchor="middle" x="112" y="-137.3" font-family="Helvetica,sans-Serif" font-size="9.00">std::exception</text>
</a>
</g>
</g>
<!-- Node2&#45;&gt;Node1 -->
<g id="edge1" class="edge">
<title>Node2&#45;&gt;Node1</title>
<path fill="none" stroke="midnightblue" d="M112,-120.17C112,-111.09 112,-100.59 112,-93.55"/>
<polygon fill="midnightblue" stroke="midnightblue" points="108.5,-120.22 112,-130.22 115.5,-120.22 108.5,-120.22"/>
</g>
</g>
</svg>
