<?xml version="1.0" encoding="UTF-8" standalone="no"?>
<!DOCTYPE svg PUBLIC "-//W3C//DTD SVG 1.1//EN"
 "http://www.w3.org/Graphics/SVG/1.1/DTD/svg11.dtd">
<!-- Generated by graphviz version 2.50.0 (0)
 -->
<!-- Title: std::bad_any_cast Pages: 1 -->
<svg width="106pt" height="137pt"
 viewBox="0.00 0.00 106.00 137.00" xmlns="http://www.w3.org/2000/svg" xmlns:xlink="http://www.w3.org/1999/xlink">
<g id="graph0" class="graph" transform="scale(1 1) rotate(0) translate(4 133)">
<title>std::bad_any_cast</title>
<polygon fill="white" stroke="transparent" points="-4,4 -4,-133 102,-133 102,4 -4,4"/>
<!-- Node1 -->
<g id="node1" class="node">
<title>Node1</title>
<g id="a_node1"><a xlink:title="Exception class thrown by a failed any_cast.">
<polygon fill="#bfbfbf" stroke="black" points="0,-0.5 0,-18.5 98,-18.5 98,-0.5 0,-0.5"/>
<text text-anchor="middle" x="49" y="-7.3" font-family="Helvetica,sans-Serif" font-size="9.00">std::bad_any_cast</text>
</a>
</g>
</g>
<!-- Node2 -->
<g id="node2" class="node">
<title>Node2</title>
<g id="a_node2"><a xlink:href="a01902.html" target="_top" xlink:title="Thrown during incorrect typecasting.">
<polygon fill="white" stroke="black" points="10.5,-55.5 10.5,-73.5 87.5,-73.5 87.5,-55.5 10.5,-55.5"/>
<text text-anchor="middle" x="49" y="-62.3" font-family="Helvetica,sans-Serif" font-size="9.00">std::bad_cast</text>
</a>
</g>
</g>
<!-- Node2&#45;&gt;Node1 -->
<g id="edge1" class="edge">
<title>Node2&#45;&gt;Node1</title>
<path fill="none" stroke="midnightblue" d="M49,-45.17C49,-36.09 49,-25.59 49,-18.55"/>
<polygon fill="midnightblue" stroke="midnightblue" points="45.5,-45.22 49,-55.22 52.5,-45.22 45.5,-45.22"/>
</g>
<!-- Node3 -->
<g id="node3" class="node">
<title>Node3</title>
<g id="a_node3"><a xlink:href="a05922.html" target="_top" xlink:title="Base class for all library exceptions.">
<polygon fill="white" stroke="black" points="9,-110.5 9,-128.5 89,-128.5 89,-110.5 9,-110.5"/>
<text text-anchor="middle" x="49" y="-117.3" font-family="Helvetica,sans-Serif" font-size="9.00">std::exception</text>
</a>
</g>
</g>
<!-- Node3&#45;&gt;Node2 -->
<g id="edge2" class="edge">
<title>Node3&#45;&gt;Node2</title>
<path fill="none" stroke="midnightblue" d="M49,-100.17C49,-91.09 49,-80.59 49,-73.55"/>
<polygon fill="midnightblue" stroke="midnightblue" points="45.5,-100.22 49,-110.22 52.5,-100.22 45.5,-100.22"/>
</g>
</g>
</svg>
