<?xml version="1.0" encoding="UTF-8" standalone="no"?>
<!DOCTYPE svg PUBLIC "-//W3C//DTD SVG 1.1//EN"
 "http://www.w3.org/Graphics/SVG/1.1/DTD/svg11.dtd">
<!-- Generated by graphviz version 2.50.0 (0)
 -->
<!-- Title: std::bitset&lt; _Nb &gt; Pages: 1 -->
<svg width="277pt" height="77pt"
 viewBox="0.00 0.00 277.00 77.00" xmlns="http://www.w3.org/2000/svg" xmlns:xlink="http://www.w3.org/1999/xlink">
<g id="graph0" class="graph" transform="scale(1 1) rotate(0) translate(4 73)">
<title>std::bitset&lt; _Nb &gt;</title>
<polygon fill="white" stroke="transparent" points="-4,4 -4,-73 273,-73 273,4 -4,4"/>
<!-- Node1 -->
<g id="node1" class="node">
<title>Node1</title>
<g id="a_node1"><a xlink:title="The bitset class represents a fixed&#45;size sequence of bits.">
<polygon fill="#bfbfbf" stroke="black" points="168,-25.5 168,-43.5 269,-43.5 269,-25.5 168,-25.5"/>
<text text-anchor="middle" x="218.5" y="-32.3" font-family="Helvetica,sans-Serif" font-size="9.00">std::bitset&lt; _Nb &gt;</text>
</a>
</g>
</g>
<!-- Node2 -->
<g id="node2" class="node">
<title>Node2</title>
<g id="a_node2"><a xlink:href="a02074.html" target="_top" xlink:title=" ">
<polygon fill="white" stroke="black" points="0,-0.5 0,-68.5 132,-68.5 132,-0.5 0,-0.5"/>
<text text-anchor="start" x="8" y="-57.3" font-family="Helvetica,sans-Serif" font-size="9.00">std::_Base_bitset&lt;</text>
<text text-anchor="start" x="8" y="-47.3" font-family="Helvetica,sans-Serif" font-size="9.00">((_Nb)/(__CHAR_BIT_</text>
<text text-anchor="start" x="8" y="-37.3" font-family="Helvetica,sans-Serif" font-size="9.00">_ *__SIZEOF_LONG__)+</text>
<text text-anchor="start" x="8" y="-27.3" font-family="Helvetica,sans-Serif" font-size="9.00">((_Nb) %(__CHAR_BIT__</text>
<text text-anchor="start" x="8" y="-17.3" font-family="Helvetica,sans-Serif" font-size="9.00"> *__SIZEOF_LONG__)==0 </text>
<text text-anchor="middle" x="66" y="-7.3" font-family="Helvetica,sans-Serif" font-size="9.00">? 0 :1))&gt;</text>
</a>
</g>
</g>
<!-- Node2&#45;&gt;Node1 -->
<g id="edge1" class="edge">
<title>Node2&#45;&gt;Node1</title>
<path fill="none" stroke="#8b1a1a" d="M142.25,-34.5C150.88,-34.5 159.51,-34.5 167.69,-34.5"/>
<polygon fill="#8b1a1a" stroke="#8b1a1a" points="142.14,-31 132.14,-34.5 142.14,-38 142.14,-31"/>
</g>
</g>
</svg>
