<?xml version="1.0" encoding="UTF-8" standalone="no"?>
<!DOCTYPE svg PUBLIC "-//W3C//DTD SVG 1.1//EN"
 "http://www.w3.org/Graphics/SVG/1.1/DTD/svg11.dtd">
<!-- Generated by graphviz version 2.50.0 (0)
 -->
<!-- Title: std::__future_base::_Result_alloc&lt; _Res, _Alloc &gt; Pages: 1 -->
<svg width="121pt" height="177pt"
 viewBox="0.00 0.00 121.00 177.00" xmlns="http://www.w3.org/2000/svg" xmlns:xlink="http://www.w3.org/1999/xlink">
<g id="graph0" class="graph" transform="scale(1 1) rotate(0) translate(4 173)">
<title>std::__future_base::_Result_alloc&lt; _Res, _Alloc &gt;</title>
<polygon fill="white" stroke="transparent" points="-4,4 -4,-173 117,-173 117,4 -4,4"/>
<!-- Node1 -->
<g id="node1" class="node">
<title>Node1</title>
<g id="a_node1"><a xlink:title="A result object that uses an allocator.">
<polygon fill="#bfbfbf" stroke="black" points="0,-0.5 0,-38.5 113,-38.5 113,-0.5 0,-0.5"/>
<text text-anchor="start" x="8" y="-27.3" font-family="Helvetica,sans-Serif" font-size="9.00">std::__future_base</text>
<text text-anchor="start" x="8" y="-17.3" font-family="Helvetica,sans-Serif" font-size="9.00">::_Result_alloc&lt; _Res,</text>
<text text-anchor="middle" x="56.5" y="-7.3" font-family="Helvetica,sans-Serif" font-size="9.00"> _Alloc &gt;</text>
</a>
</g>
</g>
<!-- Node2 -->
<g id="node2" class="node">
<title>Node2</title>
<g id="a_node2"><a xlink:href="a02558.html" target="_top" xlink:title="A result object that has storage for an object of type _Res.">
<polygon fill="white" stroke="black" points="7,-75.5 7,-103.5 106,-103.5 106,-75.5 7,-75.5"/>
<text text-anchor="start" x="15" y="-92.3" font-family="Helvetica,sans-Serif" font-size="9.00">std::__future_base</text>
<text text-anchor="middle" x="56.5" y="-82.3" font-family="Helvetica,sans-Serif" font-size="9.00">::_Result&lt; _Res &gt;</text>
</a>
</g>
</g>
<!-- Node2&#45;&gt;Node1 -->
<g id="edge1" class="edge">
<title>Node2&#45;&gt;Node1</title>
<path fill="none" stroke="midnightblue" d="M56.5,-65.17C56.5,-56.52 56.5,-46.84 56.5,-38.71"/>
<polygon fill="midnightblue" stroke="midnightblue" points="53,-65.39 56.5,-75.39 60,-65.39 53,-65.39"/>
</g>
<!-- Node3 -->
<g id="node3" class="node">
<title>Node3</title>
<g id="a_node3"><a xlink:href="a02550.html" target="_top" xlink:title="Base class for results.">
<polygon fill="white" stroke="black" points="7,-140.5 7,-168.5 106,-168.5 106,-140.5 7,-140.5"/>
<text text-anchor="start" x="15" y="-157.3" font-family="Helvetica,sans-Serif" font-size="9.00">std::__future_base</text>
<text text-anchor="middle" x="56.5" y="-147.3" font-family="Helvetica,sans-Serif" font-size="9.00">::_Result_base</text>
</a>
</g>
</g>
<!-- Node3&#45;&gt;Node2 -->
<g id="edge2" class="edge">
<title>Node3&#45;&gt;Node2</title>
<path fill="none" stroke="midnightblue" d="M56.5,-130.16C56.5,-121.17 56.5,-111.22 56.5,-103.54"/>
<polygon fill="midnightblue" stroke="midnightblue" points="53,-130.45 56.5,-140.45 60,-130.45 53,-130.45"/>
</g>
</g>
</svg>
