<?xml version="1.0" encoding="UTF-8" standalone="no"?>
<!DOCTYPE svg PUBLIC "-//W3C//DTD SVG 1.1//EN"
 "http://www.w3.org/Graphics/SVG/1.1/DTD/svg11.dtd">
<!-- Generated by graphviz version 2.50.0 (0)
 -->
<!-- Title: std::__future_base Pages: 1 -->
<svg width="396pt" height="242pt"
 viewBox="0.00 0.00 396.00 242.00" xmlns="http://www.w3.org/2000/svg" xmlns:xlink="http://www.w3.org/1999/xlink">
<g id="graph0" class="graph" transform="scale(1 1) rotate(0) translate(4 238)">
<title>std::__future_base</title>
<polygon fill="white" stroke="transparent" points="-4,4 -4,-238 392,-238 392,4 -4,4"/>
<!-- Node1 -->
<g id="node1" class="node">
<title>Node1</title>
<g id="a_node1"><a xlink:title="Base class and enclosing scope.">
<polygon fill="#bfbfbf" stroke="black" points="0,-110.5 0,-128.5 99,-128.5 99,-110.5 0,-110.5"/>
<text text-anchor="middle" x="49.5" y="-117.3" font-family="Helvetica,sans-Serif" font-size="9.00">std::__future_base</text>
</a>
</g>
</g>
<!-- Node2 -->
<g id="node2" class="node">
<title>Node2</title>
<g id="a_node2"><a xlink:href="a02634.html" target="_top" xlink:title=" ">
<polygon fill="white" stroke="black" points="135,-168.5 135,-196.5 236,-196.5 236,-168.5 135,-168.5"/>
<text text-anchor="start" x="143" y="-185.3" font-family="Helvetica,sans-Serif" font-size="9.00">std::__basic_future</text>
<text text-anchor="middle" x="185.5" y="-175.3" font-family="Helvetica,sans-Serif" font-size="9.00">&lt; void &gt;</text>
</a>
</g>
</g>
<!-- Node1&#45;&gt;Node2 -->
<g id="edge1" class="edge">
<title>Node1&#45;&gt;Node2</title>
<path fill="none" stroke="midnightblue" d="M78.97,-132.88C101.23,-143.35 132.11,-157.87 154.71,-168.49"/>
<polygon fill="midnightblue" stroke="midnightblue" points="80.24,-129.61 69.7,-128.53 77.26,-135.95 80.24,-129.61"/>
</g>
<!-- Node5 -->
<g id="node5" class="node">
<title>Node5</title>
<g id="a_node5"><a xlink:href="a02634.html" target="_top" xlink:title=" ">
<polygon fill="white" stroke="black" points="135,-105.5 135,-133.5 236,-133.5 236,-105.5 135,-105.5"/>
<text text-anchor="start" x="143" y="-122.3" font-family="Helvetica,sans-Serif" font-size="9.00">std::__basic_future</text>
<text text-anchor="middle" x="185.5" y="-112.3" font-family="Helvetica,sans-Serif" font-size="9.00">&lt; _Res &amp; &gt;</text>
</a>
</g>
</g>
<!-- Node1&#45;&gt;Node5 -->
<g id="edge4" class="edge">
<title>Node1&#45;&gt;Node5</title>
<path fill="none" stroke="midnightblue" d="M109.41,-119.5C117.83,-119.5 126.43,-119.5 134.66,-119.5"/>
<polygon fill="midnightblue" stroke="midnightblue" points="109.26,-116 99.26,-119.5 109.26,-123 109.26,-116"/>
</g>
<!-- Node8 -->
<g id="node8" class="node">
<title>Node8</title>
<g id="a_node8"><a xlink:href="a02634.html" target="_top" xlink:title="Common implementation for future and shared_future.">
<polygon fill="white" stroke="black" points="135,-42.5 135,-70.5 236,-70.5 236,-42.5 135,-42.5"/>
<text text-anchor="start" x="143" y="-59.3" font-family="Helvetica,sans-Serif" font-size="9.00">std::__basic_future</text>
<text text-anchor="middle" x="185.5" y="-49.3" font-family="Helvetica,sans-Serif" font-size="9.00">&lt; _Res &gt;</text>
</a>
</g>
</g>
<!-- Node1&#45;&gt;Node8 -->
<g id="edge7" class="edge">
<title>Node1&#45;&gt;Node8</title>
<path fill="none" stroke="midnightblue" d="M78.97,-106.12C101.23,-95.65 132.11,-81.13 154.71,-70.51"/>
<polygon fill="midnightblue" stroke="midnightblue" points="77.26,-103.05 69.7,-110.47 80.24,-109.39 77.26,-103.05"/>
</g>
<!-- Node3 -->
<g id="node3" class="node">
<title>Node3</title>
<g id="a_node3"><a xlink:href="a02646.html" target="_top" xlink:title="Explicit specialization for future&lt;void&gt;">
<polygon fill="white" stroke="black" points="278,-215.5 278,-233.5 382,-233.5 382,-215.5 278,-215.5"/>
<text text-anchor="middle" x="330" y="-222.3" font-family="Helvetica,sans-Serif" font-size="9.00">std::future&lt; void &gt;</text>
</a>
</g>
</g>
<!-- Node2&#45;&gt;Node3 -->
<g id="edge2" class="edge">
<title>Node2&#45;&gt;Node3</title>
<path fill="none" stroke="midnightblue" d="M244.14,-199.49C262.58,-204.92 282.28,-210.73 298.06,-215.38"/>
<polygon fill="midnightblue" stroke="midnightblue" points="244.93,-196.07 234.35,-196.6 242.95,-202.79 244.93,-196.07"/>
</g>
<!-- Node4 -->
<g id="node4" class="node">
<title>Node4</title>
<g id="a_node4"><a xlink:href="a02654.html" target="_top" xlink:title="Explicit specialization for shared_future&lt;void&gt;">
<polygon fill="white" stroke="black" points="280,-168.5 280,-196.5 380,-196.5 380,-168.5 280,-168.5"/>
<text text-anchor="start" x="288" y="-185.3" font-family="Helvetica,sans-Serif" font-size="9.00">std::shared_future</text>
<text text-anchor="middle" x="330" y="-175.3" font-family="Helvetica,sans-Serif" font-size="9.00">&lt; void &gt;</text>
</a>
</g>
</g>
<!-- Node2&#45;&gt;Node4 -->
<g id="edge3" class="edge">
<title>Node2&#45;&gt;Node4</title>
<path fill="none" stroke="midnightblue" d="M246.44,-182.5C257.6,-182.5 269.13,-182.5 279.91,-182.5"/>
<polygon fill="midnightblue" stroke="midnightblue" points="246.34,-179 236.34,-182.5 246.34,-186 246.34,-179"/>
</g>
<!-- Node6 -->
<g id="node6" class="node">
<title>Node6</title>
<g id="a_node6"><a xlink:href="a02642.html" target="_top" xlink:title="Partial specialization for future&lt;R&amp;&gt;">
<polygon fill="white" stroke="black" points="272,-131.5 272,-149.5 388,-149.5 388,-131.5 272,-131.5"/>
<text text-anchor="middle" x="330" y="-138.3" font-family="Helvetica,sans-Serif" font-size="9.00">std::future&lt; _Res &amp; &gt;</text>
</a>
</g>
</g>
<!-- Node5&#45;&gt;Node6 -->
<g id="edge5" class="edge">
<title>Node5&#45;&gt;Node6</title>
<path fill="none" stroke="midnightblue" d="M246.39,-128.33C254.75,-129.56 263.32,-130.82 271.62,-132.04"/>
<polygon fill="midnightblue" stroke="midnightblue" points="246.74,-124.84 236.34,-126.84 245.72,-131.77 246.74,-124.84"/>
</g>
<!-- Node7 -->
<g id="node7" class="node">
<title>Node7</title>
<g id="a_node7"><a xlink:href="a02650.html" target="_top" xlink:title="Partial specialization for shared_future&lt;R&amp;&gt;">
<polygon fill="white" stroke="black" points="280,-84.5 280,-112.5 380,-112.5 380,-84.5 280,-84.5"/>
<text text-anchor="start" x="288" y="-101.3" font-family="Helvetica,sans-Serif" font-size="9.00">std::shared_future</text>
<text text-anchor="middle" x="330" y="-91.3" font-family="Helvetica,sans-Serif" font-size="9.00">&lt; _Res &amp; &gt;</text>
</a>
</g>
</g>
<!-- Node5&#45;&gt;Node7 -->
<g id="edge6" class="edge">
<title>Node5&#45;&gt;Node7</title>
<path fill="none" stroke="midnightblue" d="M246.44,-110.67C257.6,-109.02 269.13,-107.32 279.91,-105.73"/>
<polygon fill="midnightblue" stroke="midnightblue" points="245.72,-107.23 236.34,-112.16 246.74,-114.16 245.72,-107.23"/>
</g>
<!-- Node9 -->
<g id="node9" class="node">
<title>Node9</title>
<g id="a_node9"><a xlink:href="a02530.html" target="_top" xlink:title="Primary template for future.">
<polygon fill="white" stroke="black" points="277,-47.5 277,-65.5 383,-65.5 383,-47.5 277,-47.5"/>
<text text-anchor="middle" x="330" y="-54.3" font-family="Helvetica,sans-Serif" font-size="9.00">std::future&lt; _Res &gt;</text>
</a>
</g>
</g>
<!-- Node8&#45;&gt;Node9 -->
<g id="edge8" class="edge">
<title>Node8&#45;&gt;Node9</title>
<path fill="none" stroke="midnightblue" d="M246.57,-56.5C256.53,-56.5 266.78,-56.5 276.53,-56.5"/>
<polygon fill="midnightblue" stroke="midnightblue" points="246.34,-53 236.34,-56.5 246.34,-60 246.34,-53"/>
</g>
<!-- Node10 -->
<g id="node10" class="node">
<title>Node10</title>
<g id="a_node10"><a xlink:href="a02534.html" target="_top" xlink:title="Primary template for shared_future.">
<polygon fill="white" stroke="black" points="280,-0.5 280,-28.5 380,-28.5 380,-0.5 280,-0.5"/>
<text text-anchor="start" x="288" y="-17.3" font-family="Helvetica,sans-Serif" font-size="9.00">std::shared_future</text>
<text text-anchor="middle" x="330" y="-7.3" font-family="Helvetica,sans-Serif" font-size="9.00">&lt; _Res &gt;</text>
</a>
</g>
</g>
<!-- Node8&#45;&gt;Node10 -->
<g id="edge9" class="edge">
<title>Node8&#45;&gt;Node10</title>
<path fill="none" stroke="midnightblue" d="M244.04,-39.54C256.32,-35.92 269.16,-32.14 281.04,-28.64"/>
<polygon fill="midnightblue" stroke="midnightblue" points="242.95,-36.21 234.35,-42.4 244.93,-42.93 242.95,-36.21"/>
</g>
</g>
</svg>
