<?xml version="1.0" encoding="UTF-8" standalone="no"?>
<!DOCTYPE svg PUBLIC "-//W3C//DTD SVG 1.1//EN"
 "http://www.w3.org/Graphics/SVG/1.1/DTD/svg11.dtd">
<!-- Generated by graphviz version 2.50.0 (0)
 -->
<!-- Title: std::future&lt; _Res &amp; &gt; Pages: 1 -->
<svg width="124pt" height="147pt"
 viewBox="0.00 0.00 124.00 147.00" xmlns="http://www.w3.org/2000/svg" xmlns:xlink="http://www.w3.org/1999/xlink">
<g id="graph0" class="graph" transform="scale(1 1) rotate(0) translate(4 143)">
<title>std::future&lt; _Res &amp; &gt;</title>
<polygon fill="white" stroke="transparent" points="-4,4 -4,-143 120,-143 120,4 -4,4"/>
<!-- Node1 -->
<g id="node1" class="node">
<title>Node1</title>
<g id="a_node1"><a xlink:title="Partial specialization for future&lt;R&amp;&gt;">
<polygon fill="#bfbfbf" stroke="black" points="0,-0.5 0,-18.5 116,-18.5 116,-0.5 0,-0.5"/>
<text text-anchor="middle" x="58" y="-7.3" font-family="Helvetica,sans-Serif" font-size="9.00">std::future&lt; _Res &amp; &gt;</text>
</a>
</g>
</g>
<!-- Node2 -->
<g id="node2" class="node">
<title>Node2</title>
<g id="a_node2"><a xlink:href="a02634.html" target="_top" xlink:title=" ">
<polygon fill="white" stroke="black" points="7.5,-55.5 7.5,-83.5 108.5,-83.5 108.5,-55.5 7.5,-55.5"/>
<text text-anchor="start" x="15.5" y="-72.3" font-family="Helvetica,sans-Serif" font-size="9.00">std::__basic_future</text>
<text text-anchor="middle" x="58" y="-62.3" font-family="Helvetica,sans-Serif" font-size="9.00">&lt; _Res &amp; &gt;</text>
</a>
</g>
</g>
<!-- Node2&#45;&gt;Node1 -->
<g id="edge1" class="edge">
<title>Node2&#45;&gt;Node1</title>
<path fill="none" stroke="midnightblue" d="M58,-45.32C58,-35.94 58,-25.7 58,-18.77"/>
<polygon fill="midnightblue" stroke="midnightblue" points="54.5,-45.34 58,-55.34 61.5,-45.34 54.5,-45.34"/>
</g>
<!-- Node3 -->
<g id="node3" class="node">
<title>Node3</title>
<g id="a_node3"><a xlink:href="a02546.html" target="_top" xlink:title="Base class and enclosing scope.">
<polygon fill="white" stroke="black" points="8.5,-120.5 8.5,-138.5 107.5,-138.5 107.5,-120.5 8.5,-120.5"/>
<text text-anchor="middle" x="58" y="-127.3" font-family="Helvetica,sans-Serif" font-size="9.00">std::__future_base</text>
</a>
</g>
</g>
<!-- Node3&#45;&gt;Node2 -->
<g id="edge2" class="edge">
<title>Node3&#45;&gt;Node2</title>
<path fill="none" stroke="midnightblue" d="M58,-110.32C58,-101.75 58,-91.7 58,-83.84"/>
<polygon fill="midnightblue" stroke="midnightblue" points="54.5,-110.44 58,-120.44 61.5,-110.44 54.5,-110.44"/>
</g>
</g>
</svg>
