<?xml version="1.0" encoding="UTF-8" standalone="no"?>
<!DOCTYPE svg PUBLIC "-//W3C//DTD SVG 1.1//EN"
 "http://www.w3.org/Graphics/SVG/1.1/DTD/svg11.dtd">
<!-- Generated by graphviz version 2.50.0 (0)
 -->
<!-- Title: std::future&lt; void &gt; Pages: 1 -->
<svg width="112pt" height="147pt"
 viewBox="0.00 0.00 112.00 147.00" xmlns="http://www.w3.org/2000/svg" xmlns:xlink="http://www.w3.org/1999/xlink">
<g id="graph0" class="graph" transform="scale(1 1) rotate(0) translate(4 143)">
<title>std::future&lt; void &gt;</title>
<polygon fill="white" stroke="transparent" points="-4,4 -4,-143 108,-143 108,4 -4,4"/>
<!-- Node1 -->
<g id="node1" class="node">
<title>Node1</title>
<g id="a_node1"><a xlink:title="Explicit specialization for future&lt;void&gt;">
<polygon fill="#bfbfbf" stroke="black" points="0,-0.5 0,-18.5 104,-18.5 104,-0.5 0,-0.5"/>
<text text-anchor="middle" x="52" y="-7.3" font-family="Helvetica,sans-Serif" font-size="9.00">std::future&lt; void &gt;</text>
</a>
</g>
</g>
<!-- Node2 -->
<g id="node2" class="node">
<title>Node2</title>
<g id="a_node2"><a xlink:href="a02634.html" target="_top" xlink:title=" ">
<polygon fill="white" stroke="black" points="1.5,-55.5 1.5,-83.5 102.5,-83.5 102.5,-55.5 1.5,-55.5"/>
<text text-anchor="start" x="9.5" y="-72.3" font-family="Helvetica,sans-Serif" font-size="9.00">std::__basic_future</text>
<text text-anchor="middle" x="52" y="-62.3" font-family="Helvetica,sans-Serif" font-size="9.00">&lt; void &gt;</text>
</a>
</g>
</g>
<!-- Node2&#45;&gt;Node1 -->
<g id="edge1" class="edge">
<title>Node2&#45;&gt;Node1</title>
<path fill="none" stroke="midnightblue" d="M52,-45.32C52,-35.94 52,-25.7 52,-18.77"/>
<polygon fill="midnightblue" stroke="midnightblue" points="48.5,-45.34 52,-55.34 55.5,-45.34 48.5,-45.34"/>
</g>
<!-- Node3 -->
<g id="node3" class="node">
<title>Node3</title>
<g id="a_node3"><a xlink:href="a02546.html" target="_top" xlink:title="Base class and enclosing scope.">
<polygon fill="white" stroke="black" points="2.5,-120.5 2.5,-138.5 101.5,-138.5 101.5,-120.5 2.5,-120.5"/>
<text text-anchor="middle" x="52" y="-127.3" font-family="Helvetica,sans-Serif" font-size="9.00">std::__future_base</text>
</a>
</g>
</g>
<!-- Node3&#45;&gt;Node2 -->
<g id="edge2" class="edge">
<title>Node3&#45;&gt;Node2</title>
<path fill="none" stroke="midnightblue" d="M52,-110.32C52,-101.75 52,-91.7 52,-83.84"/>
<polygon fill="midnightblue" stroke="midnightblue" points="48.5,-110.44 52,-120.44 55.5,-110.44 48.5,-110.44"/>
</g>
</g>
</svg>
