<?xml version="1.0" encoding="UTF-8" standalone="no"?>
<!DOCTYPE svg PUBLIC "-//W3C//DTD SVG 1.1//EN"
 "http://www.w3.org/Graphics/SVG/1.1/DTD/svg11.dtd">
<!-- Generated by graphviz version 2.50.0 (0)
 -->
<!-- Title: std::basic_ostringstream&lt; _CharT, _Traits, _Alloc &gt; Pages: 1 -->
<svg width="142pt" height="222pt"
 viewBox="0.00 0.00 142.00 222.00" xmlns="http://www.w3.org/2000/svg" xmlns:xlink="http://www.w3.org/1999/xlink">
<g id="graph0" class="graph" transform="scale(1 1) rotate(0) translate(4 218)">
<title>std::basic_ostringstream&lt; _CharT, _Traits, _Alloc &gt;</title>
<polygon fill="white" stroke="transparent" points="-4,4 -4,-218 138,-218 138,4 -4,4"/>
<!-- Node1 -->
<g id="node1" class="node">
<title>Node1</title>
<g id="a_node1"><a xlink:title="Controlling output for std::string.">
<polygon fill="#bfbfbf" stroke="black" points="0,-0.5 0,-28.5 134,-28.5 134,-0.5 0,-0.5"/>
<text text-anchor="start" x="8" y="-17.3" font-family="Helvetica,sans-Serif" font-size="9.00">std::basic_ostringstream</text>
<text text-anchor="middle" x="67" y="-7.3" font-family="Helvetica,sans-Serif" font-size="9.00">&lt; _CharT, _Traits, _Alloc &gt;</text>
</a>
</g>
</g>
<!-- Node2 -->
<g id="node2" class="node">
<title>Node2</title>
<g id="a_node2"><a xlink:href="a02746.html" target="_top" xlink:title="Template class basic_ostream.">
<polygon fill="white" stroke="black" points="16,-65.5 16,-93.5 118,-93.5 118,-65.5 16,-65.5"/>
<text text-anchor="start" x="24" y="-82.3" font-family="Helvetica,sans-Serif" font-size="9.00">std::basic_ostream</text>
<text text-anchor="middle" x="67" y="-72.3" font-family="Helvetica,sans-Serif" font-size="9.00">&lt; _CharT, _Traits &gt;</text>
</a>
</g>
</g>
<!-- Node2&#45;&gt;Node1 -->
<g id="edge1" class="edge">
<title>Node2&#45;&gt;Node1</title>
<path fill="none" stroke="midnightblue" d="M67,-55.16C67,-46.17 67,-36.22 67,-28.54"/>
<polygon fill="midnightblue" stroke="midnightblue" points="63.5,-55.45 67,-65.45 70.5,-55.45 63.5,-55.45"/>
</g>
<!-- Node3 -->
<g id="node3" class="node">
<title>Node3</title>
<g id="a_node3"><a xlink:href="a02734.html" target="_top" xlink:title="Template class basic_ios, virtual base class for all stream classes.">
<polygon fill="white" stroke="black" points="6.5,-130.5 6.5,-158.5 127.5,-158.5 127.5,-130.5 6.5,-130.5"/>
<text text-anchor="start" x="14.5" y="-147.3" font-family="Helvetica,sans-Serif" font-size="9.00">std::basic_ios&lt; _CharT,</text>
<text text-anchor="middle" x="67" y="-137.3" font-family="Helvetica,sans-Serif" font-size="9.00"> _Traits &gt;</text>
</a>
</g>
</g>
<!-- Node3&#45;&gt;Node2 -->
<g id="edge2" class="edge">
<title>Node3&#45;&gt;Node2</title>
<path fill="none" stroke="midnightblue" d="M67,-120.16C67,-111.17 67,-101.22 67,-93.54"/>
<polygon fill="midnightblue" stroke="midnightblue" points="63.5,-120.45 67,-130.45 70.5,-120.45 63.5,-120.45"/>
</g>
<!-- Node4 -->
<g id="node4" class="node">
<title>Node4</title>
<g id="a_node4"><a xlink:href="a06134.html" target="_top" xlink:title="The base of the I/O class hierarchy.">
<polygon fill="white" stroke="black" points="30,-195.5 30,-213.5 104,-213.5 104,-195.5 30,-195.5"/>
<text text-anchor="middle" x="67" y="-202.3" font-family="Helvetica,sans-Serif" font-size="9.00">std::ios_base</text>
</a>
</g>
</g>
<!-- Node4&#45;&gt;Node3 -->
<g id="edge3" class="edge">
<title>Node4&#45;&gt;Node3</title>
<path fill="none" stroke="midnightblue" d="M67,-185.32C67,-176.75 67,-166.7 67,-158.84"/>
<polygon fill="midnightblue" stroke="midnightblue" points="63.5,-185.44 67,-195.44 70.5,-185.44 63.5,-185.44"/>
</g>
</g>
</svg>
