<?xml version="1.0" encoding="UTF-8" standalone="no"?>
<!DOCTYPE svg PUBLIC "-//W3C//DTD SVG 1.1//EN"
 "http://www.w3.org/Graphics/SVG/1.1/DTD/svg11.dtd">
<!-- Generated by graphviz version 2.50.0 (0)
 -->
<!-- Title: std::basic_istream&lt; _CharT, _Traits &gt; Pages: 1 -->
<svg width="717pt" height="178pt"
 viewBox="0.00 0.00 717.00 178.00" xmlns="http://www.w3.org/2000/svg" xmlns:xlink="http://www.w3.org/1999/xlink">
<g id="graph0" class="graph" transform="scale(1 1) rotate(0) translate(4 174)">
<title>std::basic_istream&lt; _CharT, _Traits &gt;</title>
<polygon fill="white" stroke="transparent" points="-4,4 -4,-174 713,-174 713,4 -4,4"/>
<!-- Node1 -->
<g id="node1" class="node">
<title>Node1</title>
<g id="a_node1"><a xlink:title="Template class basic_istream.">
<polygon fill="#bfbfbf" stroke="black" points="267,-70.5 267,-98.5 369,-98.5 369,-70.5 267,-70.5"/>
<text text-anchor="start" x="275" y="-87.3" font-family="Helvetica,sans-Serif" font-size="9.00">std::basic_istream</text>
<text text-anchor="middle" x="318" y="-77.3" font-family="Helvetica,sans-Serif" font-size="9.00">&lt; _CharT, _Traits &gt;</text>
</a>
</g>
</g>
<!-- Node4 -->
<g id="node4" class="node">
<title>Node4</title>
<g id="a_node4"><a xlink:href="a02750.html" target="_top" xlink:title=" ">
<polygon fill="white" stroke="black" points="420,-141.5 420,-169.5 524,-169.5 524,-141.5 420,-141.5"/>
<text text-anchor="start" x="428" y="-158.3" font-family="Helvetica,sans-Serif" font-size="9.00">std::basic_iostream</text>
<text text-anchor="middle" x="472" y="-148.3" font-family="Helvetica,sans-Serif" font-size="9.00">&lt; char &gt;</text>
</a>
</g>
</g>
<!-- Node1&#45;&gt;Node4 -->
<g id="edge3" class="edge">
<title>Node1&#45;&gt;Node4</title>
<path fill="none" stroke="midnightblue" d="M350.7,-103.93C366.65,-113.26 386.49,-124.18 405,-132.5 412.08,-135.68 419.75,-138.71 427.27,-141.46"/>
<polygon fill="midnightblue" stroke="midnightblue" points="352.18,-100.74 341.8,-98.66 348.62,-106.77 352.18,-100.74"/>
</g>
<!-- Node5 -->
<g id="node5" class="node">
<title>Node5</title>
<g id="a_node5"><a xlink:href="a02366.html" target="_top" xlink:title="Controlling input for files.">
<polygon fill="white" stroke="black" points="421,-94.5 421,-122.5 523,-122.5 523,-94.5 421,-94.5"/>
<text text-anchor="start" x="429" y="-111.3" font-family="Helvetica,sans-Serif" font-size="9.00">std::basic_ifstream</text>
<text text-anchor="middle" x="472" y="-101.3" font-family="Helvetica,sans-Serif" font-size="9.00">&lt; _CharT, _Traits &gt;</text>
</a>
</g>
</g>
<!-- Node1&#45;&gt;Node5 -->
<g id="edge4" class="edge">
<title>Node1&#45;&gt;Node5</title>
<path fill="none" stroke="midnightblue" d="M379.11,-93.99C392.94,-96.17 407.5,-98.47 420.86,-100.58"/>
<polygon fill="midnightblue" stroke="midnightblue" points="379.62,-90.53 369.19,-92.43 378.52,-97.44 379.62,-90.53"/>
</g>
<!-- Node6 -->
<g id="node6" class="node">
<title>Node6</title>
<g id="a_node6"><a xlink:href="a02750.html" target="_top" xlink:title="Template class basic_iostream.">
<polygon fill="white" stroke="black" points="420,-47.5 420,-75.5 524,-75.5 524,-47.5 420,-47.5"/>
<text text-anchor="start" x="428" y="-64.3" font-family="Helvetica,sans-Serif" font-size="9.00">std::basic_iostream</text>
<text text-anchor="middle" x="472" y="-54.3" font-family="Helvetica,sans-Serif" font-size="9.00">&lt; _CharT, _Traits &gt;</text>
</a>
</g>
</g>
<!-- Node1&#45;&gt;Node6 -->
<g id="edge5" class="edge">
<title>Node1&#45;&gt;Node6</title>
<path fill="none" stroke="midnightblue" d="M379.29,-75.38C392.71,-73.35 406.81,-71.21 419.82,-69.24"/>
<polygon fill="midnightblue" stroke="midnightblue" points="378.56,-71.95 369.19,-76.91 379.6,-78.87 378.56,-71.95"/>
</g>
<!-- Node9 -->
<g id="node9" class="node">
<title>Node9</title>
<g id="a_node9"><a xlink:href="a02758.html" target="_top" xlink:title="Controlling input for std::string.">
<polygon fill="white" stroke="black" points="405,-0.5 405,-28.5 539,-28.5 539,-0.5 405,-0.5"/>
<text text-anchor="start" x="413" y="-17.3" font-family="Helvetica,sans-Serif" font-size="9.00">std::basic_istringstream</text>
<text text-anchor="middle" x="472" y="-7.3" font-family="Helvetica,sans-Serif" font-size="9.00">&lt; _CharT, _Traits, _Alloc &gt;</text>
</a>
</g>
</g>
<!-- Node1&#45;&gt;Node9 -->
<g id="edge8" class="edge">
<title>Node1&#45;&gt;Node9</title>
<path fill="none" stroke="midnightblue" d="M351.08,-65.32C366.99,-56.24 386.67,-45.64 405,-37.5 412.1,-34.35 419.77,-31.34 427.29,-28.59"/>
<polygon fill="midnightblue" stroke="midnightblue" points="349.1,-62.43 342.2,-70.46 352.61,-68.49 349.1,-62.43"/>
</g>
<!-- Node2 -->
<g id="node2" class="node">
<title>Node2</title>
<g id="a_node2"><a xlink:href="a02734.html" target="_top" xlink:title="Template class basic_ios, virtual base class for all stream classes.">
<polygon fill="white" stroke="black" points="110,-70.5 110,-98.5 231,-98.5 231,-70.5 110,-70.5"/>
<text text-anchor="start" x="118" y="-87.3" font-family="Helvetica,sans-Serif" font-size="9.00">std::basic_ios&lt; _CharT,</text>
<text text-anchor="middle" x="170.5" y="-77.3" font-family="Helvetica,sans-Serif" font-size="9.00"> _Traits &gt;</text>
</a>
</g>
</g>
<!-- Node2&#45;&gt;Node1 -->
<g id="edge1" class="edge">
<title>Node2&#45;&gt;Node1</title>
<path fill="none" stroke="midnightblue" d="M241.12,-84.5C249.7,-84.5 258.34,-84.5 266.55,-84.5"/>
<polygon fill="midnightblue" stroke="midnightblue" points="241.1,-81 231.1,-84.5 241.1,-88 241.1,-81"/>
</g>
<!-- Node3 -->
<g id="node3" class="node">
<title>Node3</title>
<g id="a_node3"><a xlink:href="a06134.html" target="_top" xlink:title="The base of the I/O class hierarchy.">
<polygon fill="white" stroke="black" points="0,-75.5 0,-93.5 74,-93.5 74,-75.5 0,-75.5"/>
<text text-anchor="middle" x="37" y="-82.3" font-family="Helvetica,sans-Serif" font-size="9.00">std::ios_base</text>
</a>
</g>
</g>
<!-- Node3&#45;&gt;Node2 -->
<g id="edge2" class="edge">
<title>Node3&#45;&gt;Node2</title>
<path fill="none" stroke="midnightblue" d="M84.42,-84.5C92.65,-84.5 101.32,-84.5 109.86,-84.5"/>
<polygon fill="midnightblue" stroke="midnightblue" points="84.28,-81 74.28,-84.5 84.28,-88 84.28,-81"/>
</g>
<!-- Node7 -->
<g id="node7" class="node">
<title>Node7</title>
<g id="a_node7"><a xlink:href="a02374.html" target="_top" xlink:title="Controlling input and output for files.">
<polygon fill="white" stroke="black" points="591,-70.5 591,-98.5 693,-98.5 693,-70.5 591,-70.5"/>
<text text-anchor="start" x="599" y="-87.3" font-family="Helvetica,sans-Serif" font-size="9.00">std::basic_fstream</text>
<text text-anchor="middle" x="642" y="-77.3" font-family="Helvetica,sans-Serif" font-size="9.00">&lt; _CharT, _Traits &gt;</text>
</a>
</g>
</g>
<!-- Node6&#45;&gt;Node7 -->
<g id="edge6" class="edge">
<title>Node6&#45;&gt;Node7</title>
<path fill="none" stroke="midnightblue" d="M534.44,-69.91C552.99,-72.45 573.14,-75.21 590.86,-77.64"/>
<polygon fill="midnightblue" stroke="midnightblue" points="534.7,-66.41 524.32,-68.53 533.75,-73.35 534.7,-66.41"/>
</g>
<!-- Node8 -->
<g id="node8" class="node">
<title>Node8</title>
<g id="a_node8"><a xlink:href="a02766.html" target="_top" xlink:title="Controlling input and output for std::string.">
<polygon fill="white" stroke="black" points="575,-23.5 575,-51.5 709,-51.5 709,-23.5 575,-23.5"/>
<text text-anchor="start" x="583" y="-40.3" font-family="Helvetica,sans-Serif" font-size="9.00">std::basic_stringstream</text>
<text text-anchor="middle" x="642" y="-30.3" font-family="Helvetica,sans-Serif" font-size="9.00">&lt; _CharT, _Traits, _Alloc &gt;</text>
</a>
</g>
</g>
<!-- Node6&#45;&gt;Node8 -->
<g id="edge7" class="edge">
<title>Node6&#45;&gt;Node8</title>
<path fill="none" stroke="midnightblue" d="M534.23,-52.75C547.42,-50.87 561.43,-48.87 574.8,-46.96"/>
<polygon fill="midnightblue" stroke="midnightblue" points="533.72,-49.29 524.32,-54.17 534.71,-56.22 533.72,-49.29"/>
</g>
</g>
</svg>
