<?xml version="1.0" encoding="UTF-8" standalone="no"?>
<!DOCTYPE svg PUBLIC "-//W3C//DTD SVG 1.1//EN"
 "http://www.w3.org/Graphics/SVG/1.1/DTD/svg11.dtd">
<!-- Generated by graphviz version 2.50.0 (0)
 -->
<!-- Title: std::basic_ios&lt; _CharT, _Traits &gt; Pages: 1 -->
<svg width="717pt" height="272pt"
 viewBox="0.00 0.00 717.00 272.00" xmlns="http://www.w3.org/2000/svg" xmlns:xlink="http://www.w3.org/1999/xlink">
<g id="graph0" class="graph" transform="scale(1 1) rotate(0) translate(4 268)">
<title>std::basic_ios&lt; _CharT, _Traits &gt;</title>
<polygon fill="white" stroke="transparent" points="-4,4 -4,-268 713,-268 713,4 -4,4"/>
<!-- Node1 -->
<g id="node1" class="node">
<title>Node1</title>
<g id="a_node1"><a xlink:title="Template class basic_ios, virtual base class for all stream classes.">
<polygon fill="#bfbfbf" stroke="black" points="110,-117.5 110,-145.5 231,-145.5 231,-117.5 110,-117.5"/>
<text text-anchor="start" x="118" y="-134.3" font-family="Helvetica,sans-Serif" font-size="9.00">std::basic_ios&lt; _CharT,</text>
<text text-anchor="middle" x="170.5" y="-124.3" font-family="Helvetica,sans-Serif" font-size="9.00"> _Traits &gt;</text>
</a>
</g>
</g>
<!-- Node3 -->
<g id="node3" class="node">
<title>Node3</title>
<g id="a_node3"><a xlink:href="a02742.html" target="_top" xlink:title="Template class basic_istream.">
<polygon fill="white" stroke="black" points="267,-94.5 267,-122.5 369,-122.5 369,-94.5 267,-94.5"/>
<text text-anchor="start" x="275" y="-111.3" font-family="Helvetica,sans-Serif" font-size="9.00">std::basic_istream</text>
<text text-anchor="middle" x="318" y="-101.3" font-family="Helvetica,sans-Serif" font-size="9.00">&lt; _CharT, _Traits &gt;</text>
</a>
</g>
</g>
<!-- Node1&#45;&gt;Node3 -->
<g id="edge2" class="edge">
<title>Node1&#45;&gt;Node3</title>
<path fill="none" stroke="midnightblue" d="M241.12,-120.5C249.7,-119.14 258.34,-117.77 266.55,-116.47"/>
<polygon fill="midnightblue" stroke="midnightblue" points="240.43,-117.06 231.1,-122.08 241.52,-123.97 240.43,-117.06"/>
</g>
<!-- Node10 -->
<g id="node10" class="node">
<title>Node10</title>
<g id="a_node10"><a xlink:href="a02746.html" target="_top" xlink:title="Template class basic_ostream.">
<polygon fill="white" stroke="black" points="267,-141.5 267,-169.5 369,-169.5 369,-141.5 267,-141.5"/>
<text text-anchor="start" x="275" y="-158.3" font-family="Helvetica,sans-Serif" font-size="9.00">std::basic_ostream</text>
<text text-anchor="middle" x="318" y="-148.3" font-family="Helvetica,sans-Serif" font-size="9.00">&lt; _CharT, _Traits &gt;</text>
</a>
</g>
</g>
<!-- Node1&#45;&gt;Node10 -->
<g id="edge9" class="edge">
<title>Node1&#45;&gt;Node10</title>
<path fill="none" stroke="midnightblue" d="M241.12,-142.98C249.7,-144.4 258.34,-145.82 266.55,-147.18"/>
<polygon fill="midnightblue" stroke="midnightblue" points="241.54,-139.51 231.1,-141.33 240.4,-146.41 241.54,-139.51"/>
</g>
<!-- Node2 -->
<g id="node2" class="node">
<title>Node2</title>
<g id="a_node2"><a xlink:href="a06134.html" target="_top" xlink:title="The base of the I/O class hierarchy.">
<polygon fill="white" stroke="black" points="0,-122.5 0,-140.5 74,-140.5 74,-122.5 0,-122.5"/>
<text text-anchor="middle" x="37" y="-129.3" font-family="Helvetica,sans-Serif" font-size="9.00">std::ios_base</text>
</a>
</g>
</g>
<!-- Node2&#45;&gt;Node1 -->
<g id="edge1" class="edge">
<title>Node2&#45;&gt;Node1</title>
<path fill="none" stroke="midnightblue" d="M84.42,-131.5C92.65,-131.5 101.32,-131.5 109.86,-131.5"/>
<polygon fill="midnightblue" stroke="midnightblue" points="84.28,-128 74.28,-131.5 84.28,-135 84.28,-128"/>
</g>
<!-- Node4 -->
<g id="node4" class="node">
<title>Node4</title>
<g id="a_node4"><a xlink:href="a02750.html" target="_top" xlink:title=" ">
<polygon fill="white" stroke="black" points="420,-141.5 420,-169.5 524,-169.5 524,-141.5 420,-141.5"/>
<text text-anchor="start" x="428" y="-158.3" font-family="Helvetica,sans-Serif" font-size="9.00">std::basic_iostream</text>
<text text-anchor="middle" x="472" y="-148.3" font-family="Helvetica,sans-Serif" font-size="9.00">&lt; char &gt;</text>
</a>
</g>
</g>
<!-- Node3&#45;&gt;Node4 -->
<g id="edge3" class="edge">
<title>Node3&#45;&gt;Node4</title>
<path fill="none" stroke="midnightblue" d="M374.34,-125.61C391.22,-130.83 409.56,-136.5 425.69,-141.49"/>
<polygon fill="midnightblue" stroke="midnightblue" points="375.19,-122.21 364.61,-122.6 373.12,-128.9 375.19,-122.21"/>
</g>
<!-- Node5 -->
<g id="node5" class="node">
<title>Node5</title>
<g id="a_node5"><a xlink:href="a02366.html" target="_top" xlink:title="Controlling input for files.">
<polygon fill="white" stroke="black" points="421,-47.5 421,-75.5 523,-75.5 523,-47.5 421,-47.5"/>
<text text-anchor="start" x="429" y="-64.3" font-family="Helvetica,sans-Serif" font-size="9.00">std::basic_ifstream</text>
<text text-anchor="middle" x="472" y="-54.3" font-family="Helvetica,sans-Serif" font-size="9.00">&lt; _CharT, _Traits &gt;</text>
</a>
</g>
</g>
<!-- Node3&#45;&gt;Node5 -->
<g id="edge4" class="edge">
<title>Node3&#45;&gt;Node5</title>
<path fill="none" stroke="midnightblue" d="M374.34,-91.39C391.22,-86.17 409.56,-80.5 425.69,-75.51"/>
<polygon fill="midnightblue" stroke="midnightblue" points="373.12,-88.1 364.61,-94.4 375.19,-94.79 373.12,-88.1"/>
</g>
<!-- Node6 -->
<g id="node6" class="node">
<title>Node6</title>
<g id="a_node6"><a xlink:href="a02750.html" target="_top" xlink:title="Template class basic_iostream.">
<polygon fill="white" stroke="black" points="420,-94.5 420,-122.5 524,-122.5 524,-94.5 420,-94.5"/>
<text text-anchor="start" x="428" y="-111.3" font-family="Helvetica,sans-Serif" font-size="9.00">std::basic_iostream</text>
<text text-anchor="middle" x="472" y="-101.3" font-family="Helvetica,sans-Serif" font-size="9.00">&lt; _CharT, _Traits &gt;</text>
</a>
</g>
</g>
<!-- Node3&#45;&gt;Node6 -->
<g id="edge5" class="edge">
<title>Node3&#45;&gt;Node6</title>
<path fill="none" stroke="midnightblue" d="M379.29,-108.5C392.71,-108.5 406.81,-108.5 419.82,-108.5"/>
<polygon fill="midnightblue" stroke="midnightblue" points="379.19,-105 369.19,-108.5 379.19,-112 379.19,-105"/>
</g>
<!-- Node9 -->
<g id="node9" class="node">
<title>Node9</title>
<g id="a_node9"><a xlink:href="a02758.html" target="_top" xlink:title="Controlling input for std::string.">
<polygon fill="white" stroke="black" points="405,-0.5 405,-28.5 539,-28.5 539,-0.5 405,-0.5"/>
<text text-anchor="start" x="413" y="-17.3" font-family="Helvetica,sans-Serif" font-size="9.00">std::basic_istringstream</text>
<text text-anchor="middle" x="472" y="-7.3" font-family="Helvetica,sans-Serif" font-size="9.00">&lt; _CharT, _Traits, _Alloc &gt;</text>
</a>
</g>
</g>
<!-- Node3&#45;&gt;Node9 -->
<g id="edge8" class="edge">
<title>Node3&#45;&gt;Node9</title>
<path fill="none" stroke="midnightblue" d="M340.2,-87.32C356.69,-71.79 380.79,-51.13 405,-37.5 410.92,-34.17 417.41,-31.19 423.94,-28.58"/>
<polygon fill="midnightblue" stroke="midnightblue" points="337.53,-85.02 332.74,-94.47 342.38,-90.07 337.53,-85.02"/>
</g>
<!-- Node7 -->
<g id="node7" class="node">
<title>Node7</title>
<g id="a_node7"><a xlink:href="a02374.html" target="_top" xlink:title="Controlling input and output for files.">
<polygon fill="white" stroke="black" points="591,-117.5 591,-145.5 693,-145.5 693,-117.5 591,-117.5"/>
<text text-anchor="start" x="599" y="-134.3" font-family="Helvetica,sans-Serif" font-size="9.00">std::basic_fstream</text>
<text text-anchor="middle" x="642" y="-124.3" font-family="Helvetica,sans-Serif" font-size="9.00">&lt; _CharT, _Traits &gt;</text>
</a>
</g>
</g>
<!-- Node6&#45;&gt;Node7 -->
<g id="edge6" class="edge">
<title>Node6&#45;&gt;Node7</title>
<path fill="none" stroke="midnightblue" d="M534.44,-116.91C552.99,-119.45 573.14,-122.21 590.86,-124.64"/>
<polygon fill="midnightblue" stroke="midnightblue" points="534.7,-113.41 524.32,-115.53 533.75,-120.35 534.7,-113.41"/>
</g>
<!-- Node8 -->
<g id="node8" class="node">
<title>Node8</title>
<g id="a_node8"><a xlink:href="a02766.html" target="_top" xlink:title="Controlling input and output for std::string.">
<polygon fill="white" stroke="black" points="575,-70.5 575,-98.5 709,-98.5 709,-70.5 575,-70.5"/>
<text text-anchor="start" x="583" y="-87.3" font-family="Helvetica,sans-Serif" font-size="9.00">std::basic_stringstream</text>
<text text-anchor="middle" x="642" y="-77.3" font-family="Helvetica,sans-Serif" font-size="9.00">&lt; _CharT, _Traits, _Alloc &gt;</text>
</a>
</g>
</g>
<!-- Node6&#45;&gt;Node8 -->
<g id="edge7" class="edge">
<title>Node6&#45;&gt;Node8</title>
<path fill="none" stroke="midnightblue" d="M534.23,-99.75C547.42,-97.87 561.43,-95.87 574.8,-93.96"/>
<polygon fill="midnightblue" stroke="midnightblue" points="533.72,-96.29 524.32,-101.17 534.71,-103.22 533.72,-96.29"/>
</g>
<!-- Node10&#45;&gt;Node4 -->
<g id="edge10" class="edge">
<title>Node10&#45;&gt;Node4</title>
<path fill="none" stroke="midnightblue" d="M379.29,-155.5C392.71,-155.5 406.81,-155.5 419.82,-155.5"/>
<polygon fill="midnightblue" stroke="midnightblue" points="379.19,-152 369.19,-155.5 379.19,-159 379.19,-152"/>
</g>
<!-- Node10&#45;&gt;Node6 -->
<g id="edge11" class="edge">
<title>Node10&#45;&gt;Node6</title>
<path fill="none" stroke="midnightblue" d="M374.34,-138.39C391.22,-133.17 409.56,-127.5 425.69,-122.51"/>
<polygon fill="midnightblue" stroke="midnightblue" points="373.12,-135.1 364.61,-141.4 375.19,-141.79 373.12,-135.1"/>
</g>
<!-- Node11 -->
<g id="node11" class="node">
<title>Node11</title>
<g id="a_node11"><a xlink:href="a02370.html" target="_top" xlink:title="Controlling output for files.">
<polygon fill="white" stroke="black" points="420,-235.5 420,-263.5 524,-263.5 524,-235.5 420,-235.5"/>
<text text-anchor="start" x="428" y="-252.3" font-family="Helvetica,sans-Serif" font-size="9.00">std::basic_ofstream</text>
<text text-anchor="middle" x="472" y="-242.3" font-family="Helvetica,sans-Serif" font-size="9.00">&lt; _CharT, _Traits &gt;</text>
</a>
</g>
</g>
<!-- Node10&#45;&gt;Node11 -->
<g id="edge12" class="edge">
<title>Node10&#45;&gt;Node11</title>
<path fill="none" stroke="midnightblue" d="M340.2,-176.68C356.69,-192.21 380.79,-212.87 405,-226.5 410.92,-229.83 417.41,-232.81 423.94,-235.42"/>
<polygon fill="midnightblue" stroke="midnightblue" points="342.38,-173.93 332.74,-169.53 337.53,-178.98 342.38,-173.93"/>
</g>
<!-- Node12 -->
<g id="node12" class="node">
<title>Node12</title>
<g id="a_node12"><a xlink:href="a02762.html" target="_top" xlink:title="Controlling output for std::string.">
<polygon fill="white" stroke="black" points="405,-188.5 405,-216.5 539,-216.5 539,-188.5 405,-188.5"/>
<text text-anchor="start" x="413" y="-205.3" font-family="Helvetica,sans-Serif" font-size="9.00">std::basic_ostringstream</text>
<text text-anchor="middle" x="472" y="-195.3" font-family="Helvetica,sans-Serif" font-size="9.00">&lt; _CharT, _Traits, _Alloc &gt;</text>
</a>
</g>
</g>
<!-- Node10&#45;&gt;Node12 -->
<g id="edge13" class="edge">
<title>Node10&#45;&gt;Node12</title>
<path fill="none" stroke="midnightblue" d="M374.34,-172.61C391.22,-177.83 409.56,-183.5 425.69,-188.49"/>
<polygon fill="midnightblue" stroke="midnightblue" points="375.19,-169.21 364.61,-169.6 373.12,-175.9 375.19,-169.21"/>
</g>
</g>
</svg>
