<?xml version="1.0" encoding="UTF-8" standalone="no"?>
<!DOCTYPE svg PUBLIC "-//W3C//DTD SVG 1.1//EN"
 "http://www.w3.org/Graphics/SVG/1.1/DTD/svg11.dtd">
<!-- Generated by graphviz version 2.50.0 (0)
 -->
<!-- Title: std::pmr::memory_resource Pages: 1 -->
<svg width="282pt" height="92pt"
 viewBox="0.00 0.00 282.00 92.00" xmlns="http://www.w3.org/2000/svg" xmlns:xlink="http://www.w3.org/1999/xlink">
<g id="graph0" class="graph" transform="scale(1 1) rotate(0) translate(4 88)">
<title>std::pmr::memory_resource</title>
<polygon fill="white" stroke="transparent" points="-4,4 -4,-88 278,-88 278,4 -4,4"/>
<!-- Node1 -->
<g id="node1" class="node">
<title>Node1</title>
<g id="a_node1"><a xlink:title="Class memory_resource.">
<polygon fill="#bfbfbf" stroke="black" points="63,-65.5 63,-83.5 205,-83.5 205,-65.5 63,-65.5"/>
<text text-anchor="middle" x="134" y="-72.3" font-family="Helvetica,sans-Serif" font-size="9.00">std::pmr::memory_resource</text>
</a>
</g>
</g>
<!-- Node2 -->
<g id="node2" class="node">
<title>Node2</title>
<g id="a_node2"><a xlink:href="a02902.html" target="_top" xlink:title="A thread&#45;safe memory resource that manages pools of fixed&#45;size blocks.">
<polygon fill="white" stroke="black" points="0,-0.5 0,-28.5 122,-28.5 122,-0.5 0,-0.5"/>
<text text-anchor="start" x="8" y="-17.3" font-family="Helvetica,sans-Serif" font-size="9.00">std::pmr::synchronized</text>
<text text-anchor="middle" x="61" y="-7.3" font-family="Helvetica,sans-Serif" font-size="9.00">_pool_resource</text>
</a>
</g>
</g>
<!-- Node1&#45;&gt;Node2 -->
<g id="edge1" class="edge">
<title>Node1&#45;&gt;Node2</title>
<path fill="none" stroke="midnightblue" d="M116,-59.2C104.23,-49.85 88.97,-37.72 77.51,-28.62"/>
<polygon fill="midnightblue" stroke="midnightblue" points="113.84,-61.95 123.85,-65.44 118.2,-56.47 113.84,-61.95"/>
</g>
<!-- Node3 -->
<g id="node3" class="node">
<title>Node3</title>
<g id="a_node3"><a xlink:href="a02906.html" target="_top" xlink:title="A non&#45;thread&#45;safe memory resource that manages pools of fixed&#45;size blocks.">
<polygon fill="white" stroke="black" points="140,-0.5 140,-28.5 274,-28.5 274,-0.5 140,-0.5"/>
<text text-anchor="start" x="148" y="-17.3" font-family="Helvetica,sans-Serif" font-size="9.00">std::pmr::unsynchronized</text>
<text text-anchor="middle" x="207" y="-7.3" font-family="Helvetica,sans-Serif" font-size="9.00">_pool_resource</text>
</a>
</g>
</g>
<!-- Node1&#45;&gt;Node3 -->
<g id="edge2" class="edge">
<title>Node1&#45;&gt;Node3</title>
<path fill="none" stroke="midnightblue" d="M152,-59.2C163.77,-49.85 179.03,-37.72 190.49,-28.62"/>
<polygon fill="midnightblue" stroke="midnightblue" points="149.8,-56.47 144.15,-65.44 154.16,-61.95 149.8,-56.47"/>
</g>
</g>
</svg>
