<?xml version="1.0" encoding="UTF-8" standalone="no"?>
<!DOCTYPE svg PUBLIC "-//W3C//DTD SVG 1.1//EN"
 "http://www.w3.org/Graphics/SVG/1.1/DTD/svg11.dtd">
<!-- Generated by graphviz version 2.50.0 (0)
 -->
<!-- Title: std::_Optional_base&lt; _Tp, bool, bool &gt; Pages: 1 -->
<svg width="274pt" height="112pt"
 viewBox="0.00 0.00 273.50 112.00" xmlns="http://www.w3.org/2000/svg" xmlns:xlink="http://www.w3.org/1999/xlink">
<g id="graph0" class="graph" transform="scale(1 1) rotate(0) translate(4 108)">
<title>std::_Optional_base&lt; _Tp, bool, bool &gt;</title>
<polygon fill="white" stroke="transparent" points="-4,4 -4,-108 269.5,-108 269.5,4 -4,4"/>
<!-- Node1 -->
<g id="node1" class="node">
<title>Node1</title>
<g id="a_node1"><a xlink:title="Class template that provides copy/move constructors of optional.">
<polygon fill="#bfbfbf" stroke="black" points="87.5,-75.5 87.5,-103.5 191.5,-103.5 191.5,-75.5 87.5,-75.5"/>
<text text-anchor="start" x="95.5" y="-92.3" font-family="Helvetica,sans-Serif" font-size="9.00">std::_Optional_base</text>
<text text-anchor="middle" x="139.5" y="-82.3" font-family="Helvetica,sans-Serif" font-size="9.00">&lt; _Tp, bool, bool &gt;</text>
</a>
</g>
</g>
<!-- Node2 -->
<g id="node2" class="node">
<title>Node2</title>
<g id="a_node2"><a xlink:href="a11822.html" target="_top" xlink:title="Class template for optional values.">
<polygon fill="white" stroke="black" points="0,-0.5 0,-38.5 137,-38.5 137,-0.5 0,-0.5"/>
<text text-anchor="start" x="8" y="-27.3" font-family="Helvetica,sans-Serif" font-size="9.00">std::experimental::</text>
<text text-anchor="start" x="8" y="-17.3" font-family="Helvetica,sans-Serif" font-size="9.00">fundamentals_v1::optional</text>
<text text-anchor="middle" x="68.5" y="-7.3" font-family="Helvetica,sans-Serif" font-size="9.00">&lt; _Tp &gt;</text>
</a>
</g>
</g>
<!-- Node1&#45;&gt;Node2 -->
<g id="edge1" class="edge">
<title>Node1&#45;&gt;Node2</title>
<path fill="none" stroke="#8b1a1a" d="M118.4,-68.29C108.6,-58.91 97.04,-47.84 87.52,-38.71"/>
<polygon fill="#8b1a1a" stroke="#8b1a1a" points="116.17,-71 125.81,-75.39 121.01,-65.94 116.17,-71"/>
</g>
<!-- Node3 -->
<g id="node3" class="node">
<title>Node3</title>
<g id="a_node3"><a xlink:href="a02950.html" target="_top" xlink:title="Class template for optional values.">
<polygon fill="white" stroke="black" points="155.5,-10.5 155.5,-28.5 265.5,-28.5 265.5,-10.5 155.5,-10.5"/>
<text text-anchor="middle" x="210.5" y="-17.3" font-family="Helvetica,sans-Serif" font-size="9.00">std::optional&lt; _Tp &gt;</text>
</a>
</g>
</g>
<!-- Node1&#45;&gt;Node3 -->
<g id="edge2" class="edge">
<title>Node1&#45;&gt;Node3</title>
<path fill="none" stroke="#8b1a1a" d="M160.41,-68.47C174.2,-55.27 191.54,-38.66 201.78,-28.86"/>
<polygon fill="#8b1a1a" stroke="#8b1a1a" points="157.99,-65.94 153.19,-75.39 162.83,-71 157.99,-65.94"/>
</g>
</g>
</svg>
