<?xml version="1.0" encoding="UTF-8" standalone="no"?>
<!DOCTYPE svg PUBLIC "-//W3C//DTD SVG 1.1//EN"
 "http://www.w3.org/Graphics/SVG/1.1/DTD/svg11.dtd">
<!-- Generated by graphviz version 2.50.0 (0)
 -->
<!-- Title: std::out_of_range Pages: 1 -->
<svg width="103pt" height="137pt"
 viewBox="0.00 0.00 103.00 137.00" xmlns="http://www.w3.org/2000/svg" xmlns:xlink="http://www.w3.org/1999/xlink">
<g id="graph0" class="graph" transform="scale(1 1) rotate(0) translate(4 133)">
<title>std::out_of_range</title>
<polygon fill="white" stroke="transparent" points="-4,4 -4,-133 99,-133 99,4 -4,4"/>
<!-- Node1 -->
<g id="node1" class="node">
<title>Node1</title>
<g id="a_node1"><a xlink:title=" ">
<polygon fill="#bfbfbf" stroke="black" points="0,-0.5 0,-18.5 95,-18.5 95,-0.5 0,-0.5"/>
<text text-anchor="middle" x="47.5" y="-7.3" font-family="Helvetica,sans-Serif" font-size="9.00">std::out_of_range</text>
</a>
</g>
</g>
<!-- Node2 -->
<g id="node2" class="node">
<title>Node2</title>
<g id="a_node2"><a xlink:href="a03450.html" target="_top" xlink:title="One of two subclasses of exception.">
<polygon fill="white" stroke="black" points="5.5,-55.5 5.5,-73.5 89.5,-73.5 89.5,-55.5 5.5,-55.5"/>
<text text-anchor="middle" x="47.5" y="-62.3" font-family="Helvetica,sans-Serif" font-size="9.00">std::logic_error</text>
</a>
</g>
</g>
<!-- Node2&#45;&gt;Node1 -->
<g id="edge1" class="edge">
<title>Node2&#45;&gt;Node1</title>
<path fill="none" stroke="midnightblue" d="M47.5,-45.17C47.5,-36.09 47.5,-25.59 47.5,-18.55"/>
<polygon fill="midnightblue" stroke="midnightblue" points="44,-45.22 47.5,-55.22 51,-45.22 44,-45.22"/>
</g>
<!-- Node3 -->
<g id="node3" class="node">
<title>Node3</title>
<g id="a_node3"><a xlink:href="a05922.html" target="_top" xlink:title="Base class for all library exceptions.">
<polygon fill="white" stroke="black" points="7.5,-110.5 7.5,-128.5 87.5,-128.5 87.5,-110.5 7.5,-110.5"/>
<text text-anchor="middle" x="47.5" y="-117.3" font-family="Helvetica,sans-Serif" font-size="9.00">std::exception</text>
</a>
</g>
</g>
<!-- Node3&#45;&gt;Node2 -->
<g id="edge2" class="edge">
<title>Node3&#45;&gt;Node2</title>
<path fill="none" stroke="midnightblue" d="M47.5,-100.17C47.5,-91.09 47.5,-80.59 47.5,-73.55"/>
<polygon fill="midnightblue" stroke="midnightblue" points="44,-100.22 47.5,-110.22 51,-100.22 44,-100.22"/>
</g>
</g>
</svg>
