<?xml version="1.0" encoding="UTF-8" standalone="no"?>
<!DOCTYPE svg PUBLIC "-//W3C//DTD SVG 1.1//EN"
 "http://www.w3.org/Graphics/SVG/1.1/DTD/svg11.dtd">
<!-- Generated by graphviz version 2.50.0 (0)
 -->
<!-- Title: std::_Tuple_impl&lt; _Idx, _Head, _Tail... &gt; Pages: 1 -->
<svg width="121pt" height="102pt"
 viewBox="0.00 0.00 121.00 102.00" xmlns="http://www.w3.org/2000/svg" xmlns:xlink="http://www.w3.org/1999/xlink">
<g id="graph0" class="graph" transform="scale(1 1) rotate(0) translate(4 98)">
<title>std::_Tuple_impl&lt; _Idx, _Head, _Tail... &gt;</title>
<polygon fill="white" stroke="transparent" points="-4,4 -4,-98 117,-98 117,4 -4,4"/>
<!-- Node1 -->
<g id="node1" class="node">
<title>Node1</title>
<g id="a_node1"><a xlink:title=" ">
<polygon fill="#bfbfbf" stroke="black" points="0,-0.5 0,-28.5 113,-28.5 113,-0.5 0,-0.5"/>
<text text-anchor="start" x="8" y="-17.3" font-family="Helvetica,sans-Serif" font-size="9.00">std::_Tuple_impl&lt; </text>
<text text-anchor="middle" x="56.5" y="-7.3" font-family="Helvetica,sans-Serif" font-size="9.00">_Idx, _Head, _Tail... &gt;</text>
</a>
</g>
</g>
<!-- Node2 -->
<g id="node2" class="node">
<title>Node2</title>
<g id="a_node2"><a xlink:href="a03622.html" target="_top" xlink:title=" ">
<polygon fill="white" stroke="black" points="7,-65.5 7,-93.5 106,-93.5 106,-65.5 7,-65.5"/>
<text text-anchor="start" x="15" y="-82.3" font-family="Helvetica,sans-Serif" font-size="9.00">std::_Tuple_impl&lt; </text>
<text text-anchor="middle" x="56.5" y="-72.3" font-family="Helvetica,sans-Serif" font-size="9.00">_Idx+1, _Tail... &gt;</text>
</a>
</g>
</g>
<!-- Node2&#45;&gt;Node1 -->
<g id="edge1" class="edge">
<title>Node2&#45;&gt;Node1</title>
<path fill="none" stroke="midnightblue" d="M56.5,-55.16C56.5,-46.17 56.5,-36.22 56.5,-28.54"/>
<polygon fill="midnightblue" stroke="midnightblue" points="53,-55.45 56.5,-65.45 60,-55.45 53,-55.45"/>
</g>
</g>
</svg>
