<?xml version="1.0" encoding="UTF-8" standalone="no"?>
<!DOCTYPE svg PUBLIC "-//W3C//DTD SVG 1.1//EN"
 "http://www.w3.org/Graphics/SVG/1.1/DTD/svg11.dtd">
<!-- Generated by graphviz version 2.50.0 (0)
 -->
<!-- Title: std::uses_allocator&lt; tuple&lt; _Types... &gt;, _Alloc &gt; Pages: 1 -->
<svg width="118pt" height="102pt"
 viewBox="0.00 0.00 118.00 102.00" xmlns="http://www.w3.org/2000/svg" xmlns:xlink="http://www.w3.org/1999/xlink">
<g id="graph0" class="graph" transform="scale(1 1) rotate(0) translate(4 98)">
<title>std::uses_allocator&lt; tuple&lt; _Types... &gt;, _Alloc &gt;</title>
<polygon fill="white" stroke="transparent" points="-4,4 -4,-98 114,-98 114,4 -4,4"/>
<!-- Node1 -->
<g id="node1" class="node">
<title>Node1</title>
<g id="a_node1"><a xlink:title="Partial specialization for tuples.">
<polygon fill="#bfbfbf" stroke="black" points="0,-0.5 0,-38.5 110,-38.5 110,-0.5 0,-0.5"/>
<text text-anchor="start" x="8" y="-27.3" font-family="Helvetica,sans-Serif" font-size="9.00">std::uses_allocator</text>
<text text-anchor="start" x="8" y="-17.3" font-family="Helvetica,sans-Serif" font-size="9.00">&lt; tuple&lt; _Types... &gt;</text>
<text text-anchor="middle" x="55" y="-7.3" font-family="Helvetica,sans-Serif" font-size="9.00">, _Alloc &gt;</text>
</a>
</g>
</g>
<!-- Node2 -->
<g id="node2" class="node">
<title>Node2</title>
<g id="a_node2"><a xlink:href="a03766.html" target="_top" xlink:title="integral_constant">
<polygon fill="white" stroke="black" points="25,-75.5 25,-93.5 85,-93.5 85,-75.5 25,-75.5"/>
<text text-anchor="middle" x="55" y="-82.3" font-family="Helvetica,sans-Serif" font-size="9.00">true_type</text>
</a>
</g>
</g>
<!-- Node2&#45;&gt;Node1 -->
<g id="edge1" class="edge">
<title>Node2&#45;&gt;Node1</title>
<path fill="none" stroke="midnightblue" d="M55,-65.08C55,-56.72 55,-46.86 55,-38.55"/>
<polygon fill="midnightblue" stroke="midnightblue" points="51.5,-65.26 55,-75.26 58.5,-65.26 51.5,-65.26"/>
</g>
</g>
</svg>
