<?xml version="1.0" encoding="UTF-8" standalone="no"?>
<!DOCTYPE svg PUBLIC "-//W3C//DTD SVG 1.1//EN"
 "http://www.w3.org/Graphics/SVG/1.1/DTD/svg11.dtd">
<!-- Generated by graphviz version 2.50.0 (0)
 -->
<!-- Title: std::is_member_object_pointer&lt; _Tp &gt; Pages: 1 -->
<svg width="148pt" height="112pt"
 viewBox="0.00 0.00 148.00 112.00" xmlns="http://www.w3.org/2000/svg" xmlns:xlink="http://www.w3.org/1999/xlink">
<g id="graph0" class="graph" transform="scale(1 1) rotate(0) translate(4 108)">
<title>std::is_member_object_pointer&lt; _Tp &gt;</title>
<polygon fill="white" stroke="transparent" points="-4,4 -4,-108 144,-108 144,4 -4,4"/>
<!-- Node1 -->
<g id="node1" class="node">
<title>Node1</title>
<g id="a_node1"><a xlink:title="is_member_object_pointer">
<polygon fill="#bfbfbf" stroke="black" points="10.5,-0.5 10.5,-28.5 129.5,-28.5 129.5,-0.5 10.5,-0.5"/>
<text text-anchor="start" x="18.5" y="-17.3" font-family="Helvetica,sans-Serif" font-size="9.00">std::is_member_object</text>
<text text-anchor="middle" x="70" y="-7.3" font-family="Helvetica,sans-Serif" font-size="9.00">_pointer&lt; _Tp &gt;</text>
</a>
</g>
</g>
<!-- Node2 -->
<g id="node2" class="node">
<title>Node2</title>
<g id="a_node2"><a xlink:href="a03766.html" target="_top" xlink:title="integral_constant">
<polygon fill="white" stroke="black" points="0,-65.5 0,-103.5 140,-103.5 140,-65.5 0,-65.5"/>
<text text-anchor="start" x="8" y="-92.3" font-family="Helvetica,sans-Serif" font-size="9.00">__is_member_object</text>
<text text-anchor="start" x="8" y="-82.3" font-family="Helvetica,sans-Serif" font-size="9.00">_pointer_helper&lt; __remove</text>
<text text-anchor="middle" x="70" y="-72.3" font-family="Helvetica,sans-Serif" font-size="9.00">_cv_t&lt; _Tp &gt; &gt;::type</text>
</a>
</g>
</g>
<!-- Node2&#45;&gt;Node1 -->
<g id="edge1" class="edge">
<title>Node2&#45;&gt;Node1</title>
<path fill="none" stroke="midnightblue" d="M70,-55.01C70,-45.92 70,-36.29 70,-28.81"/>
<polygon fill="midnightblue" stroke="midnightblue" points="66.5,-55.28 70,-65.28 73.5,-55.28 66.5,-55.28"/>
</g>
</g>
</svg>
