<?xml version="1.0" encoding="UTF-8" standalone="no"?>
<!DOCTYPE svg PUBLIC "-//W3C//DTD SVG 1.1//EN"
 "http://www.w3.org/Graphics/SVG/1.1/DTD/svg11.dtd">
<!-- Generated by graphviz version 2.50.0 (0)
 -->
<!-- Title: std::is_null_pointer&lt; _Tp &gt; Pages: 1 -->
<svg width="138pt" height="177pt"
 viewBox="0.00 0.00 138.00 177.00" xmlns="http://www.w3.org/2000/svg" xmlns:xlink="http://www.w3.org/1999/xlink">
<g id="graph0" class="graph" transform="scale(1 1) rotate(0) translate(4 173)">
<title>std::is_null_pointer&lt; _Tp &gt;</title>
<polygon fill="white" stroke="transparent" points="-4,4 -4,-173 134,-173 134,4 -4,4"/>
<!-- Node1 -->
<g id="node1" class="node">
<title>Node1</title>
<g id="a_node1"><a xlink:title="is_null_pointer (LWG 2247).">
<polygon fill="#bfbfbf" stroke="black" points="14.5,-65.5 14.5,-93.5 115.5,-93.5 115.5,-65.5 14.5,-65.5"/>
<text text-anchor="start" x="22.5" y="-82.3" font-family="Helvetica,sans-Serif" font-size="9.00">std::is_null_pointer</text>
<text text-anchor="middle" x="65" y="-72.3" font-family="Helvetica,sans-Serif" font-size="9.00">&lt; _Tp &gt;</text>
</a>
</g>
</g>
<!-- Node3 -->
<g id="node3" class="node">
<title>Node3</title>
<g id="a_node3"><a xlink:href="a03914.html" target="_top" xlink:title="__is_nullptr_t (deprecated extension).">
<polygon fill="white" stroke="black" points="17.5,-0.5 17.5,-28.5 112.5,-28.5 112.5,-0.5 17.5,-0.5"/>
<text text-anchor="start" x="25.5" y="-17.3" font-family="Helvetica,sans-Serif" font-size="9.00">std::__is_nullptr_t</text>
<text text-anchor="middle" x="65" y="-7.3" font-family="Helvetica,sans-Serif" font-size="9.00">&lt; _Tp &gt;</text>
</a>
</g>
</g>
<!-- Node1&#45;&gt;Node3 -->
<g id="edge2" class="edge">
<title>Node1&#45;&gt;Node3</title>
<path fill="none" stroke="midnightblue" d="M65,-55.16C65,-46.17 65,-36.22 65,-28.54"/>
<polygon fill="midnightblue" stroke="midnightblue" points="61.5,-55.45 65,-65.45 68.5,-55.45 61.5,-55.45"/>
</g>
<!-- Node2 -->
<g id="node2" class="node">
<title>Node2</title>
<g id="a_node2"><a xlink:href="a03766.html" target="_top" xlink:title="integral_constant">
<polygon fill="white" stroke="black" points="0,-130.5 0,-168.5 130,-168.5 130,-130.5 0,-130.5"/>
<text text-anchor="start" x="8" y="-157.3" font-family="Helvetica,sans-Serif" font-size="9.00">__is_null_pointer_helper</text>
<text text-anchor="start" x="8" y="-147.3" font-family="Helvetica,sans-Serif" font-size="9.00">&lt; __remove_cv_t&lt; _Tp &gt;</text>
<text text-anchor="middle" x="65" y="-137.3" font-family="Helvetica,sans-Serif" font-size="9.00"> &gt;::type</text>
</a>
</g>
</g>
<!-- Node2&#45;&gt;Node1 -->
<g id="edge1" class="edge">
<title>Node2&#45;&gt;Node1</title>
<path fill="none" stroke="midnightblue" d="M65,-120.01C65,-110.92 65,-101.29 65,-93.81"/>
<polygon fill="midnightblue" stroke="midnightblue" points="61.5,-120.28 65,-130.28 68.5,-120.28 61.5,-120.28"/>
</g>
</g>
</svg>
