<?xml version="1.0" encoding="UTF-8" standalone="no"?>
<!DOCTYPE svg PUBLIC "-//W3C//DTD SVG 1.1//EN"
 "http://www.w3.org/Graphics/SVG/1.1/DTD/svg11.dtd">
<!-- Generated by graphviz version 2.50.0 (0)
 -->
<!-- Title: std::extent&lt; typename, _Uint &gt; Pages: 1 -->
<svg width="133pt" height="102pt"
 viewBox="0.00 0.00 133.00 102.00" xmlns="http://www.w3.org/2000/svg" xmlns:xlink="http://www.w3.org/1999/xlink">
<g id="graph0" class="graph" transform="scale(1 1) rotate(0) translate(4 98)">
<title>std::extent&lt; typename, _Uint &gt;</title>
<polygon fill="white" stroke="transparent" points="-4,4 -4,-98 129,-98 129,4 -4,4"/>
<!-- Node1 -->
<g id="node1" class="node">
<title>Node1</title>
<g id="a_node1"><a xlink:title="extent">
<polygon fill="#bfbfbf" stroke="black" points="0,-0.5 0,-28.5 125,-28.5 125,-0.5 0,-0.5"/>
<text text-anchor="start" x="8" y="-17.3" font-family="Helvetica,sans-Serif" font-size="9.00">std::extent&lt; typename,</text>
<text text-anchor="middle" x="62.5" y="-7.3" font-family="Helvetica,sans-Serif" font-size="9.00"> _Uint &gt;</text>
</a>
</g>
</g>
<!-- Node2 -->
<g id="node2" class="node">
<title>Node2</title>
<g id="a_node2"><a xlink:href="a03766.html" target="_top" xlink:title=" ">
<polygon fill="white" stroke="black" points="4.5,-65.5 4.5,-93.5 120.5,-93.5 120.5,-65.5 4.5,-65.5"/>
<text text-anchor="start" x="12.5" y="-82.3" font-family="Helvetica,sans-Serif" font-size="9.00">std::integral_constant</text>
<text text-anchor="middle" x="62.5" y="-72.3" font-family="Helvetica,sans-Serif" font-size="9.00">&lt; std::size_t, 0 &gt;</text>
</a>
</g>
</g>
<!-- Node2&#45;&gt;Node1 -->
<g id="edge1" class="edge">
<title>Node2&#45;&gt;Node1</title>
<path fill="none" stroke="midnightblue" d="M62.5,-55.16C62.5,-46.17 62.5,-36.22 62.5,-28.54"/>
<polygon fill="midnightblue" stroke="midnightblue" points="59,-55.45 62.5,-65.45 66,-55.45 59,-55.45"/>
</g>
</g>
</svg>
