<?xml version="1.0" encoding="UTF-8" standalone="no"?>
<!DOCTYPE svg PUBLIC "-//W3C//DTD SVG 1.1//EN"
 "http://www.w3.org/Graphics/SVG/1.1/DTD/svg11.dtd">
<!-- Generated by graphviz version 2.50.0 (0)
 -->
<!-- Title: std::is_layout_compatible&lt; _Tp, _Up &gt; Pages: 1 -->
<svg width="139pt" height="112pt"
 viewBox="0.00 0.00 139.00 112.00" xmlns="http://www.w3.org/2000/svg" xmlns:xlink="http://www.w3.org/1999/xlink">
<g id="graph0" class="graph" transform="scale(1 1) rotate(0) translate(4 108)">
<title>std::is_layout_compatible&lt; _Tp, _Up &gt;</title>
<polygon fill="white" stroke="transparent" points="-4,4 -4,-108 135,-108 135,4 -4,4"/>
<!-- Node1 -->
<g id="node1" class="node">
<title>Node1</title>
<g id="a_node1"><a xlink:title=" ">
<polygon fill="#bfbfbf" stroke="black" points="0,-0.5 0,-28.5 131,-28.5 131,-0.5 0,-0.5"/>
<text text-anchor="start" x="8" y="-17.3" font-family="Helvetica,sans-Serif" font-size="9.00">std::is_layout_compatible</text>
<text text-anchor="middle" x="65.5" y="-7.3" font-family="Helvetica,sans-Serif" font-size="9.00">&lt; _Tp, _Up &gt;</text>
</a>
</g>
</g>
<!-- Node2 -->
<g id="node2" class="node">
<title>Node2</title>
<g id="a_node2"><a xlink:href="a03766.html" target="_top" xlink:title="integral_constant">
<polygon fill="white" stroke="black" points="12,-65.5 12,-103.5 119,-103.5 119,-65.5 12,-65.5"/>
<text text-anchor="start" x="20" y="-92.3" font-family="Helvetica,sans-Serif" font-size="9.00">bool_constant&lt; __is</text>
<text text-anchor="start" x="20" y="-82.3" font-family="Helvetica,sans-Serif" font-size="9.00">_layout_compatible(</text>
<text text-anchor="middle" x="65.5" y="-72.3" font-family="Helvetica,sans-Serif" font-size="9.00">_Tp, _Up)&gt;</text>
</a>
</g>
</g>
<!-- Node2&#45;&gt;Node1 -->
<g id="edge1" class="edge">
<title>Node2&#45;&gt;Node1</title>
<path fill="none" stroke="midnightblue" d="M65.5,-55.01C65.5,-45.92 65.5,-36.29 65.5,-28.81"/>
<polygon fill="midnightblue" stroke="midnightblue" points="62,-55.28 65.5,-65.28 69,-55.28 62,-55.28"/>
</g>
</g>
</svg>
