<?xml version="1.0" encoding="UTF-8" standalone="no"?>
<!DOCTYPE svg PUBLIC "-//W3C//DTD SVG 1.1//EN"
 "http://www.w3.org/Graphics/SVG/1.1/DTD/svg11.dtd">
<!-- Generated by graphviz version 2.50.0 (0)
 -->
<!-- Title: std::is_pointer_interconvertible_base_of&lt; _Base, _Derived &gt; Pages: 1 -->
<svg width="163pt" height="112pt"
 viewBox="0.00 0.00 163.00 112.00" xmlns="http://www.w3.org/2000/svg" xmlns:xlink="http://www.w3.org/1999/xlink">
<g id="graph0" class="graph" transform="scale(1 1) rotate(0) translate(4 108)">
<title>std::is_pointer_interconvertible_base_of&lt; _Base, _Derived &gt;</title>
<polygon fill="white" stroke="transparent" points="-4,4 -4,-108 159,-108 159,4 -4,4"/>
<!-- Node1 -->
<g id="node1" class="node">
<title>Node1</title>
<g id="a_node1"><a xlink:title="True if _Derived is standard&#45;layout and has a base class of type _Base">
<polygon fill="#bfbfbf" stroke="black" points="0,-0.5 0,-28.5 155,-28.5 155,-0.5 0,-0.5"/>
<text text-anchor="start" x="8" y="-17.3" font-family="Helvetica,sans-Serif" font-size="9.00">std::is_pointer_interconvertible</text>
<text text-anchor="middle" x="77.5" y="-7.3" font-family="Helvetica,sans-Serif" font-size="9.00">_base_of&lt; _Base, _Derived &gt;</text>
</a>
</g>
</g>
<!-- Node2 -->
<g id="node2" class="node">
<title>Node2</title>
<g id="a_node2"><a xlink:href="a03766.html" target="_top" xlink:title="integral_constant">
<polygon fill="white" stroke="black" points="7.5,-65.5 7.5,-103.5 147.5,-103.5 147.5,-65.5 7.5,-65.5"/>
<text text-anchor="start" x="15.5" y="-92.3" font-family="Helvetica,sans-Serif" font-size="9.00">bool_constant&lt; __is</text>
<text text-anchor="start" x="15.5" y="-82.3" font-family="Helvetica,sans-Serif" font-size="9.00">_pointer_interconvertible</text>
<text text-anchor="middle" x="77.5" y="-72.3" font-family="Helvetica,sans-Serif" font-size="9.00">_base_of(_Base, _Derived)&gt;</text>
</a>
</g>
</g>
<!-- Node2&#45;&gt;Node1 -->
<g id="edge1" class="edge">
<title>Node2&#45;&gt;Node1</title>
<path fill="none" stroke="midnightblue" d="M77.5,-55.01C77.5,-45.92 77.5,-36.29 77.5,-28.81"/>
<polygon fill="midnightblue" stroke="midnightblue" points="74,-55.28 77.5,-65.28 81,-55.28 74,-55.28"/>
</g>
</g>
</svg>
