<?xml version="1.0" encoding="UTF-8" standalone="no"?>
<!DOCTYPE svg PUBLIC "-//W3C//DTD SVG 1.1//EN"
 "http://www.w3.org/Graphics/SVG/1.1/DTD/svg11.dtd">
<!-- Generated by graphviz version 2.50.0 (0)
 -->
<!-- Title: std::is_aggregate&lt; _Tp &gt; Pages: 1 -->
<svg width="128pt" height="112pt"
 viewBox="0.00 0.00 128.00 112.00" xmlns="http://www.w3.org/2000/svg" xmlns:xlink="http://www.w3.org/1999/xlink">
<g id="graph0" class="graph" transform="scale(1 1) rotate(0) translate(4 108)">
<title>std::is_aggregate&lt; _Tp &gt;</title>
<polygon fill="white" stroke="transparent" points="-4,4 -4,-108 124,-108 124,4 -4,4"/>
<!-- Node1 -->
<g id="node1" class="node">
<title>Node1</title>
<g id="a_node1"><a xlink:title="is_aggregate">
<polygon fill="#bfbfbf" stroke="black" points="9,-0.5 9,-28.5 111,-28.5 111,-0.5 9,-0.5"/>
<text text-anchor="start" x="17" y="-17.3" font-family="Helvetica,sans-Serif" font-size="9.00">std::is_aggregate&lt;</text>
<text text-anchor="middle" x="60" y="-7.3" font-family="Helvetica,sans-Serif" font-size="9.00"> _Tp &gt;</text>
</a>
</g>
</g>
<!-- Node2 -->
<g id="node2" class="node">
<title>Node2</title>
<g id="a_node2"><a xlink:href="a03766.html" target="_top" xlink:title="integral_constant">
<polygon fill="white" stroke="black" points="0,-65.5 0,-103.5 120,-103.5 120,-65.5 0,-65.5"/>
<text text-anchor="start" x="8" y="-92.3" font-family="Helvetica,sans-Serif" font-size="9.00">bool_constant&lt; __is</text>
<text text-anchor="start" x="8" y="-82.3" font-family="Helvetica,sans-Serif" font-size="9.00">_aggregate(remove_cv</text>
<text text-anchor="middle" x="60" y="-72.3" font-family="Helvetica,sans-Serif" font-size="9.00">_t&lt; _Tp &gt;)&gt;</text>
</a>
</g>
</g>
<!-- Node2&#45;&gt;Node1 -->
<g id="edge1" class="edge">
<title>Node2&#45;&gt;Node1</title>
<path fill="none" stroke="midnightblue" d="M60,-55.01C60,-45.92 60,-36.29 60,-28.81"/>
<polygon fill="midnightblue" stroke="midnightblue" points="56.5,-55.28 60,-65.28 63.5,-55.28 56.5,-55.28"/>
</g>
</g>
</svg>
