<?xml version="1.0" encoding="UTF-8" standalone="no"?>
<!DOCTYPE svg PUBLIC "-//W3C//DTD SVG 1.1//EN"
 "http://www.w3.org/Graphics/SVG/1.1/DTD/svg11.dtd">
<!-- Generated by graphviz version 2.50.0 (0)
 -->
<!-- Title: std::allocator_traits&lt; _Alloc &gt; Pages: 1 -->
<svg width="151pt" height="102pt"
 viewBox="0.00 0.00 151.00 102.00" xmlns="http://www.w3.org/2000/svg" xmlns:xlink="http://www.w3.org/1999/xlink">
<g id="graph0" class="graph" transform="scale(1 1) rotate(0) translate(4 98)">
<title>std::allocator_traits&lt; _Alloc &gt;</title>
<polygon fill="white" stroke="transparent" points="-4,4 -4,-98 147,-98 147,4 -4,4"/>
<!-- Node1 -->
<g id="node1" class="node">
<title>Node1</title>
<g id="a_node1"><a xlink:title="Uniform interface to all allocator types.">
<polygon fill="#bfbfbf" stroke="black" points="20,-65.5 20,-93.5 123,-93.5 123,-65.5 20,-65.5"/>
<text text-anchor="start" x="28" y="-82.3" font-family="Helvetica,sans-Serif" font-size="9.00">std::allocator_traits</text>
<text text-anchor="middle" x="71.5" y="-72.3" font-family="Helvetica,sans-Serif" font-size="9.00">&lt; _Alloc &gt;</text>
</a>
</g>
</g>
<!-- Node2 -->
<g id="node2" class="node">
<title>Node2</title>
<g id="a_node2"><a xlink:href="a11950.html" target="_top" xlink:title="Uniform interface to C++98 and C++11 allocators.">
<polygon fill="white" stroke="black" points="0,-0.5 0,-28.5 143,-28.5 143,-0.5 0,-0.5"/>
<text text-anchor="start" x="8" y="-17.3" font-family="Helvetica,sans-Serif" font-size="9.00">__gnu_cxx::__alloc</text>
<text text-anchor="middle" x="71.5" y="-7.3" font-family="Helvetica,sans-Serif" font-size="9.00">_traits&lt; _Alloc, typename &gt;</text>
</a>
</g>
</g>
<!-- Node1&#45;&gt;Node2 -->
<g id="edge1" class="edge">
<title>Node1&#45;&gt;Node2</title>
<path fill="none" stroke="midnightblue" d="M71.5,-55.16C71.5,-46.17 71.5,-36.22 71.5,-28.54"/>
<polygon fill="midnightblue" stroke="midnightblue" points="68,-55.45 71.5,-65.45 75,-55.45 68,-55.45"/>
</g>
</g>
</svg>
