<?xml version="1.0" encoding="UTF-8" standalone="no"?>
<!DOCTYPE svg PUBLIC "-//W3C//DTD SVG 1.1//EN"
 "http://www.w3.org/Graphics/SVG/1.1/DTD/svg11.dtd">
<!-- Generated by graphviz version 2.50.0 (0)
 -->
<!-- Title: std::char_traits&lt; _CharT &gt; Pages: 1 -->
<svg width="129pt" height="167pt"
 viewBox="0.00 0.00 129.00 167.00" xmlns="http://www.w3.org/2000/svg" xmlns:xlink="http://www.w3.org/1999/xlink">
<g id="graph0" class="graph" transform="scale(1 1) rotate(0) translate(4 163)">
<title>std::char_traits&lt; _CharT &gt;</title>
<polygon fill="white" stroke="transparent" points="-4,4 -4,-163 125,-163 125,4 -4,4"/>
<!-- Node1 -->
<g id="node1" class="node">
<title>Node1</title>
<g id="a_node1"><a xlink:title="Basis for explicit traits specializations.">
<polygon fill="#bfbfbf" stroke="black" points="13,-65.5 13,-93.5 108,-93.5 108,-65.5 13,-65.5"/>
<text text-anchor="start" x="21" y="-82.3" font-family="Helvetica,sans-Serif" font-size="9.00">std::char_traits&lt; </text>
<text text-anchor="middle" x="60.5" y="-72.3" font-family="Helvetica,sans-Serif" font-size="9.00">_CharT &gt;</text>
</a>
</g>
</g>
<!-- Node3 -->
<g id="node3" class="node">
<title>Node3</title>
<g id="a_node3"><a xlink:href="a12030.html" target="_top" xlink:title="encoding_char_traits">
<polygon fill="white" stroke="black" points="0,-0.5 0,-28.5 121,-28.5 121,-0.5 0,-0.5"/>
<text text-anchor="start" x="8" y="-17.3" font-family="Helvetica,sans-Serif" font-size="9.00">__gnu_cxx::encoding</text>
<text text-anchor="middle" x="60.5" y="-7.3" font-family="Helvetica,sans-Serif" font-size="9.00">_char_traits&lt; _CharT &gt;</text>
</a>
</g>
</g>
<!-- Node1&#45;&gt;Node3 -->
<g id="edge2" class="edge">
<title>Node1&#45;&gt;Node3</title>
<path fill="none" stroke="midnightblue" d="M60.5,-55.16C60.5,-46.17 60.5,-36.22 60.5,-28.54"/>
<polygon fill="midnightblue" stroke="midnightblue" points="57,-55.45 60.5,-65.45 64,-55.45 57,-55.45"/>
</g>
<!-- Node2 -->
<g id="node2" class="node">
<title>Node2</title>
<g id="a_node2"><a xlink:href="a05530.html" target="_top" xlink:title="Base class used to implement std::char_traits.">
<polygon fill="white" stroke="black" points="1.5,-130.5 1.5,-158.5 119.5,-158.5 119.5,-130.5 1.5,-130.5"/>
<text text-anchor="start" x="9.5" y="-147.3" font-family="Helvetica,sans-Serif" font-size="9.00">__gnu_cxx::char_traits</text>
<text text-anchor="middle" x="60.5" y="-137.3" font-family="Helvetica,sans-Serif" font-size="9.00">&lt; _CharT &gt;</text>
</a>
</g>
</g>
<!-- Node2&#45;&gt;Node1 -->
<g id="edge1" class="edge">
<title>Node2&#45;&gt;Node1</title>
<path fill="none" stroke="midnightblue" d="M60.5,-120.16C60.5,-111.17 60.5,-101.22 60.5,-93.54"/>
<polygon fill="midnightblue" stroke="midnightblue" points="57,-120.45 60.5,-130.45 64,-120.45 57,-120.45"/>
</g>
</g>
</svg>
