<?xml version="1.0" encoding="UTF-8" standalone="no"?>
<!DOCTYPE svg PUBLIC "-//W3C//DTD SVG 1.1//EN"
 "http://www.w3.org/Graphics/SVG/1.1/DTD/svg11.dtd">
<!-- Generated by graphviz version 2.50.0 (0)
 -->
<!-- Title: std::chrono::treat_as_floating_point&lt; _Rep &gt; Pages: 1 -->
<svg width="118pt" height="112pt"
 viewBox="0.00 0.00 118.00 112.00" xmlns="http://www.w3.org/2000/svg" xmlns:xlink="http://www.w3.org/1999/xlink">
<g id="graph0" class="graph" transform="scale(1 1) rotate(0) translate(4 108)">
<title>std::chrono::treat_as_floating_point&lt; _Rep &gt;</title>
<polygon fill="white" stroke="transparent" points="-4,4 -4,-108 114,-108 114,4 -4,4"/>
<!-- Node1 -->
<g id="node1" class="node">
<title>Node1</title>
<g id="a_node1"><a xlink:title="treat_as_floating_point">
<polygon fill="#bfbfbf" stroke="black" points="3,-0.5 3,-38.5 107,-38.5 107,-0.5 3,-0.5"/>
<text text-anchor="start" x="11" y="-27.3" font-family="Helvetica,sans-Serif" font-size="9.00">std::chrono::treat</text>
<text text-anchor="start" x="11" y="-17.3" font-family="Helvetica,sans-Serif" font-size="9.00">_as_floating_point&lt;</text>
<text text-anchor="middle" x="55" y="-7.3" font-family="Helvetica,sans-Serif" font-size="9.00"> _Rep &gt;</text>
</a>
</g>
</g>
<!-- Node2 -->
<g id="node2" class="node">
<title>Node2</title>
<g id="a_node2"><a xlink:href="a03814.html" target="_top" xlink:title=" ">
<polygon fill="white" stroke="black" points="0,-75.5 0,-103.5 110,-103.5 110,-75.5 0,-75.5"/>
<text text-anchor="start" x="8" y="-92.3" font-family="Helvetica,sans-Serif" font-size="9.00">std::is_floating_point</text>
<text text-anchor="middle" x="55" y="-82.3" font-family="Helvetica,sans-Serif" font-size="9.00">&lt; _Rep &gt;</text>
</a>
</g>
</g>
<!-- Node2&#45;&gt;Node1 -->
<g id="edge1" class="edge">
<title>Node2&#45;&gt;Node1</title>
<path fill="none" stroke="midnightblue" d="M55,-65.17C55,-56.52 55,-46.84 55,-38.71"/>
<polygon fill="midnightblue" stroke="midnightblue" points="51.5,-65.39 55,-75.39 58.5,-65.39 51.5,-65.39"/>
</g>
</g>
</svg>
