<?xml version="1.0" encoding="UTF-8" standalone="no"?>
<!DOCTYPE svg PUBLIC "-//W3C//DTD SVG 1.1//EN"
 "http://www.w3.org/Graphics/SVG/1.1/DTD/svg11.dtd">
<!-- Generated by graphviz version 2.50.0 (0)
 -->
<!-- Title: std::codecvt_base Pages: 1 -->
<svg width="634pt" height="364pt"
 viewBox="0.00 0.00 634.00 364.00" xmlns="http://www.w3.org/2000/svg" xmlns:xlink="http://www.w3.org/1999/xlink">
<g id="graph0" class="graph" transform="scale(1 1) rotate(0) translate(4 360)">
<title>std::codecvt_base</title>
<polygon fill="white" stroke="transparent" points="-4,4 -4,-360 630,-360 630,4 -4,4"/>
<!-- Node1 -->
<g id="node1" class="node">
<title>Node1</title>
<g id="a_node1"><a xlink:title="Empty base class for codecvt facet [22.2.1.5].">
<polygon fill="#bfbfbf" stroke="black" points="0,-194.5 0,-212.5 98,-212.5 98,-194.5 0,-194.5"/>
<text text-anchor="middle" x="49" y="-201.3" font-family="Helvetica,sans-Serif" font-size="9.00">std::codecvt_base</text>
</a>
</g>
</g>
<!-- Node2 -->
<g id="node2" class="node">
<title>Node2</title>
<g id="a_node2"><a xlink:href="a05630.html" target="_top" xlink:title=" ">
<polygon fill="white" stroke="black" points="152.5,-317.5 152.5,-355.5 276.5,-355.5 276.5,-317.5 152.5,-317.5"/>
<text text-anchor="start" x="160.5" y="-344.3" font-family="Helvetica,sans-Serif" font-size="9.00">std::__codecvt_abstract</text>
<text text-anchor="start" x="160.5" y="-334.3" font-family="Helvetica,sans-Serif" font-size="9.00">_base&lt; char16_t, char,</text>
<text text-anchor="middle" x="214.5" y="-324.3" font-family="Helvetica,sans-Serif" font-size="9.00"> mbstate_t &gt;</text>
</a>
</g>
</g>
<!-- Node1&#45;&gt;Node2 -->
<g id="edge1" class="edge">
<title>Node1&#45;&gt;Node2</title>
<path fill="none" stroke="midnightblue" d="M60.11,-221.63C73.94,-244.87 100.85,-284.97 134,-308.5 139.61,-312.48 145.84,-315.94 152.27,-318.95"/>
<polygon fill="midnightblue" stroke="midnightblue" points="63.04,-219.71 55,-212.8 56.98,-223.21 63.04,-219.71"/>
</g>
<!-- Node4 -->
<g id="node4" class="node">
<title>Node4</title>
<g id="a_node4"><a xlink:href="a05630.html" target="_top" xlink:title=" ">
<polygon fill="white" stroke="black" points="134,-270.5 134,-298.5 295,-298.5 295,-270.5 134,-270.5"/>
<text text-anchor="start" x="142" y="-287.3" font-family="Helvetica,sans-Serif" font-size="9.00">std::__codecvt_abstract</text>
<text text-anchor="middle" x="214.5" y="-277.3" font-family="Helvetica,sans-Serif" font-size="9.00">_base&lt; char, char, mbstate_t &gt;</text>
</a>
</g>
</g>
<!-- Node1&#45;&gt;Node4 -->
<g id="edge3" class="edge">
<title>Node1&#45;&gt;Node4</title>
<path fill="none" stroke="midnightblue" d="M68.86,-219.19C85.21,-232.11 109.95,-250.09 134,-261.5 141.14,-264.89 148.88,-267.88 156.64,-270.49"/>
<polygon fill="midnightblue" stroke="midnightblue" points="70.69,-216.16 60.7,-212.61 66.29,-221.61 70.69,-216.16"/>
</g>
<!-- Node6 -->
<g id="node6" class="node">
<title>Node6</title>
<g id="a_node6"><a xlink:href="a05630.html" target="_top" xlink:title=" ">
<polygon fill="white" stroke="black" points="152.5,-213.5 152.5,-251.5 276.5,-251.5 276.5,-213.5 152.5,-213.5"/>
<text text-anchor="start" x="160.5" y="-240.3" font-family="Helvetica,sans-Serif" font-size="9.00">std::__codecvt_abstract</text>
<text text-anchor="start" x="160.5" y="-230.3" font-family="Helvetica,sans-Serif" font-size="9.00">_base&lt; wchar_t, char,</text>
<text text-anchor="middle" x="214.5" y="-220.3" font-family="Helvetica,sans-Serif" font-size="9.00"> mbstate_t &gt;</text>
</a>
</g>
</g>
<!-- Node1&#45;&gt;Node6 -->
<g id="edge5" class="edge">
<title>Node1&#45;&gt;Node6</title>
<path fill="none" stroke="midnightblue" d="M108.34,-213.85C122.61,-216.38 137.91,-219.09 152.3,-221.64"/>
<polygon fill="midnightblue" stroke="midnightblue" points="108.63,-210.34 98.17,-212.04 107.41,-217.24 108.63,-210.34"/>
</g>
<!-- Node8 -->
<g id="node8" class="node">
<title>Node8</title>
<g id="a_node8"><a xlink:href="a05630.html" target="_top" xlink:title=" ">
<polygon fill="white" stroke="black" points="145,-156.5 145,-194.5 284,-194.5 284,-156.5 145,-156.5"/>
<text text-anchor="start" x="153" y="-183.3" font-family="Helvetica,sans-Serif" font-size="9.00">std::__codecvt_abstract</text>
<text text-anchor="start" x="153" y="-173.3" font-family="Helvetica,sans-Serif" font-size="9.00">_base&lt; _InternT, _ExternT,</text>
<text text-anchor="middle" x="214.5" y="-163.3" font-family="Helvetica,sans-Serif" font-size="9.00"> encoding_state &gt;</text>
</a>
</g>
</g>
<!-- Node1&#45;&gt;Node8 -->
<g id="edge7" class="edge">
<title>Node1&#45;&gt;Node8</title>
<path fill="none" stroke="midnightblue" d="M108.33,-193.51C120.14,-191.49 132.65,-189.35 144.78,-187.27"/>
<polygon fill="midnightblue" stroke="midnightblue" points="107.44,-190.11 98.17,-195.25 108.62,-197.01 107.44,-190.11"/>
</g>
<!-- Node10 -->
<g id="node10" class="node">
<title>Node10</title>
<g id="a_node10"><a xlink:href="a05630.html" target="_top" xlink:title=" ">
<polygon fill="white" stroke="black" points="152.5,-99.5 152.5,-137.5 276.5,-137.5 276.5,-99.5 152.5,-99.5"/>
<text text-anchor="start" x="160.5" y="-126.3" font-family="Helvetica,sans-Serif" font-size="9.00">std::__codecvt_abstract</text>
<text text-anchor="start" x="160.5" y="-116.3" font-family="Helvetica,sans-Serif" font-size="9.00">_base&lt; char32_t, char,</text>
<text text-anchor="middle" x="214.5" y="-106.3" font-family="Helvetica,sans-Serif" font-size="9.00"> mbstate_t &gt;</text>
</a>
</g>
</g>
<!-- Node1&#45;&gt;Node10 -->
<g id="edge9" class="edge">
<title>Node1&#45;&gt;Node10</title>
<path fill="none" stroke="midnightblue" d="M70,-188.18C86.51,-176.03 110.91,-159.19 134,-147.5 140.95,-143.98 148.42,-140.68 155.91,-137.65"/>
<polygon fill="midnightblue" stroke="midnightblue" points="67.6,-185.6 61.69,-194.39 71.79,-191.21 67.6,-185.6"/>
</g>
<!-- Node12 -->
<g id="node12" class="node">
<title>Node12</title>
<g id="a_node12"><a xlink:href="a05630.html" target="_top" xlink:title="Common base for codecvt functions.">
<polygon fill="white" stroke="black" points="145,-42.5 145,-80.5 284,-80.5 284,-42.5 145,-42.5"/>
<text text-anchor="start" x="153" y="-69.3" font-family="Helvetica,sans-Serif" font-size="9.00">std::__codecvt_abstract</text>
<text text-anchor="start" x="153" y="-59.3" font-family="Helvetica,sans-Serif" font-size="9.00">_base&lt; _InternT, _ExternT,</text>
<text text-anchor="middle" x="214.5" y="-49.3" font-family="Helvetica,sans-Serif" font-size="9.00"> _StateT &gt;</text>
</a>
</g>
</g>
<!-- Node1&#45;&gt;Node12 -->
<g id="edge11" class="edge">
<title>Node1&#45;&gt;Node12</title>
<path fill="none" stroke="midnightblue" d="M59.03,-185.47C72.27,-160.75 99.21,-116.44 134,-90.5 138.95,-86.81 144.41,-83.55 150.09,-80.68"/>
<polygon fill="midnightblue" stroke="midnightblue" points="55.86,-183.99 54.35,-194.48 62.07,-187.22 55.86,-183.99"/>
</g>
<!-- Node3 -->
<g id="node3" class="node">
<title>Node3</title>
<g id="a_node3"><a xlink:href="a05646.html" target="_top" xlink:title="Class codecvt&lt;char16_t, char, mbstate_t&gt; specialization.">
<polygon fill="white" stroke="black" points="345.5,-322.5 345.5,-350.5 461.5,-350.5 461.5,-322.5 345.5,-322.5"/>
<text text-anchor="start" x="353.5" y="-339.3" font-family="Helvetica,sans-Serif" font-size="9.00">std::codecvt&lt; char16</text>
<text text-anchor="middle" x="403.5" y="-329.3" font-family="Helvetica,sans-Serif" font-size="9.00">_t, char, mbstate_t &gt;</text>
</a>
</g>
</g>
<!-- Node2&#45;&gt;Node3 -->
<g id="edge2" class="edge">
<title>Node2&#45;&gt;Node3</title>
<path fill="none" stroke="midnightblue" d="M286.98,-336.5C306.26,-336.5 326.86,-336.5 345.25,-336.5"/>
<polygon fill="midnightblue" stroke="midnightblue" points="286.73,-333 276.73,-336.5 286.73,-340 286.73,-333"/>
</g>
<!-- Node5 -->
<g id="node5" class="node">
<title>Node5</title>
<g id="a_node5"><a xlink:href="a05638.html" target="_top" xlink:title="class codecvt&lt;char, char, mbstate_t&gt; specialization.">
<polygon fill="white" stroke="black" points="350,-270.5 350,-298.5 457,-298.5 457,-270.5 350,-270.5"/>
<text text-anchor="start" x="358" y="-287.3" font-family="Helvetica,sans-Serif" font-size="9.00">std::codecvt&lt; char,</text>
<text text-anchor="middle" x="403.5" y="-277.3" font-family="Helvetica,sans-Serif" font-size="9.00"> char, mbstate_t &gt;</text>
</a>
</g>
</g>
<!-- Node4&#45;&gt;Node5 -->
<g id="edge4" class="edge">
<title>Node4&#45;&gt;Node5</title>
<path fill="none" stroke="midnightblue" d="M305.1,-284.5C320.41,-284.5 335.85,-284.5 349.79,-284.5"/>
<polygon fill="midnightblue" stroke="midnightblue" points="305.08,-281 295.08,-284.5 305.08,-288 305.08,-281"/>
</g>
<!-- Node7 -->
<g id="node7" class="node">
<title>Node7</title>
<g id="a_node7"><a xlink:href="a05642.html" target="_top" xlink:title="Class codecvt&lt;wchar_t, char, mbstate_t&gt; specialization.">
<polygon fill="white" stroke="black" points="347,-218.5 347,-246.5 460,-246.5 460,-218.5 347,-218.5"/>
<text text-anchor="start" x="355" y="-235.3" font-family="Helvetica,sans-Serif" font-size="9.00">std::codecvt&lt; wchar</text>
<text text-anchor="middle" x="403.5" y="-225.3" font-family="Helvetica,sans-Serif" font-size="9.00">_t, char, mbstate_t &gt;</text>
</a>
</g>
</g>
<!-- Node6&#45;&gt;Node7 -->
<g id="edge6" class="edge">
<title>Node6&#45;&gt;Node7</title>
<path fill="none" stroke="midnightblue" d="M286.96,-232.5C306.79,-232.5 328.03,-232.5 346.82,-232.5"/>
<polygon fill="midnightblue" stroke="midnightblue" points="286.73,-229 276.73,-232.5 286.73,-236 286.73,-229"/>
</g>
<!-- Node9 -->
<g id="node9" class="node">
<title>Node9</title>
<g id="a_node9"><a xlink:href="a12034.html" target="_top" xlink:title="codecvt&lt;InternT, _ExternT, encoding_state&gt; specialization.">
<polygon fill="white" stroke="black" points="331,-161.5 331,-189.5 476,-189.5 476,-161.5 331,-161.5"/>
<text text-anchor="start" x="339" y="-178.3" font-family="Helvetica,sans-Serif" font-size="9.00">std::codecvt&lt; _InternT,</text>
<text text-anchor="middle" x="403.5" y="-168.3" font-family="Helvetica,sans-Serif" font-size="9.00"> _ExternT, encoding_state &gt;</text>
</a>
</g>
</g>
<!-- Node8&#45;&gt;Node9 -->
<g id="edge8" class="edge">
<title>Node8&#45;&gt;Node9</title>
<path fill="none" stroke="midnightblue" d="M294.18,-175.5C306.32,-175.5 318.81,-175.5 330.8,-175.5"/>
<polygon fill="midnightblue" stroke="midnightblue" points="294.07,-172 284.07,-175.5 294.07,-179 294.07,-172"/>
</g>
<!-- Node11 -->
<g id="node11" class="node">
<title>Node11</title>
<g id="a_node11"><a xlink:href="a05650.html" target="_top" xlink:title="Class codecvt&lt;char32_t, char, mbstate_t&gt; specialization.">
<polygon fill="white" stroke="black" points="345.5,-104.5 345.5,-132.5 461.5,-132.5 461.5,-104.5 345.5,-104.5"/>
<text text-anchor="start" x="353.5" y="-121.3" font-family="Helvetica,sans-Serif" font-size="9.00">std::codecvt&lt; char32</text>
<text text-anchor="middle" x="403.5" y="-111.3" font-family="Helvetica,sans-Serif" font-size="9.00">_t, char, mbstate_t &gt;</text>
</a>
</g>
</g>
<!-- Node10&#45;&gt;Node11 -->
<g id="edge10" class="edge">
<title>Node10&#45;&gt;Node11</title>
<path fill="none" stroke="midnightblue" d="M286.98,-118.5C306.26,-118.5 326.86,-118.5 345.25,-118.5"/>
<polygon fill="midnightblue" stroke="midnightblue" points="286.73,-115 276.73,-118.5 286.73,-122 286.73,-115"/>
</g>
<!-- Node13 -->
<g id="node13" class="node">
<title>Node13</title>
<g id="a_node13"><a xlink:href="a05634.html" target="_top" xlink:title=" ">
<polygon fill="white" stroke="black" points="347,-52.5 347,-80.5 460,-80.5 460,-52.5 347,-52.5"/>
<text text-anchor="start" x="355" y="-69.3" font-family="Helvetica,sans-Serif" font-size="9.00">std::codecvt&lt; _Elem,</text>
<text text-anchor="middle" x="403.5" y="-59.3" font-family="Helvetica,sans-Serif" font-size="9.00"> char, mbstate_t &gt;</text>
</a>
</g>
</g>
<!-- Node12&#45;&gt;Node13 -->
<g id="edge12" class="edge">
<title>Node12&#45;&gt;Node13</title>
<path fill="none" stroke="midnightblue" d="M294.35,-63.61C311.98,-64.08 330.33,-64.57 346.79,-65.01"/>
<polygon fill="midnightblue" stroke="midnightblue" points="294.16,-60.1 284.07,-63.33 293.97,-67.1 294.16,-60.1"/>
</g>
<!-- Node14 -->
<g id="node14" class="node">
<title>Node14</title>
<g id="a_node14"><a xlink:href="a05634.html" target="_top" xlink:title="Primary class template codecvt.">
<polygon fill="white" stroke="black" points="341.5,-5.5 341.5,-33.5 465.5,-33.5 465.5,-5.5 341.5,-5.5"/>
<text text-anchor="start" x="349.5" y="-22.3" font-family="Helvetica,sans-Serif" font-size="9.00">std::codecvt&lt; _InternT,</text>
<text text-anchor="middle" x="403.5" y="-12.3" font-family="Helvetica,sans-Serif" font-size="9.00"> _ExternT, _StateT &gt;</text>
</a>
</g>
</g>
<!-- Node12&#45;&gt;Node14 -->
<g id="edge13" class="edge">
<title>Node12&#45;&gt;Node14</title>
<path fill="none" stroke="midnightblue" d="M293.86,-43.9C309.72,-40.34 326.19,-36.64 341.36,-33.23"/>
<polygon fill="midnightblue" stroke="midnightblue" points="293.06,-40.49 284.07,-46.1 294.59,-47.32 293.06,-40.49"/>
</g>
<!-- Node15 -->
<g id="node15" class="node">
<title>Node15</title>
<g id="a_node15"><a xlink:href="a05654.html" target="_top" xlink:title="class codecvt_byname [22.2.1.6].">
<polygon fill="white" stroke="black" points="512,-0.5 512,-38.5 626,-38.5 626,-0.5 512,-0.5"/>
<text text-anchor="start" x="520" y="-27.3" font-family="Helvetica,sans-Serif" font-size="9.00">std::codecvt_byname</text>
<text text-anchor="start" x="520" y="-17.3" font-family="Helvetica,sans-Serif" font-size="9.00">&lt; _InternT, _ExternT,</text>
<text text-anchor="middle" x="569" y="-7.3" font-family="Helvetica,sans-Serif" font-size="9.00"> _StateT &gt;</text>
</a>
</g>
</g>
<!-- Node14&#45;&gt;Node15 -->
<g id="edge14" class="edge">
<title>Node14&#45;&gt;Node15</title>
<path fill="none" stroke="midnightblue" d="M475.9,-19.5C487.97,-19.5 500.36,-19.5 511.97,-19.5"/>
<polygon fill="midnightblue" stroke="midnightblue" points="475.85,-16 465.85,-19.5 475.85,-23 475.85,-16"/>
</g>
</g>
</svg>
