<?xml version="1.0" encoding="UTF-8" standalone="no"?>
<!DOCTYPE svg PUBLIC "-//W3C//DTD SVG 1.1//EN"
 "http://www.w3.org/Graphics/SVG/1.1/DTD/svg11.dtd">
<!-- Generated by graphviz version 2.50.0 (0)
 -->
<!-- Title: std::__codecvt_abstract_base&lt; _InternT, _ExternT, _StateT &gt; Pages: 1 -->
<svg width="591pt" height="89pt"
 viewBox="0.00 0.00 591.00 89.00" xmlns="http://www.w3.org/2000/svg" xmlns:xlink="http://www.w3.org/1999/xlink">
<g id="graph0" class="graph" transform="scale(1 1) rotate(0) translate(4 85)">
<title>std::__codecvt_abstract_base&lt; _InternT, _ExternT, _StateT &gt;</title>
<polygon fill="white" stroke="transparent" points="-4,4 -4,-85 587,-85 587,4 -4,4"/>
<!-- Node1 -->
<g id="node1" class="node">
<title>Node1</title>
<g id="a_node1"><a xlink:title="Common base for codecvt functions.">
<polygon fill="#bfbfbf" stroke="black" points="134,-23.5 134,-61.5 273,-61.5 273,-23.5 134,-23.5"/>
<text text-anchor="start" x="142" y="-50.3" font-family="Helvetica,sans-Serif" font-size="9.00">std::__codecvt_abstract</text>
<text text-anchor="start" x="142" y="-40.3" font-family="Helvetica,sans-Serif" font-size="9.00">_base&lt; _InternT, _ExternT,</text>
<text text-anchor="middle" x="203.5" y="-30.3" font-family="Helvetica,sans-Serif" font-size="9.00"> _StateT &gt;</text>
</a>
</g>
</g>
<!-- Node4 -->
<g id="node4" class="node">
<title>Node4</title>
<g id="a_node4"><a xlink:href="a05634.html" target="_top" xlink:title=" ">
<polygon fill="white" stroke="black" points="314.5,-52.5 314.5,-80.5 427.5,-80.5 427.5,-52.5 314.5,-52.5"/>
<text text-anchor="start" x="322.5" y="-69.3" font-family="Helvetica,sans-Serif" font-size="9.00">std::codecvt&lt; _Elem,</text>
<text text-anchor="middle" x="371" y="-59.3" font-family="Helvetica,sans-Serif" font-size="9.00"> char, mbstate_t &gt;</text>
</a>
</g>
</g>
<!-- Node1&#45;&gt;Node4 -->
<g id="edge3" class="edge">
<title>Node1&#45;&gt;Node4</title>
<path fill="none" stroke="midnightblue" d="M283.26,-53.92C293.74,-55.44 304.32,-56.98 314.3,-58.42"/>
<polygon fill="midnightblue" stroke="midnightblue" points="283.65,-50.44 273.25,-52.47 282.64,-57.37 283.65,-50.44"/>
</g>
<!-- Node5 -->
<g id="node5" class="node">
<title>Node5</title>
<g id="a_node5"><a xlink:href="a05634.html" target="_top" xlink:title="Primary class template codecvt.">
<polygon fill="white" stroke="black" points="309,-5.5 309,-33.5 433,-33.5 433,-5.5 309,-5.5"/>
<text text-anchor="start" x="317" y="-22.3" font-family="Helvetica,sans-Serif" font-size="9.00">std::codecvt&lt; _InternT,</text>
<text text-anchor="middle" x="371" y="-12.3" font-family="Helvetica,sans-Serif" font-size="9.00"> _ExternT, _StateT &gt;</text>
</a>
</g>
</g>
<!-- Node1&#45;&gt;Node5 -->
<g id="edge4" class="edge">
<title>Node1&#45;&gt;Node5</title>
<path fill="none" stroke="midnightblue" d="M283.29,-31.55C291.88,-30.36 300.53,-29.16 308.86,-28"/>
<polygon fill="midnightblue" stroke="midnightblue" points="282.67,-28.1 273.25,-32.95 283.64,-35.04 282.67,-28.1"/>
</g>
<!-- Node2 -->
<g id="node2" class="node">
<title>Node2</title>
<g id="a_node2"><a xlink:href="a06294.html" target="_top" xlink:title="Localization functionality base class.">
<polygon fill="white" stroke="black" points="3.5,-52.5 3.5,-70.5 94.5,-70.5 94.5,-52.5 3.5,-52.5"/>
<text text-anchor="middle" x="49" y="-59.3" font-family="Helvetica,sans-Serif" font-size="9.00">std::locale::facet</text>
</a>
</g>
</g>
<!-- Node2&#45;&gt;Node1 -->
<g id="edge1" class="edge">
<title>Node2&#45;&gt;Node1</title>
<path fill="none" stroke="midnightblue" d="M104.58,-54.7C114.06,-53.52 124.02,-52.28 133.82,-51.06"/>
<polygon fill="midnightblue" stroke="midnightblue" points="104.01,-51.24 94.52,-55.95 104.88,-58.19 104.01,-51.24"/>
</g>
<!-- Node3 -->
<g id="node3" class="node">
<title>Node3</title>
<g id="a_node3"><a xlink:href="a05626.html" target="_top" xlink:title="Empty base class for codecvt facet [22.2.1.5].">
<polygon fill="white" stroke="black" points="0,-15.5 0,-33.5 98,-33.5 98,-15.5 0,-15.5"/>
<text text-anchor="middle" x="49" y="-22.3" font-family="Helvetica,sans-Serif" font-size="9.00">std::codecvt_base</text>
</a>
</g>
</g>
<!-- Node3&#45;&gt;Node1 -->
<g id="edge2" class="edge">
<title>Node3&#45;&gt;Node1</title>
<path fill="none" stroke="midnightblue" d="M108.3,-31.38C116.69,-32.37 125.38,-33.4 133.95,-34.41"/>
<polygon fill="midnightblue" stroke="midnightblue" points="108.59,-27.89 98.25,-30.2 107.77,-34.84 108.59,-27.89"/>
</g>
<!-- Node6 -->
<g id="node6" class="node">
<title>Node6</title>
<g id="a_node6"><a xlink:href="a05654.html" target="_top" xlink:title="class codecvt_byname [22.2.1.6].">
<polygon fill="white" stroke="black" points="469,-0.5 469,-38.5 583,-38.5 583,-0.5 469,-0.5"/>
<text text-anchor="start" x="477" y="-27.3" font-family="Helvetica,sans-Serif" font-size="9.00">std::codecvt_byname</text>
<text text-anchor="start" x="477" y="-17.3" font-family="Helvetica,sans-Serif" font-size="9.00">&lt; _InternT, _ExternT,</text>
<text text-anchor="middle" x="526" y="-7.3" font-family="Helvetica,sans-Serif" font-size="9.00"> _StateT &gt;</text>
</a>
</g>
</g>
<!-- Node5&#45;&gt;Node6 -->
<g id="edge5" class="edge">
<title>Node5&#45;&gt;Node6</title>
<path fill="none" stroke="midnightblue" d="M443.54,-19.5C451.94,-19.5 460.43,-19.5 468.59,-19.5"/>
<polygon fill="midnightblue" stroke="midnightblue" points="443.35,-16 433.35,-19.5 443.35,-23 443.35,-16"/>
</g>
</g>
</svg>
