<?xml version="1.0" encoding="UTF-8" standalone="no"?>
<!DOCTYPE svg PUBLIC "-//W3C//DTD SVG 1.1//EN"
 "http://www.w3.org/Graphics/SVG/1.1/DTD/svg11.dtd">
<!-- Generated by graphviz version 2.50.0 (0)
 -->
<!-- Title: std::codecvt&lt; char16_t, char, mbstate_t &gt; Pages: 1 -->
<svg width="216pt" height="167pt"
 viewBox="0.00 0.00 215.50 167.00" xmlns="http://www.w3.org/2000/svg" xmlns:xlink="http://www.w3.org/1999/xlink">
<g id="graph0" class="graph" transform="scale(1 1) rotate(0) translate(4 163)">
<title>std::codecvt&lt; char16_t, char, mbstate_t &gt;</title>
<polygon fill="white" stroke="transparent" points="-4,4 -4,-163 211.5,-163 211.5,4 -4,4"/>
<!-- Node1 -->
<g id="node1" class="node">
<title>Node1</title>
<g id="a_node1"><a xlink:title="Class codecvt&lt;char16_t, char, mbstate_t&gt; specialization.">
<polygon fill="#bfbfbf" stroke="black" points="43.5,-0.5 43.5,-28.5 159.5,-28.5 159.5,-0.5 43.5,-0.5"/>
<text text-anchor="start" x="51.5" y="-17.3" font-family="Helvetica,sans-Serif" font-size="9.00">std::codecvt&lt; char16</text>
<text text-anchor="middle" x="101.5" y="-7.3" font-family="Helvetica,sans-Serif" font-size="9.00">_t, char, mbstate_t &gt;</text>
</a>
</g>
</g>
<!-- Node2 -->
<g id="node2" class="node">
<title>Node2</title>
<g id="a_node2"><a xlink:href="a05630.html" target="_top" xlink:title=" ">
<polygon fill="white" stroke="black" points="39.5,-65.5 39.5,-103.5 163.5,-103.5 163.5,-65.5 39.5,-65.5"/>
<text text-anchor="start" x="47.5" y="-92.3" font-family="Helvetica,sans-Serif" font-size="9.00">std::__codecvt_abstract</text>
<text text-anchor="start" x="47.5" y="-82.3" font-family="Helvetica,sans-Serif" font-size="9.00">_base&lt; char16_t, char,</text>
<text text-anchor="middle" x="101.5" y="-72.3" font-family="Helvetica,sans-Serif" font-size="9.00"> mbstate_t &gt;</text>
</a>
</g>
</g>
<!-- Node2&#45;&gt;Node1 -->
<g id="edge1" class="edge">
<title>Node2&#45;&gt;Node1</title>
<path fill="none" stroke="midnightblue" d="M101.5,-55.01C101.5,-45.92 101.5,-36.29 101.5,-28.81"/>
<polygon fill="midnightblue" stroke="midnightblue" points="98,-55.28 101.5,-65.28 105,-55.28 98,-55.28"/>
</g>
<!-- Node3 -->
<g id="node3" class="node">
<title>Node3</title>
<g id="a_node3"><a xlink:href="a06294.html" target="_top" xlink:title="Localization functionality base class.">
<polygon fill="white" stroke="black" points="0,-140.5 0,-158.5 91,-158.5 91,-140.5 0,-140.5"/>
<text text-anchor="middle" x="45.5" y="-147.3" font-family="Helvetica,sans-Serif" font-size="9.00">std::locale::facet</text>
</a>
</g>
</g>
<!-- Node3&#45;&gt;Node2 -->
<g id="edge2" class="edge">
<title>Node3&#45;&gt;Node2</title>
<path fill="none" stroke="midnightblue" d="M59.64,-132.59C67.5,-123.75 77.31,-112.71 85.45,-103.55"/>
<polygon fill="midnightblue" stroke="midnightblue" points="56.85,-130.46 52.82,-140.26 62.08,-135.12 56.85,-130.46"/>
</g>
<!-- Node4 -->
<g id="node4" class="node">
<title>Node4</title>
<g id="a_node4"><a xlink:href="a05626.html" target="_top" xlink:title="Empty base class for codecvt facet [22.2.1.5].">
<polygon fill="white" stroke="black" points="109.5,-140.5 109.5,-158.5 207.5,-158.5 207.5,-140.5 109.5,-140.5"/>
<text text-anchor="middle" x="158.5" y="-147.3" font-family="Helvetica,sans-Serif" font-size="9.00">std::codecvt_base</text>
</a>
</g>
</g>
<!-- Node4&#45;&gt;Node2 -->
<g id="edge3" class="edge">
<title>Node4&#45;&gt;Node2</title>
<path fill="none" stroke="midnightblue" d="M144.11,-132.59C136.11,-123.75 126.12,-112.71 117.83,-103.55"/>
<polygon fill="midnightblue" stroke="midnightblue" points="141.74,-135.2 151.05,-140.26 146.93,-130.5 141.74,-135.2"/>
</g>
</g>
</svg>
