<?xml version="1.0" encoding="UTF-8" standalone="no"?>
<!DOCTYPE svg PUBLIC "-//W3C//DTD SVG 1.1//EN"
 "http://www.w3.org/Graphics/SVG/1.1/DTD/svg11.dtd">
<!-- Generated by graphviz version 2.50.0 (0)
 -->
<!-- Title: std::exception Pages: 1 -->
<!--zoomable 672 -->
<svg id="main" version="1.1" xmlns="http://www.w3.org/2000/svg" xmlns:xlink="http://www.w3.org/1999/xlink" xml:space="preserve" onload="init(evt)">
<style type="text/css"><![CDATA[
.edge:hover path { stroke: red; }
.edge:hover polygon { stroke: red; fill: red; }
]]></style>
<script type="text/javascript"><![CDATA[
var edges = document.getElementsByTagName('g');
if (edges && edges.length) {
  for (var i=0;i<edges.length;i++) {
    if (edges[i].id.substr(0,4)=='edge') {
      edges[i].setAttribute('class','edge');
    }
  }
}
]]></script>
        <defs>
                <circle id="rim" cx="0" cy="0" r="7"/>
                <circle id="rim2" cx="0" cy="0" r="3.5"/>
                <g id="zoomPlus">
                        <use xlink:href="#rim" fill="#404040">
                                <set attributeName="fill" to="#808080" begin="zoomplus.mouseover" end="zoomplus.mouseout"/>
                        </use>
                        <path d="M-4,0h8M0,-4v8" fill="none" stroke="white" stroke-width="1.5" pointer-events="none"/>
                </g>
                <g id="zoomMin">
                        <use xlink:href="#rim" fill="#404040">
                                <set attributeName="fill" to="#808080" begin="zoomminus.mouseover" end="zoomminus.mouseout"/>
                        </use>
                        <path d="M-4,0h8" fill="none" stroke="white" stroke-width="1.5" pointer-events="none"/>
                </g>
                <g id="dirArrow">
                        <path fill="none" stroke="white" stroke-width="1.5" d="M0,-3.0v7 M-2.5,-0.5L0,-3.0L2.5,-0.5"/>
                </g>
               <g id="resetDef">
                       <use xlink:href="#rim2" fill="#404040">
                               <set attributeName="fill" to="#808080" begin="reset.mouseover" end="reset.mouseout"/>
                       </use>
               </g>
        </defs>

<script type="text/javascript">
var viewWidth = 600;
var viewHeight = 672;
var sectionId = 'dynsection-0';
</script>
<script xlink:href="svgpan.js"/>
<svg id="graph" class="graph">
<g id="viewport">
<title>std::exception</title>
<polygon fill="white" stroke="transparent" points="-4,4 -4,-668 596,-668 596,4 -4,4"/>
<!-- Node1 -->
<g id="node1" class="node">
<title>Node1</title>
<g id="a_node1"><a xlink:title="Base class for all library exceptions.">
<polygon fill="#bfbfbf" stroke="black" points="0,-431.5 0,-449.5 80,-449.5 80,-431.5 0,-431.5"/>
<text text-anchor="middle" x="40" y="-438.3" font-family="Helvetica,sans-Serif" font-size="9.00">std::exception</text>
</a>
</g>
</g>
<!-- Node2 -->
<g id="node2" class="node">
<title>Node2</title>
<g id="a_node2"><a xlink:href="a12390.html" target="_top" xlink:title="Thrown by utilities for testing exception safety.">
<polygon fill="white" stroke="black" points="118.5,-645.5 118.5,-663.5 242.5,-663.5 242.5,-645.5 118.5,-645.5"/>
<text text-anchor="middle" x="180.5" y="-652.3" font-family="Helvetica,sans-Serif" font-size="9.00">__gnu_cxx::forced_error</text>
</a>
</g>
</g>
<!-- Node1&#45;&gt;Node2 -->
<g id="edge1" class="edge">
<title>Node1&#45;&gt;Node2</title>
<path fill="none" stroke="midnightblue" d="M42.77,-460C47.39,-499.31 63.39,-588.39 116,-636.5 119.97,-640.13 124.63,-643.04 129.58,-645.36"/>
<polygon fill="midnightblue" stroke="midnightblue" points="46.23,-459.48 41.71,-449.9 39.27,-460.21 46.23,-459.48"/>
</g>
<!-- Node3 -->
<g id="node3" class="node">
<title>Node3</title>
<g id="a_node3"><a xlink:href="a01870.html" target="_top" xlink:title="Exception thrown by __cxa_guard_acquire.">
<polygon fill="white" stroke="black" points="125,-598.5 125,-626.5 236,-626.5 236,-598.5 125,-598.5"/>
<text text-anchor="start" x="133" y="-615.3" font-family="Helvetica,sans-Serif" font-size="9.00">__gnu_cxx::recursive</text>
<text text-anchor="middle" x="180.5" y="-605.3" font-family="Helvetica,sans-Serif" font-size="9.00">_init_error</text>
</a>
</g>
</g>
<!-- Node1&#45;&gt;Node3 -->
<g id="edge2" class="edge">
<title>Node1&#45;&gt;Node3</title>
<path fill="none" stroke="midnightblue" d="M45.7,-459.74C54.35,-491.19 75.69,-553.71 116,-589.5 119.86,-592.92 124.27,-595.85 128.92,-598.35"/>
<polygon fill="midnightblue" stroke="midnightblue" points="48.98,-458.46 43.08,-449.66 42.21,-460.22 48.98,-458.46"/>
</g>
<!-- Node4 -->
<g id="node4" class="node">
<title>Node4</title>
<g id="a_node4"><a xlink:href="a01882.html" target="_top" xlink:title="Exception possibly thrown by new.">
<polygon fill="white" stroke="black" points="141,-561.5 141,-579.5 220,-579.5 220,-561.5 141,-561.5"/>
<text text-anchor="middle" x="180.5" y="-568.3" font-family="Helvetica,sans-Serif" font-size="9.00">std::bad_alloc</text>
</a>
</g>
</g>
<!-- Node1&#45;&gt;Node4 -->
<g id="edge3" class="edge">
<title>Node1&#45;&gt;Node4</title>
<path fill="none" stroke="midnightblue" d="M48.49,-459.06C59.53,-484.05 82.54,-528.18 116,-552.5 123.32,-557.82 132.17,-561.57 140.91,-564.22"/>
<polygon fill="midnightblue" stroke="midnightblue" points="51.62,-457.48 44.5,-449.64 45.18,-460.21 51.62,-457.48"/>
</g>
<!-- Node5 -->
<g id="node5" class="node">
<title>Node5</title>
<g id="a_node5"><a xlink:href="a01902.html" target="_top" xlink:title="Thrown during incorrect typecasting.">
<polygon fill="white" stroke="black" points="142,-524.5 142,-542.5 219,-542.5 219,-524.5 142,-524.5"/>
<text text-anchor="middle" x="180.5" y="-531.3" font-family="Helvetica,sans-Serif" font-size="9.00">std::bad_cast</text>
</a>
</g>
</g>
<!-- Node1&#45;&gt;Node5 -->
<g id="edge4" class="edge">
<title>Node1&#45;&gt;Node5</title>
<path fill="none" stroke="midnightblue" d="M53.77,-457.64C67.38,-474.71 90.44,-500.5 116,-515.5 123.91,-520.14 133.07,-523.64 141.94,-526.26"/>
<polygon fill="midnightblue" stroke="midnightblue" points="56.44,-455.37 47.56,-449.6 50.91,-459.65 56.44,-455.37"/>
</g>
<!-- Node8 -->
<g id="node8" class="node">
<title>Node8</title>
<g id="a_node8"><a xlink:href="a01874.html" target="_top" xlink:title=" ">
<polygon fill="white" stroke="black" points="129.5,-487.5 129.5,-505.5 231.5,-505.5 231.5,-487.5 129.5,-487.5"/>
<text text-anchor="middle" x="180.5" y="-494.3" font-family="Helvetica,sans-Serif" font-size="9.00">std::bad_exception</text>
</a>
</g>
</g>
<!-- Node1&#45;&gt;Node8 -->
<g id="edge7" class="edge">
<title>Node1&#45;&gt;Node8</title>
<path fill="none" stroke="midnightblue" d="M65.46,-454.4C79.86,-462.2 98.6,-471.7 116,-478.5 124.54,-481.84 133.94,-484.85 142.83,-487.41"/>
<polygon fill="midnightblue" stroke="midnightblue" points="67.13,-451.33 56.68,-449.57 63.75,-457.46 67.13,-451.33"/>
</g>
<!-- Node9 -->
<g id="node9" class="node">
<title>Node9</title>
<g id="a_node9"><a xlink:href="a07926.html" target="_top" xlink:title="Exception class thrown when class template function&#39;s operator() is called with an empty target.">
<polygon fill="white" stroke="black" points="122.5,-450.5 122.5,-468.5 238.5,-468.5 238.5,-450.5 122.5,-450.5"/>
<text text-anchor="middle" x="180.5" y="-457.3" font-family="Helvetica,sans-Serif" font-size="9.00">std::bad_function_call</text>
</a>
</g>
</g>
<!-- Node1&#45;&gt;Node9 -->
<g id="edge8" class="edge">
<title>Node1&#45;&gt;Node9</title>
<path fill="none" stroke="midnightblue" d="M90.39,-447.27C100.71,-448.69 111.67,-450.19 122.25,-451.65"/>
<polygon fill="midnightblue" stroke="midnightblue" points="90.7,-443.79 80.32,-445.89 89.75,-450.72 90.7,-443.79"/>
</g>
<!-- Node10 -->
<g id="node10" class="node">
<title>Node10</title>
<g id="a_node10"><a xlink:href="a02962.html" target="_top" xlink:title="Exception class thrown when a disengaged optional object is dereferenced.">
<polygon fill="white" stroke="black" points="116,-413.5 116,-431.5 245,-431.5 245,-413.5 116,-413.5"/>
<text text-anchor="middle" x="180.5" y="-420.3" font-family="Helvetica,sans-Serif" font-size="9.00">std::bad_optional_access</text>
</a>
</g>
</g>
<!-- Node1&#45;&gt;Node10 -->
<g id="edge9" class="edge">
<title>Node1&#45;&gt;Node10</title>
<path fill="none" stroke="midnightblue" d="M90.24,-434.1C98.58,-433.02 107.34,-431.88 115.98,-430.76"/>
<polygon fill="midnightblue" stroke="midnightblue" points="89.78,-430.63 80.32,-435.39 90.69,-437.57 89.78,-430.63"/>
</g>
<!-- Node11 -->
<g id="node11" class="node">
<title>Node11</title>
<g id="a_node11"><a xlink:href="a01906.html" target="_top" xlink:title="Thrown when a NULL pointer in a typeid expression is used.">
<polygon fill="white" stroke="black" points="137,-376.5 137,-394.5 224,-394.5 224,-376.5 137,-376.5"/>
<text text-anchor="middle" x="180.5" y="-383.3" font-family="Helvetica,sans-Serif" font-size="9.00">std::bad_typeid</text>
</a>
</g>
</g>
<!-- Node1&#45;&gt;Node11 -->
<g id="edge10" class="edge">
<title>Node1&#45;&gt;Node11</title>
<path fill="none" stroke="midnightblue" d="M67.11,-426.72C81.32,-419.54 99.36,-410.94 116,-404.5 125.44,-400.85 135.9,-397.46 145.55,-394.59"/>
<polygon fill="midnightblue" stroke="midnightblue" points="65.24,-423.75 57.94,-431.42 68.43,-429.98 65.24,-423.75"/>
</g>
<!-- Node12 -->
<g id="node12" class="node">
<title>Node12</title>
<g id="a_node12"><a xlink:href="a07718.html" target="_top" xlink:title="Exception possibly thrown by shared_ptr.">
<polygon fill="white" stroke="black" points="130.5,-339.5 130.5,-357.5 230.5,-357.5 230.5,-339.5 130.5,-339.5"/>
<text text-anchor="middle" x="180.5" y="-346.3" font-family="Helvetica,sans-Serif" font-size="9.00">std::bad_weak_ptr</text>
</a>
</g>
</g>
<!-- Node1&#45;&gt;Node12 -->
<g id="edge11" class="edge">
<title>Node1&#45;&gt;Node12</title>
<path fill="none" stroke="midnightblue" d="M54.13,-423.65C67.88,-407.09 90.92,-382.24 116,-367.5 122.94,-363.42 130.84,-360.15 138.64,-357.55"/>
<polygon fill="midnightblue" stroke="midnightblue" points="51.39,-421.47 47.83,-431.45 56.84,-425.87 51.39,-421.47"/>
</g>
<!-- Node13 -->
<g id="node13" class="node">
<title>Node13</title>
<g id="a_node13"><a xlink:href="a06138.html" target="_top" xlink:title="These are thrown to indicate problems with io.">
<polygon fill="white" stroke="black" points="126.5,-302.5 126.5,-320.5 234.5,-320.5 234.5,-302.5 126.5,-302.5"/>
<text text-anchor="middle" x="180.5" y="-309.3" font-family="Helvetica,sans-Serif" font-size="9.00">std::ios_base::failure</text>
</a>
</g>
</g>
<!-- Node1&#45;&gt;Node13 -->
<g id="edge12" class="edge">
<title>Node1&#45;&gt;Node13</title>
<path fill="none" stroke="midnightblue" d="M48.8,-421.97C60.06,-397.44 83.19,-354.5 116,-330.5 121.67,-326.36 128.24,-323.11 134.96,-320.56"/>
<polygon fill="midnightblue" stroke="midnightblue" points="45.54,-420.69 44.71,-431.25 51.95,-423.51 45.54,-420.69"/>
</g>
<!-- Node14 -->
<g id="node14" class="node">
<title>Node14</title>
<g id="a_node14"><a xlink:href="a03450.html" target="_top" xlink:title="One of two subclasses of exception.">
<polygon fill="white" stroke="black" points="138.5,-265.5 138.5,-283.5 222.5,-283.5 222.5,-265.5 138.5,-265.5"/>
<text text-anchor="middle" x="180.5" y="-272.3" font-family="Helvetica,sans-Serif" font-size="9.00">std::logic_error</text>
</a>
</g>
</g>
<!-- Node1&#45;&gt;Node14 -->
<g id="edge13" class="edge">
<title>Node1&#45;&gt;Node14</title>
<path fill="none" stroke="midnightblue" d="M45.56,-421.26C53.99,-389.85 75.04,-327.65 116,-293.5 122.45,-288.12 130.39,-284.27 138.44,-281.5"/>
<polygon fill="midnightblue" stroke="midnightblue" points="42.07,-420.78 43,-431.33 48.85,-422.5 42.07,-420.78"/>
</g>
<!-- Node25 -->
<g id="node25" class="node">
<title>Node25</title>
<g id="a_node25"><a xlink:href="a03470.html" target="_top" xlink:title="One of two subclasses of exception.">
<polygon fill="white" stroke="black" points="131,-93.5 131,-111.5 230,-111.5 230,-93.5 131,-93.5"/>
<text text-anchor="middle" x="180.5" y="-100.3" font-family="Helvetica,sans-Serif" font-size="9.00">std::runtime_error</text>
</a>
</g>
</g>
<!-- Node1&#45;&gt;Node25 -->
<g id="edge24" class="edge">
<title>Node1&#45;&gt;Node25</title>
<path fill="none" stroke="midnightblue" d="M48.54,-421.94C62.02,-388.74 91.2,-316.98 116,-256.5 138.6,-201.38 165.95,-135.25 175.77,-111.52"/>
<polygon fill="midnightblue" stroke="midnightblue" points="45.25,-420.72 44.73,-431.3 51.74,-423.36 45.25,-420.72"/>
</g>
<!-- Node6 -->
<g id="node6" class="node">
<title>Node6</title>
<g id="a_node6"><a xlink:href="a01910.html" target="_top" xlink:title="Exception class thrown by a failed any_cast.">
<polygon fill="white" stroke="black" points="291.5,-551.5 291.5,-569.5 389.5,-569.5 389.5,-551.5 291.5,-551.5"/>
<text text-anchor="middle" x="340.5" y="-558.3" font-family="Helvetica,sans-Serif" font-size="9.00">std::bad_any_cast</text>
</a>
</g>
</g>
<!-- Node5&#45;&gt;Node6 -->
<g id="edge5" class="edge">
<title>Node5&#45;&gt;Node6</title>
<path fill="none" stroke="midnightblue" d="M229.33,-541.67C249.01,-545.04 271.77,-548.93 291.47,-552.29"/>
<polygon fill="midnightblue" stroke="midnightblue" points="229.79,-538.2 219.34,-539.97 228.61,-545.1 229.79,-538.2"/>
</g>
<!-- Node7 -->
<g id="node7" class="node">
<title>Node7</title>
<g id="a_node7"><a xlink:href="a11730.html" target="_top" xlink:title="Exception class thrown by a failed any_cast.">
<polygon fill="white" stroke="black" points="281.5,-494.5 281.5,-532.5 399.5,-532.5 399.5,-494.5 281.5,-494.5"/>
<text text-anchor="start" x="289.5" y="-521.3" font-family="Helvetica,sans-Serif" font-size="9.00">std::experimental::</text>
<text text-anchor="start" x="289.5" y="-511.3" font-family="Helvetica,sans-Serif" font-size="9.00">fundamentals_v1::bad</text>
<text text-anchor="middle" x="340.5" y="-501.3" font-family="Helvetica,sans-Serif" font-size="9.00">_any_cast</text>
</a>
</g>
</g>
<!-- Node5&#45;&gt;Node7 -->
<g id="edge6" class="edge">
<title>Node5&#45;&gt;Node7</title>
<path fill="none" stroke="midnightblue" d="M229.71,-527.4C245.98,-525.34 264.32,-523.02 281.28,-520.87"/>
<polygon fill="midnightblue" stroke="midnightblue" points="228.83,-523.98 219.34,-528.71 229.71,-530.93 228.83,-523.98"/>
</g>
<!-- Node15 -->
<g id="node15" class="node">
<title>Node15</title>
<g id="a_node15"><a xlink:href="a12842.html" target="_top" xlink:title="Base class for exceptions.">
<polygon fill="white" stroke="black" points="281,-427.5 281,-455.5 400,-455.5 400,-427.5 281,-427.5"/>
<text text-anchor="start" x="289" y="-444.3" font-family="Helvetica,sans-Serif" font-size="9.00">__gnu_pbds::container</text>
<text text-anchor="middle" x="340.5" y="-434.3" font-family="Helvetica,sans-Serif" font-size="9.00">_error</text>
</a>
</g>
</g>
<!-- Node14&#45;&gt;Node15 -->
<g id="edge14" class="edge">
<title>Node14&#45;&gt;Node15</title>
<path fill="none" stroke="midnightblue" d="M232.16,-284.33C236.9,-286.75 241.3,-289.76 245,-293.5 285.67,-334.59 242.09,-375.74 281,-418.5 284.16,-421.97 287.91,-424.92 291.96,-427.44"/>
<polygon fill="midnightblue" stroke="midnightblue" points="233.31,-281.02 222.74,-280.36 230.6,-287.47 233.31,-281.02"/>
</g>
<!-- Node19 -->
<g id="node19" class="node">
<title>Node19</title>
<g id="a_node19"><a xlink:href="a03454.html" target="_top" xlink:title=" ">
<polygon fill="white" stroke="black" points="292,-390.5 292,-408.5 389,-408.5 389,-390.5 292,-390.5"/>
<text text-anchor="middle" x="340.5" y="-397.3" font-family="Helvetica,sans-Serif" font-size="9.00">std::domain_error</text>
</a>
</g>
</g>
<!-- Node14&#45;&gt;Node19 -->
<g id="edge18" class="edge">
<title>Node14&#45;&gt;Node19</title>
<path fill="none" stroke="midnightblue" d="M231.96,-284.84C236.7,-287.17 241.16,-290.01 245,-293.5 276.3,-321.89 249.81,-352.99 281,-381.5 285,-385.16 289.73,-388.07 294.74,-390.39"/>
<polygon fill="midnightblue" stroke="midnightblue" points="233.16,-281.55 222.59,-280.98 230.5,-288.03 233.16,-281.55"/>
</g>
<!-- Node20 -->
<g id="node20" class="node">
<title>Node20</title>
<g id="a_node20"><a xlink:href="a11834.html" target="_top" xlink:title="Exception class thrown when a disengaged optional object is dereferenced.">
<polygon fill="white" stroke="black" points="281.5,-333.5 281.5,-371.5 399.5,-371.5 399.5,-333.5 281.5,-333.5"/>
<text text-anchor="start" x="289.5" y="-360.3" font-family="Helvetica,sans-Serif" font-size="9.00">std::experimental::</text>
<text text-anchor="start" x="289.5" y="-350.3" font-family="Helvetica,sans-Serif" font-size="9.00">fundamentals_v1::bad</text>
<text text-anchor="middle" x="340.5" y="-340.3" font-family="Helvetica,sans-Serif" font-size="9.00">_optional_access</text>
</a>
</g>
</g>
<!-- Node14&#45;&gt;Node20 -->
<g id="edge19" class="edge">
<title>Node14&#45;&gt;Node20</title>
<path fill="none" stroke="midnightblue" d="M230.72,-286.94C235.66,-288.86 240.51,-291.04 245,-293.5 263.52,-303.64 263.32,-312.95 281,-324.5 285.81,-327.64 291.02,-330.64 296.29,-333.43"/>
<polygon fill="midnightblue" stroke="midnightblue" points="231.75,-283.6 221.16,-283.56 229.42,-290.2 231.75,-283.6"/>
</g>
<!-- Node21 -->
<g id="node21" class="node">
<title>Node21</title>
<g id="a_node21"><a xlink:href="a02526.html" target="_top" xlink:title="Exception type thrown by futures.">
<polygon fill="white" stroke="black" points="295,-296.5 295,-314.5 386,-314.5 386,-296.5 295,-296.5"/>
<text text-anchor="middle" x="340.5" y="-303.3" font-family="Helvetica,sans-Serif" font-size="9.00">std::future_error</text>
</a>
</g>
</g>
<!-- Node14&#45;&gt;Node21 -->
<g id="edge20" class="edge">
<title>Node14&#45;&gt;Node21</title>
<path fill="none" stroke="midnightblue" d="M232.49,-284.5C252.53,-288.44 275.33,-292.91 294.72,-296.71"/>
<polygon fill="midnightblue" stroke="midnightblue" points="233.09,-281.05 222.6,-282.56 231.74,-287.92 233.09,-281.05"/>
</g>
<!-- Node22 -->
<g id="node22" class="node">
<title>Node22</title>
<g id="a_node22"><a xlink:href="a03458.html" target="_top" xlink:title=" ">
<polygon fill="white" stroke="black" points="282.5,-259.5 282.5,-277.5 398.5,-277.5 398.5,-259.5 282.5,-259.5"/>
<text text-anchor="middle" x="340.5" y="-266.3" font-family="Helvetica,sans-Serif" font-size="9.00">std::invalid_argument</text>
</a>
</g>
</g>
<!-- Node14&#45;&gt;Node22 -->
<g id="edge21" class="edge">
<title>Node14&#45;&gt;Node22</title>
<path fill="none" stroke="midnightblue" d="M232.72,-272.56C248.53,-271.95 266.05,-271.29 282.25,-270.67"/>
<polygon fill="midnightblue" stroke="midnightblue" points="232.46,-269.06 222.6,-272.94 232.73,-276.06 232.46,-269.06"/>
</g>
<!-- Node23 -->
<g id="node23" class="node">
<title>Node23</title>
<g id="a_node23"><a xlink:href="a03462.html" target="_top" xlink:title=" ">
<polygon fill="white" stroke="black" points="294.5,-222.5 294.5,-240.5 386.5,-240.5 386.5,-222.5 294.5,-222.5"/>
<text text-anchor="middle" x="340.5" y="-229.3" font-family="Helvetica,sans-Serif" font-size="9.00">std::length_error</text>
</a>
</g>
</g>
<!-- Node14&#45;&gt;Node23 -->
<g id="edge22" class="edge">
<title>Node14&#45;&gt;Node23</title>
<path fill="none" stroke="midnightblue" d="M224.52,-262.79C250.32,-255.77 282.63,-246.98 306.42,-240.5"/>
<polygon fill="midnightblue" stroke="midnightblue" points="223.35,-259.48 214.62,-265.49 225.19,-266.24 223.35,-259.48"/>
</g>
<!-- Node24 -->
<g id="node24" class="node">
<title>Node24</title>
<g id="a_node24"><a xlink:href="a03466.html" target="_top" xlink:title=" ">
<polygon fill="white" stroke="black" points="293,-185.5 293,-203.5 388,-203.5 388,-185.5 293,-185.5"/>
<text text-anchor="middle" x="340.5" y="-192.3" font-family="Helvetica,sans-Serif" font-size="9.00">std::out_of_range</text>
</a>
</g>
</g>
<!-- Node14&#45;&gt;Node24 -->
<g id="edge23" class="edge">
<title>Node14&#45;&gt;Node24</title>
<path fill="none" stroke="midnightblue" d="M202.6,-259.52C222.2,-246.12 252.57,-226.61 281,-213.5 289.24,-209.7 298.46,-206.33 307.1,-203.52"/>
<polygon fill="midnightblue" stroke="midnightblue" points="200.37,-256.81 194.15,-265.39 204.36,-262.56 200.37,-256.81"/>
</g>
<!-- Node16 -->
<g id="node16" class="node">
<title>Node16</title>
<g id="a_node16"><a xlink:href="a12846.html" target="_top" xlink:title="An entry cannot be inserted into a container object for logical reasons (not, e.g....">
<polygon fill="white" stroke="black" points="463,-469.5 463,-497.5 565,-497.5 565,-469.5 463,-469.5"/>
<text text-anchor="start" x="471" y="-486.3" font-family="Helvetica,sans-Serif" font-size="9.00">__gnu_pbds::insert</text>
<text text-anchor="middle" x="514" y="-476.3" font-family="Helvetica,sans-Serif" font-size="9.00">_error</text>
</a>
</g>
</g>
<!-- Node15&#45;&gt;Node16 -->
<g id="edge15" class="edge">
<title>Node15&#45;&gt;Node16</title>
<path fill="none" stroke="midnightblue" d="M408.91,-458.01C426.85,-462.4 445.91,-467.07 462.75,-471.19"/>
<polygon fill="midnightblue" stroke="midnightblue" points="409.63,-454.58 399.08,-455.6 407.96,-461.38 409.63,-454.58"/>
</g>
<!-- Node17 -->
<g id="node17" class="node">
<title>Node17</title>
<g id="a_node17"><a xlink:href="a12850.html" target="_top" xlink:title="A join cannot be performed logical reasons (i.e., the ranges of the two container objects being joine...">
<polygon fill="white" stroke="black" points="454.5,-432.5 454.5,-450.5 573.5,-450.5 573.5,-432.5 454.5,-432.5"/>
<text text-anchor="middle" x="514" y="-439.3" font-family="Helvetica,sans-Serif" font-size="9.00">__gnu_pbds::join_error</text>
</a>
</g>
</g>
<!-- Node15&#45;&gt;Node17 -->
<g id="edge16" class="edge">
<title>Node15&#45;&gt;Node17</title>
<path fill="none" stroke="midnightblue" d="M410.08,-441.5C424.77,-441.5 440.16,-441.5 454.43,-441.5"/>
<polygon fill="midnightblue" stroke="midnightblue" points="410.04,-438 400.04,-441.5 410.04,-445 410.04,-438"/>
</g>
<!-- Node18 -->
<g id="node18" class="node">
<title>Node18</title>
<g id="a_node18"><a xlink:href="a12854.html" target="_top" xlink:title="A container cannot be resized.">
<polygon fill="white" stroke="black" points="463,-385.5 463,-413.5 565,-413.5 565,-385.5 463,-385.5"/>
<text text-anchor="start" x="471" y="-402.3" font-family="Helvetica,sans-Serif" font-size="9.00">__gnu_pbds::resize</text>
<text text-anchor="middle" x="514" y="-392.3" font-family="Helvetica,sans-Serif" font-size="9.00">_error</text>
</a>
</g>
</g>
<!-- Node15&#45;&gt;Node18 -->
<g id="edge17" class="edge">
<title>Node15&#45;&gt;Node18</title>
<path fill="none" stroke="midnightblue" d="M408.91,-424.99C426.85,-420.6 445.91,-415.93 462.75,-411.81"/>
<polygon fill="midnightblue" stroke="midnightblue" points="407.96,-421.62 399.08,-427.4 409.63,-428.42 407.96,-421.62"/>
</g>
<!-- Node26 -->
<g id="node26" class="node">
<title>Node26</title>
<g id="a_node26"><a xlink:href="a03478.html" target="_top" xlink:title=" ">
<polygon fill="white" stroke="black" points="290,-148.5 290,-166.5 391,-166.5 391,-148.5 290,-148.5"/>
<text text-anchor="middle" x="340.5" y="-155.3" font-family="Helvetica,sans-Serif" font-size="9.00">std::overflow_error</text>
</a>
</g>
</g>
<!-- Node25&#45;&gt;Node26 -->
<g id="edge25" class="edge">
<title>Node25&#45;&gt;Node26</title>
<path fill="none" stroke="midnightblue" d="M214.23,-115.21C233.56,-122.58 258.56,-131.88 281,-139.5 290.06,-142.57 299.97,-145.71 309.03,-148.49"/>
<polygon fill="midnightblue" stroke="midnightblue" points="215.28,-111.86 204.69,-111.55 212.77,-118.4 215.28,-111.86"/>
</g>
<!-- Node27 -->
<g id="node27" class="node">
<title>Node27</title>
<g id="a_node27"><a xlink:href="a03474.html" target="_top" xlink:title=" ">
<polygon fill="white" stroke="black" points="296,-111.5 296,-129.5 385,-129.5 385,-111.5 296,-111.5"/>
<text text-anchor="middle" x="340.5" y="-118.3" font-family="Helvetica,sans-Serif" font-size="9.00">std::range_error</text>
</a>
</g>
</g>
<!-- Node25&#45;&gt;Node27 -->
<g id="edge26" class="edge">
<title>Node25&#45;&gt;Node27</title>
<path fill="none" stroke="midnightblue" d="M240.23,-109.19C258.64,-111.29 278.62,-113.56 295.79,-115.52"/>
<polygon fill="midnightblue" stroke="midnightblue" points="240.53,-105.7 230.19,-108.05 239.73,-112.66 240.53,-105.7"/>
</g>
<!-- Node28 -->
<g id="node28" class="node">
<title>Node28</title>
<g id="a_node28"><a xlink:href="a07622.html" target="_top" xlink:title="A regular expression exception class.">
<polygon fill="white" stroke="black" points="296,-74.5 296,-92.5 385,-92.5 385,-74.5 296,-74.5"/>
<text text-anchor="middle" x="340.5" y="-81.3" font-family="Helvetica,sans-Serif" font-size="9.00">std::regex_error</text>
</a>
</g>
</g>
<!-- Node25&#45;&gt;Node28 -->
<g id="edge27" class="edge">
<title>Node25&#45;&gt;Node28</title>
<path fill="none" stroke="midnightblue" d="M240.23,-95.44C258.64,-93.22 278.62,-90.82 295.79,-88.76"/>
<polygon fill="midnightblue" stroke="midnightblue" points="239.71,-91.98 230.19,-96.64 240.54,-98.93 239.71,-91.98"/>
</g>
<!-- Node29 -->
<g id="node29" class="node">
<title>Node29</title>
<g id="a_node29"><a xlink:href="a03582.html" target="_top" xlink:title="An exception type that includes an error_code value.">
<polygon fill="white" stroke="black" points="293,-37.5 293,-55.5 388,-55.5 388,-37.5 293,-37.5"/>
<text text-anchor="middle" x="340.5" y="-44.3" font-family="Helvetica,sans-Serif" font-size="9.00">std::system_error</text>
</a>
</g>
</g>
<!-- Node25&#45;&gt;Node29 -->
<g id="edge28" class="edge">
<title>Node25&#45;&gt;Node29</title>
<path fill="none" stroke="midnightblue" d="M214.66,-89.77C233.95,-82.47 258.77,-73.24 281,-65.5 290.68,-62.13 301.33,-58.61 310.86,-55.54"/>
<polygon fill="midnightblue" stroke="midnightblue" points="213.23,-86.57 205.12,-93.4 215.71,-93.12 213.23,-86.57"/>
</g>
<!-- Node32 -->
<g id="node32" class="node">
<title>Node32</title>
<g id="a_node32"><a xlink:href="a03482.html" target="_top" xlink:title=" ">
<polygon fill="white" stroke="black" points="286.5,-0.5 286.5,-18.5 394.5,-18.5 394.5,-0.5 286.5,-0.5"/>
<text text-anchor="middle" x="340.5" y="-7.3" font-family="Helvetica,sans-Serif" font-size="9.00">std::underflow_error</text>
</a>
</g>
</g>
<!-- Node25&#45;&gt;Node32 -->
<g id="edge31" class="edge">
<title>Node25&#45;&gt;Node32</title>
<path fill="none" stroke="midnightblue" d="M198.65,-86.58C217.55,-69.8 249.45,-43.61 281,-27.5 287.91,-23.97 295.63,-20.99 303.15,-18.53"/>
<polygon fill="midnightblue" stroke="midnightblue" points="196.24,-84.05 191.17,-93.35 200.93,-89.24 196.24,-84.05"/>
</g>
<!-- Node30 -->
<g id="node30" class="node">
<title>Node30</title>
<g id="a_node30"><a xlink:href="a10574.html" target="_top" xlink:title="Exception type thrown by the Filesystem TS library.">
<polygon fill="white" stroke="black" points="436,-55.5 436,-83.5 592,-83.5 592,-55.5 436,-55.5"/>
<text text-anchor="start" x="444" y="-72.3" font-family="Helvetica,sans-Serif" font-size="9.00">std::experimental::</text>
<text text-anchor="middle" x="514" y="-62.3" font-family="Helvetica,sans-Serif" font-size="9.00">filesystem::v1::filesystem_error</text>
</a>
</g>
</g>
<!-- Node29&#45;&gt;Node30 -->
<g id="edge29" class="edge">
<title>Node29&#45;&gt;Node30</title>
<path fill="none" stroke="midnightblue" d="M398.61,-54.16C410.54,-55.76 423.32,-57.47 435.84,-59.15"/>
<polygon fill="midnightblue" stroke="midnightblue" points="398.74,-50.65 388.36,-52.78 397.81,-57.58 398.74,-50.65"/>
</g>
<!-- Node31 -->
<g id="node31" class="node">
<title>Node31</title>
<g id="a_node31"><a xlink:href="a05994.html" target="_top" xlink:title="Exception type thrown by the Filesystem library.">
<polygon fill="white" stroke="black" points="447.5,-8.5 447.5,-36.5 580.5,-36.5 580.5,-8.5 447.5,-8.5"/>
<text text-anchor="start" x="455.5" y="-25.3" font-family="Helvetica,sans-Serif" font-size="9.00">std::filesystem::filesystem</text>
<text text-anchor="middle" x="514" y="-15.3" font-family="Helvetica,sans-Serif" font-size="9.00">_error</text>
</a>
</g>
</g>
<!-- Node29&#45;&gt;Node31 -->
<g id="edge30" class="edge">
<title>Node29&#45;&gt;Node31</title>
<path fill="none" stroke="midnightblue" d="M398.41,-38.54C414.05,-36.35 431.14,-33.96 447.23,-31.7"/>
<polygon fill="midnightblue" stroke="midnightblue" points="397.78,-35.09 388.36,-39.94 398.75,-42.02 397.78,-35.09"/>
</g>
</g>
</svg>
        <g id="navigator" transform="translate(0 0)" fill="#404254">
                <rect fill="#f2f5e9" fill-opacity="0.5" stroke="#606060" stroke-width=".5" x="0" y="0" width="60" height="60"/>
                <use id="zoomplus" xlink:href="#zoomPlus" x="17" y="9" onmousedown="handleZoom(evt,'in')"/>
                <use id="zoomminus" xlink:href="#zoomMin" x="42" y="9" onmousedown="handleZoom(evt,'out')"/>
                <use id="reset" xlink:href="#resetDef" x="30" y="36" onmousedown="handleReset()"/>
                <g id="arrowUp" xlink:href="#dirArrow" transform="translate(30 24)" onmousedown="handlePan(0,-1)">
                  <use xlink:href="#rim" fill="#404040">
                        <set attributeName="fill" to="#808080" begin="arrowUp.mouseover" end="arrowUp.mouseout"/>
                  </use>
                  <path fill="none" stroke="white" stroke-width="1.5" d="M0,-3.0v7 M-2.5,-0.5L0,-3.0L2.5,-0.5"/>
                </g>
                <g id="arrowRight" xlink:href="#dirArrow" transform="rotate(90) translate(36 -43)" onmousedown="handlePan(1,0)">
                  <use xlink:href="#rim" fill="#404040">
                        <set attributeName="fill" to="#808080" begin="arrowRight.mouseover" end="arrowRight.mouseout"/>
                  </use>
                  <path fill="none" stroke="white" stroke-width="1.5" d="M0,-3.0v7 M-2.5,-0.5L0,-3.0L2.5,-0.5"/>
                </g>
                <g id="arrowDown" xlink:href="#dirArrow" transform="rotate(180) translate(-30 -48)" onmousedown="handlePan(0,1)">
                  <use xlink:href="#rim" fill="#404040">
                        <set attributeName="fill" to="#808080" begin="arrowDown.mouseover" end="arrowDown.mouseout"/>
                  </use>
                  <path fill="none" stroke="white" stroke-width="1.5" d="M0,-3.0v7 M-2.5,-0.5L0,-3.0L2.5,-0.5"/>
                </g>
                <g id="arrowLeft" xlink:href="#dirArrow" transform="rotate(270) translate(-36 17)" onmousedown="handlePan(-1,0)">
                  <use xlink:href="#rim" fill="#404040">
                        <set attributeName="fill" to="#808080" begin="arrowLeft.mouseover" end="arrowLeft.mouseout"/>
                  </use>
                  <path fill="none" stroke="white" stroke-width="1.5" d="M0,-3.0v7 M-2.5,-0.5L0,-3.0L2.5,-0.5"/>
                </g>
        </g>
        <svg viewBox="0 0 15 15" width="100%" height="30px" preserveAspectRatio="xMaxYMin meet">
         <g id="arrow_out" transform="scale(0.3 0.3)">
          <a xlink:href="a05921_org.svg" target="_base">
           <rect id="button" ry="5" rx="5" y="6" x="6" height="38" width="38"
                fill="#f2f5e9" fill-opacity="0.5" stroke="#606060" stroke-width="1.0"/>
           <path id="arrow"
             d="M 11.500037,31.436501 C 11.940474,20.09759 22.043105,11.32322 32.158766,21.979434 L 37.068811,17.246167 C 37.068811,17.246167 37.088388,32 37.088388,32 L 22.160133,31.978069 C 22.160133,31.978069 26.997745,27.140456 26.997745,27.140456 C 18.528582,18.264221 13.291696,25.230495 11.500037,31.436501 z"
             style="fill:#404040;"/>
          </a>
         </g>
        </svg>
</svg>
