<?xml version="1.0" encoding="UTF-8" standalone="no"?>
<!DOCTYPE svg PUBLIC "-//W3C//DTD SVG 1.1//EN"
 "http://www.w3.org/Graphics/SVG/1.1/DTD/svg11.dtd">
<!-- Generated by graphviz version 2.50.0 (0)
 -->
<!-- Title: std::locale::facet Pages: 1 -->
<svg width="627pt" height="893pt"
 viewBox="0.00 0.00 627.00 893.00" xmlns="http://www.w3.org/2000/svg" xmlns:xlink="http://www.w3.org/1999/xlink">
<g id="graph0" class="graph" transform="scale(1 1) rotate(0) translate(4 889)">
<title>std::locale::facet</title>
<polygon fill="white" stroke="transparent" points="-4,4 -4,-889 623,-889 623,4 -4,4"/>
<!-- Node1 -->
<g id="node1" class="node">
<title>Node1</title>
<g id="a_node1"><a xlink:title="Localization functionality base class.">
<polygon fill="#bfbfbf" stroke="black" points="0,-403.5 0,-421.5 91,-421.5 91,-403.5 0,-403.5"/>
<text text-anchor="middle" x="45.5" y="-410.3" font-family="Helvetica,sans-Serif" font-size="9.00">std::locale::facet</text>
</a>
</g>
</g>
<!-- Node2 -->
<g id="node2" class="node">
<title>Node2</title>
<g id="a_node2"><a xlink:href="a05630.html" target="_top" xlink:title=" ">
<polygon fill="white" stroke="black" points="145.5,-846.5 145.5,-884.5 269.5,-884.5 269.5,-846.5 145.5,-846.5"/>
<text text-anchor="start" x="153.5" y="-873.3" font-family="Helvetica,sans-Serif" font-size="9.00">std::__codecvt_abstract</text>
<text text-anchor="start" x="153.5" y="-863.3" font-family="Helvetica,sans-Serif" font-size="9.00">_base&lt; char16_t, char,</text>
<text text-anchor="middle" x="207.5" y="-853.3" font-family="Helvetica,sans-Serif" font-size="9.00"> mbstate_t &gt;</text>
</a>
</g>
</g>
<!-- Node1&#45;&gt;Node2 -->
<g id="edge1" class="edge">
<title>Node1&#45;&gt;Node2</title>
<path fill="none" stroke="midnightblue" d="M47.65,-431.89C52.46,-506.63 73.24,-774.91 127,-837.5 132.05,-843.38 138.42,-848.03 145.34,-851.7"/>
<polygon fill="midnightblue" stroke="midnightblue" points="51.13,-431.39 47.01,-421.62 44.14,-431.82 51.13,-431.39"/>
</g>
<!-- Node4 -->
<g id="node4" class="node">
<title>Node4</title>
<g id="a_node4"><a xlink:href="a05630.html" target="_top" xlink:title=" ">
<polygon fill="white" stroke="black" points="127,-799.5 127,-827.5 288,-827.5 288,-799.5 127,-799.5"/>
<text text-anchor="start" x="135" y="-816.3" font-family="Helvetica,sans-Serif" font-size="9.00">std::__codecvt_abstract</text>
<text text-anchor="middle" x="207.5" y="-806.3" font-family="Helvetica,sans-Serif" font-size="9.00">_base&lt; char, char, mbstate_t &gt;</text>
</a>
</g>
</g>
<!-- Node1&#45;&gt;Node4 -->
<g id="edge3" class="edge">
<title>Node1&#45;&gt;Node4</title>
<path fill="none" stroke="midnightblue" d="M48.05,-432.03C53.96,-501.75 77.31,-737.1 127,-790.5 130.23,-793.97 133.95,-796.93 137.98,-799.45"/>
<polygon fill="midnightblue" stroke="midnightblue" points="51.5,-431.34 47.2,-421.66 44.53,-431.91 51.5,-431.34"/>
</g>
<!-- Node6 -->
<g id="node6" class="node">
<title>Node6</title>
<g id="a_node6"><a xlink:href="a05630.html" target="_top" xlink:title=" ">
<polygon fill="white" stroke="black" points="145.5,-742.5 145.5,-780.5 269.5,-780.5 269.5,-742.5 145.5,-742.5"/>
<text text-anchor="start" x="153.5" y="-769.3" font-family="Helvetica,sans-Serif" font-size="9.00">std::__codecvt_abstract</text>
<text text-anchor="start" x="153.5" y="-759.3" font-family="Helvetica,sans-Serif" font-size="9.00">_base&lt; wchar_t, char,</text>
<text text-anchor="middle" x="207.5" y="-749.3" font-family="Helvetica,sans-Serif" font-size="9.00"> mbstate_t &gt;</text>
</a>
</g>
</g>
<!-- Node1&#45;&gt;Node6 -->
<g id="edge5" class="edge">
<title>Node1&#45;&gt;Node6</title>
<path fill="none" stroke="midnightblue" d="M48.93,-431.77C57.12,-493.97 85.56,-688.02 127,-733.5 132.12,-739.12 138.45,-743.62 145.27,-747.21"/>
<polygon fill="midnightblue" stroke="midnightblue" points="52.39,-431.22 47.63,-421.75 45.44,-432.12 52.39,-431.22"/>
</g>
<!-- Node8 -->
<g id="node8" class="node">
<title>Node8</title>
<g id="a_node8"><a xlink:href="a05630.html" target="_top" xlink:title=" ">
<polygon fill="white" stroke="black" points="138,-685.5 138,-723.5 277,-723.5 277,-685.5 138,-685.5"/>
<text text-anchor="start" x="146" y="-712.3" font-family="Helvetica,sans-Serif" font-size="9.00">std::__codecvt_abstract</text>
<text text-anchor="start" x="146" y="-702.3" font-family="Helvetica,sans-Serif" font-size="9.00">_base&lt; _InternT, _ExternT,</text>
<text text-anchor="middle" x="207.5" y="-692.3" font-family="Helvetica,sans-Serif" font-size="9.00"> encoding_state &gt;</text>
</a>
</g>
</g>
<!-- Node1&#45;&gt;Node8 -->
<g id="edge7" class="edge">
<title>Node1&#45;&gt;Node8</title>
<path fill="none" stroke="midnightblue" d="M46.74,-431.9C48.39,-479.98 59.32,-605.86 127,-676.5 130.24,-679.88 133.91,-682.85 137.86,-685.47"/>
<polygon fill="midnightblue" stroke="midnightblue" points="50.23,-431.58 46.49,-421.67 43.24,-431.75 50.23,-431.58"/>
</g>
<!-- Node10 -->
<g id="node10" class="node">
<title>Node10</title>
<g id="a_node10"><a xlink:href="a05630.html" target="_top" xlink:title=" ">
<polygon fill="white" stroke="black" points="145.5,-628.5 145.5,-666.5 269.5,-666.5 269.5,-628.5 145.5,-628.5"/>
<text text-anchor="start" x="153.5" y="-655.3" font-family="Helvetica,sans-Serif" font-size="9.00">std::__codecvt_abstract</text>
<text text-anchor="start" x="153.5" y="-645.3" font-family="Helvetica,sans-Serif" font-size="9.00">_base&lt; char32_t, char,</text>
<text text-anchor="middle" x="207.5" y="-635.3" font-family="Helvetica,sans-Serif" font-size="9.00"> mbstate_t &gt;</text>
</a>
</g>
</g>
<!-- Node1&#45;&gt;Node10 -->
<g id="edge9" class="edge">
<title>Node1&#45;&gt;Node10</title>
<path fill="none" stroke="midnightblue" d="M48.66,-431.99C54.17,-472.55 72.42,-566.66 127,-619.5 132.26,-624.59 138.49,-628.76 145.12,-632.17"/>
<polygon fill="midnightblue" stroke="midnightblue" points="52.1,-431.33 47.4,-421.84 45.16,-432.19 52.1,-431.33"/>
</g>
<!-- Node12 -->
<g id="node12" class="node">
<title>Node12</title>
<g id="a_node12"><a xlink:href="a06330.html" target="_top" xlink:title=" ">
<polygon fill="white" stroke="black" points="151,-581.5 151,-609.5 264,-609.5 264,-581.5 151,-581.5"/>
<text text-anchor="start" x="159" y="-598.3" font-family="Helvetica,sans-Serif" font-size="9.00">std::__ctype_abstract</text>
<text text-anchor="middle" x="207.5" y="-588.3" font-family="Helvetica,sans-Serif" font-size="9.00">_base&lt; wchar_t &gt;</text>
</a>
</g>
</g>
<!-- Node1&#45;&gt;Node12 -->
<g id="edge11" class="edge">
<title>Node1&#45;&gt;Node12</title>
<path fill="none" stroke="midnightblue" d="M50.79,-431.62C59.32,-465.22 81.65,-534.84 127,-572.5 133.96,-578.28 142.31,-582.61 150.95,-585.86"/>
<polygon fill="midnightblue" stroke="midnightblue" points="54.15,-430.61 48.41,-421.71 47.34,-432.25 54.15,-430.61"/>
</g>
<!-- Node14 -->
<g id="node14" class="node">
<title>Node14</title>
<g id="a_node14"><a xlink:href="a05630.html" target="_top" xlink:title="Common base for codecvt functions.">
<polygon fill="white" stroke="black" points="138,-524.5 138,-562.5 277,-562.5 277,-524.5 138,-524.5"/>
<text text-anchor="start" x="146" y="-551.3" font-family="Helvetica,sans-Serif" font-size="9.00">std::__codecvt_abstract</text>
<text text-anchor="start" x="146" y="-541.3" font-family="Helvetica,sans-Serif" font-size="9.00">_base&lt; _InternT, _ExternT,</text>
<text text-anchor="middle" x="207.5" y="-531.3" font-family="Helvetica,sans-Serif" font-size="9.00"> _StateT &gt;</text>
</a>
</g>
</g>
<!-- Node1&#45;&gt;Node14 -->
<g id="edge13" class="edge">
<title>Node1&#45;&gt;Node14</title>
<path fill="none" stroke="midnightblue" d="M56.26,-430.6C69.46,-453.45 95.05,-492.54 127,-515.5 131.63,-518.83 136.7,-521.8 141.96,-524.43"/>
<polygon fill="midnightblue" stroke="midnightblue" points="59.18,-428.64 51.24,-421.63 53.07,-432.06 59.18,-428.64"/>
</g>
<!-- Node18 -->
<g id="node18" class="node">
<title>Node18</title>
<g id="a_node18"><a xlink:href="a06330.html" target="_top" xlink:title="Common base for ctype facet.">
<polygon fill="white" stroke="black" points="151,-477.5 151,-505.5 264,-505.5 264,-477.5 151,-477.5"/>
<text text-anchor="start" x="159" y="-494.3" font-family="Helvetica,sans-Serif" font-size="9.00">std::__ctype_abstract</text>
<text text-anchor="middle" x="207.5" y="-484.3" font-family="Helvetica,sans-Serif" font-size="9.00">_base&lt; _CharT &gt;</text>
</a>
</g>
</g>
<!-- Node1&#45;&gt;Node18 -->
<g id="edge17" class="edge">
<title>Node1&#45;&gt;Node18</title>
<path fill="none" stroke="midnightblue" d="M65.09,-428.08C80.74,-440.52 104.18,-457.62 127,-468.5 134.52,-472.09 142.72,-475.23 150.89,-477.94"/>
<polygon fill="midnightblue" stroke="midnightblue" points="67.22,-425.3 57.25,-421.71 62.81,-430.73 67.22,-425.3"/>
</g>
<!-- Node21 -->
<g id="node21" class="node">
<title>Node21</title>
<g id="a_node21"><a xlink:href="a06306.html" target="_top" xlink:title="Facet for localized string comparison.">
<polygon fill="white" stroke="black" points="148.5,-440.5 148.5,-458.5 266.5,-458.5 266.5,-440.5 148.5,-440.5"/>
<text text-anchor="middle" x="207.5" y="-447.3" font-family="Helvetica,sans-Serif" font-size="9.00">std::collate&lt; _CharT &gt;</text>
</a>
</g>
</g>
<!-- Node1&#45;&gt;Node21 -->
<g id="edge20" class="edge">
<title>Node1&#45;&gt;Node21</title>
<path fill="none" stroke="midnightblue" d="M94.57,-423.92C105.25,-426.44 116.5,-429.07 127,-431.5 139.68,-434.43 153.52,-437.58 166.04,-440.41"/>
<polygon fill="midnightblue" stroke="midnightblue" points="95.1,-420.45 84.57,-421.56 93.49,-427.26 95.1,-420.45"/>
</g>
<!-- Node23 -->
<g id="node23" class="node">
<title>Node23</title>
<g id="a_node23"><a xlink:href="a06338.html" target="_top" xlink:title="The ctype&lt;char&gt; specialization.">
<polygon fill="white" stroke="black" points="155.5,-403.5 155.5,-421.5 259.5,-421.5 259.5,-403.5 155.5,-403.5"/>
<text text-anchor="middle" x="207.5" y="-410.3" font-family="Helvetica,sans-Serif" font-size="9.00">std::ctype&lt; char &gt;</text>
</a>
</g>
</g>
<!-- Node1&#45;&gt;Node23 -->
<g id="edge22" class="edge">
<title>Node1&#45;&gt;Node23</title>
<path fill="none" stroke="midnightblue" d="M101.17,-412.5C118.73,-412.5 138.1,-412.5 155.39,-412.5"/>
<polygon fill="midnightblue" stroke="midnightblue" points="101.07,-409 91.07,-412.5 101.07,-416 101.07,-409"/>
</g>
<!-- Node25 -->
<g id="node25" class="node">
<title>Node25</title>
<g id="a_node25"><a xlink:href="a06454.html" target="_top" xlink:title="Primary class template messages.">
<polygon fill="white" stroke="black" points="141,-366.5 141,-384.5 274,-384.5 274,-366.5 141,-366.5"/>
<text text-anchor="middle" x="207.5" y="-373.3" font-family="Helvetica,sans-Serif" font-size="9.00">std::messages&lt; _CharT &gt;</text>
</a>
</g>
</g>
<!-- Node1&#45;&gt;Node25 -->
<g id="edge24" class="edge">
<title>Node1&#45;&gt;Node25</title>
<path fill="none" stroke="midnightblue" d="M95.59,-401.15C118.68,-395.81 145.83,-389.53 167.49,-384.52"/>
<polygon fill="midnightblue" stroke="midnightblue" points="94.59,-397.79 85.64,-403.45 96.17,-404.61 94.59,-397.79"/>
</g>
<!-- Node27 -->
<g id="node27" class="node">
<title>Node27</title>
<g id="a_node27"><a xlink:href="a06442.html" target="_top" xlink:title="Primary class template money_get.">
<polygon fill="white" stroke="black" points="142,-319.5 142,-347.5 273,-347.5 273,-319.5 142,-319.5"/>
<text text-anchor="start" x="150" y="-336.3" font-family="Helvetica,sans-Serif" font-size="9.00">std::money_get&lt; _CharT,</text>
<text text-anchor="middle" x="207.5" y="-326.3" font-family="Helvetica,sans-Serif" font-size="9.00"> _InIter &gt;</text>
</a>
</g>
</g>
<!-- Node1&#45;&gt;Node27 -->
<g id="edge26" class="edge">
<title>Node1&#45;&gt;Node27</title>
<path fill="none" stroke="midnightblue" d="M65.44,-397.08C81.14,-384.93 104.46,-368.29 127,-357.5 134.8,-353.77 143.32,-350.46 151.78,-347.6"/>
<polygon fill="midnightblue" stroke="midnightblue" points="63.23,-394.36 57.55,-403.31 67.57,-399.86 63.23,-394.36"/>
</g>
<!-- Node28 -->
<g id="node28" class="node">
<title>Node28</title>
<g id="a_node28"><a xlink:href="a06446.html" target="_top" xlink:title="Primary class template money_put.">
<polygon fill="white" stroke="black" points="141.5,-272.5 141.5,-300.5 273.5,-300.5 273.5,-272.5 141.5,-272.5"/>
<text text-anchor="start" x="149.5" y="-289.3" font-family="Helvetica,sans-Serif" font-size="9.00">std::money_put&lt; _CharT,</text>
<text text-anchor="middle" x="207.5" y="-279.3" font-family="Helvetica,sans-Serif" font-size="9.00"> _OutIter &gt;</text>
</a>
</g>
</g>
<!-- Node1&#45;&gt;Node28 -->
<g id="edge27" class="edge">
<title>Node1&#45;&gt;Node28</title>
<path fill="none" stroke="midnightblue" d="M56.06,-394.11C69.04,-370.96 94.41,-331.54 127,-309.5 132.12,-306.04 137.76,-303.09 143.61,-300.58"/>
<polygon fill="midnightblue" stroke="midnightblue" points="52.82,-392.76 51.13,-403.22 58.97,-396.09 52.82,-392.76"/>
</g>
<!-- Node29 -->
<g id="node29" class="node">
<title>Node29</title>
<g id="a_node29"><a xlink:href="a06434.html" target="_top" xlink:title="Primary class template moneypunct.">
<polygon fill="white" stroke="black" points="138,-225.5 138,-253.5 277,-253.5 277,-225.5 138,-225.5"/>
<text text-anchor="start" x="146" y="-242.3" font-family="Helvetica,sans-Serif" font-size="9.00">std::moneypunct&lt; _CharT,</text>
<text text-anchor="middle" x="207.5" y="-232.3" font-family="Helvetica,sans-Serif" font-size="9.00"> _Intl &gt;</text>
</a>
</g>
</g>
<!-- Node1&#45;&gt;Node29 -->
<g id="edge28" class="edge">
<title>Node1&#45;&gt;Node29</title>
<path fill="none" stroke="midnightblue" d="M51.4,-393.69C60.67,-361.85 83.83,-297.41 127,-262.5 131.25,-259.07 135.98,-256.15 140.97,-253.66"/>
<polygon fill="midnightblue" stroke="midnightblue" points="47.98,-392.92 48.69,-403.49 54.73,-394.79 47.98,-392.92"/>
</g>
<!-- Node31 -->
<g id="node31" class="node">
<title>Node31</title>
<g id="a_node31"><a xlink:href="a06374.html" target="_top" xlink:title="Primary class template num_get.">
<polygon fill="white" stroke="black" points="146.5,-178.5 146.5,-206.5 268.5,-206.5 268.5,-178.5 146.5,-178.5"/>
<text text-anchor="start" x="154.5" y="-195.3" font-family="Helvetica,sans-Serif" font-size="9.00">std::num_get&lt; _CharT,</text>
<text text-anchor="middle" x="207.5" y="-185.3" font-family="Helvetica,sans-Serif" font-size="9.00"> _InIter &gt;</text>
</a>
</g>
</g>
<!-- Node1&#45;&gt;Node31 -->
<g id="edge30" class="edge">
<title>Node1&#45;&gt;Node31</title>
<path fill="none" stroke="midnightblue" d="M48.77,-393.44C54.46,-354.22 72.98,-264.06 127,-215.5 132.66,-210.41 139.39,-206.44 146.49,-203.35"/>
<polygon fill="midnightblue" stroke="midnightblue" points="45.28,-393.11 47.43,-403.48 52.22,-394.03 45.28,-393.11"/>
</g>
<!-- Node32 -->
<g id="node32" class="node">
<title>Node32</title>
<g id="a_node32"><a xlink:href="a06378.html" target="_top" xlink:title="Primary class template num_put.">
<polygon fill="white" stroke="black" points="146.5,-131.5 146.5,-159.5 268.5,-159.5 268.5,-131.5 146.5,-131.5"/>
<text text-anchor="start" x="154.5" y="-148.3" font-family="Helvetica,sans-Serif" font-size="9.00">std::num_put&lt; _CharT,</text>
<text text-anchor="middle" x="207.5" y="-138.3" font-family="Helvetica,sans-Serif" font-size="9.00"> _OutIter &gt;</text>
</a>
</g>
</g>
<!-- Node1&#45;&gt;Node32 -->
<g id="edge31" class="edge">
<title>Node1&#45;&gt;Node32</title>
<path fill="none" stroke="midnightblue" d="M47.04,-393.41C49.41,-347.73 61.85,-231.27 127,-168.5 132.48,-163.22 139.1,-159.13 146.16,-155.98"/>
<polygon fill="midnightblue" stroke="midnightblue" points="43.55,-393.29 46.64,-403.42 50.54,-393.57 43.55,-393.29"/>
</g>
<!-- Node33 -->
<g id="node33" class="node">
<title>Node33</title>
<g id="a_node33"><a xlink:href="a06366.html" target="_top" xlink:title="Primary class template numpunct.">
<polygon fill="white" stroke="black" points="139,-94.5 139,-112.5 276,-112.5 276,-94.5 139,-94.5"/>
<text text-anchor="middle" x="207.5" y="-101.3" font-family="Helvetica,sans-Serif" font-size="9.00">std::numpunct&lt; _CharT &gt;</text>
</a>
</g>
</g>
<!-- Node1&#45;&gt;Node33 -->
<g id="edge32" class="edge">
<title>Node1&#45;&gt;Node33</title>
<path fill="none" stroke="midnightblue" d="M49.21,-393.35C57.88,-334.81 86.73,-159.91 127,-121.5 130.79,-117.89 135.14,-114.94 139.82,-112.55"/>
<polygon fill="midnightblue" stroke="midnightblue" points="45.72,-393.03 47.75,-403.43 52.65,-394.04 45.72,-393.03"/>
</g>
<!-- Node35 -->
<g id="node35" class="node">
<title>Node35</title>
<g id="a_node35"><a xlink:href="a06406.html" target="_top" xlink:title="Primary class template time_get.">
<polygon fill="white" stroke="black" points="147,-47.5 147,-75.5 268,-75.5 268,-47.5 147,-47.5"/>
<text text-anchor="start" x="155" y="-64.3" font-family="Helvetica,sans-Serif" font-size="9.00">std::time_get&lt; _CharT,</text>
<text text-anchor="middle" x="207.5" y="-54.3" font-family="Helvetica,sans-Serif" font-size="9.00"> _InIter &gt;</text>
</a>
</g>
</g>
<!-- Node1&#45;&gt;Node35 -->
<g id="edge34" class="edge">
<title>Node1&#45;&gt;Node35</title>
<path fill="none" stroke="midnightblue" d="M48.71,-393.14C56.33,-329.75 83.42,-129.9 127,-84.5 132.57,-78.7 139.51,-74.33 146.95,-71.05"/>
<polygon fill="midnightblue" stroke="midnightblue" points="45.21,-392.98 47.52,-403.32 52.16,-393.79 45.21,-392.98"/>
</g>
<!-- Node37 -->
<g id="node37" class="node">
<title>Node37</title>
<g id="a_node37"><a xlink:href="a06414.html" target="_top" xlink:title="Primary class template time_put.">
<polygon fill="white" stroke="black" points="146.5,-0.5 146.5,-28.5 268.5,-28.5 268.5,-0.5 146.5,-0.5"/>
<text text-anchor="start" x="154.5" y="-17.3" font-family="Helvetica,sans-Serif" font-size="9.00">std::time_put&lt; _CharT,</text>
<text text-anchor="middle" x="207.5" y="-7.3" font-family="Helvetica,sans-Serif" font-size="9.00"> _OutIter &gt;</text>
</a>
</g>
</g>
<!-- Node1&#45;&gt;Node37 -->
<g id="edge36" class="edge">
<title>Node1&#45;&gt;Node37</title>
<path fill="none" stroke="midnightblue" d="M48.07,-393.13C54.06,-323.95 77.64,-90.45 127,-37.5 132.39,-31.72 139.13,-27.36 146.4,-24.08"/>
<polygon fill="midnightblue" stroke="midnightblue" points="44.56,-393.16 47.21,-403.41 51.53,-393.74 44.56,-393.16"/>
</g>
<!-- Node3 -->
<g id="node3" class="node">
<title>Node3</title>
<g id="a_node3"><a xlink:href="a05646.html" target="_top" xlink:title="Class codecvt&lt;char16_t, char, mbstate_t&gt; specialization.">
<polygon fill="white" stroke="black" points="338.5,-851.5 338.5,-879.5 454.5,-879.5 454.5,-851.5 338.5,-851.5"/>
<text text-anchor="start" x="346.5" y="-868.3" font-family="Helvetica,sans-Serif" font-size="9.00">std::codecvt&lt; char16</text>
<text text-anchor="middle" x="396.5" y="-858.3" font-family="Helvetica,sans-Serif" font-size="9.00">_t, char, mbstate_t &gt;</text>
</a>
</g>
</g>
<!-- Node2&#45;&gt;Node3 -->
<g id="edge2" class="edge">
<title>Node2&#45;&gt;Node3</title>
<path fill="none" stroke="midnightblue" d="M279.98,-865.5C299.26,-865.5 319.86,-865.5 338.25,-865.5"/>
<polygon fill="midnightblue" stroke="midnightblue" points="279.73,-862 269.73,-865.5 279.73,-869 279.73,-862"/>
</g>
<!-- Node5 -->
<g id="node5" class="node">
<title>Node5</title>
<g id="a_node5"><a xlink:href="a05638.html" target="_top" xlink:title="class codecvt&lt;char, char, mbstate_t&gt; specialization.">
<polygon fill="white" stroke="black" points="343,-799.5 343,-827.5 450,-827.5 450,-799.5 343,-799.5"/>
<text text-anchor="start" x="351" y="-816.3" font-family="Helvetica,sans-Serif" font-size="9.00">std::codecvt&lt; char,</text>
<text text-anchor="middle" x="396.5" y="-806.3" font-family="Helvetica,sans-Serif" font-size="9.00"> char, mbstate_t &gt;</text>
</a>
</g>
</g>
<!-- Node4&#45;&gt;Node5 -->
<g id="edge4" class="edge">
<title>Node4&#45;&gt;Node5</title>
<path fill="none" stroke="midnightblue" d="M298.1,-813.5C313.41,-813.5 328.85,-813.5 342.79,-813.5"/>
<polygon fill="midnightblue" stroke="midnightblue" points="298.08,-810 288.08,-813.5 298.08,-817 298.08,-810"/>
</g>
<!-- Node7 -->
<g id="node7" class="node">
<title>Node7</title>
<g id="a_node7"><a xlink:href="a05642.html" target="_top" xlink:title="Class codecvt&lt;wchar_t, char, mbstate_t&gt; specialization.">
<polygon fill="white" stroke="black" points="340,-747.5 340,-775.5 453,-775.5 453,-747.5 340,-747.5"/>
<text text-anchor="start" x="348" y="-764.3" font-family="Helvetica,sans-Serif" font-size="9.00">std::codecvt&lt; wchar</text>
<text text-anchor="middle" x="396.5" y="-754.3" font-family="Helvetica,sans-Serif" font-size="9.00">_t, char, mbstate_t &gt;</text>
</a>
</g>
</g>
<!-- Node6&#45;&gt;Node7 -->
<g id="edge6" class="edge">
<title>Node6&#45;&gt;Node7</title>
<path fill="none" stroke="midnightblue" d="M279.96,-761.5C299.79,-761.5 321.03,-761.5 339.82,-761.5"/>
<polygon fill="midnightblue" stroke="midnightblue" points="279.73,-758 269.73,-761.5 279.73,-765 279.73,-758"/>
</g>
<!-- Node9 -->
<g id="node9" class="node">
<title>Node9</title>
<g id="a_node9"><a xlink:href="a12034.html" target="_top" xlink:title="codecvt&lt;InternT, _ExternT, encoding_state&gt; specialization.">
<polygon fill="white" stroke="black" points="324,-697.5 324,-725.5 469,-725.5 469,-697.5 324,-697.5"/>
<text text-anchor="start" x="332" y="-714.3" font-family="Helvetica,sans-Serif" font-size="9.00">std::codecvt&lt; _InternT,</text>
<text text-anchor="middle" x="396.5" y="-704.3" font-family="Helvetica,sans-Serif" font-size="9.00"> _ExternT, encoding_state &gt;</text>
</a>
</g>
</g>
<!-- Node8&#45;&gt;Node9 -->
<g id="edge8" class="edge">
<title>Node8&#45;&gt;Node9</title>
<path fill="none" stroke="midnightblue" d="M287.18,-707.45C299.32,-707.9 311.81,-708.37 323.8,-708.82"/>
<polygon fill="midnightblue" stroke="midnightblue" points="287.19,-703.94 277.07,-707.07 286.93,-710.94 287.19,-703.94"/>
</g>
<!-- Node11 -->
<g id="node11" class="node">
<title>Node11</title>
<g id="a_node11"><a xlink:href="a05650.html" target="_top" xlink:title="Class codecvt&lt;char32_t, char, mbstate_t&gt; specialization.">
<polygon fill="white" stroke="black" points="338.5,-650.5 338.5,-678.5 454.5,-678.5 454.5,-650.5 338.5,-650.5"/>
<text text-anchor="start" x="346.5" y="-667.3" font-family="Helvetica,sans-Serif" font-size="9.00">std::codecvt&lt; char32</text>
<text text-anchor="middle" x="396.5" y="-657.3" font-family="Helvetica,sans-Serif" font-size="9.00">_t, char, mbstate_t &gt;</text>
</a>
</g>
</g>
<!-- Node10&#45;&gt;Node11 -->
<g id="edge10" class="edge">
<title>Node10&#45;&gt;Node11</title>
<path fill="none" stroke="midnightblue" d="M279.71,-653.97C299.07,-655.73 319.78,-657.62 338.25,-659.3"/>
<polygon fill="midnightblue" stroke="midnightblue" points="280.01,-650.49 269.73,-653.07 279.37,-657.46 280.01,-650.49"/>
</g>
<!-- Node13 -->
<g id="node13" class="node">
<title>Node13</title>
<g id="a_node13"><a xlink:href="a06342.html" target="_top" xlink:title="The ctype&lt;wchar_t&gt; specialization.">
<polygon fill="white" stroke="black" points="337,-613.5 337,-631.5 456,-631.5 456,-613.5 337,-613.5"/>
<text text-anchor="middle" x="396.5" y="-620.3" font-family="Helvetica,sans-Serif" font-size="9.00">std::ctype&lt; wchar_t &gt;</text>
</a>
</g>
</g>
<!-- Node12&#45;&gt;Node13 -->
<g id="edge12" class="edge">
<title>Node12&#45;&gt;Node13</title>
<path fill="none" stroke="midnightblue" d="M274.25,-604.99C294.65,-607.94 316.98,-611.16 336.86,-614.03"/>
<polygon fill="midnightblue" stroke="midnightblue" points="274.5,-601.49 264.1,-603.53 273.5,-608.42 274.5,-601.49"/>
</g>
<!-- Node15 -->
<g id="node15" class="node">
<title>Node15</title>
<g id="a_node15"><a xlink:href="a05634.html" target="_top" xlink:title=" ">
<polygon fill="white" stroke="black" points="340,-566.5 340,-594.5 453,-594.5 453,-566.5 340,-566.5"/>
<text text-anchor="start" x="348" y="-583.3" font-family="Helvetica,sans-Serif" font-size="9.00">std::codecvt&lt; _Elem,</text>
<text text-anchor="middle" x="396.5" y="-573.3" font-family="Helvetica,sans-Serif" font-size="9.00"> char, mbstate_t &gt;</text>
</a>
</g>
</g>
<!-- Node14&#45;&gt;Node15 -->
<g id="edge14" class="edge">
<title>Node14&#45;&gt;Node15</title>
<path fill="none" stroke="midnightblue" d="M287.35,-559.1C304.98,-562.59 323.33,-566.22 339.79,-569.48"/>
<polygon fill="midnightblue" stroke="midnightblue" points="287.56,-555.57 277.07,-557.07 286.2,-562.44 287.56,-555.57"/>
</g>
<!-- Node16 -->
<g id="node16" class="node">
<title>Node16</title>
<g id="a_node16"><a xlink:href="a05634.html" target="_top" xlink:title="Primary class template codecvt.">
<polygon fill="white" stroke="black" points="334.5,-519.5 334.5,-547.5 458.5,-547.5 458.5,-519.5 334.5,-519.5"/>
<text text-anchor="start" x="342.5" y="-536.3" font-family="Helvetica,sans-Serif" font-size="9.00">std::codecvt&lt; _InternT,</text>
<text text-anchor="middle" x="396.5" y="-526.3" font-family="Helvetica,sans-Serif" font-size="9.00"> _ExternT, _StateT &gt;</text>
</a>
</g>
</g>
<!-- Node14&#45;&gt;Node16 -->
<g id="edge15" class="edge">
<title>Node14&#45;&gt;Node16</title>
<path fill="none" stroke="midnightblue" d="M287.3,-539.29C303.03,-538.44 319.33,-537.57 334.36,-536.77"/>
<polygon fill="midnightblue" stroke="midnightblue" points="286.87,-535.8 277.07,-539.83 287.24,-542.79 286.87,-535.8"/>
</g>
<!-- Node17 -->
<g id="node17" class="node">
<title>Node17</title>
<g id="a_node17"><a xlink:href="a05654.html" target="_top" xlink:title="class codecvt_byname [22.2.1.6].">
<polygon fill="white" stroke="black" points="505,-519.5 505,-557.5 619,-557.5 619,-519.5 505,-519.5"/>
<text text-anchor="start" x="513" y="-546.3" font-family="Helvetica,sans-Serif" font-size="9.00">std::codecvt_byname</text>
<text text-anchor="start" x="513" y="-536.3" font-family="Helvetica,sans-Serif" font-size="9.00">&lt; _InternT, _ExternT,</text>
<text text-anchor="middle" x="562" y="-526.3" font-family="Helvetica,sans-Serif" font-size="9.00"> _StateT &gt;</text>
</a>
</g>
</g>
<!-- Node16&#45;&gt;Node17 -->
<g id="edge16" class="edge">
<title>Node16&#45;&gt;Node17</title>
<path fill="none" stroke="midnightblue" d="M468.9,-535.68C480.97,-536.05 493.36,-536.43 504.97,-536.79"/>
<polygon fill="midnightblue" stroke="midnightblue" points="468.95,-532.18 458.85,-535.38 468.73,-539.18 468.95,-532.18"/>
</g>
<!-- Node19 -->
<g id="node19" class="node">
<title>Node19</title>
<g id="a_node19"><a xlink:href="a06334.html" target="_top" xlink:title="Primary class template ctype facet.">
<polygon fill="white" stroke="black" points="339.5,-482.5 339.5,-500.5 453.5,-500.5 453.5,-482.5 339.5,-482.5"/>
<text text-anchor="middle" x="396.5" y="-489.3" font-family="Helvetica,sans-Serif" font-size="9.00">std::ctype&lt; _CharT &gt;</text>
</a>
</g>
</g>
<!-- Node18&#45;&gt;Node19 -->
<g id="edge18" class="edge">
<title>Node18&#45;&gt;Node19</title>
<path fill="none" stroke="midnightblue" d="M274.35,-491.5C295.62,-491.5 318.98,-491.5 339.47,-491.5"/>
<polygon fill="midnightblue" stroke="midnightblue" points="274.1,-488 264.1,-491.5 274.1,-495 274.1,-488"/>
</g>
<!-- Node20 -->
<g id="node20" class="node">
<title>Node20</title>
<g id="a_node20"><a xlink:href="a06346.html" target="_top" xlink:title="class ctype_byname [22.2.1.2].">
<polygon fill="white" stroke="black" points="506.5,-472.5 506.5,-500.5 617.5,-500.5 617.5,-472.5 506.5,-472.5"/>
<text text-anchor="start" x="514.5" y="-489.3" font-family="Helvetica,sans-Serif" font-size="9.00">std::ctype_byname&lt;</text>
<text text-anchor="middle" x="562" y="-479.3" font-family="Helvetica,sans-Serif" font-size="9.00"> _CharT &gt;</text>
</a>
</g>
</g>
<!-- Node19&#45;&gt;Node20 -->
<g id="edge19" class="edge">
<title>Node19&#45;&gt;Node20</title>
<path fill="none" stroke="midnightblue" d="M463.89,-489.47C477.97,-489.04 492.69,-488.59 506.29,-488.17"/>
<polygon fill="midnightblue" stroke="midnightblue" points="463.66,-485.98 453.77,-489.78 463.87,-492.97 463.66,-485.98"/>
</g>
<!-- Node22 -->
<g id="node22" class="node">
<title>Node22</title>
<g id="a_node22"><a xlink:href="a06310.html" target="_top" xlink:title="class collate_byname [22.2.4.2].">
<polygon fill="white" stroke="black" points="343,-435.5 343,-463.5 450,-463.5 450,-435.5 343,-435.5"/>
<text text-anchor="start" x="351" y="-452.3" font-family="Helvetica,sans-Serif" font-size="9.00">std::collate_byname</text>
<text text-anchor="middle" x="396.5" y="-442.3" font-family="Helvetica,sans-Serif" font-size="9.00">&lt; _CharT &gt;</text>
</a>
</g>
</g>
<!-- Node21&#45;&gt;Node22 -->
<g id="edge21" class="edge">
<title>Node21&#45;&gt;Node22</title>
<path fill="none" stroke="midnightblue" d="M276.81,-449.5C298.58,-449.5 322.31,-449.5 342.79,-449.5"/>
<polygon fill="midnightblue" stroke="midnightblue" points="276.64,-446 266.64,-449.5 276.64,-453 276.64,-446"/>
</g>
<!-- Node24 -->
<g id="node24" class="node">
<title>Node24</title>
<g id="a_node24"><a xlink:href="a06350.html" target="_top" xlink:title="22.2.1.4 Class ctype_byname specializations.">
<polygon fill="white" stroke="black" points="341,-388.5 341,-416.5 452,-416.5 452,-388.5 341,-388.5"/>
<text text-anchor="start" x="349" y="-405.3" font-family="Helvetica,sans-Serif" font-size="9.00">std::ctype_byname&lt;</text>
<text text-anchor="middle" x="396.5" y="-395.3" font-family="Helvetica,sans-Serif" font-size="9.00"> char &gt;</text>
</a>
</g>
</g>
<!-- Node23&#45;&gt;Node24 -->
<g id="edge23" class="edge">
<title>Node23&#45;&gt;Node24</title>
<path fill="none" stroke="midnightblue" d="M269.89,-409.22C292.79,-407.99 318.61,-406.61 340.86,-405.42"/>
<polygon fill="midnightblue" stroke="midnightblue" points="269.4,-405.74 259.6,-409.77 269.77,-412.73 269.4,-405.74"/>
</g>
<!-- Node26 -->
<g id="node26" class="node">
<title>Node26</title>
<g id="a_node26"><a xlink:href="a06458.html" target="_top" xlink:title="class messages_byname [22.2.7.2].">
<polygon fill="white" stroke="black" points="335.5,-341.5 335.5,-369.5 457.5,-369.5 457.5,-341.5 335.5,-341.5"/>
<text text-anchor="start" x="343.5" y="-358.3" font-family="Helvetica,sans-Serif" font-size="9.00">std::messages_byname</text>
<text text-anchor="middle" x="396.5" y="-348.3" font-family="Helvetica,sans-Serif" font-size="9.00">&lt; _CharT &gt;</text>
</a>
</g>
</g>
<!-- Node25&#45;&gt;Node26 -->
<g id="edge25" class="edge">
<title>Node25&#45;&gt;Node26</title>
<path fill="none" stroke="midnightblue" d="M284.57,-367.36C301.46,-365.56 319.15,-363.67 335.31,-361.94"/>
<polygon fill="midnightblue" stroke="midnightblue" points="283.74,-363.93 274.17,-368.48 284.48,-370.89 283.74,-363.93"/>
</g>
<!-- Node30 -->
<g id="node30" class="node">
<title>Node30</title>
<g id="a_node30"><a xlink:href="a06438.html" target="_top" xlink:title="class moneypunct_byname [22.2.6.4].">
<polygon fill="white" stroke="black" points="328.5,-225.5 328.5,-253.5 464.5,-253.5 464.5,-225.5 328.5,-225.5"/>
<text text-anchor="start" x="336.5" y="-242.3" font-family="Helvetica,sans-Serif" font-size="9.00">std::moneypunct_byname</text>
<text text-anchor="middle" x="396.5" y="-232.3" font-family="Helvetica,sans-Serif" font-size="9.00">&lt; _CharT, _Intl &gt;</text>
</a>
</g>
</g>
<!-- Node29&#45;&gt;Node30 -->
<g id="edge29" class="edge">
<title>Node29&#45;&gt;Node30</title>
<path fill="none" stroke="midnightblue" d="M287.42,-239.5C301.09,-239.5 315.18,-239.5 328.5,-239.5"/>
<polygon fill="midnightblue" stroke="midnightblue" points="287.07,-236 277.07,-239.5 287.07,-243 287.07,-236"/>
</g>
<!-- Node34 -->
<g id="node34" class="node">
<title>Node34</title>
<g id="a_node34"><a xlink:href="a06370.html" target="_top" xlink:title="class numpunct_byname [22.2.3.2].">
<polygon fill="white" stroke="black" points="333.5,-94.5 333.5,-122.5 459.5,-122.5 459.5,-94.5 333.5,-94.5"/>
<text text-anchor="start" x="341.5" y="-111.3" font-family="Helvetica,sans-Serif" font-size="9.00">std::numpunct_byname</text>
<text text-anchor="middle" x="396.5" y="-101.3" font-family="Helvetica,sans-Serif" font-size="9.00">&lt; _CharT &gt;</text>
</a>
</g>
</g>
<!-- Node33&#45;&gt;Node34 -->
<g id="edge33" class="edge">
<title>Node33&#45;&gt;Node34</title>
<path fill="none" stroke="midnightblue" d="M286.23,-105.58C301.95,-106 318.28,-106.44 333.38,-106.84"/>
<polygon fill="midnightblue" stroke="midnightblue" points="286.1,-102.07 276.01,-105.31 285.91,-109.07 286.1,-102.07"/>
</g>
<!-- Node36 -->
<g id="node36" class="node">
<title>Node36</title>
<g id="a_node36"><a xlink:href="a06410.html" target="_top" xlink:title="class time_get_byname [22.2.5.2].">
<polygon fill="white" stroke="black" points="337.5,-47.5 337.5,-75.5 455.5,-75.5 455.5,-47.5 337.5,-47.5"/>
<text text-anchor="start" x="345.5" y="-64.3" font-family="Helvetica,sans-Serif" font-size="9.00">std::time_get_byname</text>
<text text-anchor="middle" x="396.5" y="-54.3" font-family="Helvetica,sans-Serif" font-size="9.00">&lt; _CharT, _InIter &gt;</text>
</a>
</g>
</g>
<!-- Node35&#45;&gt;Node36 -->
<g id="edge35" class="edge">
<title>Node35&#45;&gt;Node36</title>
<path fill="none" stroke="midnightblue" d="M278.21,-61.5C297.68,-61.5 318.62,-61.5 337.34,-61.5"/>
<polygon fill="midnightblue" stroke="midnightblue" points="278.18,-58 268.18,-61.5 278.18,-65 278.18,-58"/>
</g>
<!-- Node38 -->
<g id="node38" class="node">
<title>Node38</title>
<g id="a_node38"><a xlink:href="a06418.html" target="_top" xlink:title="class time_put_byname [22.2.5.4].">
<polygon fill="white" stroke="black" points="337,-0.5 337,-28.5 456,-28.5 456,-0.5 337,-0.5"/>
<text text-anchor="start" x="345" y="-17.3" font-family="Helvetica,sans-Serif" font-size="9.00">std::time_put_byname</text>
<text text-anchor="middle" x="396.5" y="-7.3" font-family="Helvetica,sans-Serif" font-size="9.00">&lt; _CharT, _OutIter &gt;</text>
</a>
</g>
</g>
<!-- Node37&#45;&gt;Node38 -->
<g id="edge37" class="edge">
<title>Node37&#45;&gt;Node38</title>
<path fill="none" stroke="midnightblue" d="M278.82,-14.5C297.89,-14.5 318.33,-14.5 336.69,-14.5"/>
<polygon fill="midnightblue" stroke="midnightblue" points="278.7,-11 268.7,-14.5 278.7,-18 278.7,-11"/>
</g>
</g>
</svg>
