<?xml version="1.0" encoding="UTF-8" standalone="no"?>
<!DOCTYPE svg PUBLIC "-//W3C//DTD SVG 1.1//EN"
 "http://www.w3.org/Graphics/SVG/1.1/DTD/svg11.dtd">
<!-- Generated by graphviz version 2.50.0 (0)
 -->
<!-- Title: std::collate_byname&lt; _CharT &gt; Pages: 1 -->
<svg width="126pt" height="147pt"
 viewBox="0.00 0.00 126.00 147.00" xmlns="http://www.w3.org/2000/svg" xmlns:xlink="http://www.w3.org/1999/xlink">
<g id="graph0" class="graph" transform="scale(1 1) rotate(0) translate(4 143)">
<title>std::collate_byname&lt; _CharT &gt;</title>
<polygon fill="white" stroke="transparent" points="-4,4 -4,-143 122,-143 122,4 -4,4"/>
<!-- Node1 -->
<g id="node1" class="node">
<title>Node1</title>
<g id="a_node1"><a xlink:title="class collate_byname [22.2.4.2].">
<polygon fill="#bfbfbf" stroke="black" points="5.5,-0.5 5.5,-28.5 112.5,-28.5 112.5,-0.5 5.5,-0.5"/>
<text text-anchor="start" x="13.5" y="-17.3" font-family="Helvetica,sans-Serif" font-size="9.00">std::collate_byname</text>
<text text-anchor="middle" x="59" y="-7.3" font-family="Helvetica,sans-Serif" font-size="9.00">&lt; _CharT &gt;</text>
</a>
</g>
</g>
<!-- Node2 -->
<g id="node2" class="node">
<title>Node2</title>
<g id="a_node2"><a xlink:href="a06306.html" target="_top" xlink:title="Facet for localized string comparison.">
<polygon fill="white" stroke="black" points="0,-65.5 0,-83.5 118,-83.5 118,-65.5 0,-65.5"/>
<text text-anchor="middle" x="59" y="-72.3" font-family="Helvetica,sans-Serif" font-size="9.00">std::collate&lt; _CharT &gt;</text>
</a>
</g>
</g>
<!-- Node2&#45;&gt;Node1 -->
<g id="edge1" class="edge">
<title>Node2&#45;&gt;Node1</title>
<path fill="none" stroke="midnightblue" d="M59,-55.32C59,-46.75 59,-36.7 59,-28.84"/>
<polygon fill="midnightblue" stroke="midnightblue" points="55.5,-55.44 59,-65.44 62.5,-55.44 55.5,-55.44"/>
</g>
<!-- Node3 -->
<g id="node3" class="node">
<title>Node3</title>
<g id="a_node3"><a xlink:href="a06294.html" target="_top" xlink:title="Localization functionality base class.">
<polygon fill="white" stroke="black" points="13.5,-120.5 13.5,-138.5 104.5,-138.5 104.5,-120.5 13.5,-120.5"/>
<text text-anchor="middle" x="59" y="-127.3" font-family="Helvetica,sans-Serif" font-size="9.00">std::locale::facet</text>
</a>
</g>
</g>
<!-- Node3&#45;&gt;Node2 -->
<g id="edge2" class="edge">
<title>Node3&#45;&gt;Node2</title>
<path fill="none" stroke="midnightblue" d="M59,-110.17C59,-101.09 59,-90.59 59,-83.55"/>
<polygon fill="midnightblue" stroke="midnightblue" points="55.5,-110.22 59,-120.22 62.5,-110.22 55.5,-110.22"/>
</g>
</g>
</svg>
