<?xml version="1.0" encoding="UTF-8" standalone="no"?>
<!DOCTYPE svg PUBLIC "-//W3C//DTD SVG 1.1//EN"
 "http://www.w3.org/Graphics/SVG/1.1/DTD/svg11.dtd">
<!-- Generated by graphviz version 2.50.0 (0)
 -->
<!-- Title: std::ctype_byname&lt; _CharT &gt; Pages: 1 -->
<svg width="206pt" height="212pt"
 viewBox="0.00 0.00 205.50 212.00" xmlns="http://www.w3.org/2000/svg" xmlns:xlink="http://www.w3.org/1999/xlink">
<g id="graph0" class="graph" transform="scale(1 1) rotate(0) translate(4 208)">
<title>std::ctype_byname&lt; _CharT &gt;</title>
<polygon fill="white" stroke="transparent" points="-4,4 -4,-208 201.5,-208 201.5,4 -4,4"/>
<!-- Node1 -->
<g id="node1" class="node">
<title>Node1</title>
<g id="a_node1"><a xlink:title="class ctype_byname [22.2.1.2].">
<polygon fill="#bfbfbf" stroke="black" points="44,-0.5 44,-28.5 155,-28.5 155,-0.5 44,-0.5"/>
<text text-anchor="start" x="52" y="-17.3" font-family="Helvetica,sans-Serif" font-size="9.00">std::ctype_byname&lt;</text>
<text text-anchor="middle" x="99.5" y="-7.3" font-family="Helvetica,sans-Serif" font-size="9.00"> _CharT &gt;</text>
</a>
</g>
</g>
<!-- Node2 -->
<g id="node2" class="node">
<title>Node2</title>
<g id="a_node2"><a xlink:href="a06334.html" target="_top" xlink:title="Primary class template ctype facet.">
<polygon fill="white" stroke="black" points="42.5,-65.5 42.5,-83.5 156.5,-83.5 156.5,-65.5 42.5,-65.5"/>
<text text-anchor="middle" x="99.5" y="-72.3" font-family="Helvetica,sans-Serif" font-size="9.00">std::ctype&lt; _CharT &gt;</text>
</a>
</g>
</g>
<!-- Node2&#45;&gt;Node1 -->
<g id="edge1" class="edge">
<title>Node2&#45;&gt;Node1</title>
<path fill="none" stroke="midnightblue" d="M99.5,-55.32C99.5,-46.75 99.5,-36.7 99.5,-28.84"/>
<polygon fill="midnightblue" stroke="midnightblue" points="96,-55.44 99.5,-65.44 103,-55.44 96,-55.44"/>
</g>
<!-- Node3 -->
<g id="node3" class="node">
<title>Node3</title>
<g id="a_node3"><a xlink:href="a06330.html" target="_top" xlink:title="Common base for ctype facet.">
<polygon fill="white" stroke="black" points="43,-120.5 43,-148.5 156,-148.5 156,-120.5 43,-120.5"/>
<text text-anchor="start" x="51" y="-137.3" font-family="Helvetica,sans-Serif" font-size="9.00">std::__ctype_abstract</text>
<text text-anchor="middle" x="99.5" y="-127.3" font-family="Helvetica,sans-Serif" font-size="9.00">_base&lt; _CharT &gt;</text>
</a>
</g>
</g>
<!-- Node3&#45;&gt;Node2 -->
<g id="edge2" class="edge">
<title>Node3&#45;&gt;Node2</title>
<path fill="none" stroke="midnightblue" d="M99.5,-110.32C99.5,-100.94 99.5,-90.7 99.5,-83.77"/>
<polygon fill="midnightblue" stroke="midnightblue" points="96,-110.34 99.5,-120.34 103,-110.34 96,-110.34"/>
</g>
<!-- Node4 -->
<g id="node4" class="node">
<title>Node4</title>
<g id="a_node4"><a xlink:href="a06294.html" target="_top" xlink:title="Localization functionality base class.">
<polygon fill="white" stroke="black" points="0,-185.5 0,-203.5 91,-203.5 91,-185.5 0,-185.5"/>
<text text-anchor="middle" x="45.5" y="-192.3" font-family="Helvetica,sans-Serif" font-size="9.00">std::locale::facet</text>
</a>
</g>
</g>
<!-- Node4&#45;&gt;Node3 -->
<g id="edge3" class="edge">
<title>Node4&#45;&gt;Node3</title>
<path fill="none" stroke="midnightblue" d="M60.05,-177.87C68.5,-168.8 79.02,-157.49 87.08,-148.84"/>
<polygon fill="midnightblue" stroke="midnightblue" points="57.26,-175.73 53.01,-185.44 62.38,-180.5 57.26,-175.73"/>
</g>
<!-- Node5 -->
<g id="node5" class="node">
<title>Node5</title>
<g id="a_node5"><a xlink:href="a09410.html" target="_top" xlink:title="Base class for ctype.">
<polygon fill="white" stroke="black" points="109.5,-185.5 109.5,-203.5 197.5,-203.5 197.5,-185.5 109.5,-185.5"/>
<text text-anchor="middle" x="153.5" y="-192.3" font-family="Helvetica,sans-Serif" font-size="9.00">std::ctype_base</text>
</a>
</g>
</g>
<!-- Node5&#45;&gt;Node3 -->
<g id="edge4" class="edge">
<title>Node5&#45;&gt;Node3</title>
<path fill="none" stroke="midnightblue" d="M138.95,-177.87C130.5,-168.8 119.98,-157.49 111.92,-148.84"/>
<polygon fill="midnightblue" stroke="midnightblue" points="136.62,-180.5 145.99,-185.44 141.74,-175.73 136.62,-180.5"/>
</g>
</g>
</svg>
