<?xml version="1.0" encoding="UTF-8" standalone="no"?>
<!DOCTYPE svg PUBLIC "-//W3C//DTD SVG 1.1//EN"
 "http://www.w3.org/Graphics/SVG/1.1/DTD/svg11.dtd">
<!-- Generated by graphviz version 2.50.0 (0)
 -->
<!-- Title: std::money_base Pages: 1 -->
<svg width="147pt" height="157pt"
 viewBox="0.00 0.00 147.00 157.00" xmlns="http://www.w3.org/2000/svg" xmlns:xlink="http://www.w3.org/1999/xlink">
<g id="graph0" class="graph" transform="scale(1 1) rotate(0) translate(4 153)">
<title>std::money_base</title>
<polygon fill="white" stroke="transparent" points="-4,4 -4,-153 143,-153 143,4 -4,4"/>
<!-- Node1 -->
<g id="node1" class="node">
<title>Node1</title>
<g id="a_node1"><a xlink:title="Money format ordering data.">
<polygon fill="#bfbfbf" stroke="black" points="23,-130.5 23,-148.5 116,-148.5 116,-130.5 23,-130.5"/>
<text text-anchor="middle" x="69.5" y="-137.3" font-family="Helvetica,sans-Serif" font-size="9.00">std::money_base</text>
</a>
</g>
</g>
<!-- Node2 -->
<g id="node2" class="node">
<title>Node2</title>
<g id="a_node2"><a xlink:href="a06434.html" target="_top" xlink:title="Primary class template moneypunct.">
<polygon fill="white" stroke="black" points="0,-65.5 0,-93.5 139,-93.5 139,-65.5 0,-65.5"/>
<text text-anchor="start" x="8" y="-82.3" font-family="Helvetica,sans-Serif" font-size="9.00">std::moneypunct&lt; _CharT,</text>
<text text-anchor="middle" x="69.5" y="-72.3" font-family="Helvetica,sans-Serif" font-size="9.00"> _Intl &gt;</text>
</a>
</g>
</g>
<!-- Node1&#45;&gt;Node2 -->
<g id="edge1" class="edge">
<title>Node1&#45;&gt;Node2</title>
<path fill="none" stroke="midnightblue" d="M69.5,-120.32C69.5,-111.75 69.5,-101.7 69.5,-93.84"/>
<polygon fill="midnightblue" stroke="midnightblue" points="66,-120.44 69.5,-130.44 73,-120.44 66,-120.44"/>
</g>
<!-- Node3 -->
<g id="node3" class="node">
<title>Node3</title>
<g id="a_node3"><a xlink:href="a06438.html" target="_top" xlink:title="class moneypunct_byname [22.2.6.4].">
<polygon fill="white" stroke="black" points="1.5,-0.5 1.5,-28.5 137.5,-28.5 137.5,-0.5 1.5,-0.5"/>
<text text-anchor="start" x="9.5" y="-17.3" font-family="Helvetica,sans-Serif" font-size="9.00">std::moneypunct_byname</text>
<text text-anchor="middle" x="69.5" y="-7.3" font-family="Helvetica,sans-Serif" font-size="9.00">&lt; _CharT, _Intl &gt;</text>
</a>
</g>
</g>
<!-- Node2&#45;&gt;Node3 -->
<g id="edge2" class="edge">
<title>Node2&#45;&gt;Node3</title>
<path fill="none" stroke="midnightblue" d="M69.5,-55.16C69.5,-46.17 69.5,-36.22 69.5,-28.54"/>
<polygon fill="midnightblue" stroke="midnightblue" points="66,-55.45 69.5,-65.45 73,-55.45 66,-55.45"/>
</g>
</g>
</svg>
