<?xml version="1.0" encoding="UTF-8" standalone="no"?>
<!DOCTYPE svg PUBLIC "-//W3C//DTD SVG 1.1//EN"
 "http://www.w3.org/Graphics/SVG/1.1/DTD/svg11.dtd">
<!-- Generated by graphviz version 2.50.0 (0)
 -->
<!-- Title: std::time_get_byname&lt; _CharT, _InIter &gt; Pages: 1 -->
<svg width="200pt" height="157pt"
 viewBox="0.00 0.00 200.00 157.00" xmlns="http://www.w3.org/2000/svg" xmlns:xlink="http://www.w3.org/1999/xlink">
<g id="graph0" class="graph" transform="scale(1 1) rotate(0) translate(4 153)">
<title>std::time_get_byname&lt; _CharT, _InIter &gt;</title>
<polygon fill="white" stroke="transparent" points="-4,4 -4,-153 196,-153 196,4 -4,4"/>
<!-- Node1 -->
<g id="node1" class="node">
<title>Node1</title>
<g id="a_node1"><a xlink:title="class time_get_byname [22.2.5.2].">
<polygon fill="#bfbfbf" stroke="black" points="38.5,-0.5 38.5,-28.5 156.5,-28.5 156.5,-0.5 38.5,-0.5"/>
<text text-anchor="start" x="46.5" y="-17.3" font-family="Helvetica,sans-Serif" font-size="9.00">std::time_get_byname</text>
<text text-anchor="middle" x="97.5" y="-7.3" font-family="Helvetica,sans-Serif" font-size="9.00">&lt; _CharT, _InIter &gt;</text>
</a>
</g>
</g>
<!-- Node2 -->
<g id="node2" class="node">
<title>Node2</title>
<g id="a_node2"><a xlink:href="a06406.html" target="_top" xlink:title="Primary class template time_get.">
<polygon fill="white" stroke="black" points="37,-65.5 37,-93.5 158,-93.5 158,-65.5 37,-65.5"/>
<text text-anchor="start" x="45" y="-82.3" font-family="Helvetica,sans-Serif" font-size="9.00">std::time_get&lt; _CharT,</text>
<text text-anchor="middle" x="97.5" y="-72.3" font-family="Helvetica,sans-Serif" font-size="9.00"> _InIter &gt;</text>
</a>
</g>
</g>
<!-- Node2&#45;&gt;Node1 -->
<g id="edge1" class="edge">
<title>Node2&#45;&gt;Node1</title>
<path fill="none" stroke="midnightblue" d="M97.5,-55.16C97.5,-46.17 97.5,-36.22 97.5,-28.54"/>
<polygon fill="midnightblue" stroke="midnightblue" points="94,-55.45 97.5,-65.45 101,-55.45 94,-55.45"/>
</g>
<!-- Node3 -->
<g id="node3" class="node">
<title>Node3</title>
<g id="a_node3"><a xlink:href="a06294.html" target="_top" xlink:title="Localization functionality base class.">
<polygon fill="white" stroke="black" points="0,-130.5 0,-148.5 91,-148.5 91,-130.5 0,-130.5"/>
<text text-anchor="middle" x="45.5" y="-137.3" font-family="Helvetica,sans-Serif" font-size="9.00">std::locale::facet</text>
</a>
</g>
</g>
<!-- Node3&#45;&gt;Node2 -->
<g id="edge2" class="edge">
<title>Node3&#45;&gt;Node2</title>
<path fill="none" stroke="midnightblue" d="M59.51,-122.87C67.64,-113.8 77.78,-102.49 85.54,-93.84"/>
<polygon fill="midnightblue" stroke="midnightblue" points="56.8,-120.65 52.73,-130.44 62.01,-125.33 56.8,-120.65"/>
</g>
<!-- Node4 -->
<g id="node4" class="node">
<title>Node4</title>
<g id="a_node4"><a xlink:href="a06390.html" target="_top" xlink:title="Time format ordering data.">
<polygon fill="white" stroke="black" points="109,-130.5 109,-148.5 192,-148.5 192,-130.5 109,-130.5"/>
<text text-anchor="middle" x="150.5" y="-137.3" font-family="Helvetica,sans-Serif" font-size="9.00">std::time_base</text>
</a>
</g>
</g>
<!-- Node4&#45;&gt;Node2 -->
<g id="edge3" class="edge">
<title>Node4&#45;&gt;Node2</title>
<path fill="none" stroke="midnightblue" d="M136.22,-122.87C127.93,-113.8 117.6,-102.49 109.69,-93.84"/>
<polygon fill="midnightblue" stroke="midnightblue" points="133.8,-125.41 143.13,-130.44 138.97,-120.69 133.8,-125.41"/>
</g>
</g>
</svg>
