<?xml version="1.0" encoding="UTF-8" standalone="no"?>
<!DOCTYPE svg PUBLIC "-//W3C//DTD SVG 1.1//EN"
 "http://www.w3.org/Graphics/SVG/1.1/DTD/svg11.dtd">
<!-- Generated by graphviz version 2.50.0 (0)
 -->
<!-- Title: std::greater_equal&lt; _Tp &gt; Pages: 1 -->
<svg width="115pt" height="102pt"
 viewBox="0.00 0.00 115.00 102.00" xmlns="http://www.w3.org/2000/svg" xmlns:xlink="http://www.w3.org/1999/xlink">
<g id="graph0" class="graph" transform="scale(1 1) rotate(0) translate(4 98)">
<title>std::greater_equal&lt; _Tp &gt;</title>
<polygon fill="white" stroke="transparent" points="-4,4 -4,-98 111,-98 111,4 -4,4"/>
<!-- Node1 -->
<g id="node1" class="node">
<title>Node1</title>
<g id="a_node1"><a xlink:title="One of the comparison functors.">
<polygon fill="#bfbfbf" stroke="black" points="4,-0.5 4,-28.5 103,-28.5 103,-0.5 4,-0.5"/>
<text text-anchor="start" x="12" y="-17.3" font-family="Helvetica,sans-Serif" font-size="9.00">std::greater_equal</text>
<text text-anchor="middle" x="53.5" y="-7.3" font-family="Helvetica,sans-Serif" font-size="9.00">&lt; _Tp &gt;</text>
</a>
</g>
</g>
<!-- Node2 -->
<g id="node2" class="node">
<title>Node2</title>
<g id="a_node2"><a xlink:href="a08210.html" target="_top" xlink:title=" ">
<polygon fill="white" stroke="black" points="0,-65.5 0,-93.5 107,-93.5 107,-65.5 0,-65.5"/>
<text text-anchor="start" x="8" y="-82.3" font-family="Helvetica,sans-Serif" font-size="9.00">std::binary_function</text>
<text text-anchor="middle" x="53.5" y="-72.3" font-family="Helvetica,sans-Serif" font-size="9.00">&lt; _Tp, _Tp, bool &gt;</text>
</a>
</g>
</g>
<!-- Node2&#45;&gt;Node1 -->
<g id="edge1" class="edge">
<title>Node2&#45;&gt;Node1</title>
<path fill="none" stroke="midnightblue" d="M53.5,-55.16C53.5,-46.17 53.5,-36.22 53.5,-28.54"/>
<polygon fill="midnightblue" stroke="midnightblue" points="50,-55.45 53.5,-65.45 57,-55.45 50,-55.45"/>
</g>
</g>
</svg>
