<?xml version="1.0" encoding="UTF-8" standalone="no"?>
<!DOCTYPE svg PUBLIC "-//W3C//DTD SVG 1.1//EN"
 "http://www.w3.org/Graphics/SVG/1.1/DTD/svg11.dtd">
<!-- Generated by graphviz version 2.50.0 (0)
 -->
<!-- Title: std::const_mem_fun1_t&lt; _Ret, _Tp, _Arg &gt; Pages: 1 -->
<svg width="123pt" height="112pt"
 viewBox="0.00 0.00 123.00 112.00" xmlns="http://www.w3.org/2000/svg" xmlns:xlink="http://www.w3.org/1999/xlink">
<g id="graph0" class="graph" transform="scale(1 1) rotate(0) translate(4 108)">
<title>std::const_mem_fun1_t&lt; _Ret, _Tp, _Arg &gt;</title>
<polygon fill="white" stroke="transparent" points="-4,4 -4,-108 119,-108 119,4 -4,4"/>
<!-- Node1 -->
<g id="node1" class="node">
<title>Node1</title>
<g id="a_node1"><a xlink:title="One of the adaptors for member pointers.">
<polygon fill="#bfbfbf" stroke="black" points="0,-0.5 0,-28.5 115,-28.5 115,-0.5 0,-0.5"/>
<text text-anchor="start" x="8" y="-17.3" font-family="Helvetica,sans-Serif" font-size="9.00">std::const_mem_fun1</text>
<text text-anchor="middle" x="57.5" y="-7.3" font-family="Helvetica,sans-Serif" font-size="9.00">_t&lt; _Ret, _Tp, _Arg &gt;</text>
</a>
</g>
</g>
<!-- Node2 -->
<g id="node2" class="node">
<title>Node2</title>
<g id="a_node2"><a xlink:href="a08210.html" target="_top" xlink:title=" ">
<polygon fill="white" stroke="black" points="4,-65.5 4,-103.5 111,-103.5 111,-65.5 4,-65.5"/>
<text text-anchor="start" x="12" y="-92.3" font-family="Helvetica,sans-Serif" font-size="9.00">std::binary_function</text>
<text text-anchor="start" x="12" y="-82.3" font-family="Helvetica,sans-Serif" font-size="9.00">&lt; const _Tp *, _Arg,</text>
<text text-anchor="middle" x="57.5" y="-72.3" font-family="Helvetica,sans-Serif" font-size="9.00"> _Ret &gt;</text>
</a>
</g>
</g>
<!-- Node2&#45;&gt;Node1 -->
<g id="edge1" class="edge">
<title>Node2&#45;&gt;Node1</title>
<path fill="none" stroke="midnightblue" d="M57.5,-55.01C57.5,-45.92 57.5,-36.29 57.5,-28.81"/>
<polygon fill="midnightblue" stroke="midnightblue" points="54,-55.28 57.5,-65.28 61,-55.28 54,-55.28"/>
</g>
</g>
</svg>
