<?xml version="1.0" encoding="UTF-8" standalone="no"?>
<!DOCTYPE svg PUBLIC "-//W3C//DTD SVG 1.1//EN"
 "http://www.w3.org/Graphics/SVG/1.1/DTD/svg11.dtd">
<!-- Generated by graphviz version 2.50.0 (0)
 -->
<!-- Title: std::insert_iterator&lt; _Container &gt; Pages: 1 -->
<svg width="119pt" height="112pt"
 viewBox="0.00 0.00 119.00 112.00" xmlns="http://www.w3.org/2000/svg" xmlns:xlink="http://www.w3.org/1999/xlink">
<g id="graph0" class="graph" transform="scale(1 1) rotate(0) translate(4 108)">
<title>std::insert_iterator&lt; _Container &gt;</title>
<polygon fill="white" stroke="transparent" points="-4,4 -4,-108 115,-108 115,4 -4,4"/>
<!-- Node1 -->
<g id="node1" class="node">
<title>Node1</title>
<g id="a_node1"><a xlink:title="Turns assignment into insertion.">
<polygon fill="#bfbfbf" stroke="black" points="5.5,-0.5 5.5,-28.5 105.5,-28.5 105.5,-0.5 5.5,-0.5"/>
<text text-anchor="start" x="13.5" y="-17.3" font-family="Helvetica,sans-Serif" font-size="9.00">std::insert_iterator</text>
<text text-anchor="middle" x="55.5" y="-7.3" font-family="Helvetica,sans-Serif" font-size="9.00">&lt; _Container &gt;</text>
</a>
</g>
</g>
<!-- Node2 -->
<g id="node2" class="node">
<title>Node2</title>
<g id="a_node2"><a xlink:href="a08646.html" target="_top" xlink:title=" ">
<polygon fill="white" stroke="black" points="0,-65.5 0,-103.5 111,-103.5 111,-65.5 0,-65.5"/>
<text text-anchor="start" x="8" y="-92.3" font-family="Helvetica,sans-Serif" font-size="9.00">std::iterator&lt; output</text>
<text text-anchor="start" x="8" y="-82.3" font-family="Helvetica,sans-Serif" font-size="9.00">_iterator_tag, void,</text>
<text text-anchor="middle" x="55.5" y="-72.3" font-family="Helvetica,sans-Serif" font-size="9.00"> void, void, void &gt;</text>
</a>
</g>
</g>
<!-- Node2&#45;&gt;Node1 -->
<g id="edge1" class="edge">
<title>Node2&#45;&gt;Node1</title>
<path fill="none" stroke="midnightblue" d="M55.5,-55.01C55.5,-45.92 55.5,-36.29 55.5,-28.81"/>
<polygon fill="midnightblue" stroke="midnightblue" points="52,-55.28 55.5,-65.28 59,-55.28 52,-55.28"/>
</g>
</g>
</svg>
