<?xml version="1.0" encoding="UTF-8" standalone="no"?>
<!DOCTYPE svg PUBLIC "-//W3C//DTD SVG 1.1//EN"
 "http://www.w3.org/Graphics/SVG/1.1/DTD/svg11.dtd">
<!-- Generated by graphviz version 2.50.0 (0)
 -->
<!-- Title: std::__detail::_List_node_header Pages: 1 -->
<svg width="105pt" height="102pt"
 viewBox="0.00 0.00 105.00 102.00" xmlns="http://www.w3.org/2000/svg" xmlns:xlink="http://www.w3.org/1999/xlink">
<g id="graph0" class="graph" transform="scale(1 1) rotate(0) translate(4 98)">
<title>std::__detail::_List_node_header</title>
<polygon fill="white" stroke="transparent" points="-4,4 -4,-98 101,-98 101,4 -4,4"/>
<!-- Node1 -->
<g id="node1" class="node">
<title>Node1</title>
<g id="a_node1"><a xlink:title="The list node header.">
<polygon fill="#bfbfbf" stroke="black" points="0,-0.5 0,-28.5 97,-28.5 97,-0.5 0,-0.5"/>
<text text-anchor="start" x="8" y="-17.3" font-family="Helvetica,sans-Serif" font-size="9.00">std::__detail::_List</text>
<text text-anchor="middle" x="48.5" y="-7.3" font-family="Helvetica,sans-Serif" font-size="9.00">_node_header</text>
</a>
</g>
</g>
<!-- Node2 -->
<g id="node2" class="node">
<title>Node2</title>
<g id="a_node2"><a xlink:href="a08658.html" target="_top" xlink:title="Common part of a node in the list.">
<polygon fill="white" stroke="black" points="0,-65.5 0,-93.5 97,-93.5 97,-65.5 0,-65.5"/>
<text text-anchor="start" x="8" y="-82.3" font-family="Helvetica,sans-Serif" font-size="9.00">std::__detail::_List</text>
<text text-anchor="middle" x="48.5" y="-72.3" font-family="Helvetica,sans-Serif" font-size="9.00">_node_base</text>
</a>
</g>
</g>
<!-- Node2&#45;&gt;Node1 -->
<g id="edge1" class="edge">
<title>Node2&#45;&gt;Node1</title>
<path fill="none" stroke="midnightblue" d="M48.5,-55.16C48.5,-46.17 48.5,-36.22 48.5,-28.54"/>
<polygon fill="midnightblue" stroke="midnightblue" points="45,-55.45 48.5,-65.45 52,-55.45 45,-55.45"/>
</g>
</g>
</svg>
