<?xml version="1.0" encoding="UTF-8" standalone="no"?>
<!DOCTYPE svg PUBLIC "-//W3C//DTD SVG 1.1//EN"
 "http://www.w3.org/Graphics/SVG/1.1/DTD/svg11.dtd">
<!-- Generated by graphviz version 2.50.0 (0)
 -->
<!-- Title: std::__detail::_List_node_base Pages: 1 -->
<svg width="244pt" height="102pt"
 viewBox="0.00 0.00 244.00 102.00" xmlns="http://www.w3.org/2000/svg" xmlns:xlink="http://www.w3.org/1999/xlink">
<g id="graph0" class="graph" transform="scale(1 1) rotate(0) translate(4 98)">
<title>std::__detail::_List_node_base</title>
<polygon fill="white" stroke="transparent" points="-4,4 -4,-98 240,-98 240,4 -4,4"/>
<!-- Node1 -->
<g id="node1" class="node">
<title>Node1</title>
<g id="a_node1"><a xlink:title="Common part of a node in the list.">
<polygon fill="#bfbfbf" stroke="black" points="75,-65.5 75,-93.5 172,-93.5 172,-65.5 75,-65.5"/>
<text text-anchor="start" x="83" y="-82.3" font-family="Helvetica,sans-Serif" font-size="9.00">std::__detail::_List</text>
<text text-anchor="middle" x="123.5" y="-72.3" font-family="Helvetica,sans-Serif" font-size="9.00">_node_base</text>
</a>
</g>
</g>
<!-- Node2 -->
<g id="node2" class="node">
<title>Node2</title>
<g id="a_node2"><a xlink:href="a08678.html" target="_top" xlink:title="An actual node in the list.">
<polygon fill="white" stroke="black" points="0,-5.5 0,-23.5 121,-23.5 121,-5.5 0,-5.5"/>
<text text-anchor="middle" x="60.5" y="-12.3" font-family="Helvetica,sans-Serif" font-size="9.00">std::_List_node&lt; _Tp &gt;</text>
</a>
</g>
</g>
<!-- Node1&#45;&gt;Node2 -->
<g id="edge1" class="edge">
<title>Node1&#45;&gt;Node2</title>
<path fill="none" stroke="midnightblue" d="M103.18,-58.18C91.49,-46.49 77.43,-32.43 68.73,-23.73"/>
<polygon fill="midnightblue" stroke="midnightblue" points="100.9,-60.85 110.45,-65.45 105.85,-55.9 100.9,-60.85"/>
</g>
<!-- Node3 -->
<g id="node3" class="node">
<title>Node3</title>
<g id="a_node3"><a xlink:href="a08662.html" target="_top" xlink:title="The list node header.">
<polygon fill="white" stroke="black" points="139,-0.5 139,-28.5 236,-28.5 236,-0.5 139,-0.5"/>
<text text-anchor="start" x="147" y="-17.3" font-family="Helvetica,sans-Serif" font-size="9.00">std::__detail::_List</text>
<text text-anchor="middle" x="187.5" y="-7.3" font-family="Helvetica,sans-Serif" font-size="9.00">_node_header</text>
</a>
</g>
</g>
<!-- Node1&#45;&gt;Node3 -->
<g id="edge2" class="edge">
<title>Node1&#45;&gt;Node3</title>
<path fill="none" stroke="midnightblue" d="M143.94,-58.38C153.87,-48.61 165.51,-37.15 174.26,-28.54"/>
<polygon fill="midnightblue" stroke="midnightblue" points="141.43,-55.94 136.76,-65.45 146.34,-60.93 141.43,-55.94"/>
</g>
</g>
</svg>
