<?xml version="1.0" encoding="UTF-8" standalone="no"?>
<!DOCTYPE svg PUBLIC "-//W3C//DTD SVG 1.1//EN"
 "http://www.w3.org/Graphics/SVG/1.1/DTD/svg11.dtd">
<!-- Generated by graphviz version 2.50.0 (0)
 -->
<!-- Title: std::contiguous_iterator_tag Pages: 1 -->
<svg width="152pt" height="267pt"
 viewBox="0.00 0.00 152.00 267.00" xmlns="http://www.w3.org/2000/svg" xmlns:xlink="http://www.w3.org/1999/xlink">
<g id="graph0" class="graph" transform="scale(1 1) rotate(0) translate(4 263)">
<title>std::contiguous_iterator_tag</title>
<polygon fill="white" stroke="transparent" points="-4,4 -4,-263 148,-263 148,4 -4,4"/>
<!-- Node1 -->
<g id="node1" class="node">
<title>Node1</title>
<g id="a_node1"><a xlink:title="Contiguous iterators point to objects stored contiguously in memory.">
<polygon fill="#bfbfbf" stroke="black" points="0,-0.5 0,-18.5 144,-18.5 144,-0.5 0,-0.5"/>
<text text-anchor="middle" x="72" y="-7.3" font-family="Helvetica,sans-Serif" font-size="9.00">std::contiguous_iterator_tag</text>
</a>
</g>
</g>
<!-- Node2 -->
<g id="node2" class="node">
<title>Node2</title>
<g id="a_node2"><a xlink:href="a08638.html" target="_top" xlink:title="Random&#45;access iterators support a superset of bidirectional iterator operations.">
<polygon fill="white" stroke="black" points="18.5,-55.5 18.5,-83.5 125.5,-83.5 125.5,-55.5 18.5,-55.5"/>
<text text-anchor="start" x="26.5" y="-72.3" font-family="Helvetica,sans-Serif" font-size="9.00">std::random_access</text>
<text text-anchor="middle" x="72" y="-62.3" font-family="Helvetica,sans-Serif" font-size="9.00">_iterator_tag</text>
</a>
</g>
</g>
<!-- Node2&#45;&gt;Node1 -->
<g id="edge1" class="edge">
<title>Node2&#45;&gt;Node1</title>
<path fill="none" stroke="midnightblue" d="M72,-45.32C72,-35.94 72,-25.7 72,-18.77"/>
<polygon fill="midnightblue" stroke="midnightblue" points="68.5,-45.34 72,-55.34 75.5,-45.34 68.5,-45.34"/>
</g>
<!-- Node3 -->
<g id="node3" class="node">
<title>Node3</title>
<g id="a_node3"><a xlink:href="a08634.html" target="_top" xlink:title="Bidirectional iterators support a superset of forward iterator operations.">
<polygon fill="white" stroke="black" points="26,-120.5 26,-148.5 118,-148.5 118,-120.5 26,-120.5"/>
<text text-anchor="start" x="34" y="-137.3" font-family="Helvetica,sans-Serif" font-size="9.00">std::bidirectional</text>
<text text-anchor="middle" x="72" y="-127.3" font-family="Helvetica,sans-Serif" font-size="9.00">_iterator_tag</text>
</a>
</g>
</g>
<!-- Node3&#45;&gt;Node2 -->
<g id="edge2" class="edge">
<title>Node3&#45;&gt;Node2</title>
<path fill="none" stroke="midnightblue" d="M72,-110.16C72,-101.17 72,-91.22 72,-83.54"/>
<polygon fill="midnightblue" stroke="midnightblue" points="68.5,-110.45 72,-120.45 75.5,-110.45 68.5,-110.45"/>
</g>
<!-- Node4 -->
<g id="node4" class="node">
<title>Node4</title>
<g id="a_node4"><a xlink:href="a08630.html" target="_top" xlink:title="Forward iterators support a superset of input iterator operations.">
<polygon fill="white" stroke="black" points="8,-185.5 8,-203.5 136,-203.5 136,-185.5 8,-185.5"/>
<text text-anchor="middle" x="72" y="-192.3" font-family="Helvetica,sans-Serif" font-size="9.00">std::forward_iterator_tag</text>
</a>
</g>
</g>
<!-- Node4&#45;&gt;Node3 -->
<g id="edge3" class="edge">
<title>Node4&#45;&gt;Node3</title>
<path fill="none" stroke="midnightblue" d="M72,-175.32C72,-166.75 72,-156.7 72,-148.84"/>
<polygon fill="midnightblue" stroke="midnightblue" points="68.5,-175.44 72,-185.44 75.5,-175.44 68.5,-175.44"/>
</g>
<!-- Node5 -->
<g id="node5" class="node">
<title>Node5</title>
<g id="a_node5"><a xlink:href="a08622.html" target="_top" xlink:title="Marking input iterators.">
<polygon fill="white" stroke="black" points="13,-240.5 13,-258.5 131,-258.5 131,-240.5 13,-240.5"/>
<text text-anchor="middle" x="72" y="-247.3" font-family="Helvetica,sans-Serif" font-size="9.00">std::input_iterator_tag</text>
</a>
</g>
</g>
<!-- Node5&#45;&gt;Node4 -->
<g id="edge4" class="edge">
<title>Node5&#45;&gt;Node4</title>
<path fill="none" stroke="midnightblue" d="M72,-230.17C72,-221.09 72,-210.59 72,-203.55"/>
<polygon fill="midnightblue" stroke="midnightblue" points="68.5,-230.22 72,-240.22 75.5,-230.22 68.5,-230.22"/>
</g>
</g>
</svg>
