<?xml version="1.0" encoding="UTF-8" standalone="no"?>
<!DOCTYPE svg PUBLIC "-//W3C//DTD SVG 1.1//EN"
 "http://www.w3.org/Graphics/SVG/1.1/DTD/svg11.dtd">
<!-- Generated by graphviz version 2.50.0 (0)
 -->
<!-- Title: std::istream_iterator&lt; _Tp, _CharT, _Traits, _Dist &gt; Pages: 1 -->
<svg width="160pt" height="122pt"
 viewBox="0.00 0.00 160.00 122.00" xmlns="http://www.w3.org/2000/svg" xmlns:xlink="http://www.w3.org/1999/xlink">
<g id="graph0" class="graph" transform="scale(1 1) rotate(0) translate(4 118)">
<title>std::istream_iterator&lt; _Tp, _CharT, _Traits, _Dist &gt;</title>
<polygon fill="white" stroke="transparent" points="-4,4 -4,-118 156,-118 156,4 -4,4"/>
<!-- Node1 -->
<g id="node1" class="node">
<title>Node1</title>
<g id="a_node1"><a xlink:title="Provides input iterator semantics for streams.">
<polygon fill="#bfbfbf" stroke="black" points="18,-0.5 18,-38.5 134,-38.5 134,-0.5 18,-0.5"/>
<text text-anchor="start" x="26" y="-27.3" font-family="Helvetica,sans-Serif" font-size="9.00">std::istream_iterator</text>
<text text-anchor="start" x="26" y="-17.3" font-family="Helvetica,sans-Serif" font-size="9.00">&lt; _Tp, _CharT, _Traits,</text>
<text text-anchor="middle" x="76" y="-7.3" font-family="Helvetica,sans-Serif" font-size="9.00"> _Dist &gt;</text>
</a>
</g>
</g>
<!-- Node2 -->
<g id="node2" class="node">
<title>Node2</title>
<g id="a_node2"><a xlink:href="a08646.html" target="_top" xlink:title=" ">
<polygon fill="white" stroke="black" points="0,-75.5 0,-113.5 152,-113.5 152,-75.5 0,-75.5"/>
<text text-anchor="start" x="8" y="-102.3" font-family="Helvetica,sans-Serif" font-size="9.00">std::iterator&lt; input</text>
<text text-anchor="start" x="8" y="-92.3" font-family="Helvetica,sans-Serif" font-size="9.00">_iterator_tag, _Tp, ptrdiff</text>
<text text-anchor="middle" x="76" y="-82.3" font-family="Helvetica,sans-Serif" font-size="9.00">_t, const _Tp *, const _Tp &amp; &gt;</text>
</a>
</g>
</g>
<!-- Node2&#45;&gt;Node1 -->
<g id="edge1" class="edge">
<title>Node2&#45;&gt;Node1</title>
<path fill="none" stroke="midnightblue" d="M76,-65.37C76,-56.38 76,-46.67 76,-38.59"/>
<polygon fill="midnightblue" stroke="midnightblue" points="72.5,-65.46 76,-75.46 79.5,-65.46 72.5,-65.46"/>
</g>
</g>
</svg>
