<?xml version="1.0" encoding="UTF-8" standalone="no"?>
<!DOCTYPE svg PUBLIC "-//W3C//DTD SVG 1.1//EN"
 "http://www.w3.org/Graphics/SVG/1.1/DTD/svg11.dtd">
<!-- Generated by graphviz version 2.50.0 (0)
 -->
<!-- Title: std::ostream_iterator&lt; _Tp, _CharT, _Traits &gt; Pages: 1 -->
<svg width="132pt" height="112pt"
 viewBox="0.00 0.00 132.00 112.00" xmlns="http://www.w3.org/2000/svg" xmlns:xlink="http://www.w3.org/1999/xlink">
<g id="graph0" class="graph" transform="scale(1 1) rotate(0) translate(4 108)">
<title>std::ostream_iterator&lt; _Tp, _CharT, _Traits &gt;</title>
<polygon fill="white" stroke="transparent" points="-4,4 -4,-108 128,-108 128,4 -4,4"/>
<!-- Node1 -->
<g id="node1" class="node">
<title>Node1</title>
<g id="a_node1"><a xlink:title="Provides output iterator semantics for streams.">
<polygon fill="#bfbfbf" stroke="black" points="0,-0.5 0,-28.5 124,-28.5 124,-0.5 0,-0.5"/>
<text text-anchor="start" x="8" y="-17.3" font-family="Helvetica,sans-Serif" font-size="9.00">std::ostream_iterator</text>
<text text-anchor="middle" x="62" y="-7.3" font-family="Helvetica,sans-Serif" font-size="9.00">&lt; _Tp, _CharT, _Traits &gt;</text>
</a>
</g>
</g>
<!-- Node2 -->
<g id="node2" class="node">
<title>Node2</title>
<g id="a_node2"><a xlink:href="a08646.html" target="_top" xlink:title=" ">
<polygon fill="white" stroke="black" points="6.5,-65.5 6.5,-103.5 117.5,-103.5 117.5,-65.5 6.5,-65.5"/>
<text text-anchor="start" x="14.5" y="-92.3" font-family="Helvetica,sans-Serif" font-size="9.00">std::iterator&lt; output</text>
<text text-anchor="start" x="14.5" y="-82.3" font-family="Helvetica,sans-Serif" font-size="9.00">_iterator_tag, void,</text>
<text text-anchor="middle" x="62" y="-72.3" font-family="Helvetica,sans-Serif" font-size="9.00"> void, void, void &gt;</text>
</a>
</g>
</g>
<!-- Node2&#45;&gt;Node1 -->
<g id="edge1" class="edge">
<title>Node2&#45;&gt;Node1</title>
<path fill="none" stroke="midnightblue" d="M62,-55.01C62,-45.92 62,-36.29 62,-28.81"/>
<polygon fill="midnightblue" stroke="midnightblue" points="58.5,-55.28 62,-65.28 65.5,-55.28 58.5,-55.28"/>
</g>
</g>
</svg>
