<?xml version="1.0" encoding="UTF-8" standalone="no"?>
<!DOCTYPE svg PUBLIC "-//W3C//DTD SVG 1.1//EN"
 "http://www.w3.org/Graphics/SVG/1.1/DTD/svg11.dtd">
<!-- Generated by graphviz version 2.50.0 (0)
 -->
<!-- Title: __gnu_debug::_Safe_sequence_base Pages: 1 -->
<!--zoomable 1211 -->
<svg id="main" version="1.1" xmlns="http://www.w3.org/2000/svg" xmlns:xlink="http://www.w3.org/1999/xlink" xml:space="preserve" onload="init(evt)">
<style type="text/css"><![CDATA[
.edge:hover path { stroke: red; }
.edge:hover polygon { stroke: red; fill: red; }
]]></style>
<script type="text/javascript"><![CDATA[
var edges = document.getElementsByTagName('g');
if (edges && edges.length) {
  for (var i=0;i<edges.length;i++) {
    if (edges[i].id.substr(0,4)=='edge') {
      edges[i].setAttribute('class','edge');
    }
  }
}
]]></script>
        <defs>
                <circle id="rim" cx="0" cy="0" r="7"/>
                <circle id="rim2" cx="0" cy="0" r="3.5"/>
                <g id="zoomPlus">
                        <use xlink:href="#rim" fill="#404040">
                                <set attributeName="fill" to="#808080" begin="zoomplus.mouseover" end="zoomplus.mouseout"/>
                        </use>
                        <path d="M-4,0h8M0,-4v8" fill="none" stroke="white" stroke-width="1.5" pointer-events="none"/>
                </g>
                <g id="zoomMin">
                        <use xlink:href="#rim" fill="#404040">
                                <set attributeName="fill" to="#808080" begin="zoomminus.mouseover" end="zoomminus.mouseout"/>
                        </use>
                        <path d="M-4,0h8" fill="none" stroke="white" stroke-width="1.5" pointer-events="none"/>
                </g>
                <g id="dirArrow">
                        <path fill="none" stroke="white" stroke-width="1.5" d="M0,-3.0v7 M-2.5,-0.5L0,-3.0L2.5,-0.5"/>
                </g>
               <g id="resetDef">
                       <use xlink:href="#rim2" fill="#404040">
                               <set attributeName="fill" to="#808080" begin="reset.mouseover" end="reset.mouseout"/>
                       </use>
               </g>
        </defs>

<script type="text/javascript">
var viewWidth = 943;
var viewHeight = 1211;
var sectionId = 'dynsection-0';
</script>
<script xlink:href="svgpan.js"/>
<svg id="graph" class="graph">
<g id="viewport">
<title>__gnu_debug::_Safe_sequence_base</title>
<polygon fill="white" stroke="transparent" points="-4,4 -4,-1207 939,-1207 939,4 -4,4"/>
<!-- Node1 -->
<g id="node1" class="node">
<title>Node1</title>
<g id="a_node1"><a xlink:title="Base class that supports tracking of iterators that reference a sequence.">
<polygon fill="#bfbfbf" stroke="black" points="0,-946.5 0,-974.5 107,-974.5 107,-946.5 0,-946.5"/>
<text text-anchor="start" x="8" y="-963.3" font-family="Helvetica,sans-Serif" font-size="9.00">__gnu_debug::_Safe</text>
<text text-anchor="middle" x="53.5" y="-953.3" font-family="Helvetica,sans-Serif" font-size="9.00">_sequence_base</text>
</a>
</g>
</g>
<!-- Node2 -->
<g id="node2" class="node">
<title>Node2</title>
<g id="a_node2"><a xlink:href="a09550.html" target="_top" xlink:title=" ">
<polygon fill="white" stroke="black" points="143,-1073.5 143,-1101.5 298,-1101.5 298,-1073.5 143,-1073.5"/>
<text text-anchor="start" x="151" y="-1090.3" font-family="Helvetica,sans-Serif" font-size="9.00">__gnu_debug::_Safe</text>
<text text-anchor="middle" x="220.5" y="-1080.3" font-family="Helvetica,sans-Serif" font-size="9.00">_sequence&lt; _SafeSequence &gt;</text>
</a>
</g>
</g>
<!-- Node1&#45;&gt;Node2 -->
<g id="edge1" class="edge">
<title>Node1&#45;&gt;Node2</title>
<path fill="none" stroke="midnightblue" d="M80.8,-980.74C114.44,-1006.63 171.84,-1050.82 201.13,-1073.36"/>
<polygon fill="midnightblue" stroke="midnightblue" points="82.85,-977.9 72.79,-974.58 78.58,-983.45 82.85,-977.9"/>
</g>
<!-- Node6 -->
<g id="node6" class="node">
<title>Node6</title>
<g id="a_node6"><a xlink:href="a09550.html" target="_top" xlink:title="Base class for constructing a safe sequence type that tracks iterators that reference it.">
<polygon fill="white" stroke="black" points="153,-946.5 153,-974.5 288,-974.5 288,-946.5 153,-946.5"/>
<text text-anchor="start" x="161" y="-963.3" font-family="Helvetica,sans-Serif" font-size="9.00">__gnu_debug::_Safe</text>
<text text-anchor="middle" x="220.5" y="-953.3" font-family="Helvetica,sans-Serif" font-size="9.00">_sequence&lt; _Sequence &gt;</text>
</a>
</g>
</g>
<!-- Node1&#45;&gt;Node6 -->
<g id="edge5" class="edge">
<title>Node1&#45;&gt;Node6</title>
<path fill="none" stroke="midnightblue" d="M117.23,-960.5C128.87,-960.5 141.08,-960.5 152.84,-960.5"/>
<polygon fill="midnightblue" stroke="midnightblue" points="117.16,-957 107.16,-960.5 117.16,-964 117.16,-957"/>
</g>
<!-- Node24 -->
<g id="node24" class="node">
<title>Node24</title>
<g id="a_node24"><a xlink:href="a09702.html" target="_top" xlink:title="Base class that supports tracking of local iterators that reference an unordered container.">
<polygon fill="white" stroke="black" points="150,-621.5 150,-649.5 291,-649.5 291,-621.5 150,-621.5"/>
<text text-anchor="start" x="158" y="-638.3" font-family="Helvetica,sans-Serif" font-size="9.00">__gnu_debug::_Safe</text>
<text text-anchor="middle" x="220.5" y="-628.3" font-family="Helvetica,sans-Serif" font-size="9.00">_unordered_container_base</text>
</a>
</g>
</g>
<!-- Node1&#45;&gt;Node24 -->
<g id="edge23" class="edge">
<title>Node1&#45;&gt;Node24</title>
<path fill="none" stroke="midnightblue" d="M66.48,-936.91C98.69,-873.46 186.49,-700.53 212.28,-649.72"/>
<polygon fill="midnightblue" stroke="midnightblue" points="63.21,-935.61 61.8,-946.12 69.45,-938.78 63.21,-935.61"/>
</g>
<!-- Node3 -->
<g id="node3" class="node">
<title>Node3</title>
<g id="a_node3"><a xlink:href="a09750.html" target="_top" xlink:title="Special iterators swap and invalidation for forward_list because of the before_begin iterator.">
<polygon fill="white" stroke="black" points="338,-1154.5 338,-1182.5 501,-1182.5 501,-1154.5 338,-1154.5"/>
<text text-anchor="start" x="346" y="-1171.3" font-family="Helvetica,sans-Serif" font-size="9.00">__gnu_debug::_Safe</text>
<text text-anchor="middle" x="419.5" y="-1161.3" font-family="Helvetica,sans-Serif" font-size="9.00">_forward_list&lt; _SafeSequence &gt;</text>
</a>
</g>
</g>
<!-- Node2&#45;&gt;Node3 -->
<g id="edge2" class="edge">
<title>Node2&#45;&gt;Node3</title>
<path fill="none" stroke="midnightblue" d="M254.31,-1106.75C276.3,-1119.06 306.22,-1134.7 334,-1145.5 342.36,-1148.75 351.36,-1151.73 360.25,-1154.38"/>
<polygon fill="midnightblue" stroke="midnightblue" points="255.82,-1103.58 245.39,-1101.7 252.37,-1109.67 255.82,-1103.58"/>
</g>
<!-- Node4 -->
<g id="node4" class="node">
<title>Node4</title>
<g id="a_node4"><a xlink:href="a09654.html" target="_top" xlink:title=" ">
<polygon fill="white" stroke="black" points="565.5,-1134.5 565.5,-1202.5 715.5,-1202.5 715.5,-1134.5 565.5,-1134.5"/>
<text text-anchor="start" x="573.5" y="-1191.3" font-family="Helvetica,sans-Serif" font-size="9.00">__gnu_debug::_Safe</text>
<text text-anchor="start" x="573.5" y="-1181.3" font-family="Helvetica,sans-Serif" font-size="9.00">_container&lt; forward</text>
<text text-anchor="start" x="573.5" y="-1171.3" font-family="Helvetica,sans-Serif" font-size="9.00">_list&lt; _Tp, std::allocator</text>
<text text-anchor="start" x="573.5" y="-1161.3" font-family="Helvetica,sans-Serif" font-size="9.00">&lt; _Tp &gt; &gt;, std::allocator</text>
<text text-anchor="start" x="573.5" y="-1151.3" font-family="Helvetica,sans-Serif" font-size="9.00">&lt; _Tp &gt;, __gnu_debug::_Safe</text>
<text text-anchor="middle" x="640.5" y="-1141.3" font-family="Helvetica,sans-Serif" font-size="9.00">_forward_list &gt;</text>
</a>
</g>
</g>
<!-- Node3&#45;&gt;Node4 -->
<g id="edge3" class="edge">
<title>Node3&#45;&gt;Node4</title>
<path fill="none" stroke="midnightblue" d="M511.3,-1168.5C529.25,-1168.5 547.9,-1168.5 565.23,-1168.5"/>
<polygon fill="midnightblue" stroke="midnightblue" points="511.11,-1165 501.11,-1168.5 511.11,-1172 511.11,-1165"/>
</g>
<!-- Node5 -->
<g id="node5" class="node">
<title>Node5</title>
<g id="a_node5"><a xlink:href="a09746.html" target="_top" xlink:title="Class std::forward_list with safety/checking/debug instrumentation.">
<polygon fill="white" stroke="black" points="797.5,-1154.5 797.5,-1182.5 913.5,-1182.5 913.5,-1154.5 797.5,-1154.5"/>
<text text-anchor="start" x="805.5" y="-1171.3" font-family="Helvetica,sans-Serif" font-size="9.00">std::__debug::forward</text>
<text text-anchor="middle" x="855.5" y="-1161.3" font-family="Helvetica,sans-Serif" font-size="9.00">_list&lt; _Tp, _Alloc &gt;</text>
</a>
</g>
</g>
<!-- Node4&#45;&gt;Node5 -->
<g id="edge4" class="edge">
<title>Node4&#45;&gt;Node5</title>
<path fill="none" stroke="midnightblue" d="M725.86,-1168.5C749.84,-1168.5 775.39,-1168.5 797.34,-1168.5"/>
<polygon fill="midnightblue" stroke="midnightblue" points="725.7,-1165 715.7,-1168.5 725.7,-1172 725.7,-1165"/>
</g>
<!-- Node7 -->
<g id="node7" class="node">
<title>Node7</title>
<g id="a_node7"><a xlink:href="a09654.html" target="_top" xlink:title=" ">
<polygon fill="white" stroke="black" points="334,-1057.5 334,-1135.5 505,-1135.5 505,-1057.5 334,-1057.5"/>
<text text-anchor="start" x="342" y="-1124.3" font-family="Helvetica,sans-Serif" font-size="9.00">__gnu_debug::_Safe</text>
<text text-anchor="start" x="342" y="-1114.3" font-family="Helvetica,sans-Serif" font-size="9.00">_container&lt; basic_string</text>
<text text-anchor="start" x="342" y="-1104.3" font-family="Helvetica,sans-Serif" font-size="9.00">&lt; _CharT, std::char_traits</text>
<text text-anchor="start" x="342" y="-1094.3" font-family="Helvetica,sans-Serif" font-size="9.00">&lt; _CharT &gt;, std::allocator</text>
<text text-anchor="start" x="342" y="-1084.3" font-family="Helvetica,sans-Serif" font-size="9.00">&lt; _CharT &gt; &gt;, std::allocator</text>
<text text-anchor="start" x="342" y="-1074.3" font-family="Helvetica,sans-Serif" font-size="9.00">&lt; _CharT &gt;, _Safe_sequence, bool</text>
<text text-anchor="middle" x="419.5" y="-1064.3" font-family="Helvetica,sans-Serif" font-size="9.00">(_GLIBCXX_USE_CXX11_ABI)&gt;</text>
</a>
</g>
</g>
<!-- Node6&#45;&gt;Node7 -->
<g id="edge6" class="edge">
<title>Node6&#45;&gt;Node7</title>
<path fill="none" stroke="midnightblue" d="M246,-981.37C268.27,-999.93 302.4,-1027.33 334,-1048.5 338.49,-1051.5 343.17,-1054.51 347.93,-1057.46"/>
<polygon fill="midnightblue" stroke="midnightblue" points="247.98,-978.47 238.07,-974.72 243.48,-983.83 247.98,-978.47"/>
</g>
<!-- Node9 -->
<g id="node9" class="node">
<title>Node9</title>
<g id="a_node9"><a xlink:href="a09654.html" target="_top" xlink:title=" ">
<polygon fill="white" stroke="black" points="344.5,-970.5 344.5,-1038.5 494.5,-1038.5 494.5,-970.5 344.5,-970.5"/>
<text text-anchor="start" x="352.5" y="-1027.3" font-family="Helvetica,sans-Serif" font-size="9.00">__gnu_debug::_Safe</text>
<text text-anchor="start" x="352.5" y="-1017.3" font-family="Helvetica,sans-Serif" font-size="9.00">_container&lt; vector&lt;</text>
<text text-anchor="start" x="352.5" y="-1007.3" font-family="Helvetica,sans-Serif" font-size="9.00"> _Tp, std::allocator</text>
<text text-anchor="start" x="352.5" y="-997.3" font-family="Helvetica,sans-Serif" font-size="9.00">&lt; _Tp &gt; &gt;, std::allocator</text>
<text text-anchor="start" x="352.5" y="-987.3" font-family="Helvetica,sans-Serif" font-size="9.00">&lt; _Tp &gt;, __gnu_debug::_Safe</text>
<text text-anchor="middle" x="419.5" y="-977.3" font-family="Helvetica,sans-Serif" font-size="9.00">_sequence &gt;</text>
</a>
</g>
</g>
<!-- Node6&#45;&gt;Node9 -->
<g id="edge8" class="edge">
<title>Node6&#45;&gt;Node9</title>
<path fill="none" stroke="midnightblue" d="M294.35,-976.77C310.61,-980.4 327.87,-984.26 344.19,-987.9"/>
<polygon fill="midnightblue" stroke="midnightblue" points="294.9,-973.31 284.37,-974.54 293.37,-980.14 294.9,-973.31"/>
</g>
<!-- Node11 -->
<g id="node11" class="node">
<title>Node11</title>
<g id="a_node11"><a xlink:href="a09654.html" target="_top" xlink:title=" ">
<polygon fill="white" stroke="black" points="344.5,-883.5 344.5,-951.5 494.5,-951.5 494.5,-883.5 344.5,-883.5"/>
<text text-anchor="start" x="352.5" y="-940.3" font-family="Helvetica,sans-Serif" font-size="9.00">__gnu_debug::_Safe</text>
<text text-anchor="start" x="352.5" y="-930.3" font-family="Helvetica,sans-Serif" font-size="9.00">_container&lt; deque&lt; </text>
<text text-anchor="start" x="352.5" y="-920.3" font-family="Helvetica,sans-Serif" font-size="9.00">_Tp, std::allocator&lt;</text>
<text text-anchor="start" x="352.5" y="-910.3" font-family="Helvetica,sans-Serif" font-size="9.00"> _Tp &gt; &gt;, std::allocator</text>
<text text-anchor="start" x="352.5" y="-900.3" font-family="Helvetica,sans-Serif" font-size="9.00">&lt; _Tp &gt;, __gnu_debug::_Safe</text>
<text text-anchor="middle" x="419.5" y="-890.3" font-family="Helvetica,sans-Serif" font-size="9.00">_sequence &gt;</text>
</a>
</g>
</g>
<!-- Node6&#45;&gt;Node11 -->
<g id="edge10" class="edge">
<title>Node6&#45;&gt;Node11</title>
<path fill="none" stroke="midnightblue" d="M295.55,-944.34C311.54,-940.85 328.45,-937.16 344.43,-933.67"/>
<polygon fill="midnightblue" stroke="midnightblue" points="294.76,-940.93 285.73,-946.48 296.25,-947.77 294.76,-940.93"/>
</g>
<!-- Node13 -->
<g id="node13" class="node">
<title>Node13</title>
<g id="a_node13"><a xlink:href="a09694.html" target="_top" xlink:title="Like _Safe_sequence but with a special _M_invalidate_all implementation not invalidating past&#45;the&#45;end...">
<polygon fill="white" stroke="black" points="338.5,-733.5 338.5,-761.5 500.5,-761.5 500.5,-733.5 338.5,-733.5"/>
<text text-anchor="start" x="346.5" y="-750.3" font-family="Helvetica,sans-Serif" font-size="9.00">__gnu_debug::_Safe</text>
<text text-anchor="middle" x="419.5" y="-740.3" font-family="Helvetica,sans-Serif" font-size="9.00">_node_sequence&lt; _Sequence &gt;</text>
</a>
</g>
</g>
<!-- Node6&#45;&gt;Node13 -->
<g id="edge12" class="edge">
<title>Node6&#45;&gt;Node13</title>
<path fill="none" stroke="midnightblue" d="M241.66,-938.7C281.99,-895.1 371.6,-798.2 405.33,-761.74"/>
<polygon fill="midnightblue" stroke="midnightblue" points="238.95,-936.48 234.73,-946.19 244.09,-941.23 238.95,-936.48"/>
</g>
<!-- Node8 -->
<g id="node8" class="node">
<title>Node8</title>
<g id="a_node8"><a xlink:href="a09786.html" target="_top" xlink:title="Class std::basic_string with safety/checking/debug instrumentation.">
<polygon fill="white" stroke="black" points="578,-1077.5 578,-1115.5 703,-1115.5 703,-1077.5 578,-1077.5"/>
<text text-anchor="start" x="586" y="-1104.3" font-family="Helvetica,sans-Serif" font-size="9.00">__gnu_debug::basic</text>
<text text-anchor="start" x="586" y="-1094.3" font-family="Helvetica,sans-Serif" font-size="9.00">_string&lt; _CharT, _Traits,</text>
<text text-anchor="middle" x="640.5" y="-1084.3" font-family="Helvetica,sans-Serif" font-size="9.00"> _Allocator &gt;</text>
</a>
</g>
</g>
<!-- Node7&#45;&gt;Node8 -->
<g id="edge7" class="edge">
<title>Node7&#45;&gt;Node8</title>
<path fill="none" stroke="midnightblue" d="M515.18,-1096.5C536.38,-1096.5 558.35,-1096.5 577.8,-1096.5"/>
<polygon fill="midnightblue" stroke="midnightblue" points="515.17,-1093 505.17,-1096.5 515.17,-1100 515.17,-1093"/>
</g>
<!-- Node10 -->
<g id="node10" class="node">
<title>Node10</title>
<g id="a_node10"><a xlink:href="a09834.html" target="_top" xlink:title="Class std::vector with safety/checking/debug instrumentation.">
<polygon fill="white" stroke="black" points="585.5,-1010.5 585.5,-1038.5 695.5,-1038.5 695.5,-1010.5 585.5,-1010.5"/>
<text text-anchor="start" x="593.5" y="-1027.3" font-family="Helvetica,sans-Serif" font-size="9.00">std::__debug::vector</text>
<text text-anchor="middle" x="640.5" y="-1017.3" font-family="Helvetica,sans-Serif" font-size="9.00">&lt; _Tp, _Allocator &gt;</text>
</a>
</g>
</g>
<!-- Node9&#45;&gt;Node10 -->
<g id="edge9" class="edge">
<title>Node9&#45;&gt;Node10</title>
<path fill="none" stroke="midnightblue" d="M504.86,-1012.2C531.82,-1014.67 560.93,-1017.32 585.16,-1019.54"/>
<polygon fill="midnightblue" stroke="midnightblue" points="504.92,-1008.7 494.64,-1011.27 504.28,-1015.67 504.92,-1008.7"/>
</g>
<!-- Node12 -->
<g id="node12" class="node">
<title>Node12</title>
<g id="a_node12"><a xlink:href="a09738.html" target="_top" xlink:title="Class std::deque with safety/checking/debug instrumentation.">
<polygon fill="white" stroke="black" points="585.5,-963.5 585.5,-991.5 695.5,-991.5 695.5,-963.5 585.5,-963.5"/>
<text text-anchor="start" x="593.5" y="-980.3" font-family="Helvetica,sans-Serif" font-size="9.00">std::__debug::deque</text>
<text text-anchor="middle" x="640.5" y="-970.3" font-family="Helvetica,sans-Serif" font-size="9.00">&lt; _Tp, _Allocator &gt;</text>
</a>
</g>
</g>
<!-- Node11&#45;&gt;Node12 -->
<g id="edge11" class="edge">
<title>Node11&#45;&gt;Node12</title>
<path fill="none" stroke="midnightblue" d="M504.29,-944.03C516.56,-947.69 529.08,-951.28 541,-954.5 555.33,-958.37 570.93,-962.19 585.4,-965.57"/>
<polygon fill="midnightblue" stroke="midnightblue" points="505.1,-940.62 494.51,-941.1 503.08,-947.33 505.1,-940.62"/>
</g>
<!-- Node14 -->
<g id="node14" class="node">
<title>Node14</title>
<g id="a_node14"><a xlink:href="a09654.html" target="_top" xlink:title=" ">
<polygon fill="white" stroke="black" points="565,-866.5 565,-944.5 716,-944.5 716,-866.5 565,-866.5"/>
<text text-anchor="start" x="573" y="-933.3" font-family="Helvetica,sans-Serif" font-size="9.00">__gnu_debug::_Safe</text>
<text text-anchor="start" x="573" y="-923.3" font-family="Helvetica,sans-Serif" font-size="9.00">_container&lt; multiset</text>
<text text-anchor="start" x="573" y="-913.3" font-family="Helvetica,sans-Serif" font-size="9.00">&lt; _Key, std::less&lt; _Key</text>
<text text-anchor="start" x="573" y="-903.3" font-family="Helvetica,sans-Serif" font-size="9.00"> &gt;, std::allocator&lt; _Key</text>
<text text-anchor="start" x="573" y="-893.3" font-family="Helvetica,sans-Serif" font-size="9.00"> &gt; &gt;, std::allocator&lt; _Key</text>
<text text-anchor="start" x="573" y="-883.3" font-family="Helvetica,sans-Serif" font-size="9.00"> &gt;, __gnu_debug::_Safe_node</text>
<text text-anchor="middle" x="640.5" y="-873.3" font-family="Helvetica,sans-Serif" font-size="9.00">_sequence &gt;</text>
</a>
</g>
</g>
<!-- Node13&#45;&gt;Node14 -->
<g id="edge13" class="edge">
<title>Node13&#45;&gt;Node14</title>
<path fill="none" stroke="midnightblue" d="M440.57,-769.23C463.31,-792.99 502.26,-831.19 541,-857.5 548.47,-862.58 556.57,-867.42 564.79,-871.95"/>
<polygon fill="midnightblue" stroke="midnightblue" points="442.92,-766.62 433.5,-761.76 437.83,-771.43 442.92,-766.62"/>
</g>
<!-- Node16 -->
<g id="node16" class="node">
<title>Node16</title>
<g id="a_node16"><a xlink:href="a09654.html" target="_top" xlink:title=" ">
<polygon fill="white" stroke="black" points="560,-749.5 560,-847.5 721,-847.5 721,-749.5 560,-749.5"/>
<text text-anchor="start" x="568" y="-836.3" font-family="Helvetica,sans-Serif" font-size="9.00">__gnu_debug::_Safe</text>
<text text-anchor="start" x="568" y="-826.3" font-family="Helvetica,sans-Serif" font-size="9.00">_container&lt; multimap</text>
<text text-anchor="start" x="568" y="-816.3" font-family="Helvetica,sans-Serif" font-size="9.00">&lt; _Key, _Tp, std::less</text>
<text text-anchor="start" x="568" y="-806.3" font-family="Helvetica,sans-Serif" font-size="9.00">&lt; _Key &gt;, std::allocator</text>
<text text-anchor="start" x="568" y="-796.3" font-family="Helvetica,sans-Serif" font-size="9.00">&lt; std::pair&lt; const _Key,</text>
<text text-anchor="start" x="568" y="-786.3" font-family="Helvetica,sans-Serif" font-size="9.00"> _Tp &gt; &gt; &gt;, std::allocator</text>
<text text-anchor="start" x="568" y="-776.3" font-family="Helvetica,sans-Serif" font-size="9.00">&lt; std::pair&lt; const _Key, _Tp</text>
<text text-anchor="start" x="568" y="-766.3" font-family="Helvetica,sans-Serif" font-size="9.00"> &gt; &gt;, __gnu_debug::_Safe_node</text>
<text text-anchor="middle" x="640.5" y="-756.3" font-family="Helvetica,sans-Serif" font-size="9.00">_sequence &gt;</text>
</a>
</g>
</g>
<!-- Node13&#45;&gt;Node16 -->
<g id="edge15" class="edge">
<title>Node13&#45;&gt;Node16</title>
<path fill="none" stroke="midnightblue" d="M490.57,-763.82C512.62,-768.95 537.13,-774.66 559.8,-779.94"/>
<polygon fill="midnightblue" stroke="midnightblue" points="491.17,-760.36 480.63,-761.5 489.58,-767.18 491.17,-760.36"/>
</g>
<!-- Node18 -->
<g id="node18" class="node">
<title>Node18</title>
<g id="a_node18"><a xlink:href="a09654.html" target="_top" xlink:title=" ">
<polygon fill="white" stroke="black" points="565,-662.5 565,-730.5 716,-730.5 716,-662.5 565,-662.5"/>
<text text-anchor="start" x="573" y="-719.3" font-family="Helvetica,sans-Serif" font-size="9.00">__gnu_debug::_Safe</text>
<text text-anchor="start" x="573" y="-709.3" font-family="Helvetica,sans-Serif" font-size="9.00">_container&lt; list&lt; _Tp,</text>
<text text-anchor="start" x="573" y="-699.3" font-family="Helvetica,sans-Serif" font-size="9.00"> std::allocator&lt; _Tp &gt;</text>
<text text-anchor="start" x="573" y="-689.3" font-family="Helvetica,sans-Serif" font-size="9.00"> &gt;, std::allocator&lt; _Tp</text>
<text text-anchor="start" x="573" y="-679.3" font-family="Helvetica,sans-Serif" font-size="9.00"> &gt;, __gnu_debug::_Safe_node</text>
<text text-anchor="middle" x="640.5" y="-669.3" font-family="Helvetica,sans-Serif" font-size="9.00">_sequence &gt;</text>
</a>
</g>
</g>
<!-- Node13&#45;&gt;Node18 -->
<g id="edge17" class="edge">
<title>Node13&#45;&gt;Node18</title>
<path fill="none" stroke="midnightblue" d="M490.57,-731.18C514.2,-725.68 540.66,-719.52 564.64,-713.93"/>
<polygon fill="midnightblue" stroke="midnightblue" points="489.58,-727.82 480.63,-733.5 491.17,-734.64 489.58,-727.82"/>
</g>
<!-- Node20 -->
<g id="node20" class="node">
<title>Node20</title>
<g id="a_node20"><a xlink:href="a09654.html" target="_top" xlink:title=" ">
<polygon fill="white" stroke="black" points="541,-555.5 541,-643.5 740,-643.5 740,-555.5 541,-555.5"/>
<text text-anchor="start" x="549" y="-632.3" font-family="Helvetica,sans-Serif" font-size="9.00">__gnu_debug::_Safe</text>
<text text-anchor="start" x="549" y="-622.3" font-family="Helvetica,sans-Serif" font-size="9.00">_container&lt; map&lt; _Key,</text>
<text text-anchor="start" x="549" y="-612.3" font-family="Helvetica,sans-Serif" font-size="9.00"> _Tp, std::less&lt; _Key</text>
<text text-anchor="start" x="549" y="-602.3" font-family="Helvetica,sans-Serif" font-size="9.00"> &gt;, std::allocator&lt; std</text>
<text text-anchor="start" x="549" y="-592.3" font-family="Helvetica,sans-Serif" font-size="9.00">::pair&lt; const _Key, _Tp</text>
<text text-anchor="start" x="549" y="-582.3" font-family="Helvetica,sans-Serif" font-size="9.00"> &gt; &gt; &gt;, std::allocator&lt; std</text>
<text text-anchor="start" x="549" y="-572.3" font-family="Helvetica,sans-Serif" font-size="9.00">::pair&lt; const _Key, _Tp &gt; &gt;</text>
<text text-anchor="middle" x="640.5" y="-562.3" font-family="Helvetica,sans-Serif" font-size="9.00">, __gnu_debug::_Safe_node_sequence &gt;</text>
</a>
</g>
</g>
<!-- Node13&#45;&gt;Node20 -->
<g id="edge19" class="edge">
<title>Node13&#45;&gt;Node20</title>
<path fill="none" stroke="midnightblue" d="M444.81,-726.64C468.56,-706.73 506.1,-676.46 541,-653.5 546.05,-650.18 551.32,-646.87 556.69,-643.62"/>
<polygon fill="midnightblue" stroke="midnightblue" points="442.4,-724.09 437.02,-733.22 446.92,-729.44 442.4,-724.09"/>
</g>
<!-- Node22 -->
<g id="node22" class="node">
<title>Node22</title>
<g id="a_node22"><a xlink:href="a09654.html" target="_top" xlink:title=" ">
<polygon fill="white" stroke="black" points="557.5,-468.5 557.5,-536.5 723.5,-536.5 723.5,-468.5 557.5,-468.5"/>
<text text-anchor="start" x="565.5" y="-525.3" font-family="Helvetica,sans-Serif" font-size="9.00">__gnu_debug::_Safe</text>
<text text-anchor="start" x="565.5" y="-515.3" font-family="Helvetica,sans-Serif" font-size="9.00">_container&lt; set&lt; _Key,</text>
<text text-anchor="start" x="565.5" y="-505.3" font-family="Helvetica,sans-Serif" font-size="9.00"> std::less&lt; _Key &gt;, std</text>
<text text-anchor="start" x="565.5" y="-495.3" font-family="Helvetica,sans-Serif" font-size="9.00">::allocator&lt; _Key &gt; &gt;, std</text>
<text text-anchor="start" x="565.5" y="-485.3" font-family="Helvetica,sans-Serif" font-size="9.00">::allocator&lt; _Key &gt;, __gnu</text>
<text text-anchor="middle" x="640.5" y="-475.3" font-family="Helvetica,sans-Serif" font-size="9.00">_debug::_Safe_node_sequence &gt;</text>
</a>
</g>
</g>
<!-- Node13&#45;&gt;Node22 -->
<g id="edge21" class="edge">
<title>Node13&#45;&gt;Node22</title>
<path fill="none" stroke="midnightblue" d="M429.12,-723.88C445.21,-682.75 483.47,-597.51 541,-546.5 546.04,-542.03 551.62,-537.94 557.47,-534.22"/>
<polygon fill="midnightblue" stroke="midnightblue" points="425.81,-722.74 425.51,-733.34 432.35,-725.24 425.81,-722.74"/>
</g>
<!-- Node15 -->
<g id="node15" class="node">
<title>Node15</title>
<g id="a_node15"><a xlink:href="a09638.html" target="_top" xlink:title="Class std::multiset with safety/checking/debug instrumentation.">
<polygon fill="white" stroke="black" points="776,-891.5 776,-919.5 935,-919.5 935,-891.5 776,-891.5"/>
<text text-anchor="start" x="784" y="-908.3" font-family="Helvetica,sans-Serif" font-size="9.00">std::__debug::multiset</text>
<text text-anchor="middle" x="855.5" y="-898.3" font-family="Helvetica,sans-Serif" font-size="9.00">&lt; _Key, _Compare, _Allocator &gt;</text>
</a>
</g>
</g>
<!-- Node14&#45;&gt;Node15 -->
<g id="edge14" class="edge">
<title>Node14&#45;&gt;Node15</title>
<path fill="none" stroke="midnightblue" d="M726.37,-905.5C742.72,-905.5 759.77,-905.5 775.91,-905.5"/>
<polygon fill="midnightblue" stroke="midnightblue" points="726.3,-902 716.3,-905.5 726.3,-909 726.3,-902"/>
</g>
<!-- Node17 -->
<g id="node17" class="node">
<title>Node17</title>
<g id="a_node17"><a xlink:href="a09630.html" target="_top" xlink:title="Class std::multimap with safety/checking/debug instrumentation.">
<polygon fill="white" stroke="black" points="793,-779.5 793,-817.5 918,-817.5 918,-779.5 793,-779.5"/>
<text text-anchor="start" x="801" y="-806.3" font-family="Helvetica,sans-Serif" font-size="9.00">std::__debug::multimap</text>
<text text-anchor="start" x="801" y="-796.3" font-family="Helvetica,sans-Serif" font-size="9.00">&lt; _Key, _Tp, _Compare,</text>
<text text-anchor="middle" x="855.5" y="-786.3" font-family="Helvetica,sans-Serif" font-size="9.00"> _Allocator &gt;</text>
</a>
</g>
</g>
<!-- Node16&#45;&gt;Node17 -->
<g id="edge16" class="edge">
<title>Node16&#45;&gt;Node17</title>
<path fill="none" stroke="midnightblue" d="M731.23,-798.5C752.02,-798.5 773.68,-798.5 792.94,-798.5"/>
<polygon fill="midnightblue" stroke="midnightblue" points="731.12,-795 721.12,-798.5 731.12,-802 731.12,-795"/>
</g>
<!-- Node19 -->
<g id="node19" class="node">
<title>Node19</title>
<g id="a_node19"><a xlink:href="a09770.html" target="_top" xlink:title="Class std::list with safety/checking/debug instrumentation.">
<polygon fill="white" stroke="black" points="804,-682.5 804,-710.5 907,-710.5 907,-682.5 804,-682.5"/>
<text text-anchor="start" x="812" y="-699.3" font-family="Helvetica,sans-Serif" font-size="9.00">std::__debug::list</text>
<text text-anchor="middle" x="855.5" y="-689.3" font-family="Helvetica,sans-Serif" font-size="9.00">&lt; _Tp, _Allocator &gt;</text>
</a>
</g>
</g>
<!-- Node18&#45;&gt;Node19 -->
<g id="edge18" class="edge">
<title>Node18&#45;&gt;Node19</title>
<path fill="none" stroke="midnightblue" d="M726.62,-696.5C752.83,-696.5 780.83,-696.5 803.94,-696.5"/>
<polygon fill="midnightblue" stroke="midnightblue" points="726.3,-693 716.3,-696.5 726.3,-700 726.3,-693"/>
</g>
<!-- Node21 -->
<g id="node21" class="node">
<title>Node21</title>
<g id="a_node21"><a xlink:href="a09622.html" target="_top" xlink:title="Class std::map with safety/checking/debug instrumentation.">
<polygon fill="white" stroke="black" points="797.5,-580.5 797.5,-618.5 913.5,-618.5 913.5,-580.5 797.5,-580.5"/>
<text text-anchor="start" x="805.5" y="-607.3" font-family="Helvetica,sans-Serif" font-size="9.00">std::__debug::map&lt;</text>
<text text-anchor="start" x="805.5" y="-597.3" font-family="Helvetica,sans-Serif" font-size="9.00"> _Key, _Tp, _Compare,</text>
<text text-anchor="middle" x="855.5" y="-587.3" font-family="Helvetica,sans-Serif" font-size="9.00"> _Allocator &gt;</text>
</a>
</g>
</g>
<!-- Node20&#45;&gt;Node21 -->
<g id="edge20" class="edge">
<title>Node20&#45;&gt;Node21</title>
<path fill="none" stroke="midnightblue" d="M750.32,-599.5C766.58,-599.5 782.76,-599.5 797.36,-599.5"/>
<polygon fill="midnightblue" stroke="midnightblue" points="750.21,-596 740.21,-599.5 750.21,-603 750.21,-596"/>
</g>
<!-- Node23 -->
<g id="node23" class="node">
<title>Node23</title>
<g id="a_node23"><a xlink:href="a09722.html" target="_top" xlink:title="Class std::set with safety/checking/debug instrumentation.">
<polygon fill="white" stroke="black" points="779.5,-488.5 779.5,-516.5 931.5,-516.5 931.5,-488.5 779.5,-488.5"/>
<text text-anchor="start" x="787.5" y="-505.3" font-family="Helvetica,sans-Serif" font-size="9.00">std::__debug::set&lt;</text>
<text text-anchor="middle" x="855.5" y="-495.3" font-family="Helvetica,sans-Serif" font-size="9.00"> _Key, _Compare, _Allocator &gt;</text>
</a>
</g>
</g>
<!-- Node22&#45;&gt;Node23 -->
<g id="edge22" class="edge">
<title>Node22&#45;&gt;Node23</title>
<path fill="none" stroke="midnightblue" d="M733.55,-502.5C748.89,-502.5 764.63,-502.5 779.47,-502.5"/>
<polygon fill="midnightblue" stroke="midnightblue" points="733.55,-499 723.55,-502.5 733.55,-506 733.55,-499"/>
</g>
<!-- Node25 -->
<g id="node25" class="node">
<title>Node25</title>
<g id="a_node25"><a xlink:href="a09706.html" target="_top" xlink:title="Base class for constructing a safe unordered container type that tracks iterators that reference it.">
<polygon fill="white" stroke="black" points="361.5,-274.5 361.5,-312.5 477.5,-312.5 477.5,-274.5 361.5,-274.5"/>
<text text-anchor="start" x="369.5" y="-301.3" font-family="Helvetica,sans-Serif" font-size="9.00">__gnu_debug::_Safe</text>
<text text-anchor="start" x="369.5" y="-291.3" font-family="Helvetica,sans-Serif" font-size="9.00">_unordered_container</text>
<text text-anchor="middle" x="419.5" y="-281.3" font-family="Helvetica,sans-Serif" font-size="9.00">&lt; _Container &gt;</text>
</a>
</g>
</g>
<!-- Node24&#45;&gt;Node25 -->
<g id="edge24" class="edge">
<title>Node24&#45;&gt;Node25</title>
<path fill="none" stroke="midnightblue" d="M234.83,-612.35C271.54,-548.63 373.6,-371.45 407.44,-312.7"/>
<polygon fill="midnightblue" stroke="midnightblue" points="231.67,-610.83 229.71,-621.24 237.74,-614.32 231.67,-610.83"/>
</g>
<!-- Node26 -->
<g id="node26" class="node">
<title>Node26</title>
<g id="a_node26"><a xlink:href="a09654.html" target="_top" xlink:title=" ">
<polygon fill="white" stroke="black" points="558.5,-361.5 558.5,-449.5 722.5,-449.5 722.5,-361.5 558.5,-361.5"/>
<text text-anchor="start" x="566.5" y="-438.3" font-family="Helvetica,sans-Serif" font-size="9.00">__gnu_debug::_Safe</text>
<text text-anchor="start" x="566.5" y="-428.3" font-family="Helvetica,sans-Serif" font-size="9.00">_container&lt; unordered</text>
<text text-anchor="start" x="566.5" y="-418.3" font-family="Helvetica,sans-Serif" font-size="9.00">_set&lt; _Value, std::hash</text>
<text text-anchor="start" x="566.5" y="-408.3" font-family="Helvetica,sans-Serif" font-size="9.00">&lt; _Value &gt;, std::equal_to</text>
<text text-anchor="start" x="566.5" y="-398.3" font-family="Helvetica,sans-Serif" font-size="9.00">&lt; _Value &gt;, std::allocator</text>
<text text-anchor="start" x="566.5" y="-388.3" font-family="Helvetica,sans-Serif" font-size="9.00">&lt; _Value &gt; &gt;, std::allocator</text>
<text text-anchor="start" x="566.5" y="-378.3" font-family="Helvetica,sans-Serif" font-size="9.00">&lt; _Value &gt;, __gnu_debug::_Safe</text>
<text text-anchor="middle" x="640.5" y="-368.3" font-family="Helvetica,sans-Serif" font-size="9.00">_unordered_container &gt;</text>
</a>
</g>
</g>
<!-- Node25&#45;&gt;Node26 -->
<g id="edge25" class="edge">
<title>Node25&#45;&gt;Node26</title>
<path fill="none" stroke="midnightblue" d="M467.2,-317.38C493.71,-330.94 527.64,-348.29 558.37,-364.01"/>
<polygon fill="midnightblue" stroke="midnightblue" points="468.64,-314.19 458.15,-312.75 465.46,-320.42 468.64,-314.19"/>
</g>
<!-- Node28 -->
<g id="node28" class="node">
<title>Node28</title>
<g id="a_node28"><a xlink:href="a09654.html" target="_top" xlink:title=" ">
<polygon fill="white" stroke="black" points="559.5,-244.5 559.5,-342.5 721.5,-342.5 721.5,-244.5 559.5,-244.5"/>
<text text-anchor="start" x="567.5" y="-331.3" font-family="Helvetica,sans-Serif" font-size="9.00">__gnu_debug::_Safe</text>
<text text-anchor="start" x="567.5" y="-321.3" font-family="Helvetica,sans-Serif" font-size="9.00">_container&lt; unordered</text>
<text text-anchor="start" x="567.5" y="-311.3" font-family="Helvetica,sans-Serif" font-size="9.00">_multiset&lt; _Value, std</text>
<text text-anchor="start" x="567.5" y="-301.3" font-family="Helvetica,sans-Serif" font-size="9.00">::hash&lt; _Value &gt;, std::</text>
<text text-anchor="start" x="567.5" y="-291.3" font-family="Helvetica,sans-Serif" font-size="9.00">equal_to&lt; _Value &gt;, std</text>
<text text-anchor="start" x="567.5" y="-281.3" font-family="Helvetica,sans-Serif" font-size="9.00">::allocator&lt; _Value &gt; &gt;,</text>
<text text-anchor="start" x="567.5" y="-271.3" font-family="Helvetica,sans-Serif" font-size="9.00"> std::allocator&lt; _Value &gt;,</text>
<text text-anchor="start" x="567.5" y="-261.3" font-family="Helvetica,sans-Serif" font-size="9.00"> __gnu_debug::_Safe_unordered</text>
<text text-anchor="middle" x="640.5" y="-251.3" font-family="Helvetica,sans-Serif" font-size="9.00">_container &gt;</text>
</a>
</g>
</g>
<!-- Node25&#45;&gt;Node28 -->
<g id="edge27" class="edge">
<title>Node25&#45;&gt;Node28</title>
<path fill="none" stroke="midnightblue" d="M487.88,-293.5C510.39,-293.5 535.7,-293.5 559.1,-293.5"/>
<polygon fill="midnightblue" stroke="midnightblue" points="487.75,-290 477.75,-293.5 487.75,-297 487.75,-290"/>
</g>
<!-- Node30 -->
<g id="node30" class="node">
<title>Node30</title>
<g id="a_node30"><a xlink:href="a09654.html" target="_top" xlink:title=" ">
<polygon fill="white" stroke="black" points="552.5,-117.5 552.5,-225.5 728.5,-225.5 728.5,-117.5 552.5,-117.5"/>
<text text-anchor="start" x="560.5" y="-214.3" font-family="Helvetica,sans-Serif" font-size="9.00">__gnu_debug::_Safe</text>
<text text-anchor="start" x="560.5" y="-204.3" font-family="Helvetica,sans-Serif" font-size="9.00">_container&lt; unordered</text>
<text text-anchor="start" x="560.5" y="-194.3" font-family="Helvetica,sans-Serif" font-size="9.00">_multimap&lt; _Key, _Tp,</text>
<text text-anchor="start" x="560.5" y="-184.3" font-family="Helvetica,sans-Serif" font-size="9.00"> std::hash&lt; _Key &gt;, std</text>
<text text-anchor="start" x="560.5" y="-174.3" font-family="Helvetica,sans-Serif" font-size="9.00">::equal_to&lt; _Key &gt;, std</text>
<text text-anchor="start" x="560.5" y="-164.3" font-family="Helvetica,sans-Serif" font-size="9.00">::allocator&lt; std::pair&lt; const</text>
<text text-anchor="start" x="560.5" y="-154.3" font-family="Helvetica,sans-Serif" font-size="9.00"> _Key, _Tp &gt; &gt; &gt;, std::allocator</text>
<text text-anchor="start" x="560.5" y="-144.3" font-family="Helvetica,sans-Serif" font-size="9.00">&lt; std::pair&lt; const _Key, _Tp &gt;</text>
<text text-anchor="start" x="560.5" y="-134.3" font-family="Helvetica,sans-Serif" font-size="9.00"> &gt;, __gnu_debug::_Safe_unordered</text>
<text text-anchor="middle" x="640.5" y="-124.3" font-family="Helvetica,sans-Serif" font-size="9.00">_container &gt;</text>
</a>
</g>
</g>
<!-- Node25&#45;&gt;Node30 -->
<g id="edge29" class="edge">
<title>Node25&#45;&gt;Node30</title>
<path fill="none" stroke="midnightblue" d="M463.66,-269.45C488.92,-255.39 521.73,-237.11 552.16,-220.16"/>
<polygon fill="midnightblue" stroke="midnightblue" points="461.75,-266.51 454.72,-274.44 465.16,-272.63 461.75,-266.51"/>
</g>
<!-- Node32 -->
<g id="node32" class="node">
<title>Node32</title>
<g id="a_node32"><a xlink:href="a09654.html" target="_top" xlink:title=" ">
<polygon fill="white" stroke="black" points="545.5,-0.5 545.5,-98.5 735.5,-98.5 735.5,-0.5 545.5,-0.5"/>
<text text-anchor="start" x="553.5" y="-87.3" font-family="Helvetica,sans-Serif" font-size="9.00">__gnu_debug::_Safe</text>
<text text-anchor="start" x="553.5" y="-77.3" font-family="Helvetica,sans-Serif" font-size="9.00">_container&lt; unordered</text>
<text text-anchor="start" x="553.5" y="-67.3" font-family="Helvetica,sans-Serif" font-size="9.00">_map&lt; _Key, _Tp, std::</text>
<text text-anchor="start" x="553.5" y="-57.3" font-family="Helvetica,sans-Serif" font-size="9.00">hash&lt; _Key &gt;, std::equal</text>
<text text-anchor="start" x="553.5" y="-47.3" font-family="Helvetica,sans-Serif" font-size="9.00">_to&lt; _Key &gt;, std::allocator</text>
<text text-anchor="start" x="553.5" y="-37.3" font-family="Helvetica,sans-Serif" font-size="9.00">&lt; std::pair&lt; const _Key, _Tp</text>
<text text-anchor="start" x="553.5" y="-27.3" font-family="Helvetica,sans-Serif" font-size="9.00"> &gt; &gt; &gt;, std::allocator&lt; std::</text>
<text text-anchor="start" x="553.5" y="-17.3" font-family="Helvetica,sans-Serif" font-size="9.00">pair&lt; const _Key, _Tp &gt; &gt;, __gnu</text>
<text text-anchor="middle" x="640.5" y="-7.3" font-family="Helvetica,sans-Serif" font-size="9.00">_debug::_Safe_unordered_container &gt;</text>
</a>
</g>
</g>
<!-- Node25&#45;&gt;Node32 -->
<g id="edge31" class="edge">
<title>Node25&#45;&gt;Node32</title>
<path fill="none" stroke="midnightblue" d="M433.73,-265.27C453.03,-226.35 492,-155.68 541,-108.5 544.45,-105.18 548.11,-101.97 551.93,-98.87"/>
<polygon fill="midnightblue" stroke="midnightblue" points="430.49,-263.92 429.25,-274.45 436.78,-266.99 430.49,-263.92"/>
</g>
<!-- Node27 -->
<g id="node27" class="node">
<title>Node27</title>
<g id="a_node27"><a xlink:href="a09818.html" target="_top" xlink:title="Class std::unordered_set with safety/checking/debug instrumentation.">
<polygon fill="white" stroke="black" points="791.5,-386.5 791.5,-424.5 919.5,-424.5 919.5,-386.5 791.5,-386.5"/>
<text text-anchor="start" x="799.5" y="-413.3" font-family="Helvetica,sans-Serif" font-size="9.00">std::__debug::unordered</text>
<text text-anchor="start" x="799.5" y="-403.3" font-family="Helvetica,sans-Serif" font-size="9.00">_set&lt; _Value, _Hash, </text>
<text text-anchor="middle" x="855.5" y="-393.3" font-family="Helvetica,sans-Serif" font-size="9.00">_Pred, _Alloc &gt;</text>
</a>
</g>
</g>
<!-- Node26&#45;&gt;Node27 -->
<g id="edge26" class="edge">
<title>Node26&#45;&gt;Node27</title>
<path fill="none" stroke="midnightblue" d="M732.88,-405.5C752.64,-405.5 773.1,-405.5 791.48,-405.5"/>
<polygon fill="midnightblue" stroke="midnightblue" points="732.63,-402 722.63,-405.5 732.63,-409 732.63,-402"/>
</g>
<!-- Node29 -->
<g id="node29" class="node">
<title>Node29</title>
<g id="a_node29"><a xlink:href="a09822.html" target="_top" xlink:title="Class std::unordered_multiset with safety/checking/debug instrumentation.">
<polygon fill="white" stroke="black" points="788.5,-274.5 788.5,-312.5 922.5,-312.5 922.5,-274.5 788.5,-274.5"/>
<text text-anchor="start" x="796.5" y="-301.3" font-family="Helvetica,sans-Serif" font-size="9.00">std::__debug::unordered</text>
<text text-anchor="start" x="796.5" y="-291.3" font-family="Helvetica,sans-Serif" font-size="9.00">_multiset&lt; _Value, _Hash,</text>
<text text-anchor="middle" x="855.5" y="-281.3" font-family="Helvetica,sans-Serif" font-size="9.00"> _Pred, _Alloc &gt;</text>
</a>
</g>
</g>
<!-- Node28&#45;&gt;Node29 -->
<g id="edge28" class="edge">
<title>Node28&#45;&gt;Node29</title>
<path fill="none" stroke="midnightblue" d="M731.84,-293.5C750.77,-293.5 770.39,-293.5 788.24,-293.5"/>
<polygon fill="midnightblue" stroke="midnightblue" points="731.72,-290 721.72,-293.5 731.72,-297 731.72,-290"/>
</g>
<!-- Node31 -->
<g id="node31" class="node">
<title>Node31</title>
<g id="a_node31"><a xlink:href="a09806.html" target="_top" xlink:title="Class std::unordered_multimap with safety/checking/debug instrumentation.">
<polygon fill="white" stroke="black" points="791.5,-152.5 791.5,-190.5 919.5,-190.5 919.5,-152.5 791.5,-152.5"/>
<text text-anchor="start" x="799.5" y="-179.3" font-family="Helvetica,sans-Serif" font-size="9.00">std::__debug::unordered</text>
<text text-anchor="start" x="799.5" y="-169.3" font-family="Helvetica,sans-Serif" font-size="9.00">_multimap&lt; _Key, _Tp,</text>
<text text-anchor="middle" x="855.5" y="-159.3" font-family="Helvetica,sans-Serif" font-size="9.00"> _Hash, _Pred, _Alloc &gt;</text>
</a>
</g>
</g>
<!-- Node30&#45;&gt;Node31 -->
<g id="edge30" class="edge">
<title>Node30&#45;&gt;Node31</title>
<path fill="none" stroke="midnightblue" d="M739.11,-171.5C756.79,-171.5 774.81,-171.5 791.18,-171.5"/>
<polygon fill="midnightblue" stroke="midnightblue" points="738.75,-168 728.75,-171.5 738.75,-175 738.75,-168"/>
</g>
<!-- Node33 -->
<g id="node33" class="node">
<title>Node33</title>
<g id="a_node33"><a xlink:href="a09802.html" target="_top" xlink:title="Class std::unordered_map with safety/checking/debug instrumentation.">
<polygon fill="white" stroke="black" points="790,-30.5 790,-68.5 921,-68.5 921,-30.5 790,-30.5"/>
<text text-anchor="start" x="798" y="-57.3" font-family="Helvetica,sans-Serif" font-size="9.00">std::__debug::unordered</text>
<text text-anchor="start" x="798" y="-47.3" font-family="Helvetica,sans-Serif" font-size="9.00">_map&lt; _Key, _Tp, _Hash,</text>
<text text-anchor="middle" x="855.5" y="-37.3" font-family="Helvetica,sans-Serif" font-size="9.00"> _Pred, _Alloc &gt;</text>
</a>
</g>
</g>
<!-- Node32&#45;&gt;Node33 -->
<g id="edge32" class="edge">
<title>Node32&#45;&gt;Node33</title>
<path fill="none" stroke="midnightblue" d="M745.93,-49.5C760.96,-49.5 776.04,-49.5 789.98,-49.5"/>
<polygon fill="midnightblue" stroke="midnightblue" points="745.54,-46 735.54,-49.5 745.54,-53 745.54,-46"/>
</g>
</g>
</svg>
        <g id="navigator" transform="translate(0 0)" fill="#404254">
                <rect fill="#f2f5e9" fill-opacity="0.5" stroke="#606060" stroke-width=".5" x="0" y="0" width="60" height="60"/>
                <use id="zoomplus" xlink:href="#zoomPlus" x="17" y="9" onmousedown="handleZoom(evt,'in')"/>
                <use id="zoomminus" xlink:href="#zoomMin" x="42" y="9" onmousedown="handleZoom(evt,'out')"/>
                <use id="reset" xlink:href="#resetDef" x="30" y="36" onmousedown="handleReset()"/>
                <g id="arrowUp" xlink:href="#dirArrow" transform="translate(30 24)" onmousedown="handlePan(0,-1)">
                  <use xlink:href="#rim" fill="#404040">
                        <set attributeName="fill" to="#808080" begin="arrowUp.mouseover" end="arrowUp.mouseout"/>
                  </use>
                  <path fill="none" stroke="white" stroke-width="1.5" d="M0,-3.0v7 M-2.5,-0.5L0,-3.0L2.5,-0.5"/>
                </g>
                <g id="arrowRight" xlink:href="#dirArrow" transform="rotate(90) translate(36 -43)" onmousedown="handlePan(1,0)">
                  <use xlink:href="#rim" fill="#404040">
                        <set attributeName="fill" to="#808080" begin="arrowRight.mouseover" end="arrowRight.mouseout"/>
                  </use>
                  <path fill="none" stroke="white" stroke-width="1.5" d="M0,-3.0v7 M-2.5,-0.5L0,-3.0L2.5,-0.5"/>
                </g>
                <g id="arrowDown" xlink:href="#dirArrow" transform="rotate(180) translate(-30 -48)" onmousedown="handlePan(0,1)">
                  <use xlink:href="#rim" fill="#404040">
                        <set attributeName="fill" to="#808080" begin="arrowDown.mouseover" end="arrowDown.mouseout"/>
                  </use>
                  <path fill="none" stroke="white" stroke-width="1.5" d="M0,-3.0v7 M-2.5,-0.5L0,-3.0L2.5,-0.5"/>
                </g>
                <g id="arrowLeft" xlink:href="#dirArrow" transform="rotate(270) translate(-36 17)" onmousedown="handlePan(-1,0)">
                  <use xlink:href="#rim" fill="#404040">
                        <set attributeName="fill" to="#808080" begin="arrowLeft.mouseover" end="arrowLeft.mouseout"/>
                  </use>
                  <path fill="none" stroke="white" stroke-width="1.5" d="M0,-3.0v7 M-2.5,-0.5L0,-3.0L2.5,-0.5"/>
                </g>
        </g>
        <svg viewBox="0 0 15 15" width="100%" height="30px" preserveAspectRatio="xMaxYMin meet">
         <g id="arrow_out" transform="scale(0.3 0.3)">
          <a xlink:href="a09649_org.svg" target="_base">
           <rect id="button" ry="5" rx="5" y="6" x="6" height="38" width="38"
                fill="#f2f5e9" fill-opacity="0.5" stroke="#606060" stroke-width="1.0"/>
           <path id="arrow"
             d="M 11.500037,31.436501 C 11.940474,20.09759 22.043105,11.32322 32.158766,21.979434 L 37.068811,17.246167 C 37.068811,17.246167 37.088388,32 37.088388,32 L 22.160133,31.978069 C 22.160133,31.978069 26.997745,27.140456 26.997745,27.140456 C 18.528582,18.264221 13.291696,25.230495 11.500037,31.436501 z"
             style="fill:#404040;"/>
          </a>
         </g>
        </svg>
</svg>
