<?xml version="1.0" encoding="UTF-8" standalone="no"?>
<!DOCTYPE svg PUBLIC "-//W3C//DTD SVG 1.1//EN"
 "http://www.w3.org/Graphics/SVG/1.1/DTD/svg11.dtd">
<!-- Generated by graphviz version 2.50.0 (0)
 -->
<!-- Title: std::__debug::multimap&lt; _Key, _Tp, _Compare, _Allocator &gt; Pages: 1 -->
<svg width="842pt" height="107pt"
 viewBox="0.00 0.00 842.00 107.00" xmlns="http://www.w3.org/2000/svg" xmlns:xlink="http://www.w3.org/1999/xlink">
<g id="graph0" class="graph" transform="scale(1 1) rotate(0) translate(4 103)">
<title>std::__debug::multimap&lt; _Key, _Tp, _Compare, _Allocator &gt;</title>
<polygon fill="white" stroke="transparent" points="-4,4 -4,-103 838,-103 838,4 -4,4"/>
<!-- Node1 -->
<g id="node1" class="node">
<title>Node1</title>
<g id="a_node1"><a xlink:title="Class std::multimap with safety/checking/debug instrumentation.">
<polygon fill="#bfbfbf" stroke="black" points="709,-30.5 709,-68.5 834,-68.5 834,-30.5 709,-30.5"/>
<text text-anchor="start" x="717" y="-57.3" font-family="Helvetica,sans-Serif" font-size="9.00">std::__debug::multimap</text>
<text text-anchor="start" x="717" y="-47.3" font-family="Helvetica,sans-Serif" font-size="9.00">&lt; _Key, _Tp, _Compare,</text>
<text text-anchor="middle" x="771.5" y="-37.3" font-family="Helvetica,sans-Serif" font-size="9.00"> _Allocator &gt;</text>
</a>
</g>
</g>
<!-- Node2 -->
<g id="node2" class="node">
<title>Node2</title>
<g id="a_node2"><a xlink:href="a09654.html" target="_top" xlink:title=" ">
<polygon fill="white" stroke="black" points="512,-0.5 512,-98.5 673,-98.5 673,-0.5 512,-0.5"/>
<text text-anchor="start" x="520" y="-87.3" font-family="Helvetica,sans-Serif" font-size="9.00">__gnu_debug::_Safe</text>
<text text-anchor="start" x="520" y="-77.3" font-family="Helvetica,sans-Serif" font-size="9.00">_container&lt; multimap</text>
<text text-anchor="start" x="520" y="-67.3" font-family="Helvetica,sans-Serif" font-size="9.00">&lt; _Key, _Tp, std::less</text>
<text text-anchor="start" x="520" y="-57.3" font-family="Helvetica,sans-Serif" font-size="9.00">&lt; _Key &gt;, std::allocator</text>
<text text-anchor="start" x="520" y="-47.3" font-family="Helvetica,sans-Serif" font-size="9.00">&lt; std::pair&lt; const _Key,</text>
<text text-anchor="start" x="520" y="-37.3" font-family="Helvetica,sans-Serif" font-size="9.00"> _Tp &gt; &gt; &gt;, std::allocator</text>
<text text-anchor="start" x="520" y="-27.3" font-family="Helvetica,sans-Serif" font-size="9.00">&lt; std::pair&lt; const _Key, _Tp</text>
<text text-anchor="start" x="520" y="-17.3" font-family="Helvetica,sans-Serif" font-size="9.00"> &gt; &gt;, __gnu_debug::_Safe_node</text>
<text text-anchor="middle" x="592.5" y="-7.3" font-family="Helvetica,sans-Serif" font-size="9.00">_sequence &gt;</text>
</a>
</g>
</g>
<!-- Node2&#45;&gt;Node1 -->
<g id="edge1" class="edge">
<title>Node2&#45;&gt;Node1</title>
<path fill="none" stroke="midnightblue" d="M683.29,-49.5C691.9,-49.5 700.5,-49.5 708.75,-49.5"/>
<polygon fill="midnightblue" stroke="midnightblue" points="683.2,-46 673.2,-49.5 683.2,-53 683.2,-46"/>
</g>
<!-- Node3 -->
<g id="node3" class="node">
<title>Node3</title>
<g id="a_node3"><a xlink:href="a09694.html" target="_top" xlink:title="Like _Safe_sequence but with a special _M_invalidate_all implementation not invalidating past&#45;the&#45;end...">
<polygon fill="white" stroke="black" points="314,-35.5 314,-63.5 476,-63.5 476,-35.5 314,-35.5"/>
<text text-anchor="start" x="322" y="-52.3" font-family="Helvetica,sans-Serif" font-size="9.00">__gnu_debug::_Safe</text>
<text text-anchor="middle" x="395" y="-42.3" font-family="Helvetica,sans-Serif" font-size="9.00">_node_sequence&lt; _Sequence &gt;</text>
</a>
</g>
</g>
<!-- Node3&#45;&gt;Node2 -->
<g id="edge2" class="edge">
<title>Node3&#45;&gt;Node2</title>
<path fill="none" stroke="midnightblue" d="M486.11,-49.5C494.71,-49.5 503.38,-49.5 511.86,-49.5"/>
<polygon fill="midnightblue" stroke="midnightblue" points="486.08,-46 476.08,-49.5 486.08,-53 486.08,-46"/>
</g>
<!-- Node4 -->
<g id="node4" class="node">
<title>Node4</title>
<g id="a_node4"><a xlink:href="a09550.html" target="_top" xlink:title="Base class for constructing a safe sequence type that tracks iterators that reference it.">
<polygon fill="white" stroke="black" points="143,-35.5 143,-63.5 278,-63.5 278,-35.5 143,-35.5"/>
<text text-anchor="start" x="151" y="-52.3" font-family="Helvetica,sans-Serif" font-size="9.00">__gnu_debug::_Safe</text>
<text text-anchor="middle" x="210.5" y="-42.3" font-family="Helvetica,sans-Serif" font-size="9.00">_sequence&lt; _Sequence &gt;</text>
</a>
</g>
</g>
<!-- Node4&#45;&gt;Node3 -->
<g id="edge3" class="edge">
<title>Node4&#45;&gt;Node3</title>
<path fill="none" stroke="midnightblue" d="M288.35,-49.5C296.79,-49.5 305.4,-49.5 313.88,-49.5"/>
<polygon fill="midnightblue" stroke="midnightblue" points="288.16,-46 278.16,-49.5 288.16,-53 288.16,-46"/>
</g>
<!-- Node5 -->
<g id="node5" class="node">
<title>Node5</title>
<g id="a_node5"><a xlink:href="a09650.html" target="_top" xlink:title="Base class that supports tracking of iterators that reference a sequence.">
<polygon fill="white" stroke="black" points="0,-35.5 0,-63.5 107,-63.5 107,-35.5 0,-35.5"/>
<text text-anchor="start" x="8" y="-52.3" font-family="Helvetica,sans-Serif" font-size="9.00">__gnu_debug::_Safe</text>
<text text-anchor="middle" x="53.5" y="-42.3" font-family="Helvetica,sans-Serif" font-size="9.00">_sequence_base</text>
</a>
</g>
</g>
<!-- Node5&#45;&gt;Node4 -->
<g id="edge4" class="edge">
<title>Node5&#45;&gt;Node4</title>
<path fill="none" stroke="midnightblue" d="M117.47,-49.5C125.83,-49.5 134.43,-49.5 142.85,-49.5"/>
<polygon fill="midnightblue" stroke="midnightblue" points="117.41,-46 107.41,-49.5 117.41,-53 117.41,-46"/>
</g>
</g>
</svg>
