<?xml version="1.0" encoding="UTF-8" standalone="no"?>
<!DOCTYPE svg PUBLIC "-//W3C//DTD SVG 1.1//EN"
 "http://www.w3.org/Graphics/SVG/1.1/DTD/svg11.dtd">
<!-- Generated by graphviz version 2.50.0 (0)
 -->
<!-- Title: __gnu_debug::_Safe_node_sequence&lt; _Sequence &gt; Pages: 1 -->
<!--zoomable 485 -->
<svg id="main" version="1.1" xmlns="http://www.w3.org/2000/svg" xmlns:xlink="http://www.w3.org/1999/xlink" xml:space="preserve" onload="init(evt)">
<style type="text/css"><![CDATA[
.edge:hover path { stroke: red; }
.edge:hover polygon { stroke: red; fill: red; }
]]></style>
<script type="text/javascript"><![CDATA[
var edges = document.getElementsByTagName('g');
if (edges && edges.length) {
  for (var i=0;i<edges.length;i++) {
    if (edges[i].id.substr(0,4)=='edge') {
      edges[i].setAttribute('class','edge');
    }
  }
}
]]></script>
        <defs>
                <circle id="rim" cx="0" cy="0" r="7"/>
                <circle id="rim2" cx="0" cy="0" r="3.5"/>
                <g id="zoomPlus">
                        <use xlink:href="#rim" fill="#404040">
                                <set attributeName="fill" to="#808080" begin="zoomplus.mouseover" end="zoomplus.mouseout"/>
                        </use>
                        <path d="M-4,0h8M0,-4v8" fill="none" stroke="white" stroke-width="1.5" pointer-events="none"/>
                </g>
                <g id="zoomMin">
                        <use xlink:href="#rim" fill="#404040">
                                <set attributeName="fill" to="#808080" begin="zoomminus.mouseover" end="zoomminus.mouseout"/>
                        </use>
                        <path d="M-4,0h8" fill="none" stroke="white" stroke-width="1.5" pointer-events="none"/>
                </g>
                <g id="dirArrow">
                        <path fill="none" stroke="white" stroke-width="1.5" d="M0,-3.0v7 M-2.5,-0.5L0,-3.0L2.5,-0.5"/>
                </g>
               <g id="resetDef">
                       <use xlink:href="#rim2" fill="#404040">
                               <set attributeName="fill" to="#808080" begin="reset.mouseover" end="reset.mouseout"/>
                       </use>
               </g>
        </defs>

<script type="text/javascript">
var viewWidth = 914;
var viewHeight = 485;
var sectionId = 'dynsection-0';
</script>
<script xlink:href="svgpan.js"/>
<svg id="graph" class="graph">
<g id="viewport">
<title>__gnu_debug::_Safe_node_sequence&lt; _Sequence &gt;</title>
<polygon fill="white" stroke="transparent" points="-4,4 -4,-481 910,-481 910,4 -4,4"/>
<!-- Node1 -->
<g id="node1" class="node">
<title>Node1</title>
<g id="a_node1"><a xlink:title="Like _Safe_sequence but with a special _M_invalidate_all implementation not invalidating past&#45;the&#45;end...">
<polygon fill="#bfbfbf" stroke="black" points="314,-214.5 314,-242.5 476,-242.5 476,-214.5 314,-214.5"/>
<text text-anchor="start" x="322" y="-231.3" font-family="Helvetica,sans-Serif" font-size="9.00">__gnu_debug::_Safe</text>
<text text-anchor="middle" x="395" y="-221.3" font-family="Helvetica,sans-Serif" font-size="9.00">_node_sequence&lt; _Sequence &gt;</text>
</a>
</g>
</g>
<!-- Node4 -->
<g id="node4" class="node">
<title>Node4</title>
<g id="a_node4"><a xlink:href="a09654.html" target="_top" xlink:title=" ">
<polygon fill="white" stroke="black" points="536,-398.5 536,-476.5 687,-476.5 687,-398.5 536,-398.5"/>
<text text-anchor="start" x="544" y="-465.3" font-family="Helvetica,sans-Serif" font-size="9.00">__gnu_debug::_Safe</text>
<text text-anchor="start" x="544" y="-455.3" font-family="Helvetica,sans-Serif" font-size="9.00">_container&lt; multiset</text>
<text text-anchor="start" x="544" y="-445.3" font-family="Helvetica,sans-Serif" font-size="9.00">&lt; _Key, std::less&lt; _Key</text>
<text text-anchor="start" x="544" y="-435.3" font-family="Helvetica,sans-Serif" font-size="9.00"> &gt;, std::allocator&lt; _Key</text>
<text text-anchor="start" x="544" y="-425.3" font-family="Helvetica,sans-Serif" font-size="9.00"> &gt; &gt;, std::allocator&lt; _Key</text>
<text text-anchor="start" x="544" y="-415.3" font-family="Helvetica,sans-Serif" font-size="9.00"> &gt;, __gnu_debug::_Safe_node</text>
<text text-anchor="middle" x="611.5" y="-405.3" font-family="Helvetica,sans-Serif" font-size="9.00">_sequence &gt;</text>
</a>
</g>
</g>
<!-- Node1&#45;&gt;Node4 -->
<g id="edge3" class="edge">
<title>Node1&#45;&gt;Node4</title>
<path fill="none" stroke="midnightblue" d="M407.99,-251.96C426.4,-286.04 464.51,-349.51 512,-389.5 519.28,-395.63 527.47,-401.19 535.94,-406.18"/>
<polygon fill="midnightblue" stroke="midnightblue" points="410.91,-249.98 403.13,-242.78 404.72,-253.26 410.91,-249.98"/>
</g>
<!-- Node6 -->
<g id="node6" class="node">
<title>Node6</title>
<g id="a_node6"><a xlink:href="a09654.html" target="_top" xlink:title=" ">
<polygon fill="white" stroke="black" points="531,-281.5 531,-379.5 692,-379.5 692,-281.5 531,-281.5"/>
<text text-anchor="start" x="539" y="-368.3" font-family="Helvetica,sans-Serif" font-size="9.00">__gnu_debug::_Safe</text>
<text text-anchor="start" x="539" y="-358.3" font-family="Helvetica,sans-Serif" font-size="9.00">_container&lt; multimap</text>
<text text-anchor="start" x="539" y="-348.3" font-family="Helvetica,sans-Serif" font-size="9.00">&lt; _Key, _Tp, std::less</text>
<text text-anchor="start" x="539" y="-338.3" font-family="Helvetica,sans-Serif" font-size="9.00">&lt; _Key &gt;, std::allocator</text>
<text text-anchor="start" x="539" y="-328.3" font-family="Helvetica,sans-Serif" font-size="9.00">&lt; std::pair&lt; const _Key,</text>
<text text-anchor="start" x="539" y="-318.3" font-family="Helvetica,sans-Serif" font-size="9.00"> _Tp &gt; &gt; &gt;, std::allocator</text>
<text text-anchor="start" x="539" y="-308.3" font-family="Helvetica,sans-Serif" font-size="9.00">&lt; std::pair&lt; const _Key, _Tp</text>
<text text-anchor="start" x="539" y="-298.3" font-family="Helvetica,sans-Serif" font-size="9.00"> &gt; &gt;, __gnu_debug::_Safe_node</text>
<text text-anchor="middle" x="611.5" y="-288.3" font-family="Helvetica,sans-Serif" font-size="9.00">_sequence &gt;</text>
</a>
</g>
</g>
<!-- Node1&#45;&gt;Node6 -->
<g id="edge5" class="edge">
<title>Node1&#45;&gt;Node6</title>
<path fill="none" stroke="midnightblue" d="M435.18,-247.13C461.82,-259.8 498,-277 530.58,-292.5"/>
<polygon fill="midnightblue" stroke="midnightblue" points="436.36,-243.82 425.83,-242.68 433.35,-250.14 436.36,-243.82"/>
</g>
<!-- Node8 -->
<g id="node8" class="node">
<title>Node8</title>
<g id="a_node8"><a xlink:href="a09654.html" target="_top" xlink:title=" ">
<polygon fill="white" stroke="black" points="536,-194.5 536,-262.5 687,-262.5 687,-194.5 536,-194.5"/>
<text text-anchor="start" x="544" y="-251.3" font-family="Helvetica,sans-Serif" font-size="9.00">__gnu_debug::_Safe</text>
<text text-anchor="start" x="544" y="-241.3" font-family="Helvetica,sans-Serif" font-size="9.00">_container&lt; list&lt; _Tp,</text>
<text text-anchor="start" x="544" y="-231.3" font-family="Helvetica,sans-Serif" font-size="9.00"> std::allocator&lt; _Tp &gt;</text>
<text text-anchor="start" x="544" y="-221.3" font-family="Helvetica,sans-Serif" font-size="9.00"> &gt;, std::allocator&lt; _Tp</text>
<text text-anchor="start" x="544" y="-211.3" font-family="Helvetica,sans-Serif" font-size="9.00"> &gt;, __gnu_debug::_Safe_node</text>
<text text-anchor="middle" x="611.5" y="-201.3" font-family="Helvetica,sans-Serif" font-size="9.00">_sequence &gt;</text>
</a>
</g>
</g>
<!-- Node1&#45;&gt;Node8 -->
<g id="edge7" class="edge">
<title>Node1&#45;&gt;Node8</title>
<path fill="none" stroke="midnightblue" d="M486.34,-228.5C502.79,-228.5 519.8,-228.5 535.74,-228.5"/>
<polygon fill="midnightblue" stroke="midnightblue" points="486.18,-225 476.18,-228.5 486.18,-232 486.18,-225"/>
</g>
<!-- Node10 -->
<g id="node10" class="node">
<title>Node10</title>
<g id="a_node10"><a xlink:href="a09654.html" target="_top" xlink:title=" ">
<polygon fill="white" stroke="black" points="512,-87.5 512,-175.5 711,-175.5 711,-87.5 512,-87.5"/>
<text text-anchor="start" x="520" y="-164.3" font-family="Helvetica,sans-Serif" font-size="9.00">__gnu_debug::_Safe</text>
<text text-anchor="start" x="520" y="-154.3" font-family="Helvetica,sans-Serif" font-size="9.00">_container&lt; map&lt; _Key,</text>
<text text-anchor="start" x="520" y="-144.3" font-family="Helvetica,sans-Serif" font-size="9.00"> _Tp, std::less&lt; _Key</text>
<text text-anchor="start" x="520" y="-134.3" font-family="Helvetica,sans-Serif" font-size="9.00"> &gt;, std::allocator&lt; std</text>
<text text-anchor="start" x="520" y="-124.3" font-family="Helvetica,sans-Serif" font-size="9.00">::pair&lt; const _Key, _Tp</text>
<text text-anchor="start" x="520" y="-114.3" font-family="Helvetica,sans-Serif" font-size="9.00"> &gt; &gt; &gt;, std::allocator&lt; std</text>
<text text-anchor="start" x="520" y="-104.3" font-family="Helvetica,sans-Serif" font-size="9.00">::pair&lt; const _Key, _Tp &gt; &gt;</text>
<text text-anchor="middle" x="611.5" y="-94.3" font-family="Helvetica,sans-Serif" font-size="9.00">, __gnu_debug::_Safe_node_sequence &gt;</text>
</a>
</g>
</g>
<!-- Node1&#45;&gt;Node10 -->
<g id="edge9" class="edge">
<title>Node1&#45;&gt;Node10</title>
<path fill="none" stroke="midnightblue" d="M436.4,-210.23C458.08,-200.43 485.82,-187.88 512.76,-175.7"/>
<polygon fill="midnightblue" stroke="midnightblue" points="434.86,-207.09 427.19,-214.4 437.74,-213.46 434.86,-207.09"/>
</g>
<!-- Node12 -->
<g id="node12" class="node">
<title>Node12</title>
<g id="a_node12"><a xlink:href="a09654.html" target="_top" xlink:title=" ">
<polygon fill="white" stroke="black" points="528.5,-0.5 528.5,-68.5 694.5,-68.5 694.5,-0.5 528.5,-0.5"/>
<text text-anchor="start" x="536.5" y="-57.3" font-family="Helvetica,sans-Serif" font-size="9.00">__gnu_debug::_Safe</text>
<text text-anchor="start" x="536.5" y="-47.3" font-family="Helvetica,sans-Serif" font-size="9.00">_container&lt; set&lt; _Key,</text>
<text text-anchor="start" x="536.5" y="-37.3" font-family="Helvetica,sans-Serif" font-size="9.00"> std::less&lt; _Key &gt;, std</text>
<text text-anchor="start" x="536.5" y="-27.3" font-family="Helvetica,sans-Serif" font-size="9.00">::allocator&lt; _Key &gt; &gt;, std</text>
<text text-anchor="start" x="536.5" y="-17.3" font-family="Helvetica,sans-Serif" font-size="9.00">::allocator&lt; _Key &gt;, __gnu</text>
<text text-anchor="middle" x="611.5" y="-7.3" font-family="Helvetica,sans-Serif" font-size="9.00">_debug::_Safe_node_sequence &gt;</text>
</a>
</g>
</g>
<!-- Node1&#45;&gt;Node12 -->
<g id="edge11" class="edge">
<title>Node1&#45;&gt;Node12</title>
<path fill="none" stroke="midnightblue" d="M408.71,-205.3C427.51,-172.85 465.55,-113.83 512,-77.5 517,-73.59 522.4,-69.96 528.03,-66.61"/>
<polygon fill="midnightblue" stroke="midnightblue" points="405.62,-203.66 403.72,-214.08 411.7,-207.12 405.62,-203.66"/>
</g>
<!-- Node2 -->
<g id="node2" class="node">
<title>Node2</title>
<g id="a_node2"><a xlink:href="a09550.html" target="_top" xlink:title="Base class for constructing a safe sequence type that tracks iterators that reference it.">
<polygon fill="white" stroke="black" points="143,-214.5 143,-242.5 278,-242.5 278,-214.5 143,-214.5"/>
<text text-anchor="start" x="151" y="-231.3" font-family="Helvetica,sans-Serif" font-size="9.00">__gnu_debug::_Safe</text>
<text text-anchor="middle" x="210.5" y="-221.3" font-family="Helvetica,sans-Serif" font-size="9.00">_sequence&lt; _Sequence &gt;</text>
</a>
</g>
</g>
<!-- Node2&#45;&gt;Node1 -->
<g id="edge1" class="edge">
<title>Node2&#45;&gt;Node1</title>
<path fill="none" stroke="midnightblue" d="M288.35,-228.5C296.79,-228.5 305.4,-228.5 313.88,-228.5"/>
<polygon fill="midnightblue" stroke="midnightblue" points="288.16,-225 278.16,-228.5 288.16,-232 288.16,-225"/>
</g>
<!-- Node3 -->
<g id="node3" class="node">
<title>Node3</title>
<g id="a_node3"><a xlink:href="a09650.html" target="_top" xlink:title="Base class that supports tracking of iterators that reference a sequence.">
<polygon fill="white" stroke="black" points="0,-214.5 0,-242.5 107,-242.5 107,-214.5 0,-214.5"/>
<text text-anchor="start" x="8" y="-231.3" font-family="Helvetica,sans-Serif" font-size="9.00">__gnu_debug::_Safe</text>
<text text-anchor="middle" x="53.5" y="-221.3" font-family="Helvetica,sans-Serif" font-size="9.00">_sequence_base</text>
</a>
</g>
</g>
<!-- Node3&#45;&gt;Node2 -->
<g id="edge2" class="edge">
<title>Node3&#45;&gt;Node2</title>
<path fill="none" stroke="midnightblue" d="M117.47,-228.5C125.83,-228.5 134.43,-228.5 142.85,-228.5"/>
<polygon fill="midnightblue" stroke="midnightblue" points="117.41,-225 107.41,-228.5 117.41,-232 117.41,-225"/>
</g>
<!-- Node5 -->
<g id="node5" class="node">
<title>Node5</title>
<g id="a_node5"><a xlink:href="a09638.html" target="_top" xlink:title="Class std::multiset with safety/checking/debug instrumentation.">
<polygon fill="white" stroke="black" points="747,-423.5 747,-451.5 906,-451.5 906,-423.5 747,-423.5"/>
<text text-anchor="start" x="755" y="-440.3" font-family="Helvetica,sans-Serif" font-size="9.00">std::__debug::multiset</text>
<text text-anchor="middle" x="826.5" y="-430.3" font-family="Helvetica,sans-Serif" font-size="9.00">&lt; _Key, _Compare, _Allocator &gt;</text>
</a>
</g>
</g>
<!-- Node4&#45;&gt;Node5 -->
<g id="edge4" class="edge">
<title>Node4&#45;&gt;Node5</title>
<path fill="none" stroke="midnightblue" d="M697.37,-437.5C713.72,-437.5 730.77,-437.5 746.91,-437.5"/>
<polygon fill="midnightblue" stroke="midnightblue" points="697.3,-434 687.3,-437.5 697.3,-441 697.3,-434"/>
</g>
<!-- Node7 -->
<g id="node7" class="node">
<title>Node7</title>
<g id="a_node7"><a xlink:href="a09630.html" target="_top" xlink:title="Class std::multimap with safety/checking/debug instrumentation.">
<polygon fill="white" stroke="black" points="764,-311.5 764,-349.5 889,-349.5 889,-311.5 764,-311.5"/>
<text text-anchor="start" x="772" y="-338.3" font-family="Helvetica,sans-Serif" font-size="9.00">std::__debug::multimap</text>
<text text-anchor="start" x="772" y="-328.3" font-family="Helvetica,sans-Serif" font-size="9.00">&lt; _Key, _Tp, _Compare,</text>
<text text-anchor="middle" x="826.5" y="-318.3" font-family="Helvetica,sans-Serif" font-size="9.00"> _Allocator &gt;</text>
</a>
</g>
</g>
<!-- Node6&#45;&gt;Node7 -->
<g id="edge6" class="edge">
<title>Node6&#45;&gt;Node7</title>
<path fill="none" stroke="midnightblue" d="M702.23,-330.5C723.02,-330.5 744.68,-330.5 763.94,-330.5"/>
<polygon fill="midnightblue" stroke="midnightblue" points="702.12,-327 692.12,-330.5 702.12,-334 702.12,-327"/>
</g>
<!-- Node9 -->
<g id="node9" class="node">
<title>Node9</title>
<g id="a_node9"><a xlink:href="a09770.html" target="_top" xlink:title="Class std::list with safety/checking/debug instrumentation.">
<polygon fill="white" stroke="black" points="775,-214.5 775,-242.5 878,-242.5 878,-214.5 775,-214.5"/>
<text text-anchor="start" x="783" y="-231.3" font-family="Helvetica,sans-Serif" font-size="9.00">std::__debug::list</text>
<text text-anchor="middle" x="826.5" y="-221.3" font-family="Helvetica,sans-Serif" font-size="9.00">&lt; _Tp, _Allocator &gt;</text>
</a>
</g>
</g>
<!-- Node8&#45;&gt;Node9 -->
<g id="edge8" class="edge">
<title>Node8&#45;&gt;Node9</title>
<path fill="none" stroke="midnightblue" d="M697.62,-228.5C723.83,-228.5 751.83,-228.5 774.94,-228.5"/>
<polygon fill="midnightblue" stroke="midnightblue" points="697.3,-225 687.3,-228.5 697.3,-232 697.3,-225"/>
</g>
<!-- Node11 -->
<g id="node11" class="node">
<title>Node11</title>
<g id="a_node11"><a xlink:href="a09622.html" target="_top" xlink:title="Class std::map with safety/checking/debug instrumentation.">
<polygon fill="white" stroke="black" points="768.5,-112.5 768.5,-150.5 884.5,-150.5 884.5,-112.5 768.5,-112.5"/>
<text text-anchor="start" x="776.5" y="-139.3" font-family="Helvetica,sans-Serif" font-size="9.00">std::__debug::map&lt;</text>
<text text-anchor="start" x="776.5" y="-129.3" font-family="Helvetica,sans-Serif" font-size="9.00"> _Key, _Tp, _Compare,</text>
<text text-anchor="middle" x="826.5" y="-119.3" font-family="Helvetica,sans-Serif" font-size="9.00"> _Allocator &gt;</text>
</a>
</g>
</g>
<!-- Node10&#45;&gt;Node11 -->
<g id="edge10" class="edge">
<title>Node10&#45;&gt;Node11</title>
<path fill="none" stroke="midnightblue" d="M721.32,-131.5C737.58,-131.5 753.76,-131.5 768.36,-131.5"/>
<polygon fill="midnightblue" stroke="midnightblue" points="721.21,-128 711.21,-131.5 721.21,-135 721.21,-128"/>
</g>
<!-- Node13 -->
<g id="node13" class="node">
<title>Node13</title>
<g id="a_node13"><a xlink:href="a09722.html" target="_top" xlink:title="Class std::set with safety/checking/debug instrumentation.">
<polygon fill="white" stroke="black" points="750.5,-20.5 750.5,-48.5 902.5,-48.5 902.5,-20.5 750.5,-20.5"/>
<text text-anchor="start" x="758.5" y="-37.3" font-family="Helvetica,sans-Serif" font-size="9.00">std::__debug::set&lt;</text>
<text text-anchor="middle" x="826.5" y="-27.3" font-family="Helvetica,sans-Serif" font-size="9.00"> _Key, _Compare, _Allocator &gt;</text>
</a>
</g>
</g>
<!-- Node12&#45;&gt;Node13 -->
<g id="edge12" class="edge">
<title>Node12&#45;&gt;Node13</title>
<path fill="none" stroke="midnightblue" d="M704.55,-34.5C719.89,-34.5 735.63,-34.5 750.47,-34.5"/>
<polygon fill="midnightblue" stroke="midnightblue" points="704.55,-31 694.55,-34.5 704.55,-38 704.55,-31"/>
</g>
</g>
</svg>
        <g id="navigator" transform="translate(0 0)" fill="#404254">
                <rect fill="#f2f5e9" fill-opacity="0.5" stroke="#606060" stroke-width=".5" x="0" y="0" width="60" height="60"/>
                <use id="zoomplus" xlink:href="#zoomPlus" x="17" y="9" onmousedown="handleZoom(evt,'in')"/>
                <use id="zoomminus" xlink:href="#zoomMin" x="42" y="9" onmousedown="handleZoom(evt,'out')"/>
                <use id="reset" xlink:href="#resetDef" x="30" y="36" onmousedown="handleReset()"/>
                <g id="arrowUp" xlink:href="#dirArrow" transform="translate(30 24)" onmousedown="handlePan(0,-1)">
                  <use xlink:href="#rim" fill="#404040">
                        <set attributeName="fill" to="#808080" begin="arrowUp.mouseover" end="arrowUp.mouseout"/>
                  </use>
                  <path fill="none" stroke="white" stroke-width="1.5" d="M0,-3.0v7 M-2.5,-0.5L0,-3.0L2.5,-0.5"/>
                </g>
                <g id="arrowRight" xlink:href="#dirArrow" transform="rotate(90) translate(36 -43)" onmousedown="handlePan(1,0)">
                  <use xlink:href="#rim" fill="#404040">
                        <set attributeName="fill" to="#808080" begin="arrowRight.mouseover" end="arrowRight.mouseout"/>
                  </use>
                  <path fill="none" stroke="white" stroke-width="1.5" d="M0,-3.0v7 M-2.5,-0.5L0,-3.0L2.5,-0.5"/>
                </g>
                <g id="arrowDown" xlink:href="#dirArrow" transform="rotate(180) translate(-30 -48)" onmousedown="handlePan(0,1)">
                  <use xlink:href="#rim" fill="#404040">
                        <set attributeName="fill" to="#808080" begin="arrowDown.mouseover" end="arrowDown.mouseout"/>
                  </use>
                  <path fill="none" stroke="white" stroke-width="1.5" d="M0,-3.0v7 M-2.5,-0.5L0,-3.0L2.5,-0.5"/>
                </g>
                <g id="arrowLeft" xlink:href="#dirArrow" transform="rotate(270) translate(-36 17)" onmousedown="handlePan(-1,0)">
                  <use xlink:href="#rim" fill="#404040">
                        <set attributeName="fill" to="#808080" begin="arrowLeft.mouseover" end="arrowLeft.mouseout"/>
                  </use>
                  <path fill="none" stroke="white" stroke-width="1.5" d="M0,-3.0v7 M-2.5,-0.5L0,-3.0L2.5,-0.5"/>
                </g>
        </g>
        <svg viewBox="0 0 15 15" width="100%" height="30px" preserveAspectRatio="xMaxYMin meet">
         <g id="arrow_out" transform="scale(0.3 0.3)">
          <a xlink:href="a09693_org.svg" target="_base">
           <rect id="button" ry="5" rx="5" y="6" x="6" height="38" width="38"
                fill="#f2f5e9" fill-opacity="0.5" stroke="#606060" stroke-width="1.0"/>
           <path id="arrow"
             d="M 11.500037,31.436501 C 11.940474,20.09759 22.043105,11.32322 32.158766,21.979434 L 37.068811,17.246167 C 37.068811,17.246167 37.088388,32 37.088388,32 L 22.160133,31.978069 C 22.160133,31.978069 26.997745,27.140456 26.997745,27.140456 C 18.528582,18.264221 13.291696,25.230495 11.500037,31.436501 z"
             style="fill:#404040;"/>
          </a>
         </g>
        </svg>
</svg>
