<?xml version="1.0" encoding="UTF-8" standalone="no"?>
<!DOCTYPE svg PUBLIC "-//W3C//DTD SVG 1.1//EN"
 "http://www.w3.org/Graphics/SVG/1.1/DTD/svg11.dtd">
<!-- Generated by graphviz version 2.50.0 (0)
 -->
<!-- Title: __gnu_debug::_Safe_local_iterator_base Pages: 1 -->
<svg width="139pt" height="177pt"
 viewBox="0.00 0.00 139.00 177.00" xmlns="http://www.w3.org/2000/svg" xmlns:xlink="http://www.w3.org/1999/xlink">
<g id="graph0" class="graph" transform="scale(1 1) rotate(0) translate(4 173)">
<title>__gnu_debug::_Safe_local_iterator_base</title>
<polygon fill="white" stroke="transparent" points="-4,4 -4,-173 135,-173 135,4 -4,4"/>
<!-- Node1 -->
<g id="node1" class="node">
<title>Node1</title>
<g id="a_node1"><a xlink:title="Basic functionality for a safe iterator.">
<polygon fill="#bfbfbf" stroke="black" points="12,-75.5 12,-103.5 119,-103.5 119,-75.5 12,-75.5"/>
<text text-anchor="start" x="20" y="-92.3" font-family="Helvetica,sans-Serif" font-size="9.00">__gnu_debug::_Safe</text>
<text text-anchor="middle" x="65.5" y="-82.3" font-family="Helvetica,sans-Serif" font-size="9.00">_local_iterator_base</text>
</a>
</g>
</g>
<!-- Node3 -->
<g id="node3" class="node">
<title>Node3</title>
<g id="a_node3"><a xlink:href="a09546.html" target="_top" xlink:title="Safe iterator wrapper.">
<polygon fill="white" stroke="black" points="0,-0.5 0,-38.5 131,-38.5 131,-0.5 0,-0.5"/>
<text text-anchor="start" x="8" y="-27.3" font-family="Helvetica,sans-Serif" font-size="9.00">__gnu_debug::_Safe</text>
<text text-anchor="start" x="8" y="-17.3" font-family="Helvetica,sans-Serif" font-size="9.00">_local_iterator&lt; _Iterator,</text>
<text text-anchor="middle" x="65.5" y="-7.3" font-family="Helvetica,sans-Serif" font-size="9.00"> _Sequence &gt;</text>
</a>
</g>
</g>
<!-- Node1&#45;&gt;Node3 -->
<g id="edge2" class="edge">
<title>Node1&#45;&gt;Node3</title>
<path fill="none" stroke="midnightblue" d="M65.5,-65.17C65.5,-56.52 65.5,-46.84 65.5,-38.71"/>
<polygon fill="midnightblue" stroke="midnightblue" points="62,-65.39 65.5,-75.39 69,-65.39 62,-65.39"/>
</g>
<!-- Node2 -->
<g id="node2" class="node">
<title>Node2</title>
<g id="a_node2"><a xlink:href="a09646.html" target="_top" xlink:title="Basic functionality for a safe iterator.">
<polygon fill="white" stroke="black" points="12,-140.5 12,-168.5 119,-168.5 119,-140.5 12,-140.5"/>
<text text-anchor="start" x="20" y="-157.3" font-family="Helvetica,sans-Serif" font-size="9.00">__gnu_debug::_Safe</text>
<text text-anchor="middle" x="65.5" y="-147.3" font-family="Helvetica,sans-Serif" font-size="9.00">_iterator_base</text>
</a>
</g>
</g>
<!-- Node2&#45;&gt;Node1 -->
<g id="edge1" class="edge">
<title>Node2&#45;&gt;Node1</title>
<path fill="none" stroke="midnightblue" d="M65.5,-130.16C65.5,-121.17 65.5,-111.22 65.5,-103.54"/>
<polygon fill="midnightblue" stroke="midnightblue" points="62,-130.45 65.5,-140.45 69,-130.45 62,-130.45"/>
</g>
</g>
</svg>
