<?xml version="1.0" encoding="UTF-8" standalone="no"?>
<!DOCTYPE svg PUBLIC "-//W3C//DTD SVG 1.1//EN"
 "http://www.w3.org/Graphics/SVG/1.1/DTD/svg11.dtd">
<!-- Generated by graphviz version 2.50.0 (0)
 -->
<!-- Title: std::__debug::set&lt; _Key, _Compare, _Allocator &gt; Pages: 1 -->
<svg width="874pt" height="77pt"
 viewBox="0.00 0.00 874.00 77.00" xmlns="http://www.w3.org/2000/svg" xmlns:xlink="http://www.w3.org/1999/xlink">
<g id="graph0" class="graph" transform="scale(1 1) rotate(0) translate(4 73)">
<title>std::__debug::set&lt; _Key, _Compare, _Allocator &gt;</title>
<polygon fill="white" stroke="transparent" points="-4,4 -4,-73 870,-73 870,4 -4,4"/>
<!-- Node1 -->
<g id="node1" class="node">
<title>Node1</title>
<g id="a_node1"><a xlink:title="Class std::set with safety/checking/debug instrumentation.">
<polygon fill="#bfbfbf" stroke="black" points="714,-20.5 714,-48.5 866,-48.5 866,-20.5 714,-20.5"/>
<text text-anchor="start" x="722" y="-37.3" font-family="Helvetica,sans-Serif" font-size="9.00">std::__debug::set&lt;</text>
<text text-anchor="middle" x="790" y="-27.3" font-family="Helvetica,sans-Serif" font-size="9.00"> _Key, _Compare, _Allocator &gt;</text>
</a>
</g>
</g>
<!-- Node2 -->
<g id="node2" class="node">
<title>Node2</title>
<g id="a_node2"><a xlink:href="a09654.html" target="_top" xlink:title=" ">
<polygon fill="white" stroke="black" points="512,-0.5 512,-68.5 678,-68.5 678,-0.5 512,-0.5"/>
<text text-anchor="start" x="520" y="-57.3" font-family="Helvetica,sans-Serif" font-size="9.00">__gnu_debug::_Safe</text>
<text text-anchor="start" x="520" y="-47.3" font-family="Helvetica,sans-Serif" font-size="9.00">_container&lt; set&lt; _Key,</text>
<text text-anchor="start" x="520" y="-37.3" font-family="Helvetica,sans-Serif" font-size="9.00"> std::less&lt; _Key &gt;, std</text>
<text text-anchor="start" x="520" y="-27.3" font-family="Helvetica,sans-Serif" font-size="9.00">::allocator&lt; _Key &gt; &gt;, std</text>
<text text-anchor="start" x="520" y="-17.3" font-family="Helvetica,sans-Serif" font-size="9.00">::allocator&lt; _Key &gt;, __gnu</text>
<text text-anchor="middle" x="595" y="-7.3" font-family="Helvetica,sans-Serif" font-size="9.00">_debug::_Safe_node_sequence &gt;</text>
</a>
</g>
</g>
<!-- Node2&#45;&gt;Node1 -->
<g id="edge1" class="edge">
<title>Node2&#45;&gt;Node1</title>
<path fill="none" stroke="midnightblue" d="M688.23,-34.5C696.86,-34.5 705.54,-34.5 713.98,-34.5"/>
<polygon fill="midnightblue" stroke="midnightblue" points="688.13,-31 678.13,-34.5 688.13,-38 688.13,-31"/>
</g>
<!-- Node3 -->
<g id="node3" class="node">
<title>Node3</title>
<g id="a_node3"><a xlink:href="a09694.html" target="_top" xlink:title="Like _Safe_sequence but with a special _M_invalidate_all implementation not invalidating past&#45;the&#45;end...">
<polygon fill="white" stroke="black" points="314,-20.5 314,-48.5 476,-48.5 476,-20.5 314,-20.5"/>
<text text-anchor="start" x="322" y="-37.3" font-family="Helvetica,sans-Serif" font-size="9.00">__gnu_debug::_Safe</text>
<text text-anchor="middle" x="395" y="-27.3" font-family="Helvetica,sans-Serif" font-size="9.00">_node_sequence&lt; _Sequence &gt;</text>
</a>
</g>
</g>
<!-- Node3&#45;&gt;Node2 -->
<g id="edge2" class="edge">
<title>Node3&#45;&gt;Node2</title>
<path fill="none" stroke="midnightblue" d="M486.46,-34.5C494.87,-34.5 503.37,-34.5 511.7,-34.5"/>
<polygon fill="midnightblue" stroke="midnightblue" points="486.25,-31 476.25,-34.5 486.25,-38 486.25,-31"/>
</g>
<!-- Node4 -->
<g id="node4" class="node">
<title>Node4</title>
<g id="a_node4"><a xlink:href="a09550.html" target="_top" xlink:title="Base class for constructing a safe sequence type that tracks iterators that reference it.">
<polygon fill="white" stroke="black" points="143,-20.5 143,-48.5 278,-48.5 278,-20.5 143,-20.5"/>
<text text-anchor="start" x="151" y="-37.3" font-family="Helvetica,sans-Serif" font-size="9.00">__gnu_debug::_Safe</text>
<text text-anchor="middle" x="210.5" y="-27.3" font-family="Helvetica,sans-Serif" font-size="9.00">_sequence&lt; _Sequence &gt;</text>
</a>
</g>
</g>
<!-- Node4&#45;&gt;Node3 -->
<g id="edge3" class="edge">
<title>Node4&#45;&gt;Node3</title>
<path fill="none" stroke="midnightblue" d="M288.35,-34.5C296.79,-34.5 305.4,-34.5 313.88,-34.5"/>
<polygon fill="midnightblue" stroke="midnightblue" points="288.16,-31 278.16,-34.5 288.16,-38 288.16,-31"/>
</g>
<!-- Node5 -->
<g id="node5" class="node">
<title>Node5</title>
<g id="a_node5"><a xlink:href="a09650.html" target="_top" xlink:title="Base class that supports tracking of iterators that reference a sequence.">
<polygon fill="white" stroke="black" points="0,-20.5 0,-48.5 107,-48.5 107,-20.5 0,-20.5"/>
<text text-anchor="start" x="8" y="-37.3" font-family="Helvetica,sans-Serif" font-size="9.00">__gnu_debug::_Safe</text>
<text text-anchor="middle" x="53.5" y="-27.3" font-family="Helvetica,sans-Serif" font-size="9.00">_sequence_base</text>
</a>
</g>
</g>
<!-- Node5&#45;&gt;Node4 -->
<g id="edge4" class="edge">
<title>Node5&#45;&gt;Node4</title>
<path fill="none" stroke="midnightblue" d="M117.47,-34.5C125.83,-34.5 134.43,-34.5 142.85,-34.5"/>
<polygon fill="midnightblue" stroke="midnightblue" points="117.41,-31 107.41,-34.5 117.41,-38 117.41,-31"/>
</g>
</g>
</svg>
