<?xml version="1.0" encoding="UTF-8" standalone="no"?>
<!DOCTYPE svg PUBLIC "-//W3C//DTD SVG 1.1//EN"
 "http://www.w3.org/Graphics/SVG/1.1/DTD/svg11.dtd">
<!-- Generated by graphviz version 2.50.0 (0)
 -->
<!-- Title: __gnu_debug::basic_string&lt; _CharT, _Traits, _Allocator &gt; Pages: 1 -->
<svg width="654pt" height="154pt"
 viewBox="0.00 0.00 654.00 154.00" xmlns="http://www.w3.org/2000/svg" xmlns:xlink="http://www.w3.org/1999/xlink">
<g id="graph0" class="graph" transform="scale(1 1) rotate(0) translate(4 150)">
<title>__gnu_debug::basic_string&lt; _CharT, _Traits, _Allocator &gt;</title>
<polygon fill="white" stroke="transparent" points="-4,4 -4,-150 650,-150 650,4 -4,4"/>
<!-- Node1 -->
<g id="node1" class="node">
<title>Node1</title>
<g id="a_node1"><a xlink:title="Class std::basic_string with safety/checking/debug instrumentation.">
<polygon fill="#bfbfbf" stroke="black" points="521,-46.5 521,-84.5 646,-84.5 646,-46.5 521,-46.5"/>
<text text-anchor="start" x="529" y="-73.3" font-family="Helvetica,sans-Serif" font-size="9.00">__gnu_debug::basic</text>
<text text-anchor="start" x="529" y="-63.3" font-family="Helvetica,sans-Serif" font-size="9.00">_string&lt; _CharT, _Traits,</text>
<text text-anchor="middle" x="583.5" y="-53.3" font-family="Helvetica,sans-Serif" font-size="9.00"> _Allocator &gt;</text>
</a>
</g>
</g>
<!-- Node2 -->
<g id="node2" class="node">
<title>Node2</title>
<g id="a_node2"><a xlink:href="a09654.html" target="_top" xlink:title=" ">
<polygon fill="white" stroke="black" points="314,-67.5 314,-145.5 485,-145.5 485,-67.5 314,-67.5"/>
<text text-anchor="start" x="322" y="-134.3" font-family="Helvetica,sans-Serif" font-size="9.00">__gnu_debug::_Safe</text>
<text text-anchor="start" x="322" y="-124.3" font-family="Helvetica,sans-Serif" font-size="9.00">_container&lt; basic_string</text>
<text text-anchor="start" x="322" y="-114.3" font-family="Helvetica,sans-Serif" font-size="9.00">&lt; _CharT, std::char_traits</text>
<text text-anchor="start" x="322" y="-104.3" font-family="Helvetica,sans-Serif" font-size="9.00">&lt; _CharT &gt;, std::allocator</text>
<text text-anchor="start" x="322" y="-94.3" font-family="Helvetica,sans-Serif" font-size="9.00">&lt; _CharT &gt; &gt;, std::allocator</text>
<text text-anchor="start" x="322" y="-84.3" font-family="Helvetica,sans-Serif" font-size="9.00">&lt; _CharT &gt;, _Safe_sequence, bool</text>
<text text-anchor="middle" x="399.5" y="-74.3" font-family="Helvetica,sans-Serif" font-size="9.00">(_GLIBCXX_USE_CXX11_ABI)&gt;</text>
</a>
</g>
</g>
<!-- Node2&#45;&gt;Node1 -->
<g id="edge1" class="edge">
<title>Node2&#45;&gt;Node1</title>
<path fill="none" stroke="midnightblue" d="M495.02,-85.21C503.8,-83.23 512.54,-81.26 520.91,-79.38"/>
<polygon fill="midnightblue" stroke="midnightblue" points="494.09,-81.83 485.11,-87.44 495.63,-88.66 494.09,-81.83"/>
</g>
<!-- Node3 -->
<g id="node3" class="node">
<title>Node3</title>
<g id="a_node3"><a xlink:href="a09550.html" target="_top" xlink:title="Base class for constructing a safe sequence type that tracks iterators that reference it.">
<polygon fill="white" stroke="black" points="143,-92.5 143,-120.5 278,-120.5 278,-92.5 143,-92.5"/>
<text text-anchor="start" x="151" y="-109.3" font-family="Helvetica,sans-Serif" font-size="9.00">__gnu_debug::_Safe</text>
<text text-anchor="middle" x="210.5" y="-99.3" font-family="Helvetica,sans-Serif" font-size="9.00">_sequence&lt; _Sequence &gt;</text>
</a>
</g>
</g>
<!-- Node3&#45;&gt;Node2 -->
<g id="edge2" class="edge">
<title>Node3&#45;&gt;Node2</title>
<path fill="none" stroke="midnightblue" d="M288.35,-106.5C296.75,-106.5 305.34,-106.5 313.83,-106.5"/>
<polygon fill="midnightblue" stroke="midnightblue" points="288.22,-103 278.22,-106.5 288.22,-110 288.22,-103"/>
</g>
<!-- Node4 -->
<g id="node4" class="node">
<title>Node4</title>
<g id="a_node4"><a xlink:href="a09650.html" target="_top" xlink:title="Base class that supports tracking of iterators that reference a sequence.">
<polygon fill="white" stroke="black" points="0,-92.5 0,-120.5 107,-120.5 107,-92.5 0,-92.5"/>
<text text-anchor="start" x="8" y="-109.3" font-family="Helvetica,sans-Serif" font-size="9.00">__gnu_debug::_Safe</text>
<text text-anchor="middle" x="53.5" y="-99.3" font-family="Helvetica,sans-Serif" font-size="9.00">_sequence_base</text>
</a>
</g>
</g>
<!-- Node4&#45;&gt;Node3 -->
<g id="edge3" class="edge">
<title>Node4&#45;&gt;Node3</title>
<path fill="none" stroke="midnightblue" d="M117.47,-106.5C125.83,-106.5 134.43,-106.5 142.85,-106.5"/>
<polygon fill="midnightblue" stroke="midnightblue" points="117.41,-103 107.41,-106.5 117.41,-110 117.41,-103"/>
</g>
<!-- Node5 -->
<g id="node5" class="node">
<title>Node5</title>
<g id="a_node5"><a xlink:href="a05666.html" target="_top" xlink:title=" ">
<polygon fill="white" stroke="black" points="333,-0.5 333,-48.5 466,-48.5 466,-0.5 333,-0.5"/>
<text text-anchor="start" x="341" y="-37.3" font-family="Helvetica,sans-Serif" font-size="9.00">std::basic_string&lt;</text>
<text text-anchor="start" x="341" y="-27.3" font-family="Helvetica,sans-Serif" font-size="9.00"> _CharT, std::char_traits</text>
<text text-anchor="start" x="341" y="-17.3" font-family="Helvetica,sans-Serif" font-size="9.00">&lt; _CharT &gt;, std::allocator</text>
<text text-anchor="middle" x="399.5" y="-7.3" font-family="Helvetica,sans-Serif" font-size="9.00">&lt; _CharT &gt; &gt;</text>
</a>
</g>
</g>
<!-- Node5&#45;&gt;Node1 -->
<g id="edge4" class="edge">
<title>Node5&#45;&gt;Node1</title>
<path fill="none" stroke="midnightblue" d="M476.36,-41.59C491.18,-44.93 506.55,-48.39 520.84,-51.61"/>
<polygon fill="midnightblue" stroke="midnightblue" points="476.73,-38.09 466.21,-39.3 475.19,-44.91 476.73,-38.09"/>
</g>
</g>
</svg>
