<?xml version="1.0" encoding="UTF-8" standalone="no"?>
<!DOCTYPE svg PUBLIC "-//W3C//DTD SVG 1.1//EN"
 "http://www.w3.org/Graphics/SVG/1.1/DTD/svg11.dtd">
<!-- Generated by graphviz version 2.50.0 (0)
 -->
<!-- Title: std::__debug::vector&lt; _Tp, _Allocator &gt; Pages: 1 -->
<svg width="618pt" height="154pt"
 viewBox="0.00 0.00 618.00 154.00" xmlns="http://www.w3.org/2000/svg" xmlns:xlink="http://www.w3.org/1999/xlink">
<g id="graph0" class="graph" transform="scale(1 1) rotate(0) translate(4 150)">
<title>std::__debug::vector&lt; _Tp, _Allocator &gt;</title>
<polygon fill="white" stroke="transparent" points="-4,4 -4,-150 614,-150 614,4 -4,4"/>
<!-- Node1 -->
<g id="node1" class="node">
<title>Node1</title>
<g id="a_node1"><a xlink:title="Class std::vector with safety/checking/debug instrumentation.">
<polygon fill="#bfbfbf" stroke="black" points="500,-56.5 500,-84.5 610,-84.5 610,-56.5 500,-56.5"/>
<text text-anchor="start" x="508" y="-73.3" font-family="Helvetica,sans-Serif" font-size="9.00">std::__debug::vector</text>
<text text-anchor="middle" x="555" y="-63.3" font-family="Helvetica,sans-Serif" font-size="9.00">&lt; _Tp, _Allocator &gt;</text>
</a>
</g>
</g>
<!-- Node2 -->
<g id="node2" class="node">
<title>Node2</title>
<g id="a_node2"><a xlink:href="a09654.html" target="_top" xlink:title=" ">
<polygon fill="white" stroke="black" points="314,-77.5 314,-145.5 464,-145.5 464,-77.5 314,-77.5"/>
<text text-anchor="start" x="322" y="-134.3" font-family="Helvetica,sans-Serif" font-size="9.00">__gnu_debug::_Safe</text>
<text text-anchor="start" x="322" y="-124.3" font-family="Helvetica,sans-Serif" font-size="9.00">_container&lt; vector&lt;</text>
<text text-anchor="start" x="322" y="-114.3" font-family="Helvetica,sans-Serif" font-size="9.00"> _Tp, std::allocator</text>
<text text-anchor="start" x="322" y="-104.3" font-family="Helvetica,sans-Serif" font-size="9.00">&lt; _Tp &gt; &gt;, std::allocator</text>
<text text-anchor="start" x="322" y="-94.3" font-family="Helvetica,sans-Serif" font-size="9.00">&lt; _Tp &gt;, __gnu_debug::_Safe</text>
<text text-anchor="middle" x="389" y="-84.3" font-family="Helvetica,sans-Serif" font-size="9.00">_sequence &gt;</text>
</a>
</g>
</g>
<!-- Node2&#45;&gt;Node1 -->
<g id="edge1" class="edge">
<title>Node2&#45;&gt;Node1</title>
<path fill="none" stroke="midnightblue" d="M474.08,-90.48C482.74,-88.32 491.36,-86.16 499.56,-84.11"/>
<polygon fill="midnightblue" stroke="midnightblue" points="473.18,-87.1 464.32,-92.92 474.87,-93.89 473.18,-87.1"/>
</g>
<!-- Node3 -->
<g id="node3" class="node">
<title>Node3</title>
<g id="a_node3"><a xlink:href="a09550.html" target="_top" xlink:title="Base class for constructing a safe sequence type that tracks iterators that reference it.">
<polygon fill="white" stroke="black" points="143,-97.5 143,-125.5 278,-125.5 278,-97.5 143,-97.5"/>
<text text-anchor="start" x="151" y="-114.3" font-family="Helvetica,sans-Serif" font-size="9.00">__gnu_debug::_Safe</text>
<text text-anchor="middle" x="210.5" y="-104.3" font-family="Helvetica,sans-Serif" font-size="9.00">_sequence&lt; _Sequence &gt;</text>
</a>
</g>
</g>
<!-- Node3&#45;&gt;Node2 -->
<g id="edge2" class="edge">
<title>Node3&#45;&gt;Node2</title>
<path fill="none" stroke="midnightblue" d="M288.41,-111.5C296.84,-111.5 305.4,-111.5 313.79,-111.5"/>
<polygon fill="midnightblue" stroke="midnightblue" points="288.23,-108 278.23,-111.5 288.23,-115 288.23,-108"/>
</g>
<!-- Node4 -->
<g id="node4" class="node">
<title>Node4</title>
<g id="a_node4"><a xlink:href="a09650.html" target="_top" xlink:title="Base class that supports tracking of iterators that reference a sequence.">
<polygon fill="white" stroke="black" points="0,-97.5 0,-125.5 107,-125.5 107,-97.5 0,-97.5"/>
<text text-anchor="start" x="8" y="-114.3" font-family="Helvetica,sans-Serif" font-size="9.00">__gnu_debug::_Safe</text>
<text text-anchor="middle" x="53.5" y="-104.3" font-family="Helvetica,sans-Serif" font-size="9.00">_sequence_base</text>
</a>
</g>
</g>
<!-- Node4&#45;&gt;Node3 -->
<g id="edge3" class="edge">
<title>Node4&#45;&gt;Node3</title>
<path fill="none" stroke="midnightblue" d="M117.47,-111.5C125.83,-111.5 134.43,-111.5 142.85,-111.5"/>
<polygon fill="midnightblue" stroke="midnightblue" points="117.41,-108 107.41,-111.5 117.41,-115 117.41,-108"/>
</g>
<!-- Node5 -->
<g id="node5" class="node">
<title>Node5</title>
<g id="a_node5"><a xlink:href="a09838.html" target="_top" xlink:title=" ">
<polygon fill="white" stroke="black" points="326.5,-0.5 326.5,-58.5 451.5,-58.5 451.5,-0.5 326.5,-0.5"/>
<text text-anchor="start" x="334.5" y="-47.3" font-family="Helvetica,sans-Serif" font-size="9.00">__gnu_debug::_Safe</text>
<text text-anchor="start" x="334.5" y="-37.3" font-family="Helvetica,sans-Serif" font-size="9.00">_vector&lt; vector&lt; _Tp,</text>
<text text-anchor="start" x="334.5" y="-27.3" font-family="Helvetica,sans-Serif" font-size="9.00"> std::allocator&lt; _Tp</text>
<text text-anchor="start" x="334.5" y="-17.3" font-family="Helvetica,sans-Serif" font-size="9.00"> &gt; &gt;, ::vector&lt; _Tp, std</text>
<text text-anchor="middle" x="389" y="-7.3" font-family="Helvetica,sans-Serif" font-size="9.00">::allocator&lt; _Tp &gt; &gt; &gt;</text>
</a>
</g>
</g>
<!-- Node5&#45;&gt;Node1 -->
<g id="edge4" class="edge">
<title>Node5&#45;&gt;Node1</title>
<path fill="none" stroke="midnightblue" d="M461.34,-47.34C474.29,-50.57 487.59,-53.9 499.94,-56.98"/>
<polygon fill="midnightblue" stroke="midnightblue" points="462.08,-43.91 451.53,-44.88 460.39,-50.7 462.08,-43.91"/>
</g>
</g>
</svg>
