<?xml version="1.0" encoding="UTF-8" standalone="no"?>
<!DOCTYPE svg PUBLIC "-//W3C//DTD SVG 1.1//EN"
 "http://www.w3.org/Graphics/SVG/1.1/DTD/svg11.dtd">
<!-- Generated by graphviz version 2.50.0 (0)
 -->
<!-- Title: __gnu_parallel::__binder2nd&lt; _Operation, _FirstArgumentType, _SecondArgumentType, _ResultType &gt; Pages: 1 -->
<svg width="201pt" height="122pt"
 viewBox="0.00 0.00 201.00 122.00" xmlns="http://www.w3.org/2000/svg" xmlns:xlink="http://www.w3.org/1999/xlink">
<g id="graph0" class="graph" transform="scale(1 1) rotate(0) translate(4 118)">
<title>__gnu_parallel::__binder2nd&lt; _Operation, _FirstArgumentType, _SecondArgumentType, _ResultType &gt;</title>
<polygon fill="white" stroke="transparent" points="-4,4 -4,-118 197,-118 197,4 -4,4"/>
<!-- Node1 -->
<g id="node1" class="node">
<title>Node1</title>
<g id="a_node1"><a xlink:title="Similar to std::binder2nd, but giving the argument types explicitly.">
<polygon fill="#bfbfbf" stroke="black" points="0,-0.5 0,-38.5 193,-38.5 193,-0.5 0,-0.5"/>
<text text-anchor="start" x="8" y="-27.3" font-family="Helvetica,sans-Serif" font-size="9.00">__gnu_parallel::__binder2nd</text>
<text text-anchor="start" x="8" y="-17.3" font-family="Helvetica,sans-Serif" font-size="9.00">&lt; _Operation, _FirstArgumentType,</text>
<text text-anchor="middle" x="96.5" y="-7.3" font-family="Helvetica,sans-Serif" font-size="9.00"> _SecondArgumentType, _ResultType &gt;</text>
</a>
</g>
</g>
<!-- Node2 -->
<g id="node2" class="node">
<title>Node2</title>
<g id="a_node2"><a xlink:href="a08206.html" target="_top" xlink:title=" ">
<polygon fill="white" stroke="black" points="37,-75.5 37,-113.5 156,-113.5 156,-75.5 37,-75.5"/>
<text text-anchor="start" x="45" y="-102.3" font-family="Helvetica,sans-Serif" font-size="9.00">std::unary_function</text>
<text text-anchor="start" x="45" y="-92.3" font-family="Helvetica,sans-Serif" font-size="9.00">&lt; _FirstArgumentType,</text>
<text text-anchor="middle" x="96.5" y="-82.3" font-family="Helvetica,sans-Serif" font-size="9.00"> _ResultType &gt;</text>
</a>
</g>
</g>
<!-- Node2&#45;&gt;Node1 -->
<g id="edge1" class="edge">
<title>Node2&#45;&gt;Node1</title>
<path fill="none" stroke="midnightblue" d="M96.5,-65.37C96.5,-56.38 96.5,-46.67 96.5,-38.59"/>
<polygon fill="midnightblue" stroke="midnightblue" points="93,-65.46 96.5,-75.46 100,-65.46 93,-65.46"/>
</g>
</g>
</svg>
