<?xml version="1.0" encoding="UTF-8" standalone="no"?>
<!DOCTYPE svg PUBLIC "-//W3C//DTD SVG 1.1//EN"
 "http://www.w3.org/Graphics/SVG/1.1/DTD/svg11.dtd">
<!-- Generated by graphviz version 2.50.0 (0)
 -->
<!-- Title: __gnu_parallel::_Plus&lt; _Tp1, _Tp2, _Result &gt; Pages: 1 -->
<svg width="302pt" height="67pt"
 viewBox="0.00 0.00 302.00 67.00" xmlns="http://www.w3.org/2000/svg" xmlns:xlink="http://www.w3.org/1999/xlink">
<g id="graph0" class="graph" transform="scale(1 1) rotate(0) translate(4 63)">
<title>__gnu_parallel::_Plus&lt; _Tp1, _Tp2, _Result &gt;</title>
<polygon fill="white" stroke="transparent" points="-4,4 -4,-63 298,-63 298,4 -4,4"/>
<!-- Node1 -->
<g id="node1" class="node">
<title>Node1</title>
<g id="a_node1"><a xlink:title="Similar to std::plus, but allows two different types.">
<polygon fill="#bfbfbf" stroke="black" points="169,-15.5 169,-43.5 294,-43.5 294,-15.5 169,-15.5"/>
<text text-anchor="start" x="177" y="-32.3" font-family="Helvetica,sans-Serif" font-size="9.00">__gnu_parallel::_Plus</text>
<text text-anchor="middle" x="231.5" y="-22.3" font-family="Helvetica,sans-Serif" font-size="9.00">&lt; _Tp1, _Tp2, _Result &gt;</text>
</a>
</g>
</g>
<!-- Node2 -->
<g id="node2" class="node">
<title>Node2</title>
<g id="a_node2"><a xlink:href="a08210.html" target="_top" xlink:title=" ">
<polygon fill="white" stroke="black" points="0,-0.5 0,-58.5 133,-58.5 133,-0.5 0,-0.5"/>
<text text-anchor="start" x="8" y="-47.3" font-family="Helvetica,sans-Serif" font-size="9.00">std::binary_function</text>
<text text-anchor="start" x="8" y="-37.3" font-family="Helvetica,sans-Serif" font-size="9.00">&lt; _Tp1, _Tp2, __typeof</text>
<text text-anchor="start" x="8" y="-27.3" font-family="Helvetica,sans-Serif" font-size="9.00">__(*static_cast&lt; _Tp1 *</text>
<text text-anchor="start" x="8" y="-17.3" font-family="Helvetica,sans-Serif" font-size="9.00"> &gt;(0)+*static_cast&lt; _Tp2</text>
<text text-anchor="middle" x="66.5" y="-7.3" font-family="Helvetica,sans-Serif" font-size="9.00"> * &gt;(0)) &gt;</text>
</a>
</g>
</g>
<!-- Node2&#45;&gt;Node1 -->
<g id="edge1" class="edge">
<title>Node2&#45;&gt;Node1</title>
<path fill="none" stroke="midnightblue" d="M143.61,-29.5C152.09,-29.5 160.64,-29.5 168.91,-29.5"/>
<polygon fill="midnightblue" stroke="midnightblue" points="143.33,-26 133.33,-29.5 143.33,-33 143.33,-26"/>
</g>
</g>
</svg>
