<?xml version="1.0" encoding="UTF-8" standalone="no"?>
<!DOCTYPE svg PUBLIC "-//W3C//DTD SVG 1.1//EN"
 "http://www.w3.org/Graphics/SVG/1.1/DTD/svg11.dtd">
<!-- Generated by graphviz version 2.50.0 (0)
 -->
<!-- Title: __gnu_parallel::__generic_find_selector Pages: 1 -->
<svg width="328pt" height="178pt"
 viewBox="0.00 0.00 328.00 178.00" xmlns="http://www.w3.org/2000/svg" xmlns:xlink="http://www.w3.org/1999/xlink">
<g id="graph0" class="graph" transform="scale(1 1) rotate(0) translate(4 174)">
<title>__gnu_parallel::__generic_find_selector</title>
<polygon fill="white" stroke="transparent" points="-4,4 -4,-174 324,-174 324,4 -4,4"/>
<!-- Node1 -->
<g id="node1" class="node">
<title>Node1</title>
<g id="a_node1"><a xlink:title="Base class of all __gnu_parallel::__find_template selectors.">
<polygon fill="#bfbfbf" stroke="black" points="0,-70.5 0,-98.5 129,-98.5 129,-70.5 0,-70.5"/>
<text text-anchor="start" x="8" y="-87.3" font-family="Helvetica,sans-Serif" font-size="9.00">__gnu_parallel::__generic</text>
<text text-anchor="middle" x="64.5" y="-77.3" font-family="Helvetica,sans-Serif" font-size="9.00">_find_selector</text>
</a>
</g>
</g>
<!-- Node2 -->
<g id="node2" class="node">
<title>Node2</title>
<g id="a_node2"><a xlink:href="a10118.html" target="_top" xlink:title="Test predicate on two adjacent elements.">
<polygon fill="white" stroke="black" points="175.5,-141.5 175.5,-169.5 309.5,-169.5 309.5,-141.5 175.5,-141.5"/>
<text text-anchor="start" x="183.5" y="-158.3" font-family="Helvetica,sans-Serif" font-size="9.00">__gnu_parallel::__adjacent</text>
<text text-anchor="middle" x="242.5" y="-148.3" font-family="Helvetica,sans-Serif" font-size="9.00">_find_selector</text>
</a>
</g>
</g>
<!-- Node1&#45;&gt;Node2 -->
<g id="edge1" class="edge">
<title>Node1&#45;&gt;Node2</title>
<path fill="none" stroke="midnightblue" d="M101.06,-103.34C119.77,-112.82 143.28,-124.06 165,-132.5 173.14,-135.67 181.91,-138.67 190.5,-141.39"/>
<polygon fill="midnightblue" stroke="midnightblue" points="102.52,-100.15 92.02,-98.71 99.32,-106.38 102.52,-100.15"/>
</g>
<!-- Node3 -->
<g id="node3" class="node">
<title>Node3</title>
<g id="a_node3"><a xlink:href="a10126.html" target="_top" xlink:title="Test predicate on several elements.">
<polygon fill="white" stroke="black" points="165,-94.5 165,-122.5 320,-122.5 320,-94.5 165,-94.5"/>
<text text-anchor="start" x="173" y="-111.3" font-family="Helvetica,sans-Serif" font-size="9.00">__gnu_parallel::__find</text>
<text text-anchor="middle" x="242.5" y="-101.3" font-family="Helvetica,sans-Serif" font-size="9.00">_first_of_selector&lt; _FIterator &gt;</text>
</a>
</g>
</g>
<!-- Node1&#45;&gt;Node3 -->
<g id="edge2" class="edge">
<title>Node1&#45;&gt;Node3</title>
<path fill="none" stroke="midnightblue" d="M138.97,-94.52C147.52,-95.68 156.26,-96.88 164.85,-98.05"/>
<polygon fill="midnightblue" stroke="midnightblue" points="139.42,-91.05 129.04,-93.16 138.48,-97.98 139.42,-91.05"/>
</g>
<!-- Node4 -->
<g id="node4" class="node">
<title>Node4</title>
<g id="a_node4"><a xlink:href="a10114.html" target="_top" xlink:title="Test predicate on a single element, used for std::find() and std::find_if ().">
<polygon fill="white" stroke="black" points="186,-47.5 186,-75.5 299,-75.5 299,-47.5 186,-47.5"/>
<text text-anchor="start" x="194" y="-64.3" font-family="Helvetica,sans-Serif" font-size="9.00">__gnu_parallel::__find</text>
<text text-anchor="middle" x="242.5" y="-54.3" font-family="Helvetica,sans-Serif" font-size="9.00">_if_selector</text>
</a>
</g>
</g>
<!-- Node1&#45;&gt;Node4 -->
<g id="edge3" class="edge">
<title>Node1&#45;&gt;Node4</title>
<path fill="none" stroke="midnightblue" d="M139.2,-74.87C154.84,-72.83 171.09,-70.7 185.92,-68.76"/>
<polygon fill="midnightblue" stroke="midnightblue" points="138.5,-71.43 129.04,-76.2 139.41,-78.37 138.5,-71.43"/>
</g>
<!-- Node5 -->
<g id="node5" class="node">
<title>Node5</title>
<g id="a_node5"><a xlink:href="a10122.html" target="_top" xlink:title="Test inverted predicate on a single element.">
<polygon fill="white" stroke="black" points="172.5,-0.5 172.5,-28.5 312.5,-28.5 312.5,-0.5 172.5,-0.5"/>
<text text-anchor="start" x="180.5" y="-17.3" font-family="Helvetica,sans-Serif" font-size="9.00">__gnu_parallel::__mismatch</text>
<text text-anchor="middle" x="242.5" y="-7.3" font-family="Helvetica,sans-Serif" font-size="9.00">_selector</text>
</a>
</g>
</g>
<!-- Node1&#45;&gt;Node5 -->
<g id="edge4" class="edge">
<title>Node1&#45;&gt;Node5</title>
<path fill="none" stroke="midnightblue" d="M102.63,-65.95C121.13,-57.06 143.99,-46.61 165,-38.5 174.09,-34.99 183.93,-31.61 193.43,-28.54"/>
<polygon fill="midnightblue" stroke="midnightblue" points="100.86,-62.92 93.39,-70.43 103.91,-69.21 100.86,-62.92"/>
</g>
</g>
</svg>
