<?xml version="1.0" encoding="UTF-8" standalone="no"?>
<!DOCTYPE svg PUBLIC "-//W3C//DTD SVG 1.1//EN"
 "http://www.w3.org/Graphics/SVG/1.1/DTD/svg11.dtd">
<!-- Generated by graphviz version 2.50.0 (0)
 -->
<!-- Title: __gnu_parallel::__find_if_selector Pages: 1 -->
<svg width="137pt" height="102pt"
 viewBox="0.00 0.00 137.00 102.00" xmlns="http://www.w3.org/2000/svg" xmlns:xlink="http://www.w3.org/1999/xlink">
<g id="graph0" class="graph" transform="scale(1 1) rotate(0) translate(4 98)">
<title>__gnu_parallel::__find_if_selector</title>
<polygon fill="white" stroke="transparent" points="-4,4 -4,-98 133,-98 133,4 -4,4"/>
<!-- Node1 -->
<g id="node1" class="node">
<title>Node1</title>
<g id="a_node1"><a xlink:title="Test predicate on a single element, used for std::find() and std::find_if ().">
<polygon fill="#bfbfbf" stroke="black" points="8,-0.5 8,-28.5 121,-28.5 121,-0.5 8,-0.5"/>
<text text-anchor="start" x="16" y="-17.3" font-family="Helvetica,sans-Serif" font-size="9.00">__gnu_parallel::__find</text>
<text text-anchor="middle" x="64.5" y="-7.3" font-family="Helvetica,sans-Serif" font-size="9.00">_if_selector</text>
</a>
</g>
</g>
<!-- Node2 -->
<g id="node2" class="node">
<title>Node2</title>
<g id="a_node2"><a xlink:href="a10110.html" target="_top" xlink:title="Base class of all __gnu_parallel::__find_template selectors.">
<polygon fill="white" stroke="black" points="0,-65.5 0,-93.5 129,-93.5 129,-65.5 0,-65.5"/>
<text text-anchor="start" x="8" y="-82.3" font-family="Helvetica,sans-Serif" font-size="9.00">__gnu_parallel::__generic</text>
<text text-anchor="middle" x="64.5" y="-72.3" font-family="Helvetica,sans-Serif" font-size="9.00">_find_selector</text>
</a>
</g>
</g>
<!-- Node2&#45;&gt;Node1 -->
<g id="edge1" class="edge">
<title>Node2&#45;&gt;Node1</title>
<path fill="none" stroke="midnightblue" d="M64.5,-55.16C64.5,-46.17 64.5,-36.22 64.5,-28.54"/>
<polygon fill="midnightblue" stroke="midnightblue" points="61,-55.45 64.5,-65.45 68,-55.45 61,-55.45"/>
</g>
</g>
</svg>
