<?xml version="1.0" encoding="UTF-8" standalone="no"?>
<!DOCTYPE svg PUBLIC "-//W3C//DTD SVG 1.1//EN"
 "http://www.w3.org/Graphics/SVG/1.1/DTD/svg11.dtd">
<!-- Generated by graphviz version 2.50.0 (0)
 -->
<!-- Title: __gnu_parallel::_LoserTreePointerUnguarded&lt; __stable, _Tp, _Compare &gt; Pages: 1 -->
<svg width="157pt" height="122pt"
 viewBox="0.00 0.00 157.00 122.00" xmlns="http://www.w3.org/2000/svg" xmlns:xlink="http://www.w3.org/1999/xlink">
<g id="graph0" class="graph" transform="scale(1 1) rotate(0) translate(4 118)">
<title>__gnu_parallel::_LoserTreePointerUnguarded&lt; __stable, _Tp, _Compare &gt;</title>
<polygon fill="white" stroke="transparent" points="-4,4 -4,-118 153,-118 153,4 -4,4"/>
<!-- Node1 -->
<g id="node1" class="node">
<title>Node1</title>
<g id="a_node1"><a xlink:title="Stable unguarded _LoserTree variant storing pointers.">
<polygon fill="#bfbfbf" stroke="black" points="0,-0.5 0,-38.5 149,-38.5 149,-0.5 0,-0.5"/>
<text text-anchor="start" x="8" y="-27.3" font-family="Helvetica,sans-Serif" font-size="9.00">__gnu_parallel::_LoserTree</text>
<text text-anchor="start" x="8" y="-17.3" font-family="Helvetica,sans-Serif" font-size="9.00">PointerUnguarded&lt; __stable,</text>
<text text-anchor="middle" x="74.5" y="-7.3" font-family="Helvetica,sans-Serif" font-size="9.00"> _Tp, _Compare &gt;</text>
</a>
</g>
</g>
<!-- Node2 -->
<g id="node2" class="node">
<title>Node2</title>
<g id="a_node2"><a xlink:href="a10262.html" target="_top" xlink:title="Unguarded loser tree, keeping only pointers to the elements in the tree structure.">
<polygon fill="white" stroke="black" points="8,-75.5 8,-113.5 141,-113.5 141,-75.5 8,-75.5"/>
<text text-anchor="start" x="16" y="-102.3" font-family="Helvetica,sans-Serif" font-size="9.00">__gnu_parallel::_LoserTree</text>
<text text-anchor="start" x="16" y="-92.3" font-family="Helvetica,sans-Serif" font-size="9.00">PointerUnguardedBase&lt; </text>
<text text-anchor="middle" x="74.5" y="-82.3" font-family="Helvetica,sans-Serif" font-size="9.00">_Tp, _Compare &gt;</text>
</a>
</g>
</g>
<!-- Node2&#45;&gt;Node1 -->
<g id="edge1" class="edge">
<title>Node2&#45;&gt;Node1</title>
<path fill="none" stroke="midnightblue" d="M74.5,-65.37C74.5,-56.38 74.5,-46.67 74.5,-38.59"/>
<polygon fill="midnightblue" stroke="midnightblue" points="71,-65.46 74.5,-75.46 78,-65.46 71,-65.46"/>
</g>
</g>
</svg>
