<?xml version="1.0" encoding="UTF-8" standalone="no"?>
<!DOCTYPE svg PUBLIC "-//W3C//DTD SVG 1.1//EN"
 "http://www.w3.org/Graphics/SVG/1.1/DTD/svg11.dtd">
<!-- Generated by graphviz version 2.50.0 (0)
 -->
<!-- Title: __gnu_parallel::_IteratorPair&lt; _Iterator1, _Iterator2, _IteratorCategory &gt; Pages: 1 -->
<svg width="149pt" height="112pt"
 viewBox="0.00 0.00 149.00 112.00" xmlns="http://www.w3.org/2000/svg" xmlns:xlink="http://www.w3.org/1999/xlink">
<g id="graph0" class="graph" transform="scale(1 1) rotate(0) translate(4 108)">
<title>__gnu_parallel::_IteratorPair&lt; _Iterator1, _Iterator2, _IteratorCategory &gt;</title>
<polygon fill="white" stroke="transparent" points="-4,4 -4,-108 145,-108 145,4 -4,4"/>
<!-- Node1 -->
<g id="node1" class="node">
<title>Node1</title>
<g id="a_node1"><a xlink:title="A pair of iterators. The usual iterator operations are applied to both child iterators.">
<polygon fill="#bfbfbf" stroke="black" points="0,-0.5 0,-38.5 141,-38.5 141,-0.5 0,-0.5"/>
<text text-anchor="start" x="8" y="-27.3" font-family="Helvetica,sans-Serif" font-size="9.00">__gnu_parallel::_Iterator</text>
<text text-anchor="start" x="8" y="-17.3" font-family="Helvetica,sans-Serif" font-size="9.00">Pair&lt; _Iterator1, _Iterator2,</text>
<text text-anchor="middle" x="70.5" y="-7.3" font-family="Helvetica,sans-Serif" font-size="9.00"> _IteratorCategory &gt;</text>
</a>
</g>
</g>
<!-- Node2 -->
<g id="node2" class="node">
<title>Node2</title>
<g id="a_node2"><a xlink:href="a08610.html" target="_top" xlink:title=" ">
<polygon fill="white" stroke="black" points="14.5,-75.5 14.5,-103.5 126.5,-103.5 126.5,-75.5 14.5,-75.5"/>
<text text-anchor="start" x="22.5" y="-92.3" font-family="Helvetica,sans-Serif" font-size="9.00">std::pair&lt; _Iterator1,</text>
<text text-anchor="middle" x="70.5" y="-82.3" font-family="Helvetica,sans-Serif" font-size="9.00"> _Iterator2 &gt;</text>
</a>
</g>
</g>
<!-- Node2&#45;&gt;Node1 -->
<g id="edge1" class="edge">
<title>Node2&#45;&gt;Node1</title>
<path fill="none" stroke="midnightblue" d="M70.5,-65.17C70.5,-56.52 70.5,-46.84 70.5,-38.71"/>
<polygon fill="midnightblue" stroke="midnightblue" points="67,-65.39 70.5,-75.39 74,-65.39 67,-65.39"/>
</g>
</g>
</svg>
