<?xml version="1.0" encoding="UTF-8" standalone="no"?>
<!DOCTYPE svg PUBLIC "-//W3C//DTD SVG 1.1//EN"
 "http://www.w3.org/Graphics/SVG/1.1/DTD/svg11.dtd">
<!-- Generated by graphviz version 2.50.0 (0)
 -->
<!-- Title: __gnu_parallel::_LexicographicReverse&lt; _T1, _T2, _Compare &gt; Pages: 1 -->
<svg width="169pt" height="102pt"
 viewBox="0.00 0.00 169.00 102.00" xmlns="http://www.w3.org/2000/svg" xmlns:xlink="http://www.w3.org/1999/xlink">
<g id="graph0" class="graph" transform="scale(1 1) rotate(0) translate(4 98)">
<title>__gnu_parallel::_LexicographicReverse&lt; _T1, _T2, _Compare &gt;</title>
<polygon fill="white" stroke="transparent" points="-4,4 -4,-98 165,-98 165,4 -4,4"/>
<!-- Node1 -->
<g id="node1" class="node">
<title>Node1</title>
<g id="a_node1"><a xlink:title="Compare __a pair of types lexicographically, descending.">
<polygon fill="#bfbfbf" stroke="black" points="0,-0.5 0,-28.5 161,-28.5 161,-0.5 0,-0.5"/>
<text text-anchor="start" x="8" y="-17.3" font-family="Helvetica,sans-Serif" font-size="9.00">__gnu_parallel::_Lexicographic</text>
<text text-anchor="middle" x="80.5" y="-7.3" font-family="Helvetica,sans-Serif" font-size="9.00">Reverse&lt; _T1, _T2, _Compare &gt;</text>
</a>
</g>
</g>
<!-- Node2 -->
<g id="node2" class="node">
<title>Node2</title>
<g id="a_node2"><a xlink:href="a08210.html" target="_top" xlink:title=" ">
<polygon fill="white" stroke="black" points="27,-65.5 27,-93.5 134,-93.5 134,-65.5 27,-65.5"/>
<text text-anchor="start" x="35" y="-82.3" font-family="Helvetica,sans-Serif" font-size="9.00">std::binary_function</text>
<text text-anchor="middle" x="80.5" y="-72.3" font-family="Helvetica,sans-Serif" font-size="9.00">&lt; _T1, _T2, bool &gt;</text>
</a>
</g>
</g>
<!-- Node2&#45;&gt;Node1 -->
<g id="edge1" class="edge">
<title>Node2&#45;&gt;Node1</title>
<path fill="none" stroke="midnightblue" d="M80.5,-55.16C80.5,-46.17 80.5,-36.22 80.5,-28.54"/>
<polygon fill="midnightblue" stroke="midnightblue" points="77,-55.45 80.5,-65.45 84,-55.45 77,-55.45"/>
</g>
</g>
</svg>
