<?xml version="1.0" encoding="UTF-8" standalone="no"?>
<!DOCTYPE svg PUBLIC "-//W3C//DTD SVG 1.1//EN"
 "http://www.w3.org/Graphics/SVG/1.1/DTD/svg11.dtd">
<!-- Generated by graphviz version 2.50.0 (0)
 -->
<!-- Title: std::experimental::fundamentals_v1::optional&lt; _Tp &gt; Pages: 1 -->
<svg width="145pt" height="112pt"
 viewBox="0.00 0.00 145.00 112.00" xmlns="http://www.w3.org/2000/svg" xmlns:xlink="http://www.w3.org/1999/xlink">
<g id="graph0" class="graph" transform="scale(1 1) rotate(0) translate(4 108)">
<title>std::experimental::fundamentals_v1::optional&lt; _Tp &gt;</title>
<polygon fill="white" stroke="transparent" points="-4,4 -4,-108 141,-108 141,4 -4,4"/>
<!-- Node1 -->
<g id="node1" class="node">
<title>Node1</title>
<g id="a_node1"><a xlink:title="Class template for optional values.">
<polygon fill="#bfbfbf" stroke="black" points="0,-0.5 0,-38.5 137,-38.5 137,-0.5 0,-0.5"/>
<text text-anchor="start" x="8" y="-27.3" font-family="Helvetica,sans-Serif" font-size="9.00">std::experimental::</text>
<text text-anchor="start" x="8" y="-17.3" font-family="Helvetica,sans-Serif" font-size="9.00">fundamentals_v1::optional</text>
<text text-anchor="middle" x="68.5" y="-7.3" font-family="Helvetica,sans-Serif" font-size="9.00">&lt; _Tp &gt;</text>
</a>
</g>
</g>
<!-- Node2 -->
<g id="node2" class="node">
<title>Node2</title>
<g id="a_node2"><a xlink:href="a03010.html" target="_top" xlink:title="Class template that provides copy/move constructors of optional.">
<polygon fill="white" stroke="black" points="16.5,-75.5 16.5,-103.5 120.5,-103.5 120.5,-75.5 16.5,-75.5"/>
<text text-anchor="start" x="24.5" y="-92.3" font-family="Helvetica,sans-Serif" font-size="9.00">std::_Optional_base</text>
<text text-anchor="middle" x="68.5" y="-82.3" font-family="Helvetica,sans-Serif" font-size="9.00">&lt; _Tp, bool, bool &gt;</text>
</a>
</g>
</g>
<!-- Node2&#45;&gt;Node1 -->
<g id="edge1" class="edge">
<title>Node2&#45;&gt;Node1</title>
<path fill="none" stroke="#8b1a1a" d="M68.5,-65.17C68.5,-56.52 68.5,-46.84 68.5,-38.71"/>
<polygon fill="#8b1a1a" stroke="#8b1a1a" points="65,-65.39 68.5,-75.39 72,-65.39 65,-65.39"/>
</g>
</g>
</svg>
