<?xml version="1.0" encoding="UTF-8" standalone="no"?>
<!DOCTYPE svg PUBLIC "-//W3C//DTD SVG 1.1//EN"
 "http://www.w3.org/Graphics/SVG/1.1/DTD/svg11.dtd">
<!-- Generated by graphviz version 2.50.0 (0)
 -->
<!-- Title: __gnu_cxx::__pool_base Pages: 1 -->
<svg width="236pt" height="92pt"
 viewBox="0.00 0.00 236.00 92.00" xmlns="http://www.w3.org/2000/svg" xmlns:xlink="http://www.w3.org/1999/xlink">
<g id="graph0" class="graph" transform="scale(1 1) rotate(0) translate(4 88)">
<title>__gnu_cxx::__pool_base</title>
<polygon fill="white" stroke="transparent" points="-4,4 -4,-88 232,-88 232,4 -4,4"/>
<!-- Node1 -->
<g id="node1" class="node">
<title>Node1</title>
<g id="a_node1"><a xlink:title="Base class for pool object.">
<polygon fill="#bfbfbf" stroke="black" points="52,-65.5 52,-83.5 175,-83.5 175,-65.5 52,-65.5"/>
<text text-anchor="middle" x="113.5" y="-72.3" font-family="Helvetica,sans-Serif" font-size="9.00">__gnu_cxx::__pool_base</text>
</a>
</g>
</g>
<!-- Node2 -->
<g id="node2" class="node">
<title>Node2</title>
<g id="a_node2"><a xlink:href="a12122.html" target="_top" xlink:title="Specialization for single thread.">
<polygon fill="white" stroke="black" points="0,-0.5 0,-28.5 105,-28.5 105,-0.5 0,-0.5"/>
<text text-anchor="start" x="8" y="-17.3" font-family="Helvetica,sans-Serif" font-size="9.00">__gnu_cxx::__pool&lt;</text>
<text text-anchor="middle" x="52.5" y="-7.3" font-family="Helvetica,sans-Serif" font-size="9.00"> false &gt;</text>
</a>
</g>
</g>
<!-- Node1&#45;&gt;Node2 -->
<g id="edge1" class="edge">
<title>Node1&#45;&gt;Node2</title>
<path fill="none" stroke="midnightblue" d="M97.65,-58.43C88.01,-49.26 75.82,-37.67 66.53,-28.84"/>
<polygon fill="midnightblue" stroke="midnightblue" points="95.36,-61.08 105.02,-65.44 100.18,-56.01 95.36,-61.08"/>
</g>
<!-- Node3 -->
<g id="node3" class="node">
<title>Node3</title>
<g id="a_node3"><a xlink:href="a12134.html" target="_top" xlink:title="Specialization for thread enabled, via gthreads.h.">
<polygon fill="white" stroke="black" points="123,-0.5 123,-28.5 228,-28.5 228,-0.5 123,-0.5"/>
<text text-anchor="start" x="131" y="-17.3" font-family="Helvetica,sans-Serif" font-size="9.00">__gnu_cxx::__pool&lt;</text>
<text text-anchor="middle" x="175.5" y="-7.3" font-family="Helvetica,sans-Serif" font-size="9.00"> true &gt;</text>
</a>
</g>
</g>
<!-- Node1&#45;&gt;Node3 -->
<g id="edge2" class="edge">
<title>Node1&#45;&gt;Node3</title>
<path fill="none" stroke="midnightblue" d="M129.61,-58.43C139.41,-49.26 151.8,-37.67 161.24,-28.84"/>
<polygon fill="midnightblue" stroke="midnightblue" points="127.03,-56.05 122.12,-65.44 131.81,-61.16 127.03,-56.05"/>
</g>
</g>
</svg>
