<?xml version="1.0" encoding="UTF-8" standalone="no"?>
<!DOCTYPE svg PUBLIC "-//W3C//DTD SVG 1.1//EN"
 "http://www.w3.org/Graphics/SVG/1.1/DTD/svg11.dtd">
<!-- Generated by graphviz version 2.50.0 (0)
 -->
<!-- Title: __gnu_cxx::throw_value_limit Pages: 1 -->
<svg width="145pt" height="212pt"
 viewBox="0.00 0.00 145.00 212.00" xmlns="http://www.w3.org/2000/svg" xmlns:xlink="http://www.w3.org/1999/xlink">
<g id="graph0" class="graph" transform="scale(1 1) rotate(0) translate(4 208)">
<title>__gnu_cxx::throw_value_limit</title>
<polygon fill="white" stroke="transparent" points="-4,4 -4,-208 141,-208 141,4 -4,4"/>
<!-- Node1 -->
<g id="node1" class="node">
<title>Node1</title>
<g id="a_node1"><a xlink:title="Type throwing via limit condition.">
<polygon fill="#bfbfbf" stroke="black" points="6,-0.5 6,-28.5 131,-28.5 131,-0.5 6,-0.5"/>
<text text-anchor="start" x="14" y="-17.3" font-family="Helvetica,sans-Serif" font-size="9.00">__gnu_cxx::throw_value</text>
<text text-anchor="middle" x="68.5" y="-7.3" font-family="Helvetica,sans-Serif" font-size="9.00">_limit</text>
</a>
</g>
</g>
<!-- Node2 -->
<g id="node2" class="node">
<title>Node2</title>
<g id="a_node2"><a xlink:href="a12442.html" target="_top" xlink:title=" ">
<polygon fill="white" stroke="black" points="4,-65.5 4,-93.5 133,-93.5 133,-65.5 4,-65.5"/>
<text text-anchor="start" x="12" y="-82.3" font-family="Helvetica,sans-Serif" font-size="9.00">__gnu_cxx::throw_value</text>
<text text-anchor="middle" x="68.5" y="-72.3" font-family="Helvetica,sans-Serif" font-size="9.00">_base&lt; limit_condition &gt;</text>
</a>
</g>
</g>
<!-- Node2&#45;&gt;Node1 -->
<g id="edge1" class="edge">
<title>Node2&#45;&gt;Node1</title>
<path fill="none" stroke="midnightblue" d="M68.5,-55.16C68.5,-46.17 68.5,-36.22 68.5,-28.54"/>
<polygon fill="midnightblue" stroke="midnightblue" points="65,-55.45 68.5,-65.45 72,-55.45 65,-55.45"/>
</g>
<!-- Node3 -->
<g id="node3" class="node">
<title>Node3</title>
<g id="a_node3"><a xlink:href="a12402.html" target="_top" xlink:title="Base class for incremental control and throw.">
<polygon fill="white" stroke="black" points="0.5,-130.5 0.5,-148.5 136.5,-148.5 136.5,-130.5 0.5,-130.5"/>
<text text-anchor="middle" x="68.5" y="-137.3" font-family="Helvetica,sans-Serif" font-size="9.00">__gnu_cxx::limit_condition</text>
</a>
</g>
</g>
<!-- Node3&#45;&gt;Node2 -->
<g id="edge2" class="edge">
<title>Node3&#45;&gt;Node2</title>
<path fill="none" stroke="midnightblue" d="M68.5,-120.32C68.5,-111.75 68.5,-101.7 68.5,-93.84"/>
<polygon fill="midnightblue" stroke="midnightblue" points="65,-120.44 68.5,-130.44 72,-120.44 65,-120.44"/>
</g>
<!-- Node4 -->
<g id="node4" class="node">
<title>Node4</title>
<g id="a_node4"><a xlink:href="a12398.html" target="_top" xlink:title="Base struct for condition policy.">
<polygon fill="white" stroke="black" points="0,-185.5 0,-203.5 137,-203.5 137,-185.5 0,-185.5"/>
<text text-anchor="middle" x="68.5" y="-192.3" font-family="Helvetica,sans-Serif" font-size="9.00">__gnu_cxx::condition_base</text>
</a>
</g>
</g>
<!-- Node4&#45;&gt;Node3 -->
<g id="edge3" class="edge">
<title>Node4&#45;&gt;Node3</title>
<path fill="none" stroke="midnightblue" d="M68.5,-175.17C68.5,-166.09 68.5,-155.59 68.5,-148.55"/>
<polygon fill="midnightblue" stroke="midnightblue" points="65,-175.22 68.5,-185.22 72,-175.22 65,-175.22"/>
</g>
</g>
</svg>
