<?xml version="1.0" encoding="UTF-8" standalone="no"?>
<!DOCTYPE svg PUBLIC "-//W3C//DTD SVG 1.1//EN"
 "http://www.w3.org/Graphics/SVG/1.1/DTD/svg11.dtd">
<!-- Generated by graphviz version 2.50.0 (0)
 -->
<!-- Title: __gnu_cxx::throw_allocator_limit&lt; _Tp &gt; Pages: 1 -->
<svg width="299pt" height="212pt"
 viewBox="0.00 0.00 298.50 212.00" xmlns="http://www.w3.org/2000/svg" xmlns:xlink="http://www.w3.org/1999/xlink">
<g id="graph0" class="graph" transform="scale(1 1) rotate(0) translate(4 208)">
<title>__gnu_cxx::throw_allocator_limit&lt; _Tp &gt;</title>
<polygon fill="white" stroke="transparent" points="-4,4 -4,-208 294.5,-208 294.5,4 -4,4"/>
<!-- Node1 -->
<g id="node1" class="node">
<title>Node1</title>
<g id="a_node1"><a xlink:title="Allocator throwing via limit condition.">
<polygon fill="#bfbfbf" stroke="black" points="75.5,-0.5 75.5,-28.5 214.5,-28.5 214.5,-0.5 75.5,-0.5"/>
<text text-anchor="start" x="83.5" y="-17.3" font-family="Helvetica,sans-Serif" font-size="9.00">__gnu_cxx::throw_allocator</text>
<text text-anchor="middle" x="145" y="-7.3" font-family="Helvetica,sans-Serif" font-size="9.00">_limit&lt; _Tp &gt;</text>
</a>
</g>
</g>
<!-- Node2 -->
<g id="node2" class="node">
<title>Node2</title>
<g id="a_node2"><a xlink:href="a12454.html" target="_top" xlink:title=" ">
<polygon fill="white" stroke="black" points="69.5,-65.5 69.5,-93.5 220.5,-93.5 220.5,-65.5 69.5,-65.5"/>
<text text-anchor="start" x="77.5" y="-82.3" font-family="Helvetica,sans-Serif" font-size="9.00">__gnu_cxx::throw_allocator</text>
<text text-anchor="middle" x="145" y="-72.3" font-family="Helvetica,sans-Serif" font-size="9.00">_base&lt; _Tp, limit_condition &gt;</text>
</a>
</g>
</g>
<!-- Node2&#45;&gt;Node1 -->
<g id="edge1" class="edge">
<title>Node2&#45;&gt;Node1</title>
<path fill="none" stroke="midnightblue" d="M145,-55.16C145,-46.17 145,-36.22 145,-28.54"/>
<polygon fill="midnightblue" stroke="midnightblue" points="141.5,-55.45 145,-65.45 148.5,-55.45 141.5,-55.45"/>
</g>
<!-- Node3 -->
<g id="node3" class="node">
<title>Node3</title>
<g id="a_node3"><a xlink:href="a12394.html" target="_top" xlink:title="Base class for checking address and label information about allocations. Create a std::map between th...">
<polygon fill="white" stroke="black" points="0,-130.5 0,-148.5 136,-148.5 136,-130.5 0,-130.5"/>
<text text-anchor="middle" x="68" y="-137.3" font-family="Helvetica,sans-Serif" font-size="9.00">__gnu_cxx::annotate_base</text>
</a>
</g>
</g>
<!-- Node3&#45;&gt;Node2 -->
<g id="edge2" class="edge">
<title>Node3&#45;&gt;Node2</title>
<path fill="none" stroke="midnightblue" d="M86.99,-124.2C99.4,-114.85 115.49,-102.72 127.58,-93.62"/>
<polygon fill="midnightblue" stroke="midnightblue" points="84.59,-121.62 78.71,-130.44 88.8,-127.21 84.59,-121.62"/>
</g>
<!-- Node4 -->
<g id="node4" class="node">
<title>Node4</title>
<g id="a_node4"><a xlink:href="a12402.html" target="_top" xlink:title="Base class for incremental control and throw.">
<polygon fill="white" stroke="black" points="154,-130.5 154,-148.5 290,-148.5 290,-130.5 154,-130.5"/>
<text text-anchor="middle" x="222" y="-137.3" font-family="Helvetica,sans-Serif" font-size="9.00">__gnu_cxx::limit_condition</text>
</a>
</g>
</g>
<!-- Node4&#45;&gt;Node2 -->
<g id="edge3" class="edge">
<title>Node4&#45;&gt;Node2</title>
<path fill="none" stroke="midnightblue" d="M203.01,-124.2C190.6,-114.85 174.51,-102.72 162.42,-93.62"/>
<polygon fill="midnightblue" stroke="midnightblue" points="201.2,-127.21 211.29,-130.44 205.41,-121.62 201.2,-127.21"/>
</g>
<!-- Node5 -->
<g id="node5" class="node">
<title>Node5</title>
<g id="a_node5"><a xlink:href="a12398.html" target="_top" xlink:title="Base struct for condition policy.">
<polygon fill="white" stroke="black" points="153.5,-185.5 153.5,-203.5 290.5,-203.5 290.5,-185.5 153.5,-185.5"/>
<text text-anchor="middle" x="222" y="-192.3" font-family="Helvetica,sans-Serif" font-size="9.00">__gnu_cxx::condition_base</text>
</a>
</g>
</g>
<!-- Node5&#45;&gt;Node4 -->
<g id="edge4" class="edge">
<title>Node5&#45;&gt;Node4</title>
<path fill="none" stroke="midnightblue" d="M222,-175.17C222,-166.09 222,-155.59 222,-148.55"/>
<polygon fill="midnightblue" stroke="midnightblue" points="218.5,-175.22 222,-185.22 225.5,-175.22 218.5,-175.22"/>
</g>
</g>
</svg>
