<?xml version="1.0" encoding="UTF-8" standalone="no"?>
<!DOCTYPE svg PUBLIC "-//W3C//DTD SVG 1.1//EN"
 "http://www.w3.org/Graphics/SVG/1.1/DTD/svg11.dtd">
<!-- Generated by graphviz version 2.50.0 (0)
 -->
<!-- Title: __gnu_cxx::throw_allocator_random&lt; _Tp &gt; Pages: 1 -->
<svg width="314pt" height="212pt"
 viewBox="0.00 0.00 314.00 212.00" xmlns="http://www.w3.org/2000/svg" xmlns:xlink="http://www.w3.org/1999/xlink">
<g id="graph0" class="graph" transform="scale(1 1) rotate(0) translate(4 208)">
<title>__gnu_cxx::throw_allocator_random&lt; _Tp &gt;</title>
<polygon fill="white" stroke="transparent" points="-4,4 -4,-208 310,-208 310,4 -4,4"/>
<!-- Node1 -->
<g id="node1" class="node">
<title>Node1</title>
<g id="a_node1"><a xlink:title="Allocator throwing via random condition.">
<polygon fill="#bfbfbf" stroke="black" points="79.5,-0.5 79.5,-28.5 218.5,-28.5 218.5,-0.5 79.5,-0.5"/>
<text text-anchor="start" x="87.5" y="-17.3" font-family="Helvetica,sans-Serif" font-size="9.00">__gnu_cxx::throw_allocator</text>
<text text-anchor="middle" x="149" y="-7.3" font-family="Helvetica,sans-Serif" font-size="9.00">_random&lt; _Tp &gt;</text>
</a>
</g>
</g>
<!-- Node2 -->
<g id="node2" class="node">
<title>Node2</title>
<g id="a_node2"><a xlink:href="a12454.html" target="_top" xlink:title=" ">
<polygon fill="white" stroke="black" points="65.5,-65.5 65.5,-93.5 232.5,-93.5 232.5,-65.5 65.5,-65.5"/>
<text text-anchor="start" x="73.5" y="-82.3" font-family="Helvetica,sans-Serif" font-size="9.00">__gnu_cxx::throw_allocator</text>
<text text-anchor="middle" x="149" y="-72.3" font-family="Helvetica,sans-Serif" font-size="9.00">_base&lt; _Tp, random_condition &gt;</text>
</a>
</g>
</g>
<!-- Node2&#45;&gt;Node1 -->
<g id="edge1" class="edge">
<title>Node2&#45;&gt;Node1</title>
<path fill="none" stroke="midnightblue" d="M149,-55.16C149,-46.17 149,-36.22 149,-28.54"/>
<polygon fill="midnightblue" stroke="midnightblue" points="145.5,-55.45 149,-65.45 152.5,-55.45 145.5,-55.45"/>
</g>
<!-- Node3 -->
<g id="node3" class="node">
<title>Node3</title>
<g id="a_node3"><a xlink:href="a12394.html" target="_top" xlink:title="Base class for checking address and label information about allocations. Create a std::map between th...">
<polygon fill="white" stroke="black" points="0,-130.5 0,-148.5 136,-148.5 136,-130.5 0,-130.5"/>
<text text-anchor="middle" x="68" y="-137.3" font-family="Helvetica,sans-Serif" font-size="9.00">__gnu_cxx::annotate_base</text>
</a>
</g>
</g>
<!-- Node3&#45;&gt;Node2 -->
<g id="edge2" class="edge">
<title>Node3&#45;&gt;Node2</title>
<path fill="none" stroke="midnightblue" d="M87.59,-124.47C100.7,-115.08 117.84,-102.81 130.68,-93.62"/>
<polygon fill="midnightblue" stroke="midnightblue" points="85.36,-121.77 79.26,-130.44 89.43,-127.46 85.36,-121.77"/>
</g>
<!-- Node4 -->
<g id="node4" class="node">
<title>Node4</title>
<g id="a_node4"><a xlink:href="a12422.html" target="_top" xlink:title="Base class for random probability control and throw.">
<polygon fill="white" stroke="black" points="154,-130.5 154,-148.5 306,-148.5 306,-130.5 154,-130.5"/>
<text text-anchor="middle" x="230" y="-137.3" font-family="Helvetica,sans-Serif" font-size="9.00">__gnu_cxx::random_condition</text>
</a>
</g>
</g>
<!-- Node4&#45;&gt;Node2 -->
<g id="edge3" class="edge">
<title>Node4&#45;&gt;Node2</title>
<path fill="none" stroke="midnightblue" d="M210.41,-124.47C197.3,-115.08 180.16,-102.81 167.32,-93.62"/>
<polygon fill="midnightblue" stroke="midnightblue" points="208.57,-127.46 218.74,-130.44 212.64,-121.77 208.57,-127.46"/>
</g>
<!-- Node5 -->
<g id="node5" class="node">
<title>Node5</title>
<g id="a_node5"><a xlink:href="a12398.html" target="_top" xlink:title="Base struct for condition policy.">
<polygon fill="white" stroke="black" points="161.5,-185.5 161.5,-203.5 298.5,-203.5 298.5,-185.5 161.5,-185.5"/>
<text text-anchor="middle" x="230" y="-192.3" font-family="Helvetica,sans-Serif" font-size="9.00">__gnu_cxx::condition_base</text>
</a>
</g>
</g>
<!-- Node5&#45;&gt;Node4 -->
<g id="edge4" class="edge">
<title>Node5&#45;&gt;Node4</title>
<path fill="none" stroke="midnightblue" d="M230,-175.17C230,-166.09 230,-155.59 230,-148.55"/>
<polygon fill="midnightblue" stroke="midnightblue" points="226.5,-175.22 230,-185.22 233.5,-175.22 226.5,-175.22"/>
</g>
</g>
</svg>
