<?xml version="1.0" encoding="UTF-8" standalone="no"?>
<!DOCTYPE svg PUBLIC "-//W3C//DTD SVG 1.1//EN"
 "http://www.w3.org/Graphics/SVG/1.1/DTD/svg11.dtd">
<!-- Generated by graphviz version 2.50.0 (0)
 -->
<!-- Title: __gnu_cxx::throw_value_random Pages: 1 -->
<svg width="160pt" height="212pt"
 viewBox="0.00 0.00 160.00 212.00" xmlns="http://www.w3.org/2000/svg" xmlns:xlink="http://www.w3.org/1999/xlink">
<g id="graph0" class="graph" transform="scale(1 1) rotate(0) translate(4 208)">
<title>__gnu_cxx::throw_value_random</title>
<polygon fill="white" stroke="transparent" points="-4,4 -4,-208 156,-208 156,4 -4,4"/>
<!-- Node1 -->
<g id="node1" class="node">
<title>Node1</title>
<g id="a_node1"><a xlink:title="Type throwing via random condition.">
<polygon fill="#bfbfbf" stroke="black" points="13.5,-0.5 13.5,-28.5 138.5,-28.5 138.5,-0.5 13.5,-0.5"/>
<text text-anchor="start" x="21.5" y="-17.3" font-family="Helvetica,sans-Serif" font-size="9.00">__gnu_cxx::throw_value</text>
<text text-anchor="middle" x="76" y="-7.3" font-family="Helvetica,sans-Serif" font-size="9.00">_random</text>
</a>
</g>
</g>
<!-- Node2 -->
<g id="node2" class="node">
<title>Node2</title>
<g id="a_node2"><a xlink:href="a12442.html" target="_top" xlink:title=" ">
<polygon fill="white" stroke="black" points="3.5,-65.5 3.5,-93.5 148.5,-93.5 148.5,-65.5 3.5,-65.5"/>
<text text-anchor="start" x="11.5" y="-82.3" font-family="Helvetica,sans-Serif" font-size="9.00">__gnu_cxx::throw_value</text>
<text text-anchor="middle" x="76" y="-72.3" font-family="Helvetica,sans-Serif" font-size="9.00">_base&lt; random_condition &gt;</text>
</a>
</g>
</g>
<!-- Node2&#45;&gt;Node1 -->
<g id="edge1" class="edge">
<title>Node2&#45;&gt;Node1</title>
<path fill="none" stroke="midnightblue" d="M76,-55.16C76,-46.17 76,-36.22 76,-28.54"/>
<polygon fill="midnightblue" stroke="midnightblue" points="72.5,-55.45 76,-65.45 79.5,-55.45 72.5,-55.45"/>
</g>
<!-- Node3 -->
<g id="node3" class="node">
<title>Node3</title>
<g id="a_node3"><a xlink:href="a12422.html" target="_top" xlink:title="Base class for random probability control and throw.">
<polygon fill="white" stroke="black" points="0,-130.5 0,-148.5 152,-148.5 152,-130.5 0,-130.5"/>
<text text-anchor="middle" x="76" y="-137.3" font-family="Helvetica,sans-Serif" font-size="9.00">__gnu_cxx::random_condition</text>
</a>
</g>
</g>
<!-- Node3&#45;&gt;Node2 -->
<g id="edge2" class="edge">
<title>Node3&#45;&gt;Node2</title>
<path fill="none" stroke="midnightblue" d="M76,-120.32C76,-111.75 76,-101.7 76,-93.84"/>
<polygon fill="midnightblue" stroke="midnightblue" points="72.5,-120.44 76,-130.44 79.5,-120.44 72.5,-120.44"/>
</g>
<!-- Node4 -->
<g id="node4" class="node">
<title>Node4</title>
<g id="a_node4"><a xlink:href="a12398.html" target="_top" xlink:title="Base struct for condition policy.">
<polygon fill="white" stroke="black" points="7.5,-185.5 7.5,-203.5 144.5,-203.5 144.5,-185.5 7.5,-185.5"/>
<text text-anchor="middle" x="76" y="-192.3" font-family="Helvetica,sans-Serif" font-size="9.00">__gnu_cxx::condition_base</text>
</a>
</g>
</g>
<!-- Node4&#45;&gt;Node3 -->
<g id="edge3" class="edge">
<title>Node4&#45;&gt;Node3</title>
<path fill="none" stroke="midnightblue" d="M76,-175.17C76,-166.09 76,-155.59 76,-148.55"/>
<polygon fill="midnightblue" stroke="midnightblue" points="72.5,-175.22 76,-185.22 79.5,-175.22 72.5,-175.22"/>
</g>
</g>
</svg>
