<?xml version="1.0" encoding="UTF-8" standalone="no"?>
<!DOCTYPE svg PUBLIC "-//W3C//DTD SVG 1.1//EN"
 "http://www.w3.org/Graphics/SVG/1.1/DTD/svg11.dtd">
<!-- Generated by graphviz version 2.50.0 (0)
 -->
<!-- Title: __gnu_cxx::random_condition Pages: 1 -->
<svg width="711pt" height="84pt"
 viewBox="0.00 0.00 711.00 84.00" xmlns="http://www.w3.org/2000/svg" xmlns:xlink="http://www.w3.org/1999/xlink">
<g id="graph0" class="graph" transform="scale(1 1) rotate(0) translate(4 80)">
<title>__gnu_cxx::random_condition</title>
<polygon fill="white" stroke="transparent" points="-4,4 -4,-80 707,-80 707,4 -4,4"/>
<!-- Node1 -->
<g id="node1" class="node">
<title>Node1</title>
<g id="a_node1"><a xlink:title="Base class for random probability control and throw.">
<polygon fill="#bfbfbf" stroke="black" points="173,-28.5 173,-46.5 325,-46.5 325,-28.5 173,-28.5"/>
<text text-anchor="middle" x="249" y="-35.3" font-family="Helvetica,sans-Serif" font-size="9.00">__gnu_cxx::random_condition</text>
</a>
</g>
</g>
<!-- Node3 -->
<g id="node3" class="node">
<title>Node3</title>
<g id="a_node3"><a xlink:href="a12454.html" target="_top" xlink:title=" ">
<polygon fill="white" stroke="black" points="361,-47.5 361,-75.5 528,-75.5 528,-47.5 361,-47.5"/>
<text text-anchor="start" x="369" y="-64.3" font-family="Helvetica,sans-Serif" font-size="9.00">__gnu_cxx::throw_allocator</text>
<text text-anchor="middle" x="444.5" y="-54.3" font-family="Helvetica,sans-Serif" font-size="9.00">_base&lt; _Tp, random_condition &gt;</text>
</a>
</g>
</g>
<!-- Node1&#45;&gt;Node3 -->
<g id="edge2" class="edge">
<title>Node1&#45;&gt;Node3</title>
<path fill="none" stroke="midnightblue" d="M332.62,-47.75C341.93,-48.9 351.42,-50.08 360.73,-51.23"/>
<polygon fill="midnightblue" stroke="midnightblue" points="332.96,-44.26 322.6,-46.5 332.1,-51.21 332.96,-44.26"/>
</g>
<!-- Node5 -->
<g id="node5" class="node">
<title>Node5</title>
<g id="a_node5"><a xlink:href="a12442.html" target="_top" xlink:title=" ">
<polygon fill="white" stroke="black" points="372,-0.5 372,-28.5 517,-28.5 517,-0.5 372,-0.5"/>
<text text-anchor="start" x="380" y="-17.3" font-family="Helvetica,sans-Serif" font-size="9.00">__gnu_cxx::throw_value</text>
<text text-anchor="middle" x="444.5" y="-7.3" font-family="Helvetica,sans-Serif" font-size="9.00">_base&lt; random_condition &gt;</text>
</a>
</g>
</g>
<!-- Node1&#45;&gt;Node5 -->
<g id="edge4" class="edge">
<title>Node1&#45;&gt;Node5</title>
<path fill="none" stroke="midnightblue" d="M335.29,-27.36C347.53,-25.91 360.01,-24.42 371.94,-23.01"/>
<polygon fill="midnightblue" stroke="midnightblue" points="334.61,-23.92 325.09,-28.57 335.43,-30.87 334.61,-23.92"/>
</g>
<!-- Node2 -->
<g id="node2" class="node">
<title>Node2</title>
<g id="a_node2"><a xlink:href="a12398.html" target="_top" xlink:title="Base struct for condition policy.">
<polygon fill="white" stroke="black" points="0,-28.5 0,-46.5 137,-46.5 137,-28.5 0,-28.5"/>
<text text-anchor="middle" x="68.5" y="-35.3" font-family="Helvetica,sans-Serif" font-size="9.00">__gnu_cxx::condition_base</text>
</a>
</g>
</g>
<!-- Node2&#45;&gt;Node1 -->
<g id="edge1" class="edge">
<title>Node2&#45;&gt;Node1</title>
<path fill="none" stroke="midnightblue" d="M147.44,-37.5C155.88,-37.5 164.45,-37.5 172.85,-37.5"/>
<polygon fill="midnightblue" stroke="midnightblue" points="147.24,-34 137.24,-37.5 147.24,-41 147.24,-34"/>
</g>
<!-- Node4 -->
<g id="node4" class="node">
<title>Node4</title>
<g id="a_node4"><a xlink:href="a12466.html" target="_top" xlink:title="Allocator throwing via random condition.">
<polygon fill="white" stroke="black" points="564,-47.5 564,-75.5 703,-75.5 703,-47.5 564,-47.5"/>
<text text-anchor="start" x="572" y="-64.3" font-family="Helvetica,sans-Serif" font-size="9.00">__gnu_cxx::throw_allocator</text>
<text text-anchor="middle" x="633.5" y="-54.3" font-family="Helvetica,sans-Serif" font-size="9.00">_random&lt; _Tp &gt;</text>
</a>
</g>
</g>
<!-- Node3&#45;&gt;Node4 -->
<g id="edge3" class="edge">
<title>Node3&#45;&gt;Node4</title>
<path fill="none" stroke="midnightblue" d="M538.18,-61.5C546.81,-61.5 555.45,-61.5 563.81,-61.5"/>
<polygon fill="midnightblue" stroke="midnightblue" points="538.07,-58 528.07,-61.5 538.07,-65 538.07,-58"/>
</g>
<!-- Node6 -->
<g id="node6" class="node">
<title>Node6</title>
<g id="a_node6"><a xlink:href="a12450.html" target="_top" xlink:title="Type throwing via random condition.">
<polygon fill="white" stroke="black" points="571,-0.5 571,-28.5 696,-28.5 696,-0.5 571,-0.5"/>
<text text-anchor="start" x="579" y="-17.3" font-family="Helvetica,sans-Serif" font-size="9.00">__gnu_cxx::throw_value</text>
<text text-anchor="middle" x="633.5" y="-7.3" font-family="Helvetica,sans-Serif" font-size="9.00">_random</text>
</a>
</g>
</g>
<!-- Node5&#45;&gt;Node6 -->
<g id="edge5" class="edge">
<title>Node5&#45;&gt;Node6</title>
<path fill="none" stroke="midnightblue" d="M527.33,-14.5C541.98,-14.5 557.02,-14.5 570.98,-14.5"/>
<polygon fill="midnightblue" stroke="midnightblue" points="527.26,-11 517.26,-14.5 527.26,-18 527.26,-11"/>
</g>
</g>
</svg>
