<?xml version="1.0" encoding="UTF-8" standalone="no"?>
<!DOCTYPE svg PUBLIC "-//W3C//DTD SVG 1.1//EN"
 "http://www.w3.org/Graphics/SVG/1.1/DTD/svg11.dtd">
<!-- Generated by graphviz version 2.50.0 (0)
 -->
<!-- Title: __gnu_pbds::direct_mod_range_hashing&lt; Size_Type &gt; Pages: 1 -->
<svg width="154pt" height="122pt"
 viewBox="0.00 0.00 154.00 122.00" xmlns="http://www.w3.org/2000/svg" xmlns:xlink="http://www.w3.org/1999/xlink">
<g id="graph0" class="graph" transform="scale(1 1) rotate(0) translate(4 118)">
<title>__gnu_pbds::direct_mod_range_hashing&lt; Size_Type &gt;</title>
<polygon fill="white" stroke="transparent" points="-4,4 -4,-118 150,-118 150,4 -4,4"/>
<!-- Node1 -->
<g id="node1" class="node">
<title>Node1</title>
<g id="a_node1"><a xlink:title="A mod range&#45;hashing class (uses the modulo function).">
<polygon fill="#bfbfbf" stroke="black" points="13,-0.5 13,-38.5 133,-38.5 133,-0.5 13,-0.5"/>
<text text-anchor="start" x="21" y="-27.3" font-family="Helvetica,sans-Serif" font-size="9.00">__gnu_pbds::direct</text>
<text text-anchor="start" x="21" y="-17.3" font-family="Helvetica,sans-Serif" font-size="9.00">_mod_range_hashing&lt;</text>
<text text-anchor="middle" x="73" y="-7.3" font-family="Helvetica,sans-Serif" font-size="9.00"> Size_Type &gt;</text>
</a>
</g>
</g>
<!-- Node2 -->
<g id="node2" class="node">
<title>Node2</title>
<g id="a_node2"><a xlink:href="a13418.html" target="_top" xlink:title=" ">
<polygon fill="white" stroke="black" points="0,-75.5 0,-113.5 146,-113.5 146,-75.5 0,-75.5"/>
<text text-anchor="start" x="8" y="-102.3" font-family="Helvetica,sans-Serif" font-size="9.00">__gnu_pbds::detail</text>
<text text-anchor="start" x="8" y="-92.3" font-family="Helvetica,sans-Serif" font-size="9.00">::mod_based_range_hashing</text>
<text text-anchor="middle" x="73" y="-82.3" font-family="Helvetica,sans-Serif" font-size="9.00">&lt; std::size_t &gt;</text>
</a>
</g>
</g>
<!-- Node2&#45;&gt;Node1 -->
<g id="edge1" class="edge">
<title>Node2&#45;&gt;Node1</title>
<path fill="none" stroke="midnightblue" d="M73,-65.37C73,-56.38 73,-46.67 73,-38.59"/>
<polygon fill="midnightblue" stroke="midnightblue" points="69.5,-65.46 73,-75.46 76.5,-65.46 69.5,-65.46"/>
</g>
</g>
</svg>
