<?xml version="1.0" encoding="UTF-8" standalone="no"?>
<!DOCTYPE svg PUBLIC "-//W3C//DTD SVG 1.1//EN"
 "http://www.w3.org/Graphics/SVG/1.1/DTD/svg11.dtd">
<!-- Generated by graphviz version 2.50.0 (0)
 -->
<!-- Title: __gnu_pbds::join_error Pages: 1 -->
<svg width="127pt" height="202pt"
 viewBox="0.00 0.00 127.00 202.00" xmlns="http://www.w3.org/2000/svg" xmlns:xlink="http://www.w3.org/1999/xlink">
<g id="graph0" class="graph" transform="scale(1 1) rotate(0) translate(4 198)">
<title>__gnu_pbds::join_error</title>
<polygon fill="white" stroke="transparent" points="-4,4 -4,-198 123,-198 123,4 -4,4"/>
<!-- Node1 -->
<g id="node1" class="node">
<title>Node1</title>
<g id="a_node1"><a xlink:title="A join cannot be performed logical reasons (i.e., the ranges of the two container objects being joine...">
<polygon fill="#bfbfbf" stroke="black" points="0,-0.5 0,-18.5 119,-18.5 119,-0.5 0,-0.5"/>
<text text-anchor="middle" x="59.5" y="-7.3" font-family="Helvetica,sans-Serif" font-size="9.00">__gnu_pbds::join_error</text>
</a>
</g>
</g>
<!-- Node2 -->
<g id="node2" class="node">
<title>Node2</title>
<g id="a_node2"><a xlink:href="a12842.html" target="_top" xlink:title="Base class for exceptions.">
<polygon fill="white" stroke="black" points="0,-55.5 0,-83.5 119,-83.5 119,-55.5 0,-55.5"/>
<text text-anchor="start" x="8" y="-72.3" font-family="Helvetica,sans-Serif" font-size="9.00">__gnu_pbds::container</text>
<text text-anchor="middle" x="59.5" y="-62.3" font-family="Helvetica,sans-Serif" font-size="9.00">_error</text>
</a>
</g>
</g>
<!-- Node2&#45;&gt;Node1 -->
<g id="edge1" class="edge">
<title>Node2&#45;&gt;Node1</title>
<path fill="none" stroke="midnightblue" d="M59.5,-45.32C59.5,-35.94 59.5,-25.7 59.5,-18.77"/>
<polygon fill="midnightblue" stroke="midnightblue" points="56,-45.34 59.5,-55.34 63,-45.34 56,-45.34"/>
</g>
<!-- Node3 -->
<g id="node3" class="node">
<title>Node3</title>
<g id="a_node3"><a xlink:href="a03450.html" target="_top" xlink:title="One of two subclasses of exception.">
<polygon fill="white" stroke="black" points="17.5,-120.5 17.5,-138.5 101.5,-138.5 101.5,-120.5 17.5,-120.5"/>
<text text-anchor="middle" x="59.5" y="-127.3" font-family="Helvetica,sans-Serif" font-size="9.00">std::logic_error</text>
</a>
</g>
</g>
<!-- Node3&#45;&gt;Node2 -->
<g id="edge2" class="edge">
<title>Node3&#45;&gt;Node2</title>
<path fill="none" stroke="midnightblue" d="M59.5,-110.32C59.5,-101.75 59.5,-91.7 59.5,-83.84"/>
<polygon fill="midnightblue" stroke="midnightblue" points="56,-110.44 59.5,-120.44 63,-110.44 56,-110.44"/>
</g>
<!-- Node4 -->
<g id="node4" class="node">
<title>Node4</title>
<g id="a_node4"><a xlink:href="a05922.html" target="_top" xlink:title="Base class for all library exceptions.">
<polygon fill="white" stroke="black" points="19.5,-175.5 19.5,-193.5 99.5,-193.5 99.5,-175.5 19.5,-175.5"/>
<text text-anchor="middle" x="59.5" y="-182.3" font-family="Helvetica,sans-Serif" font-size="9.00">std::exception</text>
</a>
</g>
</g>
<!-- Node4&#45;&gt;Node3 -->
<g id="edge3" class="edge">
<title>Node4&#45;&gt;Node3</title>
<path fill="none" stroke="midnightblue" d="M59.5,-165.17C59.5,-156.09 59.5,-145.59 59.5,-138.55"/>
<polygon fill="midnightblue" stroke="midnightblue" points="56,-165.22 59.5,-175.22 63,-165.22 56,-165.22"/>
</g>
</g>
</svg>
