<?xml version="1.0" encoding="UTF-8" standalone="no"?>
<!DOCTYPE svg PUBLIC "-//W3C//DTD SVG 1.1//EN"
 "http://www.w3.org/Graphics/SVG/1.1/DTD/svg11.dtd">
<!-- Generated by graphviz version 2.50.0 (0)
 -->
<!-- Title: __gnu_pbds::hash_exponential_size_policy&lt; Size_Type &gt; Pages: 1 -->
<svg width="342pt" height="57pt"
 viewBox="0.00 0.00 342.00 57.00" xmlns="http://www.w3.org/2000/svg" xmlns:xlink="http://www.w3.org/1999/xlink">
<g id="graph0" class="graph" transform="scale(1 1) rotate(0) translate(4 53)">
<title>__gnu_pbds::hash_exponential_size_policy&lt; Size_Type &gt;</title>
<polygon fill="white" stroke="transparent" points="-4,4 -4,-53 338,-53 338,4 -4,4"/>
<!-- Node1 -->
<g id="node1" class="node">
<title>Node1</title>
<g id="a_node1"><a xlink:title="A size policy whose sequence of sizes form an exponential sequence (typically powers of 2.">
<polygon fill="#bfbfbf" stroke="black" points="0,-10.5 0,-38.5 155,-38.5 155,-10.5 0,-10.5"/>
<text text-anchor="start" x="8" y="-27.3" font-family="Helvetica,sans-Serif" font-size="9.00">__gnu_pbds::hash_exponential</text>
<text text-anchor="middle" x="77.5" y="-17.3" font-family="Helvetica,sans-Serif" font-size="9.00">_size_policy&lt; Size_Type &gt;</text>
</a>
</g>
</g>
<!-- Node2 -->
<g id="node2" class="node">
<title>Node2</title>
<g id="a_node2"><a xlink:href="a12890.html" target="_top" xlink:title="A resize policy which delegates operations to size and trigger policies.">
<polygon fill="white" stroke="black" points="191,-0.5 191,-48.5 334,-48.5 334,-0.5 191,-0.5"/>
<text text-anchor="start" x="199" y="-37.3" font-family="Helvetica,sans-Serif" font-size="9.00">__gnu_pbds::hash_standard</text>
<text text-anchor="start" x="199" y="-27.3" font-family="Helvetica,sans-Serif" font-size="9.00">_resize_policy&lt; Size_Policy,</text>
<text text-anchor="start" x="199" y="-17.3" font-family="Helvetica,sans-Serif" font-size="9.00"> Trigger_Policy, External</text>
<text text-anchor="middle" x="262.5" y="-7.3" font-family="Helvetica,sans-Serif" font-size="9.00">_Size_Access, Size_Type &gt;</text>
</a>
</g>
</g>
<!-- Node1&#45;&gt;Node2 -->
<g id="edge1" class="edge">
<title>Node1&#45;&gt;Node2</title>
<path fill="none" stroke="midnightblue" d="M165.11,-24.5C173.72,-24.5 182.39,-24.5 190.81,-24.5"/>
<polygon fill="midnightblue" stroke="midnightblue" points="165.05,-21 155.05,-24.5 165.05,-28 165.05,-21"/>
</g>
</g>
</svg>
