<?xml version="1.0" encoding="UTF-8" standalone="no"?>
<!DOCTYPE svg PUBLIC "-//W3C//DTD SVG 1.1//EN"
 "http://www.w3.org/Graphics/SVG/1.1/DTD/svg11.dtd">
<!-- Generated by graphviz version 2.50.0 (0)
 -->
<!-- Title: __gnu_pbds::hash_load_check_resize_trigger&lt; External_Load_Access, Size_Type &gt; Pages: 1 -->
<svg width="480pt" height="57pt"
 viewBox="0.00 0.00 480.00 57.00" xmlns="http://www.w3.org/2000/svg" xmlns:xlink="http://www.w3.org/1999/xlink">
<g id="graph0" class="graph" transform="scale(1 1) rotate(0) translate(4 53)">
<title>__gnu_pbds::hash_load_check_resize_trigger&lt; External_Load_Access, Size_Type &gt;</title>
<polygon fill="white" stroke="transparent" points="-4,4 -4,-53 476,-53 476,4 -4,4"/>
<!-- Node1 -->
<g id="node1" class="node">
<title>Node1</title>
<g id="a_node1"><a xlink:title="A resize trigger policy based on a load check. It keeps the load factor between some load factors loa...">
<polygon fill="#bfbfbf" stroke="black" points="165,-0.5 165,-48.5 293,-48.5 293,-0.5 165,-0.5"/>
<text text-anchor="start" x="173" y="-37.3" font-family="Helvetica,sans-Serif" font-size="9.00">__gnu_pbds::hash_load</text>
<text text-anchor="start" x="173" y="-27.3" font-family="Helvetica,sans-Serif" font-size="9.00">_check_resize_trigger</text>
<text text-anchor="start" x="173" y="-17.3" font-family="Helvetica,sans-Serif" font-size="9.00">&lt; External_Load_Access,</text>
<text text-anchor="middle" x="229" y="-7.3" font-family="Helvetica,sans-Serif" font-size="9.00"> Size_Type &gt;</text>
</a>
</g>
</g>
<!-- Node3 -->
<g id="node3" class="node">
<title>Node3</title>
<g id="a_node3"><a xlink:href="a12890.html" target="_top" xlink:title="A resize policy which delegates operations to size and trigger policies.">
<polygon fill="white" stroke="black" points="329,-0.5 329,-48.5 472,-48.5 472,-0.5 329,-0.5"/>
<text text-anchor="start" x="337" y="-37.3" font-family="Helvetica,sans-Serif" font-size="9.00">__gnu_pbds::hash_standard</text>
<text text-anchor="start" x="337" y="-27.3" font-family="Helvetica,sans-Serif" font-size="9.00">_resize_policy&lt; Size_Policy,</text>
<text text-anchor="start" x="337" y="-17.3" font-family="Helvetica,sans-Serif" font-size="9.00"> Trigger_Policy, External</text>
<text text-anchor="middle" x="400.5" y="-7.3" font-family="Helvetica,sans-Serif" font-size="9.00">_Size_Access, Size_Type &gt;</text>
</a>
</g>
</g>
<!-- Node1&#45;&gt;Node3 -->
<g id="edge2" class="edge">
<title>Node1&#45;&gt;Node3</title>
<path fill="none" stroke="midnightblue" d="M303.36,-24.5C311.84,-24.5 320.48,-24.5 328.92,-24.5"/>
<polygon fill="midnightblue" stroke="midnightblue" points="303.12,-21 293.12,-24.5 303.12,-28 303.12,-21"/>
</g>
<!-- Node2 -->
<g id="node2" class="node">
<title>Node2</title>
<g id="a_node2"><a xlink:href="a13658.html" target="_top" xlink:title=" ">
<polygon fill="white" stroke="black" points="0,-0.5 0,-48.5 129,-48.5 129,-0.5 0,-0.5"/>
<text text-anchor="start" x="8" y="-37.3" font-family="Helvetica,sans-Serif" font-size="9.00">__gnu_pbds::detail</text>
<text text-anchor="start" x="8" y="-27.3" font-family="Helvetica,sans-Serif" font-size="9.00">::hash_load_check_resize</text>
<text text-anchor="start" x="8" y="-17.3" font-family="Helvetica,sans-Serif" font-size="9.00">_trigger_size_base&lt; std</text>
<text text-anchor="middle" x="64.5" y="-7.3" font-family="Helvetica,sans-Serif" font-size="9.00">::size_t, false &gt;</text>
</a>
</g>
</g>
<!-- Node2&#45;&gt;Node1 -->
<g id="edge1" class="edge">
<title>Node2&#45;&gt;Node1</title>
<path fill="none" stroke="#8b1a1a" d="M139.26,-24.5C147.84,-24.5 156.54,-24.5 164.96,-24.5"/>
<polygon fill="#8b1a1a" stroke="#8b1a1a" points="139.26,-21 129.26,-24.5 139.26,-28 139.26,-21"/>
</g>
</g>
</svg>
