<?xml version="1.0" encoding="UTF-8" standalone="no"?>
<!DOCTYPE svg PUBLIC "-//W3C//DTD SVG 1.1//EN"
 "http://www.w3.org/Graphics/SVG/1.1/DTD/svg11.dtd">
<!-- Generated by graphviz version 2.50.0 (0)
 -->
<!-- Title: __gnu_pbds::gp_hash_tag Pages: 1 -->
<svg width="154pt" height="192pt"
 viewBox="0.00 0.00 154.00 192.00" xmlns="http://www.w3.org/2000/svg" xmlns:xlink="http://www.w3.org/1999/xlink">
<g id="graph0" class="graph" transform="scale(1 1) rotate(0) translate(4 188)">
<title>__gnu_pbds::gp_hash_tag</title>
<polygon fill="white" stroke="transparent" points="-4,4 -4,-188 150,-188 150,4 -4,4"/>
<!-- Node1 -->
<g id="node1" class="node">
<title>Node1</title>
<g id="a_node1"><a xlink:title="General&#45;probing hash.">
<polygon fill="#bfbfbf" stroke="black" points="6,-0.5 6,-18.5 140,-18.5 140,-0.5 6,-0.5"/>
<text text-anchor="middle" x="73" y="-7.3" font-family="Helvetica,sans-Serif" font-size="9.00">__gnu_pbds::gp_hash_tag</text>
</a>
</g>
</g>
<!-- Node2 -->
<g id="node2" class="node">
<title>Node2</title>
<g id="a_node2"><a xlink:href="a12938.html" target="_top" xlink:title="Basic hash structure.">
<polygon fill="white" stroke="black" points="0,-55.5 0,-73.5 146,-73.5 146,-55.5 0,-55.5"/>
<text text-anchor="middle" x="73" y="-62.3" font-family="Helvetica,sans-Serif" font-size="9.00">__gnu_pbds::basic_hash_tag</text>
</a>
</g>
</g>
<!-- Node2&#45;&gt;Node1 -->
<g id="edge1" class="edge">
<title>Node2&#45;&gt;Node1</title>
<path fill="none" stroke="midnightblue" d="M73,-45.17C73,-36.09 73,-25.59 73,-18.55"/>
<polygon fill="midnightblue" stroke="midnightblue" points="69.5,-45.22 73,-55.22 76.5,-45.22 69.5,-45.22"/>
</g>
<!-- Node3 -->
<g id="node3" class="node">
<title>Node3</title>
<g id="a_node3"><a xlink:href="a12934.html" target="_top" xlink:title="Basic associative&#45;container.">
<polygon fill="white" stroke="black" points="0.5,-110.5 0.5,-128.5 145.5,-128.5 145.5,-110.5 0.5,-110.5"/>
<text text-anchor="middle" x="73" y="-117.3" font-family="Helvetica,sans-Serif" font-size="9.00">__gnu_pbds::associative_tag</text>
</a>
</g>
</g>
<!-- Node3&#45;&gt;Node2 -->
<g id="edge2" class="edge">
<title>Node3&#45;&gt;Node2</title>
<path fill="none" stroke="midnightblue" d="M73,-100.17C73,-91.09 73,-80.59 73,-73.55"/>
<polygon fill="midnightblue" stroke="midnightblue" points="69.5,-100.22 73,-110.22 76.5,-100.22 69.5,-100.22"/>
</g>
<!-- Node4 -->
<g id="node4" class="node">
<title>Node4</title>
<g id="a_node4"><a xlink:href="a12922.html" target="_top" xlink:title="Base data structure tag.">
<polygon fill="white" stroke="black" points="3.5,-165.5 3.5,-183.5 142.5,-183.5 142.5,-165.5 3.5,-165.5"/>
<text text-anchor="middle" x="73" y="-172.3" font-family="Helvetica,sans-Serif" font-size="9.00">__gnu_pbds::container_tag</text>
</a>
</g>
</g>
<!-- Node4&#45;&gt;Node3 -->
<g id="edge3" class="edge">
<title>Node4&#45;&gt;Node3</title>
<path fill="none" stroke="midnightblue" d="M73,-155.17C73,-146.09 73,-135.59 73,-128.55"/>
<polygon fill="midnightblue" stroke="midnightblue" points="69.5,-155.22 73,-165.22 76.5,-155.22 69.5,-155.22"/>
</g>
</g>
</svg>
