<?xml version="1.0" encoding="UTF-8" standalone="no"?>
<!DOCTYPE svg PUBLIC "-//W3C//DTD SVG 1.1//EN"
 "http://www.w3.org/Graphics/SVG/1.1/DTD/svg11.dtd">
<!-- Generated by graphviz version 2.50.0 (0)
 -->
<!-- Title: __gnu_pbds::string_tag Pages: 1 -->
<svg width="148pt" height="137pt"
 viewBox="0.00 0.00 148.00 137.00" xmlns="http://www.w3.org/2000/svg" xmlns:xlink="http://www.w3.org/1999/xlink">
<g id="graph0" class="graph" transform="scale(1 1) rotate(0) translate(4 133)">
<title>__gnu_pbds::string_tag</title>
<polygon fill="white" stroke="transparent" points="-4,4 -4,-133 144,-133 144,4 -4,4"/>
<!-- Node1 -->
<g id="node1" class="node">
<title>Node1</title>
<g id="a_node1"><a xlink:title="Basic string container, inclusive of strings, ropes, etc.">
<polygon fill="#bfbfbf" stroke="black" points="9,-0.5 9,-18.5 131,-18.5 131,-0.5 9,-0.5"/>
<text text-anchor="middle" x="70" y="-7.3" font-family="Helvetica,sans-Serif" font-size="9.00">__gnu_pbds::string_tag</text>
</a>
</g>
</g>
<!-- Node2 -->
<g id="node2" class="node">
<title>Node2</title>
<g id="a_node2"><a xlink:href="a12926.html" target="_top" xlink:title="Basic sequence.">
<polygon fill="white" stroke="black" points="0,-55.5 0,-73.5 140,-73.5 140,-55.5 0,-55.5"/>
<text text-anchor="middle" x="70" y="-62.3" font-family="Helvetica,sans-Serif" font-size="9.00">__gnu_pbds::sequence_tag</text>
</a>
</g>
</g>
<!-- Node2&#45;&gt;Node1 -->
<g id="edge1" class="edge">
<title>Node2&#45;&gt;Node1</title>
<path fill="none" stroke="midnightblue" d="M70,-45.17C70,-36.09 70,-25.59 70,-18.55"/>
<polygon fill="midnightblue" stroke="midnightblue" points="66.5,-45.22 70,-55.22 73.5,-45.22 66.5,-45.22"/>
</g>
<!-- Node3 -->
<g id="node3" class="node">
<title>Node3</title>
<g id="a_node3"><a xlink:href="a12922.html" target="_top" xlink:title="Base data structure tag.">
<polygon fill="white" stroke="black" points="0.5,-110.5 0.5,-128.5 139.5,-128.5 139.5,-110.5 0.5,-110.5"/>
<text text-anchor="middle" x="70" y="-117.3" font-family="Helvetica,sans-Serif" font-size="9.00">__gnu_pbds::container_tag</text>
</a>
</g>
</g>
<!-- Node3&#45;&gt;Node2 -->
<g id="edge2" class="edge">
<title>Node3&#45;&gt;Node2</title>
<path fill="none" stroke="midnightblue" d="M70,-100.17C70,-91.09 70,-80.59 70,-73.55"/>
<polygon fill="midnightblue" stroke="midnightblue" points="66.5,-100.22 70,-110.22 73.5,-100.22 66.5,-100.22"/>
</g>
</g>
</svg>
