<?xml version="1.0" encoding="UTF-8" standalone="no"?>
<!DOCTYPE svg PUBLIC "-//W3C//DTD SVG 1.1//EN"
 "http://www.w3.org/Graphics/SVG/1.1/DTD/svg11.dtd">
<!-- Generated by graphviz version 2.50.0 (0)
 -->
<!-- Title: __gnu_pbds::range_invalidation_guarantee Pages: 1 -->
<svg width="167pt" height="167pt"
 viewBox="0.00 0.00 167.00 167.00" xmlns="http://www.w3.org/2000/svg" xmlns:xlink="http://www.w3.org/1999/xlink">
<g id="graph0" class="graph" transform="scale(1 1) rotate(0) translate(4 163)">
<title>__gnu_pbds::range_invalidation_guarantee</title>
<polygon fill="white" stroke="transparent" points="-4,4 -4,-163 163,-163 163,4 -4,4"/>
<!-- Node1 -->
<g id="node1" class="node">
<title>Node1</title>
<g id="a_node1"><a xlink:title=" ">
<polygon fill="#bfbfbf" stroke="black" points="0,-0.5 0,-28.5 159,-28.5 159,-0.5 0,-0.5"/>
<text text-anchor="start" x="8" y="-17.3" font-family="Helvetica,sans-Serif" font-size="9.00">__gnu_pbds::range_invalidation</text>
<text text-anchor="middle" x="79.5" y="-7.3" font-family="Helvetica,sans-Serif" font-size="9.00">_guarantee</text>
</a>
</g>
</g>
<!-- Node2 -->
<g id="node2" class="node">
<title>Node2</title>
<g id="a_node2"><a xlink:href="a12914.html" target="_top" xlink:title=" ">
<polygon fill="white" stroke="black" points="1.5,-65.5 1.5,-93.5 157.5,-93.5 157.5,-65.5 1.5,-65.5"/>
<text text-anchor="start" x="9.5" y="-82.3" font-family="Helvetica,sans-Serif" font-size="9.00">__gnu_pbds::point_invalidation</text>
<text text-anchor="middle" x="79.5" y="-72.3" font-family="Helvetica,sans-Serif" font-size="9.00">_guarantee</text>
</a>
</g>
</g>
<!-- Node2&#45;&gt;Node1 -->
<g id="edge1" class="edge">
<title>Node2&#45;&gt;Node1</title>
<path fill="none" stroke="midnightblue" d="M79.5,-55.16C79.5,-46.17 79.5,-36.22 79.5,-28.54"/>
<polygon fill="midnightblue" stroke="midnightblue" points="76,-55.45 79.5,-65.45 83,-55.45 76,-55.45"/>
</g>
<!-- Node3 -->
<g id="node3" class="node">
<title>Node3</title>
<g id="a_node3"><a xlink:href="a12910.html" target="_top" xlink:title=" ">
<polygon fill="white" stroke="black" points="1.5,-130.5 1.5,-158.5 157.5,-158.5 157.5,-130.5 1.5,-130.5"/>
<text text-anchor="start" x="9.5" y="-147.3" font-family="Helvetica,sans-Serif" font-size="9.00">__gnu_pbds::basic_invalidation</text>
<text text-anchor="middle" x="79.5" y="-137.3" font-family="Helvetica,sans-Serif" font-size="9.00">_guarantee</text>
</a>
</g>
</g>
<!-- Node3&#45;&gt;Node2 -->
<g id="edge2" class="edge">
<title>Node3&#45;&gt;Node2</title>
<path fill="none" stroke="midnightblue" d="M79.5,-120.16C79.5,-111.17 79.5,-101.22 79.5,-93.54"/>
<polygon fill="midnightblue" stroke="midnightblue" points="76,-120.45 79.5,-130.45 83,-120.45 76,-120.45"/>
</g>
</g>
</svg>
