<?xml version="1.0" encoding="UTF-8" standalone="no"?>
<!DOCTYPE svg PUBLIC "-//W3C//DTD SVG 1.1//EN"
 "http://www.w3.org/Graphics/SVG/1.1/DTD/svg11.dtd">
<!-- Generated by graphviz version 2.50.0 (0)
 -->
<!-- Title: __gnu_pbds::tree_tag Pages: 1 -->
<svg width="444pt" height="247pt"
 viewBox="0.00 0.00 443.50 247.00" xmlns="http://www.w3.org/2000/svg" xmlns:xlink="http://www.w3.org/1999/xlink">
<g id="graph0" class="graph" transform="scale(1 1) rotate(0) translate(4 243)">
<title>__gnu_pbds::tree_tag</title>
<polygon fill="white" stroke="transparent" points="-4,4 -4,-243 439.5,-243 439.5,4 -4,4"/>
<!-- Node1 -->
<g id="node1" class="node">
<title>Node1</title>
<g id="a_node1"><a xlink:title="Basic tree structure.">
<polygon fill="#bfbfbf" stroke="black" points="154.5,-55.5 154.5,-73.5 268.5,-73.5 268.5,-55.5 154.5,-55.5"/>
<text text-anchor="middle" x="211.5" y="-62.3" font-family="Helvetica,sans-Serif" font-size="9.00">__gnu_pbds::tree_tag</text>
</a>
</g>
</g>
<!-- Node5 -->
<g id="node5" class="node">
<title>Node5</title>
<g id="a_node5"><a xlink:href="a12966.html" target="_top" xlink:title="Ordered&#45;vector tree.">
<polygon fill="white" stroke="black" points="0,-0.5 0,-18.5 129,-18.5 129,-0.5 0,-0.5"/>
<text text-anchor="middle" x="64.5" y="-7.3" font-family="Helvetica,sans-Serif" font-size="9.00">__gnu_pbds::ov_tree_tag</text>
</a>
</g>
</g>
<!-- Node1&#45;&gt;Node5 -->
<g id="edge4" class="edge">
<title>Node1&#45;&gt;Node5</title>
<path fill="none" stroke="midnightblue" d="M179.47,-51.95C151.54,-41.88 111.73,-27.53 87.04,-18.63"/>
<polygon fill="midnightblue" stroke="midnightblue" points="178.58,-55.35 189.17,-55.45 180.95,-48.77 178.58,-55.35"/>
</g>
<!-- Node6 -->
<g id="node6" class="node">
<title>Node6</title>
<g id="a_node6"><a xlink:href="a12958.html" target="_top" xlink:title="Red&#45;black tree.">
<polygon fill="white" stroke="black" points="147.5,-0.5 147.5,-18.5 275.5,-18.5 275.5,-0.5 147.5,-0.5"/>
<text text-anchor="middle" x="211.5" y="-7.3" font-family="Helvetica,sans-Serif" font-size="9.00">__gnu_pbds::rb_tree_tag</text>
</a>
</g>
</g>
<!-- Node1&#45;&gt;Node6 -->
<g id="edge5" class="edge">
<title>Node1&#45;&gt;Node6</title>
<path fill="none" stroke="midnightblue" d="M211.5,-45.17C211.5,-36.09 211.5,-25.59 211.5,-18.55"/>
<polygon fill="midnightblue" stroke="midnightblue" points="208,-45.22 211.5,-55.22 215,-45.22 208,-45.22"/>
</g>
<!-- Node7 -->
<g id="node7" class="node">
<title>Node7</title>
<g id="a_node7"><a xlink:href="a12962.html" target="_top" xlink:title="Splay tree.">
<polygon fill="white" stroke="black" points="293.5,-0.5 293.5,-18.5 435.5,-18.5 435.5,-0.5 293.5,-0.5"/>
<text text-anchor="middle" x="364.5" y="-7.3" font-family="Helvetica,sans-Serif" font-size="9.00">__gnu_pbds::splay_tree_tag</text>
</a>
</g>
</g>
<!-- Node1&#45;&gt;Node7 -->
<g id="edge6" class="edge">
<title>Node1&#45;&gt;Node7</title>
<path fill="none" stroke="midnightblue" d="M244.45,-52.08C273.54,-42.01 315.23,-27.57 341.04,-18.63"/>
<polygon fill="midnightblue" stroke="midnightblue" points="243.04,-48.87 234.74,-55.45 245.33,-55.48 243.04,-48.87"/>
</g>
<!-- Node2 -->
<g id="node2" class="node">
<title>Node2</title>
<g id="a_node2"><a xlink:href="a12950.html" target="_top" xlink:title="Basic branch structure.">
<polygon fill="white" stroke="black" points="133.5,-110.5 133.5,-128.5 289.5,-128.5 289.5,-110.5 133.5,-110.5"/>
<text text-anchor="middle" x="211.5" y="-117.3" font-family="Helvetica,sans-Serif" font-size="9.00">__gnu_pbds::basic_branch_tag</text>
</a>
</g>
</g>
<!-- Node2&#45;&gt;Node1 -->
<g id="edge1" class="edge">
<title>Node2&#45;&gt;Node1</title>
<path fill="none" stroke="midnightblue" d="M211.5,-100.17C211.5,-91.09 211.5,-80.59 211.5,-73.55"/>
<polygon fill="midnightblue" stroke="midnightblue" points="208,-100.22 211.5,-110.22 215,-100.22 208,-100.22"/>
</g>
<!-- Node3 -->
<g id="node3" class="node">
<title>Node3</title>
<g id="a_node3"><a xlink:href="a12934.html" target="_top" xlink:title="Basic associative&#45;container.">
<polygon fill="white" stroke="black" points="139,-165.5 139,-183.5 284,-183.5 284,-165.5 139,-165.5"/>
<text text-anchor="middle" x="211.5" y="-172.3" font-family="Helvetica,sans-Serif" font-size="9.00">__gnu_pbds::associative_tag</text>
</a>
</g>
</g>
<!-- Node3&#45;&gt;Node2 -->
<g id="edge2" class="edge">
<title>Node3&#45;&gt;Node2</title>
<path fill="none" stroke="midnightblue" d="M211.5,-155.17C211.5,-146.09 211.5,-135.59 211.5,-128.55"/>
<polygon fill="midnightblue" stroke="midnightblue" points="208,-155.22 211.5,-165.22 215,-155.22 208,-155.22"/>
</g>
<!-- Node4 -->
<g id="node4" class="node">
<title>Node4</title>
<g id="a_node4"><a xlink:href="a12922.html" target="_top" xlink:title="Base data structure tag.">
<polygon fill="white" stroke="black" points="142,-220.5 142,-238.5 281,-238.5 281,-220.5 142,-220.5"/>
<text text-anchor="middle" x="211.5" y="-227.3" font-family="Helvetica,sans-Serif" font-size="9.00">__gnu_pbds::container_tag</text>
</a>
</g>
</g>
<!-- Node4&#45;&gt;Node3 -->
<g id="edge3" class="edge">
<title>Node4&#45;&gt;Node3</title>
<path fill="none" stroke="midnightblue" d="M211.5,-210.17C211.5,-201.09 211.5,-190.59 211.5,-183.55"/>
<polygon fill="midnightblue" stroke="midnightblue" points="208,-210.22 211.5,-220.22 215,-210.22 208,-210.22"/>
</g>
</g>
</svg>
