<?xml version="1.0" encoding="UTF-8" standalone="no"?>
<!DOCTYPE svg PUBLIC "-//W3C//DTD SVG 1.1//EN"
 "http://www.w3.org/Graphics/SVG/1.1/DTD/svg11.dtd">
<!-- Generated by graphviz version 2.50.0 (0)
 -->
<!-- Title: __gnu_pbds::associative_tag Pages: 1 -->
<!--zoomable 202 -->
<svg id="main" version="1.1" xmlns="http://www.w3.org/2000/svg" xmlns:xlink="http://www.w3.org/1999/xlink" xml:space="preserve" onload="init(evt)">
<style type="text/css"><![CDATA[
.edge:hover path { stroke: red; }
.edge:hover polygon { stroke: red; fill: red; }
]]></style>
<script type="text/javascript"><![CDATA[
var edges = document.getElementsByTagName('g');
if (edges && edges.length) {
  for (var i=0;i<edges.length;i++) {
    if (edges[i].id.substr(0,4)=='edge') {
      edges[i].setAttribute('class','edge');
    }
  }
}
]]></script>
        <defs>
                <circle id="rim" cx="0" cy="0" r="7"/>
                <circle id="rim2" cx="0" cy="0" r="3.5"/>
                <g id="zoomPlus">
                        <use xlink:href="#rim" fill="#404040">
                                <set attributeName="fill" to="#808080" begin="zoomplus.mouseover" end="zoomplus.mouseout"/>
                        </use>
                        <path d="M-4,0h8M0,-4v8" fill="none" stroke="white" stroke-width="1.5" pointer-events="none"/>
                </g>
                <g id="zoomMin">
                        <use xlink:href="#rim" fill="#404040">
                                <set attributeName="fill" to="#808080" begin="zoomminus.mouseover" end="zoomminus.mouseout"/>
                        </use>
                        <path d="M-4,0h8" fill="none" stroke="white" stroke-width="1.5" pointer-events="none"/>
                </g>
                <g id="dirArrow">
                        <path fill="none" stroke="white" stroke-width="1.5" d="M0,-3.0v7 M-2.5,-0.5L0,-3.0L2.5,-0.5"/>
                </g>
               <g id="resetDef">
                       <use xlink:href="#rim2" fill="#404040">
                               <set attributeName="fill" to="#808080" begin="reset.mouseover" end="reset.mouseout"/>
                       </use>
               </g>
        </defs>

<script type="text/javascript">
var viewWidth = 868;
var viewHeight = 202;
var sectionId = 'dynsection-0';
</script>
<script xlink:href="svgpan.js"/>
<svg id="graph" class="graph">
<g id="viewport">
<title>__gnu_pbds::associative_tag</title>
<polygon fill="white" stroke="transparent" points="-4,4 -4,-198 864,-198 864,4 -4,4"/>
<!-- Node1 -->
<g id="node1" class="node">
<title>Node1</title>
<g id="a_node1"><a xlink:title="Basic associative&#45;container.">
<polygon fill="#bfbfbf" stroke="black" points="175,-37.5 175,-55.5 320,-55.5 320,-37.5 175,-37.5"/>
<text text-anchor="middle" x="247.5" y="-44.3" font-family="Helvetica,sans-Serif" font-size="9.00">__gnu_pbds::associative_tag</text>
</a>
</g>
</g>
<!-- Node3 -->
<g id="node3" class="node">
<title>Node3</title>
<g id="a_node3"><a xlink:href="a12950.html" target="_top" xlink:title="Basic branch structure.">
<polygon fill="white" stroke="black" points="356,-74.5 356,-92.5 512,-92.5 512,-74.5 356,-74.5"/>
<text text-anchor="middle" x="434" y="-81.3" font-family="Helvetica,sans-Serif" font-size="9.00">__gnu_pbds::basic_branch_tag</text>
</a>
</g>
</g>
<!-- Node1&#45;&gt;Node3 -->
<g id="edge2" class="edge">
<title>Node1&#45;&gt;Node3</title>
<path fill="none" stroke="midnightblue" d="M303.68,-57.57C330.61,-62.97 362.59,-69.38 388.01,-74.48"/>
<polygon fill="midnightblue" stroke="midnightblue" points="304.13,-54.09 293.63,-55.55 302.75,-60.95 304.13,-54.09"/>
</g>
<!-- Node10 -->
<g id="node10" class="node">
<title>Node10</title>
<g id="a_node10"><a xlink:href="a12938.html" target="_top" xlink:title="Basic hash structure.">
<polygon fill="white" stroke="black" points="361,-37.5 361,-55.5 507,-55.5 507,-37.5 361,-37.5"/>
<text text-anchor="middle" x="434" y="-44.3" font-family="Helvetica,sans-Serif" font-size="9.00">__gnu_pbds::basic_hash_tag</text>
</a>
</g>
</g>
<!-- Node1&#45;&gt;Node10 -->
<g id="edge9" class="edge">
<title>Node1&#45;&gt;Node10</title>
<path fill="none" stroke="midnightblue" d="M330.22,-46.5C340.42,-46.5 350.79,-46.5 360.84,-46.5"/>
<polygon fill="midnightblue" stroke="midnightblue" points="330.1,-43 320.1,-46.5 330.1,-50 330.1,-43"/>
</g>
<!-- Node13 -->
<g id="node13" class="node">
<title>Node13</title>
<g id="a_node13"><a xlink:href="a12978.html" target="_top" xlink:title="List&#45;update.">
<polygon fill="white" stroke="black" points="361,-0.5 361,-18.5 507,-18.5 507,-0.5 361,-0.5"/>
<text text-anchor="middle" x="434" y="-7.3" font-family="Helvetica,sans-Serif" font-size="9.00">__gnu_pbds::list_update_tag</text>
</a>
</g>
</g>
<!-- Node1&#45;&gt;Node13 -->
<g id="edge12" class="edge">
<title>Node1&#45;&gt;Node13</title>
<path fill="none" stroke="midnightblue" d="M303.68,-35.43C330.61,-30.03 362.59,-23.62 388.01,-18.52"/>
<polygon fill="midnightblue" stroke="midnightblue" points="302.75,-32.05 293.63,-37.45 304.13,-38.91 302.75,-32.05"/>
</g>
<!-- Node2 -->
<g id="node2" class="node">
<title>Node2</title>
<g id="a_node2"><a xlink:href="a12922.html" target="_top" xlink:title="Base data structure tag.">
<polygon fill="white" stroke="black" points="0,-37.5 0,-55.5 139,-55.5 139,-37.5 0,-37.5"/>
<text text-anchor="middle" x="69.5" y="-44.3" font-family="Helvetica,sans-Serif" font-size="9.00">__gnu_pbds::container_tag</text>
</a>
</g>
</g>
<!-- Node2&#45;&gt;Node1 -->
<g id="edge1" class="edge">
<title>Node2&#45;&gt;Node1</title>
<path fill="none" stroke="midnightblue" d="M149.08,-46.5C157.69,-46.5 166.42,-46.5 174.94,-46.5"/>
<polygon fill="midnightblue" stroke="midnightblue" points="149.05,-43 139.05,-46.5 149.05,-50 149.05,-43"/>
</g>
<!-- Node4 -->
<g id="node4" class="node">
<title>Node4</title>
<g id="a_node4"><a xlink:href="a12954.html" target="_top" xlink:title="Basic tree structure.">
<polygon fill="white" stroke="black" points="558,-129.5 558,-147.5 672,-147.5 672,-129.5 558,-129.5"/>
<text text-anchor="middle" x="615" y="-136.3" font-family="Helvetica,sans-Serif" font-size="9.00">__gnu_pbds::tree_tag</text>
</a>
</g>
</g>
<!-- Node3&#45;&gt;Node4 -->
<g id="edge3" class="edge">
<title>Node3&#45;&gt;Node4</title>
<path fill="none" stroke="midnightblue" d="M474.42,-95.61C507.71,-105.84 554.64,-120.26 584.7,-129.5"/>
<polygon fill="midnightblue" stroke="midnightblue" points="475.15,-92.17 464.56,-92.58 473.09,-98.86 475.15,-92.17"/>
</g>
<!-- Node8 -->
<g id="node8" class="node">
<title>Node8</title>
<g id="a_node8"><a xlink:href="a12970.html" target="_top" xlink:title="Basic trie structure.">
<polygon fill="white" stroke="black" points="559.5,-74.5 559.5,-92.5 670.5,-92.5 670.5,-74.5 559.5,-74.5"/>
<text text-anchor="middle" x="615" y="-81.3" font-family="Helvetica,sans-Serif" font-size="9.00">__gnu_pbds::trie_tag</text>
</a>
</g>
</g>
<!-- Node3&#45;&gt;Node8 -->
<g id="edge7" class="edge">
<title>Node3&#45;&gt;Node8</title>
<path fill="none" stroke="midnightblue" d="M522.32,-83.5C534.97,-83.5 547.67,-83.5 559.42,-83.5"/>
<polygon fill="midnightblue" stroke="midnightblue" points="522.21,-80 512.21,-83.5 522.21,-87 522.21,-80"/>
</g>
<!-- Node5 -->
<g id="node5" class="node">
<title>Node5</title>
<g id="a_node5"><a xlink:href="a12966.html" target="_top" xlink:title="Ordered&#45;vector tree.">
<polygon fill="white" stroke="black" points="724.5,-175.5 724.5,-193.5 853.5,-193.5 853.5,-175.5 724.5,-175.5"/>
<text text-anchor="middle" x="789" y="-182.3" font-family="Helvetica,sans-Serif" font-size="9.00">__gnu_pbds::ov_tree_tag</text>
</a>
</g>
</g>
<!-- Node4&#45;&gt;Node5 -->
<g id="edge4" class="edge">
<title>Node4&#45;&gt;Node5</title>
<path fill="none" stroke="midnightblue" d="M658.37,-150.3C676.69,-155.35 698.38,-161.29 718,-166.5 729.16,-169.47 741.34,-172.62 752.36,-175.45"/>
<polygon fill="midnightblue" stroke="midnightblue" points="659.15,-146.88 648.58,-147.59 657.28,-153.63 659.15,-146.88"/>
</g>
<!-- Node6 -->
<g id="node6" class="node">
<title>Node6</title>
<g id="a_node6"><a xlink:href="a12958.html" target="_top" xlink:title="Red&#45;black tree.">
<polygon fill="white" stroke="black" points="725,-138.5 725,-156.5 853,-156.5 853,-138.5 725,-138.5"/>
<text text-anchor="middle" x="789" y="-145.3" font-family="Helvetica,sans-Serif" font-size="9.00">__gnu_pbds::rb_tree_tag</text>
</a>
</g>
</g>
<!-- Node4&#45;&gt;Node6 -->
<g id="edge5" class="edge">
<title>Node4&#45;&gt;Node6</title>
<path fill="none" stroke="midnightblue" d="M682.31,-141.97C696.24,-142.7 710.89,-143.47 724.71,-144.19"/>
<polygon fill="midnightblue" stroke="midnightblue" points="682.49,-138.47 672.32,-141.45 682.12,-145.46 682.49,-138.47"/>
</g>
<!-- Node7 -->
<g id="node7" class="node">
<title>Node7</title>
<g id="a_node7"><a xlink:href="a12962.html" target="_top" xlink:title="Splay tree.">
<polygon fill="white" stroke="black" points="718,-101.5 718,-119.5 860,-119.5 860,-101.5 718,-101.5"/>
<text text-anchor="middle" x="789" y="-108.3" font-family="Helvetica,sans-Serif" font-size="9.00">__gnu_pbds::splay_tree_tag</text>
</a>
</g>
</g>
<!-- Node4&#45;&gt;Node7 -->
<g id="edge6" class="edge">
<title>Node4&#45;&gt;Node7</title>
<path fill="none" stroke="midnightblue" d="M681.64,-127.82C698.39,-125.09 716.24,-122.18 732.44,-119.54"/>
<polygon fill="midnightblue" stroke="midnightblue" points="680.68,-124.43 671.37,-129.49 681.8,-131.33 680.68,-124.43"/>
</g>
<!-- Node9 -->
<g id="node9" class="node">
<title>Node9</title>
<g id="a_node9"><a xlink:href="a12974.html" target="_top" xlink:title="PATRICIA trie.">
<polygon fill="white" stroke="black" points="723.5,-64.5 723.5,-82.5 854.5,-82.5 854.5,-64.5 723.5,-64.5"/>
<text text-anchor="middle" x="789" y="-71.3" font-family="Helvetica,sans-Serif" font-size="9.00">__gnu_pbds::pat_trie_tag</text>
</a>
</g>
</g>
<!-- Node8&#45;&gt;Node9 -->
<g id="edge8" class="edge">
<title>Node8&#45;&gt;Node9</title>
<path fill="none" stroke="midnightblue" d="M681.28,-79.7C695.08,-78.9 709.65,-78.06 723.42,-77.25"/>
<polygon fill="midnightblue" stroke="midnightblue" points="680.67,-76.23 670.89,-80.31 681.08,-83.22 680.67,-76.23"/>
</g>
<!-- Node11 -->
<g id="node11" class="node">
<title>Node11</title>
<g id="a_node11"><a xlink:href="a12942.html" target="_top" xlink:title="Collision&#45;chaining hash.">
<polygon fill="white" stroke="black" points="548.5,-37.5 548.5,-55.5 681.5,-55.5 681.5,-37.5 548.5,-37.5"/>
<text text-anchor="middle" x="615" y="-44.3" font-family="Helvetica,sans-Serif" font-size="9.00">__gnu_pbds::cc_hash_tag</text>
</a>
</g>
</g>
<!-- Node10&#45;&gt;Node11 -->
<g id="edge10" class="edge">
<title>Node10&#45;&gt;Node11</title>
<path fill="none" stroke="midnightblue" d="M517.07,-46.5C527.59,-46.5 538.26,-46.5 548.48,-46.5"/>
<polygon fill="midnightblue" stroke="midnightblue" points="517.03,-43 507.03,-46.5 517.03,-50 517.03,-43"/>
</g>
<!-- Node12 -->
<g id="node12" class="node">
<title>Node12</title>
<g id="a_node12"><a xlink:href="a12946.html" target="_top" xlink:title="General&#45;probing hash.">
<polygon fill="white" stroke="black" points="548,-0.5 548,-18.5 682,-18.5 682,-0.5 548,-0.5"/>
<text text-anchor="middle" x="615" y="-7.3" font-family="Helvetica,sans-Serif" font-size="9.00">__gnu_pbds::gp_hash_tag</text>
</a>
</g>
</g>
<!-- Node10&#45;&gt;Node12 -->
<g id="edge11" class="edge">
<title>Node10&#45;&gt;Node12</title>
<path fill="none" stroke="midnightblue" d="M488.88,-35.36C514.94,-29.98 545.8,-23.6 570.35,-18.52"/>
<polygon fill="midnightblue" stroke="midnightblue" points="487.87,-32 478.79,-37.45 489.29,-38.85 487.87,-32"/>
</g>
</g>
</svg>
        <g id="navigator" transform="translate(0 0)" fill="#404254">
                <rect fill="#f2f5e9" fill-opacity="0.5" stroke="#606060" stroke-width=".5" x="0" y="0" width="60" height="60"/>
                <use id="zoomplus" xlink:href="#zoomPlus" x="17" y="9" onmousedown="handleZoom(evt,'in')"/>
                <use id="zoomminus" xlink:href="#zoomMin" x="42" y="9" onmousedown="handleZoom(evt,'out')"/>
                <use id="reset" xlink:href="#resetDef" x="30" y="36" onmousedown="handleReset()"/>
                <g id="arrowUp" xlink:href="#dirArrow" transform="translate(30 24)" onmousedown="handlePan(0,-1)">
                  <use xlink:href="#rim" fill="#404040">
                        <set attributeName="fill" to="#808080" begin="arrowUp.mouseover" end="arrowUp.mouseout"/>
                  </use>
                  <path fill="none" stroke="white" stroke-width="1.5" d="M0,-3.0v7 M-2.5,-0.5L0,-3.0L2.5,-0.5"/>
                </g>
                <g id="arrowRight" xlink:href="#dirArrow" transform="rotate(90) translate(36 -43)" onmousedown="handlePan(1,0)">
                  <use xlink:href="#rim" fill="#404040">
                        <set attributeName="fill" to="#808080" begin="arrowRight.mouseover" end="arrowRight.mouseout"/>
                  </use>
                  <path fill="none" stroke="white" stroke-width="1.5" d="M0,-3.0v7 M-2.5,-0.5L0,-3.0L2.5,-0.5"/>
                </g>
                <g id="arrowDown" xlink:href="#dirArrow" transform="rotate(180) translate(-30 -48)" onmousedown="handlePan(0,1)">
                  <use xlink:href="#rim" fill="#404040">
                        <set attributeName="fill" to="#808080" begin="arrowDown.mouseover" end="arrowDown.mouseout"/>
                  </use>
                  <path fill="none" stroke="white" stroke-width="1.5" d="M0,-3.0v7 M-2.5,-0.5L0,-3.0L2.5,-0.5"/>
                </g>
                <g id="arrowLeft" xlink:href="#dirArrow" transform="rotate(270) translate(-36 17)" onmousedown="handlePan(-1,0)">
                  <use xlink:href="#rim" fill="#404040">
                        <set attributeName="fill" to="#808080" begin="arrowLeft.mouseover" end="arrowLeft.mouseout"/>
                  </use>
                  <path fill="none" stroke="white" stroke-width="1.5" d="M0,-3.0v7 M-2.5,-0.5L0,-3.0L2.5,-0.5"/>
                </g>
        </g>
        <svg viewBox="0 0 15 15" width="100%" height="30px" preserveAspectRatio="xMaxYMin meet">
         <g id="arrow_out" transform="scale(0.3 0.3)">
          <a xlink:href="a12933_org.svg" target="_base">
           <rect id="button" ry="5" rx="5" y="6" x="6" height="38" width="38"
                fill="#f2f5e9" fill-opacity="0.5" stroke="#606060" stroke-width="1.0"/>
           <path id="arrow"
             d="M 11.500037,31.436501 C 11.940474,20.09759 22.043105,11.32322 32.158766,21.979434 L 37.068811,17.246167 C 37.068811,17.246167 37.088388,32 37.088388,32 L 22.160133,31.978069 C 22.160133,31.978069 26.997745,27.140456 26.997745,27.140456 C 18.528582,18.264221 13.291696,25.230495 11.500037,31.436501 z"
             style="fill:#404040;"/>
          </a>
         </g>
        </svg>
</svg>
