<?xml version="1.0" encoding="UTF-8" standalone="no"?>
<!DOCTYPE svg PUBLIC "-//W3C//DTD SVG 1.1//EN"
 "http://www.w3.org/Graphics/SVG/1.1/DTD/svg11.dtd">
<!-- Generated by graphviz version 2.50.0 (0)
 -->
<!-- Title: __gnu_pbds::tree_order_statistics_node_update&lt; Node_CItr, Node_Itr, Cmp_Fn, _Alloc &gt; Pages: 1 -->
<svg width="151pt" height="132pt"
 viewBox="0.00 0.00 151.00 132.00" xmlns="http://www.w3.org/2000/svg" xmlns:xlink="http://www.w3.org/1999/xlink">
<g id="graph0" class="graph" transform="scale(1 1) rotate(0) translate(4 128)">
<title>__gnu_pbds::tree_order_statistics_node_update&lt; Node_CItr, Node_Itr, Cmp_Fn, _Alloc &gt;</title>
<polygon fill="white" stroke="transparent" points="-4,4 -4,-128 147,-128 147,4 -4,4"/>
<!-- Node1 -->
<g id="node1" class="node">
<title>Node1</title>
<g id="a_node1"><a xlink:title="Functor updating ranks of entrees.">
<polygon fill="#bfbfbf" stroke="black" points="0,-0.5 0,-48.5 143,-48.5 143,-0.5 0,-0.5"/>
<text text-anchor="start" x="8" y="-37.3" font-family="Helvetica,sans-Serif" font-size="9.00">__gnu_pbds::tree_order</text>
<text text-anchor="start" x="8" y="-27.3" font-family="Helvetica,sans-Serif" font-size="9.00">_statistics_node_update</text>
<text text-anchor="start" x="8" y="-17.3" font-family="Helvetica,sans-Serif" font-size="9.00">&lt; Node_CItr, Node_Itr, Cmp</text>
<text text-anchor="middle" x="71.5" y="-7.3" font-family="Helvetica,sans-Serif" font-size="9.00">_Fn, _Alloc &gt;</text>
</a>
</g>
</g>
<!-- Node2 -->
<g id="node2" class="node">
<title>Node2</title>
<g id="a_node2"><a xlink:href="a13362.html" target="_top" xlink:title="Primary template, base class for branch structure policies.">
<polygon fill="white" stroke="black" points="9.5,-85.5 9.5,-123.5 133.5,-123.5 133.5,-85.5 9.5,-85.5"/>
<text text-anchor="start" x="17.5" y="-112.3" font-family="Helvetica,sans-Serif" font-size="9.00">__gnu_pbds::detail</text>
<text text-anchor="start" x="17.5" y="-102.3" font-family="Helvetica,sans-Serif" font-size="9.00">::branch_policy&lt; Node</text>
<text text-anchor="middle" x="71.5" y="-92.3" font-family="Helvetica,sans-Serif" font-size="9.00">_CItr, Node_Itr, _Alloc &gt;</text>
</a>
</g>
</g>
<!-- Node2&#45;&gt;Node1 -->
<g id="edge1" class="edge">
<title>Node2&#45;&gt;Node1</title>
<path fill="none" stroke="#8b1a1a" d="M71.5,-75.23C71.5,-66.46 71.5,-56.9 71.5,-48.53"/>
<polygon fill="#8b1a1a" stroke="#8b1a1a" points="68,-75.41 71.5,-85.41 75,-75.41 68,-75.41"/>
</g>
</g>
</svg>
