<?xml version="1.0" encoding="UTF-8" standalone="no"?>
<!DOCTYPE svg PUBLIC "-//W3C//DTD SVG 1.1//EN"
 "http://www.w3.org/Graphics/SVG/1.1/DTD/svg11.dtd">
<!-- Generated by graphviz version 2.50.0 (0)
 -->
<!-- Title: __gnu_pbds::detail::maybe_null_type&lt; Key, Mapped, _Alloc, Store_Hash &gt; Pages: 1 -->
<svg width="487pt" height="345pt"
 viewBox="0.00 0.00 487.00 345.00" xmlns="http://www.w3.org/2000/svg" xmlns:xlink="http://www.w3.org/1999/xlink">
<g id="graph0" class="graph" transform="scale(1 1) rotate(0) translate(4 341)">
<title>__gnu_pbds::detail::maybe_null_type&lt; Key, Mapped, _Alloc, Store_Hash &gt;</title>
<polygon fill="white" stroke="transparent" points="-4,4 -4,-341 483,-341 483,4 -4,4"/>
<!-- Node1 -->
<g id="node1" class="node">
<title>Node1</title>
<g id="a_node1"><a xlink:title="Base class for conditionally defining a static data member.">
<polygon fill="#bfbfbf" stroke="black" points="0,-118.5 0,-166.5 129,-166.5 129,-118.5 0,-118.5"/>
<text text-anchor="start" x="8" y="-155.3" font-family="Helvetica,sans-Serif" font-size="9.00">__gnu_pbds::detail</text>
<text text-anchor="start" x="8" y="-145.3" font-family="Helvetica,sans-Serif" font-size="9.00">::maybe_null_type&lt; Key,</text>
<text text-anchor="start" x="8" y="-135.3" font-family="Helvetica,sans-Serif" font-size="9.00"> Mapped, _Alloc, Store</text>
<text text-anchor="middle" x="64.5" y="-125.3" font-family="Helvetica,sans-Serif" font-size="9.00">_Hash &gt;</text>
</a>
</g>
</g>
<!-- Node2 -->
<g id="node2" class="node">
<title>Node2</title>
<g id="a_node2"><a xlink:href="a13274.html" target="_top" xlink:title=" ">
<polygon fill="white" stroke="black" points="165,-192.5 165,-230.5 289,-230.5 289,-192.5 165,-192.5"/>
<text text-anchor="start" x="173" y="-219.3" font-family="Helvetica,sans-Serif" font-size="9.00">__gnu_pbds::detail</text>
<text text-anchor="start" x="173" y="-209.3" font-family="Helvetica,sans-Serif" font-size="9.00">::types_traits&lt; Key,</text>
<text text-anchor="middle" x="227" y="-199.3" font-family="Helvetica,sans-Serif" font-size="9.00"> Mapped, _Alloc, false &gt;</text>
</a>
</g>
</g>
<!-- Node1&#45;&gt;Node2 -->
<g id="edge1" class="edge">
<title>Node1&#45;&gt;Node2</title>
<path fill="none" stroke="midnightblue" d="M131.01,-170.66C148.09,-178.01 166.09,-185.75 181.78,-192.49"/>
<polygon fill="midnightblue" stroke="midnightblue" points="132.2,-167.37 121.64,-166.63 129.44,-173.8 132.2,-167.37"/>
</g>
<!-- Node6 -->
<g id="node6" class="node">
<title>Node6</title>
<g id="a_node6"><a xlink:href="a13274.html" target="_top" xlink:title="Traits for abstract types.">
<polygon fill="white" stroke="black" points="168.5,-82.5 168.5,-130.5 285.5,-130.5 285.5,-82.5 168.5,-82.5"/>
<text text-anchor="start" x="176.5" y="-119.3" font-family="Helvetica,sans-Serif" font-size="9.00">__gnu_pbds::detail</text>
<text text-anchor="start" x="176.5" y="-109.3" font-family="Helvetica,sans-Serif" font-size="9.00">::types_traits&lt; Key,</text>
<text text-anchor="start" x="176.5" y="-99.3" font-family="Helvetica,sans-Serif" font-size="9.00"> Mapped, _Alloc, Store</text>
<text text-anchor="middle" x="227" y="-89.3" font-family="Helvetica,sans-Serif" font-size="9.00">_Hash &gt;</text>
</a>
</g>
</g>
<!-- Node1&#45;&gt;Node6 -->
<g id="edge5" class="edge">
<title>Node1&#45;&gt;Node6</title>
<path fill="none" stroke="midnightblue" d="M139.43,-125.92C149.12,-123.74 158.94,-121.54 168.3,-119.44"/>
<polygon fill="midnightblue" stroke="midnightblue" points="138.39,-122.56 129.4,-128.17 139.92,-129.39 138.39,-122.56"/>
</g>
<!-- Node3 -->
<g id="node3" class="node">
<title>Node3</title>
<g id="a_node3"><a xlink:href="a13506.html" target="_top" xlink:title="list&#45;based (with updates) associative container. Skip to the lu, my darling.">
<polygon fill="white" stroke="black" points="338,-288.5 338,-336.5 466,-336.5 466,-288.5 338,-288.5"/>
<text text-anchor="start" x="346" y="-325.3" font-family="Helvetica,sans-Serif" font-size="9.00">__gnu_pbds::detail</text>
<text text-anchor="start" x="346" y="-315.3" font-family="Helvetica,sans-Serif" font-size="9.00">::lu_map&lt; Key, Mapped,</text>
<text text-anchor="start" x="346" y="-305.3" font-family="Helvetica,sans-Serif" font-size="9.00"> Eq_Fn, _Alloc, Update</text>
<text text-anchor="middle" x="402" y="-295.3" font-family="Helvetica,sans-Serif" font-size="9.00">_Policy &gt;</text>
</a>
</g>
</g>
<!-- Node2&#45;&gt;Node3 -->
<g id="edge2" class="edge">
<title>Node2&#45;&gt;Node3</title>
<path fill="none" stroke="midnightblue" d="M260.26,-236.58C278.64,-250.24 302.44,-266.86 325,-279.5 330.52,-282.59 336.39,-285.6 342.32,-288.45"/>
<polygon fill="midnightblue" stroke="midnightblue" points="262.32,-233.75 252.22,-230.55 258.11,-239.35 262.32,-233.75"/>
</g>
<!-- Node4 -->
<g id="node4" class="node">
<title>Node4</title>
<g id="a_node4"><a xlink:href="a13534.html" target="_top" xlink:title="Ordered&#45;vector tree associative&#45;container.">
<polygon fill="white" stroke="black" points="338,-221.5 338,-269.5 466,-269.5 466,-221.5 338,-221.5"/>
<text text-anchor="start" x="346" y="-258.3" font-family="Helvetica,sans-Serif" font-size="9.00">__gnu_pbds::detail</text>
<text text-anchor="start" x="346" y="-248.3" font-family="Helvetica,sans-Serif" font-size="9.00">::ov_tree_map&lt; Key,</text>
<text text-anchor="start" x="346" y="-238.3" font-family="Helvetica,sans-Serif" font-size="9.00"> Mapped, Cmp_Fn, Node</text>
<text text-anchor="middle" x="402" y="-228.3" font-family="Helvetica,sans-Serif" font-size="9.00">_And_It_Traits, _Alloc &gt;</text>
</a>
</g>
</g>
<!-- Node2&#45;&gt;Node4 -->
<g id="edge3" class="edge">
<title>Node2&#45;&gt;Node4</title>
<path fill="none" stroke="midnightblue" d="M299.58,-225.57C312.31,-228.07 325.49,-230.66 337.97,-233.11"/>
<polygon fill="midnightblue" stroke="midnightblue" points="299.97,-222.08 289.48,-223.58 298.62,-228.95 299.97,-222.08"/>
</g>
<!-- Node5 -->
<g id="node5" class="node">
<title>Node5</title>
<g id="a_node5"><a xlink:href="a13554.html" target="_top" xlink:title="PATRICIA trie.">
<polygon fill="white" stroke="black" points="342.5,-154.5 342.5,-202.5 461.5,-202.5 461.5,-154.5 342.5,-154.5"/>
<text text-anchor="start" x="350.5" y="-191.3" font-family="Helvetica,sans-Serif" font-size="9.00">__gnu_pbds::detail</text>
<text text-anchor="start" x="350.5" y="-181.3" font-family="Helvetica,sans-Serif" font-size="9.00">::pat_trie_map&lt; Key,</text>
<text text-anchor="start" x="350.5" y="-171.3" font-family="Helvetica,sans-Serif" font-size="9.00"> Mapped, Node_And_It</text>
<text text-anchor="middle" x="402" y="-161.3" font-family="Helvetica,sans-Serif" font-size="9.00">_Traits, _Alloc &gt;</text>
</a>
</g>
</g>
<!-- Node2&#45;&gt;Node5 -->
<g id="edge4" class="edge">
<title>Node2&#45;&gt;Node5</title>
<path fill="none" stroke="midnightblue" d="M299.7,-197.82C313.89,-195.12 328.63,-192.31 342.33,-189.69"/>
<polygon fill="midnightblue" stroke="midnightblue" points="298.65,-194.46 289.48,-199.77 299.96,-201.34 298.65,-194.46"/>
</g>
<!-- Node7 -->
<g id="node7" class="node">
<title>Node7</title>
<g id="a_node7"><a xlink:href="a13382.html" target="_top" xlink:title=" ">
<polygon fill="white" stroke="black" points="327.5,-77.5 327.5,-135.5 476.5,-135.5 476.5,-77.5 327.5,-77.5"/>
<text text-anchor="start" x="335.5" y="-124.3" font-family="Helvetica,sans-Serif" font-size="9.00">__gnu_pbds::detail</text>
<text text-anchor="start" x="335.5" y="-114.3" font-family="Helvetica,sans-Serif" font-size="9.00">::cc_ht_map&lt; Key, Mapped,</text>
<text text-anchor="start" x="335.5" y="-104.3" font-family="Helvetica,sans-Serif" font-size="9.00"> Hash_Fn, Eq_Fn, _Alloc,</text>
<text text-anchor="start" x="335.5" y="-94.3" font-family="Helvetica,sans-Serif" font-size="9.00"> Store_Hash, Comb_Hash_Fn,</text>
<text text-anchor="middle" x="402" y="-84.3" font-family="Helvetica,sans-Serif" font-size="9.00"> Resize_Policy &gt;</text>
</a>
</g>
</g>
<!-- Node6&#45;&gt;Node7 -->
<g id="edge6" class="edge">
<title>Node6&#45;&gt;Node7</title>
<path fill="none" stroke="midnightblue" d="M295.8,-106.5C306.15,-106.5 316.87,-106.5 327.33,-106.5"/>
<polygon fill="midnightblue" stroke="midnightblue" points="295.61,-103 285.61,-106.5 295.61,-110 295.61,-103"/>
</g>
<!-- Node8 -->
<g id="node8" class="node">
<title>Node8</title>
<g id="a_node8"><a xlink:href="a13406.html" target="_top" xlink:title=" ">
<polygon fill="white" stroke="black" points="325,-0.5 325,-58.5 479,-58.5 479,-0.5 325,-0.5"/>
<text text-anchor="start" x="333" y="-47.3" font-family="Helvetica,sans-Serif" font-size="9.00">__gnu_pbds::detail</text>
<text text-anchor="start" x="333" y="-37.3" font-family="Helvetica,sans-Serif" font-size="9.00">::gp_ht_map&lt; Key, Mapped,</text>
<text text-anchor="start" x="333" y="-27.3" font-family="Helvetica,sans-Serif" font-size="9.00"> Hash_Fn, Eq_Fn, _Alloc,</text>
<text text-anchor="start" x="333" y="-17.3" font-family="Helvetica,sans-Serif" font-size="9.00"> Store_Hash, Comb_Probe</text>
<text text-anchor="middle" x="402" y="-7.3" font-family="Helvetica,sans-Serif" font-size="9.00">_Fn, Probe_Fn, Resize_Policy &gt;</text>
</a>
</g>
</g>
<!-- Node6&#45;&gt;Node8 -->
<g id="edge7" class="edge">
<title>Node6&#45;&gt;Node8</title>
<path fill="none" stroke="midnightblue" d="M291.57,-78.21C305.95,-71.81 321.25,-65 335.7,-58.56"/>
<polygon fill="midnightblue" stroke="midnightblue" points="289.98,-75.08 282.26,-82.35 292.82,-81.48 289.98,-75.08"/>
</g>
</g>
</svg>
