<?xml version="1.0" encoding="UTF-8" standalone="no"?>
<!DOCTYPE svg PUBLIC "-//W3C//DTD SVG 1.1//EN"
 "http://www.w3.org/Graphics/SVG/1.1/DTD/svg11.dtd">
<!-- Generated by graphviz version 2.50.0 (0)
 -->
<!-- Title: __gnu_pbds::detail::hash_eq_fn&lt; Key, Eq_Fn, _Alloc, Store_Hash &gt; Pages: 1 -->
<svg width="329pt" height="144pt"
 viewBox="0.00 0.00 329.00 144.00" xmlns="http://www.w3.org/2000/svg" xmlns:xlink="http://www.w3.org/1999/xlink">
<g id="graph0" class="graph" transform="scale(1 1) rotate(0) translate(4 140)">
<title>__gnu_pbds::detail::hash_eq_fn&lt; Key, Eq_Fn, _Alloc, Store_Hash &gt;</title>
<polygon fill="white" stroke="transparent" points="-4,4 -4,-140 325,-140 325,4 -4,4"/>
<!-- Node1 -->
<g id="node1" class="node">
<title>Node1</title>
<g id="a_node1"><a xlink:title="Primary template.">
<polygon fill="#bfbfbf" stroke="black" points="0,-48.5 0,-86.5 131,-86.5 131,-48.5 0,-48.5"/>
<text text-anchor="start" x="8" y="-75.3" font-family="Helvetica,sans-Serif" font-size="9.00">__gnu_pbds::detail</text>
<text text-anchor="start" x="8" y="-65.3" font-family="Helvetica,sans-Serif" font-size="9.00">::hash_eq_fn&lt; Key, Eq</text>
<text text-anchor="middle" x="65.5" y="-55.3" font-family="Helvetica,sans-Serif" font-size="9.00">_Fn, _Alloc, Store_Hash &gt;</text>
</a>
</g>
</g>
<!-- Node2 -->
<g id="node2" class="node">
<title>Node2</title>
<g id="a_node2"><a xlink:href="a13382.html" target="_top" xlink:title=" ">
<polygon fill="white" stroke="black" points="169.5,-77.5 169.5,-135.5 318.5,-135.5 318.5,-77.5 169.5,-77.5"/>
<text text-anchor="start" x="177.5" y="-124.3" font-family="Helvetica,sans-Serif" font-size="9.00">__gnu_pbds::detail</text>
<text text-anchor="start" x="177.5" y="-114.3" font-family="Helvetica,sans-Serif" font-size="9.00">::cc_ht_map&lt; Key, Mapped,</text>
<text text-anchor="start" x="177.5" y="-104.3" font-family="Helvetica,sans-Serif" font-size="9.00"> Hash_Fn, Eq_Fn, _Alloc,</text>
<text text-anchor="start" x="177.5" y="-94.3" font-family="Helvetica,sans-Serif" font-size="9.00"> Store_Hash, Comb_Hash_Fn,</text>
<text text-anchor="middle" x="244" y="-84.3" font-family="Helvetica,sans-Serif" font-size="9.00"> Resize_Policy &gt;</text>
</a>
</g>
</g>
<!-- Node1&#45;&gt;Node2 -->
<g id="edge1" class="edge">
<title>Node1&#45;&gt;Node2</title>
<path fill="none" stroke="midnightblue" d="M141.22,-84.01C150.53,-86.07 160.04,-88.17 169.33,-90.22"/>
<polygon fill="midnightblue" stroke="midnightblue" points="141.74,-80.54 131.22,-81.8 140.23,-87.38 141.74,-80.54"/>
</g>
<!-- Node3 -->
<g id="node3" class="node">
<title>Node3</title>
<g id="a_node3"><a xlink:href="a13406.html" target="_top" xlink:title=" ">
<polygon fill="white" stroke="black" points="167,-0.5 167,-58.5 321,-58.5 321,-0.5 167,-0.5"/>
<text text-anchor="start" x="175" y="-47.3" font-family="Helvetica,sans-Serif" font-size="9.00">__gnu_pbds::detail</text>
<text text-anchor="start" x="175" y="-37.3" font-family="Helvetica,sans-Serif" font-size="9.00">::gp_ht_map&lt; Key, Mapped,</text>
<text text-anchor="start" x="175" y="-27.3" font-family="Helvetica,sans-Serif" font-size="9.00"> Hash_Fn, Eq_Fn, _Alloc,</text>
<text text-anchor="start" x="175" y="-17.3" font-family="Helvetica,sans-Serif" font-size="9.00"> Store_Hash, Comb_Probe</text>
<text text-anchor="middle" x="244" y="-7.3" font-family="Helvetica,sans-Serif" font-size="9.00">_Fn, Probe_Fn, Resize_Policy &gt;</text>
</a>
</g>
</g>
<!-- Node1&#45;&gt;Node3 -->
<g id="edge2" class="edge">
<title>Node1&#45;&gt;Node3</title>
<path fill="none" stroke="midnightblue" d="M141.13,-51.43C149.67,-49.59 158.37,-47.72 166.92,-45.88"/>
<polygon fill="midnightblue" stroke="midnightblue" points="140.26,-48.04 131.22,-53.57 141.73,-54.88 140.26,-48.04"/>
</g>
</g>
</svg>
