<?xml version="1.0" encoding="UTF-8" standalone="no"?>
<!DOCTYPE svg PUBLIC "-//W3C//DTD SVG 1.1//EN"
 "http://www.w3.org/Graphics/SVG/1.1/DTD/svg11.dtd">
<!-- Generated by graphviz version 2.50.0 (0)
 -->
<!-- Title: __gnu_pbds::detail::bin_search_tree_node_it_&lt; Node, Const_Iterator, Iterator, _Alloc &gt; Pages: 1 -->
<svg width="319pt" height="57pt"
 viewBox="0.00 0.00 319.00 57.00" xmlns="http://www.w3.org/2000/svg" xmlns:xlink="http://www.w3.org/1999/xlink">
<g id="graph0" class="graph" transform="scale(1 1) rotate(0) translate(4 53)">
<title>__gnu_pbds::detail::bin_search_tree_node_it_&lt; Node, Const_Iterator, Iterator, _Alloc &gt;</title>
<polygon fill="white" stroke="transparent" points="-4,4 -4,-53 315,-53 315,4 -4,4"/>
<!-- Node1 -->
<g id="node1" class="node">
<title>Node1</title>
<g id="a_node1"><a xlink:title="Node iterator.">
<polygon fill="#bfbfbf" stroke="black" points="173,-0.5 173,-48.5 311,-48.5 311,-0.5 173,-0.5"/>
<text text-anchor="start" x="181" y="-37.3" font-family="Helvetica,sans-Serif" font-size="9.00">__gnu_pbds::detail</text>
<text text-anchor="start" x="181" y="-27.3" font-family="Helvetica,sans-Serif" font-size="9.00">::bin_search_tree_node</text>
<text text-anchor="start" x="181" y="-17.3" font-family="Helvetica,sans-Serif" font-size="9.00">_it_&lt; Node, Const_Iterator,</text>
<text text-anchor="middle" x="242" y="-7.3" font-family="Helvetica,sans-Serif" font-size="9.00"> Iterator, _Alloc &gt;</text>
</a>
</g>
</g>
<!-- Node2 -->
<g id="node2" class="node">
<title>Node2</title>
<g id="a_node2"><a xlink:href="a13338.html" target="_top" xlink:title="Const node iterator.">
<polygon fill="white" stroke="black" points="0,-0.5 0,-48.5 137,-48.5 137,-0.5 0,-0.5"/>
<text text-anchor="start" x="8" y="-37.3" font-family="Helvetica,sans-Serif" font-size="9.00">__gnu_pbds::detail</text>
<text text-anchor="start" x="8" y="-27.3" font-family="Helvetica,sans-Serif" font-size="9.00">::bin_search_tree_const</text>
<text text-anchor="start" x="8" y="-17.3" font-family="Helvetica,sans-Serif" font-size="9.00">_node_it_&lt; Node, Const</text>
<text text-anchor="middle" x="68.5" y="-7.3" font-family="Helvetica,sans-Serif" font-size="9.00">_Iterator, Iterator, _Alloc &gt;</text>
</a>
</g>
</g>
<!-- Node2&#45;&gt;Node1 -->
<g id="edge1" class="edge">
<title>Node2&#45;&gt;Node1</title>
<path fill="none" stroke="midnightblue" d="M147.53,-24.5C155.98,-24.5 164.54,-24.5 172.87,-24.5"/>
<polygon fill="midnightblue" stroke="midnightblue" points="147.28,-21 137.28,-24.5 147.28,-28 147.28,-21"/>
</g>
</g>
</svg>
