<?xml version="1.0" encoding="UTF-8" standalone="no"?>
<!DOCTYPE svg PUBLIC "-//W3C//DTD SVG 1.1//EN"
 "http://www.w3.org/Graphics/SVG/1.1/DTD/svg11.dtd">
<!-- Generated by graphviz version 2.50.0 (0)
 -->
<!-- Title: __gnu_pbds::detail::branch_policy&lt; Node_CItr, Node_Itr, _Alloc &gt; Pages: 1 -->
<svg width="495pt" height="157pt"
 viewBox="0.00 0.00 495.00 157.00" xmlns="http://www.w3.org/2000/svg" xmlns:xlink="http://www.w3.org/1999/xlink">
<g id="graph0" class="graph" transform="scale(1 1) rotate(0) translate(4 153)">
<title>__gnu_pbds::detail::branch_policy&lt; Node_CItr, Node_Itr, _Alloc &gt;</title>
<polygon fill="white" stroke="transparent" points="-4,4 -4,-153 491,-153 491,4 -4,4"/>
<!-- Node1 -->
<g id="node1" class="node">
<title>Node1</title>
<g id="a_node1"><a xlink:title="Primary template, base class for branch structure policies.">
<polygon fill="#bfbfbf" stroke="black" points="0,-38.5 0,-76.5 124,-76.5 124,-38.5 0,-38.5"/>
<text text-anchor="start" x="8" y="-65.3" font-family="Helvetica,sans-Serif" font-size="9.00">__gnu_pbds::detail</text>
<text text-anchor="start" x="8" y="-55.3" font-family="Helvetica,sans-Serif" font-size="9.00">::branch_policy&lt; Node</text>
<text text-anchor="middle" x="62" y="-45.3" font-family="Helvetica,sans-Serif" font-size="9.00">_CItr, Node_Itr, _Alloc &gt;</text>
</a>
</g>
</g>
<!-- Node2 -->
<g id="node2" class="node">
<title>Node2</title>
<g id="a_node2"><a xlink:href="a13750.html" target="_top" xlink:title="Base class for trie policies.">
<polygon fill="white" stroke="black" points="176,-67.5 176,-115.5 287,-115.5 287,-67.5 176,-67.5"/>
<text text-anchor="start" x="184" y="-104.3" font-family="Helvetica,sans-Serif" font-size="9.00">__gnu_pbds::detail</text>
<text text-anchor="start" x="184" y="-94.3" font-family="Helvetica,sans-Serif" font-size="9.00">::trie_policy_base&lt;</text>
<text text-anchor="start" x="184" y="-84.3" font-family="Helvetica,sans-Serif" font-size="9.00"> Node_CItr, Node_Itr,</text>
<text text-anchor="middle" x="231.5" y="-74.3" font-family="Helvetica,sans-Serif" font-size="9.00"> _ATraits, _Alloc &gt;</text>
</a>
</g>
</g>
<!-- Node1&#45;&gt;Node2 -->
<g id="edge1" class="edge">
<title>Node1&#45;&gt;Node2</title>
<path fill="none" stroke="midnightblue" d="M134.39,-71.99C148.23,-74.8 162.53,-77.7 175.73,-80.38"/>
<polygon fill="midnightblue" stroke="midnightblue" points="134.92,-68.53 124.42,-69.97 133.52,-75.39 134.92,-68.53"/>
</g>
<!-- Node5 -->
<g id="node5" class="node">
<title>Node5</title>
<g id="a_node5"><a xlink:href="a13074.html" target="_top" xlink:title="Functor updating ranks of entrees.">
<polygon fill="white" stroke="black" points="160,-0.5 160,-48.5 303,-48.5 303,-0.5 160,-0.5"/>
<text text-anchor="start" x="168" y="-37.3" font-family="Helvetica,sans-Serif" font-size="9.00">__gnu_pbds::tree_order</text>
<text text-anchor="start" x="168" y="-27.3" font-family="Helvetica,sans-Serif" font-size="9.00">_statistics_node_update</text>
<text text-anchor="start" x="168" y="-17.3" font-family="Helvetica,sans-Serif" font-size="9.00">&lt; Node_CItr, Node_Itr, Cmp</text>
<text text-anchor="middle" x="231.5" y="-7.3" font-family="Helvetica,sans-Serif" font-size="9.00">_Fn, _Alloc &gt;</text>
</a>
</g>
</g>
<!-- Node1&#45;&gt;Node5 -->
<g id="edge4" class="edge">
<title>Node1&#45;&gt;Node5</title>
<path fill="none" stroke="#8b1a1a" d="M134.23,-43.47C142.68,-41.8 151.29,-40.1 159.73,-38.44"/>
<polygon fill="#8b1a1a" stroke="#8b1a1a" points="133.55,-40.03 124.42,-45.4 134.91,-46.9 133.55,-40.03"/>
</g>
<!-- Node3 -->
<g id="node3" class="node">
<title>Node3</title>
<g id="a_node3"><a xlink:href="a13086.html" target="_top" xlink:title="Functor updating ranks of entrees.">
<polygon fill="white" stroke="black" points="350.5,-100.5 350.5,-148.5 475.5,-148.5 475.5,-100.5 350.5,-100.5"/>
<text text-anchor="start" x="358.5" y="-137.3" font-family="Helvetica,sans-Serif" font-size="9.00">__gnu_pbds::trie_order</text>
<text text-anchor="start" x="358.5" y="-127.3" font-family="Helvetica,sans-Serif" font-size="9.00">_statistics_node_update</text>
<text text-anchor="start" x="358.5" y="-117.3" font-family="Helvetica,sans-Serif" font-size="9.00">&lt; Node_CItr, Node_Itr, </text>
<text text-anchor="middle" x="413" y="-107.3" font-family="Helvetica,sans-Serif" font-size="9.00">_ATraits, _Alloc &gt;</text>
</a>
</g>
</g>
<!-- Node2&#45;&gt;Node3 -->
<g id="edge2" class="edge">
<title>Node2&#45;&gt;Node3</title>
<path fill="none" stroke="#8b1a1a" d="M297.32,-103.42C314.59,-106.59 333.2,-110.01 350.29,-113.16"/>
<polygon fill="#8b1a1a" stroke="#8b1a1a" points="297.8,-99.95 287.33,-101.58 296.53,-106.83 297.8,-99.95"/>
</g>
<!-- Node4 -->
<g id="node4" class="node">
<title>Node4</title>
<g id="a_node4"><a xlink:href="a13082.html" target="_top" xlink:title="A node updator that allows tries to be searched for the range of values that match a certain prefix.">
<polygon fill="white" stroke="black" points="339,-33.5 339,-81.5 487,-81.5 487,-33.5 339,-33.5"/>
<text text-anchor="start" x="347" y="-70.3" font-family="Helvetica,sans-Serif" font-size="9.00">__gnu_pbds::trie_prefix</text>
<text text-anchor="start" x="347" y="-60.3" font-family="Helvetica,sans-Serif" font-size="9.00">_search_node_update&lt; Node</text>
<text text-anchor="start" x="347" y="-50.3" font-family="Helvetica,sans-Serif" font-size="9.00">_CItr, Node_Itr, _ATraits,</text>
<text text-anchor="middle" x="413" y="-40.3" font-family="Helvetica,sans-Serif" font-size="9.00"> _Alloc &gt;</text>
</a>
</g>
</g>
<!-- Node2&#45;&gt;Node4 -->
<g id="edge3" class="edge">
<title>Node2&#45;&gt;Node4</title>
<path fill="none" stroke="#8b1a1a" d="M297.46,-79.2C310.94,-76.64 325.23,-73.93 338.98,-71.33"/>
<polygon fill="#8b1a1a" stroke="#8b1a1a" points="296.51,-75.81 287.33,-81.11 297.81,-82.69 296.51,-75.81"/>
</g>
</g>
</svg>
