<?xml version="1.0" encoding="UTF-8" standalone="no"?>
<!DOCTYPE svg PUBLIC "-//W3C//DTD SVG 1.1//EN"
 "http://www.w3.org/Graphics/SVG/1.1/DTD/svg11.dtd">
<!-- Generated by graphviz version 2.50.0 (0)
 -->
<!-- Title: __gnu_pbds::detail::cc_ht_map&lt; Key, Mapped, Hash_Fn, Eq_Fn, _Alloc, Store_Hash, Comb_Hash_Fn, Resize_Policy &gt; Pages: 1 -->
<svg width="489pt" height="181pt"
 viewBox="0.00 0.00 489.00 181.00" xmlns="http://www.w3.org/2000/svg" xmlns:xlink="http://www.w3.org/1999/xlink">
<g id="graph0" class="graph" transform="scale(1 1) rotate(0) translate(4 177)">
<title>__gnu_pbds::detail::cc_ht_map&lt; Key, Mapped, Hash_Fn, Eq_Fn, _Alloc, Store_Hash, Comb_Hash_Fn, Resize_Policy &gt;</title>
<polygon fill="white" stroke="transparent" points="-4,4 -4,-177 485,-177 485,4 -4,4"/>
<!-- Node1 -->
<g id="node1" class="node">
<title>Node1</title>
<g id="a_node1"><a xlink:title=" ">
<polygon fill="#bfbfbf" stroke="black" points="332,-62.5 332,-120.5 481,-120.5 481,-62.5 332,-62.5"/>
<text text-anchor="start" x="340" y="-109.3" font-family="Helvetica,sans-Serif" font-size="9.00">__gnu_pbds::detail</text>
<text text-anchor="start" x="340" y="-99.3" font-family="Helvetica,sans-Serif" font-size="9.00">::cc_ht_map&lt; Key, Mapped,</text>
<text text-anchor="start" x="340" y="-89.3" font-family="Helvetica,sans-Serif" font-size="9.00"> Hash_Fn, Eq_Fn, _Alloc,</text>
<text text-anchor="start" x="340" y="-79.3" font-family="Helvetica,sans-Serif" font-size="9.00"> Store_Hash, Comb_Hash_Fn,</text>
<text text-anchor="middle" x="406.5" y="-69.3" font-family="Helvetica,sans-Serif" font-size="9.00"> Resize_Policy &gt;</text>
</a>
</g>
</g>
<!-- Node2 -->
<g id="node2" class="node">
<title>Node2</title>
<g id="a_node2"><a xlink:href="a13394.html" target="_top" xlink:title="Primary template.">
<polygon fill="white" stroke="black" points="165,-134.5 165,-172.5 296,-172.5 296,-134.5 165,-134.5"/>
<text text-anchor="start" x="173" y="-161.3" font-family="Helvetica,sans-Serif" font-size="9.00">__gnu_pbds::detail</text>
<text text-anchor="start" x="173" y="-151.3" font-family="Helvetica,sans-Serif" font-size="9.00">::hash_eq_fn&lt; Key, Eq</text>
<text text-anchor="middle" x="230.5" y="-141.3" font-family="Helvetica,sans-Serif" font-size="9.00">_Fn, _Alloc, Store_Hash &gt;</text>
</a>
</g>
</g>
<!-- Node2&#45;&gt;Node1 -->
<g id="edge1" class="edge">
<title>Node2&#45;&gt;Node1</title>
<path fill="none" stroke="midnightblue" d="M294.66,-130.99C306.75,-126.69 319.51,-122.14 331.89,-117.73"/>
<polygon fill="midnightblue" stroke="midnightblue" points="293.37,-127.74 285.13,-134.39 295.72,-134.33 293.37,-127.74"/>
</g>
<!-- Node3 -->
<g id="node3" class="node">
<title>Node3</title>
<g id="a_node3"><a xlink:href="a13426.html" target="_top" xlink:title="Primary template.">
<polygon fill="white" stroke="black" points="167,-67.5 167,-115.5 294,-115.5 294,-67.5 167,-67.5"/>
<text text-anchor="start" x="175" y="-104.3" font-family="Helvetica,sans-Serif" font-size="9.00">__gnu_pbds::detail</text>
<text text-anchor="start" x="175" y="-94.3" font-family="Helvetica,sans-Serif" font-size="9.00">::ranged_hash_fn&lt; Key,</text>
<text text-anchor="start" x="175" y="-84.3" font-family="Helvetica,sans-Serif" font-size="9.00"> Hash_Fn, _Alloc, Comb</text>
<text text-anchor="middle" x="230.5" y="-74.3" font-family="Helvetica,sans-Serif" font-size="9.00">_Hash_Fn, Store_Hash &gt;</text>
</a>
</g>
</g>
<!-- Node3&#45;&gt;Node1 -->
<g id="edge2" class="edge">
<title>Node3&#45;&gt;Node1</title>
<path fill="none" stroke="midnightblue" d="M304.43,-91.5C313.49,-91.5 322.75,-91.5 331.82,-91.5"/>
<polygon fill="midnightblue" stroke="midnightblue" points="304.32,-88 294.32,-91.5 304.32,-95 304.32,-88"/>
</g>
<!-- Node4 -->
<g id="node4" class="node">
<title>Node4</title>
<g id="a_node4"><a xlink:href="a13274.html" target="_top" xlink:title="Traits for abstract types.">
<polygon fill="white" stroke="black" points="172,-0.5 172,-48.5 289,-48.5 289,-0.5 172,-0.5"/>
<text text-anchor="start" x="180" y="-37.3" font-family="Helvetica,sans-Serif" font-size="9.00">__gnu_pbds::detail</text>
<text text-anchor="start" x="180" y="-27.3" font-family="Helvetica,sans-Serif" font-size="9.00">::types_traits&lt; Key,</text>
<text text-anchor="start" x="180" y="-17.3" font-family="Helvetica,sans-Serif" font-size="9.00"> Mapped, _Alloc, Store</text>
<text text-anchor="middle" x="230.5" y="-7.3" font-family="Helvetica,sans-Serif" font-size="9.00">_Hash &gt;</text>
</a>
</g>
</g>
<!-- Node4&#45;&gt;Node1 -->
<g id="edge3" class="edge">
<title>Node4&#45;&gt;Node1</title>
<path fill="none" stroke="midnightblue" d="M298.79,-50.41C309.58,-54.56 320.79,-58.88 331.72,-63.09"/>
<polygon fill="midnightblue" stroke="midnightblue" points="300.03,-47.14 289.44,-46.81 297.51,-53.67 300.03,-47.14"/>
</g>
<!-- Node5 -->
<g id="node5" class="node">
<title>Node5</title>
<g id="a_node5"><a xlink:href="a13262.html" target="_top" xlink:title="Base class for conditionally defining a static data member.">
<polygon fill="white" stroke="black" points="0,-0.5 0,-48.5 129,-48.5 129,-0.5 0,-0.5"/>
<text text-anchor="start" x="8" y="-37.3" font-family="Helvetica,sans-Serif" font-size="9.00">__gnu_pbds::detail</text>
<text text-anchor="start" x="8" y="-27.3" font-family="Helvetica,sans-Serif" font-size="9.00">::maybe_null_type&lt; Key,</text>
<text text-anchor="start" x="8" y="-17.3" font-family="Helvetica,sans-Serif" font-size="9.00"> Mapped, _Alloc, Store</text>
<text text-anchor="middle" x="64.5" y="-7.3" font-family="Helvetica,sans-Serif" font-size="9.00">_Hash &gt;</text>
</a>
</g>
</g>
<!-- Node5&#45;&gt;Node4 -->
<g id="edge4" class="edge">
<title>Node5&#45;&gt;Node4</title>
<path fill="none" stroke="midnightblue" d="M139.68,-24.5C150.5,-24.5 161.52,-24.5 171.95,-24.5"/>
<polygon fill="midnightblue" stroke="midnightblue" points="139.38,-21 129.38,-24.5 139.38,-28 139.38,-21"/>
</g>
</g>
</svg>
