<?xml version="1.0" encoding="UTF-8" standalone="no"?>
<!DOCTYPE svg PUBLIC "-//W3C//DTD SVG 1.1//EN"
 "http://www.w3.org/Graphics/SVG/1.1/DTD/svg11.dtd">
<!-- Generated by graphviz version 2.50.0 (0)
 -->
<!-- Title: __gnu_pbds::detail::gp_ht_map&lt; Key, Mapped, Hash_Fn, Eq_Fn, _Alloc, Store_Hash, Comb_Probe_Fn, Probe_Fn, Resize_Policy &gt; Pages: 1 -->
<svg width="540pt" height="181pt"
 viewBox="0.00 0.00 540.00 181.00" xmlns="http://www.w3.org/2000/svg" xmlns:xlink="http://www.w3.org/1999/xlink">
<g id="graph0" class="graph" transform="scale(1 1) rotate(0) translate(4 177)">
<title>__gnu_pbds::detail::gp_ht_map&lt; Key, Mapped, Hash_Fn, Eq_Fn, _Alloc, Store_Hash, Comb_Probe_Fn, Probe_Fn, Resize_Policy &gt;</title>
<polygon fill="white" stroke="transparent" points="-4,4 -4,-177 536,-177 536,4 -4,4"/>
<!-- Node1 -->
<g id="node1" class="node">
<title>Node1</title>
<g id="a_node1"><a xlink:title=" ">
<polygon fill="#bfbfbf" stroke="black" points="378,-62.5 378,-120.5 532,-120.5 532,-62.5 378,-62.5"/>
<text text-anchor="start" x="386" y="-109.3" font-family="Helvetica,sans-Serif" font-size="9.00">__gnu_pbds::detail</text>
<text text-anchor="start" x="386" y="-99.3" font-family="Helvetica,sans-Serif" font-size="9.00">::gp_ht_map&lt; Key, Mapped,</text>
<text text-anchor="start" x="386" y="-89.3" font-family="Helvetica,sans-Serif" font-size="9.00"> Hash_Fn, Eq_Fn, _Alloc,</text>
<text text-anchor="start" x="386" y="-79.3" font-family="Helvetica,sans-Serif" font-size="9.00"> Store_Hash, Comb_Probe</text>
<text text-anchor="middle" x="455" y="-69.3" font-family="Helvetica,sans-Serif" font-size="9.00">_Fn, Probe_Fn, Resize_Policy &gt;</text>
</a>
</g>
</g>
<!-- Node2 -->
<g id="node2" class="node">
<title>Node2</title>
<g id="a_node2"><a xlink:href="a13394.html" target="_top" xlink:title="Primary template.">
<polygon fill="white" stroke="black" points="188,-134.5 188,-172.5 319,-172.5 319,-134.5 188,-134.5"/>
<text text-anchor="start" x="196" y="-161.3" font-family="Helvetica,sans-Serif" font-size="9.00">__gnu_pbds::detail</text>
<text text-anchor="start" x="196" y="-151.3" font-family="Helvetica,sans-Serif" font-size="9.00">::hash_eq_fn&lt; Key, Eq</text>
<text text-anchor="middle" x="253.5" y="-141.3" font-family="Helvetica,sans-Serif" font-size="9.00">_Fn, _Alloc, Store_Hash &gt;</text>
</a>
</g>
</g>
<!-- Node2&#45;&gt;Node1 -->
<g id="edge1" class="edge">
<title>Node2&#45;&gt;Node1</title>
<path fill="none" stroke="midnightblue" d="M325.53,-131.43C342.46,-126.17 360.59,-120.53 377.75,-115.2"/>
<polygon fill="midnightblue" stroke="midnightblue" points="324.22,-128.17 315.71,-134.48 326.3,-134.85 324.22,-128.17"/>
</g>
<!-- Node3 -->
<g id="node3" class="node">
<title>Node3</title>
<g id="a_node3"><a xlink:href="a13446.html" target="_top" xlink:title="Primary template.">
<polygon fill="white" stroke="black" points="165,-67.5 165,-115.5 342,-115.5 342,-67.5 165,-67.5"/>
<text text-anchor="start" x="173" y="-104.3" font-family="Helvetica,sans-Serif" font-size="9.00">__gnu_pbds::detail</text>
<text text-anchor="start" x="173" y="-94.3" font-family="Helvetica,sans-Serif" font-size="9.00">::ranged_probe_fn&lt; Key,</text>
<text text-anchor="start" x="173" y="-84.3" font-family="Helvetica,sans-Serif" font-size="9.00"> Hash_Fn, _Alloc, Comb</text>
<text text-anchor="middle" x="253.5" y="-74.3" font-family="Helvetica,sans-Serif" font-size="9.00">_Probe_Fn, Probe_Fn, Store_Hash &gt;</text>
</a>
</g>
</g>
<!-- Node3&#45;&gt;Node1 -->
<g id="edge2" class="edge">
<title>Node3&#45;&gt;Node1</title>
<path fill="none" stroke="midnightblue" d="M352.11,-91.5C360.75,-91.5 369.41,-91.5 377.82,-91.5"/>
<polygon fill="midnightblue" stroke="midnightblue" points="352,-88 342,-91.5 352,-95 352,-88"/>
</g>
<!-- Node4 -->
<g id="node4" class="node">
<title>Node4</title>
<g id="a_node4"><a xlink:href="a13274.html" target="_top" xlink:title="Traits for abstract types.">
<polygon fill="white" stroke="black" points="195,-0.5 195,-48.5 312,-48.5 312,-0.5 195,-0.5"/>
<text text-anchor="start" x="203" y="-37.3" font-family="Helvetica,sans-Serif" font-size="9.00">__gnu_pbds::detail</text>
<text text-anchor="start" x="203" y="-27.3" font-family="Helvetica,sans-Serif" font-size="9.00">::types_traits&lt; Key,</text>
<text text-anchor="start" x="203" y="-17.3" font-family="Helvetica,sans-Serif" font-size="9.00"> Mapped, _Alloc, Store</text>
<text text-anchor="middle" x="253.5" y="-7.3" font-family="Helvetica,sans-Serif" font-size="9.00">_Hash &gt;</text>
</a>
</g>
</g>
<!-- Node4&#45;&gt;Node1 -->
<g id="edge3" class="edge">
<title>Node4&#45;&gt;Node1</title>
<path fill="none" stroke="midnightblue" d="M322,-47.17C339.95,-53.2 359.47,-59.75 377.85,-65.93"/>
<polygon fill="midnightblue" stroke="midnightblue" points="322.8,-43.75 312.2,-43.88 320.57,-50.38 322.8,-43.75"/>
</g>
<!-- Node5 -->
<g id="node5" class="node">
<title>Node5</title>
<g id="a_node5"><a xlink:href="a13262.html" target="_top" xlink:title="Base class for conditionally defining a static data member.">
<polygon fill="white" stroke="black" points="0,-0.5 0,-48.5 129,-48.5 129,-0.5 0,-0.5"/>
<text text-anchor="start" x="8" y="-37.3" font-family="Helvetica,sans-Serif" font-size="9.00">__gnu_pbds::detail</text>
<text text-anchor="start" x="8" y="-27.3" font-family="Helvetica,sans-Serif" font-size="9.00">::maybe_null_type&lt; Key,</text>
<text text-anchor="start" x="8" y="-17.3" font-family="Helvetica,sans-Serif" font-size="9.00"> Mapped, _Alloc, Store</text>
<text text-anchor="middle" x="64.5" y="-7.3" font-family="Helvetica,sans-Serif" font-size="9.00">_Hash &gt;</text>
</a>
</g>
</g>
<!-- Node5&#45;&gt;Node4 -->
<g id="edge4" class="edge">
<title>Node5&#45;&gt;Node4</title>
<path fill="none" stroke="midnightblue" d="M139.2,-24.5C157.66,-24.5 177.2,-24.5 194.76,-24.5"/>
<polygon fill="midnightblue" stroke="midnightblue" points="139.07,-21 129.07,-24.5 139.07,-28 139.07,-21"/>
</g>
</g>
</svg>
