<?xml version="1.0" encoding="UTF-8" standalone="no"?>
<!DOCTYPE svg PUBLIC "-//W3C//DTD SVG 1.1//EN"
 "http://www.w3.org/Graphics/SVG/1.1/DTD/svg11.dtd">
<!-- Generated by graphviz version 2.50.0 (0)
 -->
<!-- Title: __gnu_pbds::detail::ranged_probe_fn&lt; Key, Hash_Fn, _Alloc, Comb_Probe_Fn, Probe_Fn, Store_Hash &gt; Pages: 1 -->
<svg width="375pt" height="67pt"
 viewBox="0.00 0.00 375.00 67.00" xmlns="http://www.w3.org/2000/svg" xmlns:xlink="http://www.w3.org/1999/xlink">
<g id="graph0" class="graph" transform="scale(1 1) rotate(0) translate(4 63)">
<title>__gnu_pbds::detail::ranged_probe_fn&lt; Key, Hash_Fn, _Alloc, Comb_Probe_Fn, Probe_Fn, Store_Hash &gt;</title>
<polygon fill="white" stroke="transparent" points="-4,4 -4,-63 371,-63 371,4 -4,4"/>
<!-- Node1 -->
<g id="node1" class="node">
<title>Node1</title>
<g id="a_node1"><a xlink:title="Primary template.">
<polygon fill="#bfbfbf" stroke="black" points="0,-5.5 0,-53.5 177,-53.5 177,-5.5 0,-5.5"/>
<text text-anchor="start" x="8" y="-42.3" font-family="Helvetica,sans-Serif" font-size="9.00">__gnu_pbds::detail</text>
<text text-anchor="start" x="8" y="-32.3" font-family="Helvetica,sans-Serif" font-size="9.00">::ranged_probe_fn&lt; Key,</text>
<text text-anchor="start" x="8" y="-22.3" font-family="Helvetica,sans-Serif" font-size="9.00"> Hash_Fn, _Alloc, Comb</text>
<text text-anchor="middle" x="88.5" y="-12.3" font-family="Helvetica,sans-Serif" font-size="9.00">_Probe_Fn, Probe_Fn, Store_Hash &gt;</text>
</a>
</g>
</g>
<!-- Node2 -->
<g id="node2" class="node">
<title>Node2</title>
<g id="a_node2"><a xlink:href="a13406.html" target="_top" xlink:title=" ">
<polygon fill="white" stroke="black" points="213,-0.5 213,-58.5 367,-58.5 367,-0.5 213,-0.5"/>
<text text-anchor="start" x="221" y="-47.3" font-family="Helvetica,sans-Serif" font-size="9.00">__gnu_pbds::detail</text>
<text text-anchor="start" x="221" y="-37.3" font-family="Helvetica,sans-Serif" font-size="9.00">::gp_ht_map&lt; Key, Mapped,</text>
<text text-anchor="start" x="221" y="-27.3" font-family="Helvetica,sans-Serif" font-size="9.00"> Hash_Fn, Eq_Fn, _Alloc,</text>
<text text-anchor="start" x="221" y="-17.3" font-family="Helvetica,sans-Serif" font-size="9.00"> Store_Hash, Comb_Probe</text>
<text text-anchor="middle" x="290" y="-7.3" font-family="Helvetica,sans-Serif" font-size="9.00">_Fn, Probe_Fn, Resize_Policy &gt;</text>
</a>
</g>
</g>
<!-- Node1&#45;&gt;Node2 -->
<g id="edge1" class="edge">
<title>Node1&#45;&gt;Node2</title>
<path fill="none" stroke="midnightblue" d="M187.11,-29.5C195.75,-29.5 204.41,-29.5 212.82,-29.5"/>
<polygon fill="midnightblue" stroke="midnightblue" points="187,-26 177,-29.5 187,-33 187,-26"/>
</g>
</g>
</svg>
