<?xml version="1.0" encoding="UTF-8" standalone="no"?>
<!DOCTYPE svg PUBLIC "-//W3C//DTD SVG 1.1//EN"
 "http://www.w3.org/Graphics/SVG/1.1/DTD/svg11.dtd">
<!-- Generated by graphviz version 2.50.0 (0)
 -->
<!-- Title: __gnu_pbds::detail::pat_trie_map&lt; Key, Mapped, Node_And_It_Traits, _Alloc &gt; Pages: 1 -->
<svg width="452pt" height="99pt"
 viewBox="0.00 0.00 452.00 99.00" xmlns="http://www.w3.org/2000/svg" xmlns:xlink="http://www.w3.org/1999/xlink">
<g id="graph0" class="graph" transform="scale(1 1) rotate(0) translate(4 95)">
<title>__gnu_pbds::detail::pat_trie_map&lt; Key, Mapped, Node_And_It_Traits, _Alloc &gt;</title>
<polygon fill="white" stroke="transparent" points="-4,4 -4,-95 448,-95 448,4 -4,4"/>
<!-- Node1 -->
<g id="node1" class="node">
<title>Node1</title>
<g id="a_node1"><a xlink:title="PATRICIA trie.">
<polygon fill="#bfbfbf" stroke="black" points="325,-16.5 325,-64.5 444,-64.5 444,-16.5 325,-16.5"/>
<text text-anchor="start" x="333" y="-53.3" font-family="Helvetica,sans-Serif" font-size="9.00">__gnu_pbds::detail</text>
<text text-anchor="start" x="333" y="-43.3" font-family="Helvetica,sans-Serif" font-size="9.00">::pat_trie_map&lt; Key,</text>
<text text-anchor="start" x="333" y="-33.3" font-family="Helvetica,sans-Serif" font-size="9.00"> Mapped, Node_And_It</text>
<text text-anchor="middle" x="384.5" y="-23.3" font-family="Helvetica,sans-Serif" font-size="9.00">_Traits, _Alloc &gt;</text>
</a>
</g>
</g>
<!-- Node2 -->
<g id="node2" class="node">
<title>Node2</title>
<g id="a_node2"><a xlink:href="a13274.html" target="_top" xlink:title=" ">
<polygon fill="white" stroke="black" points="165,-47.5 165,-85.5 289,-85.5 289,-47.5 165,-47.5"/>
<text text-anchor="start" x="173" y="-74.3" font-family="Helvetica,sans-Serif" font-size="9.00">__gnu_pbds::detail</text>
<text text-anchor="start" x="173" y="-64.3" font-family="Helvetica,sans-Serif" font-size="9.00">::types_traits&lt; Key,</text>
<text text-anchor="middle" x="227" y="-54.3" font-family="Helvetica,sans-Serif" font-size="9.00"> Mapped, _Alloc, false &gt;</text>
</a>
</g>
</g>
<!-- Node2&#45;&gt;Node1 -->
<g id="edge1" class="edge">
<title>Node2&#45;&gt;Node1</title>
<path fill="none" stroke="midnightblue" d="M299.09,-54.61C307.75,-53.17 316.51,-51.7 324.95,-50.29"/>
<polygon fill="midnightblue" stroke="midnightblue" points="298.3,-51.2 289.01,-56.3 299.45,-58.1 298.3,-51.2"/>
</g>
<!-- Node3 -->
<g id="node3" class="node">
<title>Node3</title>
<g id="a_node3"><a xlink:href="a13262.html" target="_top" xlink:title="Base class for conditionally defining a static data member.">
<polygon fill="white" stroke="black" points="0,-42.5 0,-90.5 129,-90.5 129,-42.5 0,-42.5"/>
<text text-anchor="start" x="8" y="-79.3" font-family="Helvetica,sans-Serif" font-size="9.00">__gnu_pbds::detail</text>
<text text-anchor="start" x="8" y="-69.3" font-family="Helvetica,sans-Serif" font-size="9.00">::maybe_null_type&lt; Key,</text>
<text text-anchor="start" x="8" y="-59.3" font-family="Helvetica,sans-Serif" font-size="9.00"> Mapped, _Alloc, Store</text>
<text text-anchor="middle" x="64.5" y="-49.3" font-family="Helvetica,sans-Serif" font-size="9.00">_Hash &gt;</text>
</a>
</g>
</g>
<!-- Node3&#45;&gt;Node2 -->
<g id="edge2" class="edge">
<title>Node3&#45;&gt;Node2</title>
<path fill="none" stroke="midnightblue" d="M139.65,-66.5C148.11,-66.5 156.67,-66.5 164.94,-66.5"/>
<polygon fill="midnightblue" stroke="midnightblue" points="139.4,-63 129.4,-66.5 139.39,-70 139.4,-63"/>
</g>
<!-- Node4 -->
<g id="node4" class="node">
<title>Node4</title>
<g id="a_node4"><a xlink:href="a13566.html" target="_top" xlink:title="Base type for PATRICIA trees.">
<polygon fill="white" stroke="black" points="176.5,-0.5 176.5,-28.5 277.5,-28.5 277.5,-0.5 176.5,-0.5"/>
<text text-anchor="start" x="184.5" y="-17.3" font-family="Helvetica,sans-Serif" font-size="9.00">__gnu_pbds::detail</text>
<text text-anchor="middle" x="227" y="-7.3" font-family="Helvetica,sans-Serif" font-size="9.00">::pat_trie_base</text>
</a>
</g>
</g>
<!-- Node4&#45;&gt;Node1 -->
<g id="edge3" class="edge">
<title>Node4&#45;&gt;Node1</title>
<path fill="none" stroke="midnightblue" d="M287.69,-24.48C299.88,-26.52 312.69,-28.66 324.84,-30.69"/>
<polygon fill="midnightblue" stroke="midnightblue" points="288.07,-21 277.63,-22.8 286.91,-27.9 288.07,-21"/>
</g>
</g>
</svg>
