<?xml version="1.0" encoding="UTF-8" standalone="no"?>
<!DOCTYPE svg PUBLIC "-//W3C//DTD SVG 1.1//EN"
 "http://www.w3.org/Graphics/SVG/1.1/DTD/svg11.dtd">
<!-- Generated by graphviz version 2.50.0 (0)
 -->
<!-- Title: __gnu_pbds::detail::ov_tree_node_it_&lt; Value_Type, Metadata_Type, _Alloc &gt; Pages: 1 -->
<svg width="148pt" height="142pt"
 viewBox="0.00 0.00 148.00 142.00" xmlns="http://www.w3.org/2000/svg" xmlns:xlink="http://www.w3.org/1999/xlink">
<g id="graph0" class="graph" transform="scale(1 1) rotate(0) translate(4 138)">
<title>__gnu_pbds::detail::ov_tree_node_it_&lt; Value_Type, Metadata_Type, _Alloc &gt;</title>
<polygon fill="white" stroke="transparent" points="-4,4 -4,-138 144,-138 144,4 -4,4"/>
<!-- Node1 -->
<g id="node1" class="node">
<title>Node1</title>
<g id="a_node1"><a xlink:title="Node reference.">
<polygon fill="#bfbfbf" stroke="black" points="11.5,-0.5 11.5,-48.5 128.5,-48.5 128.5,-0.5 11.5,-0.5"/>
<text text-anchor="start" x="19.5" y="-37.3" font-family="Helvetica,sans-Serif" font-size="9.00">__gnu_pbds::detail</text>
<text text-anchor="start" x="19.5" y="-27.3" font-family="Helvetica,sans-Serif" font-size="9.00">::ov_tree_node_it_&lt;</text>
<text text-anchor="start" x="19.5" y="-17.3" font-family="Helvetica,sans-Serif" font-size="9.00"> Value_Type, Metadata</text>
<text text-anchor="middle" x="70" y="-7.3" font-family="Helvetica,sans-Serif" font-size="9.00">_Type, _Alloc &gt;</text>
</a>
</g>
</g>
<!-- Node2 -->
<g id="node2" class="node">
<title>Node2</title>
<g id="a_node2"><a xlink:href="a13526.html" target="_top" xlink:title="Const node reference.">
<polygon fill="white" stroke="black" points="0,-85.5 0,-133.5 140,-133.5 140,-85.5 0,-85.5"/>
<text text-anchor="start" x="8" y="-122.3" font-family="Helvetica,sans-Serif" font-size="9.00">__gnu_pbds::detail</text>
<text text-anchor="start" x="8" y="-112.3" font-family="Helvetica,sans-Serif" font-size="9.00">::ov_tree_node_const</text>
<text text-anchor="start" x="8" y="-102.3" font-family="Helvetica,sans-Serif" font-size="9.00">_it_&lt; Value_Type, Metadata</text>
<text text-anchor="middle" x="70" y="-92.3" font-family="Helvetica,sans-Serif" font-size="9.00">_Type, _Alloc &gt;</text>
</a>
</g>
</g>
<!-- Node2&#45;&gt;Node1 -->
<g id="edge1" class="edge">
<title>Node2&#45;&gt;Node1</title>
<path fill="none" stroke="midnightblue" d="M70,-75.3C70,-66.42 70,-57.01 70,-48.78"/>
<polygon fill="midnightblue" stroke="midnightblue" points="66.5,-75.38 70,-85.38 73.5,-75.38 66.5,-75.38"/>
</g>
</g>
</svg>
