<?xml version="1.0" encoding="UTF-8" standalone="no"?>
<!DOCTYPE svg PUBLIC "-//W3C//DTD SVG 1.1//EN"
 "http://www.w3.org/Graphics/SVG/1.1/DTD/svg11.dtd">
<!-- Generated by graphviz version 2.50.0 (0)
 -->
<!-- Title: Graphical Class Hierarchy Pages: 1 -->
<svg width="296pt" height="37pt"
 viewBox="0.00 0.00 296.00 37.00" xmlns="http://www.w3.org/2000/svg" xmlns:xlink="http://www.w3.org/1999/xlink">
<g id="graph0" class="graph" transform="scale(1 1) rotate(0) translate(4 33)">
<title>Graphical Class Hierarchy</title>
<polygon fill="white" stroke="transparent" points="-4,4 -4,-33 292,-33 292,4 -4,4"/>
<!-- Node0 -->
<g id="node1" class="node">
<title>Node0</title>
<g id="a_node1"><a xlink:href="a03522.html" target="_top" xlink:title=" ">
<polygon fill="white" stroke="black" points="0,-0.5 0,-28.5 113,-28.5 113,-0.5 0,-0.5"/>
<text text-anchor="start" x="8" y="-17.3" font-family="Helvetica,sans-Serif" font-size="9.00">std::hash&lt; std::basic</text>
<text text-anchor="middle" x="56.5" y="-7.3" font-family="Helvetica,sans-Serif" font-size="9.00">_string&lt; _CharT &gt; &gt;</text>
</a>
</g>
</g>
<!-- Node1 -->
<g id="node2" class="node">
<title>Node1</title>
<g id="a_node2"><a xlink:href="a09794.html" target="_top" xlink:title="std::hash specialization for __gnu_debug::basic_string.">
<polygon fill="white" stroke="black" points="149,-0.5 149,-28.5 288,-28.5 288,-0.5 149,-0.5"/>
<text text-anchor="start" x="157" y="-17.3" font-family="Helvetica,sans-Serif" font-size="9.00">std::hash&lt; __gnu_debug</text>
<text text-anchor="middle" x="218.5" y="-7.3" font-family="Helvetica,sans-Serif" font-size="9.00">::basic_string&lt; _CharT &gt; &gt;</text>
</a>
</g>
</g>
<!-- Node0&#45;&gt;Node1 -->
<g id="edge1" class="edge">
<title>Node0&#45;&gt;Node1</title>
<path fill="none" stroke="midnightblue" d="M123.19,-14.5C131.65,-14.5 140.33,-14.5 148.83,-14.5"/>
<polygon fill="midnightblue" stroke="midnightblue" points="123.01,-11 113.01,-14.5 123.01,-18 123.01,-11"/>
</g>
</g>
</svg>
