<?xml version="1.0" encoding="UTF-8" standalone="no"?>
<!DOCTYPE svg PUBLIC "-//W3C//DTD SVG 1.1//EN"
 "http://www.w3.org/Graphics/SVG/1.1/DTD/svg11.dtd">
<!-- Generated by graphviz version 2.50.0 (0)
 -->
<!-- Title: Graphical Class Hierarchy Pages: 1 -->
<svg width="286pt" height="37pt"
 viewBox="0.00 0.00 286.00 37.00" xmlns="http://www.w3.org/2000/svg" xmlns:xlink="http://www.w3.org/1999/xlink">
<g id="graph0" class="graph" transform="scale(1 1) rotate(0) translate(4 33)">
<title>Graphical Class Hierarchy</title>
<polygon fill="white" stroke="transparent" points="-4,4 -4,-33 282,-33 282,4 -4,4"/>
<!-- Node0 -->
<g id="node1" class="node">
<title>Node0</title>
<g id="a_node1"><a xlink:href="a03766.html" target="_top" xlink:title=" ">
<polygon fill="white" stroke="black" points="0,-0.5 0,-28.5 139,-28.5 139,-0.5 0,-0.5"/>
<text text-anchor="start" x="8" y="-17.3" font-family="Helvetica,sans-Serif" font-size="9.00">std::integral_constant</text>
<text text-anchor="middle" x="69.5" y="-7.3" font-family="Helvetica,sans-Serif" font-size="9.00">&lt; std::size_t, alignof(_Tp)&gt;</text>
</a>
</g>
</g>
<!-- Node1 -->
<g id="node2" class="node">
<title>Node1</title>
<g id="a_node2"><a xlink:href="a04222.html" target="_top" xlink:title="alignment_of">
<polygon fill="white" stroke="black" points="175,-0.5 175,-28.5 278,-28.5 278,-0.5 175,-0.5"/>
<text text-anchor="start" x="183" y="-17.3" font-family="Helvetica,sans-Serif" font-size="9.00">std::alignment_of&lt;</text>
<text text-anchor="middle" x="226.5" y="-7.3" font-family="Helvetica,sans-Serif" font-size="9.00"> _Tp &gt;</text>
</a>
</g>
</g>
<!-- Node0&#45;&gt;Node1 -->
<g id="edge1" class="edge">
<title>Node0&#45;&gt;Node1</title>
<path fill="none" stroke="midnightblue" d="M149.52,-14.5C158.17,-14.5 166.79,-14.5 174.96,-14.5"/>
<polygon fill="midnightblue" stroke="midnightblue" points="149.39,-11 139.39,-14.5 149.39,-18 149.39,-11"/>
</g>
</g>
</svg>
