<?xml version="1.0" encoding="UTF-8" standalone="no"?>
<!DOCTYPE svg PUBLIC "-//W3C//DTD SVG 1.1//EN"
 "http://www.w3.org/Graphics/SVG/1.1/DTD/svg11.dtd">
<!-- Generated by graphviz version 2.50.0 (0)
 -->
<!-- Title: Graphical Class Hierarchy Pages: 1 -->
<svg width="285pt" height="84pt"
 viewBox="0.00 0.00 285.00 84.00" xmlns="http://www.w3.org/2000/svg" xmlns:xlink="http://www.w3.org/1999/xlink">
<g id="graph0" class="graph" transform="scale(1 1) rotate(0) translate(4 80)">
<title>Graphical Class Hierarchy</title>
<polygon fill="white" stroke="transparent" points="-4,4 -4,-80 281,-80 281,4 -4,4"/>
<!-- Node0 -->
<g id="node1" class="node">
<title>Node0</title>
<g id="a_node1"><a xlink:href="a03010.html" target="_top" xlink:title="Class template that provides copy/move constructors of optional.">
<polygon fill="white" stroke="black" points="0,-18.5 0,-46.5 104,-46.5 104,-18.5 0,-18.5"/>
<text text-anchor="start" x="8" y="-35.3" font-family="Helvetica,sans-Serif" font-size="9.00">std::_Optional_base</text>
<text text-anchor="middle" x="52" y="-25.3" font-family="Helvetica,sans-Serif" font-size="9.00">&lt; _Tp, bool, bool &gt;</text>
</a>
</g>
</g>
<!-- Node1 -->
<g id="node2" class="node">
<title>Node1</title>
<g id="a_node2"><a xlink:href="a11822.html" target="_top" xlink:title="Class template for optional values.">
<polygon fill="white" stroke="black" points="140,-37.5 140,-75.5 277,-75.5 277,-37.5 140,-37.5"/>
<text text-anchor="start" x="148" y="-64.3" font-family="Helvetica,sans-Serif" font-size="9.00">std::experimental::</text>
<text text-anchor="start" x="148" y="-54.3" font-family="Helvetica,sans-Serif" font-size="9.00">fundamentals_v1::optional</text>
<text text-anchor="middle" x="208.5" y="-44.3" font-family="Helvetica,sans-Serif" font-size="9.00">&lt; _Tp &gt;</text>
</a>
</g>
</g>
<!-- Node0&#45;&gt;Node1 -->
<g id="edge1" class="edge">
<title>Node0&#45;&gt;Node1</title>
<path fill="none" stroke="#8b1a1a" d="M114.12,-41.99C122.53,-43.3 131.2,-44.65 139.73,-45.97"/>
<polygon fill="#8b1a1a" stroke="#8b1a1a" points="114.44,-38.5 104.02,-40.43 113.36,-45.42 114.44,-38.5"/>
</g>
<!-- Node2 -->
<g id="node3" class="node">
<title>Node2</title>
<g id="a_node3"><a xlink:href="a02950.html" target="_top" xlink:title="Class template for optional values.">
<polygon fill="white" stroke="black" points="153.5,-0.5 153.5,-18.5 263.5,-18.5 263.5,-0.5 153.5,-0.5"/>
<text text-anchor="middle" x="208.5" y="-7.3" font-family="Helvetica,sans-Serif" font-size="9.00">std::optional&lt; _Tp &gt;</text>
</a>
</g>
</g>
<!-- Node0&#45;&gt;Node2 -->
<g id="edge2" class="edge">
<title>Node0&#45;&gt;Node2</title>
<path fill="none" stroke="#8b1a1a" d="M114.22,-23.39C127.15,-21.46 140.71,-19.44 153.35,-17.56"/>
<polygon fill="#8b1a1a" stroke="#8b1a1a" points="113.39,-19.97 104.02,-24.91 114.42,-26.89 113.39,-19.97"/>
</g>
</g>
</svg>
