<?xml version="1.0" encoding="UTF-8" standalone="no"?>
<!DOCTYPE svg PUBLIC "-//W3C//DTD SVG 1.1//EN"
 "http://www.w3.org/Graphics/SVG/1.1/DTD/svg11.dtd">
<!-- Generated by graphviz version 2.50.0 (0)
 -->
<!-- Title: Graphical Class Hierarchy Pages: 1 -->
<svg width="300pt" height="67pt"
 viewBox="0.00 0.00 300.00 67.00" xmlns="http://www.w3.org/2000/svg" xmlns:xlink="http://www.w3.org/1999/xlink">
<g id="graph0" class="graph" transform="scale(1 1) rotate(0) translate(4 63)">
<title>Graphical Class Hierarchy</title>
<polygon fill="white" stroke="transparent" points="-4,4 -4,-63 296,-63 296,4 -4,4"/>
<!-- Node0 -->
<g id="node1" class="node">
<title>Node0</title>
<g id="a_node1"><a xlink:href="a08850.html" target="_top" xlink:title=" ">
<polygon fill="white" stroke="black" points="0,-0.5 0,-58.5 125,-58.5 125,-0.5 0,-0.5"/>
<text text-anchor="start" x="8" y="-47.3" font-family="Helvetica,sans-Serif" font-size="9.00">std::_Vector_base&lt;</text>
<text text-anchor="start" x="8" y="-37.3" font-family="Helvetica,sans-Serif" font-size="9.00"> _State&lt; _TraitsT::char</text>
<text text-anchor="start" x="8" y="-27.3" font-family="Helvetica,sans-Serif" font-size="9.00">_type &gt;, std::allocator</text>
<text text-anchor="start" x="8" y="-17.3" font-family="Helvetica,sans-Serif" font-size="9.00">&lt; _State&lt; _TraitsT::char</text>
<text text-anchor="middle" x="62.5" y="-7.3" font-family="Helvetica,sans-Serif" font-size="9.00">_type &gt; &gt; &gt;</text>
</a>
</g>
</g>
<!-- Node1 -->
<g id="node2" class="node">
<title>Node1</title>
<g id="a_node2"><a xlink:href="a08862.html" target="_top" xlink:title=" ">
<polygon fill="white" stroke="black" points="161,-15.5 161,-43.5 292,-43.5 292,-15.5 161,-15.5"/>
<text text-anchor="start" x="169" y="-32.3" font-family="Helvetica,sans-Serif" font-size="9.00">std::vector&lt; _State</text>
<text text-anchor="middle" x="226.5" y="-22.3" font-family="Helvetica,sans-Serif" font-size="9.00">&lt; _TraitsT::char_type &gt; &gt;</text>
</a>
</g>
</g>
<!-- Node0&#45;&gt;Node1 -->
<g id="edge1" class="edge">
<title>Node0&#45;&gt;Node1</title>
<path fill="none" stroke="darkgreen" d="M135.4,-29.5C143.84,-29.5 152.4,-29.5 160.73,-29.5"/>
<polygon fill="darkgreen" stroke="darkgreen" points="135.21,-26 125.21,-29.5 135.21,-33 135.21,-26"/>
</g>
</g>
</svg>
