<?xml version="1.0" encoding="UTF-8" standalone="no"?>
<!DOCTYPE svg PUBLIC "-//W3C//DTD SVG 1.1//EN"
 "http://www.w3.org/Graphics/SVG/1.1/DTD/svg11.dtd">
<!-- Generated by graphviz version 2.50.0 (0)
 -->
<!-- Title: Graphical Class Hierarchy Pages: 1 -->
<svg width="943pt" height="1298pt"
 viewBox="0.00 0.00 943.00 1298.00" xmlns="http://www.w3.org/2000/svg" xmlns:xlink="http://www.w3.org/1999/xlink">
<g id="graph0" class="graph" transform="scale(1 1) rotate(0) translate(4 1294)">
<title>Graphical Class Hierarchy</title>
<polygon fill="white" stroke="transparent" points="-4,4 -4,-1294 939,-1294 939,4 -4,4"/>
<!-- Node0 -->
<g id="node1" class="node">
<title>Node0</title>
<g id="a_node1"><a xlink:href="a09650.html" target="_top" xlink:title="Base class that supports tracking of iterators that reference a sequence.">
<polygon fill="white" stroke="black" points="0,-928.5 0,-956.5 107,-956.5 107,-928.5 0,-928.5"/>
<text text-anchor="start" x="8" y="-945.3" font-family="Helvetica,sans-Serif" font-size="9.00">__gnu_debug::_Safe</text>
<text text-anchor="middle" x="53.5" y="-935.3" font-family="Helvetica,sans-Serif" font-size="9.00">_sequence_base</text>
</a>
</g>
</g>
<!-- Node1 -->
<g id="node2" class="node">
<title>Node1</title>
<g id="a_node2"><a xlink:href="a09550.html" target="_top" xlink:title=" ">
<polygon fill="white" stroke="black" points="143,-1108.5 143,-1136.5 298,-1136.5 298,-1108.5 143,-1108.5"/>
<text text-anchor="start" x="151" y="-1125.3" font-family="Helvetica,sans-Serif" font-size="9.00">__gnu_debug::_Safe</text>
<text text-anchor="middle" x="220.5" y="-1115.3" font-family="Helvetica,sans-Serif" font-size="9.00">_sequence&lt; _SafeSequence &gt;</text>
</a>
</g>
</g>
<!-- Node0&#45;&gt;Node1 -->
<g id="edge1" class="edge">
<title>Node0&#45;&gt;Node1</title>
<path fill="none" stroke="midnightblue" d="M74.61,-964.44C108.96,-1001.92 177.99,-1077.22 206.61,-1108.44"/>
<polygon fill="midnightblue" stroke="midnightblue" points="76.78,-961.63 67.45,-956.62 71.62,-966.36 76.78,-961.63"/>
</g>
<!-- Node5 -->
<g id="node6" class="node">
<title>Node5</title>
<g id="a_node6"><a xlink:href="a09550.html" target="_top" xlink:title="Base class for constructing a safe sequence type that tracks iterators that reference it.">
<polygon fill="white" stroke="black" points="153,-928.5 153,-956.5 288,-956.5 288,-928.5 153,-928.5"/>
<text text-anchor="start" x="161" y="-945.3" font-family="Helvetica,sans-Serif" font-size="9.00">__gnu_debug::_Safe</text>
<text text-anchor="middle" x="220.5" y="-935.3" font-family="Helvetica,sans-Serif" font-size="9.00">_sequence&lt; _Sequence &gt;</text>
</a>
</g>
</g>
<!-- Node0&#45;&gt;Node5 -->
<g id="edge5" class="edge">
<title>Node0&#45;&gt;Node5</title>
<path fill="none" stroke="midnightblue" d="M117.23,-942.5C128.87,-942.5 141.08,-942.5 152.84,-942.5"/>
<polygon fill="midnightblue" stroke="midnightblue" points="117.16,-939 107.16,-942.5 117.16,-946 117.16,-939"/>
</g>
<!-- Node23 -->
<g id="node24" class="node">
<title>Node23</title>
<g id="a_node24"><a xlink:href="a09702.html" target="_top" xlink:title="Base class that supports tracking of local iterators that reference an unordered container.">
<polygon fill="white" stroke="black" points="150,-621.5 150,-649.5 291,-649.5 291,-621.5 150,-621.5"/>
<text text-anchor="start" x="158" y="-638.3" font-family="Helvetica,sans-Serif" font-size="9.00">__gnu_debug::_Safe</text>
<text text-anchor="middle" x="220.5" y="-628.3" font-family="Helvetica,sans-Serif" font-size="9.00">_unordered_container_base</text>
</a>
</g>
</g>
<!-- Node0&#45;&gt;Node23 -->
<g id="edge23" class="edge">
<title>Node0&#45;&gt;Node23</title>
<path fill="none" stroke="midnightblue" d="M67.17,-918.93C99.8,-858.22 185.97,-697.88 211.97,-649.51"/>
<polygon fill="midnightblue" stroke="midnightblue" points="63.89,-917.64 62.24,-928.1 70.05,-920.95 63.89,-917.64"/>
</g>
<!-- Node2 -->
<g id="node3" class="node">
<title>Node2</title>
<g id="a_node3"><a xlink:href="a09750.html" target="_top" xlink:title="Special iterators swap and invalidation for forward_list because of the before_begin iterator.">
<polygon fill="white" stroke="black" points="338,-1241.5 338,-1269.5 501,-1269.5 501,-1241.5 338,-1241.5"/>
<text text-anchor="start" x="346" y="-1258.3" font-family="Helvetica,sans-Serif" font-size="9.00">__gnu_debug::_Safe</text>
<text text-anchor="middle" x="419.5" y="-1248.3" font-family="Helvetica,sans-Serif" font-size="9.00">_forward_list&lt; _SafeSequence &gt;</text>
</a>
</g>
</g>
<!-- Node1&#45;&gt;Node2 -->
<g id="edge2" class="edge">
<title>Node1&#45;&gt;Node2</title>
<path fill="none" stroke="midnightblue" d="M238.38,-1144.8C258.48,-1169.8 294.35,-1209.8 334,-1232.5 340.07,-1235.97 346.69,-1238.94 353.46,-1241.48"/>
<polygon fill="midnightblue" stroke="midnightblue" points="240.89,-1142.32 231.95,-1136.63 235.39,-1146.66 240.89,-1142.32"/>
</g>
<!-- Node3 -->
<g id="node4" class="node">
<title>Node3</title>
<g id="a_node4"><a xlink:href="a09654.html" target="_top" xlink:title=" ">
<polygon fill="white" stroke="black" points="565.5,-1221.5 565.5,-1289.5 715.5,-1289.5 715.5,-1221.5 565.5,-1221.5"/>
<text text-anchor="start" x="573.5" y="-1278.3" font-family="Helvetica,sans-Serif" font-size="9.00">__gnu_debug::_Safe</text>
<text text-anchor="start" x="573.5" y="-1268.3" font-family="Helvetica,sans-Serif" font-size="9.00">_container&lt; forward</text>
<text text-anchor="start" x="573.5" y="-1258.3" font-family="Helvetica,sans-Serif" font-size="9.00">_list&lt; _Tp, std::allocator</text>
<text text-anchor="start" x="573.5" y="-1248.3" font-family="Helvetica,sans-Serif" font-size="9.00">&lt; _Tp &gt; &gt;, std::allocator</text>
<text text-anchor="start" x="573.5" y="-1238.3" font-family="Helvetica,sans-Serif" font-size="9.00">&lt; _Tp &gt;, __gnu_debug::_Safe</text>
<text text-anchor="middle" x="640.5" y="-1228.3" font-family="Helvetica,sans-Serif" font-size="9.00">_forward_list &gt;</text>
</a>
</g>
</g>
<!-- Node2&#45;&gt;Node3 -->
<g id="edge3" class="edge">
<title>Node2&#45;&gt;Node3</title>
<path fill="none" stroke="midnightblue" d="M511.3,-1255.5C529.25,-1255.5 547.9,-1255.5 565.23,-1255.5"/>
<polygon fill="midnightblue" stroke="midnightblue" points="511.11,-1252 501.11,-1255.5 511.11,-1259 511.11,-1252"/>
</g>
<!-- Node4 -->
<g id="node5" class="node">
<title>Node4</title>
<g id="a_node5"><a xlink:href="a09746.html" target="_top" xlink:title="Class std::forward_list with safety/checking/debug instrumentation.">
<polygon fill="white" stroke="black" points="797.5,-1241.5 797.5,-1269.5 913.5,-1269.5 913.5,-1241.5 797.5,-1241.5"/>
<text text-anchor="start" x="805.5" y="-1258.3" font-family="Helvetica,sans-Serif" font-size="9.00">std::__debug::forward</text>
<text text-anchor="middle" x="855.5" y="-1248.3" font-family="Helvetica,sans-Serif" font-size="9.00">_list&lt; _Tp, _Alloc &gt;</text>
</a>
</g>
</g>
<!-- Node3&#45;&gt;Node4 -->
<g id="edge4" class="edge">
<title>Node3&#45;&gt;Node4</title>
<path fill="none" stroke="midnightblue" d="M725.86,-1255.5C749.84,-1255.5 775.39,-1255.5 797.34,-1255.5"/>
<polygon fill="midnightblue" stroke="midnightblue" points="725.7,-1252 715.7,-1255.5 725.7,-1259 725.7,-1252"/>
</g>
<!-- Node6 -->
<g id="node7" class="node">
<title>Node6</title>
<g id="a_node7"><a xlink:href="a09654.html" target="_top" xlink:title=" ">
<polygon fill="white" stroke="black" points="334,-1144.5 334,-1222.5 505,-1222.5 505,-1144.5 334,-1144.5"/>
<text text-anchor="start" x="342" y="-1211.3" font-family="Helvetica,sans-Serif" font-size="9.00">__gnu_debug::_Safe</text>
<text text-anchor="start" x="342" y="-1201.3" font-family="Helvetica,sans-Serif" font-size="9.00">_container&lt; basic_string</text>
<text text-anchor="start" x="342" y="-1191.3" font-family="Helvetica,sans-Serif" font-size="9.00">&lt; _CharT, std::char_traits</text>
<text text-anchor="start" x="342" y="-1181.3" font-family="Helvetica,sans-Serif" font-size="9.00">&lt; _CharT &gt;, std::allocator</text>
<text text-anchor="start" x="342" y="-1171.3" font-family="Helvetica,sans-Serif" font-size="9.00">&lt; _CharT &gt; &gt;, std::allocator</text>
<text text-anchor="start" x="342" y="-1161.3" font-family="Helvetica,sans-Serif" font-size="9.00">&lt; _CharT &gt;, _Safe_sequence, bool</text>
<text text-anchor="middle" x="419.5" y="-1151.3" font-family="Helvetica,sans-Serif" font-size="9.00">(_GLIBCXX_USE_CXX11_ABI)&gt;</text>
</a>
</g>
</g>
<!-- Node5&#45;&gt;Node6 -->
<g id="edge6" class="edge">
<title>Node5&#45;&gt;Node6</title>
<path fill="none" stroke="midnightblue" d="M230.42,-966.01C246.25,-1005.19 282.48,-1084.56 334,-1135.5 337.12,-1138.58 340.48,-1141.54 343.99,-1144.35"/>
<polygon fill="midnightblue" stroke="midnightblue" points="233.6,-964.53 226.67,-956.52 227.09,-967.11 233.6,-964.53"/>
</g>
<!-- Node8 -->
<g id="node9" class="node">
<title>Node8</title>
<g id="a_node9"><a xlink:href="a09654.html" target="_top" xlink:title=" ">
<polygon fill="white" stroke="black" points="344.5,-990.5 344.5,-1058.5 494.5,-1058.5 494.5,-990.5 344.5,-990.5"/>
<text text-anchor="start" x="352.5" y="-1047.3" font-family="Helvetica,sans-Serif" font-size="9.00">__gnu_debug::_Safe</text>
<text text-anchor="start" x="352.5" y="-1037.3" font-family="Helvetica,sans-Serif" font-size="9.00">_container&lt; vector&lt;</text>
<text text-anchor="start" x="352.5" y="-1027.3" font-family="Helvetica,sans-Serif" font-size="9.00"> _Tp, std::allocator</text>
<text text-anchor="start" x="352.5" y="-1017.3" font-family="Helvetica,sans-Serif" font-size="9.00">&lt; _Tp &gt; &gt;, std::allocator</text>
<text text-anchor="start" x="352.5" y="-1007.3" font-family="Helvetica,sans-Serif" font-size="9.00">&lt; _Tp &gt;, __gnu_debug::_Safe</text>
<text text-anchor="middle" x="419.5" y="-997.3" font-family="Helvetica,sans-Serif" font-size="9.00">_sequence &gt;</text>
</a>
</g>
</g>
<!-- Node5&#45;&gt;Node8 -->
<g id="edge8" class="edge">
<title>Node5&#45;&gt;Node8</title>
<path fill="none" stroke="midnightblue" d="M264.63,-960.45C287.95,-970.16 317.4,-982.42 344.28,-993.61"/>
<polygon fill="midnightblue" stroke="midnightblue" points="265.94,-957.21 255.37,-956.6 263.25,-963.67 265.94,-957.21"/>
</g>
<!-- Node10 -->
<g id="node11" class="node">
<title>Node10</title>
<g id="a_node11"><a xlink:href="a09654.html" target="_top" xlink:title=" ">
<polygon fill="white" stroke="black" points="344.5,-826.5 344.5,-894.5 494.5,-894.5 494.5,-826.5 344.5,-826.5"/>
<text text-anchor="start" x="352.5" y="-883.3" font-family="Helvetica,sans-Serif" font-size="9.00">__gnu_debug::_Safe</text>
<text text-anchor="start" x="352.5" y="-873.3" font-family="Helvetica,sans-Serif" font-size="9.00">_container&lt; deque&lt; </text>
<text text-anchor="start" x="352.5" y="-863.3" font-family="Helvetica,sans-Serif" font-size="9.00">_Tp, std::allocator&lt;</text>
<text text-anchor="start" x="352.5" y="-853.3" font-family="Helvetica,sans-Serif" font-size="9.00"> _Tp &gt; &gt;, std::allocator</text>
<text text-anchor="start" x="352.5" y="-843.3" font-family="Helvetica,sans-Serif" font-size="9.00">&lt; _Tp &gt;, __gnu_debug::_Safe</text>
<text text-anchor="middle" x="419.5" y="-833.3" font-family="Helvetica,sans-Serif" font-size="9.00">_sequence &gt;</text>
</a>
</g>
</g>
<!-- Node5&#45;&gt;Node10 -->
<g id="edge10" class="edge">
<title>Node5&#45;&gt;Node10</title>
<path fill="none" stroke="midnightblue" d="M264.63,-924.55C287.95,-914.84 317.4,-902.58 344.28,-891.39"/>
<polygon fill="midnightblue" stroke="midnightblue" points="263.25,-921.33 255.37,-928.4 265.94,-927.79 263.25,-921.33"/>
</g>
<!-- Node12 -->
<g id="node13" class="node">
<title>Node12</title>
<g id="a_node13"><a xlink:href="a09694.html" target="_top" xlink:title="Like _Safe_sequence but with a special _M_invalidate_all implementation not invalidating past&#45;the&#45;end...">
<polygon fill="white" stroke="black" points="338.5,-731.5 338.5,-759.5 500.5,-759.5 500.5,-731.5 338.5,-731.5"/>
<text text-anchor="start" x="346.5" y="-748.3" font-family="Helvetica,sans-Serif" font-size="9.00">__gnu_debug::_Safe</text>
<text text-anchor="middle" x="419.5" y="-738.3" font-family="Helvetica,sans-Serif" font-size="9.00">_node_sequence&lt; _Sequence &gt;</text>
</a>
</g>
</g>
<!-- Node5&#45;&gt;Node12 -->
<g id="edge12" class="edge">
<title>Node5&#45;&gt;Node12</title>
<path fill="none" stroke="midnightblue" d="M239.78,-920.47C261.38,-894.86 298.85,-851.71 334,-817.5 355.82,-796.26 382.9,-773.81 400.43,-759.74"/>
<polygon fill="midnightblue" stroke="midnightblue" points="236.83,-918.54 233.09,-928.45 242.19,-923.04 236.83,-918.54"/>
</g>
<!-- Node7 -->
<g id="node8" class="node">
<title>Node7</title>
<g id="a_node8"><a xlink:href="a09786.html" target="_top" xlink:title="Class std::basic_string with safety/checking/debug instrumentation.">
<polygon fill="white" stroke="black" points="578,-1123.5 578,-1161.5 703,-1161.5 703,-1123.5 578,-1123.5"/>
<text text-anchor="start" x="586" y="-1150.3" font-family="Helvetica,sans-Serif" font-size="9.00">__gnu_debug::basic</text>
<text text-anchor="start" x="586" y="-1140.3" font-family="Helvetica,sans-Serif" font-size="9.00">_string&lt; _CharT, _Traits,</text>
<text text-anchor="middle" x="640.5" y="-1130.3" font-family="Helvetica,sans-Serif" font-size="9.00"> _Allocator &gt;</text>
</a>
</g>
</g>
<!-- Node6&#45;&gt;Node7 -->
<g id="edge7" class="edge">
<title>Node6&#45;&gt;Node7</title>
<path fill="none" stroke="midnightblue" d="M515.18,-1165.78C536.38,-1161.8 558.35,-1157.69 577.8,-1154.05"/>
<polygon fill="midnightblue" stroke="midnightblue" points="514.36,-1162.37 505.17,-1167.65 515.64,-1169.25 514.36,-1162.37"/>
</g>
<!-- Node9 -->
<g id="node10" class="node">
<title>Node9</title>
<g id="a_node10"><a xlink:href="a09834.html" target="_top" xlink:title="Class std::vector with safety/checking/debug instrumentation.">
<polygon fill="white" stroke="black" points="585.5,-1010.5 585.5,-1038.5 695.5,-1038.5 695.5,-1010.5 585.5,-1010.5"/>
<text text-anchor="start" x="593.5" y="-1027.3" font-family="Helvetica,sans-Serif" font-size="9.00">std::__debug::vector</text>
<text text-anchor="middle" x="640.5" y="-1017.3" font-family="Helvetica,sans-Serif" font-size="9.00">&lt; _Tp, _Allocator &gt;</text>
</a>
</g>
</g>
<!-- Node8&#45;&gt;Node9 -->
<g id="edge9" class="edge">
<title>Node8&#45;&gt;Node9</title>
<path fill="none" stroke="midnightblue" d="M504.86,-1024.5C531.82,-1024.5 560.93,-1024.5 585.16,-1024.5"/>
<polygon fill="midnightblue" stroke="midnightblue" points="504.64,-1021 494.64,-1024.5 504.64,-1028 504.64,-1021"/>
</g>
<!-- Node11 -->
<g id="node12" class="node">
<title>Node11</title>
<g id="a_node12"><a xlink:href="a09738.html" target="_top" xlink:title="Class std::deque with safety/checking/debug instrumentation.">
<polygon fill="white" stroke="black" points="585.5,-963.5 585.5,-991.5 695.5,-991.5 695.5,-963.5 585.5,-963.5"/>
<text text-anchor="start" x="593.5" y="-980.3" font-family="Helvetica,sans-Serif" font-size="9.00">std::__debug::deque</text>
<text text-anchor="middle" x="640.5" y="-970.3" font-family="Helvetica,sans-Serif" font-size="9.00">&lt; _Tp, _Allocator &gt;</text>
</a>
</g>
</g>
<!-- Node10&#45;&gt;Node11 -->
<g id="edge11" class="edge">
<title>Node10&#45;&gt;Node11</title>
<path fill="none" stroke="midnightblue" d="M500.37,-900.68C501.95,-901.93 503.5,-903.2 505,-904.5 525.7,-922.42 518.22,-939.31 541,-954.5 554.08,-963.22 570.05,-968.65 585.29,-972.03"/>
<polygon fill="midnightblue" stroke="midnightblue" points="502.31,-897.76 492.18,-894.65 498.16,-903.4 502.31,-897.76"/>
</g>
<!-- Node13 -->
<g id="node14" class="node">
<title>Node13</title>
<g id="a_node14"><a xlink:href="a09654.html" target="_top" xlink:title=" ">
<polygon fill="white" stroke="black" points="565,-866.5 565,-944.5 716,-944.5 716,-866.5 565,-866.5"/>
<text text-anchor="start" x="573" y="-933.3" font-family="Helvetica,sans-Serif" font-size="9.00">__gnu_debug::_Safe</text>
<text text-anchor="start" x="573" y="-923.3" font-family="Helvetica,sans-Serif" font-size="9.00">_container&lt; multiset</text>
<text text-anchor="start" x="573" y="-913.3" font-family="Helvetica,sans-Serif" font-size="9.00">&lt; _Key, std::less&lt; _Key</text>
<text text-anchor="start" x="573" y="-903.3" font-family="Helvetica,sans-Serif" font-size="9.00"> &gt;, std::allocator&lt; _Key</text>
<text text-anchor="start" x="573" y="-893.3" font-family="Helvetica,sans-Serif" font-size="9.00"> &gt; &gt;, std::allocator&lt; _Key</text>
<text text-anchor="start" x="573" y="-883.3" font-family="Helvetica,sans-Serif" font-size="9.00"> &gt;, __gnu_debug::_Safe_node</text>
<text text-anchor="middle" x="640.5" y="-873.3" font-family="Helvetica,sans-Serif" font-size="9.00">_sequence &gt;</text>
</a>
</g>
</g>
<!-- Node12&#45;&gt;Node13 -->
<g id="edge13" class="edge">
<title>Node12&#45;&gt;Node13</title>
<path fill="none" stroke="midnightblue" d="M446.49,-766.15C463.61,-780.1 486.25,-799.25 505,-817.5 522.14,-834.18 521.9,-843.11 541,-857.5 548.37,-863.05 556.48,-868.22 564.79,-872.96"/>
<polygon fill="midnightblue" stroke="midnightblue" points="448.55,-763.31 438.57,-759.74 444.15,-768.75 448.55,-763.31"/>
</g>
<!-- Node15 -->
<g id="node16" class="node">
<title>Node15</title>
<g id="a_node16"><a xlink:href="a09654.html" target="_top" xlink:title=" ">
<polygon fill="white" stroke="black" points="560,-749.5 560,-847.5 721,-847.5 721,-749.5 560,-749.5"/>
<text text-anchor="start" x="568" y="-836.3" font-family="Helvetica,sans-Serif" font-size="9.00">__gnu_debug::_Safe</text>
<text text-anchor="start" x="568" y="-826.3" font-family="Helvetica,sans-Serif" font-size="9.00">_container&lt; multimap</text>
<text text-anchor="start" x="568" y="-816.3" font-family="Helvetica,sans-Serif" font-size="9.00">&lt; _Key, _Tp, std::less</text>
<text text-anchor="start" x="568" y="-806.3" font-family="Helvetica,sans-Serif" font-size="9.00">&lt; _Key &gt;, std::allocator</text>
<text text-anchor="start" x="568" y="-796.3" font-family="Helvetica,sans-Serif" font-size="9.00">&lt; std::pair&lt; const _Key,</text>
<text text-anchor="start" x="568" y="-786.3" font-family="Helvetica,sans-Serif" font-size="9.00"> _Tp &gt; &gt; &gt;, std::allocator</text>
<text text-anchor="start" x="568" y="-776.3" font-family="Helvetica,sans-Serif" font-size="9.00">&lt; std::pair&lt; const _Key, _Tp</text>
<text text-anchor="start" x="568" y="-766.3" font-family="Helvetica,sans-Serif" font-size="9.00"> &gt; &gt;, __gnu_debug::_Safe_node</text>
<text text-anchor="middle" x="640.5" y="-756.3" font-family="Helvetica,sans-Serif" font-size="9.00">_sequence &gt;</text>
</a>
</g>
</g>
<!-- Node12&#45;&gt;Node15 -->
<g id="edge15" class="edge">
<title>Node12&#45;&gt;Node15</title>
<path fill="none" stroke="midnightblue" d="M488.43,-761.94C510.99,-767.4 536.31,-773.53 559.68,-779.18"/>
<polygon fill="midnightblue" stroke="midnightblue" points="489.16,-758.51 478.61,-759.56 487.51,-765.32 489.16,-758.51"/>
</g>
<!-- Node17 -->
<g id="node18" class="node">
<title>Node17</title>
<g id="a_node18"><a xlink:href="a09654.html" target="_top" xlink:title=" ">
<polygon fill="white" stroke="black" points="565,-662.5 565,-730.5 716,-730.5 716,-662.5 565,-662.5"/>
<text text-anchor="start" x="573" y="-719.3" font-family="Helvetica,sans-Serif" font-size="9.00">__gnu_debug::_Safe</text>
<text text-anchor="start" x="573" y="-709.3" font-family="Helvetica,sans-Serif" font-size="9.00">_container&lt; list&lt; _Tp,</text>
<text text-anchor="start" x="573" y="-699.3" font-family="Helvetica,sans-Serif" font-size="9.00"> std::allocator&lt; _Tp &gt;</text>
<text text-anchor="start" x="573" y="-689.3" font-family="Helvetica,sans-Serif" font-size="9.00"> &gt;, std::allocator&lt; _Tp</text>
<text text-anchor="start" x="573" y="-679.3" font-family="Helvetica,sans-Serif" font-size="9.00"> &gt;, __gnu_debug::_Safe_node</text>
<text text-anchor="middle" x="640.5" y="-669.3" font-family="Helvetica,sans-Serif" font-size="9.00">_sequence &gt;</text>
</a>
</g>
</g>
<!-- Node12&#45;&gt;Node17 -->
<g id="edge17" class="edge">
<title>Node12&#45;&gt;Node17</title>
<path fill="none" stroke="midnightblue" d="M493.27,-729.22C516.23,-724.08 541.62,-718.4 564.71,-713.23"/>
<polygon fill="midnightblue" stroke="midnightblue" points="492.25,-725.86 483.26,-731.46 493.78,-732.69 492.25,-725.86"/>
</g>
<!-- Node19 -->
<g id="node20" class="node">
<title>Node19</title>
<g id="a_node20"><a xlink:href="a09654.html" target="_top" xlink:title=" ">
<polygon fill="white" stroke="black" points="541,-555.5 541,-643.5 740,-643.5 740,-555.5 541,-555.5"/>
<text text-anchor="start" x="549" y="-632.3" font-family="Helvetica,sans-Serif" font-size="9.00">__gnu_debug::_Safe</text>
<text text-anchor="start" x="549" y="-622.3" font-family="Helvetica,sans-Serif" font-size="9.00">_container&lt; map&lt; _Key,</text>
<text text-anchor="start" x="549" y="-612.3" font-family="Helvetica,sans-Serif" font-size="9.00"> _Tp, std::less&lt; _Key</text>
<text text-anchor="start" x="549" y="-602.3" font-family="Helvetica,sans-Serif" font-size="9.00"> &gt;, std::allocator&lt; std</text>
<text text-anchor="start" x="549" y="-592.3" font-family="Helvetica,sans-Serif" font-size="9.00">::pair&lt; const _Key, _Tp</text>
<text text-anchor="start" x="549" y="-582.3" font-family="Helvetica,sans-Serif" font-size="9.00"> &gt; &gt; &gt;, std::allocator&lt; std</text>
<text text-anchor="start" x="549" y="-572.3" font-family="Helvetica,sans-Serif" font-size="9.00">::pair&lt; const _Key, _Tp &gt; &gt;</text>
<text text-anchor="middle" x="640.5" y="-562.3" font-family="Helvetica,sans-Serif" font-size="9.00">, __gnu_debug::_Safe_node_sequence &gt;</text>
</a>
</g>
</g>
<!-- Node12&#45;&gt;Node19 -->
<g id="edge19" class="edge">
<title>Node12&#45;&gt;Node19</title>
<path fill="none" stroke="midnightblue" d="M445.29,-724.81C469.11,-705.36 506.46,-675.97 541,-653.5 546.15,-650.15 551.52,-646.81 556.99,-643.52"/>
<polygon fill="midnightblue" stroke="midnightblue" points="442.96,-722.19 437.46,-731.24 447.41,-727.6 442.96,-722.19"/>
</g>
<!-- Node21 -->
<g id="node22" class="node">
<title>Node21</title>
<g id="a_node22"><a xlink:href="a09654.html" target="_top" xlink:title=" ">
<polygon fill="white" stroke="black" points="557.5,-468.5 557.5,-536.5 723.5,-536.5 723.5,-468.5 557.5,-468.5"/>
<text text-anchor="start" x="565.5" y="-525.3" font-family="Helvetica,sans-Serif" font-size="9.00">__gnu_debug::_Safe</text>
<text text-anchor="start" x="565.5" y="-515.3" font-family="Helvetica,sans-Serif" font-size="9.00">_container&lt; set&lt; _Key,</text>
<text text-anchor="start" x="565.5" y="-505.3" font-family="Helvetica,sans-Serif" font-size="9.00"> std::less&lt; _Key &gt;, std</text>
<text text-anchor="start" x="565.5" y="-495.3" font-family="Helvetica,sans-Serif" font-size="9.00">::allocator&lt; _Key &gt; &gt;, std</text>
<text text-anchor="start" x="565.5" y="-485.3" font-family="Helvetica,sans-Serif" font-size="9.00">::allocator&lt; _Key &gt;, __gnu</text>
<text text-anchor="middle" x="640.5" y="-475.3" font-family="Helvetica,sans-Serif" font-size="9.00">_debug::_Safe_node_sequence &gt;</text>
</a>
</g>
</g>
<!-- Node12&#45;&gt;Node21 -->
<g id="edge21" class="edge">
<title>Node12&#45;&gt;Node21</title>
<path fill="none" stroke="midnightblue" d="M429.19,-722.11C445.37,-681.4 483.78,-597.01 541,-546.5 546.05,-542.04 551.64,-537.96 557.5,-534.25"/>
<polygon fill="midnightblue" stroke="midnightblue" points="425.91,-720.89 425.55,-731.48 432.43,-723.42 425.91,-720.89"/>
</g>
<!-- Node14 -->
<g id="node15" class="node">
<title>Node14</title>
<g id="a_node15"><a xlink:href="a09638.html" target="_top" xlink:title="Class std::multiset with safety/checking/debug instrumentation.">
<polygon fill="white" stroke="black" points="776,-891.5 776,-919.5 935,-919.5 935,-891.5 776,-891.5"/>
<text text-anchor="start" x="784" y="-908.3" font-family="Helvetica,sans-Serif" font-size="9.00">std::__debug::multiset</text>
<text text-anchor="middle" x="855.5" y="-898.3" font-family="Helvetica,sans-Serif" font-size="9.00">&lt; _Key, _Compare, _Allocator &gt;</text>
</a>
</g>
</g>
<!-- Node13&#45;&gt;Node14 -->
<g id="edge14" class="edge">
<title>Node13&#45;&gt;Node14</title>
<path fill="none" stroke="midnightblue" d="M726.37,-905.5C742.72,-905.5 759.77,-905.5 775.91,-905.5"/>
<polygon fill="midnightblue" stroke="midnightblue" points="726.3,-902 716.3,-905.5 726.3,-909 726.3,-902"/>
</g>
<!-- Node16 -->
<g id="node17" class="node">
<title>Node16</title>
<g id="a_node17"><a xlink:href="a09630.html" target="_top" xlink:title="Class std::multimap with safety/checking/debug instrumentation.">
<polygon fill="white" stroke="black" points="793,-779.5 793,-817.5 918,-817.5 918,-779.5 793,-779.5"/>
<text text-anchor="start" x="801" y="-806.3" font-family="Helvetica,sans-Serif" font-size="9.00">std::__debug::multimap</text>
<text text-anchor="start" x="801" y="-796.3" font-family="Helvetica,sans-Serif" font-size="9.00">&lt; _Key, _Tp, _Compare,</text>
<text text-anchor="middle" x="855.5" y="-786.3" font-family="Helvetica,sans-Serif" font-size="9.00"> _Allocator &gt;</text>
</a>
</g>
</g>
<!-- Node15&#45;&gt;Node16 -->
<g id="edge16" class="edge">
<title>Node15&#45;&gt;Node16</title>
<path fill="none" stroke="midnightblue" d="M731.23,-798.5C752.02,-798.5 773.68,-798.5 792.94,-798.5"/>
<polygon fill="midnightblue" stroke="midnightblue" points="731.12,-795 721.12,-798.5 731.12,-802 731.12,-795"/>
</g>
<!-- Node18 -->
<g id="node19" class="node">
<title>Node18</title>
<g id="a_node19"><a xlink:href="a09770.html" target="_top" xlink:title="Class std::list with safety/checking/debug instrumentation.">
<polygon fill="white" stroke="black" points="804,-682.5 804,-710.5 907,-710.5 907,-682.5 804,-682.5"/>
<text text-anchor="start" x="812" y="-699.3" font-family="Helvetica,sans-Serif" font-size="9.00">std::__debug::list</text>
<text text-anchor="middle" x="855.5" y="-689.3" font-family="Helvetica,sans-Serif" font-size="9.00">&lt; _Tp, _Allocator &gt;</text>
</a>
</g>
</g>
<!-- Node17&#45;&gt;Node18 -->
<g id="edge18" class="edge">
<title>Node17&#45;&gt;Node18</title>
<path fill="none" stroke="midnightblue" d="M726.62,-696.5C752.83,-696.5 780.83,-696.5 803.94,-696.5"/>
<polygon fill="midnightblue" stroke="midnightblue" points="726.3,-693 716.3,-696.5 726.3,-700 726.3,-693"/>
</g>
<!-- Node20 -->
<g id="node21" class="node">
<title>Node20</title>
<g id="a_node21"><a xlink:href="a09622.html" target="_top" xlink:title="Class std::map with safety/checking/debug instrumentation.">
<polygon fill="white" stroke="black" points="797.5,-580.5 797.5,-618.5 913.5,-618.5 913.5,-580.5 797.5,-580.5"/>
<text text-anchor="start" x="805.5" y="-607.3" font-family="Helvetica,sans-Serif" font-size="9.00">std::__debug::map&lt;</text>
<text text-anchor="start" x="805.5" y="-597.3" font-family="Helvetica,sans-Serif" font-size="9.00"> _Key, _Tp, _Compare,</text>
<text text-anchor="middle" x="855.5" y="-587.3" font-family="Helvetica,sans-Serif" font-size="9.00"> _Allocator &gt;</text>
</a>
</g>
</g>
<!-- Node19&#45;&gt;Node20 -->
<g id="edge20" class="edge">
<title>Node19&#45;&gt;Node20</title>
<path fill="none" stroke="midnightblue" d="M750.32,-599.5C766.58,-599.5 782.76,-599.5 797.36,-599.5"/>
<polygon fill="midnightblue" stroke="midnightblue" points="750.21,-596 740.21,-599.5 750.21,-603 750.21,-596"/>
</g>
<!-- Node22 -->
<g id="node23" class="node">
<title>Node22</title>
<g id="a_node23"><a xlink:href="a09722.html" target="_top" xlink:title="Class std::set with safety/checking/debug instrumentation.">
<polygon fill="white" stroke="black" points="779.5,-488.5 779.5,-516.5 931.5,-516.5 931.5,-488.5 779.5,-488.5"/>
<text text-anchor="start" x="787.5" y="-505.3" font-family="Helvetica,sans-Serif" font-size="9.00">std::__debug::set&lt;</text>
<text text-anchor="middle" x="855.5" y="-495.3" font-family="Helvetica,sans-Serif" font-size="9.00"> _Key, _Compare, _Allocator &gt;</text>
</a>
</g>
</g>
<!-- Node21&#45;&gt;Node22 -->
<g id="edge22" class="edge">
<title>Node21&#45;&gt;Node22</title>
<path fill="none" stroke="midnightblue" d="M733.55,-502.5C748.89,-502.5 764.63,-502.5 779.47,-502.5"/>
<polygon fill="midnightblue" stroke="midnightblue" points="733.55,-499 723.55,-502.5 733.55,-506 733.55,-499"/>
</g>
<!-- Node24 -->
<g id="node25" class="node">
<title>Node24</title>
<g id="a_node25"><a xlink:href="a09706.html" target="_top" xlink:title="Base class for constructing a safe unordered container type that tracks iterators that reference it.">
<polygon fill="white" stroke="black" points="361.5,-274.5 361.5,-312.5 477.5,-312.5 477.5,-274.5 361.5,-274.5"/>
<text text-anchor="start" x="369.5" y="-301.3" font-family="Helvetica,sans-Serif" font-size="9.00">__gnu_debug::_Safe</text>
<text text-anchor="start" x="369.5" y="-291.3" font-family="Helvetica,sans-Serif" font-size="9.00">_unordered_container</text>
<text text-anchor="middle" x="419.5" y="-281.3" font-family="Helvetica,sans-Serif" font-size="9.00">&lt; _Container &gt;</text>
</a>
</g>
</g>
<!-- Node23&#45;&gt;Node24 -->
<g id="edge24" class="edge">
<title>Node23&#45;&gt;Node24</title>
<path fill="none" stroke="midnightblue" d="M234.83,-612.35C271.54,-548.63 373.6,-371.45 407.44,-312.7"/>
<polygon fill="midnightblue" stroke="midnightblue" points="231.67,-610.83 229.71,-621.24 237.74,-614.32 231.67,-610.83"/>
</g>
<!-- Node25 -->
<g id="node26" class="node">
<title>Node25</title>
<g id="a_node26"><a xlink:href="a09654.html" target="_top" xlink:title=" ">
<polygon fill="white" stroke="black" points="558.5,-361.5 558.5,-449.5 722.5,-449.5 722.5,-361.5 558.5,-361.5"/>
<text text-anchor="start" x="566.5" y="-438.3" font-family="Helvetica,sans-Serif" font-size="9.00">__gnu_debug::_Safe</text>
<text text-anchor="start" x="566.5" y="-428.3" font-family="Helvetica,sans-Serif" font-size="9.00">_container&lt; unordered</text>
<text text-anchor="start" x="566.5" y="-418.3" font-family="Helvetica,sans-Serif" font-size="9.00">_set&lt; _Value, std::hash</text>
<text text-anchor="start" x="566.5" y="-408.3" font-family="Helvetica,sans-Serif" font-size="9.00">&lt; _Value &gt;, std::equal_to</text>
<text text-anchor="start" x="566.5" y="-398.3" font-family="Helvetica,sans-Serif" font-size="9.00">&lt; _Value &gt;, std::allocator</text>
<text text-anchor="start" x="566.5" y="-388.3" font-family="Helvetica,sans-Serif" font-size="9.00">&lt; _Value &gt; &gt;, std::allocator</text>
<text text-anchor="start" x="566.5" y="-378.3" font-family="Helvetica,sans-Serif" font-size="9.00">&lt; _Value &gt;, __gnu_debug::_Safe</text>
<text text-anchor="middle" x="640.5" y="-368.3" font-family="Helvetica,sans-Serif" font-size="9.00">_unordered_container &gt;</text>
</a>
</g>
</g>
<!-- Node24&#45;&gt;Node25 -->
<g id="edge25" class="edge">
<title>Node24&#45;&gt;Node25</title>
<path fill="none" stroke="midnightblue" d="M467.2,-317.38C493.71,-330.94 527.64,-348.29 558.37,-364.01"/>
<polygon fill="midnightblue" stroke="midnightblue" points="468.64,-314.19 458.15,-312.75 465.46,-320.42 468.64,-314.19"/>
</g>
<!-- Node27 -->
<g id="node28" class="node">
<title>Node27</title>
<g id="a_node28"><a xlink:href="a09654.html" target="_top" xlink:title=" ">
<polygon fill="white" stroke="black" points="559.5,-244.5 559.5,-342.5 721.5,-342.5 721.5,-244.5 559.5,-244.5"/>
<text text-anchor="start" x="567.5" y="-331.3" font-family="Helvetica,sans-Serif" font-size="9.00">__gnu_debug::_Safe</text>
<text text-anchor="start" x="567.5" y="-321.3" font-family="Helvetica,sans-Serif" font-size="9.00">_container&lt; unordered</text>
<text text-anchor="start" x="567.5" y="-311.3" font-family="Helvetica,sans-Serif" font-size="9.00">_multiset&lt; _Value, std</text>
<text text-anchor="start" x="567.5" y="-301.3" font-family="Helvetica,sans-Serif" font-size="9.00">::hash&lt; _Value &gt;, std::</text>
<text text-anchor="start" x="567.5" y="-291.3" font-family="Helvetica,sans-Serif" font-size="9.00">equal_to&lt; _Value &gt;, std</text>
<text text-anchor="start" x="567.5" y="-281.3" font-family="Helvetica,sans-Serif" font-size="9.00">::allocator&lt; _Value &gt; &gt;,</text>
<text text-anchor="start" x="567.5" y="-271.3" font-family="Helvetica,sans-Serif" font-size="9.00"> std::allocator&lt; _Value &gt;,</text>
<text text-anchor="start" x="567.5" y="-261.3" font-family="Helvetica,sans-Serif" font-size="9.00"> __gnu_debug::_Safe_unordered</text>
<text text-anchor="middle" x="640.5" y="-251.3" font-family="Helvetica,sans-Serif" font-size="9.00">_container &gt;</text>
</a>
</g>
</g>
<!-- Node24&#45;&gt;Node27 -->
<g id="edge27" class="edge">
<title>Node24&#45;&gt;Node27</title>
<path fill="none" stroke="midnightblue" d="M487.88,-293.5C510.39,-293.5 535.7,-293.5 559.1,-293.5"/>
<polygon fill="midnightblue" stroke="midnightblue" points="487.75,-290 477.75,-293.5 487.75,-297 487.75,-290"/>
</g>
<!-- Node29 -->
<g id="node30" class="node">
<title>Node29</title>
<g id="a_node30"><a xlink:href="a09654.html" target="_top" xlink:title=" ">
<polygon fill="white" stroke="black" points="552.5,-117.5 552.5,-225.5 728.5,-225.5 728.5,-117.5 552.5,-117.5"/>
<text text-anchor="start" x="560.5" y="-214.3" font-family="Helvetica,sans-Serif" font-size="9.00">__gnu_debug::_Safe</text>
<text text-anchor="start" x="560.5" y="-204.3" font-family="Helvetica,sans-Serif" font-size="9.00">_container&lt; unordered</text>
<text text-anchor="start" x="560.5" y="-194.3" font-family="Helvetica,sans-Serif" font-size="9.00">_multimap&lt; _Key, _Tp,</text>
<text text-anchor="start" x="560.5" y="-184.3" font-family="Helvetica,sans-Serif" font-size="9.00"> std::hash&lt; _Key &gt;, std</text>
<text text-anchor="start" x="560.5" y="-174.3" font-family="Helvetica,sans-Serif" font-size="9.00">::equal_to&lt; _Key &gt;, std</text>
<text text-anchor="start" x="560.5" y="-164.3" font-family="Helvetica,sans-Serif" font-size="9.00">::allocator&lt; std::pair&lt; const</text>
<text text-anchor="start" x="560.5" y="-154.3" font-family="Helvetica,sans-Serif" font-size="9.00"> _Key, _Tp &gt; &gt; &gt;, std::allocator</text>
<text text-anchor="start" x="560.5" y="-144.3" font-family="Helvetica,sans-Serif" font-size="9.00">&lt; std::pair&lt; const _Key, _Tp &gt;</text>
<text text-anchor="start" x="560.5" y="-134.3" font-family="Helvetica,sans-Serif" font-size="9.00"> &gt;, __gnu_debug::_Safe_unordered</text>
<text text-anchor="middle" x="640.5" y="-124.3" font-family="Helvetica,sans-Serif" font-size="9.00">_container &gt;</text>
</a>
</g>
</g>
<!-- Node24&#45;&gt;Node29 -->
<g id="edge29" class="edge">
<title>Node24&#45;&gt;Node29</title>
<path fill="none" stroke="midnightblue" d="M463.66,-269.45C488.92,-255.39 521.73,-237.11 552.16,-220.16"/>
<polygon fill="midnightblue" stroke="midnightblue" points="461.75,-266.51 454.72,-274.44 465.16,-272.63 461.75,-266.51"/>
</g>
<!-- Node31 -->
<g id="node32" class="node">
<title>Node31</title>
<g id="a_node32"><a xlink:href="a09654.html" target="_top" xlink:title=" ">
<polygon fill="white" stroke="black" points="545.5,-0.5 545.5,-98.5 735.5,-98.5 735.5,-0.5 545.5,-0.5"/>
<text text-anchor="start" x="553.5" y="-87.3" font-family="Helvetica,sans-Serif" font-size="9.00">__gnu_debug::_Safe</text>
<text text-anchor="start" x="553.5" y="-77.3" font-family="Helvetica,sans-Serif" font-size="9.00">_container&lt; unordered</text>
<text text-anchor="start" x="553.5" y="-67.3" font-family="Helvetica,sans-Serif" font-size="9.00">_map&lt; _Key, _Tp, std::</text>
<text text-anchor="start" x="553.5" y="-57.3" font-family="Helvetica,sans-Serif" font-size="9.00">hash&lt; _Key &gt;, std::equal</text>
<text text-anchor="start" x="553.5" y="-47.3" font-family="Helvetica,sans-Serif" font-size="9.00">_to&lt; _Key &gt;, std::allocator</text>
<text text-anchor="start" x="553.5" y="-37.3" font-family="Helvetica,sans-Serif" font-size="9.00">&lt; std::pair&lt; const _Key, _Tp</text>
<text text-anchor="start" x="553.5" y="-27.3" font-family="Helvetica,sans-Serif" font-size="9.00"> &gt; &gt; &gt;, std::allocator&lt; std::</text>
<text text-anchor="start" x="553.5" y="-17.3" font-family="Helvetica,sans-Serif" font-size="9.00">pair&lt; const _Key, _Tp &gt; &gt;, __gnu</text>
<text text-anchor="middle" x="640.5" y="-7.3" font-family="Helvetica,sans-Serif" font-size="9.00">_debug::_Safe_unordered_container &gt;</text>
</a>
</g>
</g>
<!-- Node24&#45;&gt;Node31 -->
<g id="edge31" class="edge">
<title>Node24&#45;&gt;Node31</title>
<path fill="none" stroke="midnightblue" d="M433.73,-265.27C453.03,-226.35 492,-155.68 541,-108.5 544.45,-105.18 548.11,-101.97 551.93,-98.87"/>
<polygon fill="midnightblue" stroke="midnightblue" points="430.49,-263.92 429.25,-274.45 436.78,-266.99 430.49,-263.92"/>
</g>
<!-- Node26 -->
<g id="node27" class="node">
<title>Node26</title>
<g id="a_node27"><a xlink:href="a09818.html" target="_top" xlink:title="Class std::unordered_set with safety/checking/debug instrumentation.">
<polygon fill="white" stroke="black" points="791.5,-386.5 791.5,-424.5 919.5,-424.5 919.5,-386.5 791.5,-386.5"/>
<text text-anchor="start" x="799.5" y="-413.3" font-family="Helvetica,sans-Serif" font-size="9.00">std::__debug::unordered</text>
<text text-anchor="start" x="799.5" y="-403.3" font-family="Helvetica,sans-Serif" font-size="9.00">_set&lt; _Value, _Hash, </text>
<text text-anchor="middle" x="855.5" y="-393.3" font-family="Helvetica,sans-Serif" font-size="9.00">_Pred, _Alloc &gt;</text>
</a>
</g>
</g>
<!-- Node25&#45;&gt;Node26 -->
<g id="edge26" class="edge">
<title>Node25&#45;&gt;Node26</title>
<path fill="none" stroke="midnightblue" d="M732.88,-405.5C752.64,-405.5 773.1,-405.5 791.48,-405.5"/>
<polygon fill="midnightblue" stroke="midnightblue" points="732.63,-402 722.63,-405.5 732.63,-409 732.63,-402"/>
</g>
<!-- Node28 -->
<g id="node29" class="node">
<title>Node28</title>
<g id="a_node29"><a xlink:href="a09822.html" target="_top" xlink:title="Class std::unordered_multiset with safety/checking/debug instrumentation.">
<polygon fill="white" stroke="black" points="788.5,-274.5 788.5,-312.5 922.5,-312.5 922.5,-274.5 788.5,-274.5"/>
<text text-anchor="start" x="796.5" y="-301.3" font-family="Helvetica,sans-Serif" font-size="9.00">std::__debug::unordered</text>
<text text-anchor="start" x="796.5" y="-291.3" font-family="Helvetica,sans-Serif" font-size="9.00">_multiset&lt; _Value, _Hash,</text>
<text text-anchor="middle" x="855.5" y="-281.3" font-family="Helvetica,sans-Serif" font-size="9.00"> _Pred, _Alloc &gt;</text>
</a>
</g>
</g>
<!-- Node27&#45;&gt;Node28 -->
<g id="edge28" class="edge">
<title>Node27&#45;&gt;Node28</title>
<path fill="none" stroke="midnightblue" d="M731.84,-293.5C750.77,-293.5 770.39,-293.5 788.24,-293.5"/>
<polygon fill="midnightblue" stroke="midnightblue" points="731.72,-290 721.72,-293.5 731.72,-297 731.72,-290"/>
</g>
<!-- Node30 -->
<g id="node31" class="node">
<title>Node30</title>
<g id="a_node31"><a xlink:href="a09806.html" target="_top" xlink:title="Class std::unordered_multimap with safety/checking/debug instrumentation.">
<polygon fill="white" stroke="black" points="791.5,-152.5 791.5,-190.5 919.5,-190.5 919.5,-152.5 791.5,-152.5"/>
<text text-anchor="start" x="799.5" y="-179.3" font-family="Helvetica,sans-Serif" font-size="9.00">std::__debug::unordered</text>
<text text-anchor="start" x="799.5" y="-169.3" font-family="Helvetica,sans-Serif" font-size="9.00">_multimap&lt; _Key, _Tp,</text>
<text text-anchor="middle" x="855.5" y="-159.3" font-family="Helvetica,sans-Serif" font-size="9.00"> _Hash, _Pred, _Alloc &gt;</text>
</a>
</g>
</g>
<!-- Node29&#45;&gt;Node30 -->
<g id="edge30" class="edge">
<title>Node29&#45;&gt;Node30</title>
<path fill="none" stroke="midnightblue" d="M739.11,-171.5C756.79,-171.5 774.81,-171.5 791.18,-171.5"/>
<polygon fill="midnightblue" stroke="midnightblue" points="738.75,-168 728.75,-171.5 738.75,-175 738.75,-168"/>
</g>
<!-- Node32 -->
<g id="node33" class="node">
<title>Node32</title>
<g id="a_node33"><a xlink:href="a09802.html" target="_top" xlink:title="Class std::unordered_map with safety/checking/debug instrumentation.">
<polygon fill="white" stroke="black" points="790,-30.5 790,-68.5 921,-68.5 921,-30.5 790,-30.5"/>
<text text-anchor="start" x="798" y="-57.3" font-family="Helvetica,sans-Serif" font-size="9.00">std::__debug::unordered</text>
<text text-anchor="start" x="798" y="-47.3" font-family="Helvetica,sans-Serif" font-size="9.00">_map&lt; _Key, _Tp, _Hash,</text>
<text text-anchor="middle" x="855.5" y="-37.3" font-family="Helvetica,sans-Serif" font-size="9.00"> _Pred, _Alloc &gt;</text>
</a>
</g>
</g>
<!-- Node31&#45;&gt;Node32 -->
<g id="edge32" class="edge">
<title>Node31&#45;&gt;Node32</title>
<path fill="none" stroke="midnightblue" d="M745.93,-49.5C760.96,-49.5 776.04,-49.5 789.98,-49.5"/>
<polygon fill="midnightblue" stroke="midnightblue" points="745.54,-46 735.54,-49.5 745.54,-53 745.54,-46"/>
</g>
<!-- Node250 -->
<g id="node34" class="node">
<title>Node250</title>
<g id="a_node34"><a xlink:href="a09838.html" target="_top" xlink:title=" ">
<polygon fill="white" stroke="black" points="357,-913.5 357,-971.5 482,-971.5 482,-913.5 357,-913.5"/>
<text text-anchor="start" x="365" y="-960.3" font-family="Helvetica,sans-Serif" font-size="9.00">__gnu_debug::_Safe</text>
<text text-anchor="start" x="365" y="-950.3" font-family="Helvetica,sans-Serif" font-size="9.00">_vector&lt; vector&lt; _Tp,</text>
<text text-anchor="start" x="365" y="-940.3" font-family="Helvetica,sans-Serif" font-size="9.00"> std::allocator&lt; _Tp</text>
<text text-anchor="start" x="365" y="-930.3" font-family="Helvetica,sans-Serif" font-size="9.00"> &gt; &gt;, ::vector&lt; _Tp, std</text>
<text text-anchor="middle" x="419.5" y="-920.3" font-family="Helvetica,sans-Serif" font-size="9.00">::allocator&lt; _Tp &gt; &gt; &gt;</text>
</a>
</g>
</g>
<!-- Node250&#45;&gt;Node9 -->
<g id="edge33" class="edge">
<title>Node250&#45;&gt;Node9</title>
<path fill="none" stroke="midnightblue" d="M491.2,-974.65C495.89,-976.93 500.52,-979.23 505,-981.5 521.32,-989.79 523.92,-994.91 541,-1001.5 555.01,-1006.9 570.65,-1011.27 585.26,-1014.68"/>
<polygon fill="midnightblue" stroke="midnightblue" points="492.67,-971.48 482.14,-970.3 489.64,-977.78 492.67,-971.48"/>
</g>
<!-- Node395 -->
<g id="node35" class="node">
<title>Node395</title>
<g id="a_node35"><a xlink:href="a05666.html" target="_top" xlink:title=" ">
<polygon fill="white" stroke="black" points="353,-1077.5 353,-1125.5 486,-1125.5 486,-1077.5 353,-1077.5"/>
<text text-anchor="start" x="361" y="-1114.3" font-family="Helvetica,sans-Serif" font-size="9.00">std::basic_string&lt;</text>
<text text-anchor="start" x="361" y="-1104.3" font-family="Helvetica,sans-Serif" font-size="9.00"> _CharT, std::char_traits</text>
<text text-anchor="start" x="361" y="-1094.3" font-family="Helvetica,sans-Serif" font-size="9.00">&lt; _CharT &gt;, std::allocator</text>
<text text-anchor="middle" x="419.5" y="-1084.3" font-family="Helvetica,sans-Serif" font-size="9.00">&lt; _CharT &gt; &gt;</text>
</a>
</g>
</g>
<!-- Node395&#45;&gt;Node7 -->
<g id="edge34" class="edge">
<title>Node395&#45;&gt;Node7</title>
<path fill="none" stroke="midnightblue" d="M496.27,-1115.69C522.96,-1120.68 552.6,-1126.23 577.96,-1130.98"/>
<polygon fill="midnightblue" stroke="midnightblue" points="496.68,-1112.2 486.21,-1113.8 495.39,-1119.08 496.68,-1112.2"/>
</g>
</g>
</svg>
