<?xml version="1.0" encoding="UTF-8" standalone="no"?>
<!DOCTYPE svg PUBLIC "-//W3C//DTD SVG 1.1//EN"
 "http://www.w3.org/Graphics/SVG/1.1/DTD/svg11.dtd">
<!-- Generated by graphviz version 2.50.0 (0)
 -->
<!-- Title: Graphical Class Hierarchy Pages: 1 -->
<svg width="262pt" height="74pt"
 viewBox="0.00 0.00 262.00 74.00" xmlns="http://www.w3.org/2000/svg" xmlns:xlink="http://www.w3.org/1999/xlink">
<g id="graph0" class="graph" transform="scale(1 1) rotate(0) translate(4 70)">
<title>Graphical Class Hierarchy</title>
<polygon fill="white" stroke="transparent" points="-4,4 -4,-70 258,-70 258,4 -4,4"/>
<!-- Node0 -->
<g id="node1" class="node">
<title>Node0</title>
<g id="a_node1"><a xlink:href="a08658.html" target="_top" xlink:title="Common part of a node in the list.">
<polygon fill="white" stroke="black" points="0,-21.5 0,-49.5 97,-49.5 97,-21.5 0,-21.5"/>
<text text-anchor="start" x="8" y="-38.3" font-family="Helvetica,sans-Serif" font-size="9.00">std::__detail::_List</text>
<text text-anchor="middle" x="48.5" y="-28.3" font-family="Helvetica,sans-Serif" font-size="9.00">_node_base</text>
</a>
</g>
</g>
<!-- Node1 -->
<g id="node2" class="node">
<title>Node1</title>
<g id="a_node2"><a xlink:href="a08678.html" target="_top" xlink:title="An actual node in the list.">
<polygon fill="white" stroke="black" points="133,-47.5 133,-65.5 254,-65.5 254,-47.5 133,-47.5"/>
<text text-anchor="middle" x="193.5" y="-54.3" font-family="Helvetica,sans-Serif" font-size="9.00">std::_List_node&lt; _Tp &gt;</text>
</a>
</g>
</g>
<!-- Node0&#45;&gt;Node1 -->
<g id="edge1" class="edge">
<title>Node0&#45;&gt;Node1</title>
<path fill="none" stroke="midnightblue" d="M107.25,-43.98C115.69,-45.22 124.4,-46.5 132.88,-47.74"/>
<polygon fill="midnightblue" stroke="midnightblue" points="107.52,-40.48 97.12,-42.49 106.5,-47.41 107.52,-40.48"/>
</g>
<!-- Node2 -->
<g id="node3" class="node">
<title>Node2</title>
<g id="a_node3"><a xlink:href="a08662.html" target="_top" xlink:title="The list node header.">
<polygon fill="white" stroke="black" points="145,-0.5 145,-28.5 242,-28.5 242,-0.5 145,-0.5"/>
<text text-anchor="start" x="153" y="-17.3" font-family="Helvetica,sans-Serif" font-size="9.00">std::__detail::_List</text>
<text text-anchor="middle" x="193.5" y="-7.3" font-family="Helvetica,sans-Serif" font-size="9.00">_node_header</text>
</a>
</g>
</g>
<!-- Node0&#45;&gt;Node2 -->
<g id="edge2" class="edge">
<title>Node0&#45;&gt;Node2</title>
<path fill="none" stroke="midnightblue" d="M107.34,-27.01C119.72,-25.19 132.65,-23.29 144.6,-21.53"/>
<polygon fill="midnightblue" stroke="midnightblue" points="106.5,-23.59 97.12,-28.51 107.52,-30.52 106.5,-23.59"/>
</g>
</g>
</svg>
