<?xml version="1.0" encoding="UTF-8" standalone="no"?>
<!DOCTYPE svg PUBLIC "-//W3C//DTD SVG 1.1//EN"
 "http://www.w3.org/Graphics/SVG/1.1/DTD/svg11.dtd">
<!-- Generated by graphviz version 2.50.0 (0)
 -->
<!-- Title: Graphical Class Hierarchy Pages: 1 -->
<svg width="540pt" height="387pt"
 viewBox="0.00 0.00 540.00 387.00" xmlns="http://www.w3.org/2000/svg" xmlns:xlink="http://www.w3.org/1999/xlink">
<g id="graph0" class="graph" transform="scale(1 1) rotate(0) translate(4 383)">
<title>Graphical Class Hierarchy</title>
<polygon fill="white" stroke="transparent" points="-4,4 -4,-383 536,-383 536,4 -4,4"/>
<!-- Node0 -->
<g id="node1" class="node">
<title>Node0</title>
<g id="a_node1"><a xlink:href="a13394.html" target="_top" xlink:title="Primary template.">
<polygon fill="white" stroke="black" points="188,-273.5 188,-311.5 319,-311.5 319,-273.5 188,-273.5"/>
<text text-anchor="start" x="196" y="-300.3" font-family="Helvetica,sans-Serif" font-size="9.00">__gnu_pbds::detail</text>
<text text-anchor="start" x="196" y="-290.3" font-family="Helvetica,sans-Serif" font-size="9.00">::hash_eq_fn&lt; Key, Eq</text>
<text text-anchor="middle" x="253.5" y="-280.3" font-family="Helvetica,sans-Serif" font-size="9.00">_Fn, _Alloc, Store_Hash &gt;</text>
</a>
</g>
</g>
<!-- Node1 -->
<g id="node2" class="node">
<title>Node1</title>
<g id="a_node2"><a xlink:href="a13382.html" target="_top" xlink:title=" ">
<polygon fill="white" stroke="black" points="380.5,-278.5 380.5,-336.5 529.5,-336.5 529.5,-278.5 380.5,-278.5"/>
<text text-anchor="start" x="388.5" y="-325.3" font-family="Helvetica,sans-Serif" font-size="9.00">__gnu_pbds::detail</text>
<text text-anchor="start" x="388.5" y="-315.3" font-family="Helvetica,sans-Serif" font-size="9.00">::cc_ht_map&lt; Key, Mapped,</text>
<text text-anchor="start" x="388.5" y="-305.3" font-family="Helvetica,sans-Serif" font-size="9.00"> Hash_Fn, Eq_Fn, _Alloc,</text>
<text text-anchor="start" x="388.5" y="-295.3" font-family="Helvetica,sans-Serif" font-size="9.00"> Store_Hash, Comb_Hash_Fn,</text>
<text text-anchor="middle" x="455" y="-285.3" font-family="Helvetica,sans-Serif" font-size="9.00"> Resize_Policy &gt;</text>
</a>
</g>
</g>
<!-- Node0&#45;&gt;Node1 -->
<g id="edge1" class="edge">
<title>Node0&#45;&gt;Node1</title>
<path fill="none" stroke="midnightblue" d="M329.47,-298.14C346.07,-299.38 363.65,-300.71 380.21,-301.95"/>
<polygon fill="midnightblue" stroke="midnightblue" points="329.51,-294.63 319.27,-297.37 328.98,-301.61 329.51,-294.63"/>
</g>
<!-- Node2 -->
<g id="node3" class="node">
<title>Node2</title>
<g id="a_node3"><a xlink:href="a13406.html" target="_top" xlink:title=" ">
<polygon fill="white" stroke="black" points="378,-201.5 378,-259.5 532,-259.5 532,-201.5 378,-201.5"/>
<text text-anchor="start" x="386" y="-248.3" font-family="Helvetica,sans-Serif" font-size="9.00">__gnu_pbds::detail</text>
<text text-anchor="start" x="386" y="-238.3" font-family="Helvetica,sans-Serif" font-size="9.00">::gp_ht_map&lt; Key, Mapped,</text>
<text text-anchor="start" x="386" y="-228.3" font-family="Helvetica,sans-Serif" font-size="9.00"> Hash_Fn, Eq_Fn, _Alloc,</text>
<text text-anchor="start" x="386" y="-218.3" font-family="Helvetica,sans-Serif" font-size="9.00"> Store_Hash, Comb_Probe</text>
<text text-anchor="middle" x="455" y="-208.3" font-family="Helvetica,sans-Serif" font-size="9.00">_Fn, Probe_Fn, Resize_Policy &gt;</text>
</a>
</g>
</g>
<!-- Node0&#45;&gt;Node2 -->
<g id="edge2" class="edge">
<title>Node0&#45;&gt;Node2</title>
<path fill="none" stroke="midnightblue" d="M325.53,-270.43C342.46,-265.17 360.59,-259.53 377.75,-254.2"/>
<polygon fill="midnightblue" stroke="midnightblue" points="324.22,-267.17 315.71,-273.48 326.3,-273.85 324.22,-267.17"/>
</g>
<!-- Node1015 -->
<g id="node4" class="node">
<title>Node1015</title>
<g id="a_node4"><a xlink:href="a13262.html" target="_top" xlink:title="Base class for conditionally defining a static data member.">
<polygon fill="white" stroke="black" points="0,-139.5 0,-187.5 129,-187.5 129,-139.5 0,-139.5"/>
<text text-anchor="start" x="8" y="-176.3" font-family="Helvetica,sans-Serif" font-size="9.00">__gnu_pbds::detail</text>
<text text-anchor="start" x="8" y="-166.3" font-family="Helvetica,sans-Serif" font-size="9.00">::maybe_null_type&lt; Key,</text>
<text text-anchor="start" x="8" y="-156.3" font-family="Helvetica,sans-Serif" font-size="9.00"> Mapped, _Alloc, Store</text>
<text text-anchor="middle" x="64.5" y="-146.3" font-family="Helvetica,sans-Serif" font-size="9.00">_Hash &gt;</text>
</a>
</g>
</g>
<!-- Node1016 -->
<g id="node5" class="node">
<title>Node1016</title>
<g id="a_node5"><a xlink:href="a13274.html" target="_top" xlink:title=" ">
<polygon fill="white" stroke="black" points="191.5,-77.5 191.5,-115.5 315.5,-115.5 315.5,-77.5 191.5,-77.5"/>
<text text-anchor="start" x="199.5" y="-104.3" font-family="Helvetica,sans-Serif" font-size="9.00">__gnu_pbds::detail</text>
<text text-anchor="start" x="199.5" y="-94.3" font-family="Helvetica,sans-Serif" font-size="9.00">::types_traits&lt; Key,</text>
<text text-anchor="middle" x="253.5" y="-84.3" font-family="Helvetica,sans-Serif" font-size="9.00"> Mapped, _Alloc, false &gt;</text>
</a>
</g>
</g>
<!-- Node1015&#45;&gt;Node1016 -->
<g id="edge3" class="edge">
<title>Node1015&#45;&gt;Node1016</title>
<path fill="none" stroke="midnightblue" d="M138.58,-137.31C158.86,-130.05 180.47,-122.31 199.37,-115.54"/>
<polygon fill="midnightblue" stroke="midnightblue" points="137.3,-134.06 129.07,-140.72 139.67,-140.65 137.3,-134.06"/>
</g>
<!-- Node1020 -->
<g id="node9" class="node">
<title>Node1020</title>
<g id="a_node9"><a xlink:href="a13274.html" target="_top" xlink:title="Traits for abstract types.">
<polygon fill="white" stroke="black" points="195,-206.5 195,-254.5 312,-254.5 312,-206.5 195,-206.5"/>
<text text-anchor="start" x="203" y="-243.3" font-family="Helvetica,sans-Serif" font-size="9.00">__gnu_pbds::detail</text>
<text text-anchor="start" x="203" y="-233.3" font-family="Helvetica,sans-Serif" font-size="9.00">::types_traits&lt; Key,</text>
<text text-anchor="start" x="203" y="-223.3" font-family="Helvetica,sans-Serif" font-size="9.00"> Mapped, _Alloc, Store</text>
<text text-anchor="middle" x="253.5" y="-213.3" font-family="Helvetica,sans-Serif" font-size="9.00">_Hash &gt;</text>
</a>
</g>
</g>
<!-- Node1015&#45;&gt;Node1020 -->
<g id="edge7" class="edge">
<title>Node1015&#45;&gt;Node1020</title>
<path fill="none" stroke="midnightblue" d="M138.68,-189.72C157.3,-196.39 177.04,-203.46 194.76,-209.81"/>
<polygon fill="midnightblue" stroke="midnightblue" points="139.67,-186.35 129.07,-186.28 137.3,-192.94 139.67,-186.35"/>
</g>
<!-- Node1017 -->
<g id="node6" class="node">
<title>Node1017</title>
<g id="a_node6"><a xlink:href="a13506.html" target="_top" xlink:title="list&#45;based (with updates) associative container. Skip to the lu, my darling.">
<polygon fill="white" stroke="black" points="391,-67.5 391,-115.5 519,-115.5 519,-67.5 391,-67.5"/>
<text text-anchor="start" x="399" y="-104.3" font-family="Helvetica,sans-Serif" font-size="9.00">__gnu_pbds::detail</text>
<text text-anchor="start" x="399" y="-94.3" font-family="Helvetica,sans-Serif" font-size="9.00">::lu_map&lt; Key, Mapped,</text>
<text text-anchor="start" x="399" y="-84.3" font-family="Helvetica,sans-Serif" font-size="9.00"> Eq_Fn, _Alloc, Update</text>
<text text-anchor="middle" x="455" y="-74.3" font-family="Helvetica,sans-Serif" font-size="9.00">_Policy &gt;</text>
</a>
</g>
</g>
<!-- Node1016&#45;&gt;Node1017 -->
<g id="edge4" class="edge">
<title>Node1016&#45;&gt;Node1017</title>
<path fill="none" stroke="midnightblue" d="M325.95,-94.71C347.15,-94.18 370.2,-93.6 390.83,-93.08"/>
<polygon fill="midnightblue" stroke="midnightblue" points="325.62,-91.22 315.71,-94.97 325.8,-98.21 325.62,-91.22"/>
</g>
<!-- Node1018 -->
<g id="node7" class="node">
<title>Node1018</title>
<g id="a_node7"><a xlink:href="a13534.html" target="_top" xlink:title="Ordered&#45;vector tree associative&#45;container.">
<polygon fill="white" stroke="black" points="391,-134.5 391,-182.5 519,-182.5 519,-134.5 391,-134.5"/>
<text text-anchor="start" x="399" y="-171.3" font-family="Helvetica,sans-Serif" font-size="9.00">__gnu_pbds::detail</text>
<text text-anchor="start" x="399" y="-161.3" font-family="Helvetica,sans-Serif" font-size="9.00">::ov_tree_map&lt; Key,</text>
<text text-anchor="start" x="399" y="-151.3" font-family="Helvetica,sans-Serif" font-size="9.00"> Mapped, Cmp_Fn, Node</text>
<text text-anchor="middle" x="455" y="-141.3" font-family="Helvetica,sans-Serif" font-size="9.00">_And_It_Traits, _Alloc &gt;</text>
</a>
</g>
</g>
<!-- Node1016&#45;&gt;Node1018 -->
<g id="edge5" class="edge">
<title>Node1016&#45;&gt;Node1018</title>
<path fill="none" stroke="midnightblue" d="M325.37,-118.53C346.73,-125.16 370.01,-132.4 390.83,-138.87"/>
<polygon fill="midnightblue" stroke="midnightblue" points="326.3,-115.15 315.71,-115.52 324.22,-121.83 326.3,-115.15"/>
</g>
<!-- Node1019 -->
<g id="node8" class="node">
<title>Node1019</title>
<g id="a_node8"><a xlink:href="a13554.html" target="_top" xlink:title="PATRICIA trie.">
<polygon fill="white" stroke="black" points="395.5,-0.5 395.5,-48.5 514.5,-48.5 514.5,-0.5 395.5,-0.5"/>
<text text-anchor="start" x="403.5" y="-37.3" font-family="Helvetica,sans-Serif" font-size="9.00">__gnu_pbds::detail</text>
<text text-anchor="start" x="403.5" y="-27.3" font-family="Helvetica,sans-Serif" font-size="9.00">::pat_trie_map&lt; Key,</text>
<text text-anchor="start" x="403.5" y="-17.3" font-family="Helvetica,sans-Serif" font-size="9.00"> Mapped, Node_And_It</text>
<text text-anchor="middle" x="455" y="-7.3" font-family="Helvetica,sans-Serif" font-size="9.00">_Traits, _Alloc &gt;</text>
</a>
</g>
</g>
<!-- Node1016&#45;&gt;Node1019 -->
<g id="edge6" class="edge">
<title>Node1016&#45;&gt;Node1019</title>
<path fill="none" stroke="midnightblue" d="M316.61,-74.08C341.75,-65.01 370.63,-54.59 395.4,-45.65"/>
<polygon fill="midnightblue" stroke="midnightblue" points="315.4,-70.8 307.18,-77.49 317.77,-77.39 315.4,-70.8"/>
</g>
<!-- Node1020&#45;&gt;Node1 -->
<g id="edge8" class="edge">
<title>Node1020&#45;&gt;Node1</title>
<path fill="none" stroke="midnightblue" d="M321.62,-256.4C340.51,-263.7 361.16,-271.67 380.42,-279.1"/>
<polygon fill="midnightblue" stroke="midnightblue" points="322.79,-253.11 312.2,-252.77 320.27,-259.64 322.79,-253.11"/>
</g>
<!-- Node1020&#45;&gt;Node2 -->
<g id="edge9" class="edge">
<title>Node1020&#45;&gt;Node2</title>
<path fill="none" stroke="midnightblue" d="M322.5,-230.5C340.32,-230.5 359.64,-230.5 377.85,-230.5"/>
<polygon fill="midnightblue" stroke="midnightblue" points="322.2,-227 312.2,-230.5 322.2,-234 322.2,-227"/>
</g>
<!-- Node1127 -->
<g id="node10" class="node">
<title>Node1127</title>
<g id="a_node10"><a xlink:href="a13566.html" target="_top" xlink:title="Base type for PATRICIA trees.">
<polygon fill="white" stroke="black" points="203,-10.5 203,-38.5 304,-38.5 304,-10.5 203,-10.5"/>
<text text-anchor="start" x="211" y="-27.3" font-family="Helvetica,sans-Serif" font-size="9.00">__gnu_pbds::detail</text>
<text text-anchor="middle" x="253.5" y="-17.3" font-family="Helvetica,sans-Serif" font-size="9.00">::pat_trie_base</text>
</a>
</g>
</g>
<!-- Node1127&#45;&gt;Node1019 -->
<g id="edge10" class="edge">
<title>Node1127&#45;&gt;Node1019</title>
<path fill="none" stroke="midnightblue" d="M314.07,-24.5C339.82,-24.5 369.84,-24.5 395.47,-24.5"/>
<polygon fill="midnightblue" stroke="midnightblue" points="314.07,-21 304.07,-24.5 314.07,-28 314.07,-21"/>
</g>
<!-- Node1150 -->
<g id="node11" class="node">
<title>Node1150</title>
<g id="a_node11"><a xlink:href="a13426.html" target="_top" xlink:title="Primary template.">
<polygon fill="white" stroke="black" points="190,-330.5 190,-378.5 317,-378.5 317,-330.5 190,-330.5"/>
<text text-anchor="start" x="198" y="-367.3" font-family="Helvetica,sans-Serif" font-size="9.00">__gnu_pbds::detail</text>
<text text-anchor="start" x="198" y="-357.3" font-family="Helvetica,sans-Serif" font-size="9.00">::ranged_hash_fn&lt; Key,</text>
<text text-anchor="start" x="198" y="-347.3" font-family="Helvetica,sans-Serif" font-size="9.00"> Hash_Fn, _Alloc, Comb</text>
<text text-anchor="middle" x="253.5" y="-337.3" font-family="Helvetica,sans-Serif" font-size="9.00">_Hash_Fn, Store_Hash &gt;</text>
</a>
</g>
</g>
<!-- Node1150&#45;&gt;Node1 -->
<g id="edge11" class="edge">
<title>Node1150&#45;&gt;Node1</title>
<path fill="none" stroke="midnightblue" d="M327.15,-337.39C344.51,-333.29 363.07,-328.92 380.48,-324.82"/>
<polygon fill="midnightblue" stroke="midnightblue" points="326.01,-334.06 317.08,-339.76 327.61,-340.87 326.01,-334.06"/>
</g>
<!-- Node1155 -->
<g id="node12" class="node">
<title>Node1155</title>
<g id="a_node12"><a xlink:href="a13446.html" target="_top" xlink:title="Primary template.">
<polygon fill="white" stroke="black" points="165,-139.5 165,-187.5 342,-187.5 342,-139.5 165,-139.5"/>
<text text-anchor="start" x="173" y="-176.3" font-family="Helvetica,sans-Serif" font-size="9.00">__gnu_pbds::detail</text>
<text text-anchor="start" x="173" y="-166.3" font-family="Helvetica,sans-Serif" font-size="9.00">::ranged_probe_fn&lt; Key,</text>
<text text-anchor="start" x="173" y="-156.3" font-family="Helvetica,sans-Serif" font-size="9.00"> Hash_Fn, _Alloc, Comb</text>
<text text-anchor="middle" x="253.5" y="-146.3" font-family="Helvetica,sans-Serif" font-size="9.00">_Probe_Fn, Probe_Fn, Store_Hash &gt;</text>
</a>
</g>
</g>
<!-- Node1155&#45;&gt;Node2 -->
<g id="edge12" class="edge">
<title>Node1155&#45;&gt;Node2</title>
<path fill="none" stroke="midnightblue" d="M335.77,-190.8C349.68,-195.46 364.08,-200.3 377.84,-204.92"/>
<polygon fill="midnightblue" stroke="midnightblue" points="336.84,-187.46 326.24,-187.59 334.61,-194.1 336.84,-187.46"/>
</g>
</g>
</svg>
