<?xml version="1.0" encoding="UTF-8" standalone="no"?>
<!DOCTYPE svg PUBLIC "-//W3C//DTD SVG 1.1//EN"
 "http://www.w3.org/Graphics/SVG/1.1/DTD/svg11.dtd">
<!-- Generated by graphviz version 2.50.0 (0)
 -->
<!-- Title: Graphical Class Hierarchy Pages: 1 -->
<svg width="285pt" height="74pt"
 viewBox="0.00 0.00 285.00 74.00" xmlns="http://www.w3.org/2000/svg" xmlns:xlink="http://www.w3.org/1999/xlink">
<g id="graph0" class="graph" transform="scale(1 1) rotate(0) translate(4 70)">
<title>Graphical Class Hierarchy</title>
<polygon fill="white" stroke="transparent" points="-4,4 -4,-70 281,-70 281,4 -4,4"/>
<!-- Node0 -->
<g id="node1" class="node">
<title>Node0</title>
<g id="a_node1"><a xlink:href="a03766.html" target="_top" xlink:title=" ">
<polygon fill="white" stroke="black" points="0,-16.5 0,-44.5 116,-44.5 116,-16.5 0,-16.5"/>
<text text-anchor="start" x="8" y="-33.3" font-family="Helvetica,sans-Serif" font-size="9.00">std::integral_constant</text>
<text text-anchor="middle" x="58" y="-23.3" font-family="Helvetica,sans-Serif" font-size="9.00">&lt; std::size_t, 0 &gt;</text>
</a>
</g>
</g>
<!-- Node1 -->
<g id="node2" class="node">
<title>Node1</title>
<g id="a_node2"><a xlink:href="a04002.html" target="_top" xlink:title="extent">
<polygon fill="white" stroke="black" points="152,-37.5 152,-65.5 277,-65.5 277,-37.5 152,-37.5"/>
<text text-anchor="start" x="160" y="-54.3" font-family="Helvetica,sans-Serif" font-size="9.00">std::extent&lt; typename,</text>
<text text-anchor="middle" x="214.5" y="-44.3" font-family="Helvetica,sans-Serif" font-size="9.00"> _Uint &gt;</text>
</a>
</g>
</g>
<!-- Node0&#45;&gt;Node1 -->
<g id="edge1" class="edge">
<title>Node0&#45;&gt;Node1</title>
<path fill="none" stroke="midnightblue" d="M126.09,-39.62C134.69,-40.79 143.46,-41.98 151.97,-43.14"/>
<polygon fill="midnightblue" stroke="midnightblue" points="126.47,-36.14 116.09,-38.26 125.53,-43.07 126.47,-36.14"/>
</g>
<!-- Node2 -->
<g id="node3" class="node">
<title>Node2</title>
<g id="a_node3"><a xlink:href="a04226.html" target="_top" xlink:title="rank">
<polygon fill="white" stroke="black" points="152.5,-0.5 152.5,-18.5 276.5,-18.5 276.5,-0.5 152.5,-0.5"/>
<text text-anchor="middle" x="214.5" y="-7.3" font-family="Helvetica,sans-Serif" font-size="9.00">std::rank&lt; typename &gt;</text>
</a>
</g>
</g>
<!-- Node0&#45;&gt;Node2 -->
<g id="edge2" class="edge">
<title>Node0&#45;&gt;Node2</title>
<path fill="none" stroke="midnightblue" d="M126.23,-21.36C134.97,-20.17 143.87,-18.96 152.49,-17.79"/>
<polygon fill="midnightblue" stroke="midnightblue" points="125.53,-17.93 116.09,-22.74 126.47,-24.86 125.53,-17.93"/>
</g>
</g>
</svg>
