<?xml version="1.0" encoding="UTF-8" standalone="no"?>
<!DOCTYPE svg PUBLIC "-//W3C//DTD SVG 1.1//EN"
 "http://www.w3.org/Graphics/SVG/1.1/DTD/svg11.dtd">
<!-- Generated by graphviz version 2.50.0 (0)
 -->
<!-- Title: Graphical Class Hierarchy Pages: 1 -->
<svg width="315pt" height="47pt"
 viewBox="0.00 0.00 315.00 47.00" xmlns="http://www.w3.org/2000/svg" xmlns:xlink="http://www.w3.org/1999/xlink">
<g id="graph0" class="graph" transform="scale(1 1) rotate(0) translate(4 43)">
<title>Graphical Class Hierarchy</title>
<polygon fill="white" stroke="transparent" points="-4,4 -4,-43 311,-43 311,4 -4,4"/>
<!-- Node0 -->
<g id="node1" class="node">
<title>Node0</title>
<g id="a_node1"><a xlink:href="a08786.html" target="_top" xlink:title=" ">
<polygon fill="white" stroke="black" points="0,-5.5 0,-33.5 134,-33.5 134,-5.5 0,-5.5"/>
<text text-anchor="start" x="8" y="-22.3" font-family="Helvetica,sans-Serif" font-size="9.00">std::_Temporary_buffer</text>
<text text-anchor="middle" x="67" y="-12.3" font-family="Helvetica,sans-Serif" font-size="9.00">&lt; _ForwardIterator, _Tp &gt;</text>
</a>
</g>
</g>
<!-- Node1 -->
<g id="node2" class="node">
<title>Node1</title>
<g id="a_node2"><a xlink:href="a09930.html" target="_top" xlink:title=" ">
<polygon fill="white" stroke="black" points="170,-0.5 170,-38.5 307,-38.5 307,-0.5 170,-0.5"/>
<text text-anchor="start" x="178" y="-27.3" font-family="Helvetica,sans-Serif" font-size="9.00">__gnu_cxx::temporary</text>
<text text-anchor="start" x="178" y="-17.3" font-family="Helvetica,sans-Serif" font-size="9.00">_buffer&lt; _ForwardIterator,</text>
<text text-anchor="middle" x="238.5" y="-7.3" font-family="Helvetica,sans-Serif" font-size="9.00"> _Tp &gt;</text>
</a>
</g>
</g>
<!-- Node0&#45;&gt;Node1 -->
<g id="edge1" class="edge">
<title>Node0&#45;&gt;Node1</title>
<path fill="none" stroke="midnightblue" d="M144.08,-19.5C152.71,-19.5 161.47,-19.5 169.99,-19.5"/>
<polygon fill="midnightblue" stroke="midnightblue" points="144.02,-16 134.02,-19.5 144.02,-23 144.02,-16"/>
</g>
</g>
</svg>
