<?xml version="1.0" encoding="UTF-8" standalone="no"?>
<!DOCTYPE svg PUBLIC "-//W3C//DTD SVG 1.1//EN"
 "http://www.w3.org/Graphics/SVG/1.1/DTD/svg11.dtd">
<!-- Generated by graphviz version 2.50.0 (0)
 -->
<!-- Title: Graphical Class Hierarchy Pages: 1 -->
<svg width="397pt" height="57pt"
 viewBox="0.00 0.00 397.00 57.00" xmlns="http://www.w3.org/2000/svg" xmlns:xlink="http://www.w3.org/1999/xlink">
<g id="graph0" class="graph" transform="scale(1 1) rotate(0) translate(4 53)">
<title>Graphical Class Hierarchy</title>
<polygon fill="white" stroke="transparent" points="-4,4 -4,-53 393,-53 393,4 -4,4"/>
<!-- Node0 -->
<g id="node1" class="node">
<title>Node0</title>
<g id="a_node1"><a xlink:href="a08850.html" target="_top" xlink:title=" ">
<polygon fill="white" stroke="black" points="0,-0.5 0,-48.5 206,-48.5 206,-0.5 0,-0.5"/>
<text text-anchor="start" x="8" y="-37.3" font-family="Helvetica,sans-Serif" font-size="9.00">std::_Vector_base&lt;</text>
<text text-anchor="start" x="8" y="-27.3" font-family="Helvetica,sans-Serif" font-size="9.00"> std::pair&lt; _StrTransT,</text>
<text text-anchor="start" x="8" y="-17.3" font-family="Helvetica,sans-Serif" font-size="9.00"> _StrTransT &gt;, std::allocator</text>
<text text-anchor="middle" x="103" y="-7.3" font-family="Helvetica,sans-Serif" font-size="9.00">&lt; std::pair&lt; _StrTransT, _StrTransT &gt; &gt; &gt;</text>
</a>
</g>
</g>
<!-- Node1 -->
<g id="node2" class="node">
<title>Node1</title>
<g id="a_node2"><a xlink:href="a08862.html" target="_top" xlink:title=" ">
<polygon fill="white" stroke="black" points="242,-10.5 242,-38.5 389,-38.5 389,-10.5 242,-10.5"/>
<text text-anchor="start" x="250" y="-27.3" font-family="Helvetica,sans-Serif" font-size="9.00">std::vector&lt; std::pair</text>
<text text-anchor="middle" x="315.5" y="-17.3" font-family="Helvetica,sans-Serif" font-size="9.00">&lt; _StrTransT, _StrTransT &gt; &gt;</text>
</a>
</g>
</g>
<!-- Node0&#45;&gt;Node1 -->
<g id="edge1" class="edge">
<title>Node0&#45;&gt;Node1</title>
<path fill="none" stroke="darkgreen" d="M216.33,-24.5C224.97,-24.5 233.55,-24.5 241.84,-24.5"/>
<polygon fill="darkgreen" stroke="darkgreen" points="216.17,-21 206.17,-24.5 216.17,-28 216.17,-21"/>
</g>
</g>
</svg>
