<?xml version="1.0" encoding="UTF-8" standalone="no"?>
<!DOCTYPE svg PUBLIC "-//W3C//DTD SVG 1.1//EN"
 "http://www.w3.org/Graphics/SVG/1.1/DTD/svg11.dtd">
<!-- Generated by graphviz version 2.50.0 (0)
 -->
<!-- Title: Graphical Class Hierarchy Pages: 1 -->
<svg width="301pt" height="37pt"
 viewBox="0.00 0.00 301.00 37.00" xmlns="http://www.w3.org/2000/svg" xmlns:xlink="http://www.w3.org/1999/xlink">
<g id="graph0" class="graph" transform="scale(1 1) rotate(0) translate(4 33)">
<title>Graphical Class Hierarchy</title>
<polygon fill="white" stroke="transparent" points="-4,4 -4,-33 297,-33 297,4 -4,4"/>
<!-- Node0 -->
<g id="node1" class="node">
<title>Node0</title>
<g id="a_node1"><a xlink:href="a03766.html" target="_top" xlink:title=" ">
<polygon fill="white" stroke="black" points="0,-0.5 0,-28.5 116,-28.5 116,-0.5 0,-0.5"/>
<text text-anchor="start" x="8" y="-17.3" font-family="Helvetica,sans-Serif" font-size="9.00">std::integral_constant</text>
<text text-anchor="middle" x="58" y="-7.3" font-family="Helvetica,sans-Serif" font-size="9.00">&lt; int, _Num &gt;</text>
</a>
</g>
</g>
<!-- Node1 -->
<g id="node2" class="node">
<title>Node1</title>
<g id="a_node2"><a xlink:href="a02390.html" target="_top" xlink:title=" ">
<polygon fill="white" stroke="black" points="152,-0.5 152,-28.5 293,-28.5 293,-0.5 152,-0.5"/>
<text text-anchor="start" x="160" y="-17.3" font-family="Helvetica,sans-Serif" font-size="9.00">std::is_placeholder</text>
<text text-anchor="middle" x="222.5" y="-7.3" font-family="Helvetica,sans-Serif" font-size="9.00">&lt; _Placeholder&lt; _Num &gt; &gt;</text>
</a>
</g>
</g>
<!-- Node0&#45;&gt;Node1 -->
<g id="edge1" class="edge">
<title>Node0&#45;&gt;Node1</title>
<path fill="none" stroke="midnightblue" d="M126.43,-14.5C134.84,-14.5 143.46,-14.5 151.9,-14.5"/>
<polygon fill="midnightblue" stroke="midnightblue" points="126.29,-11 116.29,-14.5 126.29,-18 126.29,-11"/>
</g>
</g>
</svg>
