<?xml version="1.0" encoding="UTF-8" standalone="no"?>
<!DOCTYPE svg PUBLIC "-//W3C//DTD SVG 1.1//EN"
 "http://www.w3.org/Graphics/SVG/1.1/DTD/svg11.dtd">
<!-- Generated by graphviz version 2.50.0 (0)
 -->
<!-- Title: Graphical Class Hierarchy Pages: 1 -->
<svg width="444pt" height="198pt"
 viewBox="0.00 0.00 444.00 198.00" xmlns="http://www.w3.org/2000/svg" xmlns:xlink="http://www.w3.org/1999/xlink">
<g id="graph0" class="graph" transform="scale(1 1) rotate(0) translate(4 194)">
<title>Graphical Class Hierarchy</title>
<polygon fill="white" stroke="transparent" points="-4,4 -4,-194 440,-194 440,4 -4,4"/>
<!-- Node0 -->
<g id="node1" class="node">
<title>Node0</title>
<g id="a_node1"><a xlink:href="a02738.html" target="_top" xlink:title="The actual work of input and output (interface).">
<polygon fill="white" stroke="black" points="0,-73.5 0,-101.5 111,-101.5 111,-73.5 0,-73.5"/>
<text text-anchor="start" x="8" y="-90.3" font-family="Helvetica,sans-Serif" font-size="9.00">std::basic_streambuf</text>
<text text-anchor="middle" x="55.5" y="-80.3" font-family="Helvetica,sans-Serif" font-size="9.00">&lt; _CharT, _Traits &gt;</text>
</a>
</g>
</g>
<!-- Node1 -->
<g id="node2" class="node">
<title>Node1</title>
<g id="a_node2"><a xlink:href="a02362.html" target="_top" xlink:title=" ">
<polygon fill="white" stroke="black" points="148.5,-151.5 148.5,-189.5 279.5,-189.5 279.5,-151.5 148.5,-151.5"/>
<text text-anchor="start" x="156.5" y="-178.3" font-family="Helvetica,sans-Serif" font-size="9.00">std::basic_filebuf</text>
<text text-anchor="start" x="156.5" y="-168.3" font-family="Helvetica,sans-Serif" font-size="9.00">&lt; _CharT, encoding_char</text>
<text text-anchor="middle" x="214" y="-158.3" font-family="Helvetica,sans-Serif" font-size="9.00">_traits&lt; _CharT &gt; &gt;</text>
</a>
</g>
</g>
<!-- Node0&#45;&gt;Node1 -->
<g id="edge1" class="edge">
<title>Node0&#45;&gt;Node1</title>
<path fill="none" stroke="midnightblue" d="M86.15,-107.02C103.53,-118.07 126.1,-131.79 147,-142.5 152.98,-145.57 159.38,-148.58 165.74,-151.44"/>
<polygon fill="midnightblue" stroke="midnightblue" points="87.88,-103.97 77.58,-101.51 84.1,-109.86 87.88,-103.97"/>
</g>
<!-- Node3 -->
<g id="node4" class="node">
<title>Node3</title>
<g id="a_node4"><a xlink:href="a02362.html" target="_top" xlink:title=" ">
<polygon fill="white" stroke="black" points="163.5,-94.5 163.5,-132.5 264.5,-132.5 264.5,-94.5 163.5,-94.5"/>
<text text-anchor="start" x="171.5" y="-121.3" font-family="Helvetica,sans-Serif" font-size="9.00">std::basic_filebuf</text>
<text text-anchor="start" x="171.5" y="-111.3" font-family="Helvetica,sans-Serif" font-size="9.00">&lt; char_type, traits</text>
<text text-anchor="middle" x="214" y="-101.3" font-family="Helvetica,sans-Serif" font-size="9.00">_type &gt;</text>
</a>
</g>
</g>
<!-- Node0&#45;&gt;Node3 -->
<g id="edge3" class="edge">
<title>Node0&#45;&gt;Node3</title>
<path fill="none" stroke="midnightblue" d="M121.31,-98.27C135.33,-100.6 149.94,-103.02 163.27,-105.24"/>
<polygon fill="midnightblue" stroke="midnightblue" points="121.67,-94.78 111.24,-96.59 120.53,-101.69 121.67,-94.78"/>
</g>
<!-- Node4 -->
<g id="node5" class="node">
<title>Node4</title>
<g id="a_node5"><a xlink:href="a02362.html" target="_top" xlink:title="The actual work of input and output (for files).">
<polygon fill="white" stroke="black" points="163,-47.5 163,-75.5 265,-75.5 265,-47.5 163,-47.5"/>
<text text-anchor="start" x="171" y="-64.3" font-family="Helvetica,sans-Serif" font-size="9.00">std::basic_filebuf</text>
<text text-anchor="middle" x="214" y="-54.3" font-family="Helvetica,sans-Serif" font-size="9.00">&lt; _CharT, _Traits &gt;</text>
</a>
</g>
</g>
<!-- Node0&#45;&gt;Node4 -->
<g id="edge4" class="edge">
<title>Node0&#45;&gt;Node4</title>
<path fill="none" stroke="midnightblue" d="M121.2,-76.75C135.07,-74.45 149.52,-72.05 162.75,-69.85"/>
<polygon fill="midnightblue" stroke="midnightblue" points="120.53,-73.31 111.24,-78.41 121.67,-80.22 120.53,-73.31"/>
</g>
<!-- Node5 -->
<g id="node6" class="node">
<title>Node5</title>
<g id="a_node6"><a xlink:href="a02754.html" target="_top" xlink:title="The actual work of input and output (for std::string).">
<polygon fill="white" stroke="black" points="147,-0.5 147,-28.5 281,-28.5 281,-0.5 147,-0.5"/>
<text text-anchor="start" x="155" y="-17.3" font-family="Helvetica,sans-Serif" font-size="9.00">std::basic_stringbuf</text>
<text text-anchor="middle" x="214" y="-7.3" font-family="Helvetica,sans-Serif" font-size="9.00">&lt; _CharT, _Traits, _Alloc &gt;</text>
</a>
</g>
</g>
<!-- Node0&#45;&gt;Node5 -->
<g id="edge5" class="edge">
<title>Node0&#45;&gt;Node5</title>
<path fill="none" stroke="midnightblue" d="M89.15,-68.31C106.11,-58.73 127.34,-47.34 147,-38.5 154.78,-35 163.25,-31.62 171.43,-28.56"/>
<polygon fill="midnightblue" stroke="midnightblue" points="87.16,-65.41 80.21,-73.41 90.63,-71.49 87.16,-65.41"/>
</g>
<!-- Node2 -->
<g id="node3" class="node">
<title>Node2</title>
<g id="a_node3"><a xlink:href="a12082.html" target="_top" xlink:title="class enc_filebuf.">
<polygon fill="white" stroke="black" points="317,-156.5 317,-184.5 436,-184.5 436,-156.5 317,-156.5"/>
<text text-anchor="start" x="325" y="-173.3" font-family="Helvetica,sans-Serif" font-size="9.00">__gnu_cxx::enc_filebuf</text>
<text text-anchor="middle" x="376.5" y="-163.3" font-family="Helvetica,sans-Serif" font-size="9.00">&lt; _CharT &gt;</text>
</a>
</g>
</g>
<!-- Node1&#45;&gt;Node2 -->
<g id="edge2" class="edge">
<title>Node1&#45;&gt;Node2</title>
<path fill="none" stroke="midnightblue" d="M289.97,-170.5C299.02,-170.5 308.15,-170.5 316.91,-170.5"/>
<polygon fill="midnightblue" stroke="midnightblue" points="289.82,-167 279.82,-170.5 289.82,-174 289.82,-167"/>
</g>
</g>
</svg>
