<?xml version="1.0" encoding="UTF-8" standalone="no"?>
<!DOCTYPE svg PUBLIC "-//W3C//DTD SVG 1.1//EN"
 "http://www.w3.org/Graphics/SVG/1.1/DTD/svg11.dtd">
<!-- Generated by graphviz version 2.50.0 (0)
 -->
<!-- Title: Graphical Class Hierarchy Pages: 1 -->
<svg width="312pt" height="94pt"
 viewBox="0.00 0.00 312.00 94.00" xmlns="http://www.w3.org/2000/svg" xmlns:xlink="http://www.w3.org/1999/xlink">
<g id="graph0" class="graph" transform="scale(1 1) rotate(0) translate(4 90)">
<title>Graphical Class Hierarchy</title>
<polygon fill="white" stroke="transparent" points="-4,4 -4,-90 308,-90 308,4 -4,4"/>
<!-- Node0 -->
<g id="node1" class="node">
<title>Node0</title>
<g id="a_node1"><a xlink:href="a08210.html" target="_top" xlink:title=" ">
<polygon fill="white" stroke="black" points="0,-31.5 0,-59.5 134,-59.5 134,-31.5 0,-31.5"/>
<text text-anchor="start" x="8" y="-48.3" font-family="Helvetica,sans-Serif" font-size="9.00">std::binary_function</text>
<text text-anchor="middle" x="67" y="-38.3" font-family="Helvetica,sans-Serif" font-size="9.00">&lt; _Arg1, _Arg2, _Result &gt;</text>
</a>
</g>
</g>
<!-- Node1 -->
<g id="node2" class="node">
<title>Node1</title>
<g id="a_node2"><a xlink:href="a08274.html" target="_top" xlink:title=" ">
<polygon fill="white" stroke="black" points="170,-57.5 170,-85.5 304,-85.5 304,-57.5 170,-57.5"/>
<text text-anchor="start" x="178" y="-74.3" font-family="Helvetica,sans-Serif" font-size="9.00">std::less&lt; typename</text>
<text text-anchor="middle" x="237" y="-64.3" font-family="Helvetica,sans-Serif" font-size="9.00"> _Sequence::value_type &gt;</text>
</a>
</g>
</g>
<!-- Node0&#45;&gt;Node1 -->
<g id="edge1" class="edge">
<title>Node0&#45;&gt;Node1</title>
<path fill="none" stroke="midnightblue" d="M144.32,-57.31C152.83,-58.63 161.44,-59.96 169.81,-61.26"/>
<polygon fill="midnightblue" stroke="midnightblue" points="144.82,-53.85 134.4,-55.78 143.75,-60.76 144.82,-53.85"/>
</g>
<!-- Node2 -->
<g id="node3" class="node">
<title>Node2</title>
<g id="a_node3"><a xlink:href="a08458.html" target="_top" xlink:title="One of the adaptors for function pointers.">
<polygon fill="white" stroke="black" points="171.5,-0.5 171.5,-38.5 302.5,-38.5 302.5,-0.5 171.5,-0.5"/>
<text text-anchor="start" x="179.5" y="-27.3" font-family="Helvetica,sans-Serif" font-size="9.00">std::pointer_to_binary</text>
<text text-anchor="start" x="179.5" y="-17.3" font-family="Helvetica,sans-Serif" font-size="9.00">_function&lt; _Arg1, _Arg2,</text>
<text text-anchor="middle" x="237" y="-7.3" font-family="Helvetica,sans-Serif" font-size="9.00"> _Result &gt;</text>
</a>
</g>
</g>
<!-- Node0&#45;&gt;Node2 -->
<g id="edge2" class="edge">
<title>Node0&#45;&gt;Node2</title>
<path fill="none" stroke="midnightblue" d="M144.5,-33.66C153.51,-32.27 162.63,-30.85 171.46,-29.49"/>
<polygon fill="midnightblue" stroke="midnightblue" points="143.75,-30.24 134.4,-35.22 144.82,-37.15 143.75,-30.24"/>
</g>
</g>
</svg>
