<?xml version="1.0" encoding="UTF-8" standalone="no"?>
<!DOCTYPE svg PUBLIC "-//W3C//DTD SVG 1.1//EN"
 "http://www.w3.org/Graphics/SVG/1.1/DTD/svg11.dtd">
<!-- Generated by graphviz version 2.50.0 (0)
 -->
<!-- Title: Graphical Class Hierarchy Pages: 1 -->
<svg width="312pt" height="178pt"
 viewBox="0.00 0.00 312.00 178.00" xmlns="http://www.w3.org/2000/svg" xmlns:xlink="http://www.w3.org/1999/xlink">
<g id="graph0" class="graph" transform="scale(1 1) rotate(0) translate(4 174)">
<title>Graphical Class Hierarchy</title>
<polygon fill="white" stroke="transparent" points="-4,4 -4,-174 308,-174 308,4 -4,4"/>
<!-- Node0 -->
<g id="node1" class="node">
<title>Node0</title>
<g id="a_node1"><a xlink:href="a08210.html" target="_top" xlink:title=" ">
<polygon fill="white" stroke="black" points="0,-70.5 0,-98.5 107,-98.5 107,-70.5 0,-70.5"/>
<text text-anchor="start" x="8" y="-87.3" font-family="Helvetica,sans-Serif" font-size="9.00">std::binary_function</text>
<text text-anchor="middle" x="53.5" y="-77.3" font-family="Helvetica,sans-Serif" font-size="9.00">&lt; _T1, _T2, bool &gt;</text>
</a>
</g>
</g>
<!-- Node1 -->
<g id="node2" class="node">
<title>Node1</title>
<g id="a_node2"><a xlink:href="a10058.html" target="_top" xlink:title="Constructs predicate for equality from strict weak ordering predicate.">
<polygon fill="white" stroke="black" points="150.5,-141.5 150.5,-169.5 296.5,-169.5 296.5,-141.5 150.5,-141.5"/>
<text text-anchor="start" x="158.5" y="-158.3" font-family="Helvetica,sans-Serif" font-size="9.00">__gnu_parallel::_EqualFrom</text>
<text text-anchor="middle" x="223.5" y="-148.3" font-family="Helvetica,sans-Serif" font-size="9.00">Less&lt; _T1, _T2, _Compare &gt;</text>
</a>
</g>
</g>
<!-- Node0&#45;&gt;Node1 -->
<g id="edge1" class="edge">
<title>Node0&#45;&gt;Node1</title>
<path fill="none" stroke="midnightblue" d="M85.85,-103.65C102.42,-113.22 123.35,-124.44 143,-132.5 150.98,-135.77 159.58,-138.77 168.08,-141.45"/>
<polygon fill="midnightblue" stroke="midnightblue" points="87.52,-100.58 77.12,-98.54 83.98,-106.62 87.52,-100.58"/>
</g>
<!-- Node2 -->
<g id="node3" class="node">
<title>Node2</title>
<g id="a_node3"><a xlink:href="a10074.html" target="_top" xlink:title="Similar to std::equal_to, but allows two different types.">
<polygon fill="white" stroke="black" points="161,-94.5 161,-122.5 286,-122.5 286,-94.5 161,-94.5"/>
<text text-anchor="start" x="169" y="-111.3" font-family="Helvetica,sans-Serif" font-size="9.00">__gnu_parallel::_EqualTo</text>
<text text-anchor="middle" x="223.5" y="-101.3" font-family="Helvetica,sans-Serif" font-size="9.00">&lt; _T1, _T2 &gt;</text>
</a>
</g>
</g>
<!-- Node0&#45;&gt;Node2 -->
<g id="edge2" class="edge">
<title>Node0&#45;&gt;Node2</title>
<path fill="none" stroke="midnightblue" d="M117.38,-93.48C131.61,-95.52 146.71,-97.67 160.88,-99.7"/>
<polygon fill="midnightblue" stroke="midnightblue" points="117.59,-89.98 107.2,-92.03 116.6,-96.91 117.59,-89.98"/>
</g>
<!-- Node3 -->
<g id="node4" class="node">
<title>Node3</title>
<g id="a_node4"><a xlink:href="a10078.html" target="_top" xlink:title="Similar to std::less, but allows two different types.">
<polygon fill="white" stroke="black" points="168.5,-47.5 168.5,-75.5 278.5,-75.5 278.5,-47.5 168.5,-47.5"/>
<text text-anchor="start" x="176.5" y="-64.3" font-family="Helvetica,sans-Serif" font-size="9.00">__gnu_parallel::_Less</text>
<text text-anchor="middle" x="223.5" y="-54.3" font-family="Helvetica,sans-Serif" font-size="9.00">&lt; _T1, _T2 &gt;</text>
</a>
</g>
</g>
<!-- Node0&#45;&gt;Node3 -->
<g id="edge3" class="edge">
<title>Node0&#45;&gt;Node3</title>
<path fill="none" stroke="midnightblue" d="M117.42,-75.89C134.14,-73.6 152.05,-71.15 168.25,-68.93"/>
<polygon fill="midnightblue" stroke="midnightblue" points="116.63,-72.46 107.2,-77.29 117.58,-79.4 116.63,-72.46"/>
</g>
<!-- Node4 -->
<g id="node5" class="node">
<title>Node4</title>
<g id="a_node5"><a xlink:href="a10282.html" target="_top" xlink:title="Compare __a pair of types lexicographically, descending.">
<polygon fill="white" stroke="black" points="143,-0.5 143,-28.5 304,-28.5 304,-0.5 143,-0.5"/>
<text text-anchor="start" x="151" y="-17.3" font-family="Helvetica,sans-Serif" font-size="9.00">__gnu_parallel::_Lexicographic</text>
<text text-anchor="middle" x="223.5" y="-7.3" font-family="Helvetica,sans-Serif" font-size="9.00">Reverse&lt; _T1, _T2, _Compare &gt;</text>
</a>
</g>
</g>
<!-- Node0&#45;&gt;Node4 -->
<g id="edge4" class="edge">
<title>Node0&#45;&gt;Node4</title>
<path fill="none" stroke="midnightblue" d="M87.83,-65.3C104.12,-56.4 124.23,-46.13 143,-38.5 151.81,-34.92 161.37,-31.58 170.69,-28.61"/>
<polygon fill="midnightblue" stroke="midnightblue" points="85.76,-62.44 78.71,-70.35 89.16,-68.57 85.76,-62.44"/>
</g>
</g>
</svg>
