<?xml version="1.0" encoding="UTF-8" standalone="no"?>
<!DOCTYPE svg PUBLIC "-//W3C//DTD SVG 1.1//EN"
 "http://www.w3.org/Graphics/SVG/1.1/DTD/svg11.dtd">
<!-- Generated by graphviz version 2.50.0 (0)
 -->
<!-- Title: Graphical Class Hierarchy Pages: 1 -->
<svg width="285pt" height="272pt"
 viewBox="0.00 0.00 285.00 272.00" xmlns="http://www.w3.org/2000/svg" xmlns:xlink="http://www.w3.org/1999/xlink">
<g id="graph0" class="graph" transform="scale(1 1) rotate(0) translate(4 268)">
<title>Graphical Class Hierarchy</title>
<polygon fill="white" stroke="transparent" points="-4,4 -4,-268 281,-268 281,4 -4,4"/>
<!-- Node0 -->
<g id="node1" class="node">
<title>Node0</title>
<g id="a_node1"><a xlink:href="a08646.html" target="_top" xlink:title=" ">
<polygon fill="white" stroke="black" points="0,-112.5 0,-150.5 111,-150.5 111,-112.5 0,-112.5"/>
<text text-anchor="start" x="8" y="-139.3" font-family="Helvetica,sans-Serif" font-size="9.00">std::iterator&lt; output</text>
<text text-anchor="start" x="8" y="-129.3" font-family="Helvetica,sans-Serif" font-size="9.00">_iterator_tag, void,</text>
<text text-anchor="middle" x="55.5" y="-119.3" font-family="Helvetica,sans-Serif" font-size="9.00"> void, void, void &gt;</text>
</a>
</g>
</g>
<!-- Node1 -->
<g id="node2" class="node">
<title>Node1</title>
<g id="a_node2"><a xlink:href="a08526.html" target="_top" xlink:title="Turns assignment into insertion.">
<polygon fill="white" stroke="black" points="149,-235.5 149,-263.5 275,-263.5 275,-235.5 149,-235.5"/>
<text text-anchor="start" x="157" y="-252.3" font-family="Helvetica,sans-Serif" font-size="9.00">std::back_insert_iterator</text>
<text text-anchor="middle" x="212" y="-242.3" font-family="Helvetica,sans-Serif" font-size="9.00">&lt; _Container &gt;</text>
</a>
</g>
</g>
<!-- Node0&#45;&gt;Node1 -->
<g id="edge1" class="edge">
<title>Node0&#45;&gt;Node1</title>
<path fill="none" stroke="midnightblue" d="M76.64,-158.76C93.42,-179.79 119.03,-208.28 147,-226.5 152.24,-229.92 158.06,-232.9 163.98,-235.49"/>
<polygon fill="midnightblue" stroke="midnightblue" points="79.36,-156.54 70.44,-150.82 73.84,-160.85 79.36,-156.54"/>
</g>
<!-- Node2 -->
<g id="node3" class="node">
<title>Node2</title>
<g id="a_node3"><a xlink:href="a08530.html" target="_top" xlink:title="Turns assignment into insertion.">
<polygon fill="white" stroke="black" points="149,-188.5 149,-216.5 275,-216.5 275,-188.5 149,-188.5"/>
<text text-anchor="start" x="157" y="-205.3" font-family="Helvetica,sans-Serif" font-size="9.00">std::front_insert_iterator</text>
<text text-anchor="middle" x="212" y="-195.3" font-family="Helvetica,sans-Serif" font-size="9.00">&lt; _Container &gt;</text>
</a>
</g>
</g>
<!-- Node0&#45;&gt;Node2 -->
<g id="edge2" class="edge">
<title>Node0&#45;&gt;Node2</title>
<path fill="none" stroke="midnightblue" d="M98.9,-155.59C113.87,-163.67 130.97,-172.41 147,-179.5 154.02,-182.6 161.6,-185.61 169,-188.38"/>
<polygon fill="midnightblue" stroke="midnightblue" points="100.34,-152.39 89.88,-150.67 96.99,-158.54 100.34,-152.39"/>
</g>
<!-- Node3 -->
<g id="node4" class="node">
<title>Node3</title>
<g id="a_node4"><a xlink:href="a08534.html" target="_top" xlink:title="Turns assignment into insertion.">
<polygon fill="white" stroke="black" points="162,-141.5 162,-169.5 262,-169.5 262,-141.5 162,-141.5"/>
<text text-anchor="start" x="170" y="-158.3" font-family="Helvetica,sans-Serif" font-size="9.00">std::insert_iterator</text>
<text text-anchor="middle" x="212" y="-148.3" font-family="Helvetica,sans-Serif" font-size="9.00">&lt; _Container &gt;</text>
</a>
</g>
</g>
<!-- Node0&#45;&gt;Node3 -->
<g id="edge3" class="edge">
<title>Node0&#45;&gt;Node3</title>
<path fill="none" stroke="midnightblue" d="M121.6,-141.61C135.11,-143.71 149.11,-145.89 161.93,-147.88"/>
<polygon fill="midnightblue" stroke="midnightblue" points="121.82,-138.11 111.41,-140.03 120.75,-145.02 121.82,-138.11"/>
</g>
<!-- Node4 -->
<g id="node5" class="node">
<title>Node4</title>
<g id="a_node5"><a xlink:href="a08882.html" target="_top" xlink:title="Provides output iterator semantics for streams.">
<polygon fill="white" stroke="black" points="150,-94.5 150,-122.5 274,-122.5 274,-94.5 150,-94.5"/>
<text text-anchor="start" x="158" y="-111.3" font-family="Helvetica,sans-Serif" font-size="9.00">std::ostream_iterator</text>
<text text-anchor="middle" x="212" y="-101.3" font-family="Helvetica,sans-Serif" font-size="9.00">&lt; _Tp, _CharT, _Traits &gt;</text>
</a>
</g>
</g>
<!-- Node0&#45;&gt;Node4 -->
<g id="edge4" class="edge">
<title>Node0&#45;&gt;Node4</title>
<path fill="none" stroke="midnightblue" d="M121.51,-121.82C130.94,-120.42 140.62,-118.98 149.97,-117.59"/>
<polygon fill="midnightblue" stroke="midnightblue" points="120.78,-118.39 111.41,-123.33 121.81,-125.32 120.78,-118.39"/>
</g>
<!-- Node5 -->
<g id="node6" class="node">
<title>Node5</title>
<g id="a_node6"><a xlink:href="a02774.html" target="_top" xlink:title="Provides output iterator semantics for streambufs.">
<polygon fill="white" stroke="black" points="149,-47.5 149,-75.5 275,-75.5 275,-47.5 149,-47.5"/>
<text text-anchor="start" x="157" y="-64.3" font-family="Helvetica,sans-Serif" font-size="9.00">std::ostreambuf_iterator</text>
<text text-anchor="middle" x="212" y="-54.3" font-family="Helvetica,sans-Serif" font-size="9.00">&lt; _CharT, _Traits &gt;</text>
</a>
</g>
</g>
<!-- Node0&#45;&gt;Node5 -->
<g id="edge5" class="edge">
<title>Node0&#45;&gt;Node5</title>
<path fill="none" stroke="midnightblue" d="M100.98,-107.65C115.49,-100.2 131.78,-92.2 147,-85.5 154.82,-82.06 163.3,-78.66 171.46,-75.54"/>
<polygon fill="midnightblue" stroke="midnightblue" points="99.01,-104.73 91.74,-112.44 102.23,-110.94 99.01,-104.73"/>
</g>
<!-- Node6 -->
<g id="node7" class="node">
<title>Node6</title>
<g id="a_node7"><a xlink:href="a08770.html" target="_top" xlink:title=" ">
<polygon fill="white" stroke="black" points="147,-0.5 147,-28.5 277,-28.5 277,-0.5 147,-0.5"/>
<text text-anchor="start" x="155" y="-17.3" font-family="Helvetica,sans-Serif" font-size="9.00">std::raw_storage_iterator</text>
<text text-anchor="middle" x="212" y="-7.3" font-family="Helvetica,sans-Serif" font-size="9.00">&lt; _OutputIterator, _Tp &gt;</text>
</a>
</g>
</g>
<!-- Node0&#45;&gt;Node6 -->
<g id="edge6" class="edge">
<title>Node0&#45;&gt;Node6</title>
<path fill="none" stroke="midnightblue" d="M77.36,-104.3C94.25,-83.84 119.65,-56.37 147,-38.5 152.76,-34.73 159.2,-31.44 165.71,-28.6"/>
<polygon fill="midnightblue" stroke="midnightblue" points="74.45,-102.33 70.88,-112.31 79.89,-106.73 74.45,-102.33"/>
</g>
</g>
</svg>
