<?xml version="1.0" encoding="UTF-8" standalone="no"?>
<!DOCTYPE svg PUBLIC "-//W3C//DTD SVG 1.1//EN"
 "http://www.w3.org/Graphics/SVG/1.1/DTD/svg11.dtd">
<!-- Generated by graphviz version 2.50.0 (0)
 -->
<!-- Title: Graphical Class Hierarchy Pages: 1 -->
<svg width="274pt" height="37pt"
 viewBox="0.00 0.00 274.00 37.00" xmlns="http://www.w3.org/2000/svg" xmlns:xlink="http://www.w3.org/1999/xlink">
<g id="graph0" class="graph" transform="scale(1 1) rotate(0) translate(4 33)">
<title>Graphical Class Hierarchy</title>
<polygon fill="white" stroke="transparent" points="-4,4 -4,-33 270,-33 270,4 -4,4"/>
<!-- Node0 -->
<g id="node1" class="node">
<title>Node0</title>
<g id="a_node1"><a xlink:href="a05946.html" target="_top" xlink:title=" ">
<polygon fill="white" stroke="black" points="0,-0.5 0,-28.5 134,-28.5 134,-0.5 0,-0.5"/>
<text text-anchor="start" x="8" y="-17.3" font-family="Helvetica,sans-Serif" font-size="9.00">std::_Fwd_list_base</text>
<text text-anchor="middle" x="67" y="-7.3" font-family="Helvetica,sans-Serif" font-size="9.00">&lt; _Tp, allocator&lt; _Tp &gt; &gt;</text>
</a>
</g>
</g>
<!-- Node1 -->
<g id="node2" class="node">
<title>Node1</title>
<g id="a_node2"><a xlink:href="a05954.html" target="_top" xlink:title="A standard container with linear time access to elements, and fixed time insertion/deletion at any po...">
<polygon fill="white" stroke="black" points="170,-0.5 170,-28.5 266,-28.5 266,-0.5 170,-0.5"/>
<text text-anchor="start" x="178" y="-17.3" font-family="Helvetica,sans-Serif" font-size="9.00">std::forward_list&lt;</text>
<text text-anchor="middle" x="218" y="-7.3" font-family="Helvetica,sans-Serif" font-size="9.00"> _Tp, _Alloc &gt;</text>
</a>
</g>
</g>
<!-- Node0&#45;&gt;Node1 -->
<g id="edge1" class="edge">
<title>Node0&#45;&gt;Node1</title>
<path fill="none" stroke="#8b1a1a" d="M144.36,-14.5C153.01,-14.5 161.62,-14.5 169.74,-14.5"/>
<polygon fill="#8b1a1a" stroke="#8b1a1a" points="144.22,-11 134.22,-14.5 144.22,-18 144.22,-11"/>
</g>
</g>
</svg>
