<?xml version="1.0" encoding="UTF-8" standalone="no"?>
<!DOCTYPE svg PUBLIC "-//W3C//DTD SVG 1.1//EN"
 "http://www.w3.org/Graphics/SVG/1.1/DTD/svg11.dtd">
<!-- Generated by graphviz version 2.50.0 (0)
 -->
<!-- Title: Graphical Class Hierarchy Pages: 1 -->
<svg width="297pt" height="47pt"
 viewBox="0.00 0.00 297.00 47.00" xmlns="http://www.w3.org/2000/svg" xmlns:xlink="http://www.w3.org/1999/xlink">
<g id="graph0" class="graph" transform="scale(1 1) rotate(0) translate(4 43)">
<title>Graphical Class Hierarchy</title>
<polygon fill="white" stroke="transparent" points="-4,4 -4,-43 293,-43 293,4 -4,4"/>
<!-- Node0 -->
<g id="node1" class="node">
<title>Node0</title>
<g id="a_node1"><a xlink:href="a08610.html" target="_top" xlink:title=" ">
<polygon fill="white" stroke="black" points="0,-5.5 0,-33.5 112,-33.5 112,-5.5 0,-5.5"/>
<text text-anchor="start" x="8" y="-22.3" font-family="Helvetica,sans-Serif" font-size="9.00">std::pair&lt; _Iterator1,</text>
<text text-anchor="middle" x="56" y="-12.3" font-family="Helvetica,sans-Serif" font-size="9.00"> _Iterator2 &gt;</text>
</a>
</g>
</g>
<!-- Node1 -->
<g id="node2" class="node">
<title>Node1</title>
<g id="a_node2"><a xlink:href="a10206.html" target="_top" xlink:title="A pair of iterators. The usual iterator operations are applied to both child iterators.">
<polygon fill="white" stroke="black" points="148,-0.5 148,-38.5 289,-38.5 289,-0.5 148,-0.5"/>
<text text-anchor="start" x="156" y="-27.3" font-family="Helvetica,sans-Serif" font-size="9.00">__gnu_parallel::_Iterator</text>
<text text-anchor="start" x="156" y="-17.3" font-family="Helvetica,sans-Serif" font-size="9.00">Pair&lt; _Iterator1, _Iterator2,</text>
<text text-anchor="middle" x="218.5" y="-7.3" font-family="Helvetica,sans-Serif" font-size="9.00"> _IteratorCategory &gt;</text>
</a>
</g>
</g>
<!-- Node0&#45;&gt;Node1 -->
<g id="edge1" class="edge">
<title>Node0&#45;&gt;Node1</title>
<path fill="none" stroke="midnightblue" d="M122.39,-19.5C130.82,-19.5 139.49,-19.5 147.99,-19.5"/>
<polygon fill="midnightblue" stroke="midnightblue" points="122.24,-16 112.23,-19.5 122.23,-23 122.24,-16"/>
</g>
</g>
</svg>
