<?xml version="1.0" encoding="UTF-8" standalone="no"?>
<!DOCTYPE svg PUBLIC "-//W3C//DTD SVG 1.1//EN"
 "http://www.w3.org/Graphics/SVG/1.1/DTD/svg11.dtd">
<!-- Generated by graphviz version 2.50.0 (0)
 -->
<!-- Title: Graphical Class Hierarchy Pages: 1 -->
<svg width="337pt" height="84pt"
 viewBox="0.00 0.00 337.00 84.00" xmlns="http://www.w3.org/2000/svg" xmlns:xlink="http://www.w3.org/1999/xlink">
<g id="graph0" class="graph" transform="scale(1 1) rotate(0) translate(4 80)">
<title>Graphical Class Hierarchy</title>
<polygon fill="white" stroke="transparent" points="-4,4 -4,-80 333,-80 333,4 -4,4"/>
<!-- Node0 -->
<g id="node1" class="node">
<title>Node0</title>
<g id="a_node1"><a xlink:href="a06486.html" target="_top" xlink:title=" ">
<polygon fill="white" stroke="black" points="0,-23.5 0,-51.5 144,-51.5 144,-23.5 0,-23.5"/>
<text text-anchor="start" x="8" y="-40.3" font-family="Helvetica,sans-Serif" font-size="9.00">std::_Node_handle_common</text>
<text text-anchor="middle" x="72" y="-30.3" font-family="Helvetica,sans-Serif" font-size="9.00">&lt; _Value, _NodeAlloc &gt;</text>
</a>
</g>
</g>
<!-- Node1 -->
<g id="node2" class="node">
<title>Node1</title>
<g id="a_node2"><a xlink:href="a06490.html" target="_top" xlink:title="Node handle type for maps.">
<polygon fill="white" stroke="black" points="184,-47.5 184,-75.5 325,-75.5 325,-47.5 184,-47.5"/>
<text text-anchor="start" x="192" y="-64.3" font-family="Helvetica,sans-Serif" font-size="9.00">std::_Node_handle&lt;</text>
<text text-anchor="middle" x="254.5" y="-54.3" font-family="Helvetica,sans-Serif" font-size="9.00"> _Key, _Value, _NodeAlloc &gt;</text>
</a>
</g>
</g>
<!-- Node0&#45;&gt;Node1 -->
<g id="edge1" class="edge">
<title>Node0&#45;&gt;Node1</title>
<path fill="none" stroke="midnightblue" d="M154.01,-48.27C164.01,-49.6 174.16,-50.95 183.96,-52.25"/>
<polygon fill="midnightblue" stroke="midnightblue" points="154.45,-44.8 144.08,-46.95 153.53,-51.74 154.45,-44.8"/>
</g>
<!-- Node2 -->
<g id="node3" class="node">
<title>Node2</title>
<g id="a_node3"><a xlink:href="a06494.html" target="_top" xlink:title="Node handle type for sets.">
<polygon fill="white" stroke="black" points="180,-0.5 180,-28.5 329,-28.5 329,-0.5 180,-0.5"/>
<text text-anchor="start" x="188" y="-17.3" font-family="Helvetica,sans-Serif" font-size="9.00">std::_Node_handle&lt;</text>
<text text-anchor="middle" x="254.5" y="-7.3" font-family="Helvetica,sans-Serif" font-size="9.00"> _Value, _Value, _NodeAlloc &gt;</text>
</a>
</g>
</g>
<!-- Node0&#45;&gt;Node2 -->
<g id="edge2" class="edge">
<title>Node0&#45;&gt;Node2</title>
<path fill="none" stroke="midnightblue" d="M154.07,-27.17C162.65,-26.08 171.33,-24.97 179.81,-23.89"/>
<polygon fill="midnightblue" stroke="midnightblue" points="153.56,-23.71 144.08,-28.44 154.44,-30.65 153.56,-23.71"/>
</g>
</g>
</svg>
