<?xml version="1.0" encoding="UTF-8" standalone="no"?>
<!DOCTYPE svg PUBLIC "-//W3C//DTD SVG 1.1//EN"
 "http://www.w3.org/Graphics/SVG/1.1/DTD/svg11.dtd">
<!-- Generated by graphviz version 2.50.0 (0)
 -->
<!-- Title: Graphical Class Hierarchy Pages: 1 -->
<svg width="414pt" height="37pt"
 viewBox="0.00 0.00 414.00 37.00" xmlns="http://www.w3.org/2000/svg" xmlns:xlink="http://www.w3.org/1999/xlink">
<g id="graph0" class="graph" transform="scale(1 1) rotate(0) translate(4 33)">
<title>Graphical Class Hierarchy</title>
<polygon fill="white" stroke="transparent" points="-4,4 -4,-33 410,-33 410,4 -4,4"/>
<!-- Node0 -->
<g id="node1" class="node">
<title>Node0</title>
<g id="a_node1"><a xlink:href="a05530.html" target="_top" xlink:title="Base class used to implement std::char_traits.">
<polygon fill="white" stroke="black" points="0,-0.5 0,-28.5 118,-28.5 118,-0.5 0,-0.5"/>
<text text-anchor="start" x="8" y="-17.3" font-family="Helvetica,sans-Serif" font-size="9.00">__gnu_cxx::char_traits</text>
<text text-anchor="middle" x="59" y="-7.3" font-family="Helvetica,sans-Serif" font-size="9.00">&lt; _CharT &gt;</text>
</a>
</g>
</g>
<!-- Node1 -->
<g id="node2" class="node">
<title>Node1</title>
<g id="a_node2"><a xlink:href="a05534.html" target="_top" xlink:title="Basis for explicit traits specializations.">
<polygon fill="white" stroke="black" points="154,-0.5 154,-28.5 249,-28.5 249,-0.5 154,-0.5"/>
<text text-anchor="start" x="162" y="-17.3" font-family="Helvetica,sans-Serif" font-size="9.00">std::char_traits&lt; </text>
<text text-anchor="middle" x="201.5" y="-7.3" font-family="Helvetica,sans-Serif" font-size="9.00">_CharT &gt;</text>
</a>
</g>
</g>
<!-- Node0&#45;&gt;Node1 -->
<g id="edge1" class="edge">
<title>Node0&#45;&gt;Node1</title>
<path fill="none" stroke="midnightblue" d="M128.37,-14.5C136.93,-14.5 145.53,-14.5 153.65,-14.5"/>
<polygon fill="midnightblue" stroke="midnightblue" points="128.36,-11 118.36,-14.5 128.36,-18 128.36,-11"/>
</g>
<!-- Node2 -->
<g id="node3" class="node">
<title>Node2</title>
<g id="a_node3"><a xlink:href="a12030.html" target="_top" xlink:title="encoding_char_traits">
<polygon fill="white" stroke="black" points="285,-0.5 285,-28.5 406,-28.5 406,-0.5 285,-0.5"/>
<text text-anchor="start" x="293" y="-17.3" font-family="Helvetica,sans-Serif" font-size="9.00">__gnu_cxx::encoding</text>
<text text-anchor="middle" x="345.5" y="-7.3" font-family="Helvetica,sans-Serif" font-size="9.00">_char_traits&lt; _CharT &gt;</text>
</a>
</g>
</g>
<!-- Node1&#45;&gt;Node2 -->
<g id="edge2" class="edge">
<title>Node1&#45;&gt;Node2</title>
<path fill="none" stroke="midnightblue" d="M259.47,-14.5C267.87,-14.5 276.55,-14.5 285,-14.5"/>
<polygon fill="midnightblue" stroke="midnightblue" points="259.39,-11 249.39,-14.5 259.39,-18 259.39,-11"/>
</g>
</g>
</svg>
