<?xml version="1.0" encoding="UTF-8" standalone="no"?>
<!DOCTYPE svg PUBLIC "-//W3C//DTD SVG 1.1//EN"
 "http://www.w3.org/Graphics/SVG/1.1/DTD/svg11.dtd">
<!-- Generated by graphviz version 2.50.0 (0)
 -->
<!-- Title: Graphical Class Hierarchy Pages: 1 -->
<svg width="308pt" height="161pt"
 viewBox="0.00 0.00 308.00 161.00" xmlns="http://www.w3.org/2000/svg" xmlns:xlink="http://www.w3.org/1999/xlink">
<g id="graph0" class="graph" transform="scale(1 1) rotate(0) translate(4 157)">
<title>Graphical Class Hierarchy</title>
<polygon fill="white" stroke="transparent" points="-4,4 -4,-157 304,-157 304,4 -4,4"/>
<!-- Node0 -->
<g id="node1" class="node">
<title>Node0</title>
<g id="a_node1"><a xlink:href="a13578.html" target="_top" xlink:title="Node base.">
<polygon fill="white" stroke="black" points="0,-57.5 0,-95.5 145,-95.5 145,-57.5 0,-57.5"/>
<text text-anchor="start" x="8" y="-84.3" font-family="Helvetica,sans-Serif" font-size="9.00">__gnu_pbds::detail</text>
<text text-anchor="start" x="8" y="-74.3" font-family="Helvetica,sans-Serif" font-size="9.00">::pat_trie_base::_Node</text>
<text text-anchor="middle" x="72.5" y="-64.3" font-family="Helvetica,sans-Serif" font-size="9.00">_base&lt; _ATraits, Metadata &gt;</text>
</a>
</g>
</g>
<!-- Node1 -->
<g id="node2" class="node">
<title>Node1</title>
<g id="a_node2"><a xlink:href="a13582.html" target="_top" xlink:title="Head node for PATRICIA tree.">
<polygon fill="white" stroke="black" points="181,-114.5 181,-152.5 300,-152.5 300,-114.5 181,-114.5"/>
<text text-anchor="start" x="189" y="-141.3" font-family="Helvetica,sans-Serif" font-size="9.00">__gnu_pbds::detail</text>
<text text-anchor="start" x="189" y="-131.3" font-family="Helvetica,sans-Serif" font-size="9.00">::pat_trie_base::_Head</text>
<text text-anchor="middle" x="240.5" y="-121.3" font-family="Helvetica,sans-Serif" font-size="9.00">&lt; _ATraits, Metadata &gt;</text>
</a>
</g>
</g>
<!-- Node0&#45;&gt;Node1 -->
<g id="edge1" class="edge">
<title>Node0&#45;&gt;Node1</title>
<path fill="none" stroke="midnightblue" d="M138.89,-98.95C153.78,-104.07 169.47,-109.45 183.91,-114.41"/>
<polygon fill="midnightblue" stroke="midnightblue" points="139.83,-95.58 129.24,-95.64 137.56,-102.2 139.83,-95.58"/>
</g>
<!-- Node2 -->
<g id="node3" class="node">
<title>Node2</title>
<g id="a_node3"><a xlink:href="a13590.html" target="_top" xlink:title="Internal node type, PATRICIA tree.">
<polygon fill="white" stroke="black" points="181,-57.5 181,-95.5 300,-95.5 300,-57.5 181,-57.5"/>
<text text-anchor="start" x="189" y="-84.3" font-family="Helvetica,sans-Serif" font-size="9.00">__gnu_pbds::detail</text>
<text text-anchor="start" x="189" y="-74.3" font-family="Helvetica,sans-Serif" font-size="9.00">::pat_trie_base::_Inode</text>
<text text-anchor="middle" x="240.5" y="-64.3" font-family="Helvetica,sans-Serif" font-size="9.00">&lt; _ATraits, Metadata &gt;</text>
</a>
</g>
</g>
<!-- Node0&#45;&gt;Node2 -->
<g id="edge2" class="edge">
<title>Node0&#45;&gt;Node2</title>
<path fill="none" stroke="midnightblue" d="M155.38,-76.5C163.95,-76.5 172.53,-76.5 180.77,-76.5"/>
<polygon fill="midnightblue" stroke="midnightblue" points="155.34,-73 145.34,-76.5 155.34,-80 155.34,-73"/>
</g>
<!-- Node3 -->
<g id="node4" class="node">
<title>Node3</title>
<g id="a_node4"><a xlink:href="a13586.html" target="_top" xlink:title="Leaf node for PATRICIA tree.">
<polygon fill="white" stroke="black" points="181,-0.5 181,-38.5 300,-38.5 300,-0.5 181,-0.5"/>
<text text-anchor="start" x="189" y="-27.3" font-family="Helvetica,sans-Serif" font-size="9.00">__gnu_pbds::detail</text>
<text text-anchor="start" x="189" y="-17.3" font-family="Helvetica,sans-Serif" font-size="9.00">::pat_trie_base::_Leaf</text>
<text text-anchor="middle" x="240.5" y="-7.3" font-family="Helvetica,sans-Serif" font-size="9.00">&lt; _ATraits, Metadata &gt;</text>
</a>
</g>
</g>
<!-- Node0&#45;&gt;Node3 -->
<g id="edge3" class="edge">
<title>Node0&#45;&gt;Node3</title>
<path fill="none" stroke="midnightblue" d="M138.89,-54.05C153.78,-48.93 169.47,-43.55 183.91,-38.59"/>
<polygon fill="midnightblue" stroke="midnightblue" points="137.56,-50.8 129.24,-57.36 139.83,-57.42 137.56,-50.8"/>
</g>
</g>
</svg>
