<?xml version="1.0" encoding="UTF-8" standalone="no"?>
<!DOCTYPE svg PUBLIC "-//W3C//DTD SVG 1.1//EN"
 "http://www.w3.org/Graphics/SVG/1.1/DTD/svg11.dtd">
<!-- Generated by graphviz version 2.50.0 (0)
 -->
<!-- Title: Graphical Class Hierarchy Pages: 1 -->
<svg width="868pt" height="464pt"
 viewBox="0.00 0.00 868.00 464.00" xmlns="http://www.w3.org/2000/svg" xmlns:xlink="http://www.w3.org/1999/xlink">
<g id="graph0" class="graph" transform="scale(1 1) rotate(0) translate(4 460)">
<title>Graphical Class Hierarchy</title>
<polygon fill="white" stroke="transparent" points="-4,4 -4,-460 864,-460 864,4 -4,4"/>
<!-- Node0 -->
<g id="node1" class="node">
<title>Node0</title>
<g id="a_node1"><a xlink:href="a12922.html" target="_top" xlink:title="Base data structure tag.">
<polygon fill="white" stroke="black" points="0,-126.5 0,-144.5 139,-144.5 139,-126.5 0,-126.5"/>
<text text-anchor="middle" x="69.5" y="-133.3" font-family="Helvetica,sans-Serif" font-size="9.00">__gnu_pbds::container_tag</text>
</a>
</g>
</g>
<!-- Node1 -->
<g id="node2" class="node">
<title>Node1</title>
<g id="a_node2"><a xlink:href="a12934.html" target="_top" xlink:title="Basic associative&#45;container.">
<polygon fill="white" stroke="black" points="175,-280.5 175,-298.5 320,-298.5 320,-280.5 175,-280.5"/>
<text text-anchor="middle" x="247.5" y="-287.3" font-family="Helvetica,sans-Serif" font-size="9.00">__gnu_pbds::associative_tag</text>
</a>
</g>
</g>
<!-- Node0&#45;&gt;Node1 -->
<g id="edge1" class="edge">
<title>Node0&#45;&gt;Node1</title>
<path fill="none" stroke="midnightblue" d="M88.89,-151.59C125.56,-183.68 206.74,-254.71 235.85,-280.18"/>
<polygon fill="midnightblue" stroke="midnightblue" points="90.81,-148.62 80.98,-144.67 86.2,-153.89 90.81,-148.62"/>
</g>
<!-- Node13 -->
<g id="node14" class="node">
<title>Node13</title>
<g id="a_node14"><a xlink:href="a12982.html" target="_top" xlink:title="Basic priority&#45;queue.">
<polygon fill="white" stroke="black" points="193,-121.5 193,-149.5 302,-149.5 302,-121.5 193,-121.5"/>
<text text-anchor="start" x="201" y="-138.3" font-family="Helvetica,sans-Serif" font-size="9.00">__gnu_pbds::priority</text>
<text text-anchor="middle" x="247.5" y="-128.3" font-family="Helvetica,sans-Serif" font-size="9.00">_queue_tag</text>
</a>
</g>
</g>
<!-- Node0&#45;&gt;Node13 -->
<g id="edge13" class="edge">
<title>Node0&#45;&gt;Node13</title>
<path fill="none" stroke="midnightblue" d="M149.19,-135.5C163.95,-135.5 179.07,-135.5 192.85,-135.5"/>
<polygon fill="midnightblue" stroke="midnightblue" points="149.05,-132 139.05,-135.5 149.05,-139 149.05,-132"/>
</g>
<!-- Node19 -->
<g id="node20" class="node">
<title>Node19</title>
<g id="a_node20"><a xlink:href="a12926.html" target="_top" xlink:title="Basic sequence.">
<polygon fill="white" stroke="black" points="177.5,-42.5 177.5,-60.5 317.5,-60.5 317.5,-42.5 177.5,-42.5"/>
<text text-anchor="middle" x="247.5" y="-49.3" font-family="Helvetica,sans-Serif" font-size="9.00">__gnu_pbds::sequence_tag</text>
</a>
</g>
</g>
<!-- Node0&#45;&gt;Node19 -->
<g id="edge19" class="edge">
<title>Node0&#45;&gt;Node19</title>
<path fill="none" stroke="midnightblue" d="M98.72,-122.03C134.9,-104.77 196.65,-75.29 227.62,-60.51"/>
<polygon fill="midnightblue" stroke="midnightblue" points="97.19,-118.88 89.67,-126.35 100.2,-125.2 97.19,-118.88"/>
</g>
<!-- Node2 -->
<g id="node3" class="node">
<title>Node2</title>
<g id="a_node3"><a xlink:href="a12950.html" target="_top" xlink:title="Basic branch structure.">
<polygon fill="white" stroke="black" points="356,-336.5 356,-354.5 512,-354.5 512,-336.5 356,-336.5"/>
<text text-anchor="middle" x="434" y="-343.3" font-family="Helvetica,sans-Serif" font-size="9.00">__gnu_pbds::basic_branch_tag</text>
</a>
</g>
</g>
<!-- Node1&#45;&gt;Node2 -->
<g id="edge2" class="edge">
<title>Node1&#45;&gt;Node2</title>
<path fill="none" stroke="midnightblue" d="M281.22,-302.12C302.36,-310.02 330.58,-320.06 356,-327.5 367.07,-330.74 379.16,-333.79 390.42,-336.43"/>
<polygon fill="midnightblue" stroke="midnightblue" points="282.34,-298.8 271.74,-298.55 279.87,-305.35 282.34,-298.8"/>
</g>
<!-- Node9 -->
<g id="node10" class="node">
<title>Node9</title>
<g id="a_node10"><a xlink:href="a12938.html" target="_top" xlink:title="Basic hash structure.">
<polygon fill="white" stroke="black" points="361,-299.5 361,-317.5 507,-317.5 507,-299.5 361,-299.5"/>
<text text-anchor="middle" x="434" y="-306.3" font-family="Helvetica,sans-Serif" font-size="9.00">__gnu_pbds::basic_hash_tag</text>
</a>
</g>
</g>
<!-- Node1&#45;&gt;Node9 -->
<g id="edge9" class="edge">
<title>Node1&#45;&gt;Node9</title>
<path fill="none" stroke="midnightblue" d="M330.22,-297.92C340.42,-298.97 350.79,-300.03 360.84,-301.07"/>
<polygon fill="midnightblue" stroke="midnightblue" points="330.4,-294.42 320.1,-296.87 329.69,-301.38 330.4,-294.42"/>
</g>
<!-- Node12 -->
<g id="node13" class="node">
<title>Node12</title>
<g id="a_node13"><a xlink:href="a12978.html" target="_top" xlink:title="List&#45;update.">
<polygon fill="white" stroke="black" points="361,-262.5 361,-280.5 507,-280.5 507,-262.5 361,-262.5"/>
<text text-anchor="middle" x="434" y="-269.3" font-family="Helvetica,sans-Serif" font-size="9.00">__gnu_pbds::list_update_tag</text>
</a>
</g>
</g>
<!-- Node1&#45;&gt;Node12 -->
<g id="edge12" class="edge">
<title>Node1&#45;&gt;Node12</title>
<path fill="none" stroke="midnightblue" d="M330.22,-281.53C340.42,-280.53 350.79,-279.52 360.84,-278.54"/>
<polygon fill="midnightblue" stroke="midnightblue" points="329.71,-278.06 320.1,-282.51 330.39,-285.03 329.71,-278.06"/>
</g>
<!-- Node3 -->
<g id="node4" class="node">
<title>Node3</title>
<g id="a_node4"><a xlink:href="a12954.html" target="_top" xlink:title="Basic tree structure.">
<polygon fill="white" stroke="black" points="558,-391.5 558,-409.5 672,-409.5 672,-391.5 558,-391.5"/>
<text text-anchor="middle" x="615" y="-398.3" font-family="Helvetica,sans-Serif" font-size="9.00">__gnu_pbds::tree_tag</text>
</a>
</g>
</g>
<!-- Node2&#45;&gt;Node3 -->
<g id="edge3" class="edge">
<title>Node2&#45;&gt;Node3</title>
<path fill="none" stroke="midnightblue" d="M474.42,-357.61C507.71,-367.84 554.64,-382.26 584.7,-391.5"/>
<polygon fill="midnightblue" stroke="midnightblue" points="475.15,-354.17 464.56,-354.58 473.09,-360.86 475.15,-354.17"/>
</g>
<!-- Node7 -->
<g id="node8" class="node">
<title>Node7</title>
<g id="a_node8"><a xlink:href="a12970.html" target="_top" xlink:title="Basic trie structure.">
<polygon fill="white" stroke="black" points="559.5,-336.5 559.5,-354.5 670.5,-354.5 670.5,-336.5 559.5,-336.5"/>
<text text-anchor="middle" x="615" y="-343.3" font-family="Helvetica,sans-Serif" font-size="9.00">__gnu_pbds::trie_tag</text>
</a>
</g>
</g>
<!-- Node2&#45;&gt;Node7 -->
<g id="edge7" class="edge">
<title>Node2&#45;&gt;Node7</title>
<path fill="none" stroke="midnightblue" d="M522.32,-345.5C534.97,-345.5 547.67,-345.5 559.42,-345.5"/>
<polygon fill="midnightblue" stroke="midnightblue" points="522.21,-342 512.21,-345.5 522.21,-349 522.21,-342"/>
</g>
<!-- Node4 -->
<g id="node5" class="node">
<title>Node4</title>
<g id="a_node5"><a xlink:href="a12966.html" target="_top" xlink:title="Ordered&#45;vector tree.">
<polygon fill="white" stroke="black" points="724.5,-437.5 724.5,-455.5 853.5,-455.5 853.5,-437.5 724.5,-437.5"/>
<text text-anchor="middle" x="789" y="-444.3" font-family="Helvetica,sans-Serif" font-size="9.00">__gnu_pbds::ov_tree_tag</text>
</a>
</g>
</g>
<!-- Node3&#45;&gt;Node4 -->
<g id="edge4" class="edge">
<title>Node3&#45;&gt;Node4</title>
<path fill="none" stroke="midnightblue" d="M658.37,-412.3C676.69,-417.35 698.38,-423.29 718,-428.5 729.16,-431.47 741.34,-434.62 752.36,-437.45"/>
<polygon fill="midnightblue" stroke="midnightblue" points="659.15,-408.88 648.58,-409.59 657.28,-415.63 659.15,-408.88"/>
</g>
<!-- Node5 -->
<g id="node6" class="node">
<title>Node5</title>
<g id="a_node6"><a xlink:href="a12958.html" target="_top" xlink:title="Red&#45;black tree.">
<polygon fill="white" stroke="black" points="725,-400.5 725,-418.5 853,-418.5 853,-400.5 725,-400.5"/>
<text text-anchor="middle" x="789" y="-407.3" font-family="Helvetica,sans-Serif" font-size="9.00">__gnu_pbds::rb_tree_tag</text>
</a>
</g>
</g>
<!-- Node3&#45;&gt;Node5 -->
<g id="edge5" class="edge">
<title>Node3&#45;&gt;Node5</title>
<path fill="none" stroke="midnightblue" d="M682.31,-403.97C696.24,-404.7 710.89,-405.47 724.71,-406.19"/>
<polygon fill="midnightblue" stroke="midnightblue" points="682.49,-400.47 672.32,-403.45 682.12,-407.46 682.49,-400.47"/>
</g>
<!-- Node6 -->
<g id="node7" class="node">
<title>Node6</title>
<g id="a_node7"><a xlink:href="a12962.html" target="_top" xlink:title="Splay tree.">
<polygon fill="white" stroke="black" points="718,-363.5 718,-381.5 860,-381.5 860,-363.5 718,-363.5"/>
<text text-anchor="middle" x="789" y="-370.3" font-family="Helvetica,sans-Serif" font-size="9.00">__gnu_pbds::splay_tree_tag</text>
</a>
</g>
</g>
<!-- Node3&#45;&gt;Node6 -->
<g id="edge6" class="edge">
<title>Node3&#45;&gt;Node6</title>
<path fill="none" stroke="midnightblue" d="M681.64,-389.82C698.39,-387.09 716.24,-384.18 732.44,-381.54"/>
<polygon fill="midnightblue" stroke="midnightblue" points="680.68,-386.43 671.37,-391.49 681.8,-393.33 680.68,-386.43"/>
</g>
<!-- Node8 -->
<g id="node9" class="node">
<title>Node8</title>
<g id="a_node9"><a xlink:href="a12974.html" target="_top" xlink:title="PATRICIA trie.">
<polygon fill="white" stroke="black" points="723.5,-326.5 723.5,-344.5 854.5,-344.5 854.5,-326.5 723.5,-326.5"/>
<text text-anchor="middle" x="789" y="-333.3" font-family="Helvetica,sans-Serif" font-size="9.00">__gnu_pbds::pat_trie_tag</text>
</a>
</g>
</g>
<!-- Node7&#45;&gt;Node8 -->
<g id="edge8" class="edge">
<title>Node7&#45;&gt;Node8</title>
<path fill="none" stroke="midnightblue" d="M681.28,-341.7C695.08,-340.9 709.65,-340.06 723.42,-339.25"/>
<polygon fill="midnightblue" stroke="midnightblue" points="680.67,-338.23 670.89,-342.31 681.08,-345.22 680.67,-338.23"/>
</g>
<!-- Node10 -->
<g id="node11" class="node">
<title>Node10</title>
<g id="a_node11"><a xlink:href="a12942.html" target="_top" xlink:title="Collision&#45;chaining hash.">
<polygon fill="white" stroke="black" points="548.5,-299.5 548.5,-317.5 681.5,-317.5 681.5,-299.5 548.5,-299.5"/>
<text text-anchor="middle" x="615" y="-306.3" font-family="Helvetica,sans-Serif" font-size="9.00">__gnu_pbds::cc_hash_tag</text>
</a>
</g>
</g>
<!-- Node9&#45;&gt;Node10 -->
<g id="edge10" class="edge">
<title>Node9&#45;&gt;Node10</title>
<path fill="none" stroke="midnightblue" d="M517.07,-308.5C527.59,-308.5 538.26,-308.5 548.48,-308.5"/>
<polygon fill="midnightblue" stroke="midnightblue" points="517.03,-305 507.03,-308.5 517.03,-312 517.03,-305"/>
</g>
<!-- Node11 -->
<g id="node12" class="node">
<title>Node11</title>
<g id="a_node12"><a xlink:href="a12946.html" target="_top" xlink:title="General&#45;probing hash.">
<polygon fill="white" stroke="black" points="548,-262.5 548,-280.5 682,-280.5 682,-262.5 548,-262.5"/>
<text text-anchor="middle" x="615" y="-269.3" font-family="Helvetica,sans-Serif" font-size="9.00">__gnu_pbds::gp_hash_tag</text>
</a>
</g>
</g>
<!-- Node9&#45;&gt;Node11 -->
<g id="edge11" class="edge">
<title>Node9&#45;&gt;Node11</title>
<path fill="none" stroke="midnightblue" d="M488.88,-297.36C514.94,-291.98 545.8,-285.6 570.35,-280.52"/>
<polygon fill="midnightblue" stroke="midnightblue" points="487.87,-294 478.79,-299.45 489.29,-300.85 487.87,-294"/>
</g>
<!-- Node14 -->
<g id="node15" class="node">
<title>Node14</title>
<g id="a_node15"><a xlink:href="a12998.html" target="_top" xlink:title="Binary&#45;heap (array&#45;based).">
<polygon fill="white" stroke="black" points="381.5,-215.5 381.5,-243.5 486.5,-243.5 486.5,-215.5 381.5,-215.5"/>
<text text-anchor="start" x="389.5" y="-232.3" font-family="Helvetica,sans-Serif" font-size="9.00">__gnu_pbds::binary</text>
<text text-anchor="middle" x="434" y="-222.3" font-family="Helvetica,sans-Serif" font-size="9.00">_heap_tag</text>
</a>
</g>
</g>
<!-- Node13&#45;&gt;Node14 -->
<g id="edge14" class="edge">
<title>Node13&#45;&gt;Node14</title>
<path fill="none" stroke="midnightblue" d="M274.73,-155.53C295.79,-170.87 326.6,-191.67 356,-205.5 363.98,-209.25 372.7,-212.61 381.31,-215.55"/>
<polygon fill="midnightblue" stroke="midnightblue" points="276.74,-152.66 266.61,-149.54 272.58,-158.29 276.74,-152.66"/>
</g>
<!-- Node15 -->
<g id="node16" class="node">
<title>Node15</title>
<g id="a_node16"><a xlink:href="a12990.html" target="_top" xlink:title="Binomial&#45;heap.">
<polygon fill="white" stroke="black" points="376.5,-168.5 376.5,-196.5 491.5,-196.5 491.5,-168.5 376.5,-168.5"/>
<text text-anchor="start" x="384.5" y="-185.3" font-family="Helvetica,sans-Serif" font-size="9.00">__gnu_pbds::binomial</text>
<text text-anchor="middle" x="434" y="-175.3" font-family="Helvetica,sans-Serif" font-size="9.00">_heap_tag</text>
</a>
</g>
</g>
<!-- Node13&#45;&gt;Node15 -->
<g id="edge15" class="edge">
<title>Node13&#45;&gt;Node15</title>
<path fill="none" stroke="midnightblue" d="M312.3,-151.75C333.62,-157.18 357.18,-163.19 377.79,-168.44"/>
<polygon fill="midnightblue" stroke="midnightblue" points="312.92,-148.3 302.36,-149.22 311.19,-155.08 312.92,-148.3"/>
</g>
<!-- Node16 -->
<g id="node17" class="node">
<title>Node16</title>
<g id="a_node17"><a xlink:href="a12986.html" target="_top" xlink:title="Pairing&#45;heap.">
<polygon fill="white" stroke="black" points="380,-121.5 380,-149.5 488,-149.5 488,-121.5 380,-121.5"/>
<text text-anchor="start" x="388" y="-138.3" font-family="Helvetica,sans-Serif" font-size="9.00">__gnu_pbds::pairing</text>
<text text-anchor="middle" x="434" y="-128.3" font-family="Helvetica,sans-Serif" font-size="9.00">_heap_tag</text>
</a>
</g>
</g>
<!-- Node13&#45;&gt;Node16 -->
<g id="edge16" class="edge">
<title>Node13&#45;&gt;Node16</title>
<path fill="none" stroke="midnightblue" d="M312.57,-135.5C334.48,-135.5 358.74,-135.5 379.71,-135.5"/>
<polygon fill="midnightblue" stroke="midnightblue" points="312.36,-132 302.36,-135.5 312.36,-139 312.36,-132"/>
</g>
<!-- Node17 -->
<g id="node18" class="node">
<title>Node17</title>
<g id="a_node18"><a xlink:href="a12994.html" target="_top" xlink:title="Redundant&#45;counter binomial&#45;heap.">
<polygon fill="white" stroke="black" points="370,-74.5 370,-102.5 498,-102.5 498,-74.5 370,-74.5"/>
<text text-anchor="start" x="378" y="-91.3" font-family="Helvetica,sans-Serif" font-size="9.00">__gnu_pbds::rc_binomial</text>
<text text-anchor="middle" x="434" y="-81.3" font-family="Helvetica,sans-Serif" font-size="9.00">_heap_tag</text>
</a>
</g>
</g>
<!-- Node13&#45;&gt;Node17 -->
<g id="edge17" class="edge">
<title>Node13&#45;&gt;Node17</title>
<path fill="none" stroke="midnightblue" d="M312.3,-119.25C333.62,-113.82 357.18,-107.81 377.79,-102.56"/>
<polygon fill="midnightblue" stroke="midnightblue" points="311.19,-115.92 302.36,-121.78 312.92,-122.7 311.19,-115.92"/>
</g>
<!-- Node18 -->
<g id="node19" class="node">
<title>Node18</title>
<g id="a_node19"><a xlink:href="a13002.html" target="_top" xlink:title="Thin heap.">
<polygon fill="white" stroke="black" points="363.5,-37.5 363.5,-55.5 504.5,-55.5 504.5,-37.5 363.5,-37.5"/>
<text text-anchor="middle" x="434" y="-44.3" font-family="Helvetica,sans-Serif" font-size="9.00">__gnu_pbds::thin_heap_tag</text>
</a>
</g>
</g>
<!-- Node13&#45;&gt;Node18 -->
<g id="edge18" class="edge">
<title>Node13&#45;&gt;Node18</title>
<path fill="none" stroke="midnightblue" d="M273.67,-115.13C294.56,-99.18 325.67,-77.56 356,-64.5 364.32,-60.92 373.47,-57.98 382.47,-55.6"/>
<polygon fill="midnightblue" stroke="midnightblue" points="271.39,-112.47 265.64,-121.37 275.69,-118 271.39,-112.47"/>
</g>
<!-- Node20 -->
<g id="node21" class="node">
<title>Node20</title>
<g id="a_node21"><a xlink:href="a12930.html" target="_top" xlink:title="Basic string container, inclusive of strings, ropes, etc.">
<polygon fill="white" stroke="black" points="373,-0.5 373,-18.5 495,-18.5 495,-0.5 373,-0.5"/>
<text text-anchor="middle" x="434" y="-7.3" font-family="Helvetica,sans-Serif" font-size="9.00">__gnu_pbds::string_tag</text>
</a>
</g>
</g>
<!-- Node19&#45;&gt;Node20 -->
<g id="edge20" class="edge">
<title>Node19&#45;&gt;Node20</title>
<path fill="none" stroke="midnightblue" d="M297.88,-40.26C327.71,-33.47 365.24,-24.93 393.17,-18.57"/>
<polygon fill="midnightblue" stroke="midnightblue" points="297.05,-36.86 288.08,-42.49 298.61,-43.68 297.05,-36.86"/>
</g>
</g>
</svg>
