<?xml version="1.0" encoding="UTF-8" standalone="no"?>
<!DOCTYPE svg PUBLIC "-//W3C//DTD SVG 1.1//EN"
 "http://www.w3.org/Graphics/SVG/1.1/DTD/svg11.dtd">
<!-- Generated by graphviz version 2.50.0 (0)
 -->
<!-- Title: Graphical Class Hierarchy Pages: 1 -->
<svg width="282pt" height="47pt"
 viewBox="0.00 0.00 282.00 47.00" xmlns="http://www.w3.org/2000/svg" xmlns:xlink="http://www.w3.org/1999/xlink">
<g id="graph0" class="graph" transform="scale(1 1) rotate(0) translate(4 43)">
<title>Graphical Class Hierarchy</title>
<polygon fill="white" stroke="transparent" points="-4,4 -4,-43 278,-43 278,4 -4,4"/>
<!-- Node0 -->
<g id="node1" class="node">
<title>Node0</title>
<g id="a_node1"><a xlink:href="a13006.html" target="_top" xlink:title="Represents no type, or absence of type, for template tricks.">
<polygon fill="white" stroke="black" points="0,-10.5 0,-28.5 118,-28.5 118,-10.5 0,-10.5"/>
<text text-anchor="middle" x="59" y="-17.3" font-family="Helvetica,sans-Serif" font-size="9.00">__gnu_pbds::null_type</text>
</a>
</g>
</g>
<!-- Node1 -->
<g id="node2" class="node">
<title>Node1</title>
<g id="a_node2"><a xlink:href="a13010.html" target="_top" xlink:title="A null node updator, indicating that no node updates are required.">
<polygon fill="white" stroke="black" points="154,-0.5 154,-38.5 274,-38.5 274,-0.5 154,-0.5"/>
<text text-anchor="start" x="162" y="-27.3" font-family="Helvetica,sans-Serif" font-size="9.00">__gnu_pbds::null_node</text>
<text text-anchor="start" x="162" y="-17.3" font-family="Helvetica,sans-Serif" font-size="9.00">_update&lt; _Tp1, _Tp2,</text>
<text text-anchor="middle" x="214" y="-7.3" font-family="Helvetica,sans-Serif" font-size="9.00"> _Tp3, _Tp4 &gt;</text>
</a>
</g>
</g>
<!-- Node0&#45;&gt;Node1 -->
<g id="edge1" class="edge">
<title>Node0&#45;&gt;Node1</title>
<path fill="none" stroke="midnightblue" d="M128.51,-19.5C136.97,-19.5 145.56,-19.5 153.87,-19.5"/>
<polygon fill="midnightblue" stroke="midnightblue" points="128.28,-16 118.28,-19.5 128.28,-23 128.28,-16"/>
</g>
</g>
</svg>
