<?xml version="1.0" encoding="UTF-8" standalone="no"?>
<!DOCTYPE svg PUBLIC "-//W3C//DTD SVG 1.1//EN"
 "http://www.w3.org/Graphics/SVG/1.1/DTD/svg11.dtd">
<!-- Generated by graphviz version 2.50.0 (0)
 -->
<!-- Title: Graphical Class Hierarchy Pages: 1 -->
<svg width="284pt" height="37pt"
 viewBox="0.00 0.00 284.00 37.00" xmlns="http://www.w3.org/2000/svg" xmlns:xlink="http://www.w3.org/1999/xlink">
<g id="graph0" class="graph" transform="scale(1 1) rotate(0) translate(4 33)">
<title>Graphical Class Hierarchy</title>
<polygon fill="white" stroke="transparent" points="-4,4 -4,-33 280,-33 280,4 -4,4"/>
<!-- Node0 -->
<g id="node1" class="node">
<title>Node0</title>
<g id="a_node1"><a xlink:href="a08210.html" target="_top" xlink:title=" ">
<polygon fill="white" stroke="black" points="0,-0.5 0,-28.5 113,-28.5 113,-0.5 0,-0.5"/>
<text text-anchor="start" x="8" y="-17.3" font-family="Helvetica,sans-Serif" font-size="9.00">std::binary_function</text>
<text text-anchor="middle" x="56.5" y="-7.3" font-family="Helvetica,sans-Serif" font-size="9.00">&lt; _Tp *, _Arg, _Ret &gt;</text>
</a>
</g>
</g>
<!-- Node1 -->
<g id="node2" class="node">
<title>Node1</title>
<g id="a_node2"><a xlink:href="a08494.html" target="_top" xlink:title="One of the adaptors for member pointers.">
<polygon fill="white" stroke="black" points="149,-0.5 149,-28.5 276,-28.5 276,-0.5 149,-0.5"/>
<text text-anchor="start" x="157" y="-17.3" font-family="Helvetica,sans-Serif" font-size="9.00">std::mem_fun1_t&lt; _Ret,</text>
<text text-anchor="middle" x="212.5" y="-7.3" font-family="Helvetica,sans-Serif" font-size="9.00"> _Tp, _Arg &gt;</text>
</a>
</g>
</g>
<!-- Node0&#45;&gt;Node1 -->
<g id="edge1" class="edge">
<title>Node0&#45;&gt;Node1</title>
<path fill="none" stroke="midnightblue" d="M123.33,-14.5C131.82,-14.5 140.5,-14.5 148.93,-14.5"/>
<polygon fill="midnightblue" stroke="midnightblue" points="123.1,-11 113.1,-14.5 123.1,-18 123.1,-11"/>
</g>
</g>
</svg>
