<?xml version="1.0" encoding="UTF-8" standalone="no"?>
<!DOCTYPE svg PUBLIC "-//W3C//DTD SVG 1.1//EN"
 "http://www.w3.org/Graphics/SVG/1.1/DTD/svg11.dtd">
<!-- Generated by graphviz version 2.50.0 (0)
 -->
<!-- Title: Graphical Class Hierarchy Pages: 1 -->
<svg width="301pt" height="57pt"
 viewBox="0.00 0.00 301.00 57.00" xmlns="http://www.w3.org/2000/svg" xmlns:xlink="http://www.w3.org/1999/xlink">
<g id="graph0" class="graph" transform="scale(1 1) rotate(0) translate(4 53)">
<title>Graphical Class Hierarchy</title>
<polygon fill="white" stroke="transparent" points="-4,4 -4,-53 297,-53 297,4 -4,4"/>
<!-- Node0 -->
<g id="node1" class="node">
<title>Node0</title>
<g id="a_node1"><a xlink:href="a13526.html" target="_top" xlink:title="Const node reference.">
<polygon fill="white" stroke="black" points="0,-0.5 0,-48.5 140,-48.5 140,-0.5 0,-0.5"/>
<text text-anchor="start" x="8" y="-37.3" font-family="Helvetica,sans-Serif" font-size="9.00">__gnu_pbds::detail</text>
<text text-anchor="start" x="8" y="-27.3" font-family="Helvetica,sans-Serif" font-size="9.00">::ov_tree_node_const</text>
<text text-anchor="start" x="8" y="-17.3" font-family="Helvetica,sans-Serif" font-size="9.00">_it_&lt; Value_Type, Metadata</text>
<text text-anchor="middle" x="70" y="-7.3" font-family="Helvetica,sans-Serif" font-size="9.00">_Type, _Alloc &gt;</text>
</a>
</g>
</g>
<!-- Node1 -->
<g id="node2" class="node">
<title>Node1</title>
<g id="a_node2"><a xlink:href="a13530.html" target="_top" xlink:title="Node reference.">
<polygon fill="white" stroke="black" points="176,-0.5 176,-48.5 293,-48.5 293,-0.5 176,-0.5"/>
<text text-anchor="start" x="184" y="-37.3" font-family="Helvetica,sans-Serif" font-size="9.00">__gnu_pbds::detail</text>
<text text-anchor="start" x="184" y="-27.3" font-family="Helvetica,sans-Serif" font-size="9.00">::ov_tree_node_it_&lt;</text>
<text text-anchor="start" x="184" y="-17.3" font-family="Helvetica,sans-Serif" font-size="9.00"> Value_Type, Metadata</text>
<text text-anchor="middle" x="234.5" y="-7.3" font-family="Helvetica,sans-Serif" font-size="9.00">_Type, _Alloc &gt;</text>
</a>
</g>
</g>
<!-- Node0&#45;&gt;Node1 -->
<g id="edge1" class="edge">
<title>Node0&#45;&gt;Node1</title>
<path fill="none" stroke="midnightblue" d="M150.42,-24.5C158.99,-24.5 167.59,-24.5 175.84,-24.5"/>
<polygon fill="midnightblue" stroke="midnightblue" points="150.39,-21 140.39,-24.5 150.39,-28 150.39,-21"/>
</g>
</g>
</svg>
