<?xml version="1.0" encoding="UTF-8" standalone="no"?>
<!DOCTYPE svg PUBLIC "-//W3C//DTD SVG 1.1//EN"
 "http://www.w3.org/Graphics/SVG/1.1/DTD/svg11.dtd">
<!-- Generated by graphviz version 2.50.0 (0)
 -->
<!-- Title: Graphical Class Hierarchy Pages: 1 -->
<svg width="359pt" height="104pt"
 viewBox="0.00 0.00 359.00 104.00" xmlns="http://www.w3.org/2000/svg" xmlns:xlink="http://www.w3.org/1999/xlink">
<g id="graph0" class="graph" transform="scale(1 1) rotate(0) translate(4 100)">
<title>Graphical Class Hierarchy</title>
<polygon fill="white" stroke="transparent" points="-4,4 -4,-100 355,-100 355,4 -4,4"/>
<!-- Node0 -->
<g id="node1" class="node">
<title>Node0</title>
<g id="a_node1"><a xlink:href="a10246.html" target="_top" xlink:title="Base class for unguarded _LoserTree implementation.">
<polygon fill="white" stroke="black" points="0,-33.5 0,-61.5 176,-61.5 176,-33.5 0,-33.5"/>
<text text-anchor="start" x="8" y="-50.3" font-family="Helvetica,sans-Serif" font-size="9.00">__gnu_parallel::_LoserTree</text>
<text text-anchor="middle" x="88" y="-40.3" font-family="Helvetica,sans-Serif" font-size="9.00">UnguardedBase&lt; _Tp, _Compare &gt;</text>
</a>
</g>
</g>
<!-- Node1 -->
<g id="node2" class="node">
<title>Node1</title>
<g id="a_node2"><a xlink:href="a10254.html" target="_top" xlink:title="Stable implementation of unguarded _LoserTree.">
<polygon fill="white" stroke="black" points="212,-57.5 212,-95.5 351,-95.5 351,-57.5 212,-57.5"/>
<text text-anchor="start" x="220" y="-84.3" font-family="Helvetica,sans-Serif" font-size="9.00">__gnu_parallel::_LoserTree</text>
<text text-anchor="start" x="220" y="-74.3" font-family="Helvetica,sans-Serif" font-size="9.00">Unguarded&lt; __stable, _Tp,</text>
<text text-anchor="middle" x="281.5" y="-64.3" font-family="Helvetica,sans-Serif" font-size="9.00"> _Compare &gt;</text>
</a>
</g>
</g>
<!-- Node0&#45;&gt;Node1 -->
<g id="edge1" class="edge">
<title>Node0&#45;&gt;Node1</title>
<path fill="none" stroke="midnightblue" d="M186.18,-62.22C194.8,-63.52 203.41,-64.83 211.72,-66.08"/>
<polygon fill="midnightblue" stroke="midnightblue" points="186.48,-58.72 176.06,-60.68 185.43,-65.64 186.48,-58.72"/>
</g>
<!-- Node2 -->
<g id="node3" class="node">
<title>Node2</title>
<g id="a_node3"><a xlink:href="a10258.html" target="_top" xlink:title="Non&#45;Stable implementation of unguarded _LoserTree.">
<polygon fill="white" stroke="black" points="215,-0.5 215,-38.5 348,-38.5 348,-0.5 215,-0.5"/>
<text text-anchor="start" x="223" y="-27.3" font-family="Helvetica,sans-Serif" font-size="9.00">__gnu_parallel::_LoserTree</text>
<text text-anchor="start" x="223" y="-17.3" font-family="Helvetica,sans-Serif" font-size="9.00">Unguarded&lt; false, _Tp,</text>
<text text-anchor="middle" x="281.5" y="-7.3" font-family="Helvetica,sans-Serif" font-size="9.00"> _Compare &gt;</text>
</a>
</g>
</g>
<!-- Node0&#45;&gt;Node2 -->
<g id="edge2" class="edge">
<title>Node0&#45;&gt;Node2</title>
<path fill="none" stroke="midnightblue" d="M186.18,-33.29C195.89,-31.87 205.59,-30.45 214.86,-29.1"/>
<polygon fill="midnightblue" stroke="midnightblue" points="185.45,-29.86 176.06,-34.77 186.47,-36.79 185.45,-29.86"/>
</g>
</g>
</svg>
