<?xml version="1.0" encoding="UTF-8" standalone="no"?>
<!DOCTYPE svg PUBLIC "-//W3C//DTD SVG 1.1//EN"
 "http://www.w3.org/Graphics/SVG/1.1/DTD/svg11.dtd">
<!-- Generated by graphviz version 2.50.0 (0)
 -->
<!-- Title: Graphical Class Hierarchy Pages: 1 -->
<svg width="401pt" height="107pt"
 viewBox="0.00 0.00 401.00 107.00" xmlns="http://www.w3.org/2000/svg" xmlns:xlink="http://www.w3.org/1999/xlink">
<g id="graph0" class="graph" transform="scale(1 1) rotate(0) translate(4 103)">
<title>Graphical Class Hierarchy</title>
<polygon fill="white" stroke="transparent" points="-4,4 -4,-103 397,-103 397,4 -4,4"/>
<!-- Node0 -->
<g id="node1" class="node">
<title>Node0</title>
<g id="a_node1"><a xlink:href="a13354.html" target="_top" xlink:title=" ">
<polygon fill="white" stroke="black" points="0,-0.5 0,-98.5 203,-98.5 203,-0.5 0,-0.5"/>
<text text-anchor="start" x="8" y="-87.3" font-family="Helvetica,sans-Serif" font-size="9.00">__gnu_pbds::detail</text>
<text text-anchor="start" x="8" y="-77.3" font-family="Helvetica,sans-Serif" font-size="9.00">::bin_search_tree_traits</text>
<text text-anchor="start" x="8" y="-67.3" font-family="Helvetica,sans-Serif" font-size="9.00">&lt; Key, null_type, Cmp_Fn,</text>
<text text-anchor="start" x="8" y="-57.3" font-family="Helvetica,sans-Serif" font-size="9.00"> Node_Update, rb_tree_node</text>
<text text-anchor="start" x="8" y="-47.3" font-family="Helvetica,sans-Serif" font-size="9.00">_&lt; types_traits&lt; Key, null</text>
<text text-anchor="start" x="8" y="-37.3" font-family="Helvetica,sans-Serif" font-size="9.00">_type, _Alloc, false &gt;::value</text>
<text text-anchor="start" x="8" y="-27.3" font-family="Helvetica,sans-Serif" font-size="9.00">_type, tree_node_metadata_dispatch</text>
<text text-anchor="start" x="8" y="-17.3" font-family="Helvetica,sans-Serif" font-size="9.00">&lt; Key, null_type, Cmp_Fn, Node_Update,</text>
<text text-anchor="middle" x="101.5" y="-7.3" font-family="Helvetica,sans-Serif" font-size="9.00"> _Alloc &gt;::type, _Alloc &gt;, _Alloc &gt;</text>
</a>
</g>
</g>
<!-- Node1 -->
<g id="node2" class="node">
<title>Node1</title>
<g id="a_node2"><a xlink:href="a13646.html" target="_top" xlink:title="Specialization.">
<polygon fill="white" stroke="black" points="239,-25.5 239,-73.5 393,-73.5 393,-25.5 239,-25.5"/>
<text text-anchor="start" x="247" y="-62.3" font-family="Helvetica,sans-Serif" font-size="9.00">__gnu_pbds::detail</text>
<text text-anchor="start" x="247" y="-52.3" font-family="Helvetica,sans-Serif" font-size="9.00">::tree_traits&lt; Key,</text>
<text text-anchor="start" x="247" y="-42.3" font-family="Helvetica,sans-Serif" font-size="9.00"> null_type, Cmp_Fn, Node</text>
<text text-anchor="middle" x="316" y="-32.3" font-family="Helvetica,sans-Serif" font-size="9.00">_Update, rb_tree_tag, _Alloc &gt;</text>
</a>
</g>
</g>
<!-- Node0&#45;&gt;Node1 -->
<g id="edge1" class="edge">
<title>Node0&#45;&gt;Node1</title>
<path fill="none" stroke="midnightblue" d="M213.3,-49.5C221.94,-49.5 230.53,-49.5 238.86,-49.5"/>
<polygon fill="midnightblue" stroke="midnightblue" points="213.15,-46 203.15,-49.5 213.15,-53 213.15,-46"/>
</g>
</g>
</svg>
