<?xml version="1.0" encoding="UTF-8" standalone="no"?>
<!DOCTYPE svg PUBLIC "-//W3C//DTD SVG 1.1//EN"
 "http://www.w3.org/Graphics/SVG/1.1/DTD/svg11.dtd">
<!-- Generated by graphviz version 2.50.0 (0)
 -->
<!-- Title: Graphical Class Hierarchy Pages: 1 -->
<svg width="324pt" height="611pt"
 viewBox="0.00 0.00 324.00 611.00" xmlns="http://www.w3.org/2000/svg" xmlns:xlink="http://www.w3.org/1999/xlink">
<g id="graph0" class="graph" transform="scale(1 1) rotate(0) translate(4 607)">
<title>Graphical Class Hierarchy</title>
<polygon fill="white" stroke="transparent" points="-4,4 -4,-607 320,-607 320,4 -4,4"/>
<!-- Node0 -->
<g id="node1" class="node">
<title>Node0</title>
<g id="a_node1"><a xlink:href="a10130.html" target="_top" xlink:title="Generic __selector for embarrassingly parallel functions.">
<polygon fill="white" stroke="black" points="0,-292.5 0,-320.5 131,-320.5 131,-292.5 0,-292.5"/>
<text text-anchor="start" x="8" y="-309.3" font-family="Helvetica,sans-Serif" font-size="9.00">__gnu_parallel::__generic</text>
<text text-anchor="middle" x="65.5" y="-299.3" font-family="Helvetica,sans-Serif" font-size="9.00">_for_each_selector&lt; _It &gt;</text>
</a>
</g>
</g>
<!-- Node1 -->
<g id="node2" class="node">
<title>Node1</title>
<g id="a_node2"><a xlink:href="a10170.html" target="_top" xlink:title="std::accumulate() selector.">
<polygon fill="white" stroke="black" points="167,-574.5 167,-602.5 316,-602.5 316,-574.5 167,-574.5"/>
<text text-anchor="start" x="175" y="-591.3" font-family="Helvetica,sans-Serif" font-size="9.00">__gnu_parallel::__accumulate</text>
<text text-anchor="middle" x="241.5" y="-581.3" font-family="Helvetica,sans-Serif" font-size="9.00">_selector&lt; _It &gt;</text>
</a>
</g>
</g>
<!-- Node0&#45;&gt;Node1 -->
<g id="edge1" class="edge">
<title>Node0&#45;&gt;Node1</title>
<path fill="none" stroke="midnightblue" d="M68.95,-330.69C75.39,-381.6 97.43,-500.43 167,-565.5 170.71,-568.97 174.94,-571.92 179.45,-574.42"/>
<polygon fill="midnightblue" stroke="midnightblue" points="72.41,-330.16 67.77,-320.63 65.45,-330.97 72.41,-330.16"/>
</g>
<!-- Node2 -->
<g id="node3" class="node">
<title>Node2</title>
<g id="a_node3"><a xlink:href="a10182.html" target="_top" xlink:title="Selector that returns the difference between two adjacent __elements.">
<polygon fill="white" stroke="black" points="172.5,-527.5 172.5,-555.5 310.5,-555.5 310.5,-527.5 172.5,-527.5"/>
<text text-anchor="start" x="180.5" y="-544.3" font-family="Helvetica,sans-Serif" font-size="9.00">__gnu_parallel::__adjacent</text>
<text text-anchor="middle" x="241.5" y="-534.3" font-family="Helvetica,sans-Serif" font-size="9.00">_difference_selector&lt; _It &gt;</text>
</a>
</g>
</g>
<!-- Node0&#45;&gt;Node2 -->
<g id="edge2" class="edge">
<title>Node0&#45;&gt;Node2</title>
<path fill="none" stroke="midnightblue" d="M71.26,-330.53C81.18,-374.34 108.22,-467.39 167,-518.5 170.94,-521.92 175.38,-524.83 180.08,-527.31"/>
<polygon fill="midnightblue" stroke="midnightblue" points="74.68,-329.78 69.14,-320.75 67.83,-331.26 74.68,-329.78"/>
</g>
<!-- Node3 -->
<g id="node4" class="node">
<title>Node3</title>
<g id="a_node4"><a xlink:href="a10166.html" target="_top" xlink:title="std::count_if () selector.">
<polygon fill="white" stroke="black" points="179.5,-480.5 179.5,-508.5 303.5,-508.5 303.5,-480.5 179.5,-480.5"/>
<text text-anchor="start" x="187.5" y="-497.3" font-family="Helvetica,sans-Serif" font-size="9.00">__gnu_parallel::__count</text>
<text text-anchor="middle" x="241.5" y="-487.3" font-family="Helvetica,sans-Serif" font-size="9.00">_if_selector&lt; _It, _Diff &gt;</text>
</a>
</g>
</g>
<!-- Node0&#45;&gt;Node3 -->
<g id="edge3" class="edge">
<title>Node0&#45;&gt;Node3</title>
<path fill="none" stroke="midnightblue" d="M74.77,-330.45C88.39,-366.35 118.9,-433.9 167,-471.5 171.42,-474.96 176.38,-477.9 181.56,-480.4"/>
<polygon fill="midnightblue" stroke="midnightblue" points="77.97,-328.98 71.24,-320.8 71.39,-331.4 77.97,-328.98"/>
</g>
<!-- Node4 -->
<g id="node5" class="node">
<title>Node4</title>
<g id="a_node5"><a xlink:href="a10162.html" target="_top" xlink:title="std::count() selector.">
<polygon fill="white" stroke="black" points="180.5,-433.5 180.5,-461.5 302.5,-461.5 302.5,-433.5 180.5,-433.5"/>
<text text-anchor="start" x="188.5" y="-450.3" font-family="Helvetica,sans-Serif" font-size="9.00">__gnu_parallel::__count</text>
<text text-anchor="middle" x="241.5" y="-440.3" font-family="Helvetica,sans-Serif" font-size="9.00">_selector&lt; _It, _Diff &gt;</text>
</a>
</g>
</g>
<!-- Node0&#45;&gt;Node4 -->
<g id="edge4" class="edge">
<title>Node0&#45;&gt;Node4</title>
<path fill="none" stroke="midnightblue" d="M80.27,-329.4C97.39,-355.99 129.05,-399.4 167,-424.5 172.24,-427.97 178.04,-430.94 184,-433.47"/>
<polygon fill="midnightblue" stroke="midnightblue" points="83.12,-327.35 74.83,-320.75 77.19,-331.08 83.12,-327.35"/>
</g>
<!-- Node5 -->
<g id="node6" class="node">
<title>Node5</title>
<g id="a_node6"><a xlink:href="a10142.html" target="_top" xlink:title="std::fill() selector.">
<polygon fill="white" stroke="black" points="189,-386.5 189,-414.5 294,-414.5 294,-386.5 189,-386.5"/>
<text text-anchor="start" x="197" y="-403.3" font-family="Helvetica,sans-Serif" font-size="9.00">__gnu_parallel::__fill</text>
<text text-anchor="middle" x="241.5" y="-393.3" font-family="Helvetica,sans-Serif" font-size="9.00">_selector&lt; _It &gt;</text>
</a>
</g>
</g>
<!-- Node0&#45;&gt;Node5 -->
<g id="edge5" class="edge">
<title>Node0&#45;&gt;Node5</title>
<path fill="none" stroke="midnightblue" d="M90.68,-326.86C110.24,-342.49 139.02,-363.66 167,-377.5 173.83,-380.88 181.27,-383.89 188.69,-386.54"/>
<polygon fill="midnightblue" stroke="midnightblue" points="92.87,-324.13 82.9,-320.54 88.46,-329.56 92.87,-324.13"/>
</g>
<!-- Node6 -->
<g id="node7" class="node">
<title>Node6</title>
<g id="a_node7"><a xlink:href="a10134.html" target="_top" xlink:title="std::for_each() selector.">
<polygon fill="white" stroke="black" points="184,-339.5 184,-367.5 299,-367.5 299,-339.5 184,-339.5"/>
<text text-anchor="start" x="192" y="-356.3" font-family="Helvetica,sans-Serif" font-size="9.00">__gnu_parallel::__for</text>
<text text-anchor="middle" x="241.5" y="-346.3" font-family="Helvetica,sans-Serif" font-size="9.00">_each_selector&lt; _It &gt;</text>
</a>
</g>
</g>
<!-- Node0&#45;&gt;Node6 -->
<g id="edge6" class="edge">
<title>Node0&#45;&gt;Node6</title>
<path fill="none" stroke="midnightblue" d="M128.5,-323.25C148.19,-328.56 169.74,-334.39 188.63,-339.49"/>
<polygon fill="midnightblue" stroke="midnightblue" points="129.27,-319.83 118.71,-320.6 127.45,-326.59 129.27,-319.83"/>
</g>
<!-- Node7 -->
<g id="node8" class="node">
<title>Node7</title>
<g id="a_node8"><a xlink:href="a10138.html" target="_top" xlink:title="std::generate() selector.">
<polygon fill="white" stroke="black" points="173.5,-292.5 173.5,-320.5 309.5,-320.5 309.5,-292.5 173.5,-292.5"/>
<text text-anchor="start" x="181.5" y="-309.3" font-family="Helvetica,sans-Serif" font-size="9.00">__gnu_parallel::__generate</text>
<text text-anchor="middle" x="241.5" y="-299.3" font-family="Helvetica,sans-Serif" font-size="9.00">_selector&lt; _It &gt;</text>
</a>
</g>
</g>
<!-- Node0&#45;&gt;Node7 -->
<g id="edge7" class="edge">
<title>Node0&#45;&gt;Node7</title>
<path fill="none" stroke="midnightblue" d="M141.38,-306.5C152,-306.5 162.87,-306.5 173.33,-306.5"/>
<polygon fill="midnightblue" stroke="midnightblue" points="141.29,-303 131.29,-306.5 141.29,-310 141.29,-303"/>
</g>
<!-- Node8 -->
<g id="node9" class="node">
<title>Node8</title>
<g id="a_node9"><a xlink:href="a10178.html" target="_top" xlink:title="Selector that just returns the passed iterator.">
<polygon fill="white" stroke="black" points="176.5,-245.5 176.5,-273.5 306.5,-273.5 306.5,-245.5 176.5,-245.5"/>
<text text-anchor="start" x="184.5" y="-262.3" font-family="Helvetica,sans-Serif" font-size="9.00">__gnu_parallel::__identity</text>
<text text-anchor="middle" x="241.5" y="-252.3" font-family="Helvetica,sans-Serif" font-size="9.00">_selector&lt; _It &gt;</text>
</a>
</g>
</g>
<!-- Node0&#45;&gt;Node8 -->
<g id="edge8" class="edge">
<title>Node0&#45;&gt;Node8</title>
<path fill="none" stroke="midnightblue" d="M128.5,-289.75C148.19,-284.44 169.74,-278.61 188.63,-273.51"/>
<polygon fill="midnightblue" stroke="midnightblue" points="127.45,-286.41 118.71,-292.4 129.27,-293.17 127.45,-286.41"/>
</g>
<!-- Node9 -->
<g id="node10" class="node">
<title>Node9</title>
<g id="a_node10"><a xlink:href="a10174.html" target="_top" xlink:title="std::inner_product() selector.">
<polygon fill="white" stroke="black" points="180.5,-188.5 180.5,-226.5 302.5,-226.5 302.5,-188.5 180.5,-188.5"/>
<text text-anchor="start" x="188.5" y="-215.3" font-family="Helvetica,sans-Serif" font-size="9.00">__gnu_parallel::__inner</text>
<text text-anchor="start" x="188.5" y="-205.3" font-family="Helvetica,sans-Serif" font-size="9.00">_product_selector&lt; _It,</text>
<text text-anchor="middle" x="241.5" y="-195.3" font-family="Helvetica,sans-Serif" font-size="9.00"> _It2, _Tp &gt;</text>
</a>
</g>
</g>
<!-- Node0&#45;&gt;Node9 -->
<g id="edge9" class="edge">
<title>Node0&#45;&gt;Node9</title>
<path fill="none" stroke="midnightblue" d="M92.35,-285.98C112.04,-270.98 140.23,-250.85 167,-236.5 173.53,-233 180.57,-229.69 187.63,-226.64"/>
<polygon fill="midnightblue" stroke="midnightblue" points="89.98,-283.38 84.2,-292.26 94.26,-288.93 89.98,-283.38"/>
</g>
<!-- Node10 -->
<g id="node11" class="node">
<title>Node10</title>
<g id="a_node11"><a xlink:href="a10158.html" target="_top" xlink:title="std::replace() selector.">
<polygon fill="white" stroke="black" points="170,-141.5 170,-169.5 313,-169.5 313,-141.5 170,-141.5"/>
<text text-anchor="start" x="178" y="-158.3" font-family="Helvetica,sans-Serif" font-size="9.00">__gnu_parallel::__replace</text>
<text text-anchor="middle" x="241.5" y="-148.3" font-family="Helvetica,sans-Serif" font-size="9.00">_if_selector&lt; _It, _Op, _Tp &gt;</text>
</a>
</g>
</g>
<!-- Node0&#45;&gt;Node10 -->
<g id="edge10" class="edge">
<title>Node0&#45;&gt;Node10</title>
<path fill="none" stroke="midnightblue" d="M78.9,-283.63C95.41,-255.25 127.2,-207.23 167,-179.5 172.51,-175.66 178.67,-172.41 185.01,-169.66"/>
<polygon fill="midnightblue" stroke="midnightblue" points="75.79,-282.02 73.9,-292.44 81.88,-285.47 75.79,-282.02"/>
</g>
<!-- Node11 -->
<g id="node12" class="node">
<title>Node11</title>
<g id="a_node12"><a xlink:href="a10154.html" target="_top" xlink:title="std::replace() selector.">
<polygon fill="white" stroke="black" points="177.5,-94.5 177.5,-122.5 305.5,-122.5 305.5,-94.5 177.5,-94.5"/>
<text text-anchor="start" x="185.5" y="-111.3" font-family="Helvetica,sans-Serif" font-size="9.00">__gnu_parallel::__replace</text>
<text text-anchor="middle" x="241.5" y="-101.3" font-family="Helvetica,sans-Serif" font-size="9.00">_selector&lt; _It, _Tp &gt;</text>
</a>
</g>
</g>
<!-- Node0&#45;&gt;Node11 -->
<g id="edge11" class="edge">
<title>Node0&#45;&gt;Node11</title>
<path fill="none" stroke="midnightblue" d="M73.91,-282.93C86.83,-245.63 116.97,-173.07 167,-132.5 171.8,-128.61 177.24,-125.34 182.95,-122.6"/>
<polygon fill="midnightblue" stroke="midnightblue" points="70.58,-281.87 70.72,-292.46 77.21,-284.09 70.58,-281.87"/>
</g>
<!-- Node12 -->
<g id="node13" class="node">
<title>Node12</title>
<g id="a_node13"><a xlink:href="a10146.html" target="_top" xlink:title="std::transform() __selector, one input sequence variant.">
<polygon fill="white" stroke="black" points="168.5,-47.5 168.5,-75.5 314.5,-75.5 314.5,-47.5 168.5,-47.5"/>
<text text-anchor="start" x="176.5" y="-64.3" font-family="Helvetica,sans-Serif" font-size="9.00">__gnu_parallel::__transform1</text>
<text text-anchor="middle" x="241.5" y="-54.3" font-family="Helvetica,sans-Serif" font-size="9.00">_selector&lt; _It &gt;</text>
</a>
</g>
</g>
<!-- Node0&#45;&gt;Node12 -->
<g id="edge12" class="edge">
<title>Node0&#45;&gt;Node12</title>
<path fill="none" stroke="midnightblue" d="M70.87,-282.2C80.27,-236.95 106.64,-139.5 167,-85.5 171.4,-81.56 176.46,-78.27 181.82,-75.52"/>
<polygon fill="midnightblue" stroke="midnightblue" points="67.39,-281.78 68.88,-292.27 74.25,-283.14 67.39,-281.78"/>
</g>
<!-- Node13 -->
<g id="node14" class="node">
<title>Node13</title>
<g id="a_node14"><a xlink:href="a10150.html" target="_top" xlink:title="std::transform() __selector, two input sequences variant.">
<polygon fill="white" stroke="black" points="168.5,-0.5 168.5,-28.5 314.5,-28.5 314.5,-0.5 168.5,-0.5"/>
<text text-anchor="start" x="176.5" y="-17.3" font-family="Helvetica,sans-Serif" font-size="9.00">__gnu_parallel::__transform2</text>
<text text-anchor="middle" x="241.5" y="-7.3" font-family="Helvetica,sans-Serif" font-size="9.00">_selector&lt; _It &gt;</text>
</a>
</g>
</g>
<!-- Node0&#45;&gt;Node13 -->
<g id="edge13" class="edge">
<title>Node0&#45;&gt;Node13</title>
<path fill="none" stroke="midnightblue" d="M68.66,-282.25C74.6,-230.14 95.8,-106.69 167,-38.5 171.07,-34.6 175.79,-31.33 180.82,-28.6"/>
<polygon fill="midnightblue" stroke="midnightblue" points="65.18,-281.93 67.61,-292.24 72.14,-282.66 65.18,-281.93"/>
</g>
</g>
</svg>
