<?xml version="1.0" encoding="UTF-8" standalone="no"?>
<!DOCTYPE svg PUBLIC "-//W3C//DTD SVG 1.1//EN"
 "http://www.w3.org/Graphics/SVG/1.1/DTD/svg11.dtd">
<!-- Generated by graphviz version 2.50.0 (0)
 -->
<!-- Title: Graphical Class Hierarchy Pages: 1 -->
<svg width="307pt" height="47pt"
 viewBox="0.00 0.00 307.00 47.00" xmlns="http://www.w3.org/2000/svg" xmlns:xlink="http://www.w3.org/1999/xlink">
<g id="graph0" class="graph" transform="scale(1 1) rotate(0) translate(4 43)">
<title>Graphical Class Hierarchy</title>
<polygon fill="white" stroke="transparent" points="-4,4 -4,-43 303,-43 303,4 -4,4"/>
<!-- Node0 -->
<g id="node1" class="node">
<title>Node0</title>
<g id="a_node1"><a xlink:href="a08206.html" target="_top" xlink:title=" ">
<polygon fill="white" stroke="black" points="0,-0.5 0,-38.5 135,-38.5 135,-0.5 0,-0.5"/>
<text text-anchor="start" x="8" y="-27.3" font-family="Helvetica,sans-Serif" font-size="9.00">std::unary_function</text>
<text text-anchor="start" x="8" y="-17.3" font-family="Helvetica,sans-Serif" font-size="9.00">&lt; __gnu_cxx::throw_value</text>
<text text-anchor="middle" x="67.5" y="-7.3" font-family="Helvetica,sans-Serif" font-size="9.00">_random, size_t &gt;</text>
</a>
</g>
</g>
<!-- Node1 -->
<g id="node2" class="node">
<title>Node1</title>
<g id="a_node2"><a xlink:href="a12478.html" target="_top" xlink:title="Explicit specialization of std::hash for __gnu_cxx::throw_value_random.">
<polygon fill="white" stroke="black" points="171,-5.5 171,-33.5 299,-33.5 299,-5.5 171,-5.5"/>
<text text-anchor="start" x="179" y="-22.3" font-family="Helvetica,sans-Serif" font-size="9.00">std::hash&lt; __gnu_cxx</text>
<text text-anchor="middle" x="235" y="-12.3" font-family="Helvetica,sans-Serif" font-size="9.00">::throw_value_random &gt;</text>
</a>
</g>
</g>
<!-- Node0&#45;&gt;Node1 -->
<g id="edge1" class="edge">
<title>Node0&#45;&gt;Node1</title>
<path fill="none" stroke="midnightblue" d="M145.62,-19.5C154.1,-19.5 162.65,-19.5 170.93,-19.5"/>
<polygon fill="midnightblue" stroke="midnightblue" points="145.34,-16 135.34,-19.5 145.34,-23 145.34,-16"/>
</g>
</g>
</svg>
