<?xml version="1.0" encoding="UTF-8" standalone="no"?>
<!DOCTYPE svg PUBLIC "-//W3C//DTD SVG 1.1//EN"
 "http://www.w3.org/Graphics/SVG/1.1/DTD/svg11.dtd">
<!-- Generated by graphviz version 2.50.0 (0)
 -->
<!-- Title: Graphical Class Hierarchy Pages: 1 -->
<svg width="281pt" height="84pt"
 viewBox="0.00 0.00 281.00 84.00" xmlns="http://www.w3.org/2000/svg" xmlns:xlink="http://www.w3.org/1999/xlink">
<g id="graph0" class="graph" transform="scale(1 1) rotate(0) translate(4 80)">
<title>Graphical Class Hierarchy</title>
<polygon fill="white" stroke="transparent" points="-4,4 -4,-80 277,-80 277,4 -4,4"/>
<!-- Node0 -->
<g id="node1" class="node">
<title>Node0</title>
<g id="a_node1"><a xlink:href="a08210.html" target="_top" xlink:title=" ">
<polygon fill="white" stroke="black" points="0,-23.5 0,-51.5 107,-51.5 107,-23.5 0,-23.5"/>
<text text-anchor="start" x="8" y="-40.3" font-family="Helvetica,sans-Serif" font-size="9.00">std::binary_function</text>
<text text-anchor="middle" x="53.5" y="-30.3" font-family="Helvetica,sans-Serif" font-size="9.00">&lt; _Tp, _Arg, _Ret &gt;</text>
</a>
</g>
</g>
<!-- Node1 -->
<g id="node2" class="node">
<title>Node1</title>
<g id="a_node2"><a xlink:href="a08506.html" target="_top" xlink:title="One of the adaptors for member pointers.">
<polygon fill="white" stroke="black" points="143,-47.5 143,-75.5 273,-75.5 273,-47.5 143,-47.5"/>
<text text-anchor="start" x="151" y="-64.3" font-family="Helvetica,sans-Serif" font-size="9.00">std::const_mem_fun1</text>
<text text-anchor="middle" x="208" y="-54.3" font-family="Helvetica,sans-Serif" font-size="9.00">_ref_t&lt; _Ret, _Tp, _Arg &gt;</text>
</a>
</g>
</g>
<!-- Node0&#45;&gt;Node1 -->
<g id="edge1" class="edge">
<title>Node0&#45;&gt;Node1</title>
<path fill="none" stroke="midnightblue" d="M117.5,-47.41C125.88,-48.73 134.48,-50.09 142.89,-51.41"/>
<polygon fill="midnightblue" stroke="midnightblue" points="117.83,-43.92 107.41,-45.83 116.74,-50.84 117.83,-43.92"/>
</g>
<!-- Node2 -->
<g id="node3" class="node">
<title>Node2</title>
<g id="a_node3"><a xlink:href="a08502.html" target="_top" xlink:title="One of the adaptors for member pointers.">
<polygon fill="white" stroke="black" points="153,-0.5 153,-28.5 263,-28.5 263,-0.5 153,-0.5"/>
<text text-anchor="start" x="161" y="-17.3" font-family="Helvetica,sans-Serif" font-size="9.00">std::mem_fun1_ref_t</text>
<text text-anchor="middle" x="208" y="-7.3" font-family="Helvetica,sans-Serif" font-size="9.00">&lt; _Ret, _Tp, _Arg &gt;</text>
</a>
</g>
</g>
<!-- Node0&#45;&gt;Node2 -->
<g id="edge2" class="edge">
<title>Node0&#45;&gt;Node2</title>
<path fill="none" stroke="midnightblue" d="M117.58,-27.99C129.3,-26.22 141.46,-24.38 152.89,-22.66"/>
<polygon fill="midnightblue" stroke="midnightblue" points="116.78,-24.57 107.41,-29.52 117.82,-31.49 116.78,-24.57"/>
</g>
</g>
</svg>
