<?xml version="1.0" encoding="UTF-8" standalone="no"?>
<!DOCTYPE svg PUBLIC "-//W3C//DTD SVG 1.1//EN"
 "http://www.w3.org/Graphics/SVG/1.1/DTD/svg11.dtd">
<!-- Generated by graphviz version 2.50.0 (0)
 -->
<!-- Title: Graphical Class Hierarchy Pages: 1 -->
<svg width="486pt" height="140pt"
 viewBox="0.00 0.00 486.00 140.00" xmlns="http://www.w3.org/2000/svg" xmlns:xlink="http://www.w3.org/1999/xlink">
<g id="graph0" class="graph" transform="scale(1 1) rotate(0) translate(4 136)">
<title>Graphical Class Hierarchy</title>
<polygon fill="white" stroke="transparent" points="-4,4 -4,-136 482,-136 482,4 -4,4"/>
<!-- Node0 -->
<g id="node1" class="node">
<title>Node0</title>
<g id="a_node1"><a xlink:href="a13482.html" target="_top" xlink:title=" ">
<polygon fill="white" stroke="black" points="0,-26.5 0,-74.5 149,-74.5 149,-26.5 0,-26.5"/>
<text text-anchor="start" x="8" y="-63.3" font-family="Helvetica,sans-Serif" font-size="9.00">__gnu_pbds::detail</text>
<text text-anchor="start" x="8" y="-53.3" font-family="Helvetica,sans-Serif" font-size="9.00">::left_child_next_sibling</text>
<text text-anchor="start" x="8" y="-43.3" font-family="Helvetica,sans-Serif" font-size="9.00">_heap&lt; Value_Type, Cmp_Fn,</text>
<text text-anchor="middle" x="74.5" y="-33.3" font-family="Helvetica,sans-Serif" font-size="9.00"> _Alloc::size_type, _Alloc &gt;</text>
</a>
</g>
</g>
<!-- Node1 -->
<g id="node2" class="node">
<title>Node1</title>
<g id="a_node2"><a xlink:href="a13330.html" target="_top" xlink:title="Base class for binomial heap.">
<polygon fill="white" stroke="black" points="189.5,-57.5 189.5,-105.5 311.5,-105.5 311.5,-57.5 189.5,-57.5"/>
<text text-anchor="start" x="197.5" y="-94.3" font-family="Helvetica,sans-Serif" font-size="9.00">__gnu_pbds::detail</text>
<text text-anchor="start" x="197.5" y="-84.3" font-family="Helvetica,sans-Serif" font-size="9.00">::binomial_heap_base</text>
<text text-anchor="start" x="197.5" y="-74.3" font-family="Helvetica,sans-Serif" font-size="9.00">&lt; Value_Type, Cmp_Fn,</text>
<text text-anchor="middle" x="250.5" y="-64.3" font-family="Helvetica,sans-Serif" font-size="9.00"> _Alloc &gt;</text>
</a>
</g>
</g>
<!-- Node0&#45;&gt;Node1 -->
<g id="edge1" class="edge">
<title>Node0&#45;&gt;Node1</title>
<path fill="none" stroke="midnightblue" d="M159.19,-65.41C169.38,-67.23 179.63,-69.05 189.38,-70.79"/>
<polygon fill="midnightblue" stroke="midnightblue" points="159.5,-61.91 149.04,-63.6 158.27,-68.8 159.5,-61.91"/>
</g>
<!-- Node4 -->
<g id="node5" class="node">
<title>Node4</title>
<g id="a_node5"><a xlink:href="a13702.html" target="_top" xlink:title=" ">
<polygon fill="white" stroke="black" points="185,-0.5 185,-38.5 316,-38.5 316,-0.5 185,-0.5"/>
<text text-anchor="start" x="193" y="-27.3" font-family="Helvetica,sans-Serif" font-size="9.00">__gnu_pbds::detail</text>
<text text-anchor="start" x="193" y="-17.3" font-family="Helvetica,sans-Serif" font-size="9.00">::thin_heap&lt; Value_Type,</text>
<text text-anchor="middle" x="250.5" y="-7.3" font-family="Helvetica,sans-Serif" font-size="9.00"> Cmp_Fn, _Alloc &gt;</text>
</a>
</g>
</g>
<!-- Node0&#45;&gt;Node4 -->
<g id="edge4" class="edge">
<title>Node0&#45;&gt;Node4</title>
<path fill="none" stroke="midnightblue" d="M159.12,-35.6C167.74,-34.07 176.4,-32.52 184.77,-31.03"/>
<polygon fill="midnightblue" stroke="midnightblue" points="158.27,-32.2 149.04,-37.4 159.5,-39.09 158.27,-32.2"/>
</g>
<!-- Node2 -->
<g id="node3" class="node">
<title>Node2</title>
<g id="a_node3"><a xlink:href="a13326.html" target="_top" xlink:title=" ">
<polygon fill="white" stroke="black" points="352,-93.5 352,-131.5 478,-131.5 478,-93.5 352,-93.5"/>
<text text-anchor="start" x="360" y="-120.3" font-family="Helvetica,sans-Serif" font-size="9.00">__gnu_pbds::detail</text>
<text text-anchor="start" x="360" y="-110.3" font-family="Helvetica,sans-Serif" font-size="9.00">::binomial_heap&lt; Value</text>
<text text-anchor="middle" x="415" y="-100.3" font-family="Helvetica,sans-Serif" font-size="9.00">_Type, Cmp_Fn, _Alloc &gt;</text>
</a>
</g>
</g>
<!-- Node1&#45;&gt;Node2 -->
<g id="edge2" class="edge">
<title>Node1&#45;&gt;Node2</title>
<path fill="none" stroke="midnightblue" d="M321.5,-94.85C331.56,-96.77 341.86,-98.74 351.75,-100.62"/>
<polygon fill="midnightblue" stroke="midnightblue" points="322.03,-91.39 311.55,-92.96 320.71,-98.27 322.03,-91.39"/>
</g>
<!-- Node3 -->
<g id="node4" class="node">
<title>Node3</title>
<g id="a_node4"><a xlink:href="a13654.html" target="_top" xlink:title=" ">
<polygon fill="white" stroke="black" points="357.5,-26.5 357.5,-74.5 472.5,-74.5 472.5,-26.5 357.5,-26.5"/>
<text text-anchor="start" x="365.5" y="-63.3" font-family="Helvetica,sans-Serif" font-size="9.00">__gnu_pbds::detail</text>
<text text-anchor="start" x="365.5" y="-53.3" font-family="Helvetica,sans-Serif" font-size="9.00">::rc_binomial_heap&lt;</text>
<text text-anchor="start" x="365.5" y="-43.3" font-family="Helvetica,sans-Serif" font-size="9.00"> Value_Type, Cmp_Fn,</text>
<text text-anchor="middle" x="415" y="-33.3" font-family="Helvetica,sans-Serif" font-size="9.00"> _Alloc &gt;</text>
</a>
</g>
</g>
<!-- Node1&#45;&gt;Node3 -->
<g id="edge3" class="edge">
<title>Node1&#45;&gt;Node3</title>
<path fill="none" stroke="midnightblue" d="M321.52,-68.14C333.52,-65.85 345.85,-63.5 357.43,-61.29"/>
<polygon fill="midnightblue" stroke="midnightblue" points="320.71,-64.73 311.55,-70.04 322.03,-71.61 320.71,-64.73"/>
</g>
</g>
</svg>
