<?xml version="1.0" encoding="UTF-8" standalone="no"?>
<!DOCTYPE svg PUBLIC "-//W3C//DTD SVG 1.1//EN"
 "http://www.w3.org/Graphics/SVG/1.1/DTD/svg11.dtd">
<!-- Generated by graphviz version 2.50.0 (0)
 -->
<!-- Title: Graphical Class Hierarchy Pages: 1 -->
<svg width="246pt" height="47pt"
 viewBox="0.00 0.00 246.00 47.00" xmlns="http://www.w3.org/2000/svg" xmlns:xlink="http://www.w3.org/1999/xlink">
<g id="graph0" class="graph" transform="scale(1 1) rotate(0) translate(4 43)">
<title>Graphical Class Hierarchy</title>
<polygon fill="white" stroke="transparent" points="-4,4 -4,-43 242,-43 242,4 -4,4"/>
<!-- Node0 -->
<g id="node1" class="node">
<title>Node0</title>
<g id="a_node1"><a xlink:href="a08850.html" target="_top" xlink:title=" ">
<polygon fill="white" stroke="black" points="0,-0.5 0,-38.5 104,-38.5 104,-0.5 0,-0.5"/>
<text text-anchor="start" x="8" y="-27.3" font-family="Helvetica,sans-Serif" font-size="9.00">std::_Vector_base&lt;</text>
<text text-anchor="start" x="8" y="-17.3" font-family="Helvetica,sans-Serif" font-size="9.00"> _Tp, std::allocator</text>
<text text-anchor="middle" x="52" y="-7.3" font-family="Helvetica,sans-Serif" font-size="9.00">&lt; _Tp &gt; &gt;</text>
</a>
</g>
</g>
<!-- Node1 -->
<g id="node2" class="node">
<title>Node1</title>
<g id="a_node2"><a xlink:href="a08862.html" target="_top" xlink:title="A standard container which offers fixed time access to individual elements in any order.">
<polygon fill="white" stroke="black" points="140,-5.5 140,-33.5 238,-33.5 238,-5.5 140,-5.5"/>
<text text-anchor="start" x="148" y="-22.3" font-family="Helvetica,sans-Serif" font-size="9.00">std::vector&lt; _Tp, </text>
<text text-anchor="middle" x="189" y="-12.3" font-family="Helvetica,sans-Serif" font-size="9.00">_Alloc &gt;</text>
</a>
</g>
</g>
<!-- Node0&#45;&gt;Node1 -->
<g id="edge1" class="edge">
<title>Node0&#45;&gt;Node1</title>
<path fill="none" stroke="darkgreen" d="M114.28,-19.5C122.75,-19.5 131.36,-19.5 139.57,-19.5"/>
<polygon fill="darkgreen" stroke="darkgreen" points="114.04,-16 104.04,-19.5 114.04,-23 114.04,-16"/>
</g>
</g>
</svg>
