<?xml version="1.0" encoding="UTF-8" standalone="no"?>
<!DOCTYPE svg PUBLIC "-//W3C//DTD SVG 1.1//EN"
 "http://www.w3.org/Graphics/SVG/1.1/DTD/svg11.dtd">
<!-- Generated by graphviz version 2.50.0 (0)
 -->
<!-- Title: Graphical Class Hierarchy Pages: 1 -->
<svg width="337pt" height="47pt"
 viewBox="0.00 0.00 337.00 47.00" xmlns="http://www.w3.org/2000/svg" xmlns:xlink="http://www.w3.org/1999/xlink">
<g id="graph0" class="graph" transform="scale(1 1) rotate(0) translate(4 43)">
<title>Graphical Class Hierarchy</title>
<polygon fill="white" stroke="transparent" points="-4,4 -4,-43 333,-43 333,4 -4,4"/>
<!-- Node0 -->
<g id="node1" class="node">
<title>Node0</title>
<g id="a_node1"><a xlink:href="a08206.html" target="_top" xlink:title=" ">
<polygon fill="white" stroke="black" points="0,-5.5 0,-33.5 132,-33.5 132,-5.5 0,-5.5"/>
<text text-anchor="start" x="8" y="-22.3" font-family="Helvetica,sans-Serif" font-size="9.00">std::unary_function</text>
<text text-anchor="middle" x="66" y="-12.3" font-family="Helvetica,sans-Serif" font-size="9.00">&lt; argument_type, bool &gt;</text>
</a>
</g>
</g>
<!-- Node1 -->
<g id="node2" class="node">
<title>Node1</title>
<g id="a_node2"><a xlink:href="a10062.html" target="_top" xlink:title="Similar to std::unary_negate, but giving the argument types explicitly.">
<polygon fill="white" stroke="black" points="168,-0.5 168,-38.5 329,-38.5 329,-0.5 168,-0.5"/>
<text text-anchor="start" x="176" y="-27.3" font-family="Helvetica,sans-Serif" font-size="9.00">__gnu_parallel::__unary</text>
<text text-anchor="start" x="176" y="-17.3" font-family="Helvetica,sans-Serif" font-size="9.00">_negate&lt; _Predicate, argument</text>
<text text-anchor="middle" x="248.5" y="-7.3" font-family="Helvetica,sans-Serif" font-size="9.00">_type &gt;</text>
</a>
</g>
</g>
<!-- Node0&#45;&gt;Node1 -->
<g id="edge1" class="edge">
<title>Node0&#45;&gt;Node1</title>
<path fill="none" stroke="midnightblue" d="M142.37,-19.5C150.82,-19.5 159.45,-19.5 167.95,-19.5"/>
<polygon fill="midnightblue" stroke="midnightblue" points="142.16,-16 132.16,-19.5 142.16,-23 142.16,-16"/>
</g>
</g>
</svg>
