<?xml version="1.0" encoding="UTF-8" standalone="no"?>
<!DOCTYPE svg PUBLIC "-//W3C//DTD SVG 1.1//EN"
 "http://www.w3.org/Graphics/SVG/1.1/DTD/svg11.dtd">
<!-- Generated by graphviz version 2.50.0 (0)
 -->
<!-- Title: Graphical Class Hierarchy Pages: 1 -->
<svg width="291pt" height="47pt"
 viewBox="0.00 0.00 291.00 47.00" xmlns="http://www.w3.org/2000/svg" xmlns:xlink="http://www.w3.org/1999/xlink">
<g id="graph0" class="graph" transform="scale(1 1) rotate(0) translate(4 43)">
<title>Graphical Class Hierarchy</title>
<polygon fill="white" stroke="transparent" points="-4,4 -4,-43 287,-43 287,4 -4,4"/>
<!-- Node0 -->
<g id="node1" class="node">
<title>Node0</title>
<g id="a_node1"><a xlink:href="a02738.html" target="_top" xlink:title=" ">
<polygon fill="white" stroke="black" points="0,-0.5 0,-38.5 117,-38.5 117,-0.5 0,-0.5"/>
<text text-anchor="start" x="8" y="-27.3" font-family="Helvetica,sans-Serif" font-size="9.00">std::basic_streambuf</text>
<text text-anchor="start" x="8" y="-17.3" font-family="Helvetica,sans-Serif" font-size="9.00">&lt; wchar_t, char_traits</text>
<text text-anchor="middle" x="58.5" y="-7.3" font-family="Helvetica,sans-Serif" font-size="9.00">&lt; wchar_t &gt; &gt;</text>
</a>
</g>
</g>
<!-- Node1 -->
<g id="node2" class="node">
<title>Node1</title>
<g id="a_node2"><a xlink:href="a06322.html" target="_top" xlink:title="Buffer conversions.">
<polygon fill="white" stroke="black" points="153,-5.5 153,-33.5 283,-33.5 283,-5.5 153,-5.5"/>
<text text-anchor="start" x="161" y="-22.3" font-family="Helvetica,sans-Serif" font-size="9.00">std::wbuffer_convert</text>
<text text-anchor="middle" x="218" y="-12.3" font-family="Helvetica,sans-Serif" font-size="9.00">&lt; _Codecvt, _Elem, _Tr &gt;</text>
</a>
</g>
</g>
<!-- Node0&#45;&gt;Node1 -->
<g id="edge1" class="edge">
<title>Node0&#45;&gt;Node1</title>
<path fill="none" stroke="midnightblue" d="M127.44,-19.5C135.88,-19.5 144.49,-19.5 152.87,-19.5"/>
<polygon fill="midnightblue" stroke="midnightblue" points="127.25,-16 117.25,-19.5 127.25,-23 127.25,-16"/>
</g>
</g>
</svg>
