<?xml version="1.0" encoding="UTF-8" standalone="no"?>
<!DOCTYPE svg PUBLIC "-//W3C//DTD SVG 1.1//EN"
 "http://www.w3.org/Graphics/SVG/1.1/DTD/svg11.dtd">
<!-- Generated by graphviz version 2.50.0 (0)
 -->
<!-- Title: Graphical Class Hierarchy Pages: 1 -->
<svg width="270pt" height="37pt"
 viewBox="0.00 0.00 270.00 37.00" xmlns="http://www.w3.org/2000/svg" xmlns:xlink="http://www.w3.org/1999/xlink">
<g id="graph0" class="graph" transform="scale(1 1) rotate(0) translate(4 33)">
<title>Graphical Class Hierarchy</title>
<polygon fill="white" stroke="transparent" points="-4,4 -4,-33 266,-33 266,4 -4,4"/>
<!-- Node0 -->
<g id="node1" class="node">
<title>Node0</title>
<g id="a_node1"><a xlink:href="a05094.html" target="_top" xlink:title=" ">
<polygon fill="white" stroke="black" points="0,-0.5 0,-28.5 106,-28.5 106,-0.5 0,-0.5"/>
<text text-anchor="start" x="8" y="-17.3" font-family="Helvetica,sans-Serif" font-size="9.00">std::__atomic_base</text>
<text text-anchor="middle" x="53" y="-7.3" font-family="Helvetica,sans-Serif" font-size="9.00">&lt; unsigned short &gt;</text>
</a>
</g>
</g>
<!-- Node1 -->
<g id="node2" class="node">
<title>Node1</title>
<g id="a_node2"><a xlink:href="a01998.html" target="_top" xlink:title="Explicit specialization for unsigned short.">
<polygon fill="white" stroke="black" points="142,-0.5 142,-28.5 262,-28.5 262,-0.5 142,-0.5"/>
<text text-anchor="start" x="150" y="-17.3" font-family="Helvetica,sans-Serif" font-size="9.00">std::atomic&lt; unsigned</text>
<text text-anchor="middle" x="202" y="-7.3" font-family="Helvetica,sans-Serif" font-size="9.00"> short &gt;</text>
</a>
</g>
</g>
<!-- Node0&#45;&gt;Node1 -->
<g id="edge1" class="edge">
<title>Node0&#45;&gt;Node1</title>
<path fill="none" stroke="midnightblue" d="M116.42,-14.5C124.87,-14.5 133.53,-14.5 141.92,-14.5"/>
<polygon fill="midnightblue" stroke="midnightblue" points="116.24,-11 106.24,-14.5 116.24,-18 116.24,-11"/>
</g>
</g>
</svg>
