<?xml version="1.0" encoding="UTF-8" standalone="no"?>
<!DOCTYPE svg PUBLIC "-//W3C//DTD SVG 1.1//EN"
 "http://www.w3.org/Graphics/SVG/1.1/DTD/svg11.dtd">
<!-- Generated by graphviz version 2.50.0 (0)
 -->
<!-- Title: Graphical Class Hierarchy Pages: 1 -->
<svg width="290pt" height="67pt"
 viewBox="0.00 0.00 290.00 67.00" xmlns="http://www.w3.org/2000/svg" xmlns:xlink="http://www.w3.org/1999/xlink">
<g id="graph0" class="graph" transform="scale(1 1) rotate(0) translate(4 63)">
<title>Graphical Class Hierarchy</title>
<polygon fill="white" stroke="transparent" points="-4,4 -4,-63 286,-63 286,4 -4,4"/>
<!-- Node0 -->
<g id="node1" class="node">
<title>Node0</title>
<g id="a_node1"><a xlink:href="a13318.html" target="_top" xlink:title="Const point&#45;type iterator.">
<polygon fill="white" stroke="black" points="0,-0.5 0,-58.5 123,-58.5 123,-0.5 0,-0.5"/>
<text text-anchor="start" x="8" y="-47.3" font-family="Helvetica,sans-Serif" font-size="9.00">__gnu_pbds::detail</text>
<text text-anchor="start" x="8" y="-37.3" font-family="Helvetica,sans-Serif" font-size="9.00">::binary_heap_point</text>
<text text-anchor="start" x="8" y="-27.3" font-family="Helvetica,sans-Serif" font-size="9.00">_const_iterator_&lt; Value</text>
<text text-anchor="start" x="8" y="-17.3" font-family="Helvetica,sans-Serif" font-size="9.00">_Type, Entry, Simple, </text>
<text text-anchor="middle" x="61.5" y="-7.3" font-family="Helvetica,sans-Serif" font-size="9.00">_Alloc &gt;</text>
</a>
</g>
</g>
<!-- Node1 -->
<g id="node2" class="node">
<title>Node1</title>
<g id="a_node2"><a xlink:href="a13282.html" target="_top" xlink:title="Const point&#45;type iterator.">
<polygon fill="white" stroke="black" points="159,-5.5 159,-53.5 282,-53.5 282,-5.5 159,-5.5"/>
<text text-anchor="start" x="167" y="-42.3" font-family="Helvetica,sans-Serif" font-size="9.00">__gnu_pbds::detail</text>
<text text-anchor="start" x="167" y="-32.3" font-family="Helvetica,sans-Serif" font-size="9.00">::binary_heap_const</text>
<text text-anchor="start" x="167" y="-22.3" font-family="Helvetica,sans-Serif" font-size="9.00">_iterator_&lt; Value_Type,</text>
<text text-anchor="middle" x="220.5" y="-12.3" font-family="Helvetica,sans-Serif" font-size="9.00"> Entry, Simple, _Alloc &gt;</text>
</a>
</g>
</g>
<!-- Node0&#45;&gt;Node1 -->
<g id="edge1" class="edge">
<title>Node0&#45;&gt;Node1</title>
<path fill="none" stroke="midnightblue" d="M133.21,-29.5C141.81,-29.5 150.53,-29.5 158.96,-29.5"/>
<polygon fill="midnightblue" stroke="midnightblue" points="133.2,-26 123.2,-29.5 133.2,-33 133.2,-26"/>
</g>
</g>
</svg>
